<?xml version="1.0" encoding="UTF-8"?>
<svg id="For_Sheets" xmlns="http://www.w3.org/2000/svg" version="1.1" viewBox="0 0 3456 2592">
  <!-- Generator: Adobe Illustrator 29.1.0, SVG Export Plug-In . SVG Version: 2.1.0 Build 142)  -->
  <defs>
    <style>
      .st0 {
        fill: #231f20;
      }

      .st1 {
        fill: #f7921e;
        stroke: #231f20;
        stroke-width: .5px;
      }
    </style>
  </defs>
  <rect class="st1" width="3456" height="2592" rx="162" ry="162"/>
  <path class="st0" d="M162,2547c-31.1,0-60.4-12.2-82.6-34.4-22.2-22.2-34.4-51.5-34.4-82.6V162c0-31.1,12.2-60.4,34.4-82.6,22.2-22.2,51.5-34.4,82.6-34.4h3132c31.1,0,60.4,12.2,82.6,34.4,22.2,22.2,34.4,51.5,34.4,82.6v2268c0,31.1-12.2,60.4-34.4,82.6-22.2,22.2-51.5,34.4-82.6,34.4H162ZM3294,2484c14.5,0,27.6-5.5,38-16,10.4-10.4,16-23.6,16-38V162c0-14.5-5.5-27.6-16-38-10.4-10.4-23.6-16-38-16H162c-14.5,0-27.6,5.5-38,16s-16,23.6-16,38v2268c0,14.5,5.5,27.6,16,38,10.4,10.4,23.6,16,38,16h3132Z"/>
  <g>
    <path class="st0" d="M846.6,1080V504h421.9v103.1h-316.4v107.1h172.4v105.1h-172.4v157.6h326.5v103.1h-432Z"/>
    <path class="st0" d="M1975.8,1080V504h103.7v576h-103.7Z"/>
    <path class="st0" d="M2443.9,605.1v474.9h-100.9v-474.9h-165.5v-101.1h432v101.1h-165.5Z"/>
    <path class="st0" d="M1738.8,1080l-129.9-204.1-127.9,204.1h-121.8l188.8-303.2-172.5-272.8h123.8l109.6,175.8,109.6-175.8h123.8l-170.5,272.8,188.8,303.2h-121.8Z"/>
  </g>
  <g>
    <path class="st0" d="M335.9,1799c0-81,16.3-297,212.2-297s140.4,34,179.9,117.2l-84.9,36.4c-29.4-42.3-44.1-60.6-95-60.6-120.5,0-119.2,168-119.2,204.1s-2.2,206.2,123.3,206.2,69.3-26.6,88.9-66.7l86.9,32.3c-32.4,80.1-86.8,127.2-173.9,127.2-207.3,0-218.2-229-218.2-299.1Z"/>
    <path class="st0" d="M854.8,1512h90.9v491.1h266.4v84.9h-357.2v-576Z"/>
    <path class="st0" d="M1696.1,1800c0,20.7,4.4,298.1-204.6,298.1s-204.6-277.4-204.6-298.1-4.4-298,204.6-298,204.6,277.3,204.6,298ZM1492.5,2005.2c62.1,0,112.5-58.8,112.5-205.2s-50.4-205.2-112.5-205.2-112.5,58.8-112.5,205.2,50.4,205.2,112.5,205.2Z"/>
    <path class="st0" d="M1782.6,1952.9l86.8-32.3c24.3,54.5,68.8,84.7,123.3,84.7s89.1-36.3,89.1-84.7c0-77-89.1-88.8-163.7-119.1-34.3-14.1-111-48.5-111-143.3s76.7-155.4,179.6-155.4,135.2,46.4,163.5,117.1l-80.8,24.2c-13.3-26-41.3-50.5-89.6-50.5-69.7,0-84.2,38-84.2,58.2,0,53.8,46.4,64.4,121.8,88.1,76.7,24.1,157.2,59.5,157.2,182.7,0,124.3-100.9,175.5-181.9,175.5s-171.8-58.5-210.2-145.3Z"/>
    <path class="st0" d="M2272.6,1512h339.1v90.9h-248.2v141.5h167.5v93h-167.5v157.7h266.4v93h-357.2v-576Z"/>
    <path class="st0" d="M2727.8,2088v-576h207.8c145.4,0,184.3,191.4,184.3,275,0,216.1-111.1,301-184,301h-208.1ZM2921.7,1602.9h-103.1v392h96.7c83.8,0,111.3-101.5,111.3-210s-14.7-182.1-104.9-182.1Z"/>
  </g>
</svg>