<?xml version="1.0" encoding="UTF-8"?>
<svg id="For_Sheets" xmlns="http://www.w3.org/2000/svg" version="1.1" viewBox="0 0 3456 1728">
  <!-- Generator: Adobe Illustrator 29.1.0, SVG Export Plug-In . SVG Version: 2.1.0 Build 142)  -->
  <defs>
    <style>
      .st0 {
        fill: #231f20;
      }

      .st1 {
        fill: #f7921e;
      }
    </style>
  </defs>
  <g>
    <rect class="st1" x="-.1" y="-.1" width="3456.2" height="1728.2" rx="135.1" ry="135.1"/>
    <path class="st0" d="M3321,0c74.6,0,135,60.4,135,135v1458c0,74.6-60.4,135-135,135H135c-74.6,0-135-60.4-135-135V135C0,60.4,60.4,0,135,0h3186M3321-.2H135C98.9-.2,64.9,13.8,39.4,39.4,13.8,64.9-.2,98.9-.2,135v1458c0,36.1,14.1,70.1,39.6,95.6,25.5,25.5,59.5,39.6,95.6,39.6h3186c36.1,0,70.1-14.1,95.6-39.6,25.5-25.5,39.6-59.5,39.6-95.6V135c0-36.1-14.1-70.1-39.6-95.6-25.5-25.5-59.5-39.6-95.6-39.6h0Z"/>
  </g>
  <rect class="st0" x="45" y="45" width="3366" height="1638" rx="90" ry="90"/>
  <rect class="st1" x="99" y="99" width="3258" height="1530" rx="36" ry="36"/>
  <g>
    <g>
      <path class="st0" d="M654.8,550.8h-49.2v169.2h-51.7v-360h107.1c56.5,0,94.5,37.9,94.5,96s-17.7,74.5-51.7,87.2l51.7,176.8h-52.9l-47.9-169.2ZM605.7,410.5v90.9h52.9c30.3,0,46.7-16.4,46.7-45.5s-18.9-45.4-46.6-45.4h-53Z"/>
      <path class="st0" d="M809.7,539.2c0-188.5,87.4-185.5,106.8-185.5s105.7-2.9,105.7,185.6-86.3,186.9-105.7,186.9-106.8,3-106.8-187ZM915.9,404.2c-10.3,0-56.7-2.1-56.7,135.3s46.4,136.3,56.7,136.3,56.6,2.1,56.6-136.3-46.3-135.3-56.6-135.3Z"/>
      <path class="st0" d="M1218.6,621.5h-77.2l-24.1,98.5h-51.9l89.9-360h50.7l89.9,360h-51.9l-25.3-98.5ZM1154,571h51.9l-26.6-103.6-25.3,103.6Z"/>
      <path class="st0" d="M1346.3,720v-360h102.7c22,0,99,1.1,99,179.4s-71.1,180.6-94.7,180.6h-107ZM1438.3,410.5h-40.4v258.9h35.9c42.1,0,63.7-18.4,63.7-127.6s-31.5-131.4-59.2-131.4Z"/>
    </g>
    <g>
      <path class="st0" d="M2007,720l-34.2-188.2-34.2,188.2h-45.6l-57.1-360h50.7l30.4,192,35.5-192h40.6l34.2,192,31.7-192h50.7l-58.3,360h-44.4Z"/>
      <path class="st0" d="M2152.9,539.2c0-188.5,87.4-185.5,106.8-185.5s105.7-2.9,105.7,185.6-86.3,186.9-105.7,186.9-106.8,3-106.8-187ZM2259.2,404.2c-10.3,0-56.7-2.1-56.7,135.3s46.4,136.3,56.7,136.3,56.6,2.1,56.6-136.3-46.3-135.3-56.6-135.3Z"/>
      <path class="st0" d="M2538.3,550.8h-49.2v169.2h-51.7v-360h107.1c56.5,0,94.5,37.9,94.5,96s-17.7,74.5-51.7,87.2l51.7,176.8h-52.9l-47.9-169.2ZM2489.1,410.5v90.9h52.9c30.3,0,46.7-16.4,46.7-45.5s-18.9-45.4-46.6-45.4h-53Z"/>
      <path class="st0" d="M2784.8,544.4l-32.8,60.6v115h-51.7v-360h51.7v144l81.9-144h59.3l-74.4,126.3,83.2,233.7h-54.2l-63-175.6Z"/>
    </g>
  </g>
  <g>
    <g>
      <path class="st0" d="M378.8,1126.8v241.2h-51.7v-360h51.7l98.3,216v-216h51.7v360h-39.1l-111-241.2Z"/>
      <path class="st0" d="M608.1,1008h169.7v50.5h-117.8v90.9h74.7v49.3h-74.7v118.8h131.8v50.5h-183.7v-360Z"/>
      <path class="st0" d="M929.8,1245.5l-50.9,122.5h-54.7l78.9-186.9-73.8-173.1h54.7l45.8,108.6,45.8-108.6h54.7l-72.5,173.1,78.9,186.9h-56l-50.9-122.5Z"/>
      <path class="st0" d="M1176.1,1368h-51.9v-312h-65.9v-48h183.7v48h-65.9v312Z"/>
    </g>
    <g>
      <path class="st0" d="M2205.5,1165.9l-67,202.1-67-202.1v202.1h-51.8v-360h51.8l67,202.1,67-202.1h51.8v360h-51.8v-202.1Z"/>
      <path class="st0" d="M2336.6,1008h50.4v360h-50.4v-360Z"/>
      <path class="st0" d="M2466.2,1008h51.9v312h131.8v48h-183.7v-360Z"/>
      <path class="st0" d="M2700.3,1008h169.7v50.5h-117.8v90.9h74.7v49.3h-74.7v118.8h131.8v50.5h-183.7v-360Z"/>
      <path class="st0" d="M3028.6,1323.9c27.9,0,50.7-25.3,50.7-54.4,0-76.7-134.4-76.5-134.4-174.4s40.6-93.4,92.6-93.4,90.1,39.1,91.3,93.5h-49.5c-1.3-25.2-19-41.7-41.8-41.7s-43.1,17.6-43.1,41.6,13.5,30.1,30.3,40.7c48.7,29.4,104.1,64.8,104.1,133.7s-44.4,104.8-100.2,104.8-101.4-53.6-101.4-112.5h50.8c0,30.6,15.2,62,50.7,62Z"/>
    </g>
  </g>
  <path class="st0" d="M1529.9,1342.8l34.3-36.7c17.8,12.6,31.7,17.7,49.5,17.7,38.9,0,67.2-35.4,67.2-84.6s-19-63.2-49.5-63.2-30.4,6.3-43.1,17.7l-49.5-6.3,8.9-179.4h169.9v50.5h-121.8l-3.8,75.8c17.7-6.3,26.6-7.6,40.5-7.6,58.4,0,98.9,46,98.9,115s-47.8,132.6-112.9,132.6-62.2-11.3-88.8-31.5Z"/>
</svg>