<?xml version="1.0" encoding="UTF-8"?>
<svg id="For_Sheets" xmlns="http://www.w3.org/2000/svg" version="1.1" viewBox="0 0 2160 1080">
  <!-- Generator: Adobe Illustrator 29.1.0, SVG Export Plug-In . SVG Version: 2.1.0 Build 142)  -->
  <defs>
    <style>
      .st0 {
        fill: #231f20;
      }

      .st1 {
        fill: #f7921e;
      }
    </style>
  </defs>
  <g>
    <rect class="st1" x="-.1" y="-.1" width="2160.2" height="1080.2" rx="108.1" ry="108.1"/>
    <path class="st0" d="M2052,0c59.6,0,108,48.4,108,108v864c0,59.6-48.4,108-108,108H108c-59.6,0-108-48.4-108-108V108C0,48.4,48.4,0,108,0h1944M2052-.2H108C79.1-.2,51.9,11,31.5,31.5,11,51.9-.2,79.1-.2,108v864c0,28.9,11.3,56.1,31.7,76.5,20.4,20.4,47.6,31.7,76.5,31.7h1944c28.9,0,56.1-11.3,76.5-31.7s31.7-47.6,31.7-76.5V108c0-28.9-11.3-56.1-31.7-76.5-20.4-20.4-47.6-31.7-76.5-31.7h0Z"/>
  </g>
  <rect class="st0" x="27" y="27" width="2106" height="1026" rx="81" ry="81"/>
  <rect class="st1" x="72" y="72" width="2016" height="936" rx="36" ry="36"/>
  <g>
    <path class="st0" d="M174.7,828V252h118.9c48.3,0,128.9,2.5,128.9,287s-80.6,289-128.9,289h-118.9ZM247.3,326.8v426.4h46.2c56.2,0,53.4-86.5,53.4-214,0-190.7-17.6-212.4-53.4-212.4h-46.2Z"/>
    <path class="st0" d="M510,252h211v74.8h-138.6v147.5h92.4v76.8h-92.4v202.1h146.7v74.8h-219V252Z"/>
    <path class="st0" d="M909.8,828h-72.7v-501.2h-71.1v-74.8h219v74.8h-75.2v501.2Z"/>
    <path class="st0" d="M1168.2,838.1c-129.3,0-132.5-162.6-132.5-297.1s3.2-297,132.5-297,132.5,162.5,132.5,297-3.2,297.1-132.5,297.1ZM1111.5,541c0,100.7,1.4,222.3,56.7,222.3s56.6-121.7,56.6-222.3-1.4-222.3-56.6-222.3-56.7,121.7-56.7,222.3Z"/>
    <path class="st0" d="M1388.3,686.5V252h72.7v444.7c0,42.4,17.6,66.7,52,66.7s50.5-24.3,50.5-66.7V252h72.6v434.5c0,120.2-63.3,151.6-123.1,151.6s-124.7-36-124.7-151.6Z"/>
    <path class="st0" d="M1924.7,541.2l58.6,286.8h-78.9l-54.9-268.8h-39.2v268.8h-72.8V252h112.2c89.2,0,135.6,54.6,135.6,161.7s-16.3,102.8-60.6,127.5ZM1910.5,411.7c0-65.2-14.3-84.9-64.7-84.9h-35.4v157.6h47.6c40.4,0,52.6-18.1,52.6-72.7Z"/>
  </g>
</svg>