<?xml version="1.0" encoding="UTF-8"?>
<svg id="For_Sheets" xmlns="http://www.w3.org/2000/svg" version="1.1" viewBox="0 0 1728 1296">
  <!-- Generator: Adobe Illustrator 29.1.0, SVG Export Plug-In . SVG Version: 2.1.0 Build 142)  -->
  <defs>
    <style>
      .st0 {
        fill: #231f20;
      }

      .st1 {
        fill: #f7921e;
      }
    </style>
  </defs>
  <g>
    <rect class="st1" x="-.1" y="-.1" width="1728.2" height="1296.2" rx="108.1" ry="108.1"/>
    <path class="st0" d="M1620,0c59.4,0,108,48.6,108,108v1080c0,59.4-48.6,108-108,108H108c-59.4,0-108-48.6-108-108V108C0,48.6,48.6,0,108,0h1512M1620-.2H108C79.2-.2,52.1,11,31.5,31.5,11,52.1-.2,79.2-.2,108v1080c0,28.8,11.3,55.9,31.8,76.5,20.5,20.5,47.7,31.8,76.5,31.8h1512c28.8,0,55.9-11.3,76.5-31.8,20.5-20.5,31.8-47.7,31.8-76.5V108c0-28.8-11.3-55.9-31.8-76.5-20.5-20.5-47.7-31.8-76.5-31.8h0Z"/>
  </g>
  <path class="st0" d="M108,1269c-44.7,0-81-36.3-81-81V108c0-44.7,36.3-81,81-81h1512c44.7,0,81,36.3,81,81v1080c0,44.7-36.3,81-81,81H108ZM1620,1224c19.9,0,36-16.1,36-36V108c0-19.9-16.1-36-36-36H108c-19.9,0-36,16.1-36,36v1080c0,19.9,16.1,36,36,36h1512Z"/>
  <g>
    <path class="st0" d="M519.6,252h169.6v45.5h-124.1v70.7h83.8v46.5h-83.8v78.8h133.2v46.5h-178.6V252Z"/>
    <path class="st0" d="M792.6,345v195h-45.4V252h45.4l105.1,183.9v-183.9h45.5v288h-40.4l-110.2-195Z"/>
    <path class="st0" d="M1012.4,540V252h103.9c72.7,0,92.2,95.7,92.2,137.5,0,108-55.5,150.5-92,150.5h-104.1ZM1109.3,297.5h-51.6v196h48.3c41.9,0,55.7-50.8,55.7-105s-7.3-91-52.5-91Z"/>
  </g>
  <g>
    <path class="st0" d="M160.8,1044v-288h103.9c72.7,0,92.2,95.7,92.2,137.5,0,108-55.5,150.5-92,150.5h-104.1ZM257.8,801.5h-51.5v196h48.3c41.9,0,55.7-50.8,55.7-105s-7.3-91-52.4-91Z"/>
    <path class="st0" d="M420.2,756h169.6v45.5h-124.1v70.7h83.8v46.5h-83.8v78.8h133.2v46.5h-178.6v-288Z"/>
    <path class="st0" d="M733.5,1044h-45.7v-247.6h-65.9v-40.4h178.6v40.4h-67v247.6Z"/>
    <path class="st0" d="M1042.6,900c0,10.3,2.2,149-102.3,149s-102.3-138.7-102.3-149-2.2-149,102.3-149,102.3,138.7,102.3,149ZM940.8,1002.6c31,0,56.2-29.4,56.2-102.6s-25.2-102.6-56.2-102.6-56.2,29.4-56.2,102.6,25.2,102.6,56.2,102.6Z"/>
    <path class="st0" d="M1106,940.9v-184.9h45.4v184.9c0,37.4,21.2,61.6,52.6,61.6s52.6-24.2,52.6-61.6v-184.9h45.5v184.9c0,91.1-69.9,108.1-98,108.1s-98-15.1-98-108.1Z"/>
    <path class="st0" d="M1416.6,918.6v125.4h-45.4v-288h104.2c66,0,85.8,52.8,85.8,80.9s-4,52.8-44.7,72.1l50.8,135h-49.5l-46.5-125.4h-54.6ZM1473.8,872.2c36.1,0,41.8-26.1,41.8-35.4s-9.4-35.4-39.6-35.4h-59.4v70.7h57.2Z"/>
  </g>
</svg>