<?xml version="1.0" encoding="UTF-8"?>
<svg id="For_Sheets" xmlns="http://www.w3.org/2000/svg" version="1.1" viewBox="0 0 864 2592">
  <!-- Generator: Adobe Illustrator 29.1.0, SVG Export Plug-In . SVG Version: 2.1.0 Build 142)  -->
  <defs>
    <style>
      .st0 {
        fill: #bed73d;
      }

      .st1 {
        fill: #231f20;
      }

      .st2 {
        fill: #fff;
      }

      .st3 {
        fill: #bf311a;
      }
    </style>
  </defs>
  <g>
    <rect class="st0" x="-.1" y="-.1" width="864.2" height="2592.2" rx="108.1" ry="108.1"/>
    <path class="st1" d="M756,0c59.6,0,108,48.4,108,108v2376c0,59.6-48.4,108-108,108H108c-59.6,0-108-48.4-108-108V108C0,48.4,48.4,0,108,0h648M756-.2H108C79.1-.2,51.9,11,31.5,31.5,11,51.9-.2,79.1-.2,108v2376c0,28.9,11.3,56.1,31.7,76.5,20.4,20.4,47.6,31.7,76.5,31.7h648c28.9,0,56.1-11.3,76.5-31.7,20.4-20.4,31.7-47.6,31.7-76.5V108c0-28.9-11.3-56.1-31.7-76.5C812.1,11,784.9-.2,756-.2h0Z"/>
  </g>
  <rect class="st1" x="72" y="468" width="720" height="1728" rx="72" ry="72"/>
  <rect class="st2" x="90" y="486" width="684" height="1692" rx="54" ry="54"/>
  <g>
    <g>
      <path class="st1" d="M253.4,414v-144h22.7v122.8h66.6v21.2h-89.3Z"/>
      <path class="st1" d="M589.4,414h-20.3l-22.8-92.5-22.3,92.5h-20.3l-21.3-144h23.3l11.2,75.8,18.2-75.8h22.3l18.8,75.8,11.2-75.8h23.3l-21.3,144Z"/>
      <path class="st1" d="M449.4,414l-14.2-40.4h-45.2l-14.2,40.4h-24.4l49.8-144h22.9l49.8,144h-24.4ZM412.8,309.9l-14.7,40.4h29l-14.2-40.4Z"/>
    </g>
    <g>
      <path class="st1" d="M382.3,2358v-108h15.1v108h-15.1Z"/>
      <path class="st1" d="M470,2358l-33.3-72.4v72.4h-15.5v-108h15.5l29.5,64.8v-64.8h15.5v108h-11.7Z"/>
    </g>
    <g>
      <path class="st1" d="M162.6,182.1l21.7-8.1c6.1,13.6,17.2,21.2,30.8,21.2s22.2-9.1,22.2-21.2c0-19.3-22.2-22.2-40.9-29.8-8.6-3.5-27.8-12.1-27.8-35.9s19.2-38.9,45-38.9,33.9,11.6,40.9,29.3l-20.2,6.1c-2.3-5.7-10.5-12.6-21.2-12.6-20.5,0-22.3,11-22.3,14.6,0,13.5,11.6,16.1,30.5,22,19.2,6,39.3,14.9,39.3,45.8s-25.2,43.9-45.5,43.9-42.9-14.7-52.5-36.4Z"/>
      <path class="st1" d="M327.9,216h-22.8v-123.8h-33v-20.2h89.3v20.2h-33.5v123.8Z"/>
      <path class="st1" d="M453.9,175.6h-45.2l-14.2,40.4h-24.4l49.8-144h22.9l49.8,144h-24.4l-14.2-40.4ZM416.8,152.3h29l-14.2-40.4-14.7,40.4Z"/>
      <path class="st1" d="M557,216h-22.8v-123.8h-33v-20.2h89.3v20.2h-33.5v123.8Z"/>
      <path class="st1" d="M612.1,72h84.8v22.7h-62.1v35.4h41.9v23.2h-41.9v39.4h66.6v23.2h-89.3V72Z"/>
    </g>
    <g>
      <path class="st1" d="M133.9,2440.8c-1.5-10.6-5.7-15.5-12.9-15.5-12.6,0-17.1,9.9-17.1,37.9s5.3,43.6,18.7,43.6,11.4-7.6,11.4-15.5h15.6c-.4,17.8-11.8,30.7-27,30.7-23.2,0-33.5-18.6-33.5-58.4s11-53.4,32.3-53.4,27.6,18,28.2,30.7h-15.6Z"/>
      <path class="st1" d="M201.3,2469.2h-14.8v50.8h-15.5v-108h32.1c16.9,0,28.4,11.4,28.4,28.8s-5.3,22.4-15.5,26.1l15.5,53.1h-15.9l-14.4-50.8ZM186.6,2427.2v27.3h15.9c9.1,0,14-4.9,14-13.6s-5.7-13.6-14-13.6h-15.9Z"/>
      <path class="st1" d="M247.8,2465.8c0-56.6,26.2-55.6,32-55.6s31.7-.9,31.7,55.7-25.9,56.1-31.7,56.1-32,.9-32-56.1ZM279.6,2425.3c-3.1,0-17-.6-17,40.6s13.9,40.9,17,40.9,17,.6,17-40.9-13.9-40.6-17-40.6Z"/>
      <path class="st1" d="M358.7,2451.3c11.8,7.4,29.5,17.8,29.5,39.1s-13.3,31.4-30.1,31.4-30.4-16.1-30.4-33.7h15.2c0,9.2,4.6,18.6,15.2,18.6s15.2-7.6,15.2-16.3c0-23.5-40.3-22.1-40.3-52.3s12.2-28,27.8-28,27,11.7,27.4,28h-14.8c-.4-7.6-5.7-12.5-12.6-12.5s-12.9,5.3-12.9,12.5,3.7,8.7,10.8,13.2Z"/>
      <path class="st1" d="M432.2,2451.3c11.8,7.4,29.5,17.8,29.5,39.1s-13.3,31.4-30.1,31.4-30.4-16.1-30.4-33.7h15.2c0,9.2,4.6,18.6,15.2,18.6s15.2-7.6,15.2-16.3c0-23.5-40.3-22.1-40.3-52.3s12.2-28,27.8-28,27,11.7,27.4,28h-14.8c-.4-7.6-5.7-12.5-12.6-12.5s-12.9,5.3-12.9,12.5,3.7,8.7,10.8,13.2Z"/>
      <path class="st1" d="M522.7,2520l-10.3-56.5-10.3,56.5h-13.7l-17.1-108h15.2l9.1,57.6,10.6-57.6h12.2l10.3,57.6,9.5-57.6h15.2l-17.5,108h-13.3Z"/>
      <path class="st1" d="M606,2490.4h-23.2l-7.2,29.6h-15.6l27-108h15.2l27,108h-15.6l-7.6-29.6ZM586.6,2475.3h15.6l-8-31.1-7.6,31.1Z"/>
      <path class="st1" d="M644.3,2412h15.6v93.6h39.5v14.4h-55.1v-108Z"/>
      <path class="st1" d="M739.9,2467.3l-9.8,18.2v34.5h-15.5v-108h15.5v43.2l24.6-43.2h17.8l-22.3,37.9,25,70.1h-16.3l-18.9-52.7Z"/>
    </g>
  </g>
  <g>
    <path class="st1" d="M395,1368h-17.1v-92.8h-24.7v-15.2h67v15.2h-25.1v92.8Z"/>
    <path class="st1" d="M510.9,1314c0,3.9.8,55.9-38.4,55.9s-38.4-52-38.4-55.9-.8-55.9,38.4-55.9,38.4,52,38.4,55.9ZM472.7,1352.5c11.6,0,21.1-11,21.1-38.5s-9.4-38.5-21.1-38.5-21.1,11-21.1,38.5,9.4,38.5,21.1,38.5Z"/>
  </g>
  <path class="st1" d="M362.4,1583.3c0,23.2-18.8,41.9-41.9,41.9s-41.9-18.8-41.9-41.9,18.8-41.9,41.9-41.9,41.9,18.8,41.9,41.9ZM503.6,1458c-24.4,0-44.2,19.8-44.2,44.2s19.8,44.2,44.2,44.2,44.2-19.8,44.2-44.2-19.8-44.2-44.2-44.2ZM343,1625.5c-6.7,3.6-14.4,5.7-22.6,5.7s-7.6-.5-11.2-1.3l-25.1,26.7-25.6,81.6-48.6,46.1,14,13.2,57.7-37.9,7.4-30.4,9.1,28-37.1,114.5,13.2,4.2-38.7,145.8,20.6,7.4,55.2-145.8,22.2,1.7,61,141.6,21.4-6.6-43.7-137.5c4.4-1,8.8-2.2,13.2-3.2,3.9-.9,7.7-2.1,11.5-3.4l-22.2-68.4,55.2-13.2-11.5-56h-13.2l9-14-1.6-3.3,47.7-13.2,12.3-21.4,18.1,75.8-35.4,112-9.9,170.5,38.7,3.3,14-141.7,23.9-52.7,18.1,72.5,67.6,126,35.4-17.3-63.4-131,6.6-112.9,67.6-19.8-18.1-65.9-17.3,2.4,5.8-35.4-55.2-104.6-29.7-13.2-5.3-12.4c-8.5,6.5-19.1,10.4-30.6,10.4s-3.4,0-5.1-.3l-1.9,10.5-23.1,21.4-28.8,97.2-42,17.3-23.9-52.7-35.9-20.4ZM372.3,1743.9l-9.1,1.6,8.2-37.1,7.4,15.7-6.6,19.8ZM565,1642.6l29.7,45.3-7.4,28-9.9,2.5-12.3-75.8Z"/>
  <path class="st3" d="M411.1,1156.3L118.2,649.8c-9.7-16.8,2.4-37.8,21.8-37.8h583.9c19.4.1,31.5,21.1,21.8,37.9l-291,506.4c-9.7,16.8-33.9,16.9-43.7,0ZM274.3,739.9l136.6,236.3c9.7,16.8,34,16.8,43.7,0l135.8-236.2c9.7-16.8-2.5-37.8-21.8-37.8h-272.4c-19.4,0-31.5,20.9-21.8,37.7Z"/>
  <g>
    <path class="st3" d="M361.1,801h-9.1v-28.5l-15.5-34.5h9.5l10.6,22.8,10.4-22.8h9.7l-15.7,34.5v28.5Z"/>
    <path class="st3" d="M385.7,738h8.8v63h-8.8v-63Z"/>
    <path class="st3" d="M408.4,738h29.7v8.8h-20.6v15.9h13.1v8.6h-13.1v20.8h23.1v8.8h-32.1v-63Z"/>
    <path class="st3" d="M451.2,738h9.1v54.6h23.1v8.4h-32.1v-63Z"/>
    <path class="st3" d="M492.2,801v-63h18c3.8,0,17.3.2,17.3,31.4s-12.4,31.6-16.6,31.6h-18.7ZM508.3,746.9h-7.1v45.3h6.3c7.4,0,11.1-3.2,11.1-22.3s-5.5-23-10.4-23Z"/>
  </g>
</svg>