<?xml version="1.0" encoding="UTF-8"?>
<svg id="For_Sheets" xmlns="http://www.w3.org/2000/svg" version="1.1" viewBox="0 0 2592 2592">
  <!-- Generator: Adobe Illustrator 29.1.0, SVG Export Plug-In . SVG Version: 2.1.0 Build 142)  -->
  <defs>
    <style>
      .st0, .st1 {
        fill: #231f20;
      }

      .st2 {
        fill: #bf311a;
      }

      .st2, .st1 {
        fill-rule: evenodd;
      }

      .st3 {
        fill: #fff;
      }
    </style>
  </defs>
  <g>
    <g>
      <path class="st3" d="M162,2592.1c-89.4,0-162.1-72.7-162.1-162.1V162C-.1,72.6,72.6-.1,162-.1h2268c89.4,0,162.1,72.7,162.1,162.1v2268c0,89.4-72.7,162.1-162.1,162.1H162Z"/>
      <path class="st0" d="M2430,0c89.5,0,162,72.5,162,162v2268c0,89.5-72.5,162-162,162H162C72.5,2592,0,2519.5,0,2430V162C0,72.5,72.5,0,162,0h2268M2430-.2H162C118.7-.2,77.9,16.6,47.3,47.3,16.6,77.9-.2,118.7-.2,162v2268c0,43.3,16.9,84.1,47.5,114.7,30.6,30.6,71.4,47.5,114.7,47.5h2268c43.3,0,84.1-16.9,114.7-47.5,30.6-30.6,47.5-71.4,47.5-114.7V162c0-43.3-16.9-84.1-47.5-114.7-30.6-30.6-71.4-47.5-114.7-47.5h0Z"/>
    </g>
    <path class="st0" d="M2430,2547c64.5,0,117-52.5,117-117V162c0-64.5-52.5-117-117-117H162c-64.5,0-117,52.5-117,117v2268c0,64.5,52.5,117,117,117h2268Z"/>
    <path class="st3" d="M2430,2484c29.8,0,54-24.2,54-54V162c0-29.8-24.2-54-54-54H162c-29.8,0-54,24.2-54,54v2268c0,29.8,24.2,54,54,54h2268Z"/>
  </g>
  <polygon class="st2" points="1489.9 216 1102.1 216 828 490.1 828 877.9 1102.1 1152 1489.9 1152 1764 877.9 1764 490.1 1489.9 216"/>
  <g>
    <path class="st3" d="M961.1,806.2c25.1,0,45.6-22.8,45.6-48.9,0-69-121-68.8-121-156.9s36.5-84.1,83.3-84.1,81.1,35.2,82.2,84.1h-44.6c-1.1-22.7-17.1-37.5-37.7-37.5s-38.8,15.9-38.8,37.5,12.2,27.1,27.3,36.6c43.8,26.4,93.7,58.4,93.7,120.4s-40,94.4-90.2,94.4-91.3-48.3-91.3-101.2h45.7c0,27.6,13.6,55.8,45.6,55.8Z"/>
    <path class="st3" d="M1186.5,845.9h-46.7v-280.8h-59.3v-43.2h165.3v43.2h-59.3v280.8Z"/>
    <path class="st3" d="M1284.7,683.2c0-169.7,78.7-166.9,96.1-166.9s95.1-2.6,95.1,167.1-77.6,168.2-95.1,168.2-96.1,2.7-96.1-168.3ZM1380.3,561.7c-9.2,0-51-1.9-51,121.7s41.8,122.6,51,122.6,50.9,1.9,50.9-122.6-41.7-121.7-50.9-121.7Z"/>
    <path class="st3" d="M1587.2,703.8v142.1h-46.5v-324h96.4c51.1,0,85.1,36.5,85.1,91s-30.7,90.9-85.1,90.9h-49.9ZM1587.2,659.5h47.6c27.2,0,42-17,42-46.6s-17.2-45.5-42-45.5h-47.7v92.1Z"/>
  </g>
  <g>
    <path class="st1" d="M591.2,1242c45.3,0,82.3,37,82.3,82.3,0,45.3-37,82.3-82.3,82.3s-82.3-37-82.3-82.3c0-45.3,37-82.3,82.3-82.3Z"/>
    <path class="st1" d="M342,1761.1l172.7-115.1c8-33.7,41.1-183.5,107.5-218.2,65.8-43.5,308.4,135.2,309.8,136.7v260.7s-52.6-9.1-52.6-9.1l-20.6-208.1c-19.8-4-39.6-8-59.5-12,43.3,111.9,59.2,219.8,34.3,290.9l105.2,429.9-70.9,50.3-153.2-397.9-70.9,75.5-98.3,299.5-93.7-34.3,84.6-315.6,98.3-176.1-37.7-129.9-40,52.2-187.5,61.7-27.4-41.2Z"/>
  </g>
  <g>
    <path class="st0" d="M1596,1399.6h-78.7v130.4h-41.3v-288h41.3v117.2h78.7v-117.2h41.4v288h-41.3v-130.4Z"/>
    <path class="st0" d="M1700.7,1242h135.8v40.4h-94.2v72.8h59.8v39.4h-59.8v95h105.4v40.4h-146.9v-288Z"/>
    <path class="st0" d="M1977.3,1394.6h-39.3v135.4h-41.3v-288h85.7c45.2,0,75.6,30.3,75.6,76.8s-14.1,59.6-41.4,69.7l41.3,141.5h-42.3l-38.3-135.4ZM1938,1282.4v72.8h42.3c24.3,0,37.3-13.1,37.3-36.4s-15.1-36.4-37.3-36.4h-42.4Z"/>
    <path class="st0" d="M2106.9,1242h135.8v40.4h-94.2v72.8h59.8v39.4h-59.8v95h105.4v40.4h-146.9v-288Z"/>
  </g>
  <g id="ARC">
    <path class="st0" d="M2026.6,1956c-267.1-177.7-605.7-209.3-901-84v-234c345.2-93.9,714.5-1.3,974.4,244.6l58.5-170.3c6.5-18.8,26.9-28.8,45.7-22.3,12.4,4.3,21.6,15,23.8,28l75.9,442-442-75.9c-19.6-3.4-32.8-22-29.4-41.6,2.2-13,11.3-23.7,23.8-28l170.3-58.5Z"/>
  </g>
  <g>
    <path class="st0" d="M1052.3,2075.2h57.8v39.4h-57.8v135.4h-41.5v-288h146.9v40.4h-105.4v72.8Z"/>
    <path class="st0" d="M1192.2,2105.4c0-150.8,69.9-148.4,85.5-148.4s84.5-2.3,84.5,148.5-69,149.5-84.5,149.5-85.5,2.4-85.5-149.6ZM1277.2,1997.4c-8.2,0-45.3-1.7-45.3,108.2s37.1,109,45.3,109,45.3,1.7,45.3-109-37.1-108.2-45.3-108.2Z"/>
    <path class="st0" d="M1500.5,2114.6h-39.3v135.4h-41.3v-288h85.7c45.2,0,75.6,30.3,75.6,76.8s-14.1,59.6-41.4,69.7l41.3,141.5h-42.3l-38.3-135.4ZM1461.2,2002.4v72.8h42.3c24.3,0,37.3-13.1,37.3-36.4s-15.1-36.4-37.3-36.4h-42.4Z"/>
  </g>
</svg>