<?xml version="1.0" encoding="UTF-8"?>
<svg id="For_Sheets" xmlns="http://www.w3.org/2000/svg" version="1.1" viewBox="0 0 2382.1 2101.2">
  <!-- Generator: Adobe Illustrator 29.1.0, SVG Export Plug-In . SVG Version: 2.1.0 Build 142)  -->
  <defs>
    <style>
      .st0 {
        fill: #231f20;
      }

      .st1 {
        fill: #fff;
      }

      .st2 {
        fill: #bf311a;
      }
    </style>
  </defs>
  <g>
    <path class="st1" d="M1191.1,2101.1c-52.1,0-98.8-26.9-124.8-72.1L19.7,216.3c-26.1-45.1-26.1-99,0-144.1C45.7,27.1,92.4.1,144.5.1h2093.2c52.1,0,98.8,26.9,124.8,72.1s26.1,99,0,144.1l-1046.6,1812.7c-26.1,45.1-72.7,72.1-124.8,72.1Z"/>
    <path class="st0" d="M2237.6.2c110.9,0,180.1,120,124.7,216l-1046.6,1812.7c-27.7,48-76.2,72-124.7,72s-97-24-124.7-72L19.8,216.2C-35.7,120.2,33.6.2,144.5.2h2093.2M2237.6,0H144.5C92.3,0,45.6,27,19.6,72.1c-26.1,45.2-26.1,99.1,0,144.2l1046.6,1812.7c26.1,45.2,72.8,72.1,124.9,72.1s98.8-27,124.9-72.1L2362.6,216.4c26.1-45.2,26.1-99.1,0-144.2-26.1-45.2-72.8-72.1-124.9-72.1h0Z"/>
  </g>
  <path class="st2" d="M1269,2002L2315.6,189.3c34.6-60-8.7-135-77.9-135H144.5c-69.3,0-112.6,75-77.9,135l1046.6,1812.7c34.6,60,121.2,60,155.9,0Z"/>
  <path class="st1" d="M1269,1282l423-732.7c34.6-60-8.7-135-77.9-135h-846.1c-69.3,0-112.6,75-77.9,135l423,732.7c34.6,60,121.2,60,155.9,0Z"/>
  <g>
    <path class="st2" d="M935.7,774.2h-31.2v-97.8l-53.2-118.2h32.7l36.5,78.1,35.7-78.1h33.4l-53.9,118.2v97.8Z"/>
    <path class="st2" d="M1019.9,558.3h30.2v216h-30.2v-216Z"/>
    <path class="st2" d="M1097.7,558.3h101.8v30.3h-70.7v54.6h44.8v29.6h-44.8v71.3h79.1v30.3h-110.2v-216Z"/>
    <path class="st2" d="M1244.6,558.3h31.2v187.2h79.1v28.8h-110.2v-216Z"/>
    <path class="st2" d="M1385.1,774.2v-216h61.6c13.2,0,59.4.6,59.4,107.6s-42.7,108.4-56.8,108.4h-64.2ZM1440.3,588.6h-24.2v155.4h21.5c25.3,0,38.2-11,38.2-76.5s-18.9-78.8-35.5-78.8Z"/>
  </g>
</svg>