<?xml version="1.0" encoding="UTF-8"?>
<svg id="For_Sheets" xmlns="http://www.w3.org/2000/svg" version="1.1" viewBox="0 0 2592 1728">
  <!-- Generator: Adobe Illustrator 29.1.0, SVG Export Plug-In . SVG Version: 2.1.0 Build 142)  -->
  <defs>
    <style>
      .st0 {
        fill: #231f20;
      }

      .st1 {
        fill: #fff;
      }
    </style>
  </defs>
  <g>
    <rect class="st1" x="-.1" y="-.1" width="2592.2" height="1728.2" rx="108.1" ry="108.1"/>
    <path class="st0" d="M2484,0c59.6,0,108,48.4,108,108v1512c0,59.6-48.4,108-108,108H108c-59.6,0-108-48.4-108-108V108C0,48.4,48.4,0,108,0h2376M2484-.2H108C79.1-.2,51.9,11,31.5,31.5,11,51.9-.2,79.1-.2,108v1512c0,28.9,11.3,56.1,31.7,76.5,20.4,20.4,47.6,31.7,76.5,31.7h2376c28.9,0,56.1-11.3,76.5-31.7,20.4-20.4,31.7-47.6,31.7-76.5V108c0-28.9-11.3-56.1-31.7-76.5-20.4-20.4-47.6-31.7-76.5-31.7h0Z"/>
  </g>
  <rect class="st0" x="27" y="27" width="2538" height="1674" rx="81" ry="81"/>
  <rect class="st1" x="72" y="72" width="2448" height="1584" rx="36" ry="36"/>
  <g>
    <path class="st0" d="M609.9,471.3h125.7v69.7h-125.7v188h-68.1v-432h267.9v68.2h-199.8v106.1Z"/>
    <path class="st0" d="M874.5,297h69.1v432h-69.1v-432Z"/>
    <path class="st0" d="M1115.4,436.5v292.5h-68.1v-432h68.1l157.7,275.9v-275.9h68.3v432h-60.6l-165.3-292.5Z"/>
    <path class="st0" d="M1445,297h254.3v68.2h-186.2v106.1h125.7v69.7h-125.7v118.3h199.8v69.7h-267.9v-432Z"/>
    <path class="st0" d="M1756.2,627.4l65.2-24.2c18.2,40.9,51.5,63.7,92.4,63.7s66.7-27.3,66.7-63.7c0-57.8-66.7-66.7-122.8-89.4-25.8-10.6-83.4-36.4-83.4-107.6s57.6-116.6,134.9-116.6,101.6,34.9,122.8,87.9l-60.6,18.2c-6.8-17.1-31.5-37.9-63.7-37.9-61.6,0-66.8,32.9-66.8,43.7,0,40.4,34.8,48.4,91.5,66.2,57.7,18.1,117.9,44.7,117.9,137.3s-75.6,131.8-136.5,131.8-128.8-44-157.6-109.1Z"/>
  </g>
  <g>
    <path class="st0" d="M264.1,1431v-432h155.8c109,0,138.2,143.6,138.2,206.3,0,162.1-83.3,225.7-138,225.7h-156.1ZM409.6,1067.2h-77.3v294h72.5c62.9,0,83.5-76.1,83.5-157.5s-11-136.6-78.7-136.6Z"/>
    <path class="st0" d="M1010.3,1276.4v-277.4h68.1v277.4c0,56.1,31.9,92.4,78.8,92.4s78.8-36.3,78.8-92.4v-277.4h68.3v277.4c0,136.6-104.8,162.2-147,162.2s-147-22.6-147-162.2Z"/>
    <path class="st0" d="M1387.3,1431v-432h163.7c68.2,0,119.7,47,119.7,109.1s-19.7,74.3-60.6,97c45.5,21.2,71.2,58,71.2,104.5s-17.3,121.3-130.4,121.3h-163.7ZM1555.6,1067.2h-100.1v106.1h86.8c38.8,0,60.3-33.8,60.3-62.2s-15.9-44-47-44ZM1455.5,1243v118.3h103.1c35.1,0,53.1-16.7,53.1-50.1s-23.1-68.2-58.4-68.2h-97.7Z"/>
    <path class="st0" d="M1740.2,999h68.1v368.3h199.8v63.7h-267.9v-432Z"/>
    <path class="st0" d="M2060,999h254.3v68.2h-186.2v106.1h125.7v69.7h-125.7v118.3h199.8v69.7h-267.9v-432Z"/>
    <path class="st0" d="M934.2,1215c0,15.5,3.3,223.6-153.5,223.6s-153.5-208.1-153.5-223.6-3.3-223.5,153.5-223.5,153.5,208,153.5,223.5ZM781.5,1368.9c46.5,0,84.3-44.1,84.3-153.9s-37.8-153.9-84.3-153.9-84.3,44.1-84.3,153.9,37.8,153.9,84.3,153.9Z"/>
  </g>
</svg>