<?xml version="1.0" encoding="UTF-8"?>
<svg id="For_Sheets" xmlns="http://www.w3.org/2000/svg" version="1.1" viewBox="0 0 2160 2592">
  <!-- Generator: Adobe Illustrator 29.1.0, SVG Export Plug-In . SVG Version: 2.1.0 Build 142)  -->
  <defs>
    <style>
      .st0 {
        fill: #231f20;
      }

      .st1 {
        fill: #fff;
      }
    </style>
  </defs>
  <g>
    <path class="st1" d="M135,2592.1c-35.9,0-69.8-14.1-95.4-39.7-25.6-25.6-39.7-59.5-39.7-95.4V135C-.2,99.1,13.9,65.2,39.5,39.6S99-.1,135-.1h1890c35.9,0,69.8,14.1,95.4,39.7,25.6,25.6,39.7,59.5,39.7,95.4v2322c0,35.9-14.1,69.8-39.7,95.4-25.6,25.6-59.5,39.7-95.4,39.7H135Z"/>
    <path class="st0" d="M2025,0c74.2,0,135,60.8,135,135v2322c0,74.2-60.8,135-135,135H135C60.7,2592,0,2531.2,0,2457V135C0,60.8,60.7,0,135,0h1890M2025-.2H135C99-.2,65.1,13.9,39.4,39.5,13.8,65.1-.3,99-.3,135v2322c0,36,14.1,69.9,39.7,95.5,25.6,25.6,59.5,39.7,95.5,39.7h1890c36,0,69.9-14.1,95.5-39.7,25.6-25.6,39.7-59.5,39.7-95.5V135c0-36-14.1-69.9-39.7-95.5-25.6-25.6-59.5-39.7-95.5-39.7h0Z"/>
  </g>
  <path class="st0" d="M135,2556c-54.6,0-99-44.4-99-99V135c0-54.6,44.4-99,99-99h1890c54.6,0,99,44.4,99,99v2322c0,54.6-44.4,99-99,99H135ZM2025,2502c24.8,0,45-20.2,45-45V135c0-24.8-20.2-45-45-45H135c-24.8,0-45,20.2-45,45v2322c0,24.8,20.2,45,45,45h1890Z"/>
  <g>
    <path class="st0" d="M817.4,2029.5v292.5h-68.1v-432h68.1s157.7,275.9,157.7,275.9v-275.9h68.3v432h-60.6l-165.3-292.5Z"/>
    <path class="st0" d="M1147,1890h68.1v368.3h199.8v63.7s-267.9,0-267.9,0v-432Z"/>
    <path class="st0" d="M1661.8,2322h-68.6s0-188,0-188l-152.3-244h82.3l103.6,166.8,105.1-166.8h80.7l-150.8,244v188Z"/>
    <path class="st0" d="M654.2,2106c0,15.5,3.3,223.6-153.5,223.6-156.8,0-153.5-208.1-153.5-223.6,0-15.5-3.3-223.5,153.5-223.5,156.8,0,153.5,208,153.5,223.5ZM501.5,2259.9c46.5,0,84.3-44.1,84.3-153.9,0-109.8-37.8-153.9-84.3-153.9-46.5,0-84.3,44.1-84.3,153.9s37.8,153.9,84.3,153.9Z"/>
  </g>
  <g>
    <path class="st0" d="M1358.8,1710h270s0-378,0-378c0-89.2-14.3-176.9-42.4-260.8-27.2-81.1-67-157.2-118.1-226.2-50.5-68.1-110.9-127.8-179.7-177.4-69.7-50.3-146.4-89.1-227.9-115.3l-134.5-43.3-82.7,257,134.5,43.3c54.6,17.5,105.9,43.5,152.6,77.2,46.2,33.3,86.8,73.4,120.7,119.2,70.3,94.9,107.5,207.7,107.5,326.3v378Z"/>
    <path class="st0" d="M1061.6,376.7c2.5-3.6,4.3-7.5,5.6-11.4,7.6-23.7-5.4-49-29.1-56.6-8.3-2.7-17.6-3-26.6-.3l-597.7,177.6,382,492.8c5.8,7.5,13.4,12.6,21.8,15.3,23.7,7.6,49-5.4,56.6-29.1,1.3-4,2-8.2,2.1-12.5l8.6-314.9,176.6-260.9Z"/>
  </g>
</svg>