<?xml version="1.0" encoding="UTF-8"?>
<svg id="For_Sheets" xmlns="http://www.w3.org/2000/svg" version="1.1" viewBox="0 0 2160 2592">
  <!-- Generator: Adobe Illustrator 29.1.0, SVG Export Plug-In . SVG Version: 2.1.0 Build 142)  -->
  <defs>
    <style>
      .st0 {
        fill: #231f20;
      }

      .st1 {
        fill: #fff;
      }
    </style>
  </defs>
  <g>
    <path class="st1" d="M135,2592.1c-35.9,0-69.8-14.1-95.4-39.7-25.6-25.6-39.7-59.5-39.7-95.4V135C-.1,99.1,14,65.2,39.6,39.6S99.1-.1,135-.1h1890c35.9,0,69.8,14.1,95.4,39.7,25.6,25.6,39.7,59.5,39.7,95.4v2322c0,35.9-14.1,69.8-39.7,95.4-25.6,25.6-59.5,39.7-95.4,39.7H135Z"/>
    <path class="st0" d="M2025,0c74.2,0,135,60.8,135,135v2322c0,74.2-60.8,135-135,135H135c-74.2,0-135-60.8-135-135V135C0,60.8,60.8,0,135,0h1890M2025-.2H135C99-.2,65.1,13.9,39.5,39.5,13.9,65.1-.2,99-.2,135v2322c0,36,14.1,69.9,39.7,95.5,25.6,25.6,59.5,39.7,95.5,39.7h1890c36,0,69.9-14.1,95.5-39.7,25.6-25.6,39.7-59.5,39.7-95.5V135c0-36-14.1-69.9-39.7-95.5-25.6-25.6-59.5-39.7-95.5-39.7h0Z"/>
  </g>
  <path class="st0" d="M2025,2556H135c-54.4,0-99-44.5-99-99V135c0-54.4,44.6-99,99-99h1890c54.5,0,99,44.6,99,99v2322c0,54.5-44.5,99-99,99ZM2070,2457V135c0-24.8-20.2-45-45-45H135c-24.8,0-45,20.2-45,45v2322c0,24.8,20.2,45,45,45h1890c24.8,0,45-20.2,45-45Z"/>
  <g>
    <rect class="st0" x="945" y="766.1" width="270" height="889.9"/>
    <path class="st0" d="M777.6,871.2c-4.2,1.2-8.4,1.8-12.6,1.8-24.9,0-45-20.2-45-45,0-8.8,2.5-17.6,7.9-25.4l352.1-514.6,352.1,514.6c5.3,7.8,7.9,16.6,7.9,25.4,0,24.9-20.1,45-45,45-4.2,0-8.4-.6-12.6-1.8l-302.4-88.2-302.4,88.2Z"/>
  </g>
  <g>
    <path class="st0" d="M654.3,2088c0,15.5,3.3,223.6-153.5,223.6s-153.5-208.1-153.5-223.6-3.3-223.5,153.5-223.5,153.5,208,153.5,223.5ZM501.6,2241.9c46.5,0,84.3-44.1,84.3-153.9s-37.8-153.9-84.3-153.9-84.3,44.1-84.3,153.9,37.8,153.9,84.3,153.9Z"/>
    <path class="st0" d="M817.5,2011.5v292.5h-68.1v-432h68.1l157.7,275.9v-275.9h68.3v432h-60.6l-165.3-292.5Z"/>
    <path class="st0" d="M1147.1,1872h68.1v368.3h199.8v63.7h-267.9v-432Z"/>
    <path class="st0" d="M1661.9,2304h-68.6v-188l-152.3-244h82.3l103.6,166.8,105.1-166.8h80.7l-150.8,244v188Z"/>
  </g>
</svg>