<?xml version="1.0" encoding="UTF-8"?>
<svg id="For_Sheets" xmlns="http://www.w3.org/2000/svg" version="1.1" viewBox="0 0 1728 2592">
  <!-- Generator: Adobe Illustrator 29.1.0, SVG Export Plug-In . SVG Version: 2.1.0 Build 142)  -->
  <defs>
    <style>
      .st0 {
        fill: #231f20;
      }

      .st1 {
        fill: #fff;
      }
    </style>
  </defs>
  <g>
    <rect class="st1" x="-.1" y="-.1" width="1728.2" height="2592.2" rx="108.1" ry="108.1"/>
    <path class="st0" d="M1620,0c59.4,0,108,48.6,108,108v2376c0,59.4-48.6,108-108,108H108c-59.4,0-108-48.6-108-108V108C0,48.6,48.6,0,108,0h1512M1620-.2H108C79.2-.2,52.1,11,31.5,31.5,11,52.1-.2,79.2-.2,108v2376c0,28.8,11.3,55.9,31.8,76.5,20.5,20.5,47.7,31.8,76.5,31.8h1512c28.8,0,55.9-11.3,76.5-31.8,20.5-20.5,31.8-47.7,31.8-76.5V108c0-28.8-11.3-55.9-31.8-76.5-20.5-20.5-47.7-31.8-76.5-31.8h0Z"/>
  </g>
  <path class="st0" d="M108,2565c-44.7,0-81-36.3-81-81V108c0-44.7,36.3-81,81-81h1512c44.7,0,81,36.3,81,81v2376c0,44.7-36.3,81-81,81H108ZM1620,2520c19.9,0,36-16.1,36-36V108c0-19.9-16.1-36-36-36H108c-19.9,0-36,16.1-36,36v2376c0,19.9,16.1,36,36,36h1512Z"/>
  <rect class="st0" x="288" y="805.5" width="1152" height="45"/>
  <g>
    <path class="st0" d="M293,286.9c0,47,19.7,74.2,52.3,74.2s30.3-6.8,49.3-27.3l34.1,18.2c-15.9,30.3-48.5,47.7-83.4,47.7-56.8,0-91.7-45.1-91.7-112.2s34.9-111.3,91.7-111.3,66.7,17.4,83.4,47.7l-34.1,18.2c-7.5-13.1-26.3-27.3-49.3-27.3-39.4,0-52.3,38.7-52.3,72Z"/>
    <path class="st0" d="M478.4,180h158.2v38.7h-118.6v40.1h64.6v39.4h-64.6v59.1h122.4v38.7h-162v-216Z"/>
    <path class="st0" d="M721.6,247.4v148.6h-38v-216h38l99.8,142.5v-142.5h37.3v216h-33.5l-103.5-148.6Z"/>
    <path class="st0" d="M995.3,396h-37.9v-178.1h-62.1v-37.9h162v37.9h-62.1v178.1Z"/>
    <path class="st0" d="M1094.1,180h158.2v38.7h-118.6v40.1h64.6v39.4h-64.6v59.1h122.4v38.7h-162v-216Z"/>
    <path class="st0" d="M1435,303.6l39.4,92.4h-43.2l-34.9-84.9h-58.4v84.9h-38.7v-216h102.1c44.6,0,68.4,35.3,68.4,65.9s-12.9,45.5-34.9,57.6ZM1338,218.7v53.8h62.2c18.9,0,31-10.9,31-26.5s-12.1-27.3-31.1-27.3h-62.2Z"/>
  </g>
  <g>
    <path class="st0" d="M449.1,504h38.8v182.7h123.2v33.3h-162v-216Z"/>
    <path class="st0" d="M786,669.2h-94l-21.2,50.8h-42.4l90.9-216h39.4l90.2,216h-41.7l-21.2-50.8ZM708.7,630.6h60.6l-30.3-72.8-30.3,72.8Z"/>
    <path class="st0" d="M923.7,571.4v148.6h-38v-216h38l99.8,142.5v-142.5h37.3v216h-33.5l-103.5-148.6Z"/>
    <path class="st0" d="M1116.9,504h158.2v38.7h-118.6v40.1h64.6v39.4h-64.6v59.1h122.4v38.7h-162v-216Z"/>
  </g>
  <g>
    <path class="st0" d="M432.9,2303.6c0-69,34.9-111.4,91.9-111.4s89.6,44.4,89.6,110.6-34.7,112.9-89.6,112.9-91.9-57.9-91.9-112.2ZM472.4,2303.6c0,46.2,19.7,73.5,52.4,73.5s50.9-40.2,50.9-73.5-18.8-72.8-50.9-72.8-52.4,27.3-52.4,72.8Z"/>
    <path class="st0" d="M702.2,2263.4v148.6h-38v-216h38l99.8,142.5v-142.5h37.3v216h-33.5l-103.5-148.6Z"/>
    <path class="st0" d="M895.4,2196h38.8v182.7h123.2v33.3h-162v-216Z"/>
    <path class="st0" d="M1204.2,2412h-38.6v-87.9l-90.9-128.1h47.7l62.9,87.9,62.1-87.9h47.7l-90.9,128.1v87.9Z"/>
  </g>
  <g>
    <g>
      <path class="st0" d="M1299,1637.4l-132.8-35.4c-53.5-14.5-103.8-37.2-149.5-67.5-46-30.5-86.2-68.1-119.6-111.6l-.3-.5c-33.3-44.2-59.2-92.8-77-144.5-18.1-52.7-27.3-107.2-27.3-162v-180h141.8v180c0,39.1,6.6,78.1,19.6,115.9,12.9,37.5,31.7,72.8,56,105,23.8,30.9,52.5,57.7,85.3,79.5,32.9,21.9,69.3,38.3,108,48.7l132.4,35.3-36.5,137Z"/>
      <path class="st0" d="M1304.9,1401.4c0-2.3.2-4.5.8-6.6,3.4-12.6,16.3-20.1,28.9-16.7,4.4,1.2,8.6,3.7,11.8,7.4l213.4,248.2-308.7,109c-4.7,1.6-9.5,1.7-14,.6-12.6-3.4-20.1-16.3-16.7-28.9.6-2.1,1.4-4.2,2.6-6.1l85.6-141.5-3.8-165.3Z"/>
    </g>
    <g>
      <path class="st0" d="M934.2,2088h-141.8v-180c0-39.5-6.4-78.7-19.1-116.3-12.7-37.6-31.2-72.8-55.2-104.6-23.8-30.9-52.5-57.7-85.3-79.5-32.9-21.9-69.3-38.3-108-48.7l-132.4-35.3,36.5-137,132.8,35.4c53.5,14.5,103.8,37.2,149.5,67.5,46,30.5,86.2,68.1,119.6,111.6l.3.4c33.2,44.1,59,92.8,76.5,144.9,17.6,52.3,26.5,106.6,26.5,161.6v180Z"/>
      <path class="st0" d="M423.1,1622.6c0,2.3-.2,4.5-.8,6.6-3.4,12.6-16.3,20.1-28.9,16.7-4.4-1.2-8.6-3.7-11.8-7.4l-213.4-248.2,308.7-109c4.7-1.6,9.5-1.7,14-.6,12.6,3.4,20.1,16.3,16.7,28.9-.6,2.1-1.4,4.2-2.6,6.1l-85.6,141.5,3.8,165.3Z"/>
    </g>
  </g>
</svg>