<?xml version="1.0" encoding="UTF-8"?>
<svg id="For_Sheets" xmlns="http://www.w3.org/2000/svg" version="1.1" viewBox="0 0 5616 2592">
  <!-- Generator: Adobe Illustrator 29.1.0, SVG Export Plug-In . SVG Version: 2.1.0 Build 142)  -->
  <defs>
    <style>
      .st0 {
        fill: #231f20;
      }

      .st1 {
        fill: #fff;
      }
    </style>
  </defs>
  <g>
    <path class="st1" d="M162,2592.1c-89.4,0-162.1-72.7-162.1-162.1V162C-.1,72.6,72.6-.1,162-.1h5292c89.4,0,162.1,72.7,162.1,162.1v2268c0,89.4-72.7,162.1-162.1,162.1H162Z"/>
    <path class="st0" d="M5454,0c89.5,0,162,72.5,162,162v2268c0,89.5-72.5,162-162,162H162c-89.5,0-162-72.5-162-162V162C0,72.5,72.5,0,162,0h5292M5454-.2H162C118.7-.2,77.9,16.6,47.3,47.3,16.6,77.9-.2,118.7-.2,162v2268c0,43.3,16.9,84.1,47.5,114.7,30.6,30.6,71.4,47.5,114.7,47.5h5292c43.3,0,84.1-16.9,114.7-47.5,30.6-30.6,47.5-71.4,47.5-114.7V162c0-43.3-16.9-84.1-47.5-114.7-30.6-30.6-71.4-47.5-114.7-47.5h0Z"/>
  </g>
  <path class="st0" d="M162,2547c-64.5,0-117-52.5-117-117V162c0-64.5,52.5-117,117-117h5292c64.5,0,117,52.5,117,117v2268c0,64.5-52.5,117-117,117H162Z"/>
  <path class="st1" d="M162,2484c-29.8,0-54-24.2-54-54V162c0-29.8,24.2-54,54-54h5292c29.8,0,54,24.2,54,54v2268c0,29.8-24.2,54-54,54H162Z"/>
  <g>
    <path class="st0" d="M492.1,504h103.5v487.1h328.5v88.9h-432V504Z"/>
    <path class="st0" d="M1022,504h421.8v103.1h-316.4v107.1h172.4v105.1h-172.4v157.6h326.5v103.1h-432V504Z"/>
    <path class="st0" d="M1674.7,724.3h180.5v105h-180.5v250.6h-105.5V504h432v103.1h-326.5v117.2Z"/>
    <path class="st0" d="M2313.8,1080h-100.9v-474.9h-165.5v-101.1h432v101.1h-165.5v474.9Z"/>
  </g>
  <g>
    <path class="st0" d="M2911.3,504h103.5v487.1h328.5v88.9h-432V504Z"/>
    <path class="st0" d="M3809.7,944.6h-250.6l-56.6,135.4h-113.1l242.5-576h105l240.4,576h-111.2l-56.5-135.4ZM3603.5,841.5h161.6l-80.8-194-80.9,194Z"/>
    <path class="st0" d="M4176.7,683.9v396.1h-101.4V504h101.4l266,380v-380h99.4v576h-89.3l-276-396.1Z"/>
    <path class="st0" d="M4691.9,504h421.8v103.1h-316.4v107.1h172.4v105.1h-172.4v157.6h326.5v103.1h-432V504Z"/>
  </g>
  <g>
    <path class="st0" d="M1033,1736.3l-170.4,351.6-168.4-351.6v351.6h-101.4v-576h101.4l168.4,341.6,170.4-341.6h101.4v576h-101.4v-351.6Z"/>
    <path class="st0" d="M1517.3,1992.7c60.4,0,130.2-42.6,130.2-132.5v-348.3h103.5v343.6c0,141.5-97.4,242.5-233.4,242.5s-233.4-101-233.4-242.5v-343.6h103.5v347.7c0,86.8,64.7,133.1,129.6,133.1Z"/>
    <path class="st0" d="M2251.9,2059.3c-40.6,24.6-93.1,39-146.1,39-99.4,0-174.6-36.9-239.5-112.7l83.2-65.6c42.6,51.2,89.3,73.8,154.2,73.8s125.9-34.3,125.9-75.8-58.4-62.5-219.6-107.8c-81.1-22.8-117.4-84.5-117.4-146.3,0-96.4,81.3-161.9,198.9-161.9s156.4,28.6,215.2,90l-77.2,69.7c-36.5-39-83.2-57.4-138-57.4s-93.3,25.6-93.3,58.8c0,63.9,78.4,49.8,221.7,100.2,101.2,35.7,113.2,122.1,113.2,158.7,0,59.4-26.4,104.5-81.2,137.3Z"/>
    <path class="st0" d="M2662.9,2088h-100.9v-474.9h-165.5v-101.1h432v101.1h-165.5v474.9Z"/>
  </g>
  <g>
    <path class="st0" d="M3260.4,1512h421.8v103.1h-316.4v107.1h172.4v105.1h-172.4v157.6h326.5v103.1h-432v-576Z"/>
    <path class="st0" d="M4022.8,1883.9l-127.9,204.1h-121.8l188.8-303.2-172.5-272.8h123.8l109.7,175.8,109.6-175.8h123.8l-170.5,272.8,188.8,303.2h-121.7l-130-204.1Z"/>
    <path class="st0" d="M4389.7,1512h103.7v576h-103.7v-576Z"/>
    <path class="st0" d="M4857.8,2088h-100.9v-474.9h-165.5v-101.1h432v101.1h-165.5v474.9Z"/>
  </g>
</svg>