<?xml version="1.0" encoding="UTF-8"?>
<svg id="For_Sheets" xmlns="http://www.w3.org/2000/svg" version="1.1" viewBox="0 0 2592 3888">
  <!-- Generator: Adobe Illustrator 29.1.0, SVG Export Plug-In . SVG Version: 2.1.0 Build 142)  -->
  <defs>
    <style>
      .st0, .st1 {
        fill: #fff;
      }

      .st0, .st2 {
        fill-rule: evenodd;
      }

      .st3, .st2 {
        fill: #231f20;
      }
    </style>
  </defs>
  <g>
    <path class="st0" d="M162,3888.1c-43.1,0-83.8-16.9-114.5-47.6S-.1,3769.1-.1,3726V162C-.1,118.9,16.8,78.2,47.5,47.5S118.9-.1,162-.1h2268c43.1,0,83.8,16.9,114.5,47.6s47.6,71.4,47.6,114.5v3564c0,43.1-16.9,83.8-47.6,114.5-30.7,30.7-71.4,47.6-114.5,47.6H162Z"/>
    <path class="st3" d="M2430,0c89.1,0,162,72.9,162,162v3564c0,89.1-72.9,162-162,162H162c-89.1,0-162-72.9-162-162V162C0,72.9,72.9,0,162,0h2268M2430-.2H162c-21.8,0-43,4.3-63,12.8-19.3,8.2-36.7,19.9-51.6,34.9-14.9,14.9-26.7,32.3-34.9,51.6C4.1,119-.2,140.2-.2,162v3564c0,21.8,4.3,43,12.8,63,8.2,19.3,19.9,36.7,34.9,51.6,14.9,14.9,32.3,26.7,51.6,34.9,20,8.5,41.2,12.8,63,12.8h2268c21.8,0,43-4.3,63-12.8,19.3-8.2,36.7-19.9,51.6-34.9,14.9-14.9,26.7-32.3,34.9-51.6,8.5-20,12.8-41.2,12.8-63V162c0-21.8-4.3-43-12.8-63-8.2-19.3-19.9-36.7-34.9-51.6-14.9-14.9-32.3-26.7-51.6-34.9-20-8.5-41.2-12.8-63-12.8h0Z"/>
  </g>
  <path class="st2" d="M162,3843c-31.1,0-60.4-12.2-82.6-34.4-22.2-22.2-34.4-51.5-34.4-82.6V162c0-31.1,12.2-60.4,34.4-82.6s51.5-34.4,82.6-34.4h2268c31.1,0,60.4,12.2,82.6,34.4,22.2,22.2,34.4,51.5,34.4,82.6v3564c0,31.1-12.2,60.4-34.4,82.6-22.2,22.2-51.5,34.4-82.6,34.4H162ZM108,1332v2394c0,14.5,5.5,27.6,16,38,10.4,10.4,23.6,16,38,16h2268c14.5,0,27.6-5.5,38-16s16-23.6,16-38V1332H108Z"/>
  <g>
    <path class="st1" d="M431.6,582.3c-94.7,0-152.8-74.5-152.8-186.9s58.1-185.7,152.8-185.7,111.2,29.1,138.9,79.6l-56.8,30.3c-10.1-15.2-15.2-20.2-25.3-26.5-13.9-11.4-37.9-18.9-56.8-18.9-65.7,0-87.2,64.4-87.2,120s32.8,123.8,87.2,123.8,50.5-11.4,82.1-45.5l56.8,30.3c-26.5,50.5-80.8,79.6-138.9,79.6Z"/>
    <path class="st1" d="M653.3,576V216h263.7v64.4h-197.8v66.9h107.7v65.7h-107.7v98.5h204.1v64.4h-270Z"/>
    <path class="st1" d="M1679.5,576V216h263.7v64.4h-197.8v66.9h107.7v65.7h-107.7v98.5h204.1v64.4h-270Z"/>
    <path class="st1" d="M1231.3,576l-172.5-247.6v247.6h-63.4V216h63.4l166.2,237.5v-237.5h62.2v360h-55.8Z"/>
    <path class="st1" d="M2241.3,576l-58.1-141.5h-97.4v141.5h-64.4V216h166.8c26.5,0,42.9,3.8,61.9,15.2,34.1,18.9,55.6,54.3,55.6,94.7s-21.5,75.8-58.1,96l65.7,154.1h-72ZM2189.6,280.4h-103.7v89.7h103.7c31.6,0,51.8-17.7,51.8-44.2s-20.2-45.5-51.8-45.5Z"/>
    <path class="st1" d="M1514.8,279.2v296.8h-63.1v-296.8h-103.5v-63.2h270v63.2h-103.5Z"/>
  </g>
  <g>
    <path class="st1" d="M1201.4,1134l-35.4-84.6h-156.6l-35.4,84.6h-70.7l151.5-360h65.7l150.3,360h-69.5ZM1087.7,863.7l-50.5,121.3h101l-50.5-121.3Z"/>
    <path class="st1" d="M1717.4,1134v-360h263.7v64.4h-197.7v66.9h107.7v65.7h-107.7v98.5h204.1v64.4h-270Z"/>
    <path class="st1" d="M604.6,1134v-360h64.6v304.4h205.3v55.6h-270Z"/>
    <path class="st1" d="M1568,1134l-172.5-247.6v247.6h-63.4v-360h63.4l166.2,237.5v-237.5h62.2v360h-55.8Z"/>
  </g>
  <g>
    <path class="st3" d="M1106.7,2411.7c-19,35.4-61.9,60.6-106.1,60.6s-87.2-25.3-106.1-60.6c-10.1-21.5-16.4-46.7-16.4-74.5v-231.2h56.8v231.2c0,46.7,26.5,77.1,65.7,77.1s65.7-30.3,65.7-77.1v-231.2h56.8v231.2c0,27.8-6.3,53.1-16.4,74.5Z"/>
    <path class="st3" d="M1394.1,2444.5c-20.2,17.7-48,27.8-78.3,27.8-61.9,0-107.4-36.6-131.4-90.9l54.3-20.2c15.2,34.1,43,53.1,77.1,53.1s55.6-22.7,55.6-53.1c0-48-55.6-55.6-102.3-74.5-21.5-8.8-69.5-30.3-69.5-89.7s48-97.3,112.4-97.3,84.6,29.1,102.3,73.3l-50.5,15.2s-12.6-30.3-53.1-31.6c-26.5-1.3-58.1,8.8-55.6,41.7,5.1,66.9,174.3,22.7,174.3,164.2s-12.6,61.9-35.4,82.1Z"/>
    <path class="st3" d="M1490.6,2466v-360h211.9v56.8h-155.2v88.4h104.7v58.1h-104.7v98.5h166.5v58.1h-223.3Z"/>
  </g>
  <g>
    <g>
      <path class="st3" d="M640.4,1905.8c-13.9,12.6-32.8,18.9-51.8,20.2h-130.1v-360h116.2c36.6,0,50.5,3.8,69.5,18.9,37.9,32.8,59.4,89.7,59.4,160.4s-22.7,128.8-63.2,160.4ZM616.4,1638c-8.8-8.8-21.5-15.2-36.6-15.2h-64.4v245.1h56.8c18.9,0,30.3-3.8,40.4-13.9,21.5-21.5,32.8-60.6,32.8-108.6s-11.4-88.4-29.1-107.4Z"/>
      <path class="st3" d="M1031.3,1746c0,12.9,2.7,186.3-127.9,186.3s-127.9-173.4-127.9-186.3-2.7-186.3,127.9-186.3,127.9,173.3,127.9,186.3ZM904.1,1874.2c38.8,0,70.3-36.8,70.3-128.2s-31.5-128.2-70.3-128.2-70.3,36.7-70.3,128.2,31.5,128.2,70.3,128.2Z"/>
    </g>
    <g>
      <path class="st3" d="M1477.9,1926l-137.7-243.8v243.8h-56.8v-360h56.8l131.4,229.9v-229.9h56.8v360h-50.5Z"/>
      <path class="st3" d="M2049.8,1616.5v309.5h-57.1v-309.5h-82.5v-50.5h223.3v50.5h-83.7Z"/>
      <path class="st3" d="M1863.4,1746c0,12.9,2.7,186.3-127.9,186.3s-127.9-173.4-127.9-186.3-2.7-186.3,127.9-186.3,127.9,173.4,127.9,186.3ZM1736.1,1874.2c38.8,0,70.3-36.8,70.3-128.3s-31.5-128.3-70.3-128.3-70.3,36.7-70.3,128.3,31.5,128.3,70.3,128.3Z"/>
    </g>
  </g>
  <g>
    <path class="st3" d="M1826.1,2977h-113l-35.6,101.1h-61l124.5-360h57.2l124.5,360h-61l-35.6-101.1ZM1733.4,2918.9h72.4l-35.6-101-36.8,101Z"/>
    <path class="st3" d="M2200.7,2869.6l-83.5,208.4-83.6-208.4v208.4h-57v-360h57l83.6,202.1,83.5-202.1h57v360h-57v-208.4Z"/>
  </g>
  <g>
    <path class="st3" d="M759.4,2869.9h180v56.2h-180v-56.2Z"/>
    <path class="st3" d="M1197.8,3036.4c42.9-34.1,65.7-63.1,87.2-109.9-20.2,3.7-29.1,5-43,5-67.1,0-122.5-49.2-122.5-109.9s54.4-109.9,122.5-109.9,122.5,49.4,122.5,115c0,98.3-55.6,200.8-139,257.7l-27.8-48ZM1177.5,2821.6c0,30.3,28.6,51.7,64.4,51.7s65.7-22.7,65.7-51.7-29.7-51.8-65.7-51.8-64.4,22.7-64.4,51.8Z"/>
    <path class="st3" d="M414.4,3078c0-140.4,58.9-252.2,92.7-303.2h-172.7v-56.8h245.1v56.8c-24.1,25.3-106.6,140.9-106.6,303.2h-58.4Z"/>
  </g>
  <g>
    <path class="st3" d="M1343.6,3379.5h144v45h-144v-45Z"/>
    <g>
      <path class="st3" d="M1677.1,3374.2h83.8v46.5h-83.8v125.3h-45.4v-288h178.6v45.5h-133.2v70.7Z"/>
      <path class="st3" d="M1898.9,3420.6v125.4h-45.4v-288h104.2c66,0,85.8,52.8,85.8,80.9s-4,52.8-44.7,72.1l50.8,135h-49.5l-46.5-125.4h-54.6ZM1956.1,3374.2c36.1,0,41.8-26.1,41.8-35.4s-9.4-35.4-39.6-35.4h-59.4v70.7h57.2Z"/>
      <path class="st3" d="M2098.5,3258h46.1v288h-46.1v-288Z"/>
    </g>
    <g>
      <path class="st3" d="M626.6,3379.2l-66.8,166.8-66.9-166.8v166.8h-45.6v-288h45.6l66.9,161.7,66.8-161.7h45.6v288h-45.6v-166.8Z"/>
      <path class="st3" d="M940.2,3402c0,10.3,2.2,149-102.3,149s-102.3-138.7-102.3-149-2.2-149,102.3-149,102.3,138.7,102.3,149ZM838.4,3504.6c31,0,56.2-29.4,56.2-102.6s-25.2-102.6-56.2-102.6-56.2,29.4-56.2,102.6,25.2,102.6,56.2,102.6Z"/>
      <path class="st3" d="M1049,3351v195h-45.4v-288h45.4l105.1,183.9v-183.9h45.5v288h-40.4l-110.2-195Z"/>
    </g>
  </g>
</svg>