<?xml version="1.0" encoding="UTF-8"?>
<svg id="For_Sheets" xmlns="http://www.w3.org/2000/svg" version="1.1" viewBox="0 0 7776 3456">
  <!-- Generator: Adobe Illustrator 29.1.0, SVG Export Plug-In . SVG Version: 2.1.0 Build 142)  -->
  <defs>
    <style>
      .st0 {
        fill: #231f20;
      }

      .st1 {
        fill: #bf311a;
        fill-rule: evenodd;
      }

      .st2 {
        fill: #fff;
      }
    </style>
  </defs>
  <g>
    <path class="st2" d="M216,3456.1c-57.7,0-112-22.5-152.8-63.3C22.4,3352-.1,3297.7-.1,3240V216C-.1,158.3,22.4,104,63.2,63.2,104,22.4,158.3-.1,216-.1h7344c57.7,0,112,22.5,152.8,63.3,40.8,40.8,63.3,95.1,63.3,152.8v3024c0,57.7-22.5,112-63.3,152.8-40.8,40.8-95.1,63.3-152.8,63.3H216Z"/>
    <path class="st0" d="M7560,0c119.3,0,216,96.7,216,216v3024c0,119.3-96.7,216-216,216H216c-119.3,0-216-96.7-216-216V216C0,96.7,96.7,0,216,0h7344M7560-.2H216c-29.2,0-57.5,5.7-84.2,17-25.8,10.9-48.9,26.5-68.7,46.3-19.9,19.9-35.5,43-46.3,68.7C5.5,158.5-.2,186.8-.2,216v3024c0,29.2,5.7,57.5,17,84.2,10.9,25.8,26.5,48.9,46.3,68.7,19.9,19.9,43,35.5,68.7,46.3,26.7,11.3,55,17,84.2,17h7344c29.2,0,57.5-5.7,84.2-17,25.8-10.9,48.9-26.5,68.7-46.3,19.9-19.9,35.5-43,46.3-68.7,11.3-26.7,17-55,17-84.2V216c0-29.2-5.7-57.5-17-84.2-10.9-25.8-26.5-48.9-46.3-68.7-19.9-19.9-43-35.5-68.7-46.3-26.7-11.3-55-17-84.2-17h0Z"/>
  </g>
  <path class="st0" d="M216,3402c-89.3,0-162-72.7-162-162V216c0-89.3,72.7-162,162-162h7344c89.3,0,162,72.7,162,162v3024c0,89.3-72.7,162-162,162H216ZM7560,3312c39.7,0,72-32.3,72-72V216c0-39.7-32.3-72-72-72H216c-39.7,0-72,32.3-72,72v3024c0,39.7,32.3,72,72,72h7344Z"/>
  <rect class="st0" x="2617.5" y="106" width="45" height="3245"/>
  <rect class="st0" x="5113.5" y="106" width="45" height="3245"/>
  <polygon class="st1" points="2168.4 769.8 1990.2 591.6 1392 1189.8 793.8 591.6 615.6 769.8 1213.8 1368 615.6 1966.2 793.8 2144.4 1392 1546.2 1990.2 2144.4 2168.4 1966.2 1570.2 1368 2168.4 769.8"/>
  <g>
    <g>
      <path class="st0" d="M591.5,3096c5.2-183.9,35.3-318.3,97.3-438.5h-151.3v-65.5h216.8v65.5c-67.3,136.1-92,249.3-97.3,438.5h-65.5Z"/>
      <path class="st0" d="M809.7,2827.7h156.2v65.4h-156.2v-65.4Z"/>
      <path class="st0" d="M1238.2,2733.5c0,150.3-61.3,275.8-181.4,371.3l-35.4-54.8c56.6-46,94-95.4,120.5-161-6.9,2.3-18.6,4.2-25.9,4.2-75.2,0-94.6-100-94.6-154.5,0-105.2,39.1-155.5,110-155.5s106.8,53,106.8,150.3ZM1086.8,2747.7c0,53,14.6,77.8,42.8,77.8s43.3-26.6,43.3-86.7-25.1-90.3-43.3-90.3h0c-25.7.1-42.8,15-42.8,99.2Z"/>
    </g>
    <g>
      <path class="st0" d="M1833.4,2961.6h-83l-28.3,134.4h-65.4l102.6-504h65.4l104.3,504h-67.2l-28.4-134.4ZM1764.4,2896.2h54.8l-26.5-132.7-28.3,132.7Z"/>
      <path class="st0" d="M2182.9,2797.1l-58.3,189.3-61.5-189.3v298.9h-63.6v-504h63.6l61.5,178.6,58.3-178.6h63.6v504h-63.6v-298.9Z"/>
    </g>
  </g>
  <g>
    <g>
      <path class="st0" d="M3251.6,3096h-63.7v-125.6h-156.9v-67.2l151.6-311.2h69v318.3h26.5v60.1h-26.5v125.6ZM3094.6,2910.3h93.3v-196.3l-93.3,196.3Z"/>
      <path class="st0" d="M3333.5,2827.7h156.2v65.4h-156.2v-65.4Z"/>
      <path class="st0" d="M3520,2954.6c0-150.3,61.4-276,181.6-371.4l35.3,54.8c-56.5,46.1-94.1,95.5-120.5,161,8.4-2.8,17.2-4.2,26-4.2,75.2,0,94.6,100.1,94.6,154.5,0,105.1-38.9,155.4-110,155.4s-106.8-53-106.8-150.1ZM3671.4,2940.5c0-53-14.5-77.9-42.8-77.9s-43.2,26.6-43.2,86.6,25.2,90.3,43.2,90.3c25.7,0,42.8-14.9,42.8-99Z"/>
    </g>
    <g>
      <path class="st0" d="M4308.8,2876.7h-34.5v219.3h-63.7v-504h102.2c107.5,0,114.7,119.6,114.7,146.8,0,83.1-47.8,137.9-118.6,137.9ZM4274.3,2657.5v153.8h34.5c38.9,0,53.1-20.2,53.1-72.5s-17.7-81.3-53.1-81.3h-34.5Z"/>
      <path class="st0" d="M4681.4,2797.1l-58.3,189.3-61.5-189.3v298.9h-63.6v-504h63.6l61.5,178.6,58.3-178.6h63.6v504h-63.6v-298.9Z"/>
    </g>
  </g>
  <g>
    <path class="st0" d="M5787.8,2627.5c0-80.5,40.8-129.9,107.2-129.9s104.6,51.8,104.6,129.1-40.4,131.7-104.6,131.7-107.2-67.6-107.2-130.9ZM5833.9,2627.5c0,53.9,23,85.7,61.1,85.7s59.4-46.9,59.4-85.7-22-84.9-59.4-84.9-61.1,31.8-61.1,84.9Z"/>
    <path class="st0" d="M6151.5,2754h-44.2v-207.8h-72.4v-44.2h189v44.2h-72.4v207.8Z"/>
    <path class="st0" d="M6425.7,2644.3h-113.6v109.7h-45.3v-252h45.3v97.3h113.6v-97.3h45.3v252h-45.3v-109.7Z"/>
    <path class="st0" d="M6536.5,2502h184.5v45.1h-138.4v46.8h75.4v46h-75.4v69h142.8v45.1h-189v-252Z"/>
    <path class="st0" d="M6934.2,2646.1l46,107.9h-50.4l-40.7-99h-68.1v99h-45.1v-252h119.1c52.1,0,79.8,41.1,79.8,76.9s-15,53.1-40.7,67.2ZM6821,2547.1v62.7h72.6c22.1,0,36.2-12.7,36.2-30.9s-14.2-31.8-36.3-31.8h-72.5Z"/>
  </g>
  <g>
    <path class="st0" d="M5963.7,3168h-44.2v-207.8h-72.4v-44.2h189v44.2h-72.4v207.8Z"/>
    <path class="st0" d="M6078.9,2916h45.4v252h-45.4v-252Z"/>
    <path class="st0" d="M6382.5,3014.2l-74.6,153.8-73.7-153.8v153.8h-44.4v-252h44.4l73.7,149.4,74.6-149.4h44.4v252h-44.4v-153.8Z"/>
    <path class="st0" d="M6492.4,2916h184.6v45.1h-138.4v46.8h75.4v46h-75.4v69h142.9v45.1h-189v-252Z"/>
    <path class="st0" d="M6885.4,3155.4c-17.8,10.7-40.7,17-63.9,17-43.5,0-76.4-16.1-104.8-49.3l36.4-28.7c18.6,22.4,39.1,32.3,67.5,32.3s55.1-15,55.1-33.2-25.5-27.3-96.1-47.2c-35.5-10-51.3-36.9-51.3-64,0-42.2,35.6-70.8,87-70.8s68.4,12.5,94.2,39.4l-33.8,30.5c-16-17-36.4-25.1-60.4-25.1s-40.8,11.2-40.8,25.7c0,27.9,34.3,21.8,97,43.8,44.3,15.6,49.5,53.4,49.5,69.4,0,26-11.6,45.7-35.5,60.1Z"/>
  </g>
  <g>
    <path class="st0" d="M6121.5,1957.5v292.5h-68.1v-432h68.1l157.7,275.9v-275.9h68.3v432h-60.6l-165.3-292.5Z"/>
    <path class="st0" d="M6451.1,1818h68.1v368.3h199.8v63.7h-267.9v-432Z"/>
    <path class="st0" d="M6965.9,2250h-68.6v-188l-152.3-244h82.3l103.6,166.8,105.1-166.8h80.7l-150.8,244v188Z"/>
    <path class="st0" d="M5958.3,2034c0,15.5,3.3,223.6-153.5,223.6s-153.5-208.1-153.5-223.6-3.3-223.5,153.5-223.5,153.5,208,153.5,223.5ZM5805.6,2187.9c46.5,0,84.3-44.1,84.3-153.9s-37.8-153.9-84.3-153.9-84.3,44.1-84.3,153.9,37.8,153.9,84.3,153.9Z"/>
  </g>
  <path class="st0" d="M3628.3,818.7l114.7,78.1c156.9,106.8,289.5,245.5,389.4,406.9h0s0-632.9,0-632.9l-125.6,36.6c-17.9,5.2-36.6-5.1-41.8-22.9-2.8-9.7-1.2-20.2,4.5-28.5l264.1-385.9,264.1,385.9c10.5,15.4,6.6,36.4-8.8,46.9-8.3,5.7-18.8,7.4-28.5,4.5l-125.5-36.6v1579.2h-202.5v-234c0-381-188.5-737.3-503.4-951.8l-114.7-78.1-40.4,124.4c-5.8,17.7-24.8,27.4-42.5,21.7-9.6-3.1-17.3-10.4-21-19.8l-170.3-435.5,467.7-1.1c18.6,0,33.8,15,33.8,33.7,0,10.1-4.5,19.7-12.3,26.1l-100.9,83.2Z"/>
  <g>
    <path class="st0" d="M6476.1,1602h-182.2v-216c0-71.4-22.2-140.3-64.1-199.4-43.1-59-101.4-102-168.8-124.4l-191.8-64.1,57.8-172.9,191.7,64.1c103.6,34.5,193.1,100.4,258.6,190.3l.6.8c64.2,90.2,98.2,195.9,98.2,305.5v216Z"/>
    <path class="st0" d="M5900.7,1128.4c-.1,3-.6,5.8-1.5,8.5-5.3,15.9-22.5,24.5-38.4,19.2-5.6-1.9-10.7-5.4-14.6-10.5l-254.1-335.5,404.8-115.3c6.1-1.7,12.3-1.5,18,.4,15.9,5.3,24.5,22.5,19.2,38.4-.9,2.7-2.2,5.3-3.9,7.7l-121.2,174.7-8.2,212.5Z"/>
  </g>
  <g>
    <path class="st0" d="M6841,1010.5l-190.5-63.8c-52-17.4-100.7-42.6-144.7-74.9-44.3-32.6-82.8-71.7-114.5-116.2-64.2-90.2-98.2-195.9-98.2-305.5v-216h182.2v216c0,71.5,22.3,140.6,64.4,199.8,20.5,28.8,45.4,54,74,75.1,28.7,21.1,60.4,37.5,94.4,48.9h.1s190.5,63.9,190.5,63.9l-57.9,172.8Z"/>
    <path class="st0" d="M6737.9,1093.9c-1.7,2.4-3,5-3.9,7.7-5.3,15.9,3.2,33.1,19.2,38.5,5.6,1.9,11.8,2.2,18,.4l404.9-115-253.8-335.7c-3.8-5.1-9-8.6-14.6-10.5-15.9-5.3-33.1,3.2-38.5,19.2-.9,2.7-1.4,5.5-1.5,8.5l-8.4,212.5-121.3,174.6Z"/>
  </g>
</svg>