<?xml version="1.0" encoding="UTF-8"?>
<svg id="For_Sheets" xmlns="http://www.w3.org/2000/svg" version="1.1" viewBox="0 0 2592 2592">
  <!-- Generator: Adobe Illustrator 29.1.0, SVG Export Plug-In . SVG Version: 2.1.0 Build 142)  -->
  <defs>
    <style>
      .st0 {
        fill: #231f20;
      }

      .st1 {
        fill: #bf311a;
        fill-rule: evenodd;
      }

      .st2 {
        fill: #fff;
      }
    </style>
  </defs>
  <g>
    <path class="st2" d="M162,2592.1c-43.1,0-83.8-16.9-114.5-47.6S-.1,2473.1-.1,2430V162C-.1,118.9,16.8,78.2,47.5,47.5S118.9-.1,162-.1h2268c43.1,0,83.8,16.9,114.5,47.6s47.6,71.4,47.6,114.5v2268c0,43.1-16.9,83.8-47.6,114.5s-71.4,47.6-114.5,47.6H162Z"/>
    <path class="st0" d="M2430,0c89.1,0,162,72.9,162,162v2268c0,89.1-72.9,162-162,162H162c-89.1,0-162-72.9-162-162V162C0,72.9,72.9,0,162,0h2268M2430-.2H162c-21.8,0-43,4.3-63,12.8-19.3,8.2-36.7,19.9-51.6,34.9-14.9,14.9-26.7,32.3-34.9,51.6C4.1,119-.2,140.2-.2,162v2268c0,21.8,4.3,43,12.8,63,8.2,19.3,19.9,36.7,34.9,51.6,14.9,14.9,32.3,26.7,51.6,34.9,20,8.5,41.2,12.8,63,12.8h2268c21.8,0,43-4.3,63-12.8,19.3-8.2,36.7-19.9,51.6-34.9,14.9-14.9,26.7-32.3,34.9-51.6,8.5-20,12.8-41.2,12.8-63V162c0-21.8-4.3-43-12.8-63-8.2-19.3-19.9-36.7-34.9-51.6s-32.3-26.7-51.6-34.9c-20-8.5-41.2-12.8-63-12.8h0Z"/>
  </g>
  <g>
    <path class="st0" d="M162,2547c-64.5,0-117-52.5-117-117V162c0-64.5,52.5-117,117-117h2268c64.5,0,117,52.5,117,117v2268c0,64.5-52.5,117-117,117H162Z"/>
    <path class="st2" d="M162,2484c-29.8,0-54-24.2-54-54V162c0-29.8,24.2-54,54-54h2268c29.8,0,54,24.2,54,54v2268c0,29.8-24.2,54-54,54H162Z"/>
  </g>
  <g>
    <path class="st0" d="M1920.4,2025h-222.8v-681.8c0-65.8-25.6-127.7-72.2-174.2-46.5-46.5-108.4-72.2-174.2-72.2s-127.7,25.6-174.2,72.2c-46.5,46.5-72.2,108.4-72.2,174.2v287.3h-222.8v-287.3c0-63.3,12.4-124.7,36.9-182.6,23.6-55.9,57.4-106,100.5-149.1,43-43,93.2-76.9,149.1-100.5,57.9-24.5,119.4-36.9,182.6-36.9s124.7,12.4,182.6,36.9c55.9,23.6,106,57.4,149.1,100.5,43,43,76.9,93.2,100.5,149.1,24.5,57.9,36.9,119.4,36.9,182.6v681.8Z"/>
    <path class="st0" d="M1343,1543.9c3.5-1,7-1.5,10.4-1.5,20.5,0,37.1,16.6,37.1,37.1,0,7.2-2.1,14.5-6.5,21l-290.5,424.5-290.5-424.5c-4.4-6.4-6.5-13.7-6.5-21,0-20.5,16.6-37.1,37.1-37.1,3.4,0,6.9.5,10.4,1.5l249.5,72.8,249.5-72.8Z"/>
  </g>
  <g>
    <rect class="st0" x="813" y="874.1" width="638.3" height="222.8"/>
    <path class="st0" d="M899.6,1235c1,3.5,1.5,7,1.5,10.4,0,20.5-16.6,37.1-37.1,37.1-7.2,0-14.5-2.1-21-6.5l-424.5-290.5,424.5-290.5c6.4-4.4,13.7-6.5,21-6.5,20.5,0,37.1,16.6,37.1,37.1,0,3.4-.5,6.9-1.5,10.4l-72.8,249.5,72.8,249.5Z"/>
  </g>
  <path class="st1" d="M1296,175.5c-618.8,0-1120.5,501.7-1120.5,1120.5s501.7,1120.5,1120.5,1120.5,1120.5-501.7,1120.5-1120.5S1914.8,175.5,1296,175.5ZM364.5,1296c0-225.6,80.2-432.5,213.7-593.7l1311.5,1311.5c-161.2,133.5-368.1,213.7-593.7,213.7-514.5,0-931.5-417-931.5-931.5ZM2013.8,1889.7L702.3,578.2c161.2-133.5,368.1-213.7,593.7-213.7,514.5,0,931.5,417,931.5,931.5s-80.2,432.5-213.7,593.7Z"/>
</svg>