<?xml version="1.0" encoding="UTF-8"?>
<svg id="For_Sheets" xmlns="http://www.w3.org/2000/svg" version="1.1" viewBox="0 0 2592 3456">
  <!-- Generator: Adobe Illustrator 29.1.0, SVG Export Plug-In . SVG Version: 2.1.0 Build 142)  -->
  <defs>
    <style>
      .st0 {
        fill: #231f20;
      }

      .st1 {
        fill: #fff;
      }
    </style>
  </defs>
  <g>
    <path class="st1" d="M162,3456.1c-43.1,0-83.8-16.9-114.5-47.6-30.7-30.7-47.6-71.4-47.6-114.5V162C-.1,118.9,16.8,78.2,47.5,47.5,78.2,16.8,118.9-.1,162-.1h2268c43.1,0,83.8,16.9,114.5,47.6,30.7,30.7,47.6,71.4,47.6,114.5v3132c0,43.1-16.9,83.8-47.6,114.5s-71.4,47.6-114.5,47.6H162Z"/>
    <path class="st0" d="M2430,0c89.1,0,162,72.9,162,162v3132c0,89.1-72.9,162-162,162H162c-89.1,0-162-72.9-162-162V162C0,72.9,72.9,0,162,0h2268M2430-.2H162c-21.8,0-43,4.3-63,12.8-19.3,8.2-36.7,19.9-51.6,34.9-14.9,14.9-26.7,32.3-34.9,51.6C4.1,119-.2,140.2-.2,162v3132c0,21.8,4.3,43,12.8,63,8.2,19.3,19.9,36.7,34.9,51.6,14.9,14.9,32.3,26.7,51.6,34.9,20,8.5,41.2,12.8,63,12.8h2268c21.8,0,43-4.3,63-12.8,19.3-8.2,36.7-19.9,51.6-34.9,14.9-14.9,26.7-32.3,34.9-51.6,8.5-20,12.8-41.2,12.8-63V162c0-21.8-4.3-43-12.8-63-8.2-19.3-19.9-36.7-34.9-51.6-14.9-14.9-32.3-26.7-51.6-34.9-20-8.5-41.2-12.8-63-12.8h0Z"/>
  </g>
  <path class="st0" d="M162,3411c-31.1,0-60.4-12.2-82.6-34.4-22.2-22.2-34.4-51.5-34.4-82.6V162c0-31.1,12.2-60.4,34.4-82.6,22.2-22.2,51.5-34.4,82.6-34.4h2268c31.1,0,60.4,12.2,82.6,34.4,22.2,22.2,34.4,51.5,34.4,82.6v3132c0,31.1-12.2,60.4-34.4,82.6-22.2,22.2-51.5,34.4-82.6,34.4H162Z"/>
  <path class="st1" d="M162,3348c-14.5,0-27.6-5.5-38-16-10.4-10.4-16-23.6-16-38V162c0-14.5,5.5-27.6,16-38s23.6-16,38-16h2268c14.5,0,27.6,5.5,38,16,10.4,10.4,16,23.6,16,38v3132c0,14.5-5.5,27.6-16,38-10.4,10.4-23.6,16-38,16H162Z"/>
  <g>
    <path class="st0" d="M615.2,827.4v252.6h-82.7V504h171.4c90.8,0,151.3,64.9,151.3,161.7s-54.5,161.6-151.3,161.6h-88.8ZM615.2,748.5h84.7c48.4,0,74.7-30.2,74.7-82.8s-30.5-80.9-74.6-80.9h-84.7v163.7Z"/>
    <path class="st0" d="M1169.5,922.4h-123.5l-38.5,157.6h-83.1l143.9-576h81.1l143.8,576h-83.1l-40.5-157.6ZM1066.2,841.5h83.1l-42.6-165.7-40.5,165.7Z"/>
    <path class="st0" d="M1510.2,713.8c63,39.5,157.5,94.9,157.5,208.6s-71.1,167.7-160.3,167.7-162.4-85.8-162.4-179.9h81.2c0,49,24.3,99.1,81.1,99.1s81.1-40.4,81.1-86.9c0-125.2-215.1-118-215.1-278.9s64.9-149.5,148.1-149.5,144.1,62.6,146.2,149.5h-79.2c-2-40.4-30.5-66.7-67-66.7s-69,28.2-69,66.6,19.9,46.7,57.7,70.3Z"/>
    <path class="st0" d="M1902,713.8c63,39.5,157.5,94.9,157.5,208.6s-71.1,167.7-160.3,167.7-162.4-85.8-162.4-179.9h81.2c0,49,24.3,99.1,81.1,99.1s81.1-40.4,81.1-86.9c0-125.2-215.1-118-215.1-278.9s64.9-149.5,148.1-149.5,144.1,62.6,146.2,149.5h-79.2c-2-40.4-30.5-66.7-67-66.7s-69,28.2-69,66.6,19.9,46.7,57.7,70.3Z"/>
  </g>
  <g>
    <path class="st0" d="M881.1,2016l-54.7-301.1-54.8,301.1h-72.9l-91.3-576h81.1l48.7,307.2,56.7-307.2h64.9l54.7,307.2,50.7-307.2h81.1l-93.3,576h-71Z"/>
    <path class="st0" d="M1126.1,1440h80.6v576h-80.6v-576Z"/>
    <path class="st0" d="M1475.9,2016h-83.1v-499.2h-105.4v-76.8h293.9v76.8h-105.4v499.2Z"/>
    <path class="st0" d="M1902,1755.3h-157.4v260.7h-82.7v-576h82.7v234.4h157.3v-234.4h82.7v576h-82.7v-260.7Z"/>
  </g>
  <g>
    <path class="st0" d="M757.6,2529.6c-8-56.6-30.4-82.9-69-82.9-67,0-91.4,52.6-91.4,202s28.4,232.4,99.5,232.4,60.8-40.5,60.8-82.9h83.2c-2,95-62.9,163.7-144.1,163.7-123.8,0-178.6-99-178.6-311.3s58.8-284.8,172.5-284.8,147.4,96.3,150.2,163.6h-83.2Z"/>
    <path class="st0" d="M1155.1,2794.4h-123.5l-38.5,157.6h-83.1l143.9-576h81.1l143.8,576h-83.1l-40.5-157.6ZM1051.8,2713.5h83.1l-42.6-165.7-40.5,165.7Z"/>
    <path class="st0" d="M1520.7,2681.2h-78.7v270.8h-82.7v-576h171.4c90.4,0,151.3,60.6,151.3,153.6s-28.3,119.2-82.7,139.5l82.7,283h-84.6l-76.7-270.8ZM1442,2456.9v145.5h84.7c48.5,0,74.7-26.3,74.7-72.8s-30.2-72.7-74.6-72.7h-84.7Z"/>
    <path class="st0" d="M1780,2376h271.6v80.9h-188.5v145.5h119.5v78.8h-119.5v190h210.8v80.8h-293.9v-576Z"/>
  </g>
</svg>