<?xml version="1.0" encoding="UTF-8"?>
<svg id="For_Sheets" xmlns="http://www.w3.org/2000/svg" version="1.1" viewBox="0 0 2592 3456">
  <!-- Generator: Adobe Illustrator 29.1.0, SVG Export Plug-In . SVG Version: 2.1.0 Build 142)  -->
  <defs>
    <style>
      .st0 {
        fill: #231f20;
      }

      .st1 {
        fill: #fff;
      }
    </style>
  </defs>
  <g>
    <path class="st1" d="M162,3456.1c-43.1,0-83.8-16.9-114.5-47.6-30.7-30.7-47.6-71.4-47.6-114.5V162C-.1,118.9,16.8,78.2,47.5,47.5,78.2,16.8,118.9-.1,162-.1h2268c43.1,0,83.8,16.9,114.5,47.6,30.7,30.7,47.6,71.4,47.6,114.5v3132c0,43.1-16.9,83.8-47.6,114.5s-71.4,47.6-114.5,47.6H162Z"/>
    <path class="st0" d="M2430,0c89.1,0,162,72.9,162,162v3132c0,89.1-72.9,162-162,162H162c-89.1,0-162-72.9-162-162V162C0,72.9,72.9,0,162,0h2268M2430-.2H162c-21.8,0-43,4.3-63,12.8-19.3,8.2-36.7,19.9-51.6,34.9-14.9,14.9-26.7,32.3-34.9,51.6C4.1,119-.2,140.2-.2,162v3132c0,21.8,4.3,43,12.8,63,8.2,19.3,19.9,36.7,34.9,51.6,14.9,14.9,32.3,26.7,51.6,34.9,20,8.5,41.2,12.8,63,12.8h2268c21.8,0,43-4.3,63-12.8,19.3-8.2,36.7-19.9,51.6-34.9,14.9-14.9,26.7-32.3,34.9-51.6,8.5-20,12.8-41.2,12.8-63V162c0-21.8-4.3-43-12.8-63-8.2-19.3-19.9-36.7-34.9-51.6-14.9-14.9-32.3-26.7-51.6-34.9-20-8.5-41.2-12.8-63-12.8h0Z"/>
  </g>
  <path class="st0" d="M162,3411c-31.1,0-60.4-12.2-82.6-34.4-22.2-22.2-34.4-51.5-34.4-82.6V162c0-31.1,12.2-60.4,34.4-82.6,22.2-22.2,51.5-34.4,82.6-34.4h2268c31.1,0,60.4,12.2,82.6,34.4,22.2,22.2,34.4,51.5,34.4,82.6v3132c0,31.1-12.2,60.4-34.4,82.6-22.2,22.2-51.5,34.4-82.6,34.4H162Z"/>
  <path class="st1" d="M162,3348c-14.5,0-27.6-5.5-38-16-10.4-10.4-16-23.6-16-38V162c0-14.5,5.5-27.6,16-38s23.6-16,38-16h2268c14.5,0,27.6,5.5,38,16,10.4,10.4,16,23.6,16,38v3132c0,14.5-5.5,27.6-16,38-10.4,10.4-23.6,16-38,16H162Z"/>
  <g>
    <path class="st0" d="M486.6,979.5l76-28.3c21.2,47.8,60.1,74.3,107.9,74.3s77.9-31.8,77.9-74.3c0-67.4-77.8-77.8-143.3-104.3-30.1-12.4-97.3-42.5-97.3-125.6s67.2-136.1,157.4-136.1,118.5,40.7,143.3,102.6l-70.7,21.2c-7.9-19.9-36.7-44.2-74.3-44.2-71.9,0-78,38.4-78,51,0,47.1,40.6,56.4,106.7,77.2,67.3,21.2,137.5,52.1,137.5,160.1s-88.2,153.7-159.2,153.7-150.3-51.3-183.9-127.3Z"/>
    <path class="st0" d="M1065.4,1098h-79.9v-433.3h-115.4v-70.7h312.6v70.7h-117.2v433.3Z"/>
    <path class="st0" d="M1506.3,956.5h-158.3l-49.8,141.5h-85.4l174.3-504h80.1l174.3,504h-85.4l-49.8-141.5ZM1376.5,875.2h101.4l-49.8-141.4-51.5,141.4Z"/>
    <path class="st0" d="M1929.5,1098h-80v-219.3l-177.7-284.7h96l120.8,194.5,122.7-194.5h94.2l-176,284.7v219.3Z"/>
  </g>
  <g>
    <path class="st0" d="M1023.7,1476h80.6v504h-80.6v-504Z"/>
    <path class="st0" d="M1304.8,1638.7v341.3h-79.5v-504h79.5l184,321.9v-321.9h79.6v504h-70.7l-192.8-341.3Z"/>
  </g>
  <g>
    <path class="st0" d="M484.1,2358h79.5v429.7h233.1v74.3h-312.6v-504Z"/>
    <path class="st0" d="M1120.4,2720.5h-158.2l-49.8,141.5h-85.4l174.3-504h80.1l174.2,504h-85.4l-49.8-141.5ZM990.6,2639.2h101.4l-49.8-141.4-51.5,141.4Z"/>
    <path class="st0" d="M1410.7,2520.7v341.3h-79.5v-504h79.5l183.9,321.9v-321.9h79.6v504h-70.7l-192.8-341.3Z"/>
    <path class="st0" d="M1795.3,2358h296.7v79.6h-217.2v123.8h146.6v81.3h-146.6v138h233.1v81.3h-312.6v-504Z"/>
  </g>
</svg>