<?xml version="1.0" encoding="UTF-8"?>
<svg id="For_Sheets" xmlns="http://www.w3.org/2000/svg" version="1.1" viewBox="0 0 2592 3456">
  <!-- Generator: Adobe Illustrator 29.1.0, SVG Export Plug-In . SVG Version: 2.1.0 Build 142)  -->
  <defs>
    <style>
      .st0 {
        fill: #231f20;
      }

      .st1 {
        fill: #fff;
      }
    </style>
  </defs>
  <g>
    <path class="st1" d="M162,3456.1c-43.1,0-83.8-16.9-114.5-47.6-30.7-30.7-47.6-71.4-47.6-114.5V162C-.1,118.9,16.8,78.2,47.5,47.5,78.2,16.8,118.9-.1,162-.1h2268c43.1,0,83.8,16.9,114.5,47.6,30.7,30.7,47.6,71.4,47.6,114.5v3132c0,43.1-16.9,83.8-47.6,114.5s-71.4,47.6-114.5,47.6H162Z"/>
    <path class="st0" d="M2430,0c89.1,0,162,72.9,162,162v3132c0,89.1-72.9,162-162,162H162c-89.1,0-162-72.9-162-162V162C0,72.9,72.9,0,162,0h2268M2430-.2H162c-21.8,0-43,4.3-63,12.8-19.3,8.2-36.7,19.9-51.6,34.9-14.9,14.9-26.7,32.3-34.9,51.6C4.1,119-.2,140.2-.2,162v3132c0,21.8,4.3,43,12.8,63,8.2,19.3,19.9,36.7,34.9,51.6,14.9,14.9,32.3,26.7,51.6,34.9,20,8.5,41.2,12.8,63,12.8h2268c21.8,0,43-4.3,63-12.8,19.3-8.2,36.7-19.9,51.6-34.9,14.9-14.9,26.7-32.3,34.9-51.6,8.5-20,12.8-41.2,12.8-63V162c0-21.8-4.3-43-12.8-63-8.2-19.3-19.9-36.7-34.9-51.6-14.9-14.9-32.3-26.7-51.6-34.9-20-8.5-41.2-12.8-63-12.8h0Z"/>
  </g>
  <path class="st0" d="M162,3411c-31.1,0-60.4-12.2-82.6-34.4-22.2-22.2-34.4-51.5-34.4-82.6V162c0-31.1,12.2-60.4,34.4-82.6,22.2-22.2,51.5-34.4,82.6-34.4h2268c31.1,0,60.4,12.2,82.6,34.4,22.2,22.2,34.4,51.5,34.4,82.6v3132c0,31.1-12.2,60.4-34.4,82.6-22.2,22.2-51.5,34.4-82.6,34.4H162Z"/>
  <path class="st1" d="M162,3348c-14.5,0-27.6-5.5-38-16-10.4-10.4-16-23.6-16-38V162c0-14.5,5.5-27.6,16-38s23.6-16,38-16h2268c14.5,0,27.6,5.5,38,16,10.4,10.4,16,23.6,16,38v3132c0,14.5-5.5,27.6-16,38-10.4,10.4-23.6,16-38,16H162Z"/>
  <path class="st0" d="M837.7,1080V504h207.8c145.4,0,184.3,191.4,184.3,275,0,216.1-111.1,301-184,301h-208.1ZM1031.7,594.9h-103.1v392h96.7c83.8,0,111.3-101.5,111.3-210s-14.7-182.1-104.9-182.1Z"/>
  <g>
    <path class="st0" d="M706.7,1626v390h-90.9v-576h90.9l210.2,367.8v-367.8h91v576h-80.9l-220.4-390Z"/>
    <path class="st0" d="M1842.1,2016h-91.4v-495.1h-131.9v-80.9h357.2v80.9h-134v495.1Z"/>
  </g>
  <path class="st0" d="M1754.3,792c0,20.7,4.4,298.1-204.6,298.1s-204.6-277.4-204.6-298.1-4.4-298,204.6-298,204.6,277.3,204.6,298ZM1550.7,997.2c62.1,0,112.5-58.8,112.5-205.2s-50.4-205.2-112.5-205.2-112.5,58.8-112.5,205.2,50.4,205.2,112.5,205.2Z"/>
  <path class="st0" d="M1544,1728c0,20.7,4.4,298.1-204.6,298.1s-204.6-277.4-204.6-298.1-4.4-298,204.6-298,204.6,277.3,204.6,298ZM1340.4,1933.2c62.1,0,112.5-58.8,112.5-205.2s-50.4-205.2-112.5-205.2-112.5,58.8-112.5,205.2,50.4,205.2,112.5,205.2Z"/>
  <g>
    <path class="st0" d="M591.9,2701.4h-107.3v250.6h-90.9v-576h217.7c135.5,0,174.4,110.2,174.4,161.7s-19.7,163.7-194,163.7ZM484.6,2608.4h128.2c72.3,0,80-52.1,80-70.7,0-27-20.3-70.8-76.9-70.8h-131.3v141.5Z"/>
    <path class="st0" d="M1155.8,2790.3h-180.9l-56.9,161.7h-97.6l199.2-576h91.5l199.1,576h-97.6l-56.9-161.7ZM1007.5,2697.3h115.8l-56.9-161.6-58.9,161.6Z"/>
    <path class="st0" d="M1356.4,2816.9l86.8-32.3c24.3,54.5,68.8,84.7,123.3,84.7s89.1-36.3,89.1-84.7c0-77-89.1-88.8-163.7-119.1-34.3-14.1-111-48.5-111-143.3s76.7-155.4,179.6-155.4,135.2,46.4,163.5,117.1l-80.8,24.2c-13.3-26-41.3-50.5-89.6-50.5-69.7,0-84.2,38-84.2,58.2,0,53.8,46.4,64.4,121.8,88.1,76.7,24.1,157.2,59.5,157.2,182.7,0,124.3-100.9,175.5-181.9,175.5s-171.8-58.5-210.2-145.3Z"/>
    <path class="st0" d="M1806.1,2816.9l86.8-32.3c24.3,54.5,68.8,84.7,123.3,84.7s89.1-36.3,89.1-84.7c0-77-89.1-88.8-163.7-119.1-34.3-14.1-111-48.5-111-143.3s76.7-155.4,179.6-155.4,135.2,46.4,163.5,117.1l-80.8,24.2c-13.3-26-41.3-50.5-89.6-50.5-69.7,0-84.2,38-84.2,58.2,0,53.8,46.4,64.4,121.8,88.1,76.7,24.1,157.2,59.5,157.2,182.7,0,124.3-100.9,175.5-181.9,175.5s-171.8-58.5-210.2-145.3Z"/>
  </g>
</svg>