<?xml version="1.0" encoding="UTF-8"?>
<svg id="For_Sheets" xmlns="http://www.w3.org/2000/svg" version="1.1" viewBox="0 0 1296 2160">
  <!-- Generator: Adobe Illustrator 29.1.0, SVG Export Plug-In . SVG Version: 2.1.0 Build 142)  -->
  <defs>
    <style>
      .st0 {
        fill: #231f20;
      }

      .st1 {
        fill: #fff;
      }
    </style>
  </defs>
  <g>
    <rect class="st1" x="-.1" y="-.1" width="1296.2" height="2160.2" rx="108.1" ry="108.1"/>
    <path class="st0" d="M1188,0c59.6,0,108,48.4,108,108v1944c0,59.6-48.4,108-108,108H108c-59.6,0-108-48.4-108-108V108C0,48.4,48.4,0,108,0h1080M1188-.2H108C79.1-.2,51.9,11,31.5,31.5,11,51.9-.2,79.1-.2,108v1944c0,28.9,11.3,56.1,31.7,76.5,20.4,20.4,47.6,31.7,76.5,31.7h1080c28.9,0,56.1-11.3,76.5-31.7,20.4-20.4,31.7-47.6,31.7-76.5V108c0-28.9-11.3-56.1-31.7-76.5-20.4-20.4-47.6-31.7-76.5-31.7h0Z"/>
  </g>
  <path class="st0" d="M108,27h1080c44.7,0,81,36.3,81,81v1944c0,44.7-36.3,81-81,81H108c-44.7,0-81-36.3-81-81V108c0-44.7,36.3-81,81-81ZM1224,2052V108c0-19.9-16.1-36-36-36H108c-19.9,0-36,16.1-36,36v1944c0,19.9,16.1,36,36,36h1080c19.9,0,36-16.1,36-36Z"/>
  <path class="st0" d="M792,387c0,204.9,33.2,402.1,94.6,586.4,27.3,82.1,143.4,82.1,170.7,0,61.4-184.3,94.6-381.5,94.6-586.4h-360Z"/>
  <g>
    <path class="st0" d="M540,1863h216s0-268.2,0-268.2c0-87.3-13.6-163.8-41.6-233.9-24.5-61.4-56.6-109.6-85-152.1-50-74.9-89.4-134.1-89.4-262.1v-267.2s-216,0-216,0v267.2c0,86.1,13.5,161.7,41.3,231.1,24.3,60.7,56.2,108.6,84.4,150.8,50.5,75.7,90.3,135.5,90.3,266.2v268.2Z"/>
    <path class="st0" d="M673.9,763.6c3.4,1,6.7,1.4,10.1,1.4,19.9,0,36-16.1,36-36,0-7-2-14.1-6.3-20.3l-281.7-411.7-281.7,411.7c-4.3,6.2-6.3,13.3-6.3,20.3,0,19.9,16.1,36,36,36,3.3,0,6.7-.5,10.1-1.4l241.9-70.6,241.9,70.6Z"/>
  </g>
</svg>