<?xml version="1.0" encoding="UTF-8"?>
<svg id="For_Sheets" xmlns="http://www.w3.org/2000/svg" version="1.1" viewBox="0 0 2592 3456">
  <!-- Generator: Adobe Illustrator 29.1.0, SVG Export Plug-In . SVG Version: 2.1.0 Build 142)  -->
  <defs>
    <style>
      .st0 {
        fill: #231f20;
      }

      .st1 {
        fill: #fff;
      }
    </style>
  </defs>
  <g>
    <path class="st1" d="M162,3456.1c-43.1,0-83.8-16.9-114.5-47.6-30.7-30.7-47.6-71.4-47.6-114.5V162C-.1,118.9,16.8,78.2,47.5,47.5,78.2,16.8,118.9-.1,162-.1h2268c43.1,0,83.8,16.9,114.5,47.6,30.7,30.7,47.6,71.4,47.6,114.5v3132c0,43.1-16.9,83.8-47.6,114.5s-71.4,47.6-114.5,47.6H162Z"/>
    <path class="st0" d="M2430,0c89.1,0,162,72.9,162,162v3132c0,89.1-72.9,162-162,162H162c-89.1,0-162-72.9-162-162V162C0,72.9,72.9,0,162,0h2268M2430-.2H162c-21.8,0-43,4.3-63,12.8-19.3,8.2-36.7,19.9-51.6,34.9-14.9,14.9-26.7,32.3-34.9,51.6C4.1,119-.2,140.2-.2,162v3132c0,21.8,4.3,43,12.8,63,8.2,19.3,19.9,36.7,34.9,51.6,14.9,14.9,32.3,26.7,51.6,34.9,20,8.5,41.2,12.8,63,12.8h2268c21.8,0,43-4.3,63-12.8,19.3-8.2,36.7-19.9,51.6-34.9,14.9-14.9,26.7-32.3,34.9-51.6,8.5-20,12.8-41.2,12.8-63V162c0-21.8-4.3-43-12.8-63-8.2-19.3-19.9-36.7-34.9-51.6-14.9-14.9-32.3-26.7-51.6-34.9-20-8.5-41.2-12.8-63-12.8h0Z"/>
  </g>
  <path class="st0" d="M162,3411c-31.1,0-60.4-12.2-82.6-34.4-22.2-22.2-34.4-51.5-34.4-82.6V162c0-31.1,12.2-60.4,34.4-82.6,22.2-22.2,51.5-34.4,82.6-34.4h2268c31.1,0,60.4,12.2,82.6,34.4,22.2,22.2,34.4,51.5,34.4,82.6v3132c0,31.1-12.2,60.4-34.4,82.6-22.2,22.2-51.5,34.4-82.6,34.4H162Z"/>
  <path class="st1" d="M162,3348c-14.5,0-27.6-5.5-38-16-10.4-10.4-16-23.6-16-38V162c0-14.5,5.5-27.6,16-38s23.6-16,38-16h2268c14.5,0,27.6,5.5,38,16,10.4,10.4,16,23.6,16,38v3132c0,14.5-5.5,27.6-16,38-10.4,10.4-23.6,16-38,16H162Z"/>
  <g>
    <polygon class="st0" points="403.4 1584 334.8 1584 334.8 1212.6 235.9 1212.6 235.9 1152 503.8 1152 503.8 1212.6 403.4 1212.6 403.4 1584"/>
    <path class="st0" d="M706.4,1326.3c54.2,0,62.7-39.1,62.7-53s-14.1-53.1-59.5-53.1h-89.1v106.1h85.8ZM620.6,1396v188h-68.1v-432h156.3c99,0,128.7,79.2,128.7,121.3s-5.9,79.2-67.1,108.2l76.1,202.5h-74.3l-69.7-188h-81.9Z"/>
    <path class="st0" d="M1012.8,1393h86.9l-42.7-121.2-44.2,121.2ZM1124,1462.7h-135.6l-42.7,121.3h-73.2l149.4-432h68.6l149.4,432h-73.2l-42.7-121.3Z"/>
    <polygon class="st0" points="1356.6 1326.3 1482.3 1326.3 1482.3 1396 1356.6 1396 1356.6 1584 1288.5 1584 1288.5 1152 1556.4 1152 1556.4 1220.2 1356.6 1220.2 1356.6 1326.3"/>
    <polygon class="st0" points="1673.2 1326.3 1798.9 1326.3 1798.9 1396 1673.2 1396 1673.2 1584 1605.1 1584 1605.1 1152 1873 1152 1873 1220.2 1673.2 1220.2 1673.2 1326.3"/>
    <rect class="st0" x="1921.6" y="1152" width="69.1" height="432"/>
    <path class="st0" d="M2062,1367.2c0-60.7,12.2-222.7,159.1-222.7s105.3,25.5,134.9,87.9l-63.7,27.3c-22.1-31.8-33.1-45.5-71.2-45.5-90.4,0-89.4,126-89.4,153.1s-1.7,154.7,92.4,154.7,51.9-19.9,66.7-50.1l65.2,24.2c-24.3,60.1-65.1,95.4-130.4,95.4-155.5,0-163.7-171.7-163.7-224.3Z"/>
  </g>
  <g>
    <path class="st0" d="M733.6,2099.4l-45.6,56.1v148.5h-68.4v-432h68.4v171.3l136.9-171.3h88.2l-133.8,168.3,142.9,263.7h-79.1l-109.5-204.6Z"/>
    <path class="st0" d="M995.6,1872h254.3v68.2h-186.2v106.1h125.7v69.7h-125.7v118.3h199.8v69.7h-267.9v-432Z"/>
    <path class="st0" d="M1337,1872h254.3v68.2h-186.2v106.1h125.7v69.7h-125.7v118.3h199.8v69.7h-267.9v-432Z"/>
    <path class="st0" d="M1827,2116h-80.5v188h-68.1v-432h163.3c101.6,0,130.8,82.6,130.8,121.3s-14.7,122.7-145.5,122.7ZM1746.5,2046.3h96.2c54.2,0,60-39.1,60-53,0-20.3-15.2-53.1-57.7-53.1h-98.5v106.1Z"/>
  </g>
  <g>
    <path class="st0" d="M590.3,2836v188h-68.1v-432h156.3c99,0,128.7,79.2,128.7,121.3s-5.9,79.2-67.1,108.2l76.1,202.5h-74.3l-69.7-188h-81.9ZM676.1,2766.3c54.2,0,62.7-39.1,62.7-53s-14.1-53.1-59.5-53.1h-89.1v106.1h85.8Z"/>
    <path class="st0" d="M889.7,2592h69.1v432h-69.1v-432Z"/>
    <path class="st0" d="M1210.5,2584.5c69.2,0,108.2,26.2,137.5,95.5l-65.2,25.7c-18.2-37.9-36.3-51.5-69.7-51.5-94.9,0-89.5,144.5-89.5,154.6,0,16.3-3.7,153.1,80.3,153.1s75.8-27.3,75.8-66.7v-18.1h-78.8v-68.3h147v86.4c0,78.8-57.6,136.4-136.5,136.4s-157.6,12.9-157.6-223.6,1.8-223.5,156.6-223.5Z"/>
    <path class="st0" d="M1668.9,2836h-157.7v188h-68.1v-432h68.1v174.3h157.7v-174.3h68.3v432h-68.2v-188Z"/>
    <path class="st0" d="M1969.3,3024h-68.5v-371.4h-98.9v-60.6h267.9v60.6h-100.5v371.4Z"/>
  </g>
  <g>
    <path class="st0" d="M266.7,762.4l65.2-24.2c18.2,40.9,51.5,63.7,92.4,63.7s66.7-27.3,66.7-63.7c0-57.8-66.7-66.7-122.8-89.4-25.8-10.6-83.4-36.4-83.4-107.6s57.6-116.6,134.9-116.6,101.6,34.9,122.8,87.9l-60.6,18.2c-6.8-17.1-31.5-37.9-63.7-37.9-61.6,0-66.8,32.9-66.8,43.7,0,40.4,34.8,48.4,91.5,66.1,57.7,18.1,117.9,44.7,117.9,137.3s-75.6,131.8-136.5,131.8-128.8-44-157.6-109.1Z"/>
    <polygon class="st0" points="615.8 432 684 432 684 800.3 883.8 800.3 883.8 864 615.8 864 615.8 432"/>
    <polygon class="st0" points="1535 864 1466.5 586.6 1399.6 864 1338.8 864 1274.9 432 1344.9 432 1378.4 659.4 1433.1 432 1500 432 1556.2 659.4 1589.7 432 1659.6 432 1595.7 864 1535 864"/>
    <polygon class="st0" points="1708.2 432 1962.6 432 1962.6 500.2 1776.4 500.2 1776.4 606.3 1902 606.3 1902 676 1776.4 676 1776.4 794.3 1976.2 794.3 1976.2 864 1708.2 864 1708.2 432"/>
    <path class="st0" d="M2185.2,606.3c54.2,0,62.7-39.1,62.7-53s-14.1-53.1-59.5-53.1h-89.1v106.1h85.8ZM2099.4,676v188h-68.1v-432h156.3c99,0,128.7,79.2,128.7,121.3s-5.9,79.2-67.1,108.2l76.1,202.5h-74.3l-69.7-188h-81.9Z"/>
    <path class="st0" d="M1232.8,648c0,15.5,3.3,223.6-153.5,223.6s-153.5-208.1-153.5-223.6-3.3-223.5,153.5-223.5,153.5,208,153.5,223.5ZM1080.1,801.9c46.5,0,84.3-44.1,84.3-153.9s-37.8-153.9-84.3-153.9-84.3,44.1-84.3,153.9,37.8,153.9,84.3,153.9Z"/>
  </g>
</svg>