<?xml version="1.0" encoding="UTF-8"?>
<svg id="For_Sheets" xmlns="http://www.w3.org/2000/svg" version="1.1" viewBox="0 0 2592 3456">
  <!-- Generator: Adobe Illustrator 29.1.0, SVG Export Plug-In . SVG Version: 2.1.0 Build 142)  -->
  <defs>
    <style>
      .st0 {
        fill: #231f20;
      }

      .st1 {
        fill: #fff;
      }
    </style>
  </defs>
  <g>
    <path class="st1" d="M162,3456.1c-89.4,0-162.1-72.7-162.1-162.1V162C-.1,72.6,72.6-.1,162-.1h2268c89.4,0,162.1,72.7,162.1,162.1v3132c0,89.4-72.7,162.1-162.1,162.1H162Z"/>
    <path class="st0" d="M2430,0c89.5,0,162,72.5,162,162v3132c0,89.5-72.5,162-162,162H162C72.5,3456,0,3383.5,0,3294V162C0,72.5,72.5,0,162,0h2268M2430-.2H162C118.7-.2,77.9,16.6,47.3,47.3,16.6,77.9-.2,118.7-.2,162v3132c0,43.3,16.9,84.1,47.5,114.7,30.6,30.6,71.4,47.5,114.7,47.5h2268c43.3,0,84.1-16.9,114.7-47.5,30.6-30.6,47.5-71.4,47.5-114.7V162c0-43.3-16.9-84.1-47.5-114.7-30.6-30.6-71.4-47.5-114.7-47.5h0Z"/>
  </g>
  <path class="st0" d="M162,3411c-64.5,0-117-52.5-117-117V162c0-64.5,52.5-117,117-117h2268c64.5,0,117,52.5,117,117v3132c0,64.5-52.5,117-117,117H162Z"/>
  <path class="st1" d="M162,3348c-29.8,0-54-24.2-54-54V162c0-29.8,24.2-54,54-54h2268c29.8,0,54,24.2,54,54v3132c0,29.8-24.2,54-54,54H162Z"/>
  <g>
    <path class="st0" d="M444.7,2070h203.7v60.6h-141.4v109.1h89.6v59.1h-89.6v142.5h158.1v60.6h-220.4v-432Z"/>
    <path class="st0" d="M830.7,2355l-61.1,147h-65.7l94.7-224.3-88.6-207.7h65.7l55,130.4,55-130.4h65.7l-87,207.7,94.7,224.3h-67.2l-61.1-147Z"/>
    <path class="st0" d="M1190.4,2185.2c-6-42.4-22.8-62.2-51.7-62.2-50.2,0-68.5,39.4-68.5,151.5s21.3,174.3,74.6,174.3,45.6-30.3,45.6-62.2h62.4c-1.5,71.2-47.1,122.8-108,122.8-92.8,0-134-74.2-134-233.4s44.1-213.6,129.4-213.6,110.5,72.2,112.6,122.7h-62.4Z"/>
    <path class="st0" d="M1339.2,2070h203.7v60.6h-141.4v109.1h89.6v59.1h-89.6v142.5h158.1v60.6h-220.4v-432Z"/>
    <path class="st0" d="M1695.1,2312.5v189.5h-62v-432h128.6c68.1,0,113.4,48.7,113.4,121.3s-40.9,121.2-113.4,121.2h-66.6ZM1695.1,2253.4h63.5c36.3,0,56-22.7,56-62.1s-22.9-60.6-55.9-60.6h-63.6v122.7Z"/>
    <path class="st0" d="M2068.3,2502h-62.3v-374.4h-79.1v-57.6h220.4v57.6h-79.1v374.4Z"/>
  </g>
  <g>
    <g>
      <path class="st0" d="M439.1,3150h-62.3v-374.4h-79.1v-57.6h220.4v57.6h-79.1v374.4Z"/>
      <path class="st0" d="M570,2933.1c0-226.2,104.9-222.6,128.2-222.6s126.8-3.5,126.8,222.7-103.5,224.3-126.8,224.3-128.2,3.6-128.2-224.4ZM697.5,2771.1c-12.3,0-68-2.5-68,162.3s55.7,163.5,68,163.5,67.9,2.5,67.9-163.5-55.6-162.3-67.9-162.3Z"/>
    </g>
    <g>
      <path class="st0" d="M1211,2960.6v189.5h-62v-432h128.6c68.1,0,113.4,48.7,113.4,121.3s-40.9,121.2-113.4,121.2h-66.6ZM1211,2901.4h63.5c36.3,0,56-22.7,56-62.1s-22.9-60.6-55.9-60.6h-63.6v122.7Z"/>
      <path class="st0" d="M1626.7,3031.8h-92.7l-28.9,118.2h-62.3l107.9-432h60.9l107.8,432h-62.3l-30.4-118.2ZM1549.3,2971.2h62.3l-31.9-124.3-30.4,124.3Z"/>
      <path class="st0" d="M1882.3,2875.4c47.2,29.6,118.1,71.2,118.1,156.4s-53.3,125.8-120.3,125.8-121.8-64.4-121.8-134.9h60.9c0,36.8,18.3,74.3,60.9,74.3s60.9-30.3,60.9-65.2c0-93.9-161.3-88.5-161.3-209.2s48.7-112.1,111.1-112.1,108.1,47,109.6,112.2h-59.4c-1.5-30.3-22.8-50-50.2-50s-51.7,21.2-51.7,50,14.9,35,43.3,52.8Z"/>
      <path class="st0" d="M2176.2,2875.4c47.2,29.6,118.1,71.2,118.1,156.4s-53.3,125.8-120.3,125.8-121.8-64.4-121.8-134.9h60.9c0,36.8,18.3,74.3,60.9,74.3s60.9-30.3,60.9-65.2c0-93.9-161.3-88.5-161.3-209.2s48.7-112.1,111.1-112.1,108.1,47,109.6,112.2h-59.4c-1.5-30.3-22.8-50-50.2-50s-51.7,21.2-51.7,50,14.9,35,43.3,52.8Z"/>
    </g>
  </g>
  <g>
    <path class="st0" d="M594.2,637.1l-52.5,96.9v184h-82.7V342h82.7v230.4l131.1-230.4h94.9l-119.1,202.1,133.1,373.9h-86.7l-100.9-280.9Z"/>
    <path class="st0" d="M928.6,342h271.6v80.9h-188.5v145.5h119.5v78.8h-119.5v190h210.8v80.8h-293.9V342Z"/>
    <path class="st0" d="M1369.4,342h271.6v80.9h-188.5v145.5h119.5v78.8h-119.5v190h210.8v80.8h-293.9V342Z"/>
    <path class="st0" d="M1892.9,665.4v252.6h-82.7V342h171.4c90.8,0,151.3,64.9,151.3,161.7s-54.5,161.6-151.3,161.6h-88.8ZM1892.9,586.5h84.7c48.4,0,74.7-30.2,74.7-82.8s-30.5-80.9-74.6-80.9h-84.7v163.7Z"/>
  </g>
  <g>
    <path class="st0" d="M479.3,1511.2h-78.7v270.8h-82.7v-576h171.4c90.4,0,151.3,60.6,151.3,153.6s-28.3,119.2-82.7,139.5l82.7,283h-84.6l-76.7-270.8ZM400.6,1286.9v145.5h84.7c48.5,0,74.7-26.3,74.7-72.8s-30.2-72.7-74.6-72.7h-84.7Z"/>
    <path class="st0" d="M787.5,1206h80.6v576h-80.6v-576Z"/>
    <path class="st0" d="M1219.6,1792.1c-52.4,0-178.6-9.7-178.6-297.1s120-299,172.5-299c83.2,0,146.2,60.6,150.2,145.4h-83.2c-2-38.4-28.4-64.7-69-64.7s-91.3,8.7-91.3,218.4,69.5,216.2,97.3,216.2c42.6,0,62.9-28.1,62.9-88.9v-38.4h-64.9v-80.9h148.2v119.2c0,144.1-94.9,169.8-144.1,169.8Z"/>
    <path class="st0" d="M1776.5,1521.3h-157.4v260.7h-82.7v-576h82.7v234.4h157.3v-234.4h82.7v576h-82.7v-260.7Z"/>
    <path class="st0" d="M2168.6,1782h-83.1v-499.2h-105.4v-76.8h293.9v76.8h-105.4v499.2Z"/>
  </g>
</svg>