<?xml version="1.0" encoding="UTF-8"?>
<svg id="For_Sheets" xmlns="http://www.w3.org/2000/svg" version="1.1" viewBox="0 0 864 1296">
  <!-- Generator: Adobe Illustrator 29.1.0, SVG Export Plug-In . SVG Version: 2.1.0 Build 142)  -->
  <defs>
    <style>
      .st0 {
        fill: #231f20;
      }

      .st1 {
        fill: #fff;
      }

      .st2 {
        fill: #bf311a;
      }
    </style>
  </defs>
  <g>
    <rect class="st1" x="-.1" y="-.1" width="864.2" height="1296.2" rx="108.1" ry="108.1"/>
    <path class="st0" d="M756,0c59.4,0,108,48.6,108,108v1080c0,59.4-48.6,108-108,108H108c-59.4,0-108-48.6-108-108V108C0,48.6,48.6,0,108,0h648M756-.2H108C79.2-.2,52.1,11,31.5,31.5,11,52.1-.2,79.2-.2,108v1080c0,28.8,11.3,55.9,31.8,76.5,20.5,20.5,47.7,31.8,76.5,31.8h648c28.8,0,55.9-11.3,76.5-31.8,20.5-20.5,31.8-47.7,31.8-76.5V108c0-28.8-11.3-55.9-31.8-76.5C811.9,11,784.8-.2,756-.2h0Z"/>
  </g>
  <rect class="st2" x="-189" y="243" width="1242" height="810" rx="81" ry="81" transform="translate(1080 216) rotate(90)"/>
  <path class="st1" d="M627.8,301.5c-23.5,0-45.4,6.8-63.9,18.5l-41.8-55.6,5.5-19.6c26.2-2.3,40.7-12.2,39.8-21.9-.9-9.3-26.9-2.3-55.8-2-7.9.1-50,0-49.8,7.6.3,7.9,27.1,14.4,46,16.2l-3.4,12h-169.8c3.6-11.8,6.9-22.7,9.5-31.2,2.2-7.2,3.8-12.7,4.6-15.3l-12.3-9.4,5.8-5.9h45.5v-15h-51.7l-22.2,22.5,14.2,10.9c-6.6,21.8-22.2,73.1-32.2,104-17.5-10.1-37.9-15.9-59.5-15.9-65.9,0-119.3,53.4-119.3,119.2s53.4,119.3,119.3,119.3,119.3-53.4,119.3-119.3-16.9-70.2-43.4-92c1.2-3.7,2.6-7.8,4-12.2l128.3,139.7c0,.4,0,.7,0,1.1,0,7.6,6,13.7,13.5,14l9,34.2h-9.2v9h29v-9h-11.5l-9.5-36.2c1.9-1.2,3.6-2.8,4.7-4.8l43.2-9.3c14.7,49.1,60.3,84.9,114.2,84.9s119.3-53.4,119.3-119.3-53.4-119.2-119.3-119.2ZM333,420.7c0,53.4-43.3,96.8-96.8,96.8s-96.8-43.3-96.8-96.8,43.3-96.7,96.8-96.7,36.7,5.5,51.7,14.9c-11.9,25.8-35.1,53.5-51.8,69.2-6.9,0-12.5,5.7-12.5,12.6s5.7,12.6,12.6,12.6,11.8-4.8,12.5-11.1c8.2-7.7,18.8-18.9,29.4-32.4,7.8-10,17.6-23.9,25.1-39,18.3,17.6,29.8,42.4,29.8,69.8ZM455.7,431.4l-5.9-22.3h9.2v-9h-29v9h11.5l5.8,22.1-124.7-135.7c2-6.5,4.1-13.1,6.1-19.7h170.3l-43.5,155.6ZM509.5,436.5l-37.8,8.2,43.9-157.1,33.1,44c-24.7,21.8-40.2,53.7-40.2,89.3s.4,10.6,1,15.7ZM531,420.7c0-28.2,12.1-53.5,31.3-71.2l49,65.1-79.6,17.1c-.4-3.6-.6-7.3-.6-11ZM627.8,517.5c-43.1,0-79.6-28.2-92.1-67.2l86-18.5c1.8,1,3.9,1.6,6.1,1.6,7,0,12.6-5.7,12.6-12.6s-4.3-11.2-10-12.4l-52.9-70.3c14.7-8.9,31.9-14.1,50.3-14.1,53.4,0,96.7,43.3,96.7,96.7s-43.3,96.8-96.7,96.8Z"/>
  <g>
    <path class="st1" d="M182.6,864l-17.1-94.1-17.1,94.1h-22.8l-28.5-180h25.4l15.2,96,17.7-96h20.3l17.1,96,15.8-96h25.4l-29.2,180h-22.2Z"/>
    <path class="st1" d="M309.6,779.4h-24.6v84.6h-25.8v-180h53.6c28.2,0,47.3,18.9,47.3,48s-8.8,37.3-25.9,43.6l25.8,88.4h-26.4l-24-84.6ZM285,709.3v45.5h26.5c15.2,0,23.3-8.2,23.3-22.7s-9.4-22.7-23.3-22.7h-26.5Z"/>
    <path class="st1" d="M387,773.6c0-94.3,43.7-92.7,53.4-92.7s52.8-1.4,52.8,92.8-43.1,93.4-52.8,93.4-53.4,1.5-53.4-93.5ZM440.1,706.1c-5.1,0-28.3-1.1-28.3,67.6s23.2,68.1,28.3,68.1,28.3,1.1,28.3-68.1-23.2-67.6-28.3-67.6Z"/>
    <path class="st1" d="M555.1,743.4v120.6h-25.8v-180h25.8l49.2,108v-108h25.9v180h-19.5l-55.5-120.6Z"/>
    <path class="st1" d="M721.9,867.1c-16.4,0-55.8-3-55.8-92.8s37.5-93.4,53.9-93.4c26,0,45.7,18.9,46.9,45.4h-26c-.6-12-8.9-20.2-21.6-20.2s-28.5,2.7-28.5,68.2,21.7,67.6,30.4,67.6c13.3,0,19.7-8.8,19.7-27.8v-12h-20.3v-25.3h46.3v37.3c0,45-29.7,53.1-45,53.1Z"/>
  </g>
  <g>
    <path class="st1" d="M323,1116l-17.1-94.1-17.1,94.1h-22.8l-28.5-180h25.4l15.2,96,17.7-96h20.3l17.1,96,15.8-96h25.4l-29.2,180h-22.2Z"/>
    <path class="st1" d="M461.8,1066.7h-38.6l-12,49.3h-26l45-180h25.4l44.9,180h-26l-12.7-49.3ZM429.5,1041.5h26l-13.3-51.8-12.7,51.8Z"/>
    <path class="st1" d="M581.6,1116h-26v-81.5l-44.3-98.5h27.2l30.4,65,29.8-65h27.9l-45,98.5v81.5Z"/>
  </g>
</svg>