<?xml version="1.0" encoding="UTF-8"?>
<svg id="For_Sheets" xmlns="http://www.w3.org/2000/svg" version="1.1" viewBox="0 0 2592 2592">
  <!-- Generator: Adobe Illustrator 29.1.0, SVG Export Plug-In . SVG Version: 2.1.0 Build 142)  -->
  <defs>
    <style>
      .st0 {
        fill: #231f20;
      }

      .st1 {
        fill: #fff;
      }

      .st2 {
        fill: #bf311a;
      }
    </style>
  </defs>
  <g>
    <g>
      <path class="st1" d="M162,2592.1c-89.4,0-162.1-72.7-162.1-162.1V162C-.1,72.6,72.6-.1,162-.1h2268c89.4,0,162.1,72.7,162.1,162.1v2268c0,89.4-72.7,162.1-162.1,162.1H162Z"/>
      <path class="st0" d="M2430,0c89.5,0,162,72.5,162,162v2268c0,89.5-72.5,162-162,162H162C72.5,2592,0,2519.5,0,2430V162C0,72.5,72.5,0,162,0h2268M2430-.2H162C118.7-.2,77.9,16.6,47.3,47.3S-.3,118.7-.3,162v2268c0,43.3,16.9,84.1,47.5,114.7,30.6,30.6,71.4,47.5,114.7,47.5h2268c43.3,0,84.1-16.9,114.7-47.5,30.6-30.6,47.5-71.4,47.5-114.7V162c0-43.3-16.9-84.1-47.5-114.7-30.6-30.6-71.4-47.5-114.7-47.5h0Z"/>
    </g>
    <path class="st0" d="M162,2547c-64.5,0-117-52.5-117-117V162c0-64.5,52.5-117,117-117h2268c64.5,0,117,52.5,117,117v2268c0,64.5-52.5,117-117,117H162Z"/>
    <path class="st1" d="M162,2484c-29.8,0-54-24.2-54-54V162c0-29.8,24.2-54,54-54h2268c29.8,0,54,24.2,54,54v2268c0,29.8-24.2,54-54,54H162Z"/>
  </g>
  <path class="st0" d="M1785.4,1140.7c-58.8,0-113.5,17-159.7,46.4l-104.5-138.9,13.7-49c65.5-5.6,101.7-30.5,99.5-54.6-2.2-23.4-67.2-5.9-139.4-4.9-19.8.3-125-.2-124.4,19.1.6,19.8,67.9,35.9,115,40.4l-8.4,30h-424.5c9-29.5,17.3-56.8,23.7-77.9,5.5-18.1,9.6-31.6,11.6-38.4l-30.9-23.6,14.6-14.8h113.7v-37.5h-129.4l-55.5,56.2,35.6,27.2c-16.5,54.6-55.4,182.8-80.6,260.1-43.8-25.3-94.6-39.8-148.9-39.8-164.6,0-298.1,133.5-298.1,298.1s133.5,298.1,298.1,298.1,298.1-133.5,298.1-298.1-42.3-175.4-108.6-230.1c3.1-9.3,6.4-19.6,10-30.6l320.8,349.2c0,.9-.1,1.8-.1,2.8,0,18.9,15,34.3,33.8,34.9l22.5,85.4h-22.9v22.5h72.4v-22.5h-28.8l-23.8-90.5c4.9-3,8.9-7.1,11.9-12l108-23.3c36.9,122.8,150.7,212.3,285.6,212.3s298.1-133.5,298.1-298.1-133.5-298.1-298.1-298.1ZM1048.5,1438.9c0,133.6-108.3,241.9-241.9,241.9s-241.9-108.3-241.9-241.9,108.3-241.9,241.9-241.9,91.8,13.7,129.1,37.3c-29.7,64.4-87.6,133.9-129.4,173-17.3.1-31.3,14.2-31.3,31.6s14.1,31.6,31.6,31.6,29.4-12.1,31.3-27.7c20.4-19.1,47.1-47.3,73.5-81,19.6-25.1,44-59.8,62.7-97.4,45.9,44,74.4,105.9,74.4,174.5ZM1355.1,1465.6l-14.7-55.8h22.9v-22.5h-72.4v22.5h28.8l14.6,55.4-311.6-339.2c5.1-16.1,10.2-32.8,15.4-49.4h425.8l-108.8,389ZM1489.8,1478.2l-94.6,20.4,109.8-392.8,82.7,109.9c-61.6,54.6-100.5,134.4-100.5,223.2s.9,26.5,2.6,39.4ZM1543.5,1438.9c0-70.5,30.1-133.9,78.2-178.1l122.4,162.7-199,42.9c-1-9-1.6-18.2-1.6-27.5ZM1785.4,1680.8c-107.8,0-199.1-70.5-230.4-168l215-46.3c4.5,2.5,9.8,4,15.3,4,17.4,0,31.6-14.1,31.6-31.6s-10.8-27.9-25.1-30.9l-132.2-175.7c36.6-22.3,79.7-35.2,125.8-35.2,133.6,0,241.9,108.3,241.9,241.9s-108.3,241.9-241.9,241.9Z"/>
  <path class="st2" d="M1296,162c-626.3,0-1134,507.7-1134,1134s507.7,1134,1134,1134,1134-507.7,1134-1134S1922.3,162,1296,162ZM2214,1296c0,214.6-73.6,412-197,568.3L727.7,575c156.3-123.4,353.7-197,568.3-197,507,0,918,411,918,918ZM378,1296c0-214.6,73.6-412,197-568.3l1289.3,1289.3c-156.3,123.4-353.7,197-568.3,197-507,0-918-411-918-918Z"/>
</svg>