<?xml version="1.0" encoding="UTF-8"?>
<svg id="For_Sheets" xmlns="http://www.w3.org/2000/svg" version="1.1" viewBox="0 0 1728 864">
  <!-- Generator: Adobe Illustrator 29.1.0, SVG Export Plug-In . SVG Version: 2.1.0 Build 142)  -->
  <defs>
    <style>
      .st0 {
        fill: #231f20;
      }

      .st1 {
        fill: #fff;
      }
    </style>
  </defs>
  <g>
    <rect class="st1" x="-.1" y="-.1" width="1728.2" height="864.2" rx="108.1" ry="108.1"/>
    <path class="st0" d="M1620,0c59.6,0,108,48.4,108,108v648c0,59.6-48.4,108-108,108H108c-59.6,0-108-48.4-108-108V108C0,48.4,48.4,0,108,0h1512M1620-.2H108C79.1-.2,51.9,11,31.5,31.5,11,51.9-.2,79.1-.2,108v648c0,28.9,11.3,56.1,31.7,76.5,20.4,20.4,47.6,31.7,76.5,31.7h1512c28.9,0,56.1-11.3,76.5-31.7,20.4-20.4,31.7-47.6,31.7-76.5V108c0-28.9-11.3-56.1-31.7-76.5-20.4-20.4-47.6-31.7-76.5-31.7h0Z"/>
  </g>
  <path class="st0" d="M1620,27H108c-44.7,0-81,36.3-81,81v648c0,44.7,36.3,81,81,81h1512c44.7,0,81-36.3,81-81V108c0-44.7-36.3-81-81-81ZM1656,756c0,19.9-16.1,36-36,36H108c-19.9,0-36-16.1-36-36V108c0-19.9,16.1-36,36-36h1512c19.9,0,36,16.1,36,36v648Z"/>
  <g>
    <path class="st0" d="M724.1,231.7v146.3h-34.1v-216h34.1l78.8,137.9v-137.9h34.1v216h-30.3l-82.6-146.3Z"/>
    <path class="st0" d="M1038,270c0,7.7,1.6,111.8-76.7,111.8s-76.7-104-76.7-111.8-1.6-111.8,76.7-111.8,76.7,104,76.7,111.8ZM961.7,346.9c23.3,0,42.2-22.1,42.2-76.9s-18.9-76.9-42.2-76.9-42.2,22-42.2,76.9,18.9,76.9,42.2,76.9Z"/>
  </g>
  <g>
    <path class="st0" d="M182.6,607.3v94.7h-31v-216h64.3c34,0,56.7,24.4,56.7,60.6s-20.4,60.6-56.7,60.6h-33.3ZM182.6,577.7h31.8c18.1,0,28-11.3,28-31s-11.4-30.3-28-30.3h-31.8v61.4Z"/>
    <path class="st0" d="M298.5,486h101.8v30.3h-70.7v54.6h44.8v29.6h-44.8v71.3h79.1v30.3h-110.2v-216Z"/>
    <path class="st0" d="M430.7,702v-216h61.6c13.2,0,59.4.6,59.4,107.6s-42.7,108.4-56.8,108.4h-64.2ZM486,516.3h-24.2v155.4h21.5c25.3,0,38.2-11,38.2-76.5s-18.9-78.8-35.5-78.8Z"/>
    <path class="st0" d="M577.7,486h101.8v30.3h-70.7v54.6h44.8v29.6h-44.8v71.3h79.1v30.3h-110.2v-216Z"/>
    <path class="st0" d="M765.4,564.7c23.6,14.8,59,35.6,59,78.2s-26.6,62.9-60.1,62.9-60.9-32.2-60.9-67.4h30.5c0,18.4,9.1,37.2,30.4,37.2s30.4-15.1,30.4-32.6c0-47-80.6-44.3-80.6-104.6s24.4-56.1,55.5-56.1,54.1,23.5,54.8,56.1h-29.7c-.8-15.1-11.4-25-25.1-25s-25.9,10.6-25.9,25,7.5,17.5,21.6,26.4Z"/>
    <path class="st0" d="M906.8,702h-31.2v-187.2h-39.5v-28.8h110.2v28.8h-39.5v187.2Z"/>
    <path class="st0" d="M1025,600.5h-29.5v101.5h-31v-216h64.3c33.9,0,56.7,22.7,56.7,57.6s-10.6,44.7-31,52.3l31,106.1h-31.7l-28.8-101.5ZM995.5,516.3v54.6h31.8c18.2,0,28-9.9,28-27.3s-11.3-27.3-28-27.3h-31.8Z"/>
    <path class="st0" d="M1107.5,486h30.2v216h-30.2v-216Z"/>
    <path class="st0" d="M1247.9,642.9h-46.3l-14.4,59.1h-31.2l53.9-216h30.4l53.9,216h-31.2l-15.2-59.1ZM1209.1,612.6h31.2l-16-62.2-15.2,62.2Z"/>
    <path class="st0" d="M1343.4,557.3v144.7h-31v-216h31l59,129.6v-129.6h31v216h-23.4l-66.6-144.7Z"/>
    <path class="st0" d="M1517.4,564.7c23.6,14.8,59,35.6,59,78.2s-26.6,62.9-60.1,62.9-60.9-32.2-60.9-67.4h30.5c0,18.4,9.1,37.2,30.4,37.2s30.4-15.1,30.4-32.6c0-47-80.6-44.3-80.6-104.6s24.4-56.1,55.5-56.1,54.1,23.5,54.8,56.1h-29.7c-.8-15.1-11.4-25-25.1-25s-25.9,10.6-25.9,25,7.5,17.5,21.6,26.4Z"/>
  </g>
</svg>