<?xml version="1.0" encoding="UTF-8"?>
<svg id="For_Sheets" xmlns="http://www.w3.org/2000/svg" version="1.1" viewBox="0 0 2160 1728">
  <!-- Generator: Adobe Illustrator 29.1.0, SVG Export Plug-In . SVG Version: 2.1.0 Build 142)  -->
  <defs>
    <style>
      .st0 {
        fill: #231f20;
      }

      .st1 {
        fill: #fff;
      }
    </style>
  </defs>
  <g>
    <rect class="st1" x="-.1" y="-.1" width="2160.2" height="1728.2" rx="108.1" ry="108.1"/>
    <path class="st0" d="M2052,0c59.6,0,108,48.4,108,108v1512c0,59.6-48.4,108-108,108H108c-59.6,0-108-48.4-108-108V108C0,48.4,48.4,0,108,0h1944M2052-.2H108C79.1-.2,51.9,11,31.5,31.5,11,51.9-.2,79.1-.2,108v1512c0,28.9,11.3,56.1,31.7,76.5,20.4,20.4,47.6,31.7,76.5,31.7h1944c28.9,0,56.1-11.3,76.5-31.7,20.4-20.4,31.7-47.6,31.7-76.5V108c0-28.9-11.3-56.1-31.7-76.5-20.4-20.4-47.6-31.7-76.5-31.7h0Z"/>
  </g>
  <rect class="st0" x="27" y="27" width="2106" height="1674" rx="81" ry="81"/>
  <rect class="st1" x="72" y="72" width="2016" height="1584" rx="36" ry="36"/>
  <g>
    <path class="st0" d="M260.5,461.2h-61.8l-19.3,78.8h-41.5l71.9-288h40.6l71.9,288h-41.5l-20.3-78.8ZM208.8,420.8h41.5l-21.3-82.9-20.3,82.9Z"/>
    <path class="st0" d="M358.6,456.3v-204.3h41.3v207.1c0,27.1,15.8,45.5,40.3,45.5s38.3-18.2,38.3-45.5v-207.1h41.4v204.9c0,65.5-50.6,88.1-79.7,88.1s-81.6-17.3-81.6-88.7Z"/>
    <path class="st0" d="M650.5,540h-41.5v-249.6h-52.7v-38.4h146.9v38.4h-52.7v249.6Z"/>
    <path class="st0" d="M859.5,409.6h-78.7v130.4h-41.3V252h41.3v117.2h78.7v-117.2h41.4v288h-41.3v-130.4Z"/>
    <path class="st0" d="M952.7,395.4c0-150.8,69.9-148.4,85.5-148.4s84.5-2.3,84.5,148.5-69,149.5-84.5,149.5-85.5,2.4-85.5-149.6ZM1037.7,287.4c-8.2,0-45.3-1.7-45.3,108.2s37.1,109,45.3,109,45.3,1.7,45.3-109-37.1-108.2-45.3-108.2Z"/>
    <path class="st0" d="M1255.2,404.6h-39.3v135.4h-41.3V252h85.7c45.2,0,75.6,30.3,75.6,76.8s-14.1,59.6-41.4,69.7l41.3,141.5h-42.3l-38.3-135.4ZM1215.8,292.4v72.8h42.3c24.3,0,37.3-13.1,37.3-36.4s-15.1-36.4-37.3-36.4h-42.4Z"/>
    <path class="st0" d="M1379.9,252h40.3v288h-40.3V252Z"/>
    <path class="st0" d="M1464.3,495.7l108.9-203.4h-97.6v-40.3h150v26.2l-118.1,222.5h118.2v39.3h-161.3v-44.3Z"/>
    <path class="st0" d="M1669.7,252h135.8v40.4h-94.2v72.8h59.8v39.4h-59.8v95h105.4v40.4h-146.9V252Z"/>
    <path class="st0" d="M1860.7,540V252h82.2c17.6,0,79.2.9,79.2,143.5s-56.9,144.5-75.7,144.5h-85.6ZM1934.4,292.4h-32.3v207.1h28.7c33.7,0,50.9-14.7,50.9-102.1s-25.2-105.1-47.4-105.1Z"/>
  </g>
  <g>
    <path class="st0" d="M409.8,1008l-73.1-288h41.6l47.7,187,47.7-187h41.6l-74.1,288h-31.5Z"/>
    <path class="st0" d="M555.7,720h135.8v40.4h-94.2v72.8h59.8v39.4h-59.8v95h105.4v40.4h-146.9v-288Z"/>
    <path class="st0" d="M871.6,877.6h-78.7v130.4h-41.3v-288h41.3v117.2h78.7v-117.2h41.4v288h-41.3v-130.4Z"/>
    <path class="st0" d="M976.3,720h40.3v288h-40.3v-288Z"/>
    <path class="st0" d="M1193.9,796.8c-4-28.3-15.2-41.4-34.5-41.4-33.5,0-45.7,26.3-45.7,101s14.2,116.2,49.8,116.2,30.4-20.2,30.4-41.4h41.6c-1,47.5-31.4,81.9-72,81.9-61.9,0-89.3-49.5-89.3-155.6s29.4-142.4,86.3-142.4,73.7,48.1,75.1,81.8h-41.6Z"/>
    <path class="st0" d="M1293.2,720h41.5v249.6h105.4v38.4h-146.9v-288Z"/>
    <path class="st0" d="M1480.4,720h135.8v40.4h-94.2v72.8h59.8v39.4h-59.8v95h105.4v40.4h-146.9v-288Z"/>
    <path class="st0" d="M1744.6,824.9c31.5,19.8,78.7,47.4,78.7,104.3s-35.5,83.8-80.2,83.8-81.2-42.9-81.2-89.9h40.6c0,24.5,12.2,49.5,40.6,49.5s40.6-20.2,40.6-43.5c0-62.6-107.5-59-107.5-139.5s32.5-74.7,74-74.7,72.1,31.3,73.1,74.8h-39.6c-1-20.2-15.2-33.3-33.5-33.3s-34.5,14.1-34.5,33.3,9.9,23.3,28.8,35.2Z"/>
  </g>
  <g>
    <path class="st0" d="M781.2,1332c0,10.3,2.2,149-102.3,149s-102.3-138.7-102.3-149-2.2-149,102.3-149,102.3,138.7,102.3,149ZM679.4,1434.6c31,0,56.2-29.4,56.2-102.6s-25.2-102.6-56.2-102.6-56.2,29.4-56.2,102.6,25.2,102.6,56.2,102.6Z"/>
    <path class="st0" d="M902.6,1281v195h-45.4v-288h45.4l105.1,183.9v-183.9h45.5v288h-40.4l-110.2-195Z"/>
    <path class="st0" d="M1136.2,1188h45.4v245.6h133.2v42.4h-178.6v-288Z"/>
    <path class="st0" d="M1482.9,1476h-45.7v-125.3l-101.6-162.7h54.9l69,111.2,70.1-111.2h53.8l-100.5,162.7v125.3Z"/>
  </g>
</svg>