<?xml version="1.0" encoding="UTF-8"?>
<svg id="For_Sheets" xmlns="http://www.w3.org/2000/svg" version="1.1" viewBox="0 0 2592 1728">
  <!-- Generator: Adobe Illustrator 29.1.0, SVG Export Plug-In . SVG Version: 2.1.0 Build 142)  -->
  <defs>
    <style>
      .st0 {
        fill: #231f20;
      }

      .st1 {
        fill: #fff;
      }

      .st2 {
        fill: #bf311a;
      }
    </style>
  </defs>
  <g>
    <rect class="st1" x="-.1" y="-.1" width="2592.2" height="1728.2" rx="108.1" ry="108.1"/>
    <path class="st0" d="M2484,0c59.4,0,108,48.6,108,108v1512c0,59.4-48.6,108-108,108H108c-59.4,0-108-48.6-108-108V108C0,48.6,48.6,0,108,0h2376M2484-.2H108C79.2-.2,52.1,11,31.5,31.5,11,52.1-.2,79.2-.2,108v1512c0,28.8,11.3,55.9,31.8,76.5,20.5,20.5,47.7,31.8,76.5,31.8h2376c28.8,0,55.9-11.3,76.5-31.8,20.5-20.5,31.8-47.7,31.8-76.5V108c0-28.8-11.3-55.9-31.8-76.5-20.5-20.5-47.7-31.8-76.5-31.8h0Z"/>
  </g>
  <rect class="st2" x="468" y="-396" width="1656" height="2520" rx="72" ry="72" transform="translate(2160 -432) rotate(90)"/>
  <g>
    <path class="st1" d="M609.3,756l-68.5-277.4-66.9,277.4h-60.9l-63.8-432h69.9l33.5,227.4,54.7-227.4h67l56.2,227.4,33.5-227.4h69.9l-63.9,432h-60.7Z"/>
    <path class="st1" d="M866.9,568v188h-68.1v-432h156.3c99,0,128.7,79.2,128.7,121.3s-5.9,79.2-67.1,108.2l76.1,202.5h-74.3l-69.7-188h-81.9ZM952.7,498.3c54.2,0,62.7-39.1,62.7-53s-14.1-53.1-59.5-53.1h-89.1v106.1h85.8Z"/>
    <path class="st1" d="M1464.6,540c0,15.5,3.3,223.6-153.5,223.6s-153.5-208.1-153.5-223.6-3.3-223.5,153.5-223.5,153.5,208,153.5,223.5ZM1311.9,693.9c46.5,0,84.3-44.1,84.3-153.9s-37.8-153.9-84.3-153.9-84.3,44.1-84.3,153.9,37.8,153.9,84.3,153.9Z"/>
    <path class="st1" d="M1627.8,463.5v292.5h-68.1v-432h68.1l157.7,275.9v-275.9h68.3v432h-60.6l-165.3-292.5Z"/>
    <path class="st1" d="M2105.3,316.5c69.2,0,108.2,26.2,137.5,95.5l-65.2,25.7c-18.2-37.9-36.3-51.5-69.7-51.5-94.9,0-89.5,144.5-89.5,154.6,0,16.3-3.7,153.1,80.4,153.1s75.8-27.3,75.8-66.7v-18.1h-78.8v-68.3h147v86.4c0,78.8-57.6,136.4-136.5,136.4s-157.6,12.9-157.6-223.6,1.8-223.5,156.6-223.5Z"/>
  </g>
  <g>
    <path class="st1" d="M968.2,1404l-68.5-277.4-66.9,277.4h-60.9l-63.8-432h69.9l33.5,227.4,54.7-227.4h67l56.2,227.4,33.5-227.4h69.9l-63.9,432h-60.7Z"/>
    <path class="st1" d="M1370.3,1282.7h-135.6l-42.7,121.3h-73.2l149.4-432h68.6l149.4,432h-73.2l-42.7-121.3ZM1259,1213h86.9l-42.7-121.2-44.2,121.2Z"/>
    <path class="st1" d="M1733,1404h-68.6v-188l-152.3-244h82.3l103.6,166.8,105.1-166.8h80.7l-150.8,244v188Z"/>
  </g>
</svg>