<?xml version="1.0" encoding="UTF-8"?>
<svg id="For_Sheets" xmlns="http://www.w3.org/2000/svg" version="1.1" viewBox="0 0 2592 2592">
  <!-- Generator: Adobe Illustrator 29.1.0, SVG Export Plug-In . SVG Version: 2.1.0 Build 142)  -->
  <defs>
    <style>
      .st0 {
        fill: #231f20;
      }

      .st1 {
        fill: #fff;
      }

      .st2 {
        fill: #bf311a;
      }
    </style>
  </defs>
  <g>
    <path class="st1" d="M162,2592.1c-43.1,0-83.8-16.9-114.5-47.6S-.1,2473.1-.1,2430V162C-.1,118.9,16.8,78.2,47.5,47.5S118.9-.1,162-.1h2268c43.1,0,83.8,16.9,114.5,47.6s47.6,71.4,47.6,114.5v2268c0,43.1-16.9,83.8-47.6,114.5s-71.4,47.6-114.5,47.6H162Z"/>
    <path class="st0" d="M2430,0c89.1,0,162,72.9,162,162v2268c0,89.1-72.9,162-162,162H162c-89.1,0-162-72.9-162-162V162C0,72.9,72.9,0,162,0h2268M2430-.2H162c-21.8,0-43,4.3-63,12.8-19.3,8.2-36.7,19.9-51.6,34.9-14.9,14.9-26.7,32.3-34.9,51.6C4.1,119-.2,140.2-.2,162v2268c0,21.8,4.3,43,12.8,63,8.2,19.3,19.9,36.7,34.9,51.6s32.3,26.7,51.6,34.9c20,8.5,41.2,12.8,63,12.8h2268c21.8,0,43-4.3,63-12.8,19.3-8.2,36.7-19.9,51.6-34.9,14.9-14.9,26.7-32.3,34.9-51.6,8.5-20,12.8-41.2,12.8-63V162c0-21.8-4.3-43-12.8-63-8.2-19.3-19.9-36.7-34.9-51.6-14.9-14.9-32.3-26.7-51.6-34.9-20-8.5-41.2-12.8-63-12.8h0Z"/>
  </g>
  <path class="st2" d="M1296,36C600.1,36,36,600.1,36,1296s564.1,1260,1260,1260,1260-564.1,1260-1260S1991.9,36,1296,36ZM237.6,1512c-14.2-69.8-21.6-142-21.6-216s7.4-146.2,21.6-216h2116.8c14.2,69.8,21.6,142,21.6,216s-7.4,146.2-21.6,216H237.6Z"/>
  <g>
    <g>
      <path class="st1" d="M404.5,900v-360h129.9c90.8,0,115.2,119.7,115.2,171.9,0,135-69.4,188.1-115,188.1h-130.1ZM525.7,596.8h-64.4v245h60.4c52.4,0,69.6-63.4,69.6-131.2s-9.2-113.8-65.6-113.8Z"/>
      <path class="st1" d="M977.3,720c0,12.9,2.7,186.3-127.9,186.3s-127.9-173.4-127.9-186.3-2.7-186.3,127.9-186.3,127.9,173.3,127.9,186.3ZM850.1,848.2c38.8,0,70.3-36.8,70.3-128.2s-31.5-128.2-70.3-128.2-70.3,36.7-70.3,128.2,31.5,128.2,70.3,128.2Z"/>
    </g>
    <g>
      <path class="st1" d="M1394.1,656.2v243.8h-56.8v-360h56.8l131.4,229.9v-229.9h56.9v360h-50.5l-137.7-243.8Z"/>
      <path class="st1" d="M1917.4,720c0,12.9,2.7,186.3-127.9,186.3s-127.9-173.4-127.9-186.3-2.7-186.3,127.9-186.3,127.9,173.3,127.9,186.3ZM1790.1,848.2c38.8,0,70.3-36.8,70.3-128.2s-31.5-128.2-70.3-128.2-70.3,36.7-70.3,128.2,31.5,128.2,70.3,128.2Z"/>
      <path class="st1" d="M2103.8,900h-57.1v-309.5h-82.4v-50.5h223.3v50.5h-83.7v309.5Z"/>
    </g>
  </g>
  <g>
    <path class="st1" d="M600.8,1692h211.9v56.8h-155.2v88.4h104.7v58.1h-104.7v98.5h166.5v58.1h-223.3v-360Z"/>
    <path class="st1" d="M942.1,1808.2v243.8h-56.8v-360h56.8l131.4,229.9v-229.9h56.9v360h-50.5l-137.7-243.8Z"/>
    <path class="st1" d="M1323.9,2052h-57.1v-309.5h-82.4v-50.5h223.3v50.5h-83.7v309.5Z"/>
    <path class="st1" d="M1461.6,1692h211.9v56.8h-155.2v88.4h104.7v58.1h-104.7v98.5h166.5v58.1h-223.3v-360Z"/>
    <path class="st1" d="M1802.9,1895.3v156.7h-56.8v-360h130.2c82.5,0,107.3,66,107.3,101.1s-4.9,66-55.9,90.1l63.4,168.7h-61.9l-58.1-156.7h-68.3ZM1874.4,1837.3c45.2,0,52.3-32.6,52.3-44.2s-11.7-44.2-49.5-44.2h-74.2v88.4h71.5Z"/>
  </g>
</svg>