<?xml version="1.0" encoding="UTF-8"?>
<svg id="For_Sheets" xmlns="http://www.w3.org/2000/svg" version="1.1" viewBox="0 0 864 432">
  <!-- Generator: Adobe Illustrator 29.1.0, SVG Export Plug-In . SVG Version: 2.1.0 Build 142)  -->
  <defs>
    <style>
      .st0 {
        fill: #231f20;
      }

      .st1 {
        fill: #fff;
      }

      .st2 {
        fill: #bf311a;
      }
    </style>
  </defs>
  <g>
    <rect class="st1" x="-.1" y="-.1" width="864.2" height="432.2" rx="108.1" ry="108.1"/>
    <path class="st0" d="M756,0c59.4,0,108,48.6,108,108v216c0,59.4-48.6,108-108,108H108c-59.4,0-108-48.6-108-108V108C0,48.6,48.6,0,108,0h648M756-.2H108C79.2-.2,52.1,11,31.5,31.5,11,52.1-.2,79.2-.2,108v216c0,28.8,11.3,55.9,31.8,76.5,20.5,20.5,47.7,31.8,76.5,31.8h648c28.8,0,55.9-11.3,76.5-31.8,20.5-20.5,31.8-47.7,31.8-76.5V108c0-28.8-11.3-55.9-31.8-76.5S784.8-.2,756-.2h0Z"/>
  </g>
  <rect class="st2" x="243" y="-189" width="378" height="810" rx="81" ry="81" transform="translate(648 -216) rotate(90)"/>
  <rect class="st1" x="270" y="-162" width="324" height="756" rx="54" ry="54" transform="translate(648 -216) rotate(90)"/>
  <g>
    <path class="st2" d="M123.3,189h-15.8v-74.2h-25.9v-15.8h67.5v15.8h-25.9v74.2Z"/>
    <path class="st2" d="M161.8,143.8c0-28.7,14.6-46.4,38.3-46.4s37.3,18.5,37.3,46.1-14.4,47-37.3,47-38.3-24.1-38.3-46.7ZM178.2,143.8c0,19.3,8.2,30.6,21.8,30.6s21.2-16.7,21.2-30.6-7.8-30.3-21.2-30.3-21.8,11.4-21.8,30.3Z"/>
    <path class="st2" d="M312.3,189l-14.5-60.3-14.2,60.3h-17.1l-16.4-90h16.8l9.8,58.1,13.3-58.1h16.1l13.9,58.1,9.2-58.1h16.4l-16.1,90h-17.1Z"/>
    <path class="st2" d="M351.8,136.6h31.5v16.1h-31.5v-16.1Z"/>
    <path class="st2" d="M455.3,167.8h-39.1l-8.8,21.2h-17.7l37.9-90h16.4l37.6,90h-17.4l-8.8-21.2ZM423.1,151.7h25.3l-12.6-30.3-12.6,30.3Z"/>
    <path class="st2" d="M551,189l-14.5-60.3-14.2,60.3h-17.1l-16.4-90h16.8l9.8,58.1,13.3-58.1h16.1l13.9,58.1,9.2-58.1h16.4l-16.1,90h-17.1Z"/>
    <path class="st2" d="M657,167.8h-39.1l-8.8,21.2h-17.7l37.9-90h16.4l37.6,90h-17.4l-8.8-21.2ZM624.8,151.7h25.3l-12.6-30.3-12.6,30.3Z"/>
    <path class="st2" d="M744.4,189h-16.1v-36.6l-37.9-53.4h19.9l26.2,36.6,25.9-36.6h19.9l-37.9,53.4v36.6Z"/>
  </g>
  <g>
    <path class="st2" d="M257.8,314.7l52.8-55.9h-49.8v-15.8h70v18.3l-52.4,55.6h52.4v16.1h-72.9v-18.3Z"/>
    <path class="st2" d="M346,287.8c0-28.7,14.6-46.4,38.3-46.4s37.3,18.5,37.3,46.1-14.4,47-37.3,47-38.3-24.1-38.3-46.7ZM362.5,287.8c0,19.3,8.2,30.6,21.8,30.6s21.2-16.7,21.2-30.6-7.8-30.3-21.2-30.3-21.8,11.4-21.8,30.3Z"/>
    <path class="st2" d="M458.2,271.1v61.9h-15.8v-90h15.8l41.6,59.4v-59.4h15.5v90h-14l-43.1-61.9Z"/>
    <path class="st2" d="M538.7,243h65.9v16.1h-49.4v16.7h26.9v16.4h-26.9v24.6h51v16.1h-67.5v-90Z"/>
  </g>
</svg>