<?xml version="1.0" encoding="UTF-8"?>
<svg id="For_Sheets" xmlns="http://www.w3.org/2000/svg" version="1.1" viewBox="0 0 864 1296">
  <!-- Generator: Adobe Illustrator 29.1.0, SVG Export Plug-In . SVG Version: 2.1.0 Build 142)  -->
  <defs>
    <style>
      .st0 {
        fill: #231f20;
      }

      .st1 {
        fill: #fff;
      }

      .st2 {
        fill: #bf311a;
      }
    </style>
  </defs>
  <g>
    <rect class="st1" x="-.1" y="-.1" width="864.2" height="1296.2" rx="108.1" ry="108.1"/>
    <path class="st0" d="M756,0c59.4,0,108,48.6,108,108v1080c0,59.4-48.6,108-108,108H108c-59.4,0-108-48.6-108-108V108C0,48.6,48.6,0,108,0h648M756-.2H108C79.2-.2,52.1,11,31.5,31.5,11,52.1-.2,79.2-.2,108v1080c0,28.8,11.3,55.9,31.8,76.5,20.5,20.5,47.7,31.8,76.5,31.8h648c28.8,0,55.9-11.3,76.5-31.8,20.5-20.5,31.8-47.7,31.8-76.5V108c0-28.8-11.3-55.9-31.8-76.5C811.9,11,784.8-.2,756-.2h0Z"/>
  </g>
  <rect class="st2" x="-189" y="243" width="1242" height="810" rx="81" ry="81" transform="translate(1080 216) rotate(90)"/>
  <rect class="st1" x="-162" y="270" width="1188" height="756" rx="54" ry="54" transform="translate(1080 216) rotate(90)"/>
  <g>
    <path class="st2" d="M317.1,206.3v144.7h-31v-216h31l59,129.6v-129.6h31v216h-23.4l-66.6-144.7Z"/>
    <path class="st2" d="M450.4,242.5c0-113.1,52.5-111.3,64.1-111.3s63.4-1.7,63.4,111.4-51.8,112.1-63.4,112.1-64.1,1.8-64.1-112.2ZM514.1,161.5c-6.2,0-34-1.3-34,81.2s27.8,81.8,34,81.8,34,1.3,34-81.8-27.8-81.2-34-81.2Z"/>
  </g>
  <g>
    <path class="st2" d="M113.3,442.1v65.9h14.8c16.7,0,22.8-8.6,22.8-31.1s-7.6-34.9-22.8-34.9h-14.8ZM128.1,536h-14.8v94h-27.3v-216h43.8c46.1,0,49.1,51.3,49.1,62.9,0,35.6-20.5,59.1-50.8,59.1Z"/>
    <path class="st2" d="M230.3,544.4h23.5l-11.4-56.9-12.1,56.9ZM259.9,572.4h-35.6l-12.1,57.6h-28l44-216h28l44.7,216h-28.8l-12.1-57.6Z"/>
    <path class="st2" d="M377.8,473.9c0-24.5-5.3-31.8-24.3-31.8h-13.3v59.1h17.8c15.1,0,19.7-6.8,19.7-27.3ZM383.1,522.5l22,107.5h-29.6l-20.6-100.8h-14.7v100.8h-27.3v-216h42.1c33.5,0,50.8,20.5,50.8,60.6s-6.1,38.6-22.7,47.8Z"/>
    <polygon class="st2" points="456.4 527.7 447 548.9 447 630 419.7 630 419.7 414 447 414 447 483 479.9 414 511.8 414 476.2 488.3 514.8 630 485.2 630 456.4 527.7"/>
    <rect class="st2" x="528.6" y="414" width="28.1" height="216"/>
    <polygon class="st2" points="602.9 501.9 602.9 630 575.7 630 575.7 414 602.9 414 641.5 521.6 641.5 414 668.6 414 668.6 630 645.2 630 602.9 501.9"/>
    <path class="st2" d="M735.3,411c24.4,0,40.4,15.2,42.7,41.7h-28.2c-.8-9.1-6.1-13.6-13.7-13.6-13.6,0-22.8,11.6-22.8,83.3s9.3,83.4,22.8,83.4,14.5-13.3,14.5-26.5v-25.8h-12.9v-28.1h40.4v53.8c0,14.1,2,54.6-42.6,54.6s-50.3-29.9-50.3-111.4,20.7-111.4,50.3-111.4Z"/>
  </g>
  <g>
    <path class="st2" d="M340.6,779.6h-30.9l-9.6,39.4h-20.8l36-144h20.3l35.9,144h-20.8l-10.1-39.4ZM314.8,759.4h20.8l-10.6-41.4-10.1,41.4Z"/>
    <path class="st2" d="M412.3,722.5v96.5h-20.7v-144h20.7l39.3,86.4v-86.4h20.7v144h-15.6l-44.4-96.5Z"/>
    <path class="st2" d="M548.8,819h-20.8v-65.2l-35.5-78.8h21.8l24.3,52,23.8-52h22.3l-36,78.8v65.2Z"/>
  </g>
  <g>
    <path class="st2" d="M306.2,1008h-20.8v-124.8h-26.4v-19.2h73.5v19.2h-26.4v124.8Z"/>
    <path class="st2" d="M352.8,864h20.2v144h-20.2v-144Z"/>
    <path class="st2" d="M479,927.2l-26.8,80.8-26.8-80.8v80.8h-20.7v-144h20.7l26.8,80.8,26.8-80.8h20.7v144h-20.7v-80.8Z"/>
    <path class="st2" d="M531.4,864h67.9v20.2h-47.1v36.4h29.9v19.7h-29.9v47.5h52.7v20.2h-73.5v-144Z"/>
  </g>
  <g>
    <rect class="st2" x="248.6" y="1089" width="462.4" height="54"/>
    <path class="st2" d="M269.6,1055.5c.2-.8.4-1.7.4-2.5,0-5-4-9-9-9-1.8,0-3.5.5-5.1,1.6l-102.9,70.4,102.9,70.4c1.6,1.1,3.3,1.6,5.1,1.6,5,0,9-4,9-9,0-.8-.1-1.7-.4-2.5l-17.6-60.5,17.6-60.5Z"/>
  </g>
</svg>