<?xml version="1.0" encoding="UTF-8"?>
<svg id="For_Sheets" xmlns="http://www.w3.org/2000/svg" version="1.1" viewBox="0 0 864 1296">
  <!-- Generator: Adobe Illustrator 29.1.0, SVG Export Plug-In . SVG Version: 2.1.0 Build 142)  -->
  <defs>
    <style>
      .st0 {
        fill: #231f20;
      }

      .st1 {
        fill: #006f53;
      }

      .st2 {
        fill: #fff;
      }
    </style>
  </defs>
  <g>
    <rect class="st2" x="-.1" y="-.1" width="864.2" height="1296.2" rx="108.1" ry="108.1"/>
    <path class="st0" d="M756,0c59.4,0,108,48.6,108,108v1080c0,59.4-48.6,108-108,108H108c-59.4,0-108-48.6-108-108V108C0,48.6,48.6,0,108,0h648M756-.2H108C79.2-.2,52.1,11,31.5,31.5,11,52.1-.2,79.2-.2,108v1080c0,28.8,11.3,55.9,31.8,76.5,20.5,20.5,47.7,31.8,76.5,31.8h648c28.8,0,55.9-11.3,76.5-31.8,20.5-20.5,31.8-47.7,31.8-76.5V108c0-28.8-11.3-55.9-31.8-76.5C811.9,11,784.8-.2,756-.2h0Z"/>
  </g>
  <rect class="st1" x="-189" y="243" width="1242" height="810" rx="81" ry="81" transform="translate(1080 216) rotate(90)"/>
  <rect class="st2" x="54" y="54" width="756" height="1188" rx="54" ry="54"/>
  <g>
    <path class="st1" d="M175.9,162.2l-26.8,80.8-26.8-80.8v80.8h-20.7V99h20.7l26.8,80.8,26.8-80.8h20.7v144h-20.7v-80.8Z"/>
    <path class="st1" d="M222,99h67.9v20.2h-47.1v36.4h29.9v19.7h-29.9v47.5h52.7v20.2h-73.5V99Z"/>
    <path class="st1" d="M352.9,243h-20.8v-124.8h-26.4v-19.2h73.5v19.2h-26.4v124.8Z"/>
    <path class="st1" d="M395.4,99h67.9v20.2h-47.1v36.4h29.9v19.7h-29.9v47.5h52.7v20.2h-73.5V99Z"/>
    <path class="st1" d="M528.8,175.3h-19.7v67.7h-20.7V99h42.9c22.6,0,37.8,15.2,37.8,38.4s-7.1,29.8-20.7,34.9l20.7,70.7h-21.1l-19.2-67.7ZM509.1,119.2v36.4h21.2c12.1,0,18.7-6.6,18.7-18.2s-7.6-18.2-18.6-18.2h-21.2Z"/>
    <path class="st1" d="M588.7,99h67.9v20.2h-47.1v36.4h29.9v19.7h-29.9v47.5h52.7v20.2h-73.5V99Z"/>
    <path class="st1" d="M681.8,243V99h41.1c8.8,0,39.6.4,39.6,71.7s-28.4,72.3-37.9,72.3h-42.8ZM718.6,119.2h-16.1v103.6h14.4c16.8,0,25.5-7.4,25.5-51s-12.6-52.5-23.7-52.5Z"/>
  </g>
  <g>
    <path class="st1" d="M136,359.8v63.2h-20.7v-144h42.9c22.7,0,37.8,16.2,37.8,40.4s-13.6,40.4-37.8,40.4h-22.2ZM136,340.1h21.2c12.1,0,18.7-7.6,18.7-20.7s-7.6-20.2-18.6-20.2h-21.2v40.9Z"/>
    <path class="st1" d="M271.2,383.6h-30.9l-9.6,39.4h-20.8l36-144h20.3l35.9,144h-20.8l-10.1-39.4ZM245.3,363.4h20.8l-10.6-41.4-10.1,41.4Z"/>
    <path class="st1" d="M358.5,355.3h-19.7v67.7h-20.7v-144h42.9c22.6,0,37.8,15.2,37.8,38.4s-7.1,29.8-20.7,34.9l20.7,70.7h-21.1l-19.2-67.7ZM338.9,299.2v36.4h21.2c12.1,0,18.7-6.6,18.7-18.2s-7.6-18.2-18.6-18.2h-21.2Z"/>
    <path class="st1" d="M452.2,352.8l-13.1,24.2v46h-20.7v-144h20.7v57.6l32.8-57.6h23.7l-29.8,50.5,33.3,93.5h-21.7l-25.2-70.2Z"/>
    <path class="st1" d="M518.7,279h20.2v144h-20.2v-144Z"/>
    <path class="st1" d="M584.9,326.5v96.5h-20.7v-144h20.7l39.3,86.4v-86.4h20.7v144h-15.6l-44.4-96.5Z"/>
    <path class="st1" d="M712.6,425.5c-13.1,0-44.7-2.4-44.7-74.3s30-74.8,43.1-74.8c20.8,0,36.5,15.1,37.5,36.4h-20.8c-.5-9.6-7.1-16.2-17.2-16.2s-22.8,2.2-22.8,54.6,17.4,54.1,24.3,54.1c10.7,0,15.7-7,15.7-22.2v-9.6h-16.2v-20.2h37v29.8c0,36-23.7,42.4-36,42.4Z"/>
  </g>
  <g>
    <path class="st1" d="M124.3,700.8h-9.2v-15.7c8.2-.5,13.3-4,16.4-10.1h13.8v144h-21v-118.2Z"/>
    <path class="st1" d="M174.1,746.7c0-75.4,35-74.2,42.7-74.2s42.2-1.2,42.2,74.3-34.5,74.7-42.2,74.7-42.7,1.2-42.7-74.8ZM216.6,692.7c-4.1,0-22.6-.8-22.6,54.1s18.5,54.5,22.6,54.5,22.6.8,22.6-54.5-18.5-54.1-22.6-54.1Z"/>
    <path class="st1" d="M277.9,718.2c0-6.6,5.1-11.6,11.8-11.6s11.3,5.1,11.3,11.6-5.1,11.1-11.3,11.1-11.8-5.1-11.8-11.1ZM277.9,775.8c0-6.4,5.4-11.6,11.8-11.6s11.3,5.6,11.3,11.6-5.1,11.6-11.3,11.6-11.8-5.1-11.8-11.6Z"/>
    <path class="st1" d="M319.6,746.7c0-75.4,35-74.2,42.7-74.2s42.2-1.2,42.2,74.3-34.5,74.7-42.2,74.7-42.7,1.2-42.7-74.8ZM362.1,692.7c-4.1,0-22.6-.8-22.6,54.1s18.5,54.5,22.6,54.5,22.6.8,22.6-54.5-18.5-54.1-22.6-54.1Z"/>
    <path class="st1" d="M430.5,746.7c0-75.4,35-74.2,42.7-74.2s42.2-1.2,42.2,74.3-34.5,74.7-42.2,74.7-42.7,1.2-42.7-74.8ZM473,692.7c-4.1,0-22.6-.8-22.6,54.1s18.5,54.5,22.6,54.5,22.6.8,22.6-54.5-18.5-54.1-22.6-54.1Z"/>
    <path class="st1" d="M565,755.8v63.2h-20.7v-144h42.9c22.7,0,37.8,16.2,37.8,40.4s-13.6,40.4-37.8,40.4h-22.2ZM565,736.1h21.2c12.1,0,18.7-7.6,18.7-20.7s-7.6-20.2-18.6-20.2h-21.2v40.9Z"/>
    <path class="st1" d="M728.2,738.2l-26.8,80.8-26.8-80.8v80.8h-20.7v-144h20.7l26.8,80.8,26.8-80.8h20.7v144h-20.7v-80.8Z"/>
  </g>
  <g>
    <g>
      <path class="st1" d="M179.9,577.5c0,27.3-15.7,46-40.6,46s-40.1-19.2-40.1-52.1,18.3-71.2,49.7-95.5l11.6,16.1c-12.2,9.1-25.4,26.3-30.5,39.9,3-.4,6.1-.5,9.1-.5,24.9,0,40.6,18.7,40.6,46ZM119,575.5c0,16,8.1,27.8,20.3,27.8s20.3-10.6,20.3-25.8-8.1-26.3-20.3-26.3-20.3,10.6-20.3,24.2Z"/>
      <path class="st1" d="M198.6,520.2c0-6.6,5.1-11.6,11.8-11.6s11.3,5.1,11.3,11.6-5.1,11.1-11.3,11.1-11.8-5.1-11.8-11.1ZM198.6,577.8c0-6.4,5.4-11.6,11.8-11.6s11.3,5.6,11.3,11.6-5.1,11.6-11.3,11.6-11.8-5.1-11.8-11.6Z"/>
      <path class="st1" d="M276.7,494.6c-9.2,0-14.7,5.6-15.7,15.2l-20.3-2.5c2-19.2,16.7-32.8,36-32.8s36.5,15.8,36.5,36.9-3.5,21.7-13.2,32.8c11.2,10.1,16.7,23.2,16.7,37.9,0,23.7-16.7,41.4-40.1,41.4s-39.6-16.7-40.6-40.4h20.3c1,11.6,9.1,20.2,20.3,20.2s20.3-9.4,20.3-21.2-8.7-27.8-18.8-27.8h-10.2v-19.7h9.8c7.3,0,15.6-10.5,15.6-21.7s-6.6-18.2-16.8-18.2Z"/>
      <path class="st1" d="M338.3,548.7c0-75.4,35-74.2,42.7-74.2s42.2-1.2,42.2,74.3-34.5,74.7-42.2,74.7-42.7,1.2-42.7-74.8ZM380.8,494.6c-4.1,0-22.6-.8-22.6,54.1s18.5,54.5,22.6,54.5,22.6.8,22.6-54.5-18.5-54.1-22.6-54.1Z"/>
      <path class="st1" d="M472.8,557.8v63.2h-20.7v-144h42.9c22.7,0,37.8,16.2,37.8,40.4s-13.6,40.4-37.8,40.4h-22.2ZM472.8,538.1h21.2c12.1,0,18.7-7.6,18.7-20.7s-7.6-20.2-18.6-20.2h-21.2v40.9Z"/>
      <path class="st1" d="M636,540.1l-26.8,80.8-26.8-80.8v80.8h-20.7v-144h20.7l26.8,80.8,26.8-80.8h20.7v144h-20.7v-80.8Z"/>
    </g>
    <path class="st1" d="M692.8,542.7h72v19.2h-72v-19.2Z"/>
  </g>
  <g>
    <path class="st1" d="M188.1,936.2l-26.8,80.8-26.8-80.8v80.8h-20.7v-144h20.7l26.8,80.8,26.8-80.8h20.7v144h-20.7v-80.8Z"/>
    <path class="st1" d="M231.9,944.7c0-75.4,35-74.2,42.7-74.2s42.3-1.2,42.3,74.2-34.5,74.8-42.3,74.8-42.7,1.2-42.7-74.8ZM274.4,890.7c-4.1,0-22.7-.8-22.7,54.1s18.6,54.5,22.7,54.5,22.6.8,22.6-54.5-18.5-54.1-22.6-54.1Z"/>
    <path class="st1" d="M360.6,920.5v96.5h-20.7v-144h20.7l39.3,86.4v-86.4h20.7v144h-15.6l-44.4-96.5Z"/>
  </g>
  <g>
    <path class="st1" d="M561,929.6h28.9v19.7h-28.9v67.7h-20.8v-144h73.5v20.2h-52.7v36.4Z"/>
    <path class="st1" d="M670.1,949.3h-19.7v67.7h-20.7v-144h42.9c22.6,0,37.8,15.2,37.8,38.4s-7.1,29.8-20.7,34.9l20.7,70.7h-21.1l-19.2-67.7ZM650.5,893.2v36.4h21.2c12.1,0,18.7-6.6,18.7-18.2s-7.6-18.2-18.6-18.2h-21.2Z"/>
    <path class="st1" d="M730.1,873h20.2v144h-20.2v-144Z"/>
  </g>
  <path class="st1" d="M444.4,938.7h72v19.2h-72v-19.2Z"/>
  <g>
    <rect class="st1" x="248.6" y="1116" width="366.8" height="54"/>
    <path class="st1" d="M594.4,1082.5c-.2-.8-.4-1.7-.4-2.5,0-5,4-9,9-9,1.8,0,3.5.5,5.1,1.6l102.9,70.4-102.9,70.4c-1.6,1.1-3.3,1.6-5.1,1.6-5,0-9-4-9-9,0-.8.1-1.7.4-2.5l17.6-60.5-17.6-60.5Z"/>
    <path class="st1" d="M269.6,1082.5c.2-.8.4-1.7.4-2.5,0-5-4-9-9-9-1.8,0-3.5.5-5.1,1.6l-102.9,70.4,102.9,70.4c1.6,1.1,3.3,1.6,5.1,1.6,5,0,9-4,9-9,0-.8-.1-1.7-.4-2.5l-17.6-60.5,17.6-60.5Z"/>
  </g>
</svg>