<?xml version="1.0" encoding="UTF-8"?>
<svg id="For_Sheets" xmlns="http://www.w3.org/2000/svg" version="1.1" viewBox="0 0 864 1296">
  <!-- Generator: Adobe Illustrator 29.1.0, SVG Export Plug-In . SVG Version: 2.1.0 Build 142)  -->
  <defs>
    <style>
      .st0 {
        fill: #231f20;
      }

      .st1 {
        fill: #fff;
      }

      .st2 {
        fill: #bf311a;
      }
    </style>
  </defs>
  <g>
    <rect class="st1" x="-.1" y="-.1" width="864.2" height="1296.2" rx="108.1" ry="108.1"/>
    <path class="st0" d="M756,0c59.4,0,108,48.6,108,108v1080c0,59.4-48.6,108-108,108H108c-59.4,0-108-48.6-108-108V108C0,48.6,48.6,0,108,0h648M756-.2H108C79.2-.2,52.1,11,31.5,31.5,11,52.1-.2,79.2-.2,108v1080c0,28.8,11.3,55.9,31.8,76.5,20.5,20.5,47.7,31.8,76.5,31.8h648c28.8,0,55.9-11.3,76.5-31.8,20.5-20.5,31.8-47.7,31.8-76.5V108c0-28.8-11.3-55.9-31.8-76.5C811.9,11,784.8-.2,756-.2h0Z"/>
  </g>
  <rect class="st2" x="-189" y="243" width="1242" height="810" rx="81" ry="81" transform="translate(1080 216) rotate(90)"/>
  <rect class="st1" x="-162" y="270" width="1188" height="756" rx="54" ry="54" transform="translate(1080 216) rotate(90)"/>
  <path class="st0" d="M551.4,435.2c-21.4,11.3-36.5,15.1-69.2,15.1h-96.7v134.7h-70.5V225h170.9c30.2,0,45.3,3.8,65.5,15.1,34,20.1,55.4,56.6,55.4,96.9s-21.4,79.3-55.4,98.2ZM491,296.7h-105.5v81.8h105.5c27.7,0,45.3-16.4,45.3-41.5s-18.9-40.3-45.3-40.3Z"/>
  <path class="st2" d="M432,108c-159.1,0-288,128.9-288,288s128.9,288,288,288,288-128.9,288-288S591.1,108,432,108ZM675,396c0,59-21,113.1-56,155.2L276.8,209c42.1-35,96.2-56,155.2-56,134.2,0,243,108.8,243,243ZM189,396c0-59,21-113.1,56-155.2l342.2,342.2c-42.1,35-96.2,56-155.2,56-134.2,0-243-108.8-243-243Z"/>
  <g>
    <path class="st2" d="M222.2,936v-180h56.7c23.9,0,41,18.9,41,46.7s-4.4,24-18.9,39.2c13.9,11.4,22,26.5,22,44.8,0,26.9-21.4,49.3-47.9,49.3h-52.9ZM248.1,781.3v48h27.1c12,0,19.6-10.1,19.6-26.5s-5.6-21.5-19.5-21.5h-27.1ZM248.1,910.7h25.8c14.5,0,24-10.1,24-25.9s-10.4-30.3-23.9-30.3h-25.9v56.2Z"/>
    <path class="st2" d="M353.7,756h25.2v180h-25.2v-180Z"/>
    <path class="st2" d="M460.7,848.2l-16.4,30.3v57.5h-25.8v-180h25.8v72l41-72h29.7l-37.2,63.2,41.6,116.8h-27.1l-31.5-87.8Z"/>
    <path class="st2" d="M549.9,756h84.9v25.3h-58.9v45.5h37.3v24.6h-37.3v59.4h65.9v25.2h-91.8v-180Z"/>
  </g>
  <g>
    <path class="st2" d="M194.3,1008h26v156h65.9v24h-91.8v-180Z"/>
    <path class="st2" d="M373.6,1138.7h-38.6l-12,49.3h-26l45-180h25.4l44.9,180h-26l-12.7-49.3ZM341.3,1113.5h26l-13.3-51.8-12.7,51.8Z"/>
    <path class="st2" d="M463.2,1067.4v120.6h-25.8v-180h25.8l49.2,108v-108h25.9v180h-19.5l-55.5-120.6Z"/>
    <path class="st2" d="M577.9,1008h84.9v25.3h-58.9v45.5h37.4v24.6h-37.4v59.4h65.9v25.2h-91.8v-180Z"/>
  </g>
</svg>