<?xml version="1.0" encoding="UTF-8"?>
<svg id="For_Sheets" xmlns="http://www.w3.org/2000/svg" version="1.1" viewBox="0 0 864 1296">
  <!-- Generator: Adobe Illustrator 29.1.0, SVG Export Plug-In . SVG Version: 2.1.0 Build 142)  -->
  <defs>
    <style>
      .st0 {
        fill: #231f20;
      }

      .st1 {
        fill: #fff;
      }

      .st2 {
        fill: #bf311a;
      }
    </style>
  </defs>
  <g>
    <rect class="st1" x="-.1" y="-.1" width="864.2" height="1296.2" rx="108.1" ry="108.1"/>
    <path class="st0" d="M756,0c59.4,0,108,48.6,108,108v1080c0,59.4-48.6,108-108,108H108c-59.4,0-108-48.6-108-108V108C0,48.6,48.6,0,108,0h648M756-.2H108C79.2-.2,52.1,11,31.5,31.5,11,52.1-.2,79.2-.2,108v1080c0,28.8,11.3,55.9,31.8,76.5,20.5,20.5,47.7,31.8,76.5,31.8h648c28.8,0,55.9-11.3,76.5-31.8,20.5-20.5,31.8-47.7,31.8-76.5V108c0-28.8-11.3-55.9-31.8-76.5C811.9,11,784.8-.2,756-.2h0Z"/>
  </g>
  <path class="st2" d="M756,27H108c-44.7,0-81,36.3-81,81v1080c0,44.7,36.3,81,81,81h648c44.7,0,81-36.3,81-81V108c0-44.7-36.3-81-81-81ZM810,108v270H270V54h486c29.8,0,54,24.2,54,54ZM756,1242H108c-29.8,0-54-24.2-54-54V405h756v783c0,29.8-24.2,54-54,54Z"/>
  <g>
    <path class="st2" d="M310.8,162.7v44h9.9c11.1,0,15.2-5.8,15.2-20.7s-5.1-23.2-15.2-23.2h-9.9ZM320.7,225.3h-9.9v62.7h-18.2v-144h29.2c30.7,0,32.8,34.2,32.8,41.9,0,23.7-13.7,39.4-33.9,39.4Z"/>
    <path class="st2" d="M391,230.9h15.7l-7.6-37.9-8.1,37.9ZM410.7,249.6h-23.7l-8.1,38.4h-18.7l29.3-144h18.7l29.8,144h-19.2l-8.1-38.4Z"/>
    <path class="st2" d="M494.3,183.9c0-16.3-3.6-21.2-16.2-21.2h-8.9v39.4h11.9c10.1,0,13.1-4.5,13.1-18.2ZM497.9,216.3l14.7,71.7h-19.7l-13.7-67.2h-9.8v67.2h-18.2v-144h28.1c22.3,0,33.9,13.6,33.9,40.4s-4.1,25.7-15.2,31.9Z"/>
    <polygon class="st2" points="552.5 219.8 546.2 233.9 546.2 288 528 288 528 144 546.2 144 546.2 190 568.2 144 589.4 144 565.7 193.5 591.4 288 571.7 288 552.5 219.8"/>
    <rect class="st2" x="606.4" y="144" width="18.7" height="144"/>
    <polygon class="st2" points="663.9 202.6 663.9 288 645.7 288 645.7 144 663.9 144 689.5 215.7 689.5 144 707.6 144 707.6 288 692 288 663.9 202.6"/>
    <path class="st2" d="M758.9,142c16.3,0,26.9,10.1,28.4,27.8h-18.8c-.5-6.1-4.1-9.1-9.1-9.1-9,0-15.2,7.7-15.2,55.5s6.2,55.6,15.2,55.6,9.6-8.9,9.6-17.7v-17.2h-8.6v-18.7h26.9v35.9c0,9.4,1.4,36.4-28.4,36.4s-33.6-19.9-33.6-74.3,13.8-74.2,33.5-74.2Z"/>
  </g>
  <g>
    <path class="st2" d="M213.8,711v-216h68.1c28.7,0,49.2,22.7,49.2,56.1s-5.3,28.8-22.7,47c16.6,13.6,26.5,31.8,26.5,53.8,0,32.3-25.7,59.1-57.5,59.1h-63.5ZM244.7,525.3v57.6h32.5c14.4,0,23.5-12.1,23.5-31.8s-6.7-25.8-23.4-25.8h-32.5ZM244.7,680.7h31c17.4,0,28.8-12.1,28.8-31.1s-12.5-36.4-28.7-36.4h-31v67.4Z"/>
    <path class="st2" d="M371.5,648.2v-153.2h31v155.4c0,20.3,11.9,34.1,30.2,34.1s28.8-13.6,28.8-34.1v-155.4h31v153.7c0,49.1-38,66.1-59.8,66.1s-61.2-13-61.2-66.6Z"/>
    <path class="st2" d="M591.2,573.7c23.6,14.8,59,35.6,59,78.2s-26.6,62.9-60.1,62.9-60.9-32.2-60.9-67.4h30.5c0,18.4,9.1,37.2,30.4,37.2s30.4-15.1,30.4-32.6c0-47-80.6-44.3-80.6-104.6s24.4-56.1,55.5-56.1,54,23.5,54.8,56.1h-29.7c-.8-15.1-11.4-25-25.1-25s-25.9,10.6-25.9,25,7.5,17.5,21.6,26.4Z"/>
  </g>
  <g>
    <path class="st2" d="M209.8,861.7c23.6,14.8,59,35.6,59,78.2s-26.6,62.9-60.1,62.9-60.9-32.2-60.9-67.4h30.5c0,18.4,9.1,37.2,30.4,37.2s30.4-15.1,30.4-32.6c0-47-80.6-44.3-80.6-104.6s24.4-56.1,55.5-56.1,54.1,23.5,54.8,56.1h-29.7c-.8-15.1-11.4-25-25.1-25s-25.9,10.6-25.9,25,7.5,17.5,21.6,26.4Z"/>
    <path class="st2" d="M359,999h-31.2v-187.2h-39.5v-28.8h110.2v28.8h-39.5v187.2Z"/>
    <path class="st2" d="M424.4,890.5c0-113.1,52.5-111.3,64.1-111.3s63.4-1.7,63.4,111.4-51.8,112.1-63.4,112.1-64.1,1.8-64.1-112.2ZM488.2,809.5c-6.2,0-34-1.3-34,81.2s27.8,81.8,34,81.8,34,1.3,34-81.8-27.8-81.2-34-81.2Z"/>
    <path class="st2" d="M626.1,904.3v94.7h-31v-216h64.3c34,0,56.7,24.4,56.7,60.6s-20.4,60.6-56.7,60.6h-33.3ZM626.1,874.7h31.8c18.1,0,28-11.3,28-31s-11.4-30.3-28-30.3h-31.8v61.4Z"/>
  </g>
  <g>
    <path class="st1" d="M79,188.6v117.4h-25V108h25l35.3,98.7v-98.7h24.9v198h-21.5l-38.7-117.4Z"/>
    <path class="st1" d="M203.6,309.5c-44.5,0-45.6-55.9-45.6-102.1s1.1-102.1,45.6-102.1,45.6,55.9,45.6,102.1-1.1,102.1-45.6,102.1ZM184.1,207.3c0,34.6.5,76.4,19.5,76.4s19.5-41.8,19.5-76.4-.5-76.4-19.5-76.4-19.5,41.8-19.5,76.4Z"/>
  </g>
  <g>
    <rect class="st2" x="153" y="1089" width="462.4" height="54"/>
    <path class="st2" d="M594.4,1055.5c-.2-.8-.4-1.7-.4-2.5,0-5,4-9,9-9,1.8,0,3.5.5,5.1,1.6l102.9,70.4-102.9,70.4c-1.6,1.1-3.3,1.6-5.1,1.6-5,0-9-4-9-9,0-.8.1-1.7.4-2.5l17.6-60.5-17.6-60.5Z"/>
  </g>
</svg>