<?xml version="1.0" encoding="UTF-8"?>
<svg id="For_Sheets" xmlns="http://www.w3.org/2000/svg" version="1.1" viewBox="0 0 1728 1296">
  <!-- Generator: Adobe Illustrator 29.1.0, SVG Export Plug-In . SVG Version: 2.1.0 Build 142)  -->
  <defs>
    <style>
      .st0 {
        fill: #231f20;
      }

      .st1 {
        fill: #006f53;
      }

      .st2 {
        fill: #fff;
      }
    </style>
  </defs>
  <g>
    <rect class="st2" x="-.1" y="-.1" width="1728.2" height="1296.2" rx="108.1" ry="108.1"/>
    <path class="st0" d="M1620,0c59.6,0,108,48.4,108,108v1080c0,59.6-48.4,108-108,108H108c-59.6,0-108-48.4-108-108V108C0,48.4,48.4,0,108,0h1512M1620-.2H108C79.1-.2,51.9,11,31.5,31.5,11,51.9-.2,79.1-.2,108v1080c0,28.9,11.3,56.1,31.7,76.5,20.4,20.4,47.6,31.7,76.5,31.7h1512c28.9,0,56.1-11.3,76.5-31.7,20.4-20.4,31.7-47.6,31.7-76.5V108c0-28.9-11.3-56.1-31.7-76.5-20.4-20.4-47.6-31.7-76.5-31.7h0Z"/>
  </g>
  <path class="st1" d="M108,1269c-44.7,0-81-36.3-81-81V108c0-44.7,36.3-81,81-81h1512c44.7,0,81,36.3,81,81v1080c0,44.7-36.3,81-81,81H108ZM1188,1224c19.9,0,36-16.1,36-36V108c0-19.9-16.1-36-36-36H108c-19.9,0-36,16.1-36,36v1080c0,19.9,16.1,36,36,36h1080ZM1305,1224h315c19.9,0,36-16.1,36-36v-486c0-19.9-16.1-36-36-36h-315c-19.9,0-36,16.1-36,36v486c0,19.9,16.2,36,36,36Z"/>
  <g>
    <g>
      <path class="st1" d="M808.4,626.5c-31,31-62.6,62.6-92.7,92.7l91.2,91.2c25.6,25.6,67.1,25.6,92.7,0,25.6-25.6,25.6-67.1,0-92.7l-91.2-91.2Z"/>
      <path class="st1" d="M826.4,615.2l60.8,60.8c25.6,25.6,67.1,25.6,92.7,0,16.5-16.5,22.3-39.6,17.6-60.8h-171.1Z"/>
    </g>
    <g>
      <path class="st1" d="M630.5,117c-26,0-52,9.9-71.8,29.8l-294.3,294.3c-19.8,19.8-29.8,45.8-29.8,71.8v105.8c43.8-29.7,95.3-45.6,149.4-45.6s36.3,1.8,53.9,5.4v-23.5l146.4-146.4h129.2l-198.6,198.6-13.4,13.4-112.5,112.5c-34.1,34.1-38.9,86.4-14.4,125.6,3.2,5.2,7,10.2,11.3,14.8,1,1.1,2,2.2,3.1,3.3,39.7,39.7,104,39.7,143.7,0l93.8-93.8,14.9-14.9,171-171h225.2c28.1,0,53.5-11.4,71.8-29.8l69.8-69.8V117h-548.5Z"/>
      <path class="st1" d="M545.3,889.5c-46.7,46.6-122.6,46.6-169.2,0,0,0-3.7-3.8-3.6-3.8-4.9-5.4-9.4-11.2-13.3-17.4-11.9-19-18.1-41.1-18.1-63.5s.2-8.5.7-12.7c2.9-27,15.1-52.5,34.3-71.7,0,0,49.3-49.3,108.1-108.1-30.7-13.5-64.6-21-100.3-21-137.5,0-249,111.5-249,249s111.5,249,249,249,249-111.5,249-249-.9-23.9-2.5-35.6c-47.5,47.5-85,85-85,85Z"/>
    </g>
    <path class="st1" d="M651,840c0,9.3-.5,18.6-1.4,27.7l19.6,19.6c25.6,25.6,67.1,25.6,92.7,0,25.6-25.6,25.6-67.1,0-92.7l-60.8-60.8c-19.3,19.3-37.7,37.7-54.7,54.7l1.9,13.4c1.8,12.6,2.7,25.4,2.7,38.1Z"/>
  </g>
  <path class="st2" d="M1422.4,522V229h-42.2v-87.6c31.6-15.1,34.7-24.2,48.2-51.4h81.4v432h-87.4Z"/>
  <g>
    <path class="st2" d="M1364.2,598.7h-32.5v31.3h-12.9v-72h12.9v27.8h32.5v-27.8h12.9v72h-12.9v-31.3Z"/>
    <path class="st2" d="M1393.7,593.9c0-23,11.6-37.1,30.6-37.1s29.9,14.8,29.9,36.9-11.6,37.6-29.9,37.6-30.6-19.3-30.6-37.4ZM1406.9,593.9c0,15.4,6.6,24.5,17.5,24.5s17-13.4,17-24.5-6.3-24.3-17-24.3-17.5,9.1-17.5,24.3Z"/>
    <path class="st2" d="M1500,618.1c7.6,0,16.3-5.3,16.3-16.6v-43.5h12.9v42.9c0,17.7-12.2,30.3-29.2,30.3s-29.2-12.6-29.2-30.3v-42.9h12.9v43.5c0,10.8,8.1,16.6,16.2,16.6Z"/>
    <path class="st2" d="M1593.1,599.2l13.1,30.8h-14.4l-11.6-28.3h-19.5v28.3h-12.9v-72h34c14.9,0,22.8,11.8,22.8,22s-4.3,15.2-11.6,19.2ZM1560.8,570.9v17.9h20.7c6.3,0,10.3-3.6,10.3-8.8s-4-9.1-10.4-9.1h-20.7Z"/>
  </g>
  <g>
    <rect class="st1" x="1415.2" y="738" width="94.5" height="246.7"/>
    <path class="st1" d="M1356.7,947.9c-1.5-.4-3-.6-4.4-.6-8.7,0-15.8,7.1-15.8,15.8,0,3.1.9,6.2,2.8,8.9l123.2,180.1,123.2-180.1c1.9-2.7,2.8-5.8,2.8-8.9,0-8.7-7.1-15.8-15.8-15.8-1.5,0-2.9.2-4.4.6l-105.8,30.9-105.8-30.9Z"/>
  </g>
</svg>