<?xml version="1.0" encoding="UTF-8"?>
<svg id="For_Sheets" xmlns="http://www.w3.org/2000/svg" version="1.1" viewBox="0 0 864 432">
  <!-- Generator: Adobe Illustrator 29.1.0, SVG Export Plug-In . SVG Version: 2.1.0 Build 142)  -->
  <defs>
    <style>
      .st0 {
        fill: #231f20;
      }

      .st1 {
        fill: #006f53;
      }

      .st2 {
        fill: #fff;
      }
    </style>
  </defs>
  <g>
    <rect class="st2" x="-.1" y="-.1" width="864.2" height="432.2" rx="108.1" ry="108.1"/>
    <path class="st0" d="M756,0c59.6,0,108,48.4,108,108v216c0,59.6-48.4,108-108,108H108c-59.6,0-108-48.4-108-108V108C0,48.4,48.4,0,108,0h648M756-.2H108C79.1-.2,51.9,11,31.5,31.5,11,51.9-.2,79.1-.2,108v216c0,28.9,11.3,56.1,31.7,76.5,20.4,20.4,47.6,31.7,76.5,31.7h648c28.9,0,56.1-11.3,76.5-31.7,20.4-20.4,31.7-47.6,31.7-76.5V108c0-28.9-11.3-56.1-31.7-76.5C812.1,11,784.9-.2,756-.2h0Z"/>
  </g>
  <rect class="st1" x="27" y="27" width="810" height="378" rx="81" ry="81"/>
  <rect class="st2" x="54" y="54" width="756" height="324" rx="54" ry="54"/>
  <g>
    <path class="st1" d="M297.5,220.5l-45.6-144h23.8l30.9,96,30.4-96h24.3l-46.1,144h-17.7Z"/>
    <path class="st1" d="M453.9,180.1h-45.2l-14.2,40.4h-24.4l49.8-144h22.9l49.8,144h-24.4l-14.2-40.4ZM416.8,156.8h29l-14.2-40.4-14.7,40.4Z"/>
    <path class="st1" d="M536.8,123v97.5h-22.7V76.5h22.7l52.6,92v-92h22.8v144h-20.2l-55.1-97.5Z"/>
  </g>
  <g>
    <path class="st1" d="M135.4,330.2h-28.3l-8.9,25.3h-15.2l31.1-90h14.3l31.1,90h-15.2l-8.9-25.3ZM112.2,315.7h18.1l-8.9-25.3-9.2,25.3Z"/>
    <path class="st1" d="M171.3,310.3c0-12.7,2.5-46.4,33.2-46.4s21.9,5.3,28.1,18.3l-13.3,5.7c-4.6-6.6-6.9-9.5-14.8-9.5-18.8,0-18.6,26.2-18.6,31.9s-.3,32.2,19.3,32.2,10.8-4.2,13.9-10.4l13.6,5.1c-5.1,12.5-13.6,19.9-27.2,19.9-32.4,0-34.1-35.8-34.1-46.7Z"/>
    <path class="st1" d="M250.5,310.3c0-12.7,2.5-46.4,33.2-46.4s21.9,5.3,28.1,18.3l-13.3,5.7c-4.6-6.6-6.9-9.5-14.8-9.5-18.8,0-18.6,26.2-18.6,31.9s-.3,32.2,19.3,32.2,10.8-4.2,13.9-10.4l13.6,5.1c-5.1,12.5-13.6,19.9-27.2,19.9-32.4,0-34.1-35.8-34.1-46.7Z"/>
    <path class="st1" d="M331.6,265.5h53v14.2h-38.8v22.1h26.2v14.5h-26.2v24.6h41.6v14.5h-55.8v-90Z"/>
    <path class="st1" d="M396.4,334.3l13.6-5.1c3.8,8.5,10.7,13.3,19.3,13.3s13.9-5.7,13.9-13.3c0-12-13.9-13.9-25.6-18.6-5.4-2.2-17.4-7.6-17.4-22.4s12-24.3,28.1-24.3,21.2,7.3,25.6,18.3l-12.6,3.8c-1.4-3.6-6.6-7.9-13.3-7.9-12.8,0-13.9,6.9-13.9,9.1,0,8.4,7.3,10.1,19.1,13.8,12,3.8,24.6,9.3,24.6,28.6s-15.7,27.5-28.4,27.5-26.8-9.2-32.8-22.7Z"/>
    <path class="st1" d="M466.7,334.3l13.6-5.1c3.8,8.5,10.7,13.3,19.3,13.3s13.9-5.7,13.9-13.3c0-12-13.9-13.9-25.6-18.6-5.4-2.2-17.4-7.6-17.4-22.4s12-24.3,28.1-24.3,21.2,7.3,25.6,18.3l-12.6,3.8c-1.4-3.6-6.6-7.9-13.3-7.9-12.8,0-13.9,6.9-13.9,9.1,0,8.4,7.3,10.1,19.1,13.8,12,3.8,24.6,9.3,24.6,28.6s-15.7,27.5-28.4,27.5-26.8-9.2-32.8-22.7Z"/>
    <path class="st1" d="M543.3,265.5h14.4v90h-14.4v-90Z"/>
    <path class="st1" d="M579.3,355.5v-90h34.1c14.2,0,24.9,9.8,24.9,22.7s-4.1,15.5-12.6,20.2c9.5,4.4,14.8,12.1,14.8,21.8s-3.6,25.3-27.2,25.3h-34.1ZM614.3,279.7h-20.9v22.1h18.1c8.1,0,12.6-7,12.6-12.9s-3.3-9.2-9.8-9.2ZM593.5,316.3v24.6h21.5c7.3,0,11.1-3.5,11.1-10.4s-4.8-14.2-12.2-14.2h-20.4Z"/>
    <path class="st1" d="M655.8,265.5h14.2v76.7h41.6v13.3h-55.8v-90Z"/>
    <path class="st1" d="M725.2,265.5h53v14.2h-38.8v22.1h26.2v14.5h-26.2v24.6h41.6v14.5h-55.8v-90Z"/>
  </g>
</svg>