<?xml version="1.0" encoding="UTF-8"?>
<svg id="For_Sheets" xmlns="http://www.w3.org/2000/svg" version="1.1" viewBox="0 0 1728 2160">
  <!-- Generator: Adobe Illustrator 29.1.0, SVG Export Plug-In . SVG Version: 2.1.0 Build 142)  -->
  <defs>
    <style>
      .st0 {
        fill: #231f20;
      }

      .st1 {
        fill: #fff;
      }

      .st2 {
        fill: #bf311a;
      }
    </style>
  </defs>
  <g>
    <rect class="st1" x="-.1" y="-.1" width="1728.2" height="2160.2" rx="108.1" ry="108.1"/>
    <path class="st0" d="M1620,0c59.4,0,108,48.6,108,108v1944c0,59.4-48.6,108-108,108H108c-59.4,0-108-48.6-108-108V108C0,48.6,48.6,0,108,0h1512M1620-.2H108C79.2-.2,52.1,11,31.5,31.5,11,52.1-.2,79.2-.2,108v1944c0,28.8,11.3,55.9,31.8,76.5,20.5,20.5,47.7,31.8,76.5,31.8h1512c28.8,0,55.9-11.3,76.5-31.8,20.5-20.5,31.8-47.7,31.8-76.5V108c0-28.8-11.3-55.9-31.8-76.5-20.5-20.5-47.7-31.8-76.5-31.8h0Z"/>
  </g>
  <path class="st2" d="M108,2133c-44.7,0-81-36.3-81-81V108c0-44.7,36.3-81,81-81h1512c44.7,0,81,36.3,81,81v1944c0,44.7-36.3,81-81,81H108ZM72,990v1062c0,19.9,16.1,36,36,36h1512c19.9,0,36-16.1,36-36V990H72Z"/>
  <g>
    <path class="st1" d="M550.6,272.7l27.2-10.1c7.6,17.1,21.5,26.5,38.5,26.5s27.8-11.4,27.8-26.5c0-24.1-27.8-27.8-51.2-37.3-10.7-4.4-34.7-15.2-34.7-44.8s24-48.6,56.2-48.6,42.3,14.5,51.2,36.6l-25.3,7.6c-2.8-7.1-13.1-15.8-26.5-15.8-25.7,0-27.9,13.7-27.9,18.2,0,16.8,14.5,20.2,38.1,27.6,24,7.6,49.1,18.6,49.1,57.2s-31.5,54.9-56.9,54.9-53.7-18.3-65.7-45.5Z"/>
    <path class="st1" d="M732.1,193.1v121.9h-28.4v-180h28.4l65.7,115v-115h28.4v180h-25.3l-68.9-121.9Z"/>
    <path class="st1" d="M993.7,225c0,6.5,1.4,93.1-63.9,93.1s-63.9-86.7-63.9-93.1-1.4-93.1,63.9-93.1,63.9,86.7,63.9,93.1ZM930.1,289.1c19.4,0,35.1-18.4,35.1-64.1s-15.7-64.1-35.1-64.1-35.1,18.4-35.1,64.1,15.7,64.1,35.1,64.1Z"/>
    <path class="st1" d="M1125.5,315l-28.5-115.6-27.9,115.6h-25.4l-26.6-180h29.1l13.9,94.7,22.8-94.7h27.9l23.4,94.7,13.9-94.7h29.1l-26.6,180h-25.3Z"/>
  </g>
  <g>
    <path class="st1" d="M171.5,423h106v28.4h-77.6v44.2h52.4v29h-52.4v49.3h83.2v29h-111.6v-180Z"/>
    <path class="st1" d="M425.7,498.8l-41.7,104.2-41.8-104.2v104.2h-28.5v-180h28.5l41.8,101,41.7-101h28.5v180h-28.5v-104.2Z"/>
    <path class="st1" d="M497.4,423h106v28.4h-77.6v44.2h52.4v29h-52.4v49.3h83.2v29h-111.6v-180Z"/>
    <path class="st1" d="M668,524.7v78.3h-28.4v-180h65.1c41.3,0,53.6,33,53.6,50.6s-2.5,33-27.9,45.1l31.7,84.4h-31l-29-78.3h-34.1ZM703.8,495.6c22.6,0,26.1-16.3,26.1-22.1s-5.9-22.1-24.8-22.1h-37.1v44.2h35.8Z"/>
    <path class="st1" d="M854.4,419.9c28.8,0,45.1,10.9,57.3,39.8l-27.2,10.7c-7.6-15.8-15.1-21.5-29-21.5-39.6,0-37.3,60.2-37.3,64.4,0,6.8-1.5,63.8,33.5,63.8s31.6-11.4,31.6-27.8v-7.6h-32.8v-28.4h61.2v36c0,32.8-24,56.8-56.9,56.8s-65.7,5.4-65.7-93.1.8-93.1,65.2-93.1Z"/>
    <path class="st1" d="M951.3,423h106v28.4h-77.6v44.2h52.4v29h-52.4v49.3h83.2v29h-111.6v-180Z"/>
    <path class="st1" d="M1122,481.1v121.9h-28.4v-180h28.4l65.7,115v-115h28.4v180h-25.3l-68.9-121.9Z"/>
    <path class="st1" d="M1255.7,512.7c0-25.3,5.1-92.8,66.3-92.8s43.9,10.6,56.2,36.6l-26.5,11.4c-9.2-13.2-13.8-18.9-29.7-18.9-37.7,0-37.3,52.5-37.3,63.8s-.7,64.4,38.5,64.4,21.6-8.3,27.8-20.9l27.2,10.1c-10.1,25-27.1,39.8-54.3,39.8-64.8,0-68.2-71.5-68.2-93.5Z"/>
    <path class="st1" d="M1493.7,603h-28.6v-78.3l-63.5-101.7h34.3l43.2,69.5,43.8-69.5h33.6l-62.8,101.7v78.3Z"/>
  </g>
  <g>
    <path class="st1" d="M534,812.7v78.3h-28.4v-180h65.1c41.3,0,53.6,33,53.6,50.6s-2.5,33-27.9,45.1l31.7,84.4h-31l-29-78.3h-34.1ZM569.7,783.6c22.6,0,26.1-16.3,26.1-22.1s-5.9-22.1-24.8-22.1h-37.1v44.2h35.7Z"/>
    <path class="st1" d="M783,801c0,6.5,1.4,93.1-63.9,93.1s-63.9-86.7-63.9-93.1-1.4-93.1,63.9-93.1,63.9,86.7,63.9,93.1ZM719.4,865.1c19.4,0,35.1-18.4,35.1-64.1s-15.7-64.1-35.1-64.1-35.1,18.4-35.1,64.1,15.7,64.1,35.1,64.1Z"/>
    <path class="st1" d="M822.6,826.6v-115.6h28.4v115.6c0,23.4,13.3,38.5,32.8,38.5s32.8-15.1,32.8-38.5v-115.6h28.4v115.6c0,56.9-43.7,67.6-61.3,67.6s-61.3-9.4-61.3-67.6Z"/>
    <path class="st1" d="M1041.9,891h-28.6v-154.7h-41.2v-25.3h111.6v25.3h-41.9v154.7Z"/>
    <path class="st1" d="M1110.8,711h106v28.4h-77.6v44.2h52.4v29h-52.4v49.3h83.2v29h-111.6v-180Z"/>
  </g>
  <g>
    <path class="st2" d="M308.5,1148.4v120.6h-25.8v-180h25.8l49.2,108v-108h25.9v180h-19.5l-55.5-120.6Z"/>
    <path class="st2" d="M412.4,1178.6c0-94.3,43.7-92.7,53.4-92.7s52.8-1.4,52.8,92.8-43.1,93.4-52.8,93.4-53.4,1.5-53.4-93.5ZM465.5,1111.1c-5.1,0-28.3-1.1-28.3,67.6s23.2,68.1,28.3,68.1,28.3,1.1,28.3-68.1-23.2-67.6-28.3-67.6Z"/>
  </g>
  <g>
    <path class="st2" d="M679.5,1190v79h-25.8v-180h53.6c28.4,0,47.3,20.3,47.3,50.5s-17,50.5-47.3,50.5h-27.7ZM679.5,1165.4h26.5c15.1,0,23.3-9.4,23.3-25.9s-9.5-25.3-23.3-25.3h-26.5v51.1Z"/>
    <path class="st2" d="M848.4,1219.7h-38.6l-12,49.3h-26l45-180h25.4l44.9,180h-26l-12.7-49.3ZM816.1,1194.5h26l-13.3-51.8-12.7,51.8Z"/>
    <path class="st2" d="M957.6,1184.4h-24.6v84.6h-25.8v-180h53.6c28.2,0,47.3,18.9,47.3,48s-8.8,37.3-25.9,43.6l25.8,88.4h-26.4l-24-84.6ZM933,1114.3v45.5h26.5c15.2,0,23.3-8.2,23.3-22.7s-9.5-22.7-23.3-22.7h-26.5Z"/>
    <path class="st2" d="M1074.8,1181.2l-16.4,30.3v57.5h-25.8v-180h25.8v72l41-72h29.7l-37.2,63.2,41.6,116.8h-27.1l-31.5-87.8Z"/>
    <path class="st2" d="M1157.9,1089h25.2v180h-25.2v-180Z"/>
    <path class="st2" d="M1240.6,1148.4v120.6h-25.8v-180h25.8l49.2,108v-108h25.9v180h-19.5l-55.5-120.6Z"/>
    <path class="st2" d="M1400.3,1272.2c-16.4,0-55.8-3-55.8-92.8s37.5-93.4,53.9-93.4c26,0,45.7,18.9,46.9,45.4h-26c-.6-12-8.9-20.2-21.6-20.2s-28.5,2.7-28.5,68.2,21.7,67.6,30.4,67.6c13.3,0,19.7-8.8,19.7-27.8v-12h-20.3v-25.3h46.3v37.3c0,45-29.7,53.1-45,53.1Z"/>
  </g>
  <g>
    <path class="st2" d="M187.9,1548v-180h51.4c11,0,49.5.5,49.5,89.7s-35.5,90.3-47.3,90.3h-53.5ZM233.9,1393.3h-20.2v129.5h18c21.1,0,31.8-9.2,31.8-63.8s-15.8-65.7-29.6-65.7Z"/>
    <path class="st2" d="M324.7,1495.7v-127.7h25.8v129.5c0,16.9,9.9,28.4,25.2,28.4s24-11.4,24-28.4v-129.5h25.9v128.1c0,40.9-31.6,55.1-49.8,55.1s-51-10.8-51-55.5Z"/>
    <path class="st2" d="M515.6,1463.4h-24.6v84.6h-25.8v-180h53.6c28.2,0,47.3,18.9,47.3,48s-8.8,37.3-25.9,43.6l25.8,88.4h-26.4l-24-84.6ZM491,1393.3v45.5h26.5c15.2,0,23.3-8.2,23.3-22.7s-9.4-22.7-23.3-22.7h-26.5Z"/>
    <path class="st2" d="M596.6,1368h25.2v180h-25.2v-180Z"/>
    <path class="st2" d="M687.2,1427.4v120.6h-25.8v-180h25.8l49.2,108v-108h25.9v180h-19.5l-55.5-120.6Z"/>
    <path class="st2" d="M854.1,1551.2c-16.4,0-55.8-3-55.8-92.8s37.5-93.4,53.9-93.4c26,0,45.7,18.9,46.9,45.4h-26c-.6-12-8.9-20.2-21.6-20.2s-28.5,2.7-28.5,68.2,21.7,67.6,30.4,67.6c13.3,0,19.7-8.8,19.7-27.8v-12h-20.3v-25.3h46.3v37.3c0,45-29.7,53.1-45,53.1Z"/>
  </g>
  <g>
    <path class="st2" d="M1083.2,1498.7c0-38.3-67.2-38.1-67.2-86.9s20.3-47,46.3-47,45,19.6,45.7,46.7h-24.8c-.6-12.6-9.5-20.8-20.9-20.8s-21.6,8.8-21.6,20.8,4.9,13.9,15.8,20.7c24.8,14.5,51.4,33.2,51.4,66.5s-22.2,52.4-50.1,52.4-50.7-26.8-50.7-56.2h25.4c0,15.3,7.6,31,25.3,31h0c13.9,0,25.4-12.7,25.4-27.2Z"/>
    <path class="st2" d="M1164.4,1427.4v120.6h-25.8v-180h25.8l49.2,108v-108h25.9v180h-19.5l-55.5-120.6Z"/>
    <path class="st2" d="M1275.4,1457.6c0-94.3,43.7-92.7,53.4-92.7s52.8-1.4,52.8,92.8-43.1,93.4-52.8,93.4-53.4,1.5-53.4-93.5ZM1328.5,1390.1c-5.1,0-28.3-1.1-28.3,67.6s23.2,68.1,28.3,68.1,28.3,1.1,28.3-68.1-23.2-67.6-28.3-67.6Z"/>
    <path class="st2" d="M1488.8,1548l-17.1-94.1-17.1,94.1h-22.8l-28.5-180h25.4l15.2,96,17.7-96h20.3l17.1,96,15.8-96h25.4l-29.2,180h-22.2Z"/>
  </g>
  <g>
    <path class="st2" d="M281.5,1647h84.9v25.3h-58.9v45.5h37.3v24.6h-37.3v59.4h65.9v25.2h-91.8v-180Z"/>
    <path class="st2" d="M496.9,1726l-33.5,101-33.5-101v101h-25.9v-180h25.9l33.5,101,33.5-101h25.9v180h-25.9v-101Z"/>
    <path class="st2" d="M562.4,1647h84.9v25.3h-58.9v45.5h37.3v24.6h-37.3v59.4h65.9v25.2h-91.8v-180Z"/>
    <path class="st2" d="M735.3,1742.4h-24.6v84.6h-25.8v-180h53.6c28.2,0,47.3,18.9,47.3,48s-8.8,37.3-25.9,43.6l25.8,88.4h-26.4l-24-84.6ZM710.7,1672.3v45.5h26.5c15.2,0,23.3-8.2,23.3-22.7s-9.4-22.7-23.3-22.7h-26.5Z"/>
    <path class="st2" d="M868.5,1830.2c-16.4,0-55.8-3-55.8-92.8s37.5-93.4,53.9-93.4c26,0,45.7,18.9,46.9,45.4h-26c-.6-12-8.9-20.2-21.6-20.2s-28.5,2.7-28.5,68.2,21.7,67.6,30.4,67.6c13.3,0,19.7-8.8,19.7-27.8v-12h-20.3v-25.3h46.3v37.3c0,45-29.7,53.1-45,53.1Z"/>
    <path class="st2" d="M949.5,1647h84.9v25.3h-58.9v45.5h37.3v24.6h-37.3v59.4h65.9v25.2h-91.8v-180Z"/>
    <path class="st2" d="M1097.8,1706.4v120.6h-25.8v-180h25.8l49.2,108v-108h25.9v180h-19.5l-55.5-120.6Z"/>
    <path class="st2" d="M1283.7,1695c-2.5-17.7-9.5-25.9-21.6-25.9-20.9,0-28.6,16.4-28.6,63.1s8.9,72.6,31.1,72.6,19-12.6,19-25.9h26c-.6,29.7-19.6,51.2-45,51.2-38.7,0-55.8-30.9-55.8-97.3s18.4-89,53.9-89,46.1,30.1,46.9,51.1h-26Z"/>
    <path class="st2" d="M1401.6,1827h-26v-81.5l-44.3-98.5h27.2l30.4,65,29.8-65h27.9l-45,98.5v81.5Z"/>
  </g>
  <g>
    <path class="st2" d="M262.4,2025h-17.1v-92.8h-24.7v-15.2h67v15.2h-25.1v92.8Z"/>
    <path class="st2" d="M378.3,1971c0,3.9.8,55.9-38.4,55.9s-38.4-52-38.4-55.9-.8-55.9,38.4-55.9,38.4,52,38.4,55.9ZM340.2,2009.5c11.6,0,21.1-11,21.1-38.5s-9.4-38.5-21.1-38.5-21.1,11-21.1,38.5,9.4,38.5,21.1,38.5Z"/>
    <path class="st2" d="M457.4,2025l-17.1-69.3-16.7,69.3h-15.2l-16-108h17.5l8.4,56.8,13.7-56.8h16.7l14.1,56.8,8.4-56.8h17.5l-16,108h-15.2Z"/>
  </g>
  <path class="st2" d="M542.6,1962.6h54v16.9h-54v-16.9Z"/>
  <g>
    <path class="st2" d="M713.4,1994.7h-33.9l-10.7,30.3h-18.3l37.4-108h17.2l37.3,108h-18.3l-10.7-30.3ZM685.6,1977.3h21.7l-10.7-30.3-11,30.3Z"/>
    <path class="st2" d="M813.9,2025l-17.1-69.3-16.7,69.3h-15.2l-16-108h17.5l8.4,56.8,13.7-56.8h16.7l14.1,56.8,8.4-56.8h17.5l-16,108h-15.2Z"/>
    <path class="st2" d="M914.4,1994.7h-33.9l-10.7,30.3h-18.3l37.4-108h17.2l37.3,108h-18.3l-10.7-30.3ZM886.6,1977.3h21.7l-10.7-30.3-11,30.3Z"/>
    <path class="st2" d="M1005.1,2025h-17.1v-47l-38.1-61h20.6l25.9,41.7,26.3-41.7h20.2l-37.7,61v47Z"/>
  </g>
  <g>
    <path class="st2" d="M1150.8,2010.6l49.3-76.5h-45.1v-17.1h69.3v10.2l-50,80.3h50v17.4h-73.5v-14.4Z"/>
    <path class="st2" d="M1317.3,1971c0,3.9.8,55.9-38.4,55.9s-38.4-52-38.4-55.9-.8-55.9,38.4-55.9,38.4,52,38.4,55.9ZM1279.1,2009.5c11.6,0,21.1-11,21.1-38.5s-9.4-38.5-21.1-38.5-21.1,11-21.1,38.5,9.4,38.5,21.1,38.5Z"/>
    <path class="st2" d="M1358,1951.9v73.1h-17v-108h17l39.4,69v-69h17.1v108h-15.2l-41.3-73.1Z"/>
    <path class="st2" d="M1440.4,1917h63.6v17.1h-46.5v26.5h31.4v17.4h-31.4v29.6h49.9v17.4h-67v-108Z"/>
  </g>
</svg>