<?xml version="1.0" encoding="UTF-8"?>
<svg id="For_Sheets" xmlns="http://www.w3.org/2000/svg" version="1.1" viewBox="0 0 2592 3456">
  <!-- Generator: Adobe Illustrator 29.1.0, SVG Export Plug-In . SVG Version: 2.1.0 Build 142)  -->
  <defs>
    <style>
      .st0 {
        fill: #231f20;
      }

      .st1 {
        fill: #fff;
      }

      .st2 {
        fill: #bf311a;
      }
    </style>
  </defs>
  <g>
    <path class="st1" d="M162,3456.1c-43.1,0-83.8-16.9-114.5-47.6-30.7-30.7-47.6-71.4-47.6-114.5V162C-.1,118.9,16.8,78.2,47.5,47.5,78.2,16.8,118.9-.1,162-.1h2268c43.1,0,83.8,16.9,114.5,47.6,30.7,30.7,47.6,71.4,47.6,114.5v3132c0,43.1-16.9,83.8-47.6,114.5s-71.4,47.6-114.5,47.6H162Z"/>
    <path class="st0" d="M2430,0c89.1,0,162,72.9,162,162v3132c0,89.1-72.9,162-162,162H162c-89.1,0-162-72.9-162-162V162C0,72.9,72.9,0,162,0h2268M2430-.2H162c-21.8,0-43,4.3-63,12.8-19.3,8.2-36.7,19.9-51.6,34.9-14.9,14.9-26.7,32.3-34.9,51.6C4.1,119-.2,140.2-.2,162v3132c0,21.8,4.3,43,12.8,63,8.2,19.3,19.9,36.7,34.9,51.6,14.9,14.9,32.3,26.7,51.6,34.9,20,8.5,41.2,12.8,63,12.8h2268c21.8,0,43-4.3,63-12.8,19.3-8.2,36.7-19.9,51.6-34.9,14.9-14.9,26.7-32.3,34.9-51.6,8.5-20,12.8-41.2,12.8-63V162c0-21.8-4.3-43-12.8-63-8.2-19.3-19.9-36.7-34.9-51.6-14.9-14.9-32.3-26.7-51.6-34.9-20-8.5-41.2-12.8-63-12.8h0Z"/>
  </g>
  <path class="st2" d="M162,3411c-31.1,0-60.4-12.2-82.6-34.4-22.2-22.2-34.4-51.5-34.4-82.6V162c0-31.1,12.2-60.4,34.4-82.6,22.2-22.2,51.5-34.4,82.6-34.4h2268c31.1,0,60.4,12.2,82.6,34.4,22.2,22.2,34.4,51.5,34.4,82.6v3132c0,31.1-12.2,60.4-34.4,82.6-22.2,22.2-51.5,34.4-82.6,34.4H162Z"/>
  <path class="st1" d="M162,3348c-14.5,0-27.6-5.5-38-16-10.4-10.4-16-23.6-16-38V162c0-14.5,5.5-27.6,16-38s23.6-16,38-16h2268c14.5,0,27.6,5.5,38,16,10.4,10.4,16,23.6,16,38v3132c0,14.5-5.5,27.6-16,38-10.4,10.4-23.6,16-38,16H162Z"/>
  <g>
    <path class="st2" d="M969.5,594.7v341.3h-79.5v-504h79.5l184,321.9v-321.9h79.6v504h-70.7l-192.8-341.3Z"/>
    <path class="st2" d="M1702.1,684c0,18.1,3.8,260.8-179,260.8s-179-242.7-179-260.8-3.8-260.8,179-260.8,179,242.7,179,260.8ZM1523.9,863.5c54.3,0,98.4-51.5,98.4-179.5s-44.1-179.5-98.4-179.5-98.4,51.4-98.4,179.5,44.1,179.5,98.4,179.5Z"/>
  </g>
  <g>
    <path class="st2" d="M362.9,1509.9h74.1c42.3,0,65.3-26.5,65.3-72.4s-26.7-70.7-65.3-70.7h-74.1v143.2ZM362.9,1578.9v221.1h-72.3v-504h150c79.4,0,132.4,56.8,132.4,141.5s-47.7,141.4-132.4,141.4h-77.7Z"/>
    <path class="st2" d="M721.3,1591.3h72.7l-37.2-145-35.5,145ZM811.7,1662.1h-108.1l-33.7,137.9h-72.7l125.9-504h71l125.8,504h-72.7l-35.5-137.9Z"/>
    <path class="st2" d="M1020.4,1366.8v127.3h74.1c42.5,0,65.3-23,65.3-63.7s-26.5-63.6-65.3-63.6h-74.1ZM1089.3,1563.1h-68.9v236.9h-72.3v-504h150c79.1,0,132.4,53,132.4,134.4s-24.8,104.3-72.4,122l72.3,247.6h-74l-67.1-236.9Z"/>
    <polygon class="st2" points="1383 1554.2 1337.1 1639 1337.1 1800 1264.8 1800 1264.8 1296 1337.1 1296 1337.1 1497.6 1451.8 1296 1534.8 1296 1430.6 1472.8 1547.1 1800 1471.3 1800 1383 1554.2"/>
    <rect class="st2" x="1581.4" y="1296" width="70.6" height="504"/>
    <polygon class="st2" points="1768.6 1462.3 1768.6 1800 1696.3 1800 1696.3 1296 1768.6 1296 1906.3 1598.4 1906.3 1296 1978.7 1296 1978.7 1800 1924 1800 1768.6 1462.3"/>
    <path class="st2" d="M2175.3,1808.8c-45.9,0-156.3-8.5-156.3-259.9s105-261.6,150.9-261.6c72.8,0,127.9,53,131.4,127.3h-72.8c-1.8-33.6-24.8-56.6-60.4-56.6s-79.9,7.6-79.9,191.1,60.9,189.2,85.2,189.2c37.3,0,55.1-24.6,55.1-77.8v-33.6h-56.8v-70.8h129.7v104.3c0,126.1-83,148.6-126.1,148.6Z"/>
  </g>
  <g>
    <path class="st2" d="M1268.6,2304c0,10.3,2.2,149-102.3,149s-102.3-138.7-102.3-149-2.2-149,102.3-149,102.3,138.7,102.3,149ZM1166.8,2406.6c31,0,56.2-29.4,56.2-102.6s-25.2-102.6-56.2-102.6-56.2,29.4-56.2,102.6,25.2,102.6,56.2,102.6Z"/>
    <path class="st2" d="M1377.4,2253v195h-45.4v-288h45.4l105.1,183.9v-183.9h45.5v288h-40.4l-110.2-195Z"/>
  </g>
  <g>
    <path class="st2" d="M442.7,2898.7h-53.6v125.3h-45.4v-288h108.9c67.7,0,87.2,55.1,87.2,80.9s-9.8,81.8-97,81.8ZM389.1,2852.2h64.1c36.1,0,40-26.1,40-35.4,0-13.5-10.2-35.4-38.4-35.4h-65.7v70.7Z"/>
    <path class="st2" d="M724.6,2943.1h-90.4l-28.5,80.9h-48.8l99.6-288h45.8l99.6,288h-48.8l-28.5-80.9ZM650.5,2896.7h57.9l-28.5-80.8-29.4,80.8Z"/>
    <path class="st2" d="M910.5,3024l-91.3-288h47.7l61.8,192,60.8-192h48.7l-92.3,288h-35.5Z"/>
    <path class="st2" d="M1081.4,2736h169.6v45.5h-124.1v70.7h83.8v46.5h-83.8v78.8h133.2v46.5h-178.6v-288Z"/>
    <path class="st2" d="M1488.2,2857.2l-66.8,166.8-66.8-166.8v166.8h-45.6v-288h45.6l66.8,161.7,66.8-161.7h45.6v288h-45.6v-166.8Z"/>
    <path class="st2" d="M1602.9,2736h169.6v45.5h-124.1v70.7h83.8v46.5h-83.8v78.8h133.2v46.5h-178.6v-288Z"/>
    <path class="st2" d="M1875.9,2829v195h-45.4v-288h45.4l105.1,183.9v-183.9h45.5v288h-40.4l-110.2-195Z"/>
    <path class="st2" d="M2181.4,3024h-45.7v-247.6h-65.9v-40.4h178.6v40.4h-67v247.6Z"/>
  </g>
</svg>