<?xml version="1.0" encoding="UTF-8"?>
<svg id="For_Sheets" xmlns="http://www.w3.org/2000/svg" version="1.1" viewBox="0 0 2592 3888">
  <!-- Generator: Adobe Illustrator 29.1.0, SVG Export Plug-In . SVG Version: 2.1.0 Build 142)  -->
  <defs>
    <style>
      .st0 {
        fill: #231f20;
      }

      .st1 {
        fill: #fff;
      }

      .st2 {
        fill: #bf311a;
      }
    </style>
  </defs>
  <g>
    <path class="st1" d="M162,3888.1c-43.1,0-83.8-16.9-114.5-47.6S-.1,3769.1-.1,3726V162C-.1,118.9,16.8,78.2,47.5,47.5S118.9-.1,162-.1h2268c43.1,0,83.8,16.9,114.5,47.6s47.6,71.4,47.6,114.5v3564c0,43.1-16.9,83.8-47.6,114.5-30.7,30.7-71.4,47.6-114.5,47.6H162Z"/>
    <path class="st0" d="M2430,0c89.1,0,162,72.9,162,162v3564c0,89.1-72.9,162-162,162H162c-89.1,0-162-72.9-162-162V162C0,72.9,72.9,0,162,0h2268M2430-.2H162c-21.8,0-43,4.3-63,12.8-19.3,8.2-36.7,19.9-51.6,34.9-14.9,14.9-26.7,32.3-34.9,51.6C4.1,119-.2,140.2-.2,162v3564c0,21.8,4.3,43,12.8,63,8.2,19.3,19.9,36.7,34.9,51.6,14.9,14.9,32.3,26.7,51.6,34.9,20,8.5,41.2,12.8,63,12.8h2268c21.8,0,43-4.3,63-12.8,19.3-8.2,36.7-19.9,51.6-34.9,14.9-14.9,26.7-32.3,34.9-51.6,8.5-20,12.8-41.2,12.8-63V162c0-21.8-4.3-43-12.8-63-8.2-19.3-19.9-36.7-34.9-51.6-14.9-14.9-32.3-26.7-51.6-34.9-20-8.5-41.2-12.8-63-12.8h0Z"/>
  </g>
  <path class="st2" d="M2430,3843H162c-64.4,0-117-52.6-117-117V162c0-64.4,52.6-117,117-117h2268c64.4,0,117,52.6,117,117v3564c0,64.4-52.6,117-117,117ZM2484,3726V162c0-29.7-24.3-54-54-54H162c-29.7,0-54,24.3-54,54v3564c0,29.7,24.3,54,54,54h2268c29.7,0,54-24.3,54-54Z"/>
  <path class="st0" d="M1144.7,1459.1v484.9h-253.7V648h654.3c200.6,0,396.1,168.5,396.1,403.2s-165.2,407.9-413.6,407.9h-383.1ZM1144.7,906.2v294.5h379.9c99.6,0,163.1-59,163.1-149.5s-67.9-145-163.1-145h-379.9Z"/>
  <path class="st2" d="M1296,162c-626.3,0-1134,507.7-1134,1134s507.7,1134,1134,1134,1134-507.7,1134-1134S1922.3,162,1296,162ZM2214,1296c0,214.6-73.6,412-197,568.3L727.7,575c156.3-123.4,353.7-197,568.3-197,507,0,918,411,918,918ZM378,1296c0-214.6,73.6-412,197-568.3l1289.3,1289.3c-156.3,123.4-353.7,197-568.3,197-507,0-918-411-918-918Z"/>
  <g>
    <path class="st2" d="M1261.7,2817c0,12.9,2.7,186.3-127.9,186.3s-127.9-173.4-127.9-186.3-2.7-186.3,127.9-186.3,127.9,173.3,127.9,186.3ZM1134.5,2945.3c38.8,0,70.3-36.8,70.3-128.2s-31.5-128.2-70.3-128.2-70.3,36.7-70.3,128.2,31.5,128.2,70.3,128.2Z"/>
    <path class="st2" d="M1397.7,2753.2v243.8h-56.8v-360h56.8l131.4,229.9v-229.9h56.9v360h-50.5l-137.7-243.8Z"/>
  </g>
  <g>
    <path class="st2" d="M485.4,3564v-360h136.4c56.8,0,99.8,39.1,99.8,90.9s-16.4,61.9-50.5,80.9c37.9,17.7,59.4,48.3,59.4,87.1s-14.4,101.1-108.6,101.1h-136.4ZM625.6,3260.8h-83.4v88.4h72.4c32.3,0,50.2-28.2,50.2-51.8s-13.2-36.6-39.1-36.6ZM542.2,3407.4v98.5h85.9c29.2,0,44.2-13.9,44.2-41.7s-19.3-56.8-48.7-56.8h-81.4Z"/>
    <path class="st2" d="M848.5,3407.3v156.7h-56.8v-360h130.2c82.5,0,107.3,66,107.3,101.1s-5,66-55.9,90.1l63.4,168.7h-61.9l-58.1-156.7h-68.3ZM920,3349.3c45.2,0,52.3-32.6,52.3-44.2s-11.7-44.2-49.5-44.2h-74.2v88.4h71.5Z"/>
    <path class="st2" d="M1098,3204h57.6v360h-57.6v-360Z"/>
    <path class="st2" d="M1242,3564v-360h129.9c90.9,0,115.2,119.7,115.2,171.9,0,135-69.4,188.1-115,188.1h-130.1ZM1363.2,3260.8h-64.4v245h60.4c52.4,0,69.6-63.5,69.6-131.2s-9.2-113.8-65.6-113.8Z"/>
    <path class="st2" d="M1689.5,3197.7c57.7,0,90.2,21.9,114.6,79.6l-54.3,21.4c-15.2-31.6-30.3-42.9-58.1-42.9-79.1,0-74.6,120.4-74.6,128.8,0,13.5-3.1,127.6,67,127.6s63.2-22.7,63.2-55.6v-15.1h-65.7v-56.9h122.5v72c0,65.7-48,113.7-113.7,113.7s-131.3,10.8-131.3-186.3,1.5-186.3,130.5-186.3Z"/>
    <path class="st2" d="M1883.3,3204h211.9v56.8h-155.2v88.4h104.7v58.1h-104.7v98.5h166.5v58.1h-223.3v-360Z"/>
  </g>
</svg>