<?xml version="1.0" encoding="UTF-8"?>
<svg id="For_Sheets" xmlns="http://www.w3.org/2000/svg" version="1.1" viewBox="0 0 2592 3888">
  <!-- Generator: Adobe Illustrator 29.1.0, SVG Export Plug-In . SVG Version: 2.1.0 Build 142)  -->
  <defs>
    <style>
      .st0 {
        fill: #231f20;
      }

      .st1 {
        fill: #fff;
      }

      .st2 {
        fill: #bf311a;
      }
    </style>
  </defs>
  <g>
    <path class="st1" d="M162,3888.1c-43.1,0-83.8-16.9-114.5-47.6S-.1,3769.1-.1,3726V162C-.1,118.9,16.8,78.2,47.5,47.5S118.9-.1,162-.1h2268c43.1,0,83.8,16.9,114.5,47.6s47.6,71.4,47.6,114.5v3564c0,43.1-16.9,83.8-47.6,114.5-30.7,30.7-71.4,47.6-114.5,47.6H162Z"/>
    <path class="st0" d="M2430,0c89.1,0,162,72.9,162,162v3564c0,89.1-72.9,162-162,162H162c-89.1,0-162-72.9-162-162V162C0,72.9,72.9,0,162,0h2268M2430-.2H162c-21.8,0-43,4.3-63,12.8-19.3,8.2-36.7,19.9-51.6,34.9-14.9,14.9-26.7,32.3-34.9,51.6C4.1,119-.2,140.2-.2,162v3564c0,21.8,4.3,43,12.8,63,8.2,19.3,19.9,36.7,34.9,51.6,14.9,14.9,32.3,26.7,51.6,34.9,20,8.5,41.2,12.8,63,12.8h2268c21.8,0,43-4.3,63-12.8,19.3-8.2,36.7-19.9,51.6-34.9,14.9-14.9,26.7-32.3,34.9-51.6,8.5-20,12.8-41.2,12.8-63V162c0-21.8-4.3-43-12.8-63-8.2-19.3-19.9-36.7-34.9-51.6-14.9-14.9-32.3-26.7-51.6-34.9-20-8.5-41.2-12.8-63-12.8h0Z"/>
  </g>
  <path class="st2" d="M2430,3843H162c-64.4,0-117-52.6-117-117V162c0-64.4,52.6-117,117-117h2268c64.4,0,117,52.6,117,117v3564c0,64.4-52.6,117-117,117ZM2484,3726V162c0-29.7-24.3-54-54-54H162c-29.7,0-54,24.3-54,54v3564c0,29.7,24.3,54,54,54h2268c29.7,0,54-24.3,54-54Z"/>
  <path class="st0" d="M1144.7,1459.1v484.9h-253.7V648h654.3c200.6,0,396.1,168.5,396.1,403.2s-165.2,407.9-413.6,407.9h-383.1ZM1144.7,906.2v294.5h379.9c99.6,0,163.1-59,163.1-149.5s-67.9-145-163.1-145h-379.9Z"/>
  <path class="st2" d="M1296,162c-626.3,0-1134,507.7-1134,1134s507.7,1134,1134,1134,1134-507.7,1134-1134S1922.3,162,1296,162ZM2214,1296c0,214.6-73.6,412-197,568.3L727.7,575c156.3-123.4,353.7-197,568.3-197,507,0,918,411,918,918ZM378,1296c0-214.6,73.6-412,197-568.3l1289.3,1289.3c-156.3,123.4-353.7,197-568.3,197-507,0-918-411-918-918Z"/>
  <g>
    <path class="st2" d="M1261.7,2817c0,12.9,2.7,186.3-127.9,186.3s-127.9-173.4-127.9-186.3-2.7-186.3,127.9-186.3,127.9,173.3,127.9,186.3ZM1134.5,2945.3c38.8,0,70.3-36.8,70.3-128.2s-31.5-128.2-70.3-128.2-70.3,36.7-70.3,128.2,31.5,128.2,70.3,128.2Z"/>
    <path class="st2" d="M1397.7,2753.2v243.8h-56.8v-360h56.8l131.4,229.9v-229.9h56.9v360h-50.5l-137.7-243.8Z"/>
  </g>
  <g>
    <path class="st2" d="M554.7,3564h-57.1v-309.5h-82.4v-50.5h223.3v50.5h-83.7v309.5Z"/>
    <path class="st2" d="M749.3,3407.3v156.7h-56.8v-360h130.2c82.5,0,107.3,66,107.3,101.1s-5,66-55.9,90.1l63.4,168.7h-61.9l-58.1-156.7h-68.3ZM820.8,3349.3c45.2,0,52.3-32.6,52.3-44.2s-11.7-44.2-49.5-44.2h-74.2v88.4h71.5Z"/>
    <path class="st2" d="M1175.9,3462.9h-113l-35.6,101.1h-61l124.5-360h57.2l124.5,360h-61l-35.6-101.1ZM1083.2,3404.8h72.4l-35.6-101-36.8,101Z"/>
    <path class="st2" d="M1319.3,3383.4c0-50.6,10.2-185.6,132.6-185.6s87.7,21.2,112.4,73.3l-53.1,22.7c-18.4-26.5-27.6-37.9-59.4-37.9-75.3,0-74.5,105-74.5,127.6s-1.4,128.9,77,128.9,43.3-16.6,55.6-41.7l54.3,20.2c-20.2,50.1-54.3,79.5-108.7,79.5-129.5,0-136.4-143.1-136.4-186.9Z"/>
    <path class="st2" d="M1738.6,3393.5l-38,46.8v123.7h-57v-360h57v142.7l114.1-142.7h73.5l-111.5,140.2,119.1,219.8h-65.9l-91.3-170.5Z"/>
    <path class="st2" d="M1931.8,3479.5l54.3-20.2c15.2,34.1,43,53,77.1,53s55.7-22.7,55.7-53c0-48.1-55.7-55.5-102.3-74.4-21.5-8.8-69.4-30.3-69.4-89.5s47.9-97.2,112.3-97.2,84.5,29,102.2,73.2l-50.5,15.1c-8.3-16.2-25.8-31.5-56-31.5-43.6,0-52.6,23.8-52.6,36.4,0,33.6,29,40.3,76.1,55.1,48,15.1,98.3,37.2,98.3,114.2,0,77.7-63.1,109.7-113.7,109.7s-107.4-36.5-131.3-90.8Z"/>
  </g>
</svg>