<?xml version="1.0" encoding="UTF-8"?>
<svg id="For_Sheets" xmlns="http://www.w3.org/2000/svg" version="1.1" viewBox="0 0 2592 3456">
  <!-- Generator: Adobe Illustrator 29.1.0, SVG Export Plug-In . SVG Version: 2.1.0 Build 142)  -->
  <defs>
    <style>
      .st0 {
        fill: #231f20;
      }

      .st1 {
        fill: #fff;
      }
    </style>
  </defs>
  <g>
    <path class="st1" d="M162,3456.1c-89.4,0-162.1-72.7-162.1-162.1V162C-.1,72.6,72.6-.1,162-.1h2268c89.4,0,162.1,72.7,162.1,162.1v3132c0,89.4-72.7,162.1-162.1,162.1H162Z"/>
    <path class="st0" d="M2430,0c89.5,0,162,72.5,162,162v3132c0,89.5-72.5,162-162,162H162C72.5,3456,0,3383.5,0,3294V162C0,72.5,72.5,0,162,0h2268M2430-.2H162C118.7-.2,77.9,16.6,47.3,47.3,16.6,77.9-.2,118.7-.2,162v3132c0,43.3,16.9,84.1,47.5,114.7,30.6,30.6,71.4,47.5,114.7,47.5h2268c43.3,0,84.1-16.9,114.7-47.5,30.6-30.6,47.5-71.4,47.5-114.7V162c0-43.3-16.9-84.1-47.5-114.7-30.6-30.6-71.4-47.5-114.7-47.5h0Z"/>
  </g>
  <path class="st0" d="M162,3411c-64.5,0-117-52.5-117-117V162c0-64.5,52.5-117,117-117h2268c64.5,0,117,52.5,117,117v3132c0,64.5-52.5,117-117,117H162Z"/>
  <path class="st1" d="M162,3348c-29.8,0-54-24.2-54-54V162c0-29.8,24.2-54,54-54h2268c29.8,0,54,24.2,54,54v3132c0,29.8-24.2,54-54,54H162Z"/>
  <g>
    <path class="st0" d="M509.2,673.5l76-28.3c21.2,47.8,60.1,74.3,107.9,74.3s77.9-31.8,77.9-74.3c0-67.4-77.8-77.8-143.3-104.3-30-12.4-97.3-42.5-97.3-125.6s67.2-136.1,157.4-136.1,118.5,40.7,143.3,102.6l-70.7,21.2c-7.9-19.9-36.7-44.2-74.3-44.2-71.9,0-78,38.4-78,51,0,47.1,40.6,56.4,106.7,77.2,67.3,21.2,137.5,52.1,137.5,160.1s-88.2,153.7-159.2,153.7-150.3-51.3-183.9-127.3Z"/>
    <path class="st0" d="M1088,792h-79.9v-433.2h-115.4v-70.7h312.6v70.7h-117.2v433.2Z"/>
    <path class="st0" d="M1628.8,540c0,18.1,3.8,260.8-179,260.8s-179-242.7-179-260.8-3.8-260.8,179-260.8,179,242.7,179,260.8ZM1450.7,719.5c54.3,0,98.4-51.5,98.4-179.5s-44.1-179.5-98.4-179.5-98.4,51.4-98.4,179.5,44.1,179.5,98.4,179.5Z"/>
    <path class="st0" d="M1913.1,572.7h-93.9v219.3h-79.5v-504h190.5c118.6,0,152.6,96.4,152.6,141.5s-17.2,143.2-169.7,143.2ZM1819.2,491.4h112.2c63.3,0,70-45.6,70-61.9,0-23.6-17.8-61.9-67.3-61.9h-114.9v123.8Z"/>
  </g>
  <g>
    <path class="st0" d="M988.4,1170.7h-105.2v125.3h-45.4v-288h45.4v116.2h105.1v-116.2h45.5v288h-45.5v-125.3Z"/>
    <path class="st0" d="M1103,1008h169.6v45.5h-124.1v70.7h83.8v46.5h-83.8v78.8h133.2v46.5h-178.6v-288Z"/>
    <path class="st0" d="M1376,1170.6v125.4h-45.4v-288h104.2c66,0,85.8,52.8,85.8,80.9s-4,52.8-44.7,72.1l50.8,135h-49.5l-46.5-125.4h-54.6ZM1433.2,1124.2c36.1,0,41.8-26.1,41.8-35.4s-9.4-35.4-39.6-35.4h-59.4v70.7h57.2Z"/>
    <path class="st0" d="M1575.6,1008h169.6v45.5h-124.1v70.7h83.8v46.5h-83.8v78.8h133.2v46.5h-178.6v-288Z"/>
  </g>
  <g>
    <path class="st0" d="M975.1,1800l-45.6-184.9-44.6,184.9h-40.6l-42.6-288h46.6l22.3,151.6,36.5-151.6h44.6l37.5,151.6,22.3-151.6h46.6l-42.6,288h-40.5Z"/>
    <path class="st0" d="M1252,1674.7h-105.2v125.3h-45.4v-288h45.4v116.2h105.1v-116.2h45.5v288h-45.5v-125.3Z"/>
    <path class="st0" d="M1366.6,1512h169.6v45.5h-124.1v70.7h83.8v46.5h-83.8v78.8h133.2v46.5h-178.6v-288Z"/>
    <path class="st0" d="M1639.6,1605v195h-45.4v-288h45.4l105.1,183.9v-183.9h45.5v288h-40.4l-110.2-195Z"/>
  </g>
  <g>
    <path class="st0" d="M458.1,2132.2h83.8v46.5h-83.8v125.3h-45.4v-288h178.6v45.5h-133.2v70.7Z"/>
    <path class="st0" d="M634.5,2016h45.4v245.6h133.2v42.4h-178.6v-288Z"/>
    <path class="st0" d="M998.1,2223.1h-90.4l-28.5,80.9h-48.8l99.6-288h45.8l99.6,288h-48.8l-28.5-80.9ZM924,2176.7h57.9l-28.5-80.8-29.4,80.8Z"/>
    <path class="st0" d="M1098.4,2236.3l43.5-16.2c12.1,27.3,34.3,42.4,61.6,42.4s44.5-18.2,44.5-42.4c0-38.5-44.5-44.5-81.9-59.6-17.2-7.1-55.6-24.3-55.6-71.7s38.4-77.8,89.9-77.8,67.7,23.3,81.9,58.6l-40.4,12.1c-4.5-11.4-21-25.3-42.4-25.3-41.1,0-44.6,21.9-44.6,29.1,0,26.9,23.2,32.3,61,44.1,38.4,12.1,78.6,29.8,78.6,91.5s-50.4,87.8-91,87.8-85.9-29.3-105.1-72.8Z"/>
    <path class="st0" d="M1494,2178.7h-105.2v125.3h-45.4v-288h45.4v116.2h105.1v-116.2h45.5v288h-45.5v-125.3Z"/>
    <path class="st0" d="M1608.6,2016h46.1v288h-46.1v-288Z"/>
    <path class="st0" d="M1769.3,2109v195h-45.4v-288h45.4l105.1,183.9v-183.9h45.5v288h-40.4l-110.2-195Z"/>
    <path class="st0" d="M2087.6,2011c46.1,0,72.1,17.5,91.7,63.6l-43.4,17.1c-12.1-25.3-24.2-34.3-46.5-34.3-63.3,0-59.6,96.3-59.6,103.1,0,10.8-2.4,102.1,53.6,102.1s50.5-18.2,50.5-44.5v-12.1h-52.6v-45.5h98v57.6c0,52.5-38.4,90.9-91,90.9s-105,8.6-105-149,1.2-149,104.4-149Z"/>
  </g>
  <g>
    <rect class="st0" x="993.1" y="2635.7" width="925.7" height="249.8" transform="translate(-1185.2 1097.8) rotate(-30)"/>
    <path class="st0" d="M1279.1,3185.6c2.9,2.8,5.3,5.9,7.3,9.3,11.5,19.9,4.7,45.4-15.2,56.9-7,4.1-15.3,6.1-24,5.5l-575.1-44.1,249.4-520.1c3.8-7.9,9.7-14,16.7-18.1,19.9-11.5,45.4-4.7,56.9,15.2,1.9,3.3,3.4,7,4.4,10.9l69.2,283,210.5,201.5Z"/>
  </g>
</svg>