<?xml version="1.0" encoding="UTF-8"?>
<svg id="For_Sheets" xmlns="http://www.w3.org/2000/svg" version="1.1" viewBox="0 0 864 1296">
  <!-- Generator: Adobe Illustrator 29.1.0, SVG Export Plug-In . SVG Version: 2.1.0 Build 142)  -->
  <defs>
    <style>
      .st0 {
        fill: #231f20;
      }

      .st1 {
        fill: #fff;
      }
    </style>
  </defs>
  <g>
    <rect class="st1" x="-.1" y="-.1" width="864.2" height="1296.2" rx="108.1" ry="108.1"/>
    <path class="st0" d="M756,0c59.4,0,108,48.6,108,108v1080c0,59.4-48.6,108-108,108H108c-59.4,0-108-48.6-108-108V108C0,48.6,48.6,0,108,0h648M756-.2H108C79.2-.2,52.1,11,31.5,31.5,11,52.1-.2,79.2-.2,108v1080c0,28.8,11.3,55.9,31.8,76.5,20.5,20.5,47.7,31.8,76.5,31.8h648c28.8,0,55.9-11.3,76.5-31.8,20.5-20.5,31.8-47.7,31.8-76.5V108c0-28.8-11.3-55.9-31.8-76.5C811.9,11,784.8-.2,756-.2h0Z"/>
  </g>
  <rect class="st0" x="-189" y="243" width="1242" height="810" rx="81" ry="81" transform="translate(1080 216) rotate(90)"/>
  <rect class="st1" x="-162" y="270" width="1188" height="756" rx="54" ry="54" transform="translate(1080 216) rotate(90)"/>
  <path class="st0" d="M627.8,247.5c-23.5,0-45.4,6.8-63.9,18.5l-41.8-55.6,5.5-19.6c26.2-2.3,40.7-12.2,39.8-21.9-.9-9.3-26.9-2.3-55.8-2-7.9.1-50,0-49.8,7.6.3,7.9,27.1,14.4,46,16.2l-3.4,12h-169.8c3.6-11.8,6.9-22.7,9.5-31.2,2.2-7.2,3.8-12.7,4.6-15.3l-12.3-9.4,5.8-5.9h45.5v-15h-51.7l-22.2,22.5,14.2,10.9c-6.6,21.8-22.2,73.1-32.2,104-17.5-10.1-37.9-15.9-59.5-15.9-65.9,0-119.3,53.4-119.3,119.2s53.4,119.3,119.3,119.3,119.3-53.4,119.3-119.3-16.9-70.2-43.4-92c1.2-3.7,2.6-7.8,4-12.2l128.3,139.7c0,.4,0,.7,0,1.1,0,7.6,6,13.7,13.5,14l9,34.2h-9.2v9h29v-9h-11.5l-9.5-36.2c1.9-1.2,3.6-2.8,4.7-4.8l43.2-9.3c14.7,49.1,60.3,84.9,114.2,84.9s119.3-53.4,119.3-119.3-53.4-119.2-119.3-119.2ZM333,366.7c0,53.4-43.3,96.8-96.8,96.8s-96.8-43.3-96.8-96.8,43.3-96.7,96.8-96.7,36.7,5.5,51.7,14.9c-11.9,25.8-35.1,53.5-51.8,69.2-6.9,0-12.5,5.7-12.5,12.6s5.7,12.6,12.6,12.6,11.8-4.8,12.5-11.1c8.2-7.7,18.8-18.9,29.4-32.4,7.8-10,17.6-23.9,25.1-39,18.3,17.6,29.8,42.4,29.8,69.8ZM455.7,377.4l-5.9-22.3h9.2v-9h-29v9h11.5l5.8,22.1-124.7-135.7c2-6.5,4.1-13.1,6.1-19.7h170.3l-43.5,155.6ZM509.5,382.5l-37.8,8.2,43.9-157.1,33.1,44c-24.7,21.8-40.2,53.7-40.2,89.3s.4,10.6,1,15.7ZM531,366.7c0-28.2,12.1-53.5,31.3-71.2l49,65.1-79.6,17.1c-.4-3.6-.6-7.3-.6-11ZM627.8,463.5c-43.1,0-79.6-28.2-92.1-67.2l86-18.5c1.8,1,3.9,1.6,6.1,1.6,7,0,12.6-5.7,12.6-12.6s-4.3-11.2-10-12.4l-52.9-70.3c14.7-8.9,31.9-14.1,50.3-14.1,53.4,0,96.7,43.3,96.7,96.7s-43.3,96.8-96.7,96.8Z"/>
  <g>
    <path class="st0" d="M270,720h-20.8v-65.2l-35.5-78.8h21.8l24.3,52,23.8-52h22.3l-36,78.8v65.2Z"/>
    <path class="st0" d="M326.1,576h20.2v144h-20.2v-144Z"/>
    <path class="st0" d="M378,576h67.9v20.2h-47.1v36.4h29.9v19.7h-29.9v47.5h52.7v20.2h-73.5v-144Z"/>
    <path class="st0" d="M475.9,576h20.8v124.8h52.7v19.2h-73.5v-144Z"/>
    <path class="st0" d="M569.6,720v-144h41.1c8.8,0,39.6.4,39.6,71.7s-28.4,72.3-37.9,72.3h-42.8ZM606.4,596.2h-16.1v103.6h14.4c16.8,0,25.5-7.4,25.5-51s-12.6-52.5-23.7-52.5Z"/>
  </g>
  <g>
    <path class="st0" d="M391.2,936h-20.8v-124.8h-26.4v-19.2h73.5v19.2h-26.4v124.8Z"/>
    <path class="st0" d="M434.9,863.7c0-75.4,35-74.2,42.7-74.2s42.3-1.2,42.3,74.2-34.5,74.8-42.3,74.8-42.7,1.2-42.7-74.8ZM477.4,809.7c-4.1,0-22.7-.8-22.7,54.1s18.6,54.5,22.7,54.5,22.6.8,22.6-54.5-18.5-54.1-22.6-54.1Z"/>
  </g>
  <g>
    <path class="st0" d="M257.5,1088.8v63.2h-20.7v-144h42.9c22.7,0,37.8,16.2,37.8,40.4s-13.6,40.4-37.8,40.4h-22.2ZM257.5,1069.1h21.2c12.1,0,18.7-7.6,18.7-20.7s-7.6-20.2-18.6-20.2h-21.2v40.9Z"/>
    <path class="st0" d="M346.3,1008h67.9v20.2h-47.1v36.4h29.9v19.7h-29.9v47.5h52.7v20.2h-73.5v-144Z"/>
    <path class="st0" d="M444.2,1152v-144h41.1c8.8,0,39.6.4,39.6,71.7s-28.4,72.3-37.9,72.3h-42.8ZM481,1028.2h-16.1v103.6h14.4c16.8,0,25.5-7.4,25.5-51s-12.6-52.5-23.7-52.5Z"/>
    <path class="st0" d="M587.8,1060.5c15.7,9.9,39.4,23.7,39.4,52.1s-17.8,41.9-40.1,41.9-40.6-21.5-40.6-45h20.3c0,12.3,6.1,24.8,20.3,24.8s20.3-10.1,20.3-21.7c0-31.3-53.8-29.5-53.8-69.7s16.2-37.4,37-37.4,36,15.7,36.5,37.4h-19.8c-.5-10.1-7.6-16.7-16.7-16.7s-17.2,7.1-17.2,16.7,5,11.7,14.4,17.6Z"/>
  </g>
</svg>