<?xml version="1.0" encoding="UTF-8"?>
<svg id="For_Sheets" xmlns="http://www.w3.org/2000/svg" version="1.1" viewBox="0 0 1728 1728">
  <!-- Generator: Adobe Illustrator 29.1.0, SVG Export Plug-In . SVG Version: 2.1.0 Build 142)  -->
  <defs>
    <style>
      .st0, .st1 {
        fill: #231f20;
      }

      .st2 {
        fill: #fff;
      }

      .st1 {
        fill-rule: evenodd;
      }

      .st3 {
        fill: #bf311a;
      }
    </style>
  </defs>
  <g>
    <rect class="st2" x="-.1" y="-.1" width="1728.2" height="1728.2" rx="108.1" ry="108.1"/>
    <path class="st0" d="M1620,0c59.4,0,108,48.6,108,108v1512c0,59.4-48.6,108-108,108H108c-59.4,0-108-48.6-108-108V108C0,48.6,48.6,0,108,0h1512M1620-.2H108C79.2-.2,52.1,11,31.5,31.5,11,52.1-.2,79.2-.2,108v1512c0,28.8,11.3,55.9,31.8,76.5,20.5,20.5,47.7,31.8,76.5,31.8h1512c28.8,0,55.9-11.3,76.5-31.8,20.5-20.5,31.8-47.7,31.8-76.5V108c0-28.8-11.3-55.9-31.8-76.5-20.5-20.5-47.7-31.8-76.5-31.8h0Z"/>
  </g>
  <rect class="st0" x="27" y="27" width="1674" height="1674" rx="81" ry="81"/>
  <rect class="st2" x="72" y="72" width="1584" height="1584" rx="36" ry="36"/>
  <g>
    <path class="st1" d="M746.5,878.2c30.6,19.4,25.5,67.2-6.6,81.8-13.6,6.3-28.8,5.1-41.7-1.3l-212.7-103.6c-9.9-4.8-19.7-11.4-24.5-21.7-3-6.6-3.5-14.4-2.8-21.5,1.3-11.6,6.8-20.2,12.9-30.1,8.1-13.4,16.2-24.2,30.3-31.6,9.6-5.1,25.3-11.1,35.9-4.5l209.1,132.4"/>
    <path class="st1" d="M807.2,793.3c27.1,24,14.7,70.3-19.3,79.8-14.5,4.1-29.2.5-41-7.8l-193.9-135.5c-9-6.3-17.7-14.3-20.8-25.3-2-7-1.2-14.8.6-21.6,3.1-11.3,9.9-18.9,17.4-27.7,10.1-12,19.8-21.4,34.9-26.4,10.3-3.5,26.7-7,36.1,1.1l185.9,163.4"/>
    <path class="st1" d="M953.6,684.7c.1-.2-53-5.2-68.2-18.2l-158.4-135.2c-8.2-9.4-24.9-8.3-35.6-6.3-15.7,2.8-26.6,10.8-38.3,21.2-8.7,7.6-16.6,14.2-21.2,24.9-2.8,6.5-4.7,14.2-3.7,21.3,1.5,11.3,9,20.5,17,28l172.4,162c10.4,9.9,24.5,15.6,39.4,13.6,35-4.5,53.9-48.6,30.5-76.2l-122.4-143.3,137.7,145.6c19.8,20.8,8.2,50.9-5.8,65.9-21.6,30.1-61.2,19.8-61.4,19.7-1,13.9-.6,38.8-11.1,53-15.7,21.3-48.9,27.4-49.4,27.9.2-.8,12.4,33.9-2.8,59.8-15.2,26-40.7,26.8-40.3,28.1,5.9,18.6,6.6,27.5,1.5,39.3-17.4,41.3-96.8,21.3-126.2,16.8-30.7-4.6-87-22.4-91.9-23.6-.5-.1,203.2,51.1,208.1-6.8,1.7-20.2-21.5-31.1-36.6-37.9-51.8-23.5-174.3-93.4-225.1-92.2-12.8.3-22.7,6.8-31.8,15.9-11.7,11-18.9,26.2-14.9,42.2,5.3,16.4,12.6,33.6,19.2,49.3,15.4,36.1,40.4,67.4,65.7,97,38.1,44.7,83.6,77.5,132.4,109.9,28.8,19.2,93.2,63.8,191.9,91,122.6,33.7,238.4,106.6,242.9,108.7-2.4-2.3,52.7-12.7,102.4-121.2,49.7-108.5,102.6-119.7,100.6-119.3-2,.3-76.5-65.2-111.1-101.5-36.4-38.1-64.2-88.4-74.8-139.9-9.1-43.7,2.3-84.4,10.1-127.3,5.8-31.6,4.8-60.4,1.5-92.4-3.3-34.1-4.5-64.4,3.3-97.7,1.8-5.6,3.3-11.1,5.6-16.4,3.3-8.3,6.8-16.7,10.4-25.3,7.8-19.7,16.2-39.4,25.3-58.6,6.1-12.9,13.6-24.8,22.2-36.1,5.1-5.8,11.4-10.6,16.7-16.7,2.5-3,4.8-6.6,7.1-10.1,4.8-7.1,6.8-12.4,6.1-21-.5-5.3-2.8-9.6-5.6-14.1-6.6-6.8-13.9-10.9-23.7-10.1-10.6.8-20.5,4-30.8,5.8-25.5,4-46.2,23.7-65.2,39.4-16.7,13.6-33.8,27-48.2,42.9-11.4,12.6-21.7,26.8-27.8,42.9-7.6,20.4-13.6,48.2-18.2,70.2"/>
  </g>
  <path class="st3" d="M864,108c-417.5,0-756,338.5-756,756s338.5,756,756,756,756-338.5,756-756S1281.5,108,864,108ZM1476,864c0,143.1-49.1,274.6-131.3,378.8L485.2,383.3c104.2-82.2,235.8-131.3,378.8-131.3,338,0,612,274,612,612ZM252,864c0-143.1,49.1-274.6,131.3-378.8l859.5,859.5c-104.2,82.2-235.8,131.3-378.8,131.3-338,0-612-274-612-612Z"/>
</svg>