<?xml version="1.0" encoding="UTF-8"?>
<svg id="For_Sheets" xmlns="http://www.w3.org/2000/svg" version="1.1" viewBox="0 0 2160 2160">
  <!-- Generator: Adobe Illustrator 29.1.0, SVG Export Plug-In . SVG Version: 2.1.0 Build 142)  -->
  <defs>
    <style>
      .st0, .st1 {
        fill: #231f20;
      }

      .st2 {
        fill: #fff;
      }

      .st1 {
        fill-rule: evenodd;
      }

      .st3 {
        fill: #bf311a;
      }
    </style>
  </defs>
  <g>
    <rect class="st2" x="-.1" y="-.1" width="2160.2" height="2160.2" rx="135.1" ry="135.1"/>
    <path class="st0" d="M2025,0c74.6,0,135,60.4,135,135v1890c0,74.6-60.4,135-135,135H135c-74.6,0-135-60.4-135-135V135C0,60.4,60.4,0,135,0h1890M2025-.2H135C98.9-.2,64.9,13.8,39.4,39.4,13.8,64.9-.2,98.9-.2,135v1890c0,36.1,14.1,70.1,39.6,95.6,25.5,25.5,59.5,39.6,95.6,39.6h1890c36.1,0,70.1-14.1,95.6-39.6,25.5-25.5,39.6-59.5,39.6-95.6V135c0-36.1-14.1-70.1-39.6-95.6-25.5-25.5-59.5-39.6-95.6-39.6h0Z"/>
  </g>
  <path class="st0" d="M2025,36H135c-54.6,0-99,44.4-99,99v1890c0,54.6,44.4,99,99,99h1890c54.6,0,99-44.4,99-99V135c0-54.6-44.4-99-99-99ZM2070,2025c0,24.8-20.2,45-45,45H135c-24.8,0-45-20.2-45-45V135c0-24.8,20.2-45,45-45h1890c24.8,0,45,20.2,45,45v1890Z"/>
  <g>
    <path class="st1" d="M1553.7,562.5c60.3,0,102.5,45.9,102.5,72.6s-4.9,18.1-13.5,22.6c.4,3.3.6,6.7.6,10,0,49.5-40.1,89.6-89.6,89.6s-89.6-40.1-89.6-89.6,1.4-18.3,4.1-26.8h-44.4c-41.5,0,27.8-78.5,130-78.5Z"/>
    <path class="st1" d="M1242.1,1534.6l4.4-14.2-7.4-21.4,48.9-68.3h74.1l40,44.8,84.4,27.9-5.6,30.1c15,2.8,26.3,15.9,26.3,31.7s-14.4,32.2-32.2,32.2-32.2-14.4-32.2-32.2h0s-9.8,0-9.8,0h0c0,17.8-14.4,32.2-32.2,32.2s-32.2-14.4-32.2-32.2h0s-9.8,0-9.8,0h0c0,17.8-14.4,32.2-32.2,32.2s-32.2-14.4-32.2-32.2h-9.8c0,17.8-14.4,32.2-32.2,32.2s-32.2-14.4-32.2-32.2,9.3-26.4,22.2-30.6Z"/>
    <path class="st1" d="M446.1,1435.6c0-6.4,2-12.9,6-18.6,8.3-11.6,22.9-16.1,35.8-12l11.9-9,6.4-21.7,79.5-27.2,60.3,43,6.5,59.8,52.4,71.8-22.1,21.2c10.6,11,12.2,28.2,3,41.1-10.4,14.5-30.5,17.8-45,7.5-14.5-10.3-17.8-30.5-7.5-45l-8-5.7h0c-10.3,14.5-30.5,17.8-45,7.5-14.5-10.3-17.9-30.5-7.5-45h0s-8-5.7-8-5.7h0c-10.3,14.5-30.5,17.8-45,7.5-14.5-10.4-17.8-30.5-7.5-45l-8-5.7h0c-10.3,14.5-30.5,17.8-45,7.5-8.8-6.3-13.5-16.3-13.5-26.4Z"/>
    <path class="st0" d="M978.6,1020.9c-19.3-66.7,249.3-256.5,274.5-271.3l-273.5,6.8-28.1-44.1s321.4-42.2,358.3-43.1c85.1-2.2,130.9,32.4,163.2,70.3,54.7,64.3,47.3,150.2,48.8,193.2l192.3,36.6-23.5,46.9-227.3-9.2-14.7-114.6-240.1,151,185.7,121-29.7,247.6h-78.1l-19.8-211-191.3-76.9-412,255.4-62.6-44.7,378-313.9Z"/>
  </g>
  <path class="st3" d="M1080,135c-521.9,0-945,423.1-945,945s423.1,945,945,945,945-423.1,945-945S1601.9,135,1080,135ZM1080,1845c-422.5,0-765-342.5-765-765s61.4-343.3,164.2-473.6l1074.4,1074.4c-130.3,102.8-294.7,164.2-473.6,164.2ZM1680.8,1553.6L606.4,479.2c130.3-102.8,294.7-164.2,473.6-164.2,422.5,0,765,342.5,765,765s-61.4,343.3-164.2,473.6Z"/>
</svg>