<?xml version="1.0" encoding="UTF-8"?>
<svg id="For_Sheets" xmlns="http://www.w3.org/2000/svg" version="1.1" viewBox="0 0 2160 2160">
  <!-- Generator: Adobe Illustrator 29.1.0, SVG Export Plug-In . SVG Version: 2.1.0 Build 142)  -->
  <defs>
    <style>
      .Grid_x0020_FILL_x0020_2 {
        fill: #231f20;
      }

      .st0 {
        fill: #fff;
      }

      .st1 {
        fill: #bf311a;
      }
    </style>
  </defs>
  <g>
    <path class="st0" d="M135,2160.1c-35.9,0-69.8-14.1-95.4-39.7-25.6-25.6-39.7-59.5-39.7-95.4V135C-.1,99.1,14,65.2,39.6,39.6S99.1-.1,135-.1h1890c35.9,0,69.8,14.1,95.4,39.7,25.6,25.6,39.7,59.5,39.7,95.4v1890c0,35.9-14.1,69.8-39.7,95.4-25.6,25.6-59.5,39.7-95.4,39.7H135Z"/>
    <path class="Grid_x0020_FILL_x0020_2" d="M2025,0c74.2,0,135,60.8,135,135v1890c0,74.2-60.8,135-135,135H135c-74.2,0-135-60.8-135-135V135C0,60.8,60.8,0,135,0h1890M2025-.2H135C99-.2,65.1,13.9,39.5,39.5S-.2,99-.2,135v1890c0,36,14.1,69.9,39.7,95.5s59.5,39.7,95.5,39.7h1890c36,0,69.9-14.1,95.5-39.7s39.7-59.5,39.7-95.5V135c0-36-14.1-69.9-39.7-95.5S2061-.2,2025-.2h0Z"/>
  </g>
  <rect class="Grid_x0020_FILL_x0020_2" x="36" y="36" width="2088" height="2088" rx="99" ry="99"/>
  <rect class="st0" x="90" y="90" width="1980" height="1980" rx="45" ry="45"/>
  <g>
    <path class="Grid_x0020_FILL_x0020_2" d="M630,1027.9l207.2-138.1c9.6-40.5,49.3-220.2,129-261.8,78.9-52.2,370,162.2,371.7,164v312.8l-63.1-11-24.7-249.7c-23.8-4.8-47.6-9.6-71.3-14.3,52,134.3,71.1,263.8,41.2,349.1l126.2,515.9-85.1,60.4-183.8-477.4-85.1,90.6-118,359.5-112.5-41.2,101.5-378.7,118-211.3-45.2-155.9-48.1,62.6-225,74.1-32.9-49.4Z"/>
    <path class="Grid_x0020_FILL_x0020_2" d="M929.1,405c54.4,0,98.8,44.4,98.8,98.8s-44.4,98.8-98.8,98.8-98.8-44.4-98.8-98.8,44.4-98.8,98.8-98.8Z"/>
  </g>
  <path class="st1" d="M1080,135c-521.9,0-945,423.1-945,945s423.1,945,945,945,945-423.1,945-945S1601.9,135,1080,135ZM1845,1080c0,178.8-61.4,343.3-164.2,473.6L606.4,479.2c130.3-102.8,294.7-164.2,473.6-164.2,422.5,0,765,342.5,765,765ZM315,1080c0-178.8,61.4-343.3,164.2-473.6l1074.4,1074.4c-130.3,102.8-294.7,164.2-473.6,164.2-422.5,0-765-342.5-765-765Z"/>
</svg>