<?xml version="1.0" encoding="UTF-8"?>
<svg id="For_Sheets" xmlns="http://www.w3.org/2000/svg" version="1.1" viewBox="0 0 864 1296">
  <!-- Generator: Adobe Illustrator 29.1.0, SVG Export Plug-In . SVG Version: 2.1.0 Build 142)  -->
  <defs>
    <style>
      .st0 {
        fill: #231f20;
      }

      .st1 {
        fill: #fff;
      }
    </style>
  </defs>
  <g>
    <rect class="st1" x="-.1" y="-.1" width="864.2" height="1296.2" rx="108.1" ry="108.1"/>
    <path class="st0" d="M756,0c59.4,0,108,48.6,108,108v1080c0,59.4-48.6,108-108,108H108c-59.4,0-108-48.6-108-108V108C0,48.6,48.6,0,108,0h648M756-.2H108C79.2-.2,52.1,11,31.5,31.5,11,52.1-.2,79.2-.2,108v1080c0,28.8,11.3,55.9,31.8,76.5,20.5,20.5,47.7,31.8,76.5,31.8h648c28.8,0,55.9-11.3,76.5-31.8,20.5-20.5,31.8-47.7,31.8-76.5V108c0-28.8-11.3-55.9-31.8-76.5C811.9,11,784.8-.2,756-.2h0Z"/>
  </g>
  <rect class="st0" x="-189" y="243" width="1242" height="810" rx="81" ry="81" transform="translate(1080 216) rotate(90)"/>
  <rect class="st1" x="-162" y="270" width="1188" height="756" rx="54" ry="54" transform="translate(1080 216) rotate(90)"/>
  <path class="st0" d="M336.4,1032.8c-11.8,0-22.7,3.4-31.9,9.3l-20.9-27.8,2.7-9.8c13.1-1.1,20.3-6.1,19.9-10.9-.4-4.7-13.4-1.2-27.9-1-4,0-25,0-24.9,3.8.1,4,13.6,7.2,23,8.1l-1.7,6h-84.9c1.8-5.9,3.5-11.4,4.7-15.6,1.1-3.6,1.9-6.3,2.3-7.7l-6.2-4.7,2.9-3h22.7v-7.5h-25.9l-11.1,11.2,7.1,5.4c-3.3,10.9-11.1,36.6-16.1,52-8.8-5.1-18.9-8-29.8-8-32.9,0-59.6,26.7-59.6,59.6s26.7,59.6,59.6,59.6,59.6-26.7,59.6-59.6-8.5-35.1-21.7-46c.6-1.9,1.3-3.9,2-6.1l64.2,69.8c0,.2,0,.4,0,.6,0,3.8,3,6.9,6.8,7l4.5,17.1h-4.6v4.5h14.5v-4.5h-5.8l-4.8-18.1c1-.6,1.8-1.4,2.4-2.4l21.6-4.7c7.4,24.6,30.2,42.5,57.1,42.5s59.6-26.7,59.6-59.6-26.7-59.6-59.6-59.6ZM189,1092.4c0,26.7-21.7,48.4-48.4,48.4s-48.4-21.7-48.4-48.4,21.7-48.4,48.4-48.4,18.4,2.7,25.8,7.5c-5.9,12.9-17.5,26.8-25.9,34.6-3.5,0-6.3,2.8-6.3,6.3s2.8,6.3,6.3,6.3,5.9-2.4,6.3-5.5c4.1-3.8,9.4-9.5,14.7-16.2,3.9-5,8.8-12,12.5-19.5,9.2,8.8,14.9,21.2,14.9,34.9ZM250.3,1097.7l-2.9-11.2h4.6v-4.5h-14.5v4.5h5.8l2.9,11.1-62.3-67.8c1-3.2,2-6.6,3.1-9.9h85.2l-21.8,77.8ZM277.3,1100.2l-18.9,4.1,22-78.6,16.5,22c-12.3,10.9-20.1,26.9-20.1,44.6s.2,5.3.5,7.9ZM288,1092.4c0-14.1,6-26.8,15.6-35.6l24.5,32.5-39.8,8.6c-.2-1.8-.3-3.6-.3-5.5ZM336.4,1140.8c-21.6,0-39.8-14.1-46.1-33.6l43-9.3c.9.5,2,.8,3.1.8,3.5,0,6.3-2.8,6.3-6.3s-2.2-5.6-5-6.2l-26.4-35.2c7.3-4.5,15.9-7,25.1-7,26.7,0,48.4,21.7,48.4,48.4s-21.7,48.4-48.4,48.4Z"/>
  <rect class="st0" x="418.5" y="540" width="27" height="612"/>
  <g>
    <path class="st0" d="M611.8,828c13.1,0,23.7,10.6,23.7,23.7s-10.7,23.7-23.7,23.7-23.7-10.6-23.7-23.7,10.6-23.7,23.7-23.7Z"/>
    <path class="st0" d="M540,977.5l49.7-33.2c2.3-9.7,11.8-52.9,31-62.8,18.9-12.5,88.8,38.9,89.2,39.4v75.1l-15.1-2.6-5.9-59.9c-5.7-1.1-11.4-2.3-17.1-3.4,12.5,32.2,17.1,63.3,9.9,83.8l30.3,123.8-20.4,14.5-44.1-114.6-20.4,21.7-28.3,86.3-27-9.9,24.4-90.9,28.3-50.7-10.9-37.4-11.5,15-54,17.8-7.9-11.9Z"/>
  </g>
  <g>
    <path class="st0" d="M177,295.6l-12.6,28.3v108.1h-36.4V144h36.4v92l44-92h42.4l-47.4,99,51.5,189h-39.4l-38.4-136.4Z"/>
    <path class="st0" d="M300.9,144h105.5v37.4h-69.3v73.8h46.2v38.4h-46.2v101.1h73.3v37.4h-109.5V144Z"/>
    <path class="st0" d="M456.5,144h105.5v37.4h-69.3v73.8h46.2v38.4h-46.2v101.1h73.3v37.4h-109.5V144Z"/>
    <path class="st0" d="M668.2,306.7h-19.7v125.3h-36.4V144h58.4c61.4,0,65.5,68.4,65.5,83.9,0,47.5-27.3,78.8-67.8,78.8ZM648.5,181.4v87.9h19.7c22.2,0,30.3-11.5,30.3-41.4s-10.1-46.5-30.3-46.5h-19.7Z"/>
  </g>
  <g>
    <path class="st0" d="M118.5,540h15.8v111.4h32.1v14.6h-47.9v-126Z"/>
    <path class="st0" d="M184,540h46.1v16.4h-30.3v32.3h20.2v16.8h-20.2v44.2h32.1v16.4h-47.9v-126Z"/>
    <path class="st0" d="M267.9,588.6h18.5v16.8h-18.5v60.6h-15.8v-126h47.9v16.4h-32.1v32.3Z"/>
    <path class="st0" d="M339.1,666h-15.9v-109.6h-15.6v-16.4h47.9v16.4h-16.4v109.6Z"/>
  </g>
  <g>
    <path class="st0" d="M513.4,603.3l12.8,62.7h-17.3l-12-58.8h-8.6v58.8h-15.9v-126h24.6c19.5,0,29.7,11.9,29.7,35.4s-3.6,22.5-13.3,27.9ZM510.3,574.9c0-14.3-3.1-18.6-14.2-18.6h-7.7v34.5h10.4c8.8,0,11.5-4,11.5-15.9Z"/>
    <path class="st0" d="M546.9,540h16.4v126h-16.4v-126Z"/>
    <path class="st0" d="M616.5,538.3c14.2,0,23.6,8.9,24.9,24.3h-16.4c-.4-5.3-3.6-8-8-8-7.9,0-13.3,6.7-13.3,48.6s5.4,48.6,13.3,48.6,8.4-7.7,8.4-15.5v-15h-7.5v-16.4h23.5v31.4c0,8.2,1.2,31.8-24.9,31.8s-29.4-17.4-29.4-65,12.1-65,29.3-65Z"/>
    <path class="st0" d="M703.7,607.2h-22.5v58.8h-15.9v-126h15.9v50.8h22.5v-50.8h15.8v126h-15.9v-58.8Z"/>
    <path class="st0" d="M768.7,666h-15.9v-109.6h-15.6v-16.4h47.9v16.4h-16.4v109.6Z"/>
  </g>
</svg>