<?xml version="1.0" encoding="UTF-8"?>
<svg id="For_Sheets" xmlns="http://www.w3.org/2000/svg" version="1.1" viewBox="0 0 2160 2160">
  <!-- Generator: Adobe Illustrator 29.1.0, SVG Export Plug-In . SVG Version: 2.1.0 Build 142)  -->
  <defs>
    <style>
      .st0, .st1 {
        fill: #231f20;
      }

      .st2 {
        fill: #ffd046;
      }

      .st3 {
        fill: #bf311a;
      }

      .st3, .st1 {
        fill-rule: evenodd;
      }

      .st4 {
        fill: #fff;
      }
    </style>
  </defs>
  <path class="st0" d="M2025,0c74.6,0,135,60.4,135,135v1890c0,74.6-60.4,135-135,135H135c-74.6,0-135-60.4-135-135V135C0,60.4,60.4,0,135,0h1890M2025-.2H135C98.9-.2,64.9,13.8,39.4,39.4,13.8,64.9-.2,98.9-.2,135v1890c0,36.1,14.1,70.1,39.6,95.6,25.5,25.5,59.5,39.6,95.6,39.6h1890c36.1,0,70.1-14.1,95.6-39.6,25.5-25.5,39.6-59.5,39.6-95.6V135c0-36.1-14.1-70.1-39.6-95.6-25.5-25.5-59.5-39.6-95.6-39.6h0Z"/>
  <rect class="st4" width="2160" height="2160" rx="135" ry="135"/>
  <path class="st2" d="M135,0h1890c74.6,0,135,60.4,135,135v846H0V135C0,60.4,60.4,0,135,0Z"/>
  <path class="st0" d="M2025,27H135c-59.6,0-108,48.4-108,108v1890c0,59.6,48.4,108,108,108h1890c59.6,0,108-48.4,108-108V135c0-59.6-48.4-108-108-108ZM135,72h1890c34.7,0,63,28.3,63,63v801H72V135c0-34.7,28.3-63,63-63ZM2025,2088H135c-34.7,0-63-28.3-63-63V981h2016v1044c0,34.7-28.3,63-63,63Z"/>
  <path class="st3" d="M524.4,1866.6l-340.9-590.4c-11.1-19.2,2.8-43.2,24.9-43.2h681.7c22.2,0,36,24,24.9,43.2l-340.9,590.4c-11.1,19.2-38.8,19.2-49.9,0ZM386.2,1393.2l138.2,239.4c11.1,19.2,38.8,19.2,49.9,0l138.2-239.4c11.1-19.2-2.8-43.2-24.9-43.2h-276.4c-22.2,0-36,24-24.9,43.2Z"/>
  <g>
    <path class="st1" d="M1686.6,1116c34.8,0,63.2,28.4,63.2,63.2s-28.4,63.2-63.2,63.2-63.2-28.4-63.2-63.2,28.4-63.2,63.2-63.2h0Z"/>
    <path class="st1" d="M1495.2,1514.6l132.6-88.4c6.1-25.9,31.6-140.9,82.6-167.6,50.5-33.4,236.8,103.8,237.9,105v200.2l-40.4-7-15.8-159.8c-15.2-3.1-30.4-6.1-45.7-9.2,33.3,86,45.5,168.8,26.3,223.4l80.8,330.2-54.5,38.6-117.6-305.5-54.4,57.9-75.5,230.1-72-26.3,65-242.4,75.5-135.2-29-99.8-30.8,40.1-144,47.4-21.1-31.6h0Z"/>
  </g>
  <g>
    <path class="st0" d="M297.8,423h-34.3v-185.7h-49.5v-30.3h134v30.3h-50.2v185.7Z"/>
    <path class="st0" d="M380.5,345.7v-138.7h34.1v138.7c0,28.1,15.9,46.2,39.4,46.2s39.4-18.2,39.4-46.2v-138.7h34.1v138.7c0,68.3-52.4,81.1-73.5,81.1s-73.5-11.3-73.5-81.1Z"/>
    <path class="st0" d="M613.4,329v94h-34.1v-216h78.1c49.5,0,64.4,39.6,64.4,60.7s-3,39.6-33.5,54.1l38.1,101.2h-37.2l-34.9-94h-41ZM656.3,294.2c27.1,0,31.4-19.5,31.4-26.5s-7-26.5-29.7-26.5h-44.5v53.1h42.9Z"/>
    <path class="st0" d="M797.2,276.7v146.3h-34.1v-216h34.1l78.8,137.9v-137.9h34.1v216h-30.3l-82.6-146.3Z"/>
    <path class="st0" d="M962,207h34.6v216h-34.6v-216Z"/>
    <path class="st0" d="M1082.5,276.7v146.3h-34.1v-216h34.1l78.8,137.9v-137.9h34.1v216h-30.3l-82.6-146.3Z"/>
    <path class="st0" d="M1321.3,203.2c34.6,0,54.1,13.1,68.7,47.7l-32.6,12.9c-9.1-19-18.2-25.8-34.9-25.8-47.5,0-44.7,72.3-44.7,77.3,0,8.1-1.8,76.5,40.2,76.5s37.9-13.6,37.9-33.3v-9.1h-39.4v-34.1h73.5v43.2c0,39.4-28.8,68.2-68.2,68.2s-78.8,6.5-78.8-111.8.9-111.8,78.3-111.8Z"/>
  </g>
  <g>
    <path class="st3" d="M464.2,1470h-10.4v-32.6l-17.7-39.4h10.9l12.2,26,11.9-26h11.1l-18,39.4v32.6Z"/>
    <path class="st3" d="M492.3,1398h10.1v72h-10.1v-72Z"/>
    <path class="st3" d="M518.2,1398h33.9v10.1h-23.6v18.2h14.9v9.9h-14.9v23.8h26.4v10.1h-36.7v-72Z"/>
    <path class="st3" d="M567.2,1398h10.4v62.4h26.4v9.6h-36.7v-72Z"/>
    <path class="st3" d="M614,1470v-72h20.5c4.4,0,19.8.2,19.8,35.9s-14.2,36.1-18.9,36.1h-21.4ZM632.4,1408.1h-8.1v51.8h7.2c8.4,0,12.7-3.7,12.7-25.5s-6.3-26.3-11.8-26.3Z"/>
  </g>
  <g>
    <path class="st0" d="M241.6,801l-68.4-216h35.7l46.4,144,45.6-144h36.5l-69.2,216h-26.6Z"/>
    <path class="st0" d="M363.3,585h127.2v34.1h-93.1v53.1h62.8v34.9h-62.8v59.1h99.9v34.9h-134v-216Z"/>
    <path class="st0" d="M639.6,707h-78.9v94h-34.1v-216h34.1v87.2h78.8v-87.2h34.1v216h-34.1v-94Z"/>
    <path class="st0" d="M715.2,585h34.6v216h-34.6v-216Z"/>
    <path class="st0" d="M787.8,692.6c0-30.4,6.1-111.4,79.6-111.4s52.6,12.7,67.5,44l-31.8,13.6c-11-15.9-16.6-22.7-35.6-22.7-45.2,0-44.7,63-44.7,76.5s-.8,77.3,46.2,77.3,26-10,33.3-25l32.6,12.1c-12.1,30.1-32.6,47.7-65.2,47.7-77.7,0-81.8-85.9-81.8-112.2Z"/>
    <path class="st0" d="M972.8,585h34.1v184.2h99.9v31.8h-134v-216Z"/>
    <path class="st0" d="M1132.7,585h127.2v34.1h-93.1v53.1h62.8v34.9h-62.8v59.1h99.9v34.9h-134v-216Z"/>
    <path class="st0" d="M1284,750.2l32.6-12.1c9.1,20.5,25.8,31.8,46.2,31.8s33.4-13.6,33.4-31.8c0-28.9-33.3-33.3-61.4-44.7-12.9-5.3-41.7-18.2-41.7-53.8s28.8-58.3,67.4-58.3,50.8,17.4,61.4,44l-30.3,9.1c-3.4-8.5-15.7-19-31.8-19-30.8,0-33.4,16.4-33.4,21.8,0,20.2,17.4,24.2,45.7,33.1,28.8,9.1,58.9,22.3,58.9,68.6s-37.8,65.9-68.2,65.9-64.4-22-78.8-54.6Z"/>
  </g>
  <g>
    <path class="st0" d="M1092.4,1665h-34.3v-185.7h-49.5v-30.3h134v30.3h-50.2v185.7Z"/>
    <path class="st0" d="M1324.2,1557c0,7.7,1.6,111.8-76.7,111.8s-76.7-104-76.7-111.8-1.6-111.8,76.7-111.8,76.7,104,76.7,111.8ZM1247.8,1634c23.3,0,42.2-22.1,42.2-76.9s-18.9-76.9-42.2-76.9-42.2,22-42.2,76.9,18.9,76.9,42.2,76.9Z"/>
  </g>
  <path class="st0" d="M1822.6,322.4c-.4-1.5-.7-3.1-.7-4.6,0-9,7.3-16.3,16.3-16.3,3.2,0,6.4.9,9.2,2.9l186.5,127.6-186.5,127.6c-2.8,1.9-6,2.9-9.2,2.9-9,0-16.3-7.3-16.3-16.3,0-1.5.2-3,.7-4.6l32-109.6-32-109.6Z"/>
  <path class="st0" d="M1677.4,480.9c-7.5,0-13.5,6-13.5,13.5v212.1h-97.9v-300.9c0-12.4,10.1-22.5,22.5-22.5h272.2v97.9h-183.3Z"/>
</svg>