<?xml version="1.0" encoding="UTF-8"?>
<svg id="For_Sheets" xmlns="http://www.w3.org/2000/svg" version="1.1" viewBox="0 0 3888 2592">
  <!-- Generator: Adobe Illustrator 29.1.0, SVG Export Plug-In . SVG Version: 2.1.0 Build 142)  -->
  <defs>
    <style>
      .st0 {
        fill: #231f20;
      }

      .st1 {
        fill: #fff;
      }
    </style>
  </defs>
  <g>
    <rect class="st1" x="-.1" y="-.1" width="3888.2" height="2592.2" rx="162.1" ry="162.1"/>
    <path class="st0" d="M3726,0c89.5,0,162,72.5,162,162v2268c0,89.5-72.5,162-162,162H162c-89.5,0-162-72.5-162-162V162C0,72.5,72.5,0,162,0h3564M3726-.2H162C118.7-.2,77.9,16.6,47.3,47.3,16.6,77.9-.2,118.7-.2,162v2268c0,43.3,16.9,84.1,47.5,114.7,30.6,30.6,71.4,47.5,114.7,47.5h3564c43.3,0,84.1-16.9,114.7-47.5,30.6-30.6,47.5-71.4,47.5-114.7V162c0-43.3-16.9-84.1-47.5-114.7-30.6-30.6-71.4-47.5-114.7-47.5h0Z"/>
  </g>
  <path class="st0" d="M3726,45H162c-64.5,0-117,52.5-117,117v2268c0,64.5,52.5,117,117,117h3564c64.5,0,117-52.5,117-117V162c0-64.5-52.5-117-117-117ZM3780,2430c0,29.8-24.2,54-54,54H162c-29.8,0-54-24.2-54-54V162c0-29.8,24.2-54,54-54h3564c29.8,0,54,24.2,54,54v2268Z"/>
  <g>
    <path class="st0" d="M2351,726.8h-813.9c-15,0-27.1,12.1-27.1,27.1v407c0,15,12.1,27.1,27.1,27.1h813.9c15,0,27.1-12.1,27.1-27.1v-407c0-15-12.1-27.1-27.1-27.1ZM1944,1127c-93.6,0-169.6-75.9-169.6-169.6s75.9-169.6,169.6-169.6,169.6,75.9,169.6,169.6-75.9,169.6-169.6,169.6Z"/>
    <path class="st0" d="M1815.1,536.9h257.7c15,0,27.1,12.2,27.1,27.1v108.5c0,15-12.2,27.1-27.1,27.1h-257.7c-15,0-27.1-12.2-27.1-27.1v-108.5c0-15,12.2-27.1,27.1-27.1Z"/>
    <rect class="st0" x="1614.1" y="458.5" width="40.7" height="244.2" transform="translate(650.6 2009) rotate(-75)"/>
    <rect class="st0" x="1696.9" y="286.9" width="40.7" height="244.2" transform="translate(213.7 1334.1) rotate(-45)"/>
    <rect class="st0" x="2131.5" y="560.2" width="244.2" height="40.7" transform="translate(-73.5 603.1) rotate(-15)"/>
    <rect class="st0" x="2048.7" y="388.7" width="244.2" height="40.7" transform="translate(346.5 1654.7) rotate(-45)"/>
    <rect class="st0" x="1923.7" y="252" width="40.7" height="244.2"/>
  </g>
  <g>
    <g>
      <path class="st0" d="M800.6,1764h-46.7v-280.8h-59.3v-43.2h165.3v43.2h-59.3v280.8Z"/>
      <path class="st0" d="M996,1611.7h-44.3v152.3h-46.5v-324h96.4c50.8,0,85.1,34.1,85.1,86.4s-15.9,67.1-46.5,78.4l46.5,159.2h-47.6l-43.1-152.3ZM951.7,1485.5v81.9h47.6c27.3,0,42-14.8,42-40.9s-17-40.9-42-40.9h-47.7Z"/>
      <path class="st0" d="M1253.8,1675.3h-69.5l-21.7,88.7h-46.7l80.9-324h45.6l80.9,324h-46.7l-22.8-88.7ZM1195.7,1629.9h46.7l-23.9-93.2-22.8,93.2Z"/>
      <path class="st0" d="M1415.5,1567.3h65v44.3h-65v152.3h-46.7v-324h165.3v45.5h-118.6v81.9Z"/>
      <path class="st0" d="M1626.1,1567.3h65v44.3h-65v152.3h-46.7v-324h165.3v45.5h-118.6v81.9Z"/>
      <path class="st0" d="M1790.1,1440h45.4v324h-45.4v-324Z"/>
      <path class="st0" d="M2035,1526.4c-4.5-31.8-17.1-46.6-38.8-46.6-37.7,0-51.4,29.6-51.4,113.6s16,130.7,56,130.7,34.2-22.8,34.2-46.6h46.8c-1.1,53.4-35.4,92.1-81,92.1-69.6,0-100.5-55.7-100.5-175.1s33.1-160.2,97-160.2,82.9,54.1,84.5,92h-46.8Z"/>
    </g>
    <g>
      <path class="st0" d="M2324.8,1440h46.7v280.8h118.6v43.2h-165.3v-324Z"/>
      <path class="st0" d="M2647.5,1675.3h-69.5l-21.7,88.7h-46.7l80.9-324h45.6l80.9,324h-46.7l-22.8-88.7ZM2589.3,1629.9h46.7l-23.9-93.2-22.8,93.2Z"/>
      <path class="st0" d="M2890.4,1764l-30.8-169.4-30.8,169.4h-41l-51.4-324h45.6l27.4,172.8,31.9-172.8h36.5l30.8,172.8,28.5-172.8h45.6l-52.5,324h-39.9Z"/>
      <path class="st0" d="M3105,1558c35.4,22.2,88.6,53.4,88.6,117.3s-40,94.3-90.2,94.3-91.3-48.3-91.3-101.2h45.7c0,27.6,13.7,55.7,45.6,55.7s45.6-22.7,45.6-48.9c0-70.4-121-66.4-121-156.9s36.5-84.1,83.3-84.1,81.1,35.2,82.2,84.1h-44.6c-1.1-22.7-17.1-37.5-37.7-37.5s-38.8,15.9-38.8,37.5,11.2,26.2,32.4,39.6Z"/>
    </g>
  </g>
  <g>
    <g>
      <path class="st0" d="M404,2197.9v142.1h-46.5v-324h96.4c51.1,0,85.1,36.5,85.1,91s-30.7,90.9-85.1,90.9h-49.9ZM404,2153.5h47.6c27.2,0,42-17,42-46.6s-17.2-45.5-42-45.5h-47.7v92.1Z"/>
      <path class="st0" d="M738.8,2193.4h-88.5v146.7h-46.5v-324h46.5v131.9h88.5v-131.9h46.5v324h-46.5v-146.7Z"/>
      <path class="st0" d="M850.1,2177.3c0-169.7,78.7-166.9,96.1-166.9s95.1-2.6,95.1,167.1-77.6,168.2-95.1,168.2-96.1,2.7-96.1-168.3ZM945.8,2055.8c-9.2,0-51-1.9-51,121.7s41.8,122.6,51,122.6,50.9,1.9,50.9-122.6-41.7-121.7-50.9-121.7Z"/>
      <path class="st0" d="M1186.3,2340h-46.7v-280.8h-59.3v-43.2h165.3v43.2h-59.3v280.8Z"/>
      <path class="st0" d="M1284.5,2177.3c0-169.7,78.7-166.9,96.1-166.9s95.1-2.6,95.1,167.1-77.6,168.2-95.1,168.2-96.1,2.7-96.1-168.3ZM1380.1,2055.8c-9.2,0-51-1.9-51,121.7s41.8,122.6,51,122.6,50.9,1.9,50.9-122.6-41.7-121.7-50.9-121.7Z"/>
    </g>
    <g>
      <path class="st0" d="M1718.7,2016h152.8v45.5h-106v81.9h67.2v44.3h-67.2v106.9h118.6v45.4h-165.3v-324Z"/>
      <path class="st0" d="M1985.6,2122.9v217.1h-46.5v-324h46.5l88.5,194.4v-194.4h46.5v324h-35.2l-99.9-217.1Z"/>
      <path class="st0" d="M2238.7,2143.3h65v44.3h-65v152.3h-46.7v-324h165.3v45.5h-118.6v81.9Z"/>
      <path class="st0" d="M2396.1,2177.3c0-169.7,78.7-166.9,96.1-166.9s95.1-2.6,95.1,167.1-77.6,168.2-95.1,168.2-96.1,2.7-96.1-168.3ZM2491.7,2055.8c-9.2,0-51-1.9-51,121.7s41.8,122.6,51,122.6,50.9,1.9,50.9-122.6-41.7-121.7-50.9-121.7Z"/>
      <path class="st0" d="M2742.9,2187.7h-44.3v152.3h-46.5v-324h96.4c50.8,0,85.1,34.1,85.1,86.4s-15.9,67.1-46.5,78.4l46.5,159.2h-47.6l-43.1-152.3ZM2698.7,2061.5v81.9h47.6c27.3,0,42-14.8,42-40.9s-17-40.9-42-40.9h-47.7Z"/>
      <path class="st0" d="M3017,2102.4c-4.5-31.8-17.1-46.6-38.8-46.6-37.7,0-51.4,29.6-51.4,113.6s16,130.7,56,130.7,34.2-22.8,34.2-46.6h46.8c-1.1,53.4-35.4,92.1-81,92.1-69.6,0-100.5-55.7-100.5-175.1s33.1-160.2,97-160.2,82.9,54.1,84.5,92h-46.8Z"/>
      <path class="st0" d="M3128.6,2016h152.8v45.5h-106v81.9h67.2v44.3h-67.2v106.9h118.6v45.4h-165.3v-324Z"/>
      <path class="st0" d="M3349,2340v-324h92.5c19.8,0,89.1,1,89.1,161.4s-64,162.6-85.2,162.6h-96.3ZM3431.8,2061.5h-36.3v233h32.3c37.9,0,57.3-16.6,57.3-114.8s-28.4-118.2-53.3-118.2Z"/>
    </g>
  </g>
</svg>