<?xml version="1.0" encoding="UTF-8"?>
<svg id="For_Sheets" xmlns="http://www.w3.org/2000/svg" version="1.1" viewBox="0 0 2592 2592">
  <!-- Generator: Adobe Illustrator 29.1.0, SVG Export Plug-In . SVG Version: 2.1.0 Build 142)  -->
  <defs>
    <style>
      .st0 {
        fill: #bed73d;
      }

      .st1 {
        fill: #231f20;
      }
    </style>
  </defs>
  <g>
    <path class="st0" d="M161.8,2591.9c-43.1,0-83.8-16.9-114.5-47.6S-.4,2472.9-.4,2429.8v-1067.2c0-43.6,17.3-84.7,48.6-115.5L1181.1,114.2c30.5-30.5,71.2-47.3,114.6-47.3s84.1,16.8,114.6,47.3l1132.9,1132.9c31.3,30.8,48.6,71.8,48.6,115.5v1067.2c0,43.1-16.9,83.8-47.6,114.5s-71.4,47.6-114.5,47.6H161.8Z"/>
    <path class="st1" d="M1295.8,67c41.5,0,83,15.8,114.6,47.3l1132.9,1132.9c29.9,29.4,48.6,70.3,48.6,115.4v1067.2c0,89.1-72.9,162-162,162H161.8c-89.1,0-162-72.9-162-162v-1067.2c0-45,18.6-86,48.6-115.4L1181.2,114.3c31.5-31.5,73-47.3,114.6-47.3M1295.8,66.8c-21.1,0-41.7,4-61.1,11.8-20.1,8.1-38.2,20.1-53.6,35.5L48.2,1247c-15.2,15-27.2,32.4-35.6,51.9-8.7,20.2-13.1,41.6-13.1,63.6v1067.2c0,21.8,4.3,43,12.8,63,8.2,19.3,19.9,36.7,34.9,51.6,14.9,14.9,32.3,26.7,51.6,34.9,20,8.5,41.2,12.8,63,12.8h2268c21.8,0,43-4.3,63-12.8,19.3-8.2,36.7-19.9,51.6-34.9s26.7-32.3,34.9-51.6c8.5-20,12.8-41.2,12.8-63v-1067.2c0-22.1-4.4-43.5-13.1-63.6-8.4-19.5-20.3-37-35.6-51.9L1410.5,114.1c-15.4-15.4-33.5-27.4-53.6-35.5-19.4-7.9-40-11.8-61.1-11.8h0Z"/>
  </g>
  <path class="st1" d="M161.8,2546.8c-31.1,0-60.4-12.2-82.6-34.4s-34.4-51.5-34.4-82.6v-1067.2c0-31.4,12.5-61,35.1-83.3L1213,146.1c22-22,51.4-34.1,82.7-34.1s60.8,12.1,82.7,34.1l1133.1,1133.1c22.7,22.3,35.1,51.9,35.1,83.3v1067.2c0,31.1-12.2,60.4-34.4,82.6-22.2,22.2-51.5,34.4-82.6,34.4H161.8Z"/>
  <path class="st0" d="M161.8,2483.8c-14.5,0-27.6-5.5-38-16-10.4-10.4-16-23.6-16-38v-1067.2c0-14.6,5.6-27.9,16.3-38.4L1257.6,190.7c10.2-10.2,23.4-15.6,38.2-15.6s28,5.4,38.2,15.6l1133.5,1133.5c10.7,10.5,16.3,23.7,16.3,38.4v1067.2c0,14.5-5.5,27.6-16,38-10.4,10.4-23.6,16-38,16H161.8Z"/>
  <path class="st1" d="M1073,967.1c0,67.4-54.6,122-122,122s-122-54.6-122-122,54.6-122,122-122,122,54.6,122,122ZM1483.9,602.8c-71.1,0-128.7,57.6-128.7,128.7s57.6,128.7,128.7,128.7,128.7-57.6,128.7-128.7-57.6-128.7-128.7-128.7ZM1016.6,1090.1c-19.6,10.5-41.9,16.5-65.7,16.5s-22.1-1.3-32.6-3.8l-73,77.7-74.4,237.2-141.3,134.2,40.7,38.3,167.7-110.3,21.6-88.5,26.4,81.4-107.8,333,38.3,12.1-112.7,424.1,60,21.6,160.5-424.1,64.7,4.8,177.4,412,62.3-19.2-127-400.1c12.9-2.8,25.5-6.5,38.5-9.3,11.3-2.6,22.4-6.2,33.5-9.8l-64.7-198.9,160.5-38.3-33.5-163.1h-38.3l26.2-40.7-4.7-9.5,138.9-38.5,35.9-62.3,52.8,220.5-103,325.9-28.8,496.1,112.7,9.7,40.7-412.2,69.5-153.4,52.6,210.8,196.5,366.7,103-50.4-184.4-381,19.2-328.3,196.5-57.5-52.8-191.7-50.2,7.1,16.7-103-160.6-304.4-86.3-38.3-15.4-36c-24.7,19-55.5,30.3-89,30.3s-9.9-.3-14.8-.7l-5.4,30.4-67.1,62.3-83.9,282.8-122.2,50.4-69.5-153.4-104.4-59.3ZM1101.8,1434.6l-26.4,4.7,24-107.8,21.6,45.6-19.2,57.6ZM1662.6,1139.7l86.3,131.8-21.6,81.4-28.8,7.2-35.9-220.5Z"/>
</svg>