<?xml version="1.0" encoding="UTF-8"?>
<svg id="For_Sheets" xmlns="http://www.w3.org/2000/svg" version="1.1" viewBox="0 0 3531.4 3531.4">
  <!-- Generator: Adobe Illustrator 29.1.0, SVG Export Plug-In . SVG Version: 2.1.0 Build 142)  -->
  <defs>
    <style>
      .st0 {
        fill: #bed73d;
      }

      .st1 {
        fill: #231f20;
      }
    </style>
  </defs>
  <g>
    <g>
      <path class="st0" d="M1765.7,3531.6c-43.3,0-84-16.9-114.6-47.5L47.4,1880.4c-63.2-63.2-63.2-166.1,0-229.3L1651.1,47.4C1681.7,16.7,1722.4-.1,1765.7-.1s84,16.9,114.6,47.5l1603.7,1603.7c63.2,63.2,63.2,166.1,0,229.3l-1603.7,1603.7c-30.6,30.6-71.3,47.5-114.6,47.5Z"/>
      <path class="st1" d="M1765.7,0c41.5,0,82.9,15.8,114.6,47.4l1603.7,1603.7c63.3,63.3,63.3,165.8,0,229.1l-1603.7,1603.7c-31.6,31.6-73.1,47.4-114.6,47.4s-82.9-15.8-114.6-47.4L47.4,1880.3c-63.3-63.3-63.3-165.8,0-229.1L1651.2,47.4C1682.8,15.8,1724.3,0,1765.7,0M1765.7-.3c-43.3,0-84.1,16.9-114.7,47.5L47.3,1651c-30.6,30.6-47.5,71.4-47.5,114.7,0,43.3,16.9,84.1,47.5,114.7l1603.7,1603.7c30.6,30.6,71.4,47.5,114.7,47.5s84.1-16.9,114.7-47.5l1603.7-1603.7c30.6-30.6,47.5-71.4,47.5-114.7,0-43.3-16.9-84.1-47.5-114.7L1880.4,47.3c-30.6-30.6-71.4-47.5-114.7-47.5h0Z"/>
    </g>
    <path class="st1" d="M79.3,1848.4c-45.6-45.6-45.6-119.8,0-165.5L1683,79.3c45.6-45.6,119.8-45.6,165.5,0l1603.7,1603.7c45.6,45.6,45.6,119.8,0,165.5l-1603.7,1603.7c-45.6,45.6-119.8,45.6-165.5,0L79.3,1848.4Z"/>
    <path class="st0" d="M123.8,1803.9c-21.1-21.1-21.1-55.3,0-76.4L1727.5,123.8c21.1-21.1,55.3-21.1,76.4,0l1603.7,1603.7c21.1,21.1,21.1,55.3,0,76.4l-1603.7,1603.7c-21.1,21.1-55.3,21.1-76.4,0L123.8,1803.9Z"/>
  </g>
  <g>
    <g>
      <path class="st1" d="M1224.6,1283.2v50.5h-201.7c2.9-113.4,52.8-169.6,94.2-202.7,31.8-25.4,58-32,58-62.5s-22.7-50.8-50.7-50.8-50.7,22.8-50.7,50.8h-50.8c1.3-56.9,44.5-101.1,101.5-101.1s100.2,45.5,100.2,101.1c0,105.8-113.1,69.6-145.9,214.6h145.9Z"/>
      <path class="st1" d="M1278.6,1153.1c0-188.6,87.5-185.6,106.9-185.6s105.6-2.9,105.6,185.7-86.2,186.8-105.6,186.8-106.9,2.9-106.9-186.9ZM1384.9,1017.9c-10.3,0-56.6-2.1-56.6,135.3s46.4,136.3,56.6,136.3,56.6,2.1,56.6-136.3-46.4-135.3-56.6-135.3Z"/>
    </g>
    <g>
      <path class="st1" d="M1902.1,1131.6l-67,202.1-67-202.1v202.1h-51.8v-360h51.8l67,202.1,67-202.1h51.8v360h-51.8v-202.1Z"/>
      <path class="st1" d="M2084.8,1175.8v157.9h-51.7v-360h107.1c56.7,0,94.5,40.6,94.5,101.1s-34.1,101-94.5,101h-55.5ZM2084.8,1126.5h52.9c30.2,0,46.7-18.9,46.7-51.7s-19.1-50.5-46.6-50.5h-53v102.3Z"/>
      <path class="st1" d="M2456.8,1170.8h-98.4v162.9h-51.7v-360h51.7v146.5h98.3v-146.5h51.7v360h-51.7v-162.9Z"/>
    </g>
  </g>
  <g>
    <path class="st1" d="M1288.7,2459.2h-77.2l-24.1,98.5h-51.9l89.9-360h50.7l89.9,360h-51.9l-25.3-98.5ZM1224.1,2408.7h51.9l-26.6-103.6-25.3,103.6Z"/>
    <path class="st1" d="M1566.4,2394.8h-98.4v162.9h-51.7v-360h51.7v146.5h98.3v-146.5h51.7v360h-51.7v-162.9Z"/>
    <path class="st1" d="M1697.3,2197.7h169.7v50.5h-117.8v90.9h74.7v49.3h-74.7v118.8h131.8v50.5h-183.7v-360Z"/>
    <path class="st1" d="M2066.6,2459.2h-77.2l-24.1,98.5h-51.9l89.9-360h50.7l89.9,360h-51.9l-25.3-98.5ZM2002,2408.7h51.9l-26.6-103.6-25.3,103.6Z"/>
    <path class="st1" d="M2194.2,2557.7v-360h102.7c22,0,98.9,1.1,98.9,179.4s-71.1,180.6-94.7,180.6h-107ZM2286.3,2248.3h-40.4v258.9h35.9c42.1,0,63.7-18.4,63.7-127.6s-31.5-131.4-59.2-131.4Z"/>
  </g>
  <g>
    <g>
      <path class="st1" d="M2150.1,1890.3l136.2-254.2h-122v-50.4h187.5v32.8l-147.7,278.1h147.7v49.1h-201.7v-55.4Z"/>
      <path class="st1" d="M2405.8,1765c0-188.5,87.4-185.5,106.8-185.5s105.7-2.9,105.7,185.6-86.3,186.9-105.7,186.9-106.8,3-106.8-187ZM2512.1,1630c-10.3,0-56.7-2.1-56.7,135.3s46.4,136.3,56.7,136.3,56.6,2.1,56.6-136.3-46.3-135.3-56.6-135.3Z"/>
      <path class="st1" d="M2742,1704.5v241.2h-51.7v-360h51.7l98.3,216v-216h51.7v360h-39.1l-111-241.2Z"/>
      <path class="st1" d="M2971.2,1585.7h169.7v50.5h-117.8v90.9h74.7v49.3h-74.7v118.8h131.8v50.5h-183.7v-360Z"/>
    </g>
    <g>
      <path class="st1" d="M479.8,1716.8c39.4,24.7,98.4,59.3,98.4,130.4s-44.4,104.8-100.2,104.8-101.5-53.6-101.5-112.4h50.8c0,30.6,15.2,61.9,50.7,61.9s50.7-25.2,50.7-54.3c0-78.3-134.4-73.8-134.4-174.3s40.6-93.4,92.6-93.4,90.1,39.1,91.3,93.5h-49.5c-1.3-25.2-19-41.7-41.8-41.7s-43.1,17.6-43.1,41.6,12.4,29.2,36,44Z"/>
      <path class="st1" d="M781.9,1681.7c-5-35.4-19-51.8-43.1-51.8-41.8,0-57.1,32.8-57.1,126.3s17.8,145.3,62.2,145.3,38-25.3,38-51.8h52c-1.3,59.4-39.3,102.3-90,102.3-77.4,0-111.6-61.9-111.6-194.5s36.8-178,107.8-178,92.1,60.2,93.9,102.2h-52Z"/>
      <path class="st1" d="M1056,1782.8h-98.4v162.9h-51.7v-360h51.7v146.5h98.3v-146.5h51.7v360h-51.7v-162.9Z"/>
      <path class="st1" d="M1179.6,1765c0-188.5,87.4-185.5,106.8-185.5s105.7-2.9,105.7,185.6-86.3,186.9-105.7,186.9-106.8,3-106.8-187ZM1285.9,1630c-10.3,0-56.7-2.1-56.7,135.3s46.4,136.3,56.7,136.3,56.6,2.1,56.6-136.3-46.3-135.3-56.6-135.3Z"/>
      <path class="st1" d="M1456.9,1765c0-188.5,87.4-185.5,106.8-185.5s105.7-2.9,105.7,185.6-86.3,186.9-105.7,186.9-106.8,3-106.8-187ZM1563.2,1630c-10.3,0-56.7-2.1-56.7,135.3s46.4,136.3,56.7,136.3,56.6,2.1,56.6-136.3-46.3-135.3-56.6-135.3Z"/>
      <path class="st1" d="M1741.4,1585.7h51.9v312h131.8v48h-183.7v-360Z"/>
    </g>
  </g>
</svg>