<?xml version="1.0" encoding="UTF-8"?>
<svg id="For_Sheets" xmlns="http://www.w3.org/2000/svg" version="1.1" viewBox="0 0 2592 3456">
  <!-- Generator: Adobe Illustrator 29.1.0, SVG Export Plug-In . SVG Version: 2.1.0 Build 142)  -->
  <defs>
    <style>
      .st0 {
        fill: #231f20;
      }

      .st1 {
        fill: #fff;
      }
    </style>
  </defs>
  <g>
    <path class="st1" d="M162,3456.1c-43.1,0-83.8-16.9-114.5-47.6-30.7-30.7-47.6-71.4-47.6-114.5V162C-.1,118.9,16.8,78.2,47.5,47.5,78.2,16.8,118.9-.1,162-.1h2268c43.1,0,83.8,16.9,114.5,47.6,30.7,30.7,47.6,71.4,47.6,114.5v3132c0,43.1-16.9,83.8-47.6,114.5s-71.4,47.6-114.5,47.6H162Z"/>
    <path class="st0" d="M2430,0c89.1,0,162,72.9,162,162v3132c0,89.1-72.9,162-162,162H162c-89.1,0-162-72.9-162-162V162C0,72.9,72.9,0,162,0h2268M2430-.2H162c-21.8,0-43,4.3-63,12.8-19.3,8.2-36.7,19.9-51.6,34.9-14.9,14.9-26.7,32.3-34.9,51.6C4.1,119-.2,140.2-.2,162v3132c0,21.8,4.3,43,12.8,63,8.2,19.3,19.9,36.7,34.9,51.6,14.9,14.9,32.3,26.7,51.6,34.9,20,8.5,41.2,12.8,63,12.8h2268c21.8,0,43-4.3,63-12.8,19.3-8.2,36.7-19.9,51.6-34.9,14.9-14.9,26.7-32.3,34.9-51.6,8.5-20,12.8-41.2,12.8-63V162c0-21.8-4.3-43-12.8-63-8.2-19.3-19.9-36.7-34.9-51.6-14.9-14.9-32.3-26.7-51.6-34.9-20-8.5-41.2-12.8-63-12.8h0Z"/>
  </g>
  <path class="st0" d="M162,3411c-31.1,0-60.4-12.2-82.6-34.4-22.2-22.2-34.4-51.5-34.4-82.6V162c0-31.1,12.2-60.4,34.4-82.6,22.2-22.2,51.5-34.4,82.6-34.4h2268c31.1,0,60.4,12.2,82.6,34.4,22.2,22.2,34.4,51.5,34.4,82.6v3132c0,31.1-12.2,60.4-34.4,82.6-22.2,22.2-51.5,34.4-82.6,34.4H162Z"/>
  <path class="st1" d="M162,3348c-14.5,0-27.6-5.5-38-16-10.4-10.4-16-23.6-16-38V162c0-14.5,5.5-27.6,16-38s23.6-16,38-16h2268c14.5,0,27.6,5.5,38,16,10.4,10.4,16,23.6,16,38v3132c0,14.5-5.5,27.6-16,38-10.4,10.4-23.6,16-38,16H162Z"/>
  <g>
    <path class="st0" d="M859.5,720h203.7v60.6h-141.4v109.1h89.6v59.1h-89.6v142.5h158.1v60.6h-220.4v-432Z"/>
    <path class="st0" d="M1215.4,862.5v289.5h-62v-432h62l118,259.2v-259.2h62v432h-46.9l-133.2-289.5Z"/>
    <path class="st0" d="M1490.5,1152v-432h123.3c26.4,0,118.7,1.3,118.7,215.2s-85.3,216.8-113.6,216.8h-128.4ZM1600.9,780.6h-48.4v310.7h43.1c50.5,0,76.4-22.1,76.4-153.1s-37.9-157.6-71.1-157.6Z"/>
  </g>
  <g>
    <path class="st0" d="M490.8,1669.4c47.2,29.6,118.1,71.2,118.1,156.4s-53.3,125.8-120.3,125.8-121.8-64.4-121.8-134.9h60.9c0,36.8,18.3,74.3,60.9,74.3s60.9-30.3,60.9-65.2c0-93.9-161.3-88.5-161.3-209.2s48.7-112.1,111.1-112.1,108.1,47,109.6,112.2h-59.4c-1.5-30.3-22.8-50-50.2-50s-51.7,21.2-51.7,49.9,14.9,35,43.3,52.8Z"/>
    <path class="st0" d="M853.3,1627.2c-6-42.4-22.8-62.2-51.7-62.2-50.2,0-68.5,39.4-68.5,151.5s21.3,174.3,74.6,174.3,45.6-30.3,45.6-62.2h62.4c-1.5,71.2-47.1,122.8-108,122.8-92.8,0-134-74.2-134-233.4s44.1-213.6,129.4-213.6,110.5,72.2,112.6,122.7h-62.4Z"/>
    <path class="st0" d="M1182.2,1748.5h-118v195.5h-62v-432h62v175.8h118v-175.8h62v432h-62v-195.5Z"/>
    <path class="st0" d="M1330.6,1727.1c0-226.2,104.9-222.6,128.2-222.6s126.8-3.5,126.8,222.7-103.5,224.3-126.8,224.3-128.2,3.6-128.2-224.4ZM1458.1,1565.1c-12.3,0-68-2.5-68,162.3s55.7,163.5,68,163.5,67.9,2.5,67.9-163.5-55.6-162.3-67.9-162.3Z"/>
    <path class="st0" d="M1663.3,1727.1c0-226.2,104.9-222.6,128.2-222.6s126.8-3.5,126.8,222.7-103.5,224.3-126.8,224.3-128.2,3.6-128.2-224.4ZM1790.8,1565.1c-12.3,0-68-2.5-68,162.3s55.7,163.5,68,163.5,67.9,2.5,67.9-163.5-55.6-162.3-67.9-162.3Z"/>
    <path class="st0" d="M2004.7,1512h62.3v374.4h158.1v57.6h-220.4v-432Z"/>
  </g>
  <g>
    <path class="st0" d="M693.1,2669.5l163.4-305.1h-146.4v-60.4h225v39.3l-177.2,333.8h177.3v58.9h-242v-66.5Z"/>
    <path class="st0" d="M1000,2519.1c0-226.2,104.9-222.6,128.2-222.6s126.8-3.5,126.8,222.7-103.5,224.3-126.8,224.3-128.2,3.6-128.2-224.4ZM1127.5,2357.1c-12.3,0-68-2.5-68,162.3s55.7,163.5,68,163.5,67.9,2.5,67.9-163.5-55.6-162.3-67.9-162.3Z"/>
    <path class="st0" d="M1403.4,2446.5v289.5h-62v-432h62l118,259.2v-259.2h62v432h-46.9l-133.2-289.5Z"/>
    <path class="st0" d="M1678.4,2304h203.7v60.6h-141.4v109.1h89.6v59.1h-89.6v142.5h158.1v60.6h-220.4v-432Z"/>
  </g>
</svg>