<?xml version="1.0" encoding="UTF-8"?>
<svg id="For_Sheets" xmlns="http://www.w3.org/2000/svg" version="1.1" viewBox="0 0 3531.4 3531.4">
  <!-- Generator: Adobe Illustrator 29.1.0, SVG Export Plug-In . SVG Version: 2.1.0 Build 142)  -->
  <defs>
    <style>
      .st0 {
        fill: #231f20;
      }

      .st1 {
        fill: #ffd046;
      }
    </style>
  </defs>
  <g>
    <path class="st1" d="M1765.7,3531.6c-43.3,0-84-16.9-114.6-47.5L47.4,1880.4c-63.2-63.2-63.2-166.1,0-229.3L1651.1,47.4C1681.7,16.7,1722.4-.1,1765.7-.1s84,16.9,114.6,47.5l1603.7,1603.7c63.2,63.2,63.2,166.1,0,229.3l-1603.7,1603.7c-30.6,30.6-71.3,47.5-114.6,47.5Z"/>
    <path class="st0" d="M1765.7,0c41.5,0,82.9,15.8,114.6,47.4l1603.7,1603.7c63.3,63.3,63.3,165.8,0,229.1l-1603.7,1603.7c-31.6,31.6-73.1,47.4-114.6,47.4s-82.9-15.8-114.6-47.4L47.4,1880.3c-63.3-63.3-63.3-165.8,0-229.1L1651.2,47.4C1682.8,15.8,1724.3,0,1765.7,0M1765.7-.3c-43.3,0-84.1,16.9-114.7,47.5L47.3,1651c-30.6,30.6-47.5,71.4-47.5,114.7,0,43.3,16.9,84.1,47.5,114.7l1603.7,1603.7c30.6,30.6,71.4,47.5,114.7,47.5s84.1-16.9,114.7-47.5l1603.7-1603.7c30.6-30.6,47.5-71.4,47.5-114.7s-16.9-84.1-47.5-114.7L1880.4,47.3c-30.6-30.6-71.4-47.5-114.7-47.5h0Z"/>
  </g>
  <path class="st0" d="M79.3,1848.4c-45.6-45.6-45.6-119.8,0-165.5L1683,79.3c45.6-45.6,119.8-45.6,165.5,0l1603.7,1603.7c45.6,45.6,45.6,119.8,0,165.5l-1603.7,1603.7c-45.6,45.6-119.8,45.6-165.5,0L79.3,1848.4Z"/>
  <path class="st1" d="M123.8,1803.9c-21.1-21.1-21.1-55.3,0-76.4L1727.5,123.8c21.1-21.1,55.3-21.1,76.4,0l1603.7,1603.7c21.1,21.1,21.1,55.3,0,76.4l-1603.7,1603.7c-21.1,21.1-55.3,21.1-76.4,0L123.8,1803.9Z"/>
  <g>
    <path class="st0" d="M1649.5,2177.1l25.7-14.8c13.7-7.9,30.4-6.5,42.5,2.1-1.4-14.9,5.7-30,19.4-37.9l25.7-14.8c18.7-10.8,42.8-4.3,53.6,14.4l65.4,113.2c10.8,18.7,4.3,42.8-14.4,53.6l-25.7,14.8c-13.7,7.9-30.4,6.5-42.5-2.1,1.4,14.9-5.7,30-19.4,37.9l-25.7,14.8c-18.7,10.8-42.8,4.3-53.6-14.4l-65.4-113.2c-10.8-18.7-4.3-42.8,14.4-53.6Z"/>
    <path class="st0" d="M2066.4,1936.4l25.7-14.8c13.7-7.9,30.4-6.5,42.5,2.1-1.4-14.9,5.7-30,19.4-37.9l25.7-14.8c18.7-10.8,42.8-4.3,53.6,14.4l65.4,113.2c10.8,18.7,4.3,42.8-14.4,53.6l-25.7,14.8c-13.7,7.9-30.4,6.5-42.5-2.1,1.4,14.9-5.7,30-19.4,37.9l-25.7,14.8c-18.7,10.8-42.8,4.3-53.6-14.4l-65.4-113.2c-10.8-18.7-4.3-42.8,14.4-53.6Z"/>
    <rect class="st0" x="1354.6" y="1255.6" width="692.7" height="796.8" transform="translate(-599.1 1072.1) rotate(-30)"/>
  </g>
  <rect class="st0" x="991.7" y="2404.7" width="1548" height="90"/>
  <g>
    <path class="st0" d="M982.7,1819.3h-243v-162c0-99.2,16-197.2,47.4-291.3,31.5-94.1,77.7-182,137.4-261.2,74.6-98.9,166.3-180.3,272.7-242,102.7-59.5,214.7-98.1,332.7-114.6,118-16.6,236.2-10.4,351.4,18.5,119.3,29.9,229.9,82.9,328.9,157.4l134.4,101.3-146.2,194.1-134.4-101.3c-72.8-54.9-154.1-93.8-241.7-115.8-84.6-21.2-171.6-25.8-258.5-13.6-86.9,12.2-169.2,40.6-244.7,84.3-78.1,45.2-145.6,105.1-200.4,177.9-43.9,58.3-77.9,122.9-101,192.1-23.1,69.2-34.9,141.2-34.9,214.2v162Z"/>
    <path class="st0" d="M2359.8,848.2c1.4-3.7,3.3-7,5.5-10,13.5-17.9,38.9-21.4,56.7-8,6.3,4.7,11.3,11.4,14,19.4l179.1,531.8-560.6-25.6c-8.5-.4-16.2-3.4-22.5-8.1-17.9-13.5-21.4-38.9-8-56.7,2.3-3,5-5.7,8.1-8.1l227.2-169.6,100.4-265.1Z"/>
  </g>
</svg>