<?xml version="1.0" encoding="UTF-8"?>
<svg id="For_Sheets" xmlns="http://www.w3.org/2000/svg" version="1.1" viewBox="0 0 3531.9 3531.9">
  <!-- Generator: Adobe Illustrator 29.1.0, SVG Export Plug-In . SVG Version: 2.1.0 Build 142)  -->
  <defs>
    <style>
      .st0 {
        fill: #231f20;
      }

      .st1 {
        fill: #ffd046;
      }
    </style>
  </defs>
  <g>
    <path class="st1" d="M1766,3531.8c-43.3,0-84-16.9-114.6-47.5L47.6,1880.6c-63.2-63.2-63.2-166.1,0-229.3L1651.3,47.6C1682,17,1722.7.1,1766,.1s84,16.9,114.6,47.5l1603.7,1603.7c63.2,63.2,63.2,166.1,0,229.3l-1603.7,1603.7c-30.6,30.6-71.3,47.5-114.6,47.5Z"/>
    <path class="st0" d="M1766,.3c41.5,0,82.9,15.8,114.6,47.4l1603.7,1603.7c63.3,63.3,63.3,165.8,0,229.1l-1603.7,1603.7c-31.6,31.6-73.1,47.4-114.6,47.4s-82.9-15.8-114.6-47.4L47.7,1880.5c-63.3-63.3-63.3-165.8,0-229.1L1651.4,47.7c31.6-31.6,73.1-47.4,114.6-47.4M1766,0c-43.3,0-84.1,16.9-114.7,47.5L47.5,1651.2C16.9,1681.9,0,1722.6,0,1766c0,43.3,16.9,84.1,47.5,114.7l1603.7,1603.7c30.6,30.6,71.4,47.5,114.7,47.5s84.1-16.9,114.7-47.5l1603.7-1603.7c30.6-30.6,47.5-71.4,47.5-114.7s-16.9-84.1-47.5-114.7L1880.7,47.5C1850.1,16.9,1809.3,0,1766,0h0Z"/>
  </g>
  <path class="st0" d="M79.5,1848.7c-45.6-45.6-45.6-119.8,0-165.5L1683.2,79.5c45.6-45.6,119.8-45.6,165.5,0l1603.7,1603.7c45.6,45.6,45.6,119.8,0,165.5l-1603.7,1603.7c-45.6,45.6-119.8,45.6-165.5,0L79.5,1848.7Z"/>
  <path class="st1" d="M124.1,1804.2c-21.1-21.1-21.1-55.3,0-76.4L1727.8,124.1c21.1-21.1,55.3-21.1,76.4,0l1603.7,1603.7c21.1,21.1,21.1,55.3,0,76.4l-1603.7,1603.7c-21.1,21.1-55.3,21.1-76.4,0L124.1,1804.2Z"/>
  <path class="st0" d="M1977.8,1745.5c.9,6.2,2.7,12,5.3,17.4,15,32.1,53.1,46,85.2,31,11.3-5.3,21.2-13.9,28.1-25.5l452.5-764.7-876.6-144.9c-13.3-2.2-26.2-.1-37.6,5.1-32.1,15-46,53.1-31,85.2,2.5,5.4,5.8,10.5,9.9,15.2l296,337.4,68.2,443.7Z"/>
  <path class="st0" d="M1470.5,2612h-384.8v-643.9c0-145.6,40.9-287.8,118.1-411.5,79.4-127.3,193.4-228.1,329.7-291.7l360-167.9,162.6,348.7-360.1,167.9c-68.7,32-126,82.7-165.9,146.7-39,62.5-59.7,134.4-59.7,207.9v643.7Z"/>
</svg>