<?xml version="1.0" encoding="UTF-8"?>
<svg id="For_Sheets" xmlns="http://www.w3.org/2000/svg" version="1.1" viewBox="0 0 2160 2592">
  <!-- Generator: Adobe Illustrator 29.1.0, SVG Export Plug-In . SVG Version: 2.1.0 Build 142)  -->
  <defs>
    <style>
      .st0 {
        fill: #231f20;
      }

      .st1 {
        fill: #ffd046;
      }
    </style>
  </defs>
  <g>
    <path class="st1" d="M135,2592.1c-35.9,0-69.8-14.1-95.4-39.7-25.6-25.6-39.7-59.5-39.7-95.4V135C-.1,99.1,14,65.2,39.6,39.6S99.1-.1,135-.1h1890c35.9,0,69.8,14.1,95.4,39.7,25.6,25.6,39.7,59.5,39.7,95.4v2322c0,35.9-14.1,69.8-39.7,95.4-25.6,25.6-59.5,39.7-95.4,39.7H135Z"/>
    <path class="st0" d="M2025,0c74.2,0,135,60.8,135,135v2322c0,74.2-60.8,135-135,135H135c-74.2,0-135-60.8-135-135V135C0,60.8,60.8,0,135,0h1890M2025-.2H135C99-.2,65.1,13.9,39.5,39.5,13.9,65.1-.2,99-.2,135v2322c0,36,14.1,69.9,39.7,95.5,25.6,25.6,59.5,39.7,95.5,39.7h1890c36,0,69.9-14.1,95.5-39.7,25.6-25.6,39.7-59.5,39.7-95.5V135c0-36-14.1-69.9-39.7-95.5-25.6-25.6-59.5-39.7-95.5-39.7h0Z"/>
  </g>
  <polygon class="st0" points="2088 72 1080 1296 2088 2520 1080 2520 72 1296 1080 72 2088 72"/>
</svg>