<?xml version="1.0" encoding="UTF-8"?>
<svg id="For_Sheets" xmlns="http://www.w3.org/2000/svg" version="1.1" viewBox="0 0 3531.4 3531.4">
  <!-- Generator: Adobe Illustrator 29.1.0, SVG Export Plug-In . SVG Version: 2.1.0 Build 142)  -->
  <defs>
    <style>
      .st0 {
        fill: #231f20;
      }

      .st1 {
        fill: #ffd046;
      }
    </style>
  </defs>
  <g>
    <path class="st1" d="M1765.7,3531.6c-43.3,0-84-16.9-114.6-47.5L47.4,1880.4c-63.2-63.2-63.2-166.1,0-229.3L1651.1,47.4C1681.7,16.7,1722.4-.1,1765.7-.1s84,16.9,114.6,47.5l1603.7,1603.7c63.2,63.2,63.2,166.1,0,229.3l-1603.7,1603.7c-30.6,30.6-71.3,47.5-114.6,47.5Z"/>
    <path class="st0" d="M1765.7,0c41.5,0,82.9,15.8,114.6,47.4l1603.7,1603.7c63.3,63.3,63.3,165.8,0,229.1l-1603.7,1603.7c-31.6,31.6-73.1,47.4-114.6,47.4s-82.9-15.8-114.6-47.4L47.4,1880.3c-63.3-63.3-63.3-165.8,0-229.1L1651.2,47.4C1682.8,15.8,1724.3,0,1765.7,0M1765.7-.3c-43.3,0-84.1,16.9-114.7,47.5L47.3,1651c-30.6,30.6-47.5,71.4-47.5,114.7,0,43.3,16.9,84.1,47.5,114.7l1603.7,1603.7c30.6,30.6,71.4,47.5,114.7,47.5s84.1-16.9,114.7-47.5l1603.7-1603.7c30.6-30.6,47.5-71.4,47.5-114.7s-16.9-84.1-47.5-114.7L1880.4,47.3c-30.6-30.6-71.4-47.5-114.7-47.5h0Z"/>
  </g>
  <path class="st0" d="M79.3,1848.4c-45.6-45.6-45.6-119.8,0-165.5L1683,79.3c45.6-45.6,119.8-45.6,165.5,0l1603.7,1603.7c45.6,45.6,45.6,119.8,0,165.5l-1603.7,1603.7c-45.6,45.6-119.8,45.6-165.5,0L79.3,1848.4Z"/>
  <path class="st1" d="M123.8,1803.9c-21.1-21.1-21.1-55.3,0-76.4L1727.5,123.8c21.1-21.1,55.3-21.1,76.4,0l1603.7,1603.7c21.1,21.1,21.1,55.3,0,76.4l-1603.7,1603.7c-21.1,21.1-55.3,21.1-76.4,0L123.8,1803.9Z"/>
  <g>
    <path class="st0" d="M2229,2687l-110.6-227.7c69.2-33.5,132.4-78.5,187.3-132.4,55.3-54.4,100.8-117.1,135.7-185.9,34.9-68.8,58.1-142.7,69.2-219.3,11.2-76.2,9.8-153.8-4.2-229.5h0s-118.5,108.3-118.5,108.3c-6.5,6-14.4,9.8-23.2,10.7-8.4.9-17.2-.5-25.1-4.6-7.4-3.7-13.9-10.2-17.7-18.1-4.2-7.4-5.6-16.3-4.2-25.1l83.7-578.5,508.9,287.2c7.4,4.6,13.5,11.2,17.2,18.6,3.7,7.9,5.1,16.7,3.7,25.6-1.4,8.4-5.6,16.3-11.6,22.8-6.5,6-14.4,10.2-22.8,11.6h0s-156.6,27.4-156.6,27.4c27.9,106.9,36.7,217.9,27,327.6-9.8,110.1-38.1,217.9-84.6,317.8-46,100.4-109.2,192.4-186.4,271.4-77.6,78.5-167.8,144-267.2,192.4h0Z"/>
    <path class="st0" d="M1501.7,1405c7.9-3.3,14.9-8.8,19.5-15.8,4.6-7.4,7-16.3,7-24.6-.5-8.8-3.7-17.2-8.8-24.2s-12.5-12.1-20.9-14.4l-152.9-48.8h0c58.6-49.7,125.5-89.7,197-118.5,71.6-28.3,147.3-45.1,224.5-49.3,76.7-4.6,153.8,3.7,228.2,24.2,74.4,20.4,145,53,209.1,96.2l141.3-210c-91.6-61.3-192.9-107.3-300.2-134.8-106.9-27.4-218-36.2-327.6-26-110.1,10.2-217.5,39-317.9,85.5-99.9,46.9-191.5,110.1-270.5,187.7h0l-101.8-122.2h0c-5.6-6.5-13-11.2-21.8-13.5-8.4-2.3-17.2-1.9-25.1.9-8.4,3.3-15.3,8.8-20.4,15.8-4.6,7-7.4,15.8-7.4,24.2l6,584.5,542.8-217h0Z"/>
    <path class="st0" d="M1555.6,2949.5l503.3-296.9-459.6-361.5h0c-6.5-5.6-14.9-8.8-23.7-9.3-8.8-.5-17.2,1.9-24.6,6.5-7.4,4.6-13,11.6-16.7,19.5-3.3,7.9-4.2,16.7-2.3,25.6h0s34.9,156.6,34.9,156.6c-72.5-26-140.8-63.7-201.2-111.1-60.4-47.9-112.9-105-155.2-169.6-42.3-64.6-73.4-135.7-92.9-210.5-19.5-74.3-26.5-151.9-21.4-228.6l-252.3-17.7h0c-7.4,110.1,3.7,220.7,33.5,327.1,29.7,106.4,77.6,206.8,141.3,297.4,63.7,90.1,142.7,168.7,232.8,231.9,90.6,63.7,191,111.1,297.9,140.8h0s-54.8,149.2-54.8,149.2h0c-2.8,8.4-3.3,17.2-.9,25.6,2.3,8.4,7,15.8,13.5,21.4,7,5.6,14.9,8.8,23.7,9.8,8.8.5,17.2-1.4,25.1-6h0Z"/>
  </g>
</svg>