<?xml version="1.0" encoding="UTF-8"?>
<svg id="For_Sheets" xmlns="http://www.w3.org/2000/svg" version="1.1" viewBox="0 0 3531.4 3531.4">
  <!-- Generator: Adobe Illustrator 29.1.0, SVG Export Plug-In . SVG Version: 2.1.0 Build 142)  -->
  <defs>
    <style>
      .st0 {
        fill: #231f20;
      }

      .st1 {
        fill: #ffd046;
      }

      .st2 {
        fill-rule: evenodd;
      }
    </style>
  </defs>
  <g>
    <g>
      <path class="st1" d="M1765.7,3531.6c-43.3,0-84-16.9-114.6-47.5L47.4,1880.4c-63.2-63.2-63.2-166.1,0-229.3L1651.1,47.4C1681.7,16.7,1722.4-.1,1765.7-.1c43.3,0,84,16.9,114.6,47.5l1603.7,1603.7c63.2,63.2,63.2,166.1,0,229.3l-1603.7,1603.7c-30.6,30.6-71.3,47.5-114.6,47.5Z"/>
      <path class="st0" d="M1765.7,0c41.5,0,82.9,15.8,114.6,47.4l1603.7,1603.7c63.3,63.3,63.3,165.8,0,229.1l-1603.7,1603.7c-31.6,31.6-73.1,47.4-114.6,47.4s-82.9-15.8-114.6-47.4L47.4,1880.3c-63.3-63.3-63.3-165.8,0-229.1L1651.2,47.4C1682.8,15.8,1724.3,0,1765.7,0M1765.7-.3c-43.3,0-84.1,16.9-114.7,47.5L47.3,1651c-30.6,30.6-47.5,71.4-47.5,114.7s16.9,84.1,47.5,114.7l1603.7,1603.7c30.6,30.6,71.4,47.5,114.7,47.5s84.1-16.9,114.7-47.5l1603.7-1603.7c30.6-30.6,47.5-71.4,47.5-114.7s-16.9-84.1-47.5-114.7L1880.4,47.3c-30.6-30.6-71.4-47.5-114.7-47.5h0Z"/>
    </g>
    <path class="st0" d="M1683,3452.2c45.6,45.6,119.8,45.6,165.5,0l1603.7-1603.7c45.6-45.6,45.6-119.8,0-165.5L1848.4,79.3c-45.6-45.6-119.8-45.6-165.5,0L79.3,1683c-45.6,45.6-45.6,119.8,0,165.5l1603.7,1603.7Z"/>
    <path class="st1" d="M1727.5,3407.6c21.1,21.1,55.3,21.1,76.4,0l1603.7-1603.7c21.1-21.1,21.1-55.3,0-76.4L1803.9,123.8c-21.1-21.1-55.3-21.1-76.4,0L123.8,1727.5c-21.1,21.1-21.1,55.3,0,76.4l1603.7,1603.7Z"/>
  </g>
  <polygon class="st2" points="1657.7 1968.2 1117.7 1968.2 1117.7 2400.2 1657.7 2400.2 1657.7 2940.2 2089.7 2940.2 2089.7 591.2 1657.7 591.2 1657.7 1131.2 1117.7 1131.2 1117.7 1563.2 1657.7 1563.2 1657.7 1968.2"/>
</svg>