<?xml version="1.0" encoding="UTF-8"?>
<svg id="For_Sheets" xmlns="http://www.w3.org/2000/svg" version="1.1" viewBox="0 0 3531.4 3531.4">
  <!-- Generator: Adobe Illustrator 29.1.0, SVG Export Plug-In . SVG Version: 2.1.0 Build 142)  -->
  <defs>
    <style>
      .st0 {
        fill: #231f20;
      }

      .st1 {
        fill: #ffd046;
      }

      .st2 {
        fill: #fff;
      }
    </style>
  </defs>
  <g>
    <g>
      <path class="st1" d="M1765.7,3531.6c-43.3,0-84-16.9-114.6-47.5L47.4,1880.4c-63.2-63.2-63.2-166.1,0-229.3L1651.1,47.4C1681.7,16.7,1722.4-.1,1765.7-.1s84,16.9,114.6,47.5l1603.7,1603.7c63.2,63.2,63.2,166.1,0,229.3l-1603.7,1603.7c-30.6,30.6-71.3,47.5-114.6,47.5Z"/>
      <path class="st0" d="M1765.7,0c41.5,0,82.9,15.8,114.6,47.4l1603.7,1603.7c63.3,63.3,63.3,165.8,0,229.1l-1603.7,1603.7c-31.6,31.6-73.1,47.4-114.6,47.4s-82.9-15.8-114.6-47.4L47.4,1880.3c-63.3-63.3-63.3-165.8,0-229.1L1651.2,47.4C1682.8,15.8,1724.3,0,1765.7,0M1765.7-.3V0v-.2c-43.4,0-84.1,16.9-114.7,47.5L47.3,1651c-30.6,30.6-47.5,71.4-47.5,114.7s16.9,84.1,47.5,114.7l1603.7,1603.7c30.6,30.6,71.4,47.5,114.7,47.5s84.1-16.9,114.7-47.5l1603.7-1603.7c30.6-30.6,47.5-71.4,47.5-114.7s-16.9-84.1-47.5-114.7L1880.4,47.3c-30.6-30.6-71.4-47.5-114.7-47.5h0Z"/>
    </g>
    <path class="st0" d="M1848.4,3452.2c-45.6,45.6-119.8,45.6-165.5,0L79.3,1848.4c-45.6-45.6-45.6-119.8,0-165.5L1683,79.3c45.6-45.6,119.8-45.6,165.5,0l1603.7,1603.7c45.6,45.6,45.6,119.8,0,165.5l-1603.7,1603.7Z"/>
    <path class="st1" d="M1803.9,3407.6c-21.1,21.1-55.3,21.1-76.4,0L123.8,1803.9c-21.1-21.1-21.1-55.3,0-76.4L1727.5,123.8c21.1-21.1,55.3-21.1,76.4,0l1603.7,1603.7c21.1,21.1,21.1,55.3,0,76.4l-1603.7,1603.7Z"/>
  </g>
  <rect class="st2" x="1117.7" y="1117.7" width="1296" height="1728" rx="162" ry="162"/>
  <rect class="st0" x="1144.7" y="1144.7" width="1242" height="1674" rx="135" ry="135"/>
  <rect class="st2" x="1189.7" y="1189.7" width="1152" height="1584" rx="90" ry="90"/>
  <g>
    <path class="st0" d="M1402.6,1466.9c-15.2,9.2-34.9,14.6-54.8,14.6-37.3,0-65.5-13.8-89.8-42.3l31.2-24.6c16,19.2,33.5,27.7,57.8,27.7s47.2-12.9,47.2-28.4-21.9-23.4-82.3-40.4c-30.4-8.5-44-31.7-44-54.9,0-36.2,30.5-60.7,74.6-60.7s58.7,10.7,80.7,33.8l-28.9,26.1c-13.7-14.6-31.2-21.5-51.8-21.5s-35,9.6-35,22c0,23.9,29.4,18.7,83.1,37.6,37.9,13.4,42.4,45.8,42.4,59.5,0,22.3-9.9,39.2-30.5,51.5Z"/>
    <path class="st0" d="M1515.7,1392.8v84.9h-39.4v-216h105.7c45.5,0,69.4,34.6,69.4,65.6s-21.4,65.6-67.7,65.6h-67.9ZM1515.7,1300.4v53.8h65.3c18.9,0,31.8-10.6,31.8-26.5s-12.6-27.3-31.9-27.3h-65.2Z"/>
    <path class="st0" d="M1688,1261.7h158.2v38.7h-118.6v40.1h64.6v39.4h-64.6v59.1h122.4v38.7h-162v-216Z"/>
    <path class="st0" d="M1893.2,1261.7h158.2v38.7h-118.6v40.1h64.6v39.4h-64.6v59.1h122.4v38.7h-162v-216Z"/>
    <path class="st0" d="M2098.4,1477.7v-216h71.4c68.7,0,103.7,52.1,103.7,107.6s-38.5,108.4-103.4,108.4h-71.7ZM2168.1,1300.4h-30.2v138.7h29.9c34.6,0,67.1-22.8,67.1-69.7s-27.3-69-66.9-69Z"/>
  </g>
  <g>
    <path class="st0" d="M1370.4,1549.7h38.8v182.7h123.2v33.3h-162v-216Z"/>
    <path class="st0" d="M1569.1,1549.7h38.9v216h-38.9v-216Z"/>
    <path class="st0" d="M1829.2,1633.8l-63.9,131.9-63.2-131.9v131.9h-38v-216h38l63.2,128.1,63.9-128.1h38v216h-38v-131.9Z"/>
    <path class="st0" d="M1923.5,1549.7h38.9v216h-38.9v-216Z"/>
    <path class="st0" d="M2099,1765.7h-37.9v-178.1h-62.1v-37.9h162v37.9h-62.1v178.1Z"/>
  </g>
  <g>
    <path class="st0" d="M1229.8,2641.1l82.3-88c42.7,30.3,76.1,42.6,118.8,42.6,93.3,0,161.4-84.9,161.4-203.1s-45.7-151.6-118.8-151.6-73,15-103.5,42.4l-118.8-15.1,21.3-430.5h407.9v121.3h-292.2l-9.1,181.9c42.4-15.1,63.8-18.1,97.3-18.1,140.1,0,237.5,110.4,237.5,275.9s-114.7,318.2-271,318.2-149.3-27.2-213.1-75.7Z"/>
    <path class="st0" d="M1817.6,2641.1l82.3-88c42.7,30.3,76.1,42.6,118.8,42.6,93.3,0,161.4-84.9,161.4-203.1s-45.7-151.6-118.8-151.6-73,15-103.5,42.4l-118.8-15.1,21.3-430.5h407.9v121.3h-292.2l-9.1,181.9c42.4-15.1,63.8-18.1,97.3-18.1,140.1,0,237.5,110.4,237.5,275.9s-114.7,318.2-271,318.2-149.3-27.2-213.1-75.7Z"/>
  </g>
  <path class="st0" d="M1765.7,181.7l-639.4,601.4c-19.1,17.9-3.9,49.7,22,46.3l401.4-53.6v270h432v-270l401.4,53.6c25.9,3.5,41.1-28.4,22-46.3L1765.7,181.7Z"/>
</svg>