<?xml version="1.0" encoding="UTF-8"?>
<svg id="For_Sheets" xmlns="http://www.w3.org/2000/svg" version="1.1" viewBox="0 0 2592 1296">
  <!-- Generator: Adobe Illustrator 29.1.0, SVG Export Plug-In . SVG Version: 2.1.0 Build 142)  -->
  <defs>
    <style>
      .st0 {
        fill: #231f20;
      }

      .st1 {
        fill: #ffd046;
      }
    </style>
  </defs>
  <g>
    <rect class="st1" x="-.1" y="-.1" width="2592.2" height="1296.2" rx="108.1" ry="108.1"/>
    <path class="st0" d="M2484,0c59.6,0,108,48.4,108,108v1080c0,59.6-48.4,108-108,108H108c-59.6,0-108-48.4-108-108V108C0,48.4,48.4,0,108,0h2376M2484-.2H108C79.1-.2,51.9,11,31.5,31.5,11,51.9-.2,79.1-.2,108v1080c0,28.9,11.3,56.1,31.7,76.5,20.4,20.4,47.6,31.7,76.5,31.7h2376c28.9,0,56.1-11.3,76.5-31.7,20.4-20.4,31.7-47.6,31.7-76.5V108c0-28.9-11.3-56.1-31.7-76.5-20.4-20.4-47.6-31.7-76.5-31.7h0Z"/>
  </g>
  <path class="st0" d="M108,1269c-44.7,0-81-36.3-81-81V108c0-44.7,36.3-81,81-81h2376c44.7,0,81,36.3,81,81v1080c0,44.7-36.3,81-81,81H108ZM108,1233h2376c24.9,0,45-20.1,45-45V108c0-24.9-20.1-45-45-45H108c-24.9,0-45,20.1-45,45v1080c0,24.9,20.1,45,45,45Z"/>
  <g>
    <path class="st0" d="M336.5,355.2c-3.5-24.8-13.3-36.3-30.2-36.3-29.3,0-40,23-40,88.4s12.4,101.7,43.5,101.7,26.6-17.7,26.6-36.3h36.4c-.9,41.5-27.5,71.6-63,71.6-54.1,0-78.1-43.3-78.1-136.2s25.7-124.6,75.5-124.6,64.5,42.1,65.7,71.6h-36.4Z"/>
    <path class="st0" d="M493.9,421.5h-34.4v118.5h-36.2v-252h75c39.5,0,66.2,26.5,66.2,67.2s-12.4,52.2-36.2,61l36.2,123.8h-37l-33.5-118.5ZM459.4,323.4v63.7h37c21.2,0,32.7-11.5,32.7-31.8s-13.2-31.8-32.6-31.8h-37.1Z"/>
    <path class="st0" d="M602.3,413.5c0-132,61.2-129.8,74.8-129.8s74-2,74,129.9-60.4,130.8-74,130.8-74.8,2.1-74.8-130.9ZM676.6,319c-7.2,0-39.7-1.5-39.7,94.7s32.5,95.4,39.7,95.4,39.6,1.5,39.6-95.4-32.4-94.7-39.6-94.7Z"/>
    <path class="st0" d="M861.1,379.8c27.6,17.3,68.9,41.5,68.9,91.3s-31.1,73.4-70.1,73.4-71-37.5-71-78.7h35.5c0,21.5,10.6,43.3,35.5,43.3s35.5-17.7,35.5-38c0-54.8-94.1-51.6-94.1-122s28.4-65.4,64.8-65.4,63.1,27.4,63.9,65.4h-34.6c-.9-17.7-13.3-29.2-29.3-29.2s-30.2,12.3-30.2,29.1,8.7,20.4,25.2,30.8Z"/>
    <path class="st0" d="M1032.5,379.8c27.6,17.3,68.9,41.5,68.9,91.3s-31.1,73.4-70.1,73.4-71-37.5-71-78.7h35.5c0,21.5,10.6,43.3,35.5,43.3s35.5-17.7,35.5-38c0-54.8-94.1-51.6-94.1-122s28.4-65.4,64.8-65.4,63.1,27.4,63.9,65.4h-34.6c-.9-17.7-13.3-29.2-29.3-29.2s-30.2,12.3-30.2,29.1,8.7,20.4,25.2,30.8Z"/>
  </g>
  <g>
    <path class="st0" d="M1363.8,540h-36.3v-218.4h-46.1v-33.6h128.6v33.6h-46.1v218.4Z"/>
    <path class="st0" d="M1515.8,421.5h-34.4v118.5h-36.2v-252h75c39.5,0,66.2,26.5,66.2,67.2s-12.4,52.2-36.2,61l36.2,123.8h-37l-33.5-118.5ZM1481.4,323.4v63.7h37c21.2,0,32.7-11.5,32.7-31.8s-13.2-31.8-32.6-31.8h-37.1Z"/>
    <path class="st0" d="M1716.4,471h-54.1l-16.9,69h-36.3l62.9-252h35.5l62.9,252h-36.3l-17.7-69ZM1671.2,435.7h36.3l-18.6-72.5-17.7,72.5Z"/>
    <path class="st0" d="M1842.1,387h50.6v34.5h-50.6v118.5h-36.3v-252h128.6v35.4h-92.2v63.7Z"/>
    <path class="st0" d="M2005.9,387h50.6v34.5h-50.6v118.5h-36.3v-252h128.6v35.4h-92.2v63.7Z"/>
    <path class="st0" d="M2133.5,288h35.3v252h-35.3v-252Z"/>
    <path class="st0" d="M2323.9,355.2c-3.5-24.8-13.3-36.3-30.2-36.3-29.3,0-40,23-40,88.4s12.4,101.7,43.5,101.7,26.6-17.7,26.6-36.3h36.4c-.9,41.5-27.5,71.6-63,71.6-54.1,0-78.1-43.3-78.1-136.2s25.7-124.6,75.5-124.6,64.5,42.1,65.7,71.6h-36.4Z"/>
  </g>
  <g>
    <path class="st0" d="M192,1008v-252h71.9c15.4,0,69.3.8,69.3,125.6s-49.8,126.4-66.3,126.4h-74.9ZM256.4,791.4h-28.3v181.3h25.1c29.5,0,44.6-12.9,44.6-89.3s-22.1-91.9-41.5-91.9Z"/>
    <path class="st0" d="M378.6,881.5c0-132,61.2-129.8,74.8-129.8s74-2,74,129.9-60.4,130.8-74,130.8-74.8,2.1-74.8-130.9ZM453,787c-7.2,0-39.7-1.5-39.7,94.7s32.5,95.4,39.7,95.4,39.6,1.5,39.6-95.4-32.4-94.7-39.6-94.7Z"/>
    <path class="st0" d="M577.7,756h118.8v35.4h-82.5v63.7h52.3v34.5h-52.3v83.1h92.2v35.3h-128.6v-252Z"/>
    <path class="st0" d="M808.9,847.8c27.6,17.3,68.9,41.5,68.9,91.3s-31.1,73.4-70.2,73.4-71-37.5-71-78.7h35.5c0,21.5,10.6,43.3,35.5,43.3s35.5-17.7,35.5-38c0-54.8-94.1-51.6-94.1-122s28.4-65.4,64.8-65.4,63.1,27.4,63.9,65.4h-34.7c-.9-17.7-13.3-29.2-29.3-29.2s-30.2,12.3-30.2,29.1,8.7,20.4,25.2,30.8Z"/>
  </g>
  <g>
    <path class="st0" d="M1093.9,839.1v168.9h-36.2v-252h36.2l68.8,151.2v-151.2h36.2v252h-27.3l-77.7-168.9Z"/>
    <path class="st0" d="M1249.3,881.5c0-132,61.2-129.8,74.8-129.8s74-2,74,129.9-60.4,130.8-74,130.8-74.8,2.1-74.8-130.9ZM1323.7,787c-7.2,0-39.7-1.5-39.7,94.7s32.5,95.4,39.7,95.4,39.6,1.5,39.6-95.4-32.4-94.7-39.6-94.7Z"/>
    <path class="st0" d="M1510.8,1008h-36.4v-218.4h-46.1v-33.6h128.6v33.6h-46.1v218.4Z"/>
  </g>
  <g>
    <path class="st0" d="M1809.2,847.8c27.6,17.3,68.9,41.5,68.9,91.3s-31.1,73.4-70.2,73.4-71-37.5-71-78.7h35.5c0,21.5,10.6,43.3,35.5,43.3s35.5-17.7,35.5-38c0-54.8-94.1-51.6-94.1-122s28.4-65.4,64.8-65.4,63.1,27.4,63.9,65.4h-34.7c-.9-17.7-13.3-29.2-29.3-29.2s-30.2,12.3-30.2,29.1,8.7,20.4,25.2,30.8Z"/>
    <path class="st0" d="M1983.3,1008h-36.4v-218.4h-46.1v-33.6h128.6v33.6h-46.1v218.4Z"/>
    <path class="st0" d="M2059.6,881.5c0-132,61.2-129.8,74.8-129.8s74-2,74,129.9-60.4,130.8-74,130.8-74.8,2.1-74.8-130.9ZM2134,787c-7.2,0-39.7-1.5-39.7,94.7s32.5,95.4,39.7,95.4,39.6,1.5,39.6-95.4-32.4-94.7-39.6-94.7Z"/>
    <path class="st0" d="M2295,897.5v110.5h-36.2v-252h75c39.7,0,66.2,28.4,66.2,70.7s-23.8,70.7-66.2,70.7h-38.8ZM2295,863h37c21.2,0,32.7-13.2,32.7-36.2s-13.4-35.4-32.6-35.4h-37.1v71.6Z"/>
  </g>
</svg>