<?xml version="1.0" encoding="UTF-8"?>
<svg id="For_Sheets" xmlns="http://www.w3.org/2000/svg" version="1.1" viewBox="0 0 2942.9 2942.9">
  <!-- Generator: Adobe Illustrator 29.1.0, SVG Export Plug-In . SVG Version: 2.1.0 Build 142)  -->
  <defs>
    <style>
      .st0 {
        fill: #231f20;
      }

      .st1 {
        fill: #ffd046;
      }
    </style>
  </defs>
  <g>
    <path class="st1" d="M1471.4,2943c-36.1,0-70-14.1-95.5-39.6L39.5,1567C13.9,1541.5-.1,1507.5-.1,1471.4s14.1-70,39.6-95.5L1375.9,39.5C1401.4,13.9,1435.3-.1,1471.4-.1s70,14.1,95.5,39.6l1336.4,1336.4c25.5,25.5,39.6,59.5,39.6,95.5s-14.1,70-39.6,95.5l-1336.4,1336.4c-25.5,25.5-59.5,39.6-95.5,39.6Z"/>
    <path class="st0" d="M1471.4,0c34.5,0,69.1,13.2,95.5,39.5l1336.4,1336.4c52.7,52.7,52.7,138.2,0,190.9l-1336.4,1336.4c-26.4,26.4-60.9,39.5-95.5,39.5s-69.1-13.2-95.5-39.5L39.5,1566.9c-52.7-52.7-52.7-138.2,0-190.9L1376,39.5C1402.3,13.2,1436.9,0,1471.4,0M1471.4-.3c-36.1,0-70.1,14.1-95.6,39.6L39.4,1375.8c-25.5,25.5-39.6,59.5-39.6,95.6s14.1,70.1,39.6,95.6l1336.4,1336.4c25.5,25.5,59.5,39.6,95.6,39.6s70.1-14.1,95.6-39.6l1336.4-1336.4c25.5-25.5,39.6-59.5,39.6-95.6s-14.1-70.1-39.6-95.6L1567.1,39.4c-25.5-25.5-59.5-39.6-95.6-39.6h0Z"/>
  </g>
  <path class="st0" d="M65,1541.4c-38.6-38.6-38.6-101.4,0-140L1401.4,65c38.6-38.6,101.4-38.6,140,0l1336.4,1336.4c38.6,38.6,38.6,101.4,0,140l-1336.4,1336.4c-38.6,38.6-101.4,38.6-140,0L65,1541.4Z"/>
  <path class="st1" d="M103.2,1503.3c-17.5-17.5-17.5-46.1,0-63.6L1439.6,103.2c17.5-17.5,46.1-17.5,63.6,0l1336.4,1336.4c17.5,17.5,17.5,46.1,0,63.6l-1336.4,1336.4c-17.5,17.5-46.1,17.5-63.6,0L103.2,1503.3Z"/>
  <path class="st0" d="M1628.1,882.6c-50.2,25.7-89.5,64.3-116.1,109.6l-150.1-72.9-9.8-47.9c53.5-33.5,73.5-70.7,61.1-90.3-12.1-19-59.9,24.4-121.3,56.9-16.8,8.9-106.9,54.6-97.9,70.8,9.2,16.6,73.7.9,115.9-15.9l6,29.3-362.6,186c-5.2-29.2-10.1-56.1-13.9-76.9-3.2-17.8-5.7-31.2-6.9-37.8l-36.7-6.6,6-19,97.1-49.8-16.4-32-110.5,56.7-22.8,72.3,42.3,7.7c9.8,53.8,32.8,180.4,45.1,257.5-48.5-2.4-98.3,7.5-144.6,31.3-140.6,72.2-196.2,244.7-124,385.3,72.2,140.6,244.7,196.2,385.3,124,140.6-72.2,196.2-244.7,124-385.3-40.6-79.1-113-131.3-193.6-149-1.4-9.3-3.1-19.5-4.9-30.5l427,157.7c.3.8.7,1.6,1.1,2.4,8.3,16.1,27.8,22.7,44.1,15l56.6,63.1-19.6,10,9.9,19.2,61.9-31.7-9.9-19.2-24.6,12.6-60-66.9c2.8-4.7,4.5-10,4.9-15.4l82.1-67.2c85.3,88.8,221.8,115.3,337,56.2,140.6-72.2,196.2-244.7,124-385.3-72.2-140.6-244.7-196.1-385.3-124ZM1129.4,1460.2c58.5,114.1,13.5,254.1-100.6,312.6-114.1,58.5-254.1,13.5-312.6-100.6-58.5-114.1-13.5-254.1,100.6-312.6,40.6-20.8,84.4-28.5,126.7-24.7,2.9,68.1-16.2,152.7-34.7,204.4-14.7,7.7-20.5,25.9-12.9,40.7,7.6,14.9,25.9,20.8,40.8,13.1,13.8-7.1,19.8-23.2,14.6-37.4,9.1-25.3,19.5-61,27.2-101.4,5.8-30,11.4-70.4,10.9-110.7,58.5,17.5,110,57.9,140,116.5ZM1403,1348.7l-37-41.2,19.6-10-9.9-19.2-61.9,31.7,9.9,19.2,24.6-12.6,36.7,40.9-414.8-153.2c-2.8-16-5.6-32.5-8.5-48.9l363.7-186.6,77.6,379.9ZM1523.6,1300.4l-71.9,58.9-78.3-383.7,118.8,57.6c-28.7,73.7-27,158.8,12,234.7,5.8,11.4,12.4,22.2,19.5,32.5ZM1552.2,1243.3c-30.9-60.2-32.9-127.5-11.2-186.4l175.8,85.3-151.2,123.8c-4.8-7.3-9.3-14.8-13.4-22.8ZM1864.7,1343.9c-92.1,47.2-201,27-270.4-42.5l163.4-133.8c5,.2,10.1-.9,14.8-3.3,14.9-7.6,20.8-25.9,13.1-40.8-6.7-13-21.4-19.1-35-15.4l-190-92.2c21.5-35.1,52.6-65,92-85.2,114.1-58.5,254.1-13.5,312.6,100.6,58.5,114.1,13.5,254.1-100.6,312.6Z"/>
  <polygon class="st0" points="2155.4 1957.4 787.4 1957.4 2155.4 1255.4 2155.4 1957.4"/>
</svg>