<?xml version="1.0" encoding="UTF-8"?>
<svg id="For_Sheets" xmlns="http://www.w3.org/2000/svg" version="1.1" viewBox="0 0 3531.4 3531.4">
  <!-- Generator: Adobe Illustrator 29.1.0, SVG Export Plug-In . SVG Version: 2.1.0 Build 142)  -->
  <defs>
    <style>
      .st0 {
        fill: #231f20;
      }

      .st1 {
        fill: #ffd046;
      }
    </style>
  </defs>
  <g>
    <path class="st1" d="M1765.7,3531.6c-43.3,0-84-16.9-114.6-47.5L47.4,1880.4c-63.2-63.2-63.2-166.1,0-229.3L1651.1,47.4C1681.7,16.7,1722.4-.1,1765.7-.1s84,16.9,114.6,47.5l1603.7,1603.7c63.2,63.2,63.2,166.1,0,229.3l-1603.7,1603.7c-30.6,30.6-71.3,47.5-114.6,47.5Z"/>
    <path class="st0" d="M1765.7,0c41.5,0,82.9,15.8,114.6,47.4l1603.7,1603.7c63.3,63.3,63.3,165.8,0,229.1l-1603.7,1603.7c-31.6,31.6-73.1,47.4-114.6,47.4s-82.9-15.8-114.6-47.4L47.4,1880.3c-63.3-63.3-63.3-165.8,0-229.1L1651.2,47.4C1682.8,15.8,1724.3,0,1765.7,0M1765.7-.3c-43.3,0-84.1,16.9-114.7,47.5L47.3,1651c-30.6,30.6-47.5,71.4-47.5,114.7,0,43.3,16.9,84.1,47.5,114.7l1603.7,1603.7c30.6,30.6,71.4,47.5,114.7,47.5s84.1-16.9,114.7-47.5l1603.7-1603.7c30.6-30.6,47.5-71.4,47.5-114.7s-16.9-84.1-47.5-114.7L1880.4,47.3c-30.6-30.6-71.4-47.5-114.7-47.5h0Z"/>
  </g>
  <path class="st0" d="M79.3,1848.4c-45.6-45.6-45.6-119.8,0-165.5L1683,79.3c45.6-45.6,119.8-45.6,165.5,0l1603.7,1603.7c45.6,45.6,45.6,119.8,0,165.5l-1603.7,1603.7c-45.6,45.6-119.8,45.6-165.5,0L79.3,1848.4Z"/>
  <path class="st1" d="M123.8,1803.9c-21.1-21.1-21.1-55.3,0-76.4L1727.5,123.8c21.1-21.1,55.3-21.1,76.4,0l1603.7,1603.7c21.1,21.1,21.1,55.3,0,76.4l-1603.7,1603.7c-21.1,21.1-55.3,21.1-76.4,0L123.8,1803.9Z"/>
  <g>
    <path class="st0" d="M1406,1037.7h-157.7v188h-68.1v-432h68.1v174.3h157.7v-174.3h68.3v432h-68.2v-188Z"/>
    <path class="st0" d="M1577.9,793.7h69.1v432h-69.1v-432Z"/>
    <path class="st0" d="M1750.7,793.7h68.1v368.3h199.8v63.7h-267.9v-432Z"/>
    <path class="st0" d="M2083.4,793.7h68.1v368.3h199.8v63.7h-267.9v-432Z"/>
  </g>
  <g>
    <path class="st0" d="M708.7,1981.7v-432h163.7c68.2,0,119.7,47,119.7,109.1s-19.7,74.3-60.6,97c45.5,21.2,71.2,58,71.2,104.5s-17.3,121.3-130.3,121.3h-163.7ZM877,1617.9h-100.1v106.1h86.8c38.8,0,60.3-33.8,60.3-62.2s-15.9-44-47-44ZM776.9,1793.7v118.3h103.1c35.1,0,53.1-16.7,53.1-50.1s-23.1-68.2-58.4-68.2h-97.7Z"/>
    <path class="st0" d="M1076.2,1549.7h68.1v368.3h199.8v63.7h-267.9v-432Z"/>
    <path class="st0" d="M1707.3,1765.7c0,15.5,3.3,223.6-153.5,223.6s-153.5-208.1-153.5-223.6-3.3-223.5,153.5-223.5,153.5,208,153.5,223.5ZM1554.6,1919.6c46.5,0,84.3-44.1,84.3-153.9s-37.8-153.9-84.3-153.9-84.3,44.1-84.3,153.9,37.8,153.9,84.3,153.9Z"/>
    <path class="st0" d="M1793.7,1765c0-60.7,12.2-222.7,159.1-222.7s105.3,25.5,134.9,87.9l-63.7,27.3c-22.1-31.8-33.1-45.5-71.2-45.5-90.4,0-89.4,126-89.4,153.1s-1.7,154.7,92.4,154.7,51.9-19.9,66.7-50.1l65.2,24.2c-24.3,60.1-65.1,95.4-130.4,95.4-155.5,0-163.7-171.7-163.7-224.3Z"/>
    <path class="st0" d="M2296.9,1777.1l-45.6,56.1v148.5h-68.4v-432h68.4v171.3l136.9-171.3h88.2l-133.8,168.3,142.9,263.7h-79.1l-109.5-204.6Z"/>
    <path class="st0" d="M2528.6,1880.1l65.2-24.2c18.2,40.9,51.5,63.7,92.4,63.7s66.7-27.3,66.7-63.7c0-57.8-66.7-66.7-122.8-89.4-25.8-10.6-83.4-36.4-83.4-107.6s57.6-116.6,134.9-116.6,101.6,34.9,122.8,87.9l-60.6,18.2c-6.8-17.1-31.5-37.9-63.7-37.9-61.6,0-66.8,32.9-66.8,43.7,0,40.4,34.8,48.4,91.5,66.1,57.7,18.1,117.9,44.7,117.9,137.3s-75.6,131.8-136.5,131.8-128.8-44-157.6-109.1Z"/>
  </g>
  <g>
    <path class="st0" d="M1275.9,2737.7l-136.9-432h71.5l92.8,288,91.3-288h73l-138.4,432h-53.2Z"/>
    <path class="st0" d="M1532.4,2305.7h69.1v432h-69.1v-432Z"/>
    <path class="st0" d="M1705.2,2305.7h254.3v68.2h-186.2v106.1h125.7v69.7h-125.7v118.3h199.8v69.7h-267.9v-432Z"/>
    <path class="st0" d="M2267.8,2737.7l-68.5-277.4-66.9,277.4h-60.9l-63.8-432h69.9l33.5,227.4,54.7-227.4h67l56.2,227.4,33.5-227.4h69.9l-63.9,432h-60.8Z"/>
  </g>
</svg>