<?xml version="1.0" encoding="UTF-8"?>
<svg id="For_Sheets" xmlns="http://www.w3.org/2000/svg" version="1.1" viewBox="0 0 3531.4 3531.4">
  <!-- Generator: Adobe Illustrator 29.1.0, SVG Export Plug-In . SVG Version: 2.1.0 Build 142)  -->
  <defs>
    <style>
      .st0 {
        fill: #231f20;
      }

      .st1 {
        fill: #ffd046;
      }
    </style>
  </defs>
  <g>
    <path class="st1" d="M1765.7,3531.6c-43.3,0-84-16.9-114.6-47.5L47.4,1880.4c-63.2-63.2-63.2-166.1,0-229.3L1651.1,47.4C1681.7,16.7,1722.4-.1,1765.7-.1s84,16.9,114.6,47.5l1603.7,1603.7c63.2,63.2,63.2,166.1,0,229.3l-1603.7,1603.7c-30.6,30.6-71.3,47.5-114.6,47.5Z"/>
    <path class="st0" d="M1765.7,0c41.5,0,82.9,15.8,114.6,47.4l1603.7,1603.7c63.3,63.3,63.3,165.8,0,229.1l-1603.7,1603.7c-31.6,31.6-73.1,47.4-114.6,47.4s-82.9-15.8-114.6-47.4L47.4,1880.3c-63.3-63.3-63.3-165.8,0-229.1L1651.2,47.4C1682.8,15.8,1724.3,0,1765.7,0M1765.7-.3c-43.3,0-84.1,16.9-114.7,47.5L47.3,1651c-30.6,30.6-47.5,71.4-47.5,114.7,0,43.3,16.9,84.1,47.5,114.7l1603.7,1603.7c30.6,30.6,71.4,47.5,114.7,47.5s84.1-16.9,114.7-47.5l1603.7-1603.7c30.6-30.6,47.5-71.4,47.5-114.7s-16.9-84.1-47.5-114.7L1880.4,47.3c-30.6-30.6-71.4-47.5-114.7-47.5h0Z"/>
  </g>
  <path class="st0" d="M79.3,1848.4c-45.6-45.6-45.6-119.8,0-165.5L1683,79.3c45.6-45.6,119.8-45.6,165.5,0l1603.7,1603.7c45.6,45.6,45.6,119.8,0,165.5l-1603.7,1603.7c-45.6,45.6-119.8,45.6-165.5,0L79.3,1848.4Z"/>
  <path class="st1" d="M123.8,1803.9c-21.1-21.1-21.1-55.3,0-76.4L1727.5,123.8c21.1-21.1,55.3-21.1,76.4,0l1603.7,1603.7c21.1,21.1,21.1,55.3,0,76.4l-1603.7,1603.7c-21.1,21.1-55.3,21.1-76.4,0L123.8,1803.9Z"/>
  <g>
    <path class="st0" d="M702.3,1539.1v-277.4h68.1v277.4c0,56.1,31.9,92.4,78.8,92.4s78.8-36.3,78.8-92.4v-277.4h68.3v277.4c0,136.6-104.8,162.2-147,162.2s-147-22.6-147-162.2Z"/>
    <path class="st0" d="M1168.2,1401.2v292.5h-68.1v-432h68.1l157.7,275.9v-275.9h68.3v432h-60.6l-165.3-292.5Z"/>
    <path class="st0" d="M1497.8,1261.7h254.3v68.2h-186.2v106.1h125.7v69.7h-125.7v118.3h199.8v69.7h-267.9v-432Z"/>
    <path class="st0" d="M1937.2,1693.7l-136.9-432h71.5l92.8,288,91.3-288h73l-138.4,432h-53.2Z"/>
    <path class="st0" d="M2193.7,1261.7h254.3v68.2h-186.2v106.1h125.7v69.7h-125.7v118.3h199.8v69.7h-267.9v-432Z"/>
    <path class="st0" d="M2603.2,1401.2v292.5h-68.1v-432h68.1l157.7,275.9v-275.9h68.3v432h-60.6l-165.3-292.5Z"/>
  </g>
  <g>
    <path class="st0" d="M901.2,2017.7h68.1v368.3h199.8v63.7h-267.9v-432Z"/>
    <path class="st0" d="M1446.6,2328.4h-135.6l-42.7,121.3h-73.2l149.4-432h68.6l149.4,432h-73.2l-42.7-121.3ZM1335.3,2258.7h86.9l-42.7-121.2-44.2,121.2Z"/>
    <path class="st0" d="M1695.4,2157.2v292.5h-68.1v-432h68.1l157.7,275.9v-275.9h68.3v432h-60.6l-165.3-292.5Z"/>
    <path class="st0" d="M2025,2017.7h254.3v68.2h-186.2v106.1h125.7v69.7h-125.7v118.3h199.8v69.7h-267.9v-432Z"/>
    <path class="st0" d="M2336.2,2348.3l65.1-24.2c18.2,40.9,51.6,63.6,92.5,63.6s66.8-27.2,66.8-63.6c0-57.7-66.8-66.6-122.8-89.3-25.8-10.6-83.3-36.3-83.3-107.5s57.5-116.6,134.7-116.6,101.4,34.8,122.6,87.8l-60.6,18.1c-10-19.5-30.9-37.9-67.2-37.9-52.3,0-63.1,28.5-63.1,43.6,0,40.3,34.8,48.3,91.4,66.1,57.6,18.1,117.9,44.6,117.9,137.1,0,93.2-75.7,131.7-136.5,131.7s-128.8-43.8-157.6-109Z"/>
  </g>
</svg>