<?xml version="1.0" encoding="UTF-8"?>
<svg id="For_Sheets" xmlns="http://www.w3.org/2000/svg" version="1.1" viewBox="0 0 3531.4 3531.4">
  <!-- Generator: Adobe Illustrator 29.1.0, SVG Export Plug-In . SVG Version: 2.1.0 Build 142)  -->
  <defs>
    <style>
      .st0 {
        fill: #231f20;
      }

      .st1 {
        fill: #ffd046;
      }
    </style>
  </defs>
  <g>
    <path class="st1" d="M1765.7,3531.6c-43.3,0-84-16.9-114.6-47.5L47.4,1880.4c-63.2-63.2-63.2-166.1,0-229.3L1651.1,47.4C1681.7,16.7,1722.4-.1,1765.7-.1s84,16.9,114.6,47.5l1603.7,1603.7c63.2,63.2,63.2,166.1,0,229.3l-1603.7,1603.7c-30.6,30.6-71.3,47.5-114.6,47.5Z"/>
    <path class="st0" d="M1765.7,0c41.5,0,82.9,15.8,114.6,47.4l1603.7,1603.7c63.3,63.3,63.3,165.8,0,229.1l-1603.7,1603.7c-31.6,31.6-73.1,47.4-114.6,47.4s-82.9-15.8-114.6-47.4L47.4,1880.3c-63.3-63.3-63.3-165.8,0-229.1L1651.2,47.4C1682.8,15.8,1724.3,0,1765.7,0M1765.7-.3c-43.3,0-84.1,16.9-114.7,47.5L47.3,1651c-30.6,30.6-47.5,71.4-47.5,114.7,0,43.3,16.9,84.1,47.5,114.7l1603.7,1603.7c30.6,30.6,71.4,47.5,114.7,47.5s84.1-16.9,114.7-47.5l1603.7-1603.7c30.6-30.6,47.5-71.4,47.5-114.7s-16.9-84.1-47.5-114.7L1880.4,47.3c-30.6-30.6-71.4-47.5-114.7-47.5h0Z"/>
  </g>
  <path class="st0" d="M79.3,1848.4c-45.6-45.6-45.6-119.8,0-165.5L1683,79.3c45.6-45.6,119.8-45.6,165.5,0l1603.7,1603.7c45.6,45.6,45.6,119.8,0,165.5l-1603.7,1603.7c-45.6,45.6-119.8,45.6-165.5,0L79.3,1848.4Z"/>
  <path class="st1" d="M123.8,1803.9c-21.1-21.1-21.1-55.3,0-76.4L1727.5,123.8c21.1-21.1,55.3-21.1,76.4,0l1603.7,1603.7c21.1,21.1,21.1,55.3,0,76.4l-1603.7,1603.7c-21.1,21.1-55.3,21.1-76.4,0L123.8,1803.9Z"/>
  <g>
    <path class="st0" d="M1290.4,1058.6h-59v203.1h-62v-432h128.6c67.8,0,113.4,45.5,113.4,115.2s-21.2,89.4-62,104.6l62,212.2h-63.4l-57.5-203.1ZM1231.3,890.4v109.1h63.5c36.4,0,56-19.7,56-54.6s-22.7-54.5-55.9-54.5h-63.6Z"/>
    <path class="st0" d="M1476.2,1044.8c0-226.2,104.9-222.6,128.2-222.6s126.8-3.5,126.8,222.7-103.5,224.3-126.8,224.3-128.2,3.6-128.2-224.4ZM1603.7,882.8c-12.3,0-68-2.5-68,162.3s55.7,163.5,68,163.5,67.9,2.5,67.9-163.5-55.6-162.3-67.9-162.3Z"/>
    <path class="st0" d="M1966.9,1143.5h-92.7l-28.9,118.2h-62.3l107.9-432h60.9l107.8,432h-62.3l-30.4-118.2ZM1889.4,1082.9h62.3l-31.9-124.3-30.4,124.3Z"/>
    <path class="st0" d="M2120.1,1261.7v-432h123.3c26.4,0,118.7,1.3,118.7,215.2s-85.3,216.8-113.6,216.8h-128.4ZM2230.5,890.4h-48.4v310.7h43.1c50.5,0,76.4-22.1,76.4-153.1s-37.9-157.6-71.1-157.6Z"/>
  </g>
  <g>
    <path class="st0" d="M1526.4,1667.2l-80.5,242.5-80.5-242.5v242.5h-62.2v-432h62.2l80.5,242.5,80.5-242.5h62.2v432h-62.2v-242.5Z"/>
    <path class="st0" d="M1832.9,1791.5h-92.7l-28.9,118.2h-62.3l107.9-432h60.9l107.8,432h-62.3l-30.4-118.2ZM1755.5,1730.9h62.3l-31.9-124.3-30.4,124.3Z"/>
    <path class="st0" d="M2120.3,1909.7h-62.3v-195.5l-106.4-236.5h65.3l73,156.1,71.4-156.1h66.8l-107.9,236.5v195.5Z"/>
  </g>
  <g>
    <path class="st0" d="M1111.3,2295.5h86.7v59.1h-86.7v203.1h-62.3v-432h220.4v60.6h-158.1v109.1Z"/>
    <path class="st0" d="M1329.9,2125.7h62.3v374.4h158.1v57.6h-220.4v-432Z"/>
    <path class="st0" d="M1602.2,2340.8c0-226.2,104.9-222.6,128.2-222.6s126.8-3.5,126.8,222.7-103.5,224.3-126.8,224.3-128.2,3.6-128.2-224.4ZM1729.7,2178.8c-12.3,0-68-2.5-68,162.3s55.7,163.5,68,163.5,67.9,2.5,67.9-163.5-55.6-162.3-67.9-162.3Z"/>
    <path class="st0" d="M1935,2340.8c0-226.2,104.9-222.6,128.2-222.6s126.8-3.5,126.8,222.7-103.5,224.3-126.8,224.3-128.2,3.6-128.2-224.4ZM2062.5,2178.8c-12.3,0-68-2.5-68,162.3s55.7,163.5,68,163.5,67.9,2.5,67.9-163.5-55.6-162.3-67.9-162.3Z"/>
    <path class="st0" d="M2276.4,2557.7v-432h123.3c26.4,0,118.7,1.3,118.7,215.2s-85.3,216.8-113.6,216.8h-128.4ZM2386.8,2186.4h-48.4v310.7h43.1c50.5,0,76.4-22.1,76.4-153.1s-37.9-157.6-71.1-157.6Z"/>
  </g>
</svg>