<?xml version="1.0" encoding="UTF-8"?>
<svg id="For_Sheets" xmlns="http://www.w3.org/2000/svg" version="1.1" viewBox="0 0 3531.4 3531.4">
  <!-- Generator: Adobe Illustrator 29.1.0, SVG Export Plug-In . SVG Version: 2.1.0 Build 142)  -->
  <defs>
    <style>
      .st0 {
        fill: #231f20;
      }

      .st1 {
        fill: #ffd046;
      }
    </style>
  </defs>
  <g>
    <path class="st1" d="M1765.7,3531.6c-43.3,0-84-16.9-114.6-47.5L47.4,1880.4c-63.2-63.2-63.2-166.1,0-229.3L1651.1,47.4C1681.7,16.7,1722.4-.1,1765.7-.1s84,16.9,114.6,47.5l1603.7,1603.7c63.2,63.2,63.2,166.1,0,229.3l-1603.7,1603.7c-30.6,30.6-71.3,47.5-114.6,47.5Z"/>
    <path class="st0" d="M1765.7,0c41.5,0,82.9,15.8,114.6,47.4l1603.7,1603.7c63.3,63.3,63.3,165.8,0,229.1l-1603.7,1603.7c-31.6,31.6-73.1,47.4-114.6,47.4s-82.9-15.8-114.6-47.4L47.4,1880.3c-63.3-63.3-63.3-165.8,0-229.1L1651.2,47.4C1682.8,15.8,1724.3,0,1765.7,0M1765.7-.3c-43.3,0-84.1,16.9-114.7,47.5L47.3,1651c-30.6,30.6-47.5,71.4-47.5,114.7,0,43.3,16.9,84.1,47.5,114.7l1603.7,1603.7c30.6,30.6,71.4,47.5,114.7,47.5s84.1-16.9,114.7-47.5l1603.7-1603.7c30.6-30.6,47.5-71.4,47.5-114.7s-16.9-84.1-47.5-114.7L1880.4,47.3c-30.6-30.6-71.4-47.5-114.7-47.5h0Z"/>
  </g>
  <path class="st0" d="M79.3,1848.4c-45.6-45.6-45.6-119.8,0-165.5L1683,79.3c45.6-45.6,119.8-45.6,165.5,0l1603.7,1603.7c45.6,45.6,45.6,119.8,0,165.5l-1603.7,1603.7c-45.6,45.6-119.8,45.6-165.5,0L79.3,1848.4Z"/>
  <path class="st1" d="M123.8,1803.9c-21.1-21.1-21.1-55.3,0-76.4L1727.5,123.8c21.1-21.1,55.3-21.1,76.4,0l1603.7,1603.7c21.1,21.1,21.1,55.3,0,76.4l-1603.7,1603.7c-21.1,21.1-55.3,21.1-76.4,0L123.8,1803.9Z"/>
  <g>
    <path class="st0" d="M569.5,2125.7v-720h272.9c113.7,0,199.5,78.3,199.5,181.9s-32.8,123.8-101,161.7c75.8,35.4,118.7,96.7,118.7,174.2s-28.9,202.1-217.3,202.1h-272.9ZM850,1519.4h-166.9v176.8h144.7c64.6,0,100.4-56.3,100.4-103.6s-26.5-73.3-78.3-73.3ZM683.1,1812.4v197.1h171.8c58.5,0,88.5-27.8,88.5-83.4s-38.5-113.7-97.4-113.7h-162.9Z"/>
    <path class="st0" d="M1182.1,1868v-462.3h113.6v462.3c0,93.5,53.1,154.1,131.4,154.1s131.4-60.6,131.4-154.1v-462.3h113.8v462.3c0,227.7-174.7,270.3-245.1,270.3s-245.1-37.7-245.1-270.3Z"/>
    <path class="st0" d="M2293,1708.8l-166.9,416.9-167.1-416.9v416.9h-113.9v-720h113.9l167.1,404.2,166.9-404.2h113.9v720h-113.9v-416.9Z"/>
    <path class="st0" d="M2827.5,1812.4h-134.1v313.3h-113.6v-720h272.2c169.4,0,218,137.7,218,202.1s-24.6,204.6-242.5,204.6ZM2693.4,1696.2h160.3c90.4,0,100-65.2,100-88.4,0-33.7-25.4-88.5-96.1-88.5h-164.2v176.8Z"/>
  </g>
</svg>