<?xml version="1.0" encoding="UTF-8"?>
<svg id="For_Sheets" xmlns="http://www.w3.org/2000/svg" version="1.1" viewBox="0 0 3531.4 3531.4">
  <!-- Generator: Adobe Illustrator 29.1.0, SVG Export Plug-In . SVG Version: 2.1.0 Build 142)  -->
  <defs>
    <style>
      .st0 {
        fill: #231f20;
      }

      .st1 {
        fill: #ffd046;
      }
    </style>
  </defs>
  <g>
    <g>
      <path class="st1" d="M1765.7,3531.6c-43.3,0-84-16.9-114.6-47.5L47.4,1880.4c-63.2-63.2-63.2-166.1,0-229.3L1651.1,47.4C1681.7,16.7,1722.4-.1,1765.7-.1s84,16.9,114.6,47.5l1603.7,1603.7c63.2,63.2,63.2,166.1,0,229.3l-1603.7,1603.7c-30.6,30.6-71.3,47.5-114.6,47.5Z"/>
      <path class="st0" d="M1765.7,0C1807.2,0,1848.6,15.8,1880.3,47.4l1603.7,1603.7c63.3,63.3,63.3,165.8,0,229.1l-1603.7,1603.7c-31.6,31.6-73.1,47.4-114.6,47.4s-82.9-15.8-114.6-47.4L47.4,1880.3c-63.3-63.3-63.3-165.8,0-229.1L1651.2,47.4C1682.8,15.8,1724.3,0,1765.7,0M1765.7-.2c-43.3,0-84.1,16.9-114.7,47.5L47.3,1651C16.6,1681.6-.2,1722.4-.3,1765.7c0,43.3,16.9,84.1,47.5,114.7l1603.7,1603.7c30.6,30.6,71.4,47.5,114.7,47.5s84.1-16.9,114.7-47.5l1603.7-1603.7c30.6-30.6,47.5-71.4,47.5-114.7s-16.9-84.1-47.5-114.7L1880.4,47.3C1849.8,16.6,1809.1-.2,1765.7-.2h0Z"/>
    </g>
    <path class="st0" d="M79.3,1848.4c-45.6-45.6-45.6-119.8,0-165.5L1683,79.3c45.6-45.6,119.8-45.6,165.5,0l1603.7,1603.7c45.6,45.6,45.6,119.8,0,165.5l-1603.7,1603.7c-45.6,45.6-119.8,45.6-165.5,0L79.3,1848.4Z"/>
    <path class="st1" d="M123.8,1803.9c-21.1-21.1-21.1-55.3,0-76.4L1727.5,123.8c21.1-21.1,55.3-21.1,76.4,0l1603.7,1603.7c21.1,21.1,21.1,55.3,0,76.4l-1603.7,1603.7c-21.1,21.1-55.3,21.1-76.4,0L123.8,1803.9Z"/>
  </g>
  <g>
    <path class="st0" d="M1282.2,1213.1h146.6v81.3h-146.6v219.3h-79.5v-504h312.6v79.6h-233.1v123.8Z"/>
    <path class="st0" d="M1938.9,1261.7c0,18.1,3.8,260.8-179,260.8s-179-242.7-179-260.8-3.8-260.8,179-260.8,179,242.7,179,260.8ZM1760.7,1441.3c54.3,0,98.4-51.5,98.4-179.5s-44.1-179.5-98.4-179.5-98.4,51.4-98.4,179.5,44.1,179.5,98.4,179.5Z"/>
    <path class="st0" d="M2222.4,1001c80.8,0,126.3,30.6,160.4,111.4l-76,30c-21.2-44.2-42.4-60.1-81.3-60.1-110.8,0-104.4,168.6-104.4,180.4,0,19-4.3,178.6,93.7,178.6s88.5-31.8,88.5-77.8v-21.2h-92v-79.6h171.5v100.8c0,91.9-67.2,159.1-159.2,159.1s-183.8,15.1-183.8-260.8,2.1-260.8,182.7-260.8Z"/>
  </g>
  <g>
    <path class="st0" d="M1201.9,2236.2h-158.2l-49.8,141.5h-85.4l174.3-504h80.1l174.2,504h-85.4l-49.8-141.5ZM1072.1,2154.9h101.4l-49.8-141.4-51.5,141.4Z"/>
    <path class="st0" d="M1492.2,2158.3v219.4h-79.5v-504h182.3c115.5,0,150.2,92.4,150.2,141.6s-6.9,92.4-78.2,126.2l88.8,236.2h-86.7l-81.3-219.4h-95.6ZM1592.3,2077.1c63.2,0,73.2-45.6,73.2-61.9s-16.4-61.9-69.4-61.9h-103.9v123.8h100.1Z"/>
    <path class="st0" d="M1841.5,1873.7h296.7v79.6h-217.2v123.8h146.6v81.3h-146.6v138h233.1v81.3h-312.6v-504Z"/>
    <path class="st0" d="M2487.8,2236.2h-158.2l-49.8,141.5h-85.4l174.3-504h80.1l174.2,504h-85.4l-49.8-141.5ZM2358.1,2154.9h101.4l-49.8-141.4-51.5,141.4Z"/>
  </g>
</svg>