<?xml version="1.0" encoding="UTF-8"?>
<svg id="For_Sheets" xmlns="http://www.w3.org/2000/svg" version="1.1" viewBox="0 0 3531.4 3531.4">
  <!-- Generator: Adobe Illustrator 29.1.0, SVG Export Plug-In . SVG Version: 2.1.0 Build 142)  -->
  <defs>
    <style>
      .st0 {
        fill: #231f20;
      }

      .st1 {
        fill: #ffd046;
      }
    </style>
  </defs>
  <g>
    <g>
      <path class="st1" d="M1765.7,3531.6c-43.3,0-84-16.9-114.6-47.5L47.4,1880.4c-63.2-63.2-63.2-166.1,0-229.3L1651.1,47.4C1681.7,16.7,1722.4-.1,1765.7-.1s84,16.9,114.6,47.5l1603.7,1603.7c63.2,63.2,63.2,166.1,0,229.3l-1603.7,1603.7c-30.6,30.6-71.3,47.5-114.6,47.5Z"/>
      <path class="st0" d="M1765.7,0C1807.2,0,1848.6,15.8,1880.3,47.4l1603.7,1603.7c63.3,63.3,63.3,165.8,0,229.1l-1603.7,1603.7c-31.6,31.6-73.1,47.4-114.6,47.4s-82.9-15.8-114.6-47.4L47.4,1880.3c-63.3-63.3-63.3-165.8,0-229.1L1651.2,47.4C1682.8,15.8,1724.3,0,1765.7,0M1765.7-.2c-43.3,0-84.1,16.9-114.7,47.5L47.3,1651C16.6,1681.6-.2,1722.4-.3,1765.7c0,43.3,16.9,84.1,47.5,114.7l1603.7,1603.7c30.6,30.6,71.4,47.5,114.7,47.5s84.1-16.9,114.7-47.5l1603.7-1603.7c30.6-30.6,47.5-71.4,47.5-114.7s-16.9-84.1-47.5-114.7L1880.4,47.3C1849.8,16.6,1809.1-.2,1765.7-.2h0Z"/>
    </g>
    <path class="st0" d="M79.3,1848.4c-45.6-45.6-45.6-119.8,0-165.5L1683,79.3c45.6-45.6,119.8-45.6,165.5,0l1603.7,1603.7c45.6,45.6,45.6,119.8,0,165.5l-1603.7,1603.7c-45.6,45.6-119.8,45.6-165.5,0L79.3,1848.4Z"/>
    <path class="st1" d="M123.8,1803.9c-21.1-21.1-21.1-55.3,0-76.4L1727.5,123.8c21.1-21.1,55.3-21.1,76.4,0l1603.7,1603.7c21.1,21.1,21.1,55.3,0,76.4l-1603.7,1603.7c-21.1,21.1-55.3,21.1-76.4,0L123.8,1803.9Z"/>
  </g>
  <path class="st0" d="M1419.7,1017.5c-7.4,2.3-14.1,5.9-19.7,10.6l-71.5-69.5,1.5-28.2,89.7,87.2ZM1692.5,1085.8h573.9l-15.7-226.2h-923l-12.1,221.9h68.1c0-30.2,16-55.4,47.3-59.8,7.8-1.1,15.9,3.3,23.8,3.3s15.4-2.9,22.3-6.3c5.9-2.9,17.1-4.8,23.5-3.2,3.8,1,8.4,2.7,9.6-1.4.8-2.7-1.2-8.6-1.7-11.5-2.7-16.3-14.6-30.4-17.5-47.3-3-17.9-1.6-35.2,4.6-52.1,11-30.4,58-48.1,86.2-32,15.5,8.9,26.7,18.4,31.5,36.4,2.1,7.8,1.2,15.1.6,22.9-.6,8,3.2,15.7,1.8,24.1-.7,4-2.4,7.6-3.2,11.6-.9,4.3.2,8.2.2,12.5,0,6.7-5,15.1-9,20.1-3.5,4.3-11.6,13.4-6,18.9s12.2,10,19.6,14.2c7.9,4.5,17.6,4.5,26.4,4.5s16.2,3.1,23.9,6.9c8.4,4.2,13.1,10.8,18.1,18.4,4.9,7.3,5.1,15.9,6.6,24.1ZM2332.3,1582.6v75.5c0,17.9-7.3,50.8-56.4,69.2-19.5,7.3-343.9,77.8-343.9,77.8-119,27.1-162.3,84.5-162.3,116.4s21.6,82,177.9,134.2l336.7,108.9c42.8,13.9,97.1,34.4,137.7,69.8,44.6,38.7,67.2,89.8,67.2,151.8,0,124-129.4,279-249.3,351.6l-48.3-79.4c48.4-29.3,100.8-77.5,140.2-128.9,40.8-53.3,64.3-105.6,64.3-143.3,0-64.6-36.8-99.4-140.6-133.2l-337.2-109.1c-119.5-39.8-241.7-97.4-241.7-222.3s61.5-167.6,234.8-207l251.6-56.7v-75.3h-751.5v75.5c0,17.9-7.3,50.8-56.4,69.2-19.5,7.3-343.9,77.8-343.9,77.8-119,27.1-162.3,84.5-162.3,116.4s21.6,82,177.9,134.2l336.7,108.9c42.8,13.9,97.1,34.4,137.7,69.8,44.6,38.7,67.2,89.8,67.2,151.8,0,124-129.4,279-249.3,351.6l-48.3-79.4c48.4-29.3,100.8-77.5,140.2-128.9,40.8-53.3,64.3-105.6,64.3-143.3,0-64.6-36.8-99.4-140.6-133.2l-337.2-109.1c-119.5-39.8-241.7-97.4-241.7-222.3s61.5-167.6,234.8-207l251.6-56.7v-75.3h-85.2v-26.5l-.6-.9c-11-16.5-12-37.7-2.5-55.1l1.1-2-2.4-7.1c-5.9-17.5-4.1-36.7,4.9-52.9l3.8-6.8,4.9-196.9c.9-36.6,18.3-70.9,47.3-93.2l8.8-6.7,41.3-297.6c3.4-24.8,24.7-43.3,49.8-43.3h948.4c25.1,0,46.4,18.5,49.8,43.3l41.3,297.6,8.8,6.7c29,22.4,46.4,56.6,47.3,93.2l4.9,196.9,3.8,6.8c9,16.2,10.8,35.3,4.9,52.9l-2.4,7.1,1.1,2c9.4,17.4,8.5,38.6-2.5,55.1l-.6.9v26.5h-86.1Z"/>
</svg>