<?xml version="1.0" encoding="UTF-8"?>
<svg id="For_Sheets" xmlns="http://www.w3.org/2000/svg" version="1.1" viewBox="0 0 3531.4 3531.4">
  <!-- Generator: Adobe Illustrator 29.1.0, SVG Export Plug-In . SVG Version: 2.1.0 Build 142)  -->
  <defs>
    <style>
      .st0 {
        fill: #231f20;
      }

      .st1 {
        fill: #ffd046;
      }
    </style>
  </defs>
  <g>
    <path class="st1" d="M1765.7,3531.6c-43.3,0-84-16.9-114.6-47.5L47.4,1880.4c-63.2-63.2-63.2-166.1,0-229.3L1651.1,47.4C1681.7,16.7,1722.4-.1,1765.7-.1s84,16.9,114.6,47.5l1603.7,1603.7c63.2,63.2,63.2,166.1,0,229.3l-1603.7,1603.7c-30.6,30.6-71.3,47.5-114.6,47.5Z"/>
    <path class="st0" d="M1765.7,0c41.5,0,82.9,15.8,114.6,47.4l1603.7,1603.7c63.3,63.3,63.3,165.8,0,229.1l-1603.7,1603.7c-31.6,31.6-73.1,47.4-114.6,47.4s-82.9-15.8-114.6-47.4L47.4,1880.3c-63.3-63.3-63.3-165.8,0-229.1L1651.2,47.4C1682.8,15.8,1724.3,0,1765.7,0M1765.7-.3c-43.3,0-84.1,16.9-114.7,47.5L47.3,1651c-30.6,30.6-47.5,71.4-47.5,114.7,0,43.3,16.9,84.1,47.5,114.7l1603.7,1603.7c30.6,30.6,71.4,47.5,114.7,47.5s84.1-16.9,114.7-47.5l1603.7-1603.7c30.6-30.6,47.5-71.4,47.5-114.7s-16.9-84.1-47.5-114.7L1880.4,47.3c-30.6-30.6-71.4-47.5-114.7-47.5h0Z"/>
  </g>
  <path class="st0" d="M79.3,1848.4c-45.6-45.6-45.6-119.8,0-165.5L1683,79.3c45.6-45.6,119.8-45.6,165.5,0l1603.7,1603.7c45.6,45.6,45.6,119.8,0,165.5l-1603.7,1603.7c-45.6,45.6-119.8,45.6-165.5,0L79.3,1848.4Z"/>
  <path class="st1" d="M123.8,1803.9c-21.1-21.1-21.1-55.3,0-76.4L1727.5,123.8c21.1-21.1,55.3-21.1,76.4,0l1603.7,1603.7c21.1,21.1,21.1,55.3,0,76.4l-1603.7,1603.7c-21.1,21.1-55.3,21.1-76.4,0L123.8,1803.9Z"/>
  <g>
    <path class="st0" d="M959.6,1090.7h68.1v368.3h199.8v63.7h-267.9v-432Z"/>
    <path class="st0" d="M1568.1,1306.7c0,15.5,3.3,223.6-153.5,223.6s-153.5-208.1-153.5-223.6-3.3-223.5,153.5-223.5,153.5,208,153.5,223.5ZM1415.4,1460.6c46.5,0,84.3-44.1,84.3-153.9s-37.8-153.9-84.3-153.9-84.3,44.1-84.3,153.9,37.8,153.9,84.3,153.9Z"/>
    <path class="st0" d="M1926.9,1306.7c0,15.5,3.3,223.6-153.5,223.6s-153.5-208.1-153.5-223.6-3.3-223.5,153.5-223.5,153.5,208,153.5,223.5ZM1774.2,1460.6c46.5,0,84.3-44.1,84.3-153.9s-37.8-153.9-84.3-153.9-84.3,44.1-84.3,153.9,37.8,153.9,84.3,153.9Z"/>
    <path class="st0" d="M2303.9,1090.7h254.3v68.2h-186.2v106.1h125.6v69.7h-125.6v118.3h199.8v69.7h-267.9v-432Z"/>
  </g>
  <g>
    <path class="st0" d="M865.4,1812.2c69.2,0,108.2,26.2,137.5,95.5l-65.2,25.7c-18.2-37.9-36.3-51.5-69.7-51.5-94.9,0-89.5,144.5-89.5,154.6,0,16.3-3.7,153.1,80.3,153.1s75.8-27.3,75.8-66.7v-18.1h-78.8v-68.3h147v86.4c0,78.8-57.6,136.4-136.5,136.4s-157.6,12.9-157.6-223.6,1.8-223.5,156.6-223.5Z"/>
    <path class="st0" d="M1166.1,2063.7v188h-68.1v-432h156.3c99,0,128.7,79.2,128.7,121.3s-5.9,79.2-67.1,108.2l76.1,202.5h-74.3l-69.7-188h-81.9ZM1251.9,1994c54.2,0,62.7-39.1,62.7-53s-14.1-53.1-59.5-53.1h-89.1v106.1h85.8Z"/>
    <path class="st0" d="M1678.1,2130.4h-135.6l-42.7,121.3h-73.2l149.4-432h68.6l149.4,432h-73.2l-42.7-121.3ZM1566.9,2060.7h86.9l-42.7-121.2-44.2,121.2Z"/>
    <path class="st0" d="M1956.8,2251.7l-136.9-432h71.5l92.8,288,91.3-288h73l-138.4,432h-53.2Z"/>
    <path class="st0" d="M2213.3,1819.7h254.3v68.2h-186.2v106.1h125.7v69.7h-125.7v118.3h199.8v69.7h-267.9v-432Z"/>
    <path class="st0" d="M2554.7,1819.7h68.1v368.3h199.8v63.7h-267.9v-432Z"/>
  </g>
  <path class="st0" d="M1965.8,1421.3l65.1-24.2c18.2,40.9,51.6,63.6,92.5,63.6s66.8-27.2,66.8-63.6c0-57.7-66.8-66.6-122.8-89.3-25.8-10.6-83.3-36.3-83.3-107.5s57.5-116.6,134.7-116.6,101.4,34.8,122.6,87.8l-60.6,18.1c-10-19.5-30.9-37.9-67.2-37.9-52.3,0-63.1,28.5-63.1,43.6,0,40.3,34.8,48.3,91.4,66.1,57.6,18.1,117.9,44.6,117.9,137.1,0,93.2-75.7,131.7-136.5,131.7s-128.8-43.8-157.6-109Z"/>
</svg>