<?xml version="1.0" encoding="UTF-8"?>
<svg id="For_Sheets" xmlns="http://www.w3.org/2000/svg" version="1.1" viewBox="0 0 3531.4 3531.4">
  <!-- Generator: Adobe Illustrator 29.1.0, SVG Export Plug-In . SVG Version: 2.1.0 Build 142)  -->
  <defs>
    <style>
      .st0 {
        fill: #231f20;
      }

      .st1 {
        fill: #ffd046;
      }
    </style>
  </defs>
  <g>
    <path class="st1" d="M1765.7,3531.6c-43.3,0-84-16.9-114.6-47.5L47.4,1880.4c-63.2-63.2-63.2-166.1,0-229.3L1651.1,47.4C1681.7,16.7,1722.4-.1,1765.7-.1s84,16.9,114.6,47.5l1603.7,1603.7c63.2,63.2,63.2,166.1,0,229.3l-1603.7,1603.7c-30.6,30.6-71.3,47.5-114.6,47.5Z"/>
    <path class="st0" d="M1765.7,0c41.5,0,82.9,15.8,114.6,47.4l1603.7,1603.7c63.3,63.3,63.3,165.8,0,229.1l-1603.7,1603.7c-31.6,31.6-73.1,47.4-114.6,47.4s-82.9-15.8-114.6-47.4L47.4,1880.3c-63.3-63.3-63.3-165.8,0-229.1L1651.2,47.4C1682.8,15.8,1724.3,0,1765.7,0M1765.7-.3c-43.3,0-84.1,16.9-114.7,47.5L47.3,1651c-30.6,30.6-47.5,71.4-47.5,114.7,0,43.3,16.9,84.1,47.5,114.7l1603.7,1603.7c30.6,30.6,71.4,47.5,114.7,47.5s84.1-16.9,114.7-47.5l1603.7-1603.7c30.6-30.6,47.5-71.4,47.5-114.7s-16.9-84.1-47.5-114.7L1880.4,47.3c-30.6-30.6-71.4-47.5-114.7-47.5h0Z"/>
  </g>
  <path class="st0" d="M79.3,1848.4c-45.6-45.6-45.6-119.8,0-165.5L1683,79.3c45.6-45.6,119.8-45.6,165.5,0l1603.7,1603.7c45.6,45.6,45.6,119.8,0,165.5l-1603.7,1603.7c-45.6,45.6-119.8,45.6-165.5,0L79.3,1848.4Z"/>
  <path class="st1" d="M123.8,1803.9c-21.1-21.1-21.1-55.3,0-76.4L1727.5,123.8c21.1-21.1,55.3-21.1,76.4,0l1603.7,1603.7c21.1,21.1,21.1,55.3,0,76.4l-1603.7,1603.7c-21.1,21.1-55.3,21.1-76.4,0L123.8,1803.9Z"/>
  <path class="st0" d="M1617,1669.6l-2.7,23.9h291.5s-3.6-23.9-3.6-23.9h-285.2ZM1609,1740.3l-2.8,24.9h310.4s-3.7-24.9-3.7-24.9h-303.9ZM1599.6,1822.8l-3.5,30.6h333.7s-4.6-30.6-4.6-30.6h-325.6ZM1588.5,1920.9l-3.6,31.5h359.8s-4.7-31.5-4.7-31.5h-351.5ZM2821.5,1720h0M1560.9,2163.9l-6,52.8h429.4s-7.9-52.8-7.9-52.8h-415.5ZM1542.3,2327.3l-9.4,83h480.5s-12.5-83-12.5-83h-458.6ZM1575.5,2034.8l-4.5,39.8h392s-6-39.8-6-39.8h-381.5ZM2692.3,1714.4c-4.1-3.5-8-7.4-11.7-11.6-9.1-10.4-15.9-22.1-20.4-34.4h-268c-10.5,0-11.9,15.3-1.5,17.1l276,48.9c12.8,2.3,24.7-7.1,25.6-20h0ZM865.6,1734.5h0M1787.9,1347.9l68.5,5-364.3-217.3,205.4,180.8h-43.7s266.1,217.3,266.1,217.3l-132-185.8ZM1337.6,1652.1c-25.7-14.3-45-38.7-52.4-68l-263.7,51.8c0,1.6.1,3.2.1,4.8,0,27.5-10.4,52.6-27.5,71.5l343.5-60.1ZM1521.2,1619.7h132.5c7.5-.2,11.8-8.8,7.1-14.8l-94.8-121-77.2,30.7c5.5,12.6,8.7,26.5,9,41.1.5,27.2-9.1,52.3-25.3,71.6l48.7-7.5ZM2821.5,1720c-17.8,11.8-1.8,41.8,19.2,45.6l205.4,37.4v54.5s-1002.2-175.1-1002.2-175.1l351.5,209.6-68.5-5,132,185.8-266.1-217.3h43.8s-197.8-174-197.8-174l-68.9-12,4.6,24.1h58.2s16.2,46.7,16.2,46.7h-65.5s4.7,24.9,4.7,24.9h69.4s20,57.6,20,57.6h-78.3s5.8,30.6,5.8,30.6h83.1s23.4,67.5,23.4,67.5h-93.6s6,31.5,6,31.5h98.5s28.6,82.5,28.6,82.5h-111.3s7.6,39.8,7.6,39.8h117.5s30.9,89.3,30.9,89.3h-131.4s10.1,52.8,10.1,52.8h139.6s38.3,110.6,38.3,110.6h-156.8s15.9,83,15.9,83h169.7s54.9,158.4,54.9,158.4h-194.3s28.8,151,28.8,151h-110.6s-22.6-151-22.6-151h-522.2s-17.2,151-17.2,151h-110.6s24.8-151,24.8-151h-186.6s50-158.4,50-158.4h162.7s13.7-83,13.7-83h-150.1s34.9-110.6,34.9-110.6h133.4s8.7-52.8,8.7-52.8h-125.5s28.2-89.3,28.2-89.3h112s6.6-39.8,6.6-39.8h-106s26-82.5,26-82.5h93.5s5.2-31.5,5.2-31.5h-88.7s21.3-67.5,21.3-67.5h78.5s5-30.6,5-30.6h-73.9s18.2-57.6,18.2-57.6h65.2s4.1-24.9,4.1-24.9h-61.5s14.8-46.7,14.8-46.7h54.4s4-24.1,4-24.1l-1204.2,190.3v-37s509.8-88.2,509.8-88.2c-23-12.5-42.3-33.3-51.1-58.4l-37.8-33.5c-13.1-11.6-12.1-32.4,2.1-42.6l7.9-5.7v-204.3c0-19.9,16.1-36,36-36h90.9c25.3,0,48.9-13,62.3-34.5l60-95.7c9.7-15.5,26.7-24.9,45-24.8l97.5.5c16.7,0,30.2,13.6,30.1,30.3l-.8,186.1c0,13.9,11.2,25.3,25.1,25.4l197.3,1.4h0c-2.5-14.9-14.6-26.2-29.6-27.8l-130.9-13.2,21.9-55,230.3-10.1,172.6,214.4,410.5,16.4,142.7-135.2-29.9-37,237-229.6-123.5,218.4,56.7,37.6-224.5,147.6,494.6,20.2c15.8-41.3,55.9-70.7,102.8-70.7s92.5,34.1,105.6,80.2l136.5,5,10.6,64.6h-150.1c-8.3,21.4-23.1,39.2-41.9,51.7Z"/>
</svg>