<?xml version="1.0" encoding="UTF-8"?>
<svg id="For_Sheets" xmlns="http://www.w3.org/2000/svg" version="1.1" viewBox="0 0 3531.4 3531.4">
  <!-- Generator: Adobe Illustrator 29.1.0, SVG Export Plug-In . SVG Version: 2.1.0 Build 142)  -->
  <defs>
    <style>
      .st0 {
        fill: #231f20;
      }

      .st1 {
        fill: #ffd046;
      }
    </style>
  </defs>
  <g>
    <path class="st1" d="M1765.2,3531.1c-43.3,0-84-16.9-114.6-47.5L46.9,1879.9c-63.2-63.2-63.2-166.1,0-229.3L1650.6,46.9c30.6-30.6,71.3-47.5,114.6-47.5s84,16.9,114.6,47.5l1603.7,1603.7c63.2,63.2,63.2,166.1,0,229.3l-1603.7,1603.7c-30.6,30.6-71.3,47.5-114.6,47.5Z"/>
    <path class="st0" d="M1765.2-.5c41.5,0,82.9,15.8,114.6,47.4l1603.7,1603.7c63.3,63.3,63.3,165.8,0,229.1l-1603.7,1603.7c-31.6,31.6-73.1,47.4-114.6,47.4s-82.9-15.8-114.6-47.4L46.9,1879.8c-63.3-63.3-63.3-165.8,0-229.1L1650.7,46.9c31.6-31.6,73.1-47.4,114.6-47.4M1765.2-.8c-43.3,0-84.1,16.9-114.7,47.5L46.8,1650.5c-30.6,30.6-47.5,71.4-47.5,114.7,0,43.3,16.9,84.1,47.5,114.7l1603.7,1603.7c30.6,30.6,71.4,47.5,114.7,47.5s84.1-16.9,114.7-47.5l1603.7-1603.7c30.6-30.6,47.5-71.4,47.5-114.7s-16.9-84.1-47.5-114.7L1879.9,46.8c-30.6-30.6-71.4-47.5-114.7-47.5h0Z"/>
  </g>
  <path class="st0" d="M78.8,1847.9c-45.6-45.6-45.6-119.8,0-165.5L1682.5,78.8c45.6-45.6,119.8-45.6,165.5,0l1603.7,1603.7c45.6,45.6,45.6,119.8,0,165.5l-1603.7,1603.7c-45.6,45.6-119.8,45.6-165.5,0L78.8,1847.9Z"/>
  <path class="st1" d="M123.3,1803.4c-21.1-21.1-21.1-55.3,0-76.4L1727,123.3c21.1-21.1,55.3-21.1,76.4,0l1603.7,1603.7c21.1,21.1,21.1,55.3,0,76.4l-1603.7,1603.7c-21.1,21.1-55.3,21.1-76.4,0L123.3,1803.4Z"/>
  <path class="st0" d="M2618.7,1951.1l34.2-25.1-4.4-46-38.5-21.6c-1.5-7.6-3.2-15.1-5-22.6l25.7-31.2-15.6-43.5-40.7-11c-3.6-7.7-7.5-15.3-11.5-22.7l17-38.4-26.8-37.7-41.3.4c-6.3-7.6-12.9-15.1-19.6-22.3l6.8-40.8-35.3-29.8-39.7,10.7c-7.3-5.3-14.8-10.3-22.3-15.1l-2.7-43.2-41.1-21.1-40.9,21.8c-6.9-2.6-13.9-5.1-21-7.4l18.6-18.6,13.2-29,28.1-8.4v-51.2c-25.7.4-50.9,21.9-80.7,27.5-4.9-34.5-15.7-70.6-31.5-108.2-6.2-26.6-6.2-54.8,0-84.6,7.9-43.3,15.7-86.6,23.6-129.9,3.2-17.6,4.1-29.6-9.8-57.1-15.3-30.3-34.8-59.9-56.8-90.7-5-8.6-8.2-18.9-13.2-27.4l9.3-36.5c44.8-1.1,80.7-16.5,102.1-51.9,9.2-27.9,2-33.1-21.6-15.7-15.4,14.2-36.4,15.4-53.1,21.6l-49.2-114.1c-4.4-9.3-11.6-21.5-27.5-21.6-8.3,0-15.2-2.2-25.4-10.2-7.8-6.2-16.2-6.2-25.2-10.4-15.3-3.2-32.5-9.3-47.8,16.7-12.5,25.6-24.9,51.2-37.4,76.7-6.7,11.5-8.2,24-23.6,27.5-26.1,6-116.4,58.9-29.5,51.2,12.5-3.3,24.9-6.6,37.4-9.8,16.6,54.9,24.5,116.9,78.7,145.6,16,17.6-1.2,31-11.8,45.3-66,52.4-61.8,119.9-76.7,188.9-2.8,12.9-8.3,20-33.4,25.6-39.3,2.6-78.7,5.2-118,7.9-47,0-53.8-6-89,23.4l-44.8-33.2c-23.1-19-53.4,22.2-31.5,39.3,21.9,17.1,52.1,39,77.4,59.7l-97.2,117.3-25.4-8.8h-474.5v-178.2h-84.3v178.2h-188.9l-64.9,73.8,207.5,491.3c-108,9.4-193.3,100.5-193.3,210.9s95.1,211.8,211.8,211.8,211.8-95.1,211.8-211.8-52.3-161.2-126.9-194v-12.5h181l76.7,61h293l10.8,31.2,40.6,11.4c2.1,4.8,4.3,9.6,6.6,14.3l-19.7,38,24.4,39.3,43.7,2.3c3.7,4.9,7.5,9.8,11.5,14.6l-10.2,42.1,33.2,32.3,43-8.3c3.7,3,7.4,6,11.2,8.9l.3,42.9,40,23.4,37.7-17.5c6.3,3.1,12.6,6.1,19.1,8.9l11,41.9,44.5,12.8,32.1-26.1c6.1,1.3,12.2,2.6,18.3,3.6l20.7,37.9,46.3,1.6,24.3-32.5c7.5-.2,14.9-.5,22.3-1l28.1,31.9,45.5-8.6,17.4-38.8c7.3-2,14.5-4.2,21.7-6.6l34.7,24,42.1-19.3,7.6-42.2c5.6-3.2,11.1-6.5,16.6-9.9l41.1,15.3,36.1-29.1-3.1-43.5c4.9-4.6,9.6-9.3,14.3-14.1l45.1,4.7,27.6-37.2-14-41.5c4.2-6.5,8.1-13.1,12-19.7l43.5-6.1,17.9-42.7-23.3-36.5c2.8-8.5,5.4-17,7.7-25.7l41.8-17.8,6.1-45.8-32.9-30.1c.4-7.8.7-15.8.7-23.7ZM1881.5,1560.8l-171.2-72.8,82.6-100.3c19,14.4,38,28.9,57.1,43.3,19.3,15.6,48.5-26.1,32.8-39.2l-69.2-52.7,8.9-10.4,23.6,2,13.8,17.7,127.9,2-2,25.6-11.8,7.9v37.4l19.7,23.6-112.1,116.1Z"/>
</svg>