<?xml version="1.0" encoding="UTF-8"?>
<svg id="For_Sheets" xmlns="http://www.w3.org/2000/svg" version="1.1" viewBox="0 0 3531.4 3531.4">
  <!-- Generator: Adobe Illustrator 29.1.0, SVG Export Plug-In . SVG Version: 2.1.0 Build 142)  -->
  <defs>
    <style>
      .st0 {
        fill: #231f20;
      }

      .st1 {
        fill: #ffd046;
      }
    </style>
  </defs>
  <g>
    <path class="st1" d="M1765.7,3531.6c-43.3,0-84-16.9-114.6-47.5L47.4,1880.4c-63.2-63.2-63.2-166.1,0-229.3L1651.1,47.4C1681.7,16.7,1722.4-.1,1765.7-.1s84,16.9,114.6,47.5l1603.7,1603.7c63.2,63.2,63.2,166.1,0,229.3l-1603.7,1603.7c-30.6,30.6-71.3,47.5-114.6,47.5Z"/>
    <path class="st0" d="M1765.7,0c41.5,0,82.9,15.8,114.6,47.4l1603.7,1603.7c63.3,63.3,63.3,165.8,0,229.1l-1603.7,1603.7c-31.6,31.6-73.1,47.4-114.6,47.4s-82.9-15.8-114.6-47.4L47.4,1880.3c-63.3-63.3-63.3-165.8,0-229.1L1651.2,47.4C1682.8,15.8,1724.3,0,1765.7,0M1765.7-.3c-43.3,0-84.1,16.9-114.7,47.5L47.3,1651c-30.6,30.6-47.5,71.4-47.5,114.7,0,43.3,16.9,84.1,47.5,114.7l1603.7,1603.7c30.6,30.6,71.4,47.5,114.7,47.5s84.1-16.9,114.7-47.5l1603.7-1603.7c30.6-30.6,47.5-71.4,47.5-114.7,0-43.3-16.9-84.1-47.5-114.7L1880.4,47.3c-30.6-30.6-71.4-47.5-114.7-47.5h0Z"/>
  </g>
  <path class="st0" d="M79.3,1848.4c-45.6-45.6-45.6-119.8,0-165.5L1683,79.3c45.6-45.6,119.8-45.6,165.5,0l1603.7,1603.7c45.6,45.6,45.6,119.8,0,165.5l-1603.7,1603.7c-45.6,45.6-119.8,45.6-165.5,0L79.3,1848.4Z"/>
  <path class="st1" d="M123.8,1803.9c-21.1-21.1-21.1-55.3,0-76.4L1727.5,123.8c21.1-21.1,55.3-21.1,76.4,0l1603.7,1603.7c21.1,21.1,21.1,55.3,0,76.4l-1603.7,1603.7c-21.1,21.1-55.3,21.1-76.4,0L123.8,1803.9Z"/>
  <g>
    <path class="st0" d="M1624.4,710.4c0,53.2,43.4,96.7,96.7,96.7s96.7-43.4,96.7-96.7-43.4-96.7-96.7-96.7-96.7,43.4-96.7,96.7Z"/>
    <path class="st0" d="M1670.5,1034.3c-1.8,13-6.3,22-13.4,26.9-70.5,54.3-141.1,108.6-211.6,162.9,21.3,15.1,42.6,30.2,63.8,45.4,43.7-26.9,87.3-53.8,131-80.6-2.8,16.2-5.6,32.5-8.4,48.7-4.5,17.1-11.3,27.8-20.2,31.9-30.2,18.5-60.5,37-90.7,55.4-19-6.7-38.1-13.4-57.1-20.2,7.3-7.8,14.6-15.7,21.8-23.5-16.8-12.3-33.6-24.6-50.4-37-16.8,15.1-33.6,30.2-50.4,45.4-168.1-44.7-333.8-81.9-493.8-102.5-12.6-18.5-28.7-37-52.1-55.4-4.5,4.5-9,9-13.4,13.4-9-5.6-17.9-11.2-26.9-16.8-1.1,7.8-2.2,15.7-3.4,23.5,7.8,22.4,15.7,44.8,23.5,67.2-51.7,119.9-103.8,240.1-131,341-5.6,12.9.5,23.4,8.4,33.6,21.8,25.2,48.4,41,75.6,55.4,6.2-1.1,12.3-2.2,18.5-3.4,12.3,18.5,29.3,29.9,47,40.3,15.3,6.7,29.3,6.7,42,0,78.4-47,156.8-94.1,235.2-141.1,18.5,18.5,37,37,55.4,55.4,13.2,13.4,23.8,26.9,31.9,40.3,12.3,41.4,24.6,82.9,37,124.3,6,15.7,7.5,31.4,8.4,47-10.6,71.7-21.3,143.3-31.9,215-3.1,9.5-5.1,19.4-9.3,28.3-37.9,80.7-69.7,157.5-104.8,230.2-23.8,49.2-72.8,85.9-104.3,129.5-2.5,10.2,2.6,12.6,10.1,15.1h117.6c5-3.9,10.1-7.8,15.1-11.8,0-31,19.4-53,52.1-68.9,7.1-2.5,9.7-11.7,11.8-21.8,20.4-94,56.8-186.6,137.7-275.5,7.6-9.2,12.6-21,15.1-35.3,5.4-24.5-14.1-28.2,90.7-136.1,69.4,139.4,147.4,274.6,272.1,396.4,5.8,13.8,16.9,22.3,30.2,28.6,5.2,4.3,9.1,9.9,11.8,16.8,3.9,28,7.8,56,11.8,84,.8,8.5,4.2,10.8,10.1,6.7,30.2-25.2,60.5-50.4,90.7-75.6,2-6.2,1.4-12.3-1.7-18.5-11.8-11.8-23.5-23.5-35.3-35.3-5-5.6-10.1-11.2-15.1-16.8-4.5-9-9-17.9-13.4-26.9-4.5-5.6-9-11.2-13.4-16.8-50.2-39.6-84.2-90.6-109.2-147.8-10.4-20.2-18.2-40.3-23.5-60.5-5.3-47.6-12.3-95.2-25.2-142.8,177.9-.8,327.9-16.6,416.6-65.5,19.7,133.7,10.5,270.2-50.4,411.5-11.9,35.3-29.3,69.7-58.8,102.5-26.9,25.2-58.9,49.1-73.9,77.3-5.8,8.2,1.8,13,6.7,18.5,45.4.6,90.7,1.1,136.1,1.7-4-15,3.1-27.8,11.8-40.3,11.2-6.7,22.4-13.4,33.6-20.2,2.9-.7,4.6-5.2,5-13.4,14.6-86.6,55.8-155.4,100.8-221.7,7.3-8.4,14.6-16.8,21.8-25.2,11.7-21.1,16-43.6,15.1-67.2.6-15.1,1.1-30.2,1.7-45.4,12.6-56.2,29.4-100,52.1-126,68.9,63.8,137.7,127.7,206.6,191.5,24.6,19.6,32.5,56,43.7,89,8.4,47,16.8,94.1,25.2,141.1-.3,13.8,6.1,23.2,13.4,31.9,13,22.4,26.6,44.8,31.9,67.2,5.6,5,11.2,10.1,16.8,15.1,27.4,24.4,54.9,44.4,82.3,63.8,5.6-33,11.2-66.1,16.8-99.1-14.6-8.4-29.1-16.8-43.7-25.2-35.9-97.3-57.6-203.5-58.8-322.5-5.6-14.6-11.2-29.1-16.8-43.7-36.8-41.5-70.9-89.7-99.1-152.9,5-7.8,10.1-15.7,15.1-23.5,49.4,82.8,104.8,108.8,162.9,109.2-43.4-81.5-63-173.9-58.8-277.2,20.4-197.3-89.4-299.2-329.2-305.7-120.8,8.1-244.7,27.5-346-37,6-186.3-3.9-364.2-105.8-493.8-31.9,19.4-64.6,33-99.1,33.6-14,71.1-28,142.2-42,213.3ZM1101.1,1536.6c-75.2,43.4-150.4,86.7-225.6,130.1-11,4.2-22.3,6.9-35.3-.7-19.7-6.1-27.1-19.4-27.2-35.3,11.5,2.9,17.9,9.6,29.4,12.5,21.6,10,43.1,7.2,64.7-4.4,62.4-33.1,119.1-71.9,175.6-111,6.1,2.9,12.2,5.9,18.4,8.8ZM1068.8,1521.1c-43.6,32-88.2,62.3-133.7,90.4-32.3,16.2-64.5,31.4-94.8,14-7.3-3.9-11.8-9.8-13.2-17.6,11.3-15.9,22.5-31.8,33.8-47.8,41.2-12.5,77.4-36.7,108.8-72.8,37,.5,70.1,11.8,99.2,33.8Z"/>
  </g>
</svg>