<?xml version="1.0" encoding="UTF-8"?>
<svg id="For_Sheets" xmlns="http://www.w3.org/2000/svg" version="1.1" viewBox="0 0 3531.4 3531.4">
  <!-- Generator: Adobe Illustrator 29.1.0, SVG Export Plug-In . SVG Version: 2.1.0 Build 142)  -->
  <defs>
    <style>
      .st0, .st1 {
        fill: #231f20;
      }

      .st2 {
        fill: #ffd046;
      }

      .st1 {
        fill-rule: evenodd;
      }
    </style>
  </defs>
  <g>
    <path class="st2" d="M1765.7,3531.6c-43.3,0-84-16.9-114.6-47.5L47.4,1880.4c-63.2-63.2-63.2-166.1,0-229.3L1651.1,47.4C1681.7,16.7,1722.4-.1,1765.7-.1s84,16.9,114.6,47.5l1603.7,1603.7c63.2,63.2,63.2,166.1,0,229.3l-1603.7,1603.7c-30.6,30.6-71.3,47.5-114.6,47.5Z"/>
    <path class="st0" d="M1765.7,0c41.5,0,82.9,15.8,114.6,47.4l1603.7,1603.7c63.3,63.3,63.3,165.8,0,229.1l-1603.7,1603.7c-31.6,31.6-73.1,47.4-114.6,47.4s-82.9-15.8-114.6-47.4L47.4,1880.3c-63.3-63.3-63.3-165.8,0-229.1L1651.2,47.4C1682.8,15.8,1724.3,0,1765.7,0M1765.7-.3c-43.3,0-84.1,16.9-114.7,47.5L47.3,1651c-30.6,30.6-47.5,71.4-47.5,114.7,0,43.3,16.9,84.1,47.5,114.7l1603.7,1603.7c30.6,30.6,71.4,47.5,114.7,47.5s84.1-16.9,114.7-47.5l1603.7-1603.7c30.6-30.6,47.5-71.4,47.5-114.7s-16.9-84.1-47.5-114.7L1880.4,47.3c-30.6-30.6-71.4-47.5-114.7-47.5h0Z"/>
  </g>
  <path class="st0" d="M3452.2,1683L1848.4,79.3c-45.6-45.6-119.8-45.6-165.5,0L79.3,1683c-45.6,45.6-45.6,119.8,0,165.5l1603.7,1603.7c45.6,45.6,119.8,45.6,165.5,0l1603.7-1603.7c45.6-45.6,45.6-119.8,0-165.5ZM3407.6,1803.9l-1603.7,1603.7c-21.1,21.1-55.3,21.1-76.4,0L123.8,1803.9c-21.1-21.1-21.1-55.3,0-76.4L1727.5,123.8c21.1-21.1,55.3-21.1,76.4,0l1603.7,1603.7c21.1,21.1,21.1,55.3,0,76.4Z"/>
  <path class="st1" d="M2633,2405.8c-33.6-116.7-74-33.5-92.2-56.5-1.8-4.2-4.3-7.6-3.2-12,12.1-25.4-10.9-46.4-27.3-63-54.7-74.3-79.3-168.3-98.3-257.4,1.3-48.5-85.6-26.1-121-103.9-14.2-35.7.6-77.3,4-114.1,7.1-98,32.4-211.8-32.1-295.9,110,17.7,107,129.1,90.4,215.8.5,45.7.1,92.5,11.6,137.1l8.8-30.6c2.6,42.7,34.2,63.8,45.9,101.6,10.7,30,8.3,62.9,15.2,93.7,9.2,11.9,19.7,23.2,29.2,35-8.5-21.8-19.1-43.1-19-67l19,21.9c-5.8-17.1-11.7-34.1-10.2-52.5,14.7,13.5,13.4,32.8,16.1,51l8.8-32.1c7.3,40.5,12,73.5-5.9,112.3l29.2-35-8.7,32.1,16.1-14.6,4.3,27.7,19-46.7c-1.3,29.2-6.2,56.7-19,83.1l21.9-27.7c-1.9,21.7-9.3,42.1-16,62.7,17.3-21.6,31.5-43.8,36.4-71.5l1.4,24.8,13.1-33.5v27.7c66.9-88-39.1-181.4-55.3-269.8l21.9,10.2c-24.4-30.8-23.9-69.9-26.3-107.4-4.5-55.8-6.3-112.7-21.5-166.9-14.4-76.8-85.5-123.4-156.2-144.2-36.6-5.4-72.5,8.8-108.6,5.7-28.5-4.5-54.5-13.7-77.9-30.5-53-23.1-108.2-43-166.6-42.9-40-3.4-75.5,21.3-114.4,25.9-45,3-89.8,5.9-134.7,8.9-77.6,4.9-162.8,18.7-232.6-23.9,15.9,1.6,31,5.2,46.6,8.8-15.3-15.7-29.1-33.2-52.6-35.6-18-7.9-33-22.8-50.8-31.5l37.9,2.9c-29.4-11.5-60.8-18.1-86-37.9,15.5,3.1,31.1,5.9,46.7,8.8-16.2-14.8-31.2-31-53.6-35.8-17.8-8.6-33.7-22-51.3-31.3l39.3,2.9c-13.4-5.3-22-16.6-32.1-26.2l33.6,5.8c-17.1-16.9-32.3-36.5-50.4-52.3-23.7-12.5-47.8-23.9-72-35.3,19.2,4.5,38.3,11,56.8,0-29-4.9-50.7-22.5-74.3-38.6-21.4-15.6-46.5-25.8-70.6-36.5-22.8-8.5-44.7-20.8-69.4-22.3-8.4-6.3-13.3-16.5-22.5-22.7-17.7-12.6-25.7-38-42.4-50.3-32.1-6-11.9,39.5-7.8,55.4-7.5-4.1-16.8-5.8-23.7-10.6-8.5-8.4-38-42.3-37.5-20.5-7,21.6,31.2,56.8,34.2,72.5-15.6,10-31.2,19.9-46.4,30.5-15.4,14.8-45.7,22.6-53.6,41.8,3,21.8-48,55-63.3,72.5-14,12.8-26.7,26.7-43.6,35.2-17.3,8.3-34.7,17.5-31.4,39.9-1.1,16.8-6.6,36.4-.6,52.7,4.3,16.2,13.7,4.9,16.6,19.7,16.7,5.8,34.2,11.4,50.3,19.5,13.4,7.3,24.9-4.7,32.9-13.3,4.4-4.5,8.8-16.5,14.6-17.9,27.2-6.9,55.2-12.9,82-19.9,29.4,4.9,58.5,4.5,86.7-6,9.9-5.9,10,2.7,12.8,10.1,29.6,88.4,60.4,176.7,94.2,263.5,11,43.3-19.7,85.7-8.3,129.8,16.3,35.8,38.9,69.3,57.3,104.3,6.7,12-12.7,31.8-19.1,41.1-31.7,44.7-60.1,92.5-93.8,135.7-15.1,16.6-38.6,30.3-41.1,54.5-13.6,70.8-30.1,140.9-55.8,208.4-7.3,25.5-1.7,53.8-6,79.3-5.2,17.2-16.8,30.8-19.1,49-3.7,20-9.1,39.7-9.9,60.1,0,1,10.8,5,12.2,5.6,38-7.9,80.3-30.2,96.9-66.8-.6-15.2-4.3-29.5-8.3-44.1-.9-3.2-7-4.2-7.6-7.1-2.1-9.6-4.5-19,2.8-27.3,27.5-38.3,11.6-92,24.8-136.1,11.5-35,28.4-68.2,48.5-99.1,22.4-27.8,55.3-47.3,82.7-69.8,35.6-23.5,75.8-39.1,107.2-68.7,13-14.3,51.6-30.8,50.2-49.4,4.3,1.4,8.5,2.8,12.9,4.3,4.6,13,7.9,27,12.1,40.3,19.6,62.8,24.2,129.4,35,193.9,4.5,25.2,1.4,54.9,14.9,77.5,23.2,30.9,58,51,86.1,77.2,65.5,70.3,120.1,142.3,227,137.6,22.2,0,3.2-33.9-1.1-43.8-5.1-19.2-20.1-31.9-32.6-46.3-22.9-19.4-34.2-21.3-56.9-.5-18.4,3.7-23.9-7.8-24.8-23.9-12.2-36.5-58.2-48.1-84.6-73.2-92.2-53.2-37.9-203.1-39.3-291.9-2.2-30.1,9.4-16.3,31.4-19.1,47.4,2.9,93.1-12.7,137.9-26,92.7-27.5,186.8-51.3,273.5-95.1-3.9,74,14.3,145.2,47.3,211.2,9.6,27.7,29.6,55.1,23.7,85.3-8.4,40-54.7,78.8-79.2,112.3-29.9,35.8-71.2,61-101,96.9-10.2,32.6,3.4,39.8-21.2,76.9-11.8,24.6-16.8,52-22.5,78.4,0,6.1-1.6,7.9,4.2,9.6,4.1,1.3,8.5,3.6,12.6,2.5,30.2-6.4,54.8-24.6,79.5-42.1,8.4-3,5.7-12.1,7.9-19,9.1-25.4-17.4-33.6-15.3-50.6,2.3-4.6,7.2-3.6,12-4.2,4-.5,8.6-4.8,11.9-7,17.1-22.1,30.2-48.8,49-70.2,47.7-57.6,109.9-101.1,165.2-151.1,31.5-19.9,1.2-75.3-7.9-102.8-4.8-31.8-10.8-66.3-1.5-97.8,77.3,52.7,147.3,114.3,215.8,178,58,74.8,95.8,163.7,129.8,251.6,20.8,40.4,57.8,15.6,80,66.2,4.4,11.7,14.5,17.8,25.4,21.9,21.3,9,42.8,22.9,64.1,29.8,15.4-15.6,2.3-42.5.8-61.9Z"/>
</svg>