<?xml version="1.0" encoding="UTF-8"?>
<svg id="For_Sheets" xmlns="http://www.w3.org/2000/svg" version="1.1" viewBox="0 0 3531.4 3531.4">
  <!-- Generator: Adobe Illustrator 29.1.0, SVG Export Plug-In . SVG Version: 2.1.0 Build 142)  -->
  <defs>
    <style>
      .st0, .st1 {
        fill: #231f20;
      }

      .st2 {
        fill: #ffd046;
      }

      .st1 {
        fill-rule: evenodd;
      }
    </style>
  </defs>
  <g>
    <path class="st2" d="M1765.7,3531.6c-43.3,0-84-16.9-114.6-47.5L47.4,1880.4c-63.2-63.2-63.2-166.1,0-229.3L1651.1,47.4C1681.7,16.7,1722.4-.1,1765.7-.1s84,16.9,114.6,47.5l1603.7,1603.7c63.2,63.2,63.2,166.1,0,229.3l-1603.7,1603.7c-30.6,30.6-71.3,47.5-114.6,47.5Z"/>
    <path class="st0" d="M1765.7,0c41.5,0,82.9,15.8,114.6,47.4l1603.7,1603.7c63.3,63.3,63.3,165.8,0,229.1l-1603.7,1603.7c-31.6,31.6-73.1,47.4-114.6,47.4s-82.9-15.8-114.6-47.4L47.4,1880.3c-63.3-63.3-63.3-165.8,0-229.1L1651.2,47.4C1682.8,15.8,1724.3,0,1765.7,0M1765.7-.3c-43.3,0-84.1,16.9-114.7,47.5L47.3,1651c-30.6,30.6-47.5,71.4-47.5,114.7,0,43.3,16.9,84.1,47.5,114.7l1603.7,1603.7c30.6,30.6,71.4,47.5,114.7,47.5s84.1-16.9,114.7-47.5l1603.7-1603.7c30.6-30.6,47.5-71.4,47.5-114.7s-16.9-84.1-47.5-114.7L1880.4,47.3c-30.6-30.6-71.4-47.5-114.7-47.5h0Z"/>
  </g>
  <path class="st0" d="M3452.2,1683L1848.4,79.3c-45.6-45.6-119.8-45.6-165.5,0L79.3,1683c-45.6,45.6-45.6,119.8,0,165.5l1603.7,1603.7c45.6,45.6,119.8,45.6,165.5,0l1603.7-1603.7c45.6-45.6,45.6-119.8,0-165.5ZM3407.6,1803.9l-1603.7,1603.7c-21.1,21.1-55.3,21.1-76.4,0L123.8,1803.9c-21.1-21.1-21.1-55.3,0-76.4L1727.5,123.8c21.1-21.1,55.3-21.1,76.4,0l1603.7,1603.7c21.1,21.1,21.1,55.3,0,76.4Z"/>
  <path class="st1" d="M2316.9,921.3c-40.4-8.1-81.3-13.9-122.1-4.6-38,8-77.8,8.4-113.4,25.2,14.6-36.9,16.6-76.9,23.7-115.7,4.7-26.4,4.6-52.7-3.2-78.5-2.7-7.4-6.5-5.9.8-11,15.5-10.7,33.6-16.5,50.7-24.3-21.5-3.1-40.3-3.1-61.8,0-2.2-25.1-14.9-48.7-23.6-72.1.2,15,8.8,76.1-.1,83.4-61.1,12.9-105.2,58.5-160.3,84.3-14.8-89.4-6.1-184.2-51.5-266.2,10.4,82.1,8.6,163.8-10.1,244.7-11,29.1-14.3,62.2-28.7,89.3-8.7,10.2-17.3,20.5-25.9,30.8-8.2-18-17-35.5-26.5-52.9-1.3,26.9,19,66.1-9.8,83.3-23.6,20.9-55,28.3-82.1,43.6-35.5,18.2-76.1,29.7-114.2,13.1-5.3-1.5-5.7-.8-6.9-6.1-6.7-14,.5-28.1,2.1-42.4,10.5-67.7,24.5-137.5,59.3-197.3-31.8,22.8-60.6,49.9-76.8,86.1-18.9,59.8-35.9,119.8-48.1,181.2-5.8,34.8-35.7,60.4-53.3,90.1l1.5-1.5-1.5,1.5h0c-15.2,18.6-38.9,5.9-50.1-10.2-32-54.5-4.5-124.4,17.8-178.1-54.5,51.3-81.3,78.4-69.2,157.4,7.2,27.9,6.6,55.1,3.1,83.3,4.4,27,9.9,53.8,17.5,80-41-10-68.4-48.8-97.8-77-20.7-40.6-35.4-87.3-34.7-133.4-32.8,70.7,6.1,143.7,30.9,210.4-41-33-71-77.8-86.9-128-6.3,27.9,2.8,59.9,4.5,88.3,28.8,46.1,72.4,75.5,117,105,43.1,24.6,31,69.7-11.9,85.7-34.7,21.2-64.7,48.7-105.2,58-19.7,8.4-38.7,16.9-59.2,22.8-17.6,10-34,23.4-53.7,30-6.5,3.1-8.1,17.4-10.4,24.2,1.4,10,7.3,20,10.1,29.9,6.5,17.2,7.4,41.5,29.5,45.7,23.9,10.9,48.6-5.5,73.4,2.6,18.4,1.3,34,10.2,50,18.3,25,5.3,50.8,7.5,73.7,20.7l-38.3,48.5,23.6-10.3-10.3,13.2,26.5-7.3-23.6,33.9,23.6-8.9-16.2,26.5,28-13.2-11.8,13.2,17.6-2.9-10.2,13.2,20.6-2.9-28,36.8,30.9-10.3-16.2,20.6,33.9-10.3-20.6,30.9,20.6-7.3-13.3,20.6,23.6-13.2-16.2,30.9,23.6-3-20.6,26.4,20.6-10.3-20.6,30.9,36.8-13.2-26.4,23.5,23.5-2.9-23.5,23.5,30.9-13.2-20.6,23.5,30.9-10.3-14.7,23.6,17.7-10.3-10.3,20.6,16.2-13.2-8.8,33.8c11.6-5.5,23.4-17.4,35.2-19.6,8.5,9.9,33.1,16.1,28.7,31.1-7.4,61.3-16.1,122.9-18.5,184.5,4.7,31.7,13.8,62.2,28.4,90.8,15.5,34.2,45.3,65.5,45.5,104.6-4.1,51.4,11,99.5,36.7,143.7,12,51.4,15.3,101.5,17.5,154.2,33.5,45.3,18.5,128.5,24.9,173.6,36.4,65.4-105.2,138.2,35.8,130,118.3-36.1,3.7-50.1,64.6-109.4-1.4-7.8-35.4-84.8-43.6-186,.5-29.6,1.9-66.2-.5-79.6-4.8-40.7-3.9-82.4-13.1-122.7-6.5-27.2,1.8-55.4-7.6-81.8,18.4,6.1,85.2-18.1,84.1-5.3,7.1,49.5,18,98.6,26.3,148.1-6,25.2-4.1,51.5-10.9,76.7-8.4,20.4-10.9,40.8-1.4,63.4,33.4,51.3,12.5,136.7,20.6,191.5,25.9,36-27.9,96.9,10.8,130.4,27.9,0,114.2-14.6,104.6-56.7-34.5-43.5-29.7-37-26.2-89.1-12.2-54.6-48.5-109.5-32.8-168.9,21-29.6,22.8-51.5,20.7-86,.5-30.2,8.5-59.3,9.6-89.2-3.4-38.6-9.9-76.9-17-114.9,46.3,54,94.7,104.3,134.1,163.6,6.6,22.7-20.1,53.9-28,76.2-6.6,17.3-18.5,37.1-23.7,53.2,5.8,38.2-60.1,64.2-43.4,105.5,11.6,5.9,37.7,15.2,60.9,17-3,10.9-2.8,21.9,4.5,32.5,23.6,6.2,99.6,13,100.8-24.6-19.5-44.4-16.8-37.8-2.3-80.9-8.8-70.7,5.6-139.8,20.3-208.6,4.2-40.2-17.5-79.9-9.2-120.4,6.9-38.4,5.9-82,27-115.6,24.2-45.7,39.4-95.8,63.1-142.2,29.6-91.2,70.3-194.4,31.4-288.5-35.6-51.4-55.6-110.9-91.7-161.7-55.5-61.6-185.2-68.4-252.3-22.9-3.3,1.9-18.6,12.7-22.5,11.3-20.2-8.7-41.5-13.6-63.4-16.4-53.7-3.1-79.4,20.4-130.8-14.5l23.6,2.9-23.6-13.2,36.8,2.9c-16.3-9.7-33.9-16.7-47.1-30.9,11.5,0,22.5-1.6,33.8-3l-33.8-10.3h17.7l-28-17.7h20.6l-30.9-19.1,23.6,2.9-33.9-28,38.3,4.4-35.4-22,35.4,4.4-51.6-35.3,20.6,4.4-20.6-17.7h20.6l-58.9-32.4c48.1-19.8,69.2-73.2,111.8-99,32.4-23.5,73.9-32.5,104.7-58.5,21.7-24.9,42.2-50.2,71.8-65.9,74.3-29.1,155.3-32,215.1-94.3,109.2-128.5,198.5-177,368-192.7l-41.2-8.8ZM1892,2334c5.2-10.5,10.5-21,15.7-31.4l16.2-13.2c6,17.8,11.7,35.7,17.4,53.6,2.1,6.6,5,13.9,4.2,20.9-1.3,10.5-2.6,20.9-3.9,31.4-8.5-3.7-19.7-6.3-26.3-13-8.2-8.2-13.9-17.1-20.4-26.8-2.6-3.8-5.2-7.7-7.8-11.7-.6-.9,4.3-8.7,4.8-9.8ZM1416.1,1361.1l-4.4-10.3-8.8,10.3-4.5-13.2-13.2,17.6-2.9-17.6-14.7,13.2,7.4-23.5c21.7,3.1,43.2,6.3,64.7,10.3l-23.6,13.2ZM1497.1,1371.4c0-2-1.2-9.1.1-10.5,3.4-3.3,6.7-6.7,10-10,5.4-5.4,13.5-5.7,20.8-7.5l-30.9,28ZM1744.3,1034.5c-2.2,20.1-4.5,40.2-7.3,60.3-1.5,10.2-2.6,19.5-6,29.1-3.4,9.4-7.1,17-12.1,25.6-9.5,16.6-18.6,36.3-32.4,50-8.1,8.2-16.3,16.4-24.5,24.6-2.6,2.6-10.3,3.7-13.7,5-5.8,2-6.6,2.6-12.3.5-5.6-2-13.6-2.8-17-8-5.1-7.6-10.1-15.3-15.3-22.9-3-4.5-3.4-12-4.7-17.2-2.1-8.2-4.2-16.4-6.2-24.6-3.2-12.9-2.1-28.2-3-41.5-1-13.9,1.2-27.6,2.9-41.3-9.4,14.7-17.8,28.1-21.5,45.5-4.3,19.7-8.4,38.3-15.2,57.3-1.1,3.1,1.3,10,1.8,13.2.5,3,.8,6.2,1.5,9.1,2.9,11.3,5.8,22.6,8.8,33.9,2.1,8.1,5.8,15.7,9,23.4,3.4,8.2,9.5,13,15.7,19.2l-57.4,10.3,2.9-44.1c-5.5,9.1-10.9,18.3-16.3,27.4-3.1,5.3-6.3,10.5-9.3,15.7-2.6,4.3-2.9,4.1-8.1,5.2-18.6,4.1-39.3,7.7-58,3.8-6.5-1.4-13.1-2.8-19.7-4.1-5.7-1.2-5.6-2.3-8.7-7.7-4.1-7.2-7.4-18.4-5.7-26.5,1.8-9.4,3.8-18.8,6.2-28.1,1.7-6.7,3.5-13.4,5.3-20.1.7-2.7.9-7.7,2.7-10,11.5-15.4,22.5-31.7,35.3-46.1,13.5-15.1,26.9-30.2,40.5-45.2,9.5-10.4,19-20.9,28.5-31.3,6.1-6.7,7.9-8.3,16.5-11,10.4-3.4,21.3-8.3,32-10.3,11-2,22.9-1.7,34.1-2.5,24.6-1.8,49.2-8.1,73.3-13.2,5-1,11.6-1.3,16.2-3.5,4.3-2,8.5-6.4,12.2-9.1,11.7-8.7,23.2-17.4,34.9-26.2l-5.9,35.3ZM2060.8,787.4c-10.1,40.5-17.4,81.3-26.2,122.1-3.9,18-4.7,36.1-12.3,53-9.2,20.7-19,40.2-30,60.1-10,18.1-23.5,33.7-36.3,50.1-4.5,5.7-8.2,11.5-13.5,16.5-9,8.6-18,17.2-27,25.7-15.2,14.5-35,22.7-53.4,32.7-16.5,9-35.6,4.6-50.3-5.9-5.1-3.7-11.3-8-14.9-13.3-1.6-2.4-5.3-6-5.7-8.9-.5-2.8,0-8.1-2.9-8.5v-34.1c0-9.5,2.5-19.3,3.8-28.8,2.8-18.9,6.5-37.6,9.4-56.4.8-5.7,1.8-11.5,2.6-17.2.6-3.9,6.8-6.4,9.8-8.6,3.5-2.5,7.4-6.4,11.3-8,4.5-1.8,10.5-3.2,14.6-5.9,18.5-12.3,35.2-25,52.3-39.4,14.7-12.4,30.4-23.8,45.6-35.5,15.7-12.2,29.4-26.6,43.7-40.4,13.6-13.1,26.6-26.9,39.7-40.5,12.5-13,28.3-20.4,43.8-29.4l-4.4,20.6Z"/>
</svg>