<?xml version="1.0" encoding="UTF-8"?>
<svg id="For_Sheets" xmlns="http://www.w3.org/2000/svg" version="1.1" viewBox="0 0 3531.4 3531.4">
  <!-- Generator: Adobe Illustrator 29.1.0, SVG Export Plug-In . SVG Version: 2.1.0 Build 142)  -->
  <defs>
    <style>
      .st0, .st1 {
        fill: #231f20;
      }

      .st2 {
        fill: #ffd046;
      }

      .st1 {
        fill-rule: evenodd;
      }
    </style>
  </defs>
  <g>
    <path class="st2" d="M1765.7,3531.6c-43.3,0-84-16.9-114.6-47.5L47.4,1880.4c-63.2-63.2-63.2-166.1,0-229.3L1651.1,47.4C1681.7,16.7,1722.4-.1,1765.7-.1s0,0,0,0c43.3,0,84,16.9,114.6,47.5l1603.7,1603.7c30.6,30.6,47.5,71.3,47.5,114.6s-16.9,84-47.5,114.6l-1603.7,1603.7c-30.6,30.6-71.3,47.5-114.6,47.5Z"/>
    <path class="st0" d="M1765.7,0c41.5,0,82.9,15.8,114.6,47.4l1603.7,1603.7c63.3,63.3,63.3,165.8,0,229.1l-1603.7,1603.7c-31.6,31.6-73.1,47.4-114.6,47.4s-82.9-15.8-114.6-47.4L47.4,1880.3c-63.3-63.3-63.3-165.8,0-229.1L1651.2,47.4C1682.8,15.8,1724.3,0,1765.7,0M1765.7-.3c-43.3,0-84.1,16.9-114.7,47.5L47.3,1651c-30.6,30.6-47.5,71.4-47.5,114.7s16.9,84.1,47.5,114.7l1603.7,1603.7c30.6,30.6,71.4,47.5,114.7,47.5s84.1-16.9,114.7-47.5l1603.7-1603.7c30.6-30.6,47.5-71.4,47.5-114.7s-16.9-84.1-47.5-114.7L1880.4,47.3c-30.6-30.6-71.4-47.5-114.7-47.5h0Z"/>
  </g>
  <path class="st0" d="M3452.2,1683L1848.4,79.3c-45.6-45.6-119.8-45.6-165.5,0L79.3,1683c-45.6,45.6-45.6,119.8,0,165.5l1603.7,1603.7c45.6,45.6,119.8,45.6,165.5,0l1603.7-1603.7c45.6-45.6,45.6-119.8,0-165.5ZM3407.6,1803.9l-1603.7,1603.7c-21.1,21.1-55.3,21.1-76.4,0L123.8,1803.9c-21.1-21.1-21.1-55.3,0-76.4L1727.5,123.8c21.1-21.1,55.3-21.1,76.4,0l1603.7,1603.7c21.1,21.1,21.1,55.3,0,76.4Z"/>
  <g>
    <path class="st1" d="M2483.5,2469.3c-20.5-29.6-10.7-65.2-16.1-98.9-1-10.2-2.2-20.4-3.3-30.6-.6-5.3,3.7-21.6.8-23-7.1-3.6-2.5-42.8-1.7-50.7,1.1-11,2.4-14.6-3-23.6-12.2-22.7-11.5-52.6-10.9-77.7-.3-17.2,11.3-34.7,11.7-51.2-8.7-13.2-28.6-20.7-41.6-29.3-47.8-20.5-59.1-78.5-87.7-117.9-8.9-14.8-4.7-33.8-4-50.7.3-7.1,7.6-13.2,11.7-18.8,9.7-19.5,26.7-36.2,40.7-51.5,23.1-27.9,11.8-61.9,22.3-94.2v2.6c26.2-72.6,25.9-134.8-35.1-188.6-53-61.1-76.9-117.8-167.7-122.8-18.2-2.6-36.2-7.6-54.6-10.3-49.2-4.4-101.9,17.9-150.1,2-15.9-8-33.6-19.2-50.8-24.1-18.6-.7-35.5-7-53.1-12.6-67.5-21.9-145.3-26.2-198.4-78.3-12.8-11.3-36.4-11.2-52.5-13.6-34.2-3.6-66.4-12.8-99.6-20.1-24.2-1.8-50.3,13.1-74.6,6-17.1-18-23.9-46.5-42-64.8-12.7-15.9-32.2-34.4-24-56.5,7-18.8,39.7-20,50.6-36.3,6.8-12.4,5.8-30.5,11.2-43,.3-43.5-50.9-4.1-62.5-18,37-8.3,45.2-36.2,90-7.5,46.9,33.6,16.2,93.6,12.7,139.6,2.4,22.4,1.9,52.1,10.9,71.8,8.3,0,18.6-1.8,26.5,0,10.4,2.4,20.7,4.8,31.1,7.2,9.8,2.2,10.8,7,17.9-1.9v1.4c27.2-77.2,83.9-171.8,25.9-247.8-16.9-18.4-31.9-37.9-46.7-57.4-34.3-23.8-61.5-73-108-71.7-99.1,26.9-86.6,1.3-157.7,86.4-16.6,41.7-39.2,5.1-49.1-19.5-17.1-30.8-52.5-47.4-81.5-64.4v1.3c-50.4-31.6-100.1,31.9-118.8,72.8-20.6,34.4-.4,72.7-11.5,108.4-21.5,45.4-37.4,97.7-71.2,136.1-14.3,18.7-33,4-44.9-9.4-13.5-13.5-81-76.3-54.1-15.7,14.6,37.8,49.1,56.3,80.7,78.3,16.9,12,26.8,21.3,48.1,21.3s29.7-.6,44.9-12.8c13.9-11.9,31.2-20.8,34.6-40.5,18.2-28.1,37.5-55.1,41.5-89.3,35.5,20,70.3,27.4,30.5,68.1-33.4,32.9-27.7,44.5-1.1,79.8v-2.7c11.5,15.2,17.4,28.1,4,44-9.7,17.8-5.4,34.2-6.2,53.6,0,34.5-3.1,70.9,2.2,105.1,8.7,35.2,40,57.1,62.1,83.1,4.4,17.5,10.4,34.8,21,50,3.1,5.7,11.2,8.3,11.7,15.1,3.3,27.3-3.3,60.1,23.1,77.4,8.7,6.2,8.8,9.1,12,18.8,10.9,23.1,27.1,46.6,43.5,66,23.9,26.6,61.6,36.2,78.3,68.7,17.8,29.7,22.6,64.4,35.6,95.9,6.4,13.8,20.3,34.8,18.9,50.6-3,35.4-5.1,73.6,5.1,107.9,22.3,63.1,49.6,128.1,46.7,196.5-7,33.5-29.2,62.2-38.4,94.9-2.9,30.1-41.9,19.9-48,47.8,12.3-.2,23.8,1.3,36.1,0-3.6,5.3-7.1,10.6-10.8,16,26.2,14.8,89.4,17.5,116,2.7-9-14.1,7.9-26.2,12.5-39.2,3.4-12.3,25.5-3.2,32.9-8.1,18.9-43.4-18.5-77.4-23.1-118.9-10.1-42.1-8.6-84.2-5-127v1.3c1.2-14.3,3.1-28.4,5.3-42.6v1.4c4.9-4.3,5.7-12,9.4-17.5,4.7-7,11.9-15,11.9-23.7,2.8-14.5,3.9-31.2,5.9-46,9.7-33,16-70.4,35.4-99.3,10.6-15.7,14.5-30.5,15.7-49.5,1.1-16,29.1-14.7,36.7-3.2,20.5,22.2,54.1,52.9,86.2,47.3h-1.3c16.9-1.6,23.2.3,38.6,8-.9-.4-1.8-.8-2.7-1.3,40.3,13.5,81.5-18.1,98.6,0,17.1,22.9,39.1,33.4,62.4,49.1,38.3,19.8,72.7,49.9,112.9,66.9,33.5,17.7,72.8,16.5,95.4,50.5,16,23,46.2,37.7,32.1,69.8-7.2,39.4-11.5,80.7-24.1,118.7-5.6,16.8-9.6,30.4-9.6,48.7,1.8,18.7,4.4,37.4-2.4,55.7-5,24.6-36.3,33.6-46.9,54.9-1.5,8,2.2,17.6-5.3,24,.8.5,1.7.9,2.6,1.3-2.1-1.2-1.7.9-2.6-1.3-100.5,64.5-6.6,53.8,51.6,52.2,9.7-.4,6.1-10.1,6.5-18.8-3-45.4,24-29.2,52.9-39.7,5.5-2,.9-48.5.9-54.7,8.6-46.6,17.3-93,23.9-140.1-.8.8-1.8,1.8-2.7,2.7,18.5-61.1,21.8-128.4,58.6-182.6,24.3,29.2,47.4,61.6,57.3,98.6v-1.4c13.7,32.8,6.9,68.1,8.1,102.7-6.3,37.6,18.6,67.2,19.9,103.4.3,44.8-11.9,63.1-36.2,97.7-2.7,7.2,1.7,14-3.7,21.4-11.8,13.4-26.4,25.7-36.8,40.6-1.3,1.7,4.5,8.7,5.7,10.5,25.9,1.9,53.8-1.5,80.3-1.5,25.8,2,3.1-30,12.8-42.9,7.5-13.6,14.6-32,33.2-29.3,4.6-6.4,29.1-65.5,16.6-68.1"/>
    <path class="st1" d="M1453.7,1134.1c-3,1-6,2.9-8.1,5.3,2.8-1.8,5.4-3.6,8.1-5.3"/>
    <path class="st1" d="M1586.9,1296.7c5.4.7,10.8,2.2,16,0h-16"/>
  </g>
</svg>