<?xml version="1.0" encoding="UTF-8"?>
<svg id="For_Sheets" xmlns="http://www.w3.org/2000/svg" version="1.1" viewBox="0 0 3531.4 3531.4">
  <!-- Generator: Adobe Illustrator 29.1.0, SVG Export Plug-In . SVG Version: 2.1.0 Build 142)  -->
  <defs>
    <style>
      .Grid_x0020_FILL_x0020_2 {
        fill: #231f20;
      }

      .st0 {
        fill: #ffd046;
      }
    </style>
  </defs>
  <g>
    <path class="st0" d="M1765.2,3531.1c-43.3,0-84-16.9-114.6-47.5L46.9,1879.9c-63.2-63.2-63.2-166.1,0-229.3L1650.6,46.9c30.6-30.6,71.3-47.5,114.6-47.5s84,16.9,114.6,47.5l1603.7,1603.7c63.2,63.2,63.2,166.1,0,229.3l-1603.7,1603.7c-30.6,30.6-71.3,47.5-114.6,47.5Z"/>
    <path class="Grid_x0020_FILL_x0020_2" d="M1765.2-.5c41.5,0,82.9,15.8,114.6,47.4l1603.7,1603.7c63.3,63.3,63.3,165.8,0,229.1l-1603.7,1603.7c-31.6,31.6-73.1,47.4-114.6,47.4s-82.9-15.8-114.6-47.4L46.9,1879.8c-63.3-63.3-63.3-165.8,0-229.1L1650.7,46.9c31.6-31.6,73.1-47.4,114.6-47.4M1765.2-.8c-43.3,0-84.1,16.9-114.7,47.5L46.8,1650.5c-30.6,30.6-47.5,71.4-47.5,114.7,0,43.3,16.9,84.1,47.5,114.7l1603.7,1603.7c30.6,30.6,71.4,47.5,114.7,47.5s84.1-16.9,114.7-47.5l1603.7-1603.7c30.6-30.6,47.5-71.4,47.5-114.7s-16.9-84.1-47.5-114.7L1879.9,46.8c-30.6-30.6-71.4-47.5-114.7-47.5h0Z"/>
  </g>
  <path class="Grid_x0020_FILL_x0020_2" d="M78.8,1847.9c-45.6-45.6-45.6-119.8,0-165.5L1682.5,78.8c45.6-45.6,119.8-45.6,165.5,0l1603.7,1603.7c45.6,45.6,45.6,119.8,0,165.5l-1603.7,1603.7c-45.6,45.6-119.8,45.6-165.5,0L78.8,1847.9Z"/>
  <path class="st0" d="M123.3,1803.4c-21.1-21.1-21.1-55.3,0-76.4L1727,123.3c21.1-21.1,55.3-21.1,76.4,0l1603.7,1603.7c21.1,21.1,21.1,55.3,0,76.4l-1603.7,1603.7c-21.1,21.1-55.3,21.1-76.4,0L123.3,1803.4Z"/>
  <path class="Grid_x0020_FILL_x0020_2" d="M1210.4,1905.4c-8.2,1.9-43.7-62.1-87.8-99.3-20-16.9-16.6-17.1-17.7-51.1-2.5-78.4,13.3-77.3-34.8-162-4.5-7.9-22.6-37.8-13.2-54.5,6-10.6,12.2-18.1,16.6-25.4,17.6-28.9,38.8-13.6,69.1-6.1,47.2,11.6,113.9,31.5,158.1,47.5,12.9-61.8,25.4-116.8,55.6-163.1,53.1-81.5,40.5-59.1,35.2-158-2.2-40.8,0-79.4,6.5-120-10.7-26.3-44.7-34.2-70.2-34.9-8.6-.2-29.5-15-36.6-22.2-7.3-7.4-28.8-3.3-34.5-15.3-7.7-16.2-6.2-28.2,2.1-37.8,4.4-5.1,10.5-9.6,17.8-13.8,7.3-4.1,15.7-7.9,24.7-11.2,30-11.3,66.3-18.7,86.8-25.4,56.6-15.5,69.9-14.1,130.8-18.8,30.6-2.4,39.9-10.6,54.9-22.3,11.6-9.1,24.6-23.1,21.6-39.9-3-16.8-24.4-22.6-51.5-19.1-44.6,5.8-100.5,15.8-133.9-25.1-20.5-25-17.4-40.1-26.1-60.1,8.5,15.2,29.4,43.3,53.7,57.9,20.9,12.5,43.6,17.6,60.6,7.3,21-12.6-26.1-41.1-1-90.2-7.4,66.4,60.9,89.3,89.8,75.7,37.4-17.5,15.2-139.7-38.7-166,59.9.2,64.6,64.6,80.3,107,8.7,23.5,31.8,16.9,44.4-.4,24.1-32.7,51.8-107-23.5-163.7,60,23.3,83.9,66.4,67.2,131.3-27.3,67.5-92.6,126.5-101.2,202.5,23.3-16.7,46.6-21.8,76.2-12-25.3,40.3-27.1,62.8-73.2,76.2,3.5,45.1,10.1,91.3.2,135.6-5.8,26-8.4,38.3-5.4,61.7,16,126.8-5.9,147.2,114.5,286.9,48.3,56,125.4,79.3,187.2,121.9,43.2,29.8,52.5,33,104.4,41,86.9,13.4,124.8,17.1,198.5,90.7,54.5-4.8,67.8-28.7,85.3-43.1,21.6-30.3,32.6-61.6,33.1-116.3,25.9,26.2,44.7,60.1,49.1,91.2,4.3,29.8-14.3,49.6-42.1,71.2-30.6,20.1-56,40.1-98.2,41.1,13.9,40.5,19.4,78.9,10,118.3-5.9,92.8-60.3,168.5,16,252.6,32.4,41.1,89.5,91.2,97.2,123.3,7.8,32.2-11,71.3,1,197.5,13.4,30.7.3,42.3,59.1,76.2,1.3,28.7,2.7,57.5,4,86.2-50.1-20.1-59.8-46.5-82.2-63.2-55.2-41-55.6-99.1-60.6-222.5-3.8-93.6-259.4-234.2-295.3-275.7-40.1-46.5-50.1-103.1-87.6-132.3-133.9-104.1-349.8-64.6-526.9-179.5-22.4-9-48.9-13.9-71.3-23-52.1-34.8-87.9-85.9-152.3-108.4,13.2,53.2,10,98.2,15,147.4,6.3,31.9,41.5,36.4,49.1,61.2-2,12-4,24.1-6,36.1-1.3,12,5.4,33.9-4,36.1Z"/>
</svg>