<?xml version="1.0" encoding="UTF-8"?>
<svg id="For_Sheets" xmlns="http://www.w3.org/2000/svg" version="1.1" viewBox="0 0 3531.4 3531.4">
  <!-- Generator: Adobe Illustrator 29.1.0, SVG Export Plug-In . SVG Version: 2.1.0 Build 142)  -->
  <defs>
    <style>
      .st0, .st1 {
        fill: #231f20;
      }

      .st2 {
        fill: #ffd046;
      }

      .st1 {
        fill-rule: evenodd;
      }
    </style>
  </defs>
  <g>
    <path class="st2" d="M1765.7,3531.6c-43.3,0-84-16.9-114.6-47.5L47.4,1880.4c-63.2-63.2-63.2-166.1,0-229.3L1651.1,47.4C1681.7,16.7,1722.4-.1,1765.7-.1s84,16.9,114.6,47.5l1603.7,1603.7c30.6,30.6,47.5,71.3,47.5,114.6s-16.9,84-47.5,114.6l-1603.7,1603.7c-30.6,30.6-71.3,47.5-114.6,47.5Z"/>
    <path class="st0" d="M1765.7,0C1807.2,0,1848.6,15.8,1880.3,47.4l1603.7,1603.7c63.3,63.3,63.3,165.8,0,229.1l-1603.7,1603.7c-31.6,31.6-73.1,47.4-114.6,47.4s-82.9-15.8-114.6-47.4L47.4,1880.3c-63.3-63.3-63.3-165.8,0-229.1L1651.2,47.4C1682.8,15.8,1724.3,0,1765.7,0M1765.7-.2c-43.3,0-84.1,16.9-114.7,47.5L47.3,1651c-30.6,30.6-47.5,71.4-47.5,114.7,0,43.3,16.9,84.1,47.5,114.7l1603.7,1603.7c30.6,30.6,71.4,47.5,114.7,47.5s84.1-16.9,114.7-47.5l1603.7-1603.7c30.6-30.6,47.5-71.4,47.5-114.7s-16.9-84.1-47.5-114.7L1880.4,47.3C1849.8,16.6,1809.1-.2,1765.7-.2h0Z"/>
  </g>
  <path class="st0" d="M3452.2,1683L1848.4,79.3c-45.6-45.6-119.8-45.6-165.5,0L79.3,1683c-45.6,45.6-45.6,119.8,0,165.5l1603.7,1603.7c45.6,45.6,119.8,45.6,165.5,0l1603.7-1603.7c45.6-45.6,45.6-119.8,0-165.5ZM3407.6,1803.9l-1603.7,1603.7c-21.1,21.1-55.3,21.1-76.4,0L123.8,1803.9c-21.1-21.1-21.1-55.3,0-76.4L1727.5,123.8c21.1-21.1,55.3-21.1,76.4,0l1603.7,1603.7c21.1,21.1,21.1,55.3,0,76.4Z"/>
  <g>
    <path class="st1" d="M1689.3,1738.7c52.2,0,94.8,42.6,94.8,94.8s-42.6,94.8-94.8,94.8-94.8-42.6-94.8-94.8,42.6-94.8,94.8-94.8Z"/>
    <path class="st1" d="M1402.2,2336.6l198.9-132.6c9.2-38.9,47.3-211.4,123.9-251.4,75.8-50.1,355.2,155.7,356.8,157.4v300.3l-60.6-10.5-23.7-239.7c-22.8-4.6-45.7-9.2-68.5-13.8,49.9,129,68.2,253.3,39.5,335.1l121.2,495.2-81.7,57.9-176.5-458.3-81.7,86.9-113.3,345.1-108-39.5,97.5-363.5,113.3-202.8-43.4-149.7-46.1,60.1-216,71.1-31.6-47.4Z"/>
  </g>
  <path class="st0" d="M2264.9,1004.7c-59.9,0-115.8,17.3-162.9,47.3l-106.6-141.7,14-50c66.8-5.8,103.8-31.2,101.5-55.7-2.2-23.8-68.5-6-142.2-5-20.2.3-127.5-.2-126.9,19.5.6,20.2,69.2,36.6,117.3,41.2l-8.6,30.6h-433c9.2-30.1,17.7-57.9,24.2-79.4,5.6-18.4,9.7-32.3,11.8-39.1l-31.5-24.1,14.9-15.1h116v-38.2h-132l-56.6,57.3,36.3,27.8c-16.8,55.7-56.5,186.5-82.2,265.3-44.7-25.8-96.5-40.6-151.8-40.6-167.9,0-304.1,136.1-304.1,304.1s136.1,304.1,304.1,304.1,304.1-136.1,304.1-304.1-43.1-178.9-110.7-234.7c3.1-9.5,6.6-20,10.2-31.2l327.2,356.1c0,.9-.1,1.9-.1,2.8,0,19.3,15.3,35,34.4,35.6l22.9,87.1h-23.4v22.9h73.9v-22.9h-29.4l-24.3-92.3c5-3,9.1-7.2,12.1-12.2l110.2-23.7c37.6,125.3,153.8,216.6,291.3,216.6s304.1-136.1,304.1-304.1-136.1-304.1-304.1-304.1ZM1513.3,1308.7c0,136.3-110.5,246.7-246.7,246.7s-246.7-110.5-246.7-246.7,110.5-246.7,246.7-246.7,93.6,14,131.7,38.1c-30.3,65.7-89.4,136.5-132,176.4-17.7.1-32,14.5-32,32.2s14.4,32.2,32.2,32.2,30-12.3,31.9-28.2c20.8-19.5,48-48.2,74.9-82.6,20-25.6,44.9-61,63.9-99.4,46.8,44.9,75.9,108,75.9,178ZM1826,1336l-15-56.9h23.4v-23h-73.9v23h29.4l14.9,56.5-317.9-346c5.2-16.5,10.4-33.4,15.7-50.3h434.4l-110.9,396.8ZM1963.4,1348.9l-96.5,20.8,112-400.7,84.3,112.1c-62.9,55.7-102.5,137-102.5,227.6s.9,27,2.6,40.1ZM2018.2,1308.7c0-71.9,30.7-136.5,79.8-181.6l124.8,165.9-203,43.7c-1-9.2-1.6-18.5-1.6-28ZM2264.9,1555.5c-110,0-203.1-71.9-235-171.3l219.3-47.2c4.6,2.6,10,4.1,15.6,4.1,17.8,0,32.2-14.4,32.2-32.2s-11-28.5-25.6-31.5l-134.9-179.3c37.4-22.8,81.3-35.9,128.3-35.9,136.3,0,246.7,110.5,246.7,246.7s-110.5,246.7-246.7,246.7Z"/>
</svg>