<?xml version="1.0" encoding="UTF-8"?>
<svg id="For_Sheets" xmlns="http://www.w3.org/2000/svg" version="1.1" viewBox="0 0 3531.4 3531.4">
  <!-- Generator: Adobe Illustrator 29.1.0, SVG Export Plug-In . SVG Version: 2.1.0 Build 142)  -->
  <defs>
    <style>
      .Grid_x0020_FILL_x0020_3 {
        fill: #231f20;
      }

      .st0 {
        fill: #ffd046;
      }
    </style>
  </defs>
  <g>
    <path class="st0" d="M1765.7,3531.6c-43.3,0-84-16.9-114.6-47.5L47.4,1880.4c-63.2-63.2-63.2-166.1,0-229.3L1651.1,47.4C1681.7,16.7,1722.4-.1,1765.7-.1s84,16.9,114.6,47.5l1603.7,1603.7c63.2,63.2,63.2,166.1,0,229.3l-1603.7,1603.7c-30.6,30.6-71.3,47.5-114.6,47.5Z"/>
    <path class="Grid_x0020_FILL_x0020_3" d="M1765.7,0c41.5,0,82.9,15.8,114.6,47.4l1603.7,1603.7c63.3,63.3,63.3,165.8,0,229.1l-1603.7,1603.7c-31.6,31.6-73.1,47.4-114.6,47.4s-82.9-15.8-114.6-47.4L47.4,1880.3c-63.3-63.3-63.3-165.8,0-229.1L1651.2,47.4C1682.8,15.8,1724.3,0,1765.7,0M1765.7-.3c-43.3,0-84.1,16.9-114.7,47.5L47.3,1651c-30.6,30.6-47.5,71.4-47.5,114.7,0,43.3,16.9,84.1,47.5,114.7l1603.7,1603.7c30.6,30.6,71.4,47.5,114.7,47.5s84.1-16.9,114.7-47.5l1603.7-1603.7c30.6-30.6,47.5-71.4,47.5-114.7s-16.9-84.1-47.5-114.7L1880.4,47.3c-30.6-30.6-71.4-47.5-114.7-47.5h0Z"/>
  </g>
  <path class="Grid_x0020_FILL_x0020_3" d="M79.3,1848.4c-45.6-45.6-45.6-119.8,0-165.5L1683,79.3c45.6-45.6,119.8-45.6,165.5,0l1603.7,1603.7c45.6,45.6,45.6,119.8,0,165.5l-1603.7,1603.7c-45.6,45.6-119.8,45.6-165.5,0L79.3,1848.4Z"/>
  <path class="st0" d="M123.8,1803.9c-21.1-21.1-21.1-55.3,0-76.4L1727.5,123.8c21.1-21.1,55.3-21.1,76.4,0l1603.7,1603.7c21.1,21.1,21.1,55.3,0,76.4l-1603.7,1603.7c-21.1,21.1-55.3,21.1-76.4,0L123.8,1803.9Z"/>
  <path class="Grid_x0020_FILL_x0020_3" d="M750.7,1610.6l-31.2-6-16.6-11.5-8.6-12,5.8-8.4c11.1-3.5,37.1-7.7,47.4-12.2,17.4,2.7,40.5,3.4,56.4-5.3,4.9,7.3,10.8,31.5,14.4,39.2-19.9,11.7-41.8,18.4-67.4,16.1ZM1536.5,1845.6c3.8-32.5,6.5-78,6.2-110.7-2.7-19.1-11.9-47.5-24.7-62.4l18,4.6,17.7,9.7,12.8,16.6,8.9,27.7,1.1,25.7c-5.9,27.9-7,68.6-3.5,96.7l-36.5-8ZM1670.1,1890.8l218.5,44.2c-37.1,31.9-60.7,79.2-60.7,131.7,0,95.7,78.1,173.8,173.8,173.8,95.7,0,173.8-78.1,173.8-173.8,0-43-15.7-82.4-41.7-112.7h377.3c-27.2,30.7-43.7,71-43.7,115,0,95.7,78.1,173.8,173.8,173.8,95.7,0,173.8-78.1,173.8-173.8,0-64.4-35.4-120.8-87.6-150.8v-629.4s-852.4,0-852.4,0v67.3s113.7,0,113.7,0l2.3,537.2c-31.9,2-61.4,12.5-86.4,29.5l-238-50.9c2.7-4.7-1.8-29-2.5-34.4-1.7-38.8-6.2-96.7-17.9-133.9-17.7-33.7-31.4-42.3-63.8-60,0,0-23.9-8-23.9-8-11.5-.4-36.4-.2-47.2,2.9-9.2,1.2-29.1-2.3-38.1-4.7,0,0-24.1-12.8-24.1-12.8-17-7.7-53.3-21.4-71.6-23.9,0,0-17.9-7.5-17.9-7.5l-268.2,5c-13.6-3.5-18.2-14.2-46.3-13.1l-53.7-30.4c-30.1-29.3-168.2-157-189-190.4,0,0-7.5-9.5-7.5-9.5h-7.7c-7.3,7.9,0,23.2,2.2,32.1l-13.1-5.5c-4.4-4.6-13.9-13.3-19-17l-3.5,1.8c-3.3,16.2,13.5,32,20.6,44.9-10.8,6.8-33.8,22.9-44.3,30.5-4.3,2.1-12.8,6.6-15.3,10.8,0,0-.7,9.1-.7,9.1l-17.7,18.4-37.9,34.3c-5.6,2.3-16.4,8-21.3,11.5-2.3,4.4-4,13.7-3.8,18.6-2.5,10.1-3.2,24.1,3.1,33l4.6.4,1.8,5.8,16.2,5.1c7.6,4.3,18.3,10.1,27,5.5l10,17.5,27.9,13.9c35.1,13.5,81.2,17.7,101.5-12.6l17.5,58.6c1.2,5.4,24.1,57.5,20.6,61.5,1.5,5.7-4.2,27.7-5.5,33.6,0,0-2,20.6-2,20.6-3.4,9,31.8,64.8,35.6,73,.9,3.1-1.9,8.4-3.5,10.8-14.6,19-46.9,72.7-62.4,91.4-7.3,6.9-17.5,16.6-22.8,25.2-4.6,23.4-13.7,64-19.7,87-7.1,19.9-20.3,55.7-16.8,77.3.7,10.2-4.1,23.2-10.6,31-1,6.1-7.8,38.3-7.7,44.3,6.7,4,14.2.4,20.8-1.1,15.4-6.1,34.5-19,41.8-34.3.3-6.3-2.7-20.6-4.4-26.8,0,0-4.6-3.3-4.6-3.3l-2-10c1.3-3.9,4.7-9.5,8.2-11.7,0,0,3.1-12.8,3.1-12.8,2-9,3.2-27.3,2.7-36.5,2.2-22.7,13.9-51.8,24.6-71.7,12-21.7,38-37.6,56.7-52.9,26.3-14.5,60.4-34.7,82.8-55.6,0,0,9.5-6.6,9.5-6.6l.7-7.1,15.9,5.9c6.2,45.7,12.7,94.3,20.4,139.9.8,14.4,2.3,35.7,12.8,46.7,9.4,8.4,35.8,30.5,45.8,39,14.4,13.8,34,36.9,48.3,50.5,21.4,17.4,49.1,28.6,76.8,29.7,0,0,11.1-.2,11.1-.2l3.8-3.5c.4-6.3-9.7-26.9-12.2-32.8-7.9-8.7-20.1-25.1-33-25.7,0,0-10,4.6-10,4.6l-4.6,4.4-7.1.7c-7.3-4.7-6.9-6.6-8.2-14.6,0,0-2.4-7.5-2.4-7.5l-10.2-10c-21.1-14.9-52.1-30.8-63.5-55-10.3-46.5,2.5-105.8,5.3-152.8,36.9,4.1,92.2-13.6,127.2-24.5,39.9-10.2,93.9-28,130.7-46.4-3,64.5,22.5,106.2,43.7,163.3,0,0-3.6,20.2-3.6,20.2-6.2,10.3-25.7,34.1-33.6,43.6-12.7,15.6-33.6,35.6-48.9,48.5-6.1,4.5-18.5,15.5-21.9,22.4-.9,5.8-2.6,19-2.2,24.8,0,0-4.7,9.5-4.7,9.5-1.9,3.7-7.8,15.6-9.7,19.3-.2,1.6-9.8,40.3-8.2,41,20.3,7,43.7-14.7,59.8-24.8,1.5-7.2,2.9-17,.2-24.1-2.7-2.9-7.4-9.5-9.1-13.1,1.1-3.6,5.8-3,8.6-3.5,0,0,7.3-4.2,7.3-4.2,7.1-12.6,19.1-31.4,29.2-42.1,13.3-18.8,65.5-61.9,83.7-77,3.1-3.2,21.4-16.7,20.6-22.1,0-5-2.9-19.9-3.5-25,0,0-10-23.7-10-23.7-2.4-16.5-5.9-42.1-.4-58.3,9.9,9,33.4,25.2,45.1,32.2,11.7,10.4,38.2,33.8,48.7,44.7,34.9,25,50.9,49.6,69.7,87.2,9.4,18.1,26.6,55.3,34.1,74.2,1.9,6.2,7.2,20.2,12.6,24.3,17.7,11.2,28.4,4.8,39.2,28.6,0,0,6.4,8.6,6.4,8.6l45.8,22.8c9.9-7.5,1.8-27.4.9-37.4-4.3-12.3-8.3-27.7-19.7-35.4,0,0-9.1-1.8-9.1-1.8l-11.3,2.9c-1.8,1.8-6.3,4-8.6,4.9-5.2-1.9-5.6-3.8-7.1-8.6,7.1-19.5-6.7-27.3-17.7-40.5-27.3-37.8-43.2-94.5-54.7-139.2-1.6-24.8-4.4-20.8-24.6-31.7-23.8-9.8-36.5-17.2-48.5-41.2-4.1-13.9-1.5-35.3.7-49.4l41.4,9,1.7,8.5,10.8,4.9,16.8,24.6,8,20.8c.6,11.7,3.4,35,5.8,46.5,7.8,10.3,24.9,29.7,34.3,38.5,0,0,12,29.4,12,29.4l2.9,20.6c7-9.4,18.7-28.1,30.8-31.4,34.7-44.6-12.8-98.8-28.6-141.9ZM1901,2178.4l92.3-92.3v130.9c-35.4-2-67.6-16.2-92.3-38.6ZM2008.9,2217.1v-131s92.9,92.9,92.9,92.9c-25,22.3-57.4,36.4-92.9,38.1ZM2152.1,2075.1c-2,35.7-16.5,68.1-39.2,93l-93-93h132.1ZM1982.3,2075.1l-92.3,92.3c-22.4-24.8-36.6-57-38.6-92.3h130.9ZM2540.5,2180.7l92.3-92.3v130.9c-35.4-2-67.6-16.2-92.3-38.6ZM2648.4,2219.4v-131s92.9,92.9,92.9,92.9c-25,22.3-57.4,36.4-92.9,38.1ZM2791.6,2077.3c-2,35.7-16.5,68.1-39.2,93l-93-93h132.1ZM2621.8,2077.3l-92.3,92.3c-22.4-24.8-36.6-57-38.6-92.3h130.9ZM1851.3,2059.5c1.7-35.6,15.8-67.9,38.1-92.9l92.9,92.9h-131ZM2152.2,2059.5h-132.2s93.6-93.6,93.6-93.6c22.6,25.1,36.9,57.7,38.6,93.6ZM2102.5,1954.9l-93.6,93.6v-94.5h92.5c.4.3.7.7,1.1,1ZM2544.2,1953.9h88.6v96.8s-93-93-93-93c1.4-1.3,2.9-2.6,4.3-3.8ZM2490.8,2061.8c1.7-35.6,15.8-67.9,38.1-92.9l92.9,92.9h-131ZM2791.6,2061.8h-132.2s93.6-93.6,93.6-93.6c22.6,25.1,37,57.7,38.6,93.6ZM2741.9,1957.2l-93.6,93.6v-96.8h79s0-8.4,0-8.4c5.1,3.6,10,7.5,14.6,11.6ZM1988.7,1953.9h4.6v94.5s-93-93-93-93c5.9-5.4,12.2-10.3,18.9-14.7l69.4,13.2ZM1991.2,1939.9l-51.8-10.3c15.9-7.3,33.4-11.9,51.7-13.2v23.4ZM2203.2,1356.1v427.7s-192.7,65.8-192.7,65.8v-493.5h192.7Z"/>
</svg>