<?xml version="1.0" encoding="UTF-8"?>
<svg id="For_Sheets" xmlns="http://www.w3.org/2000/svg" version="1.1" viewBox="0 0 3531.4 3531.4">
  <!-- Generator: Adobe Illustrator 29.1.0, SVG Export Plug-In . SVG Version: 2.1.0 Build 142)  -->
  <defs>
    <style>
      .st0 {
        fill: #231f20;
      }

      .st1 {
        fill: #f7921e;
      }
    </style>
  </defs>
  <g>
    <path class="st1" d="M1765.7,3531.6c-43.3,0-84-16.9-114.6-47.5L47.4,1880.4c-63.2-63.2-63.2-166.1,0-229.3L1651.1,47.4C1681.7,16.7,1722.4-.1,1765.7-.1s84,16.9,114.6,47.5l1603.7,1603.7c63.2,63.2,63.2,166.1,0,229.3l-1603.7,1603.7c-30.6,30.6-71.3,47.5-114.6,47.5Z"/>
    <path class="st0" d="M1765.7,0c41.5,0,82.9,15.8,114.6,47.4l1603.7,1603.7c63.3,63.3,63.3,165.8,0,229.1l-1603.7,1603.7c-31.6,31.6-73.1,47.4-114.6,47.4s-82.9-15.8-114.6-47.4L47.4,1880.3c-63.3-63.3-63.3-165.8,0-229.1L1651.2,47.4C1682.8,15.8,1724.3,0,1765.7,0M1765.7-.3c-43.3,0-84.1,16.9-114.7,47.5L47.3,1651c-30.6,30.6-47.5,71.4-47.5,114.7s16.9,84.1,47.5,114.7l1603.7,1603.7c30.6,30.6,71.4,47.5,114.7,47.5s84.1-16.9,114.7-47.5l1603.7-1603.7c30.6-30.6,47.5-71.4,47.5-114.7s-16.9-84.1-47.5-114.7L1880.4,47.3c-30.6-30.6-71.4-47.5-114.7-47.5h0Z"/>
  </g>
  <path class="st0" d="M1848.4,3452.2c-45.6,45.6-119.8,45.6-165.5,0L79.3,1848.4c-45.6-45.6-45.6-119.8,0-165.5L1683,79.3c45.6-45.6,119.8-45.6,165.5,0l1603.7,1603.7c45.6,45.6,45.6,119.8,0,165.5l-1603.7,1603.7Z"/>
  <path class="st1" d="M1803.9,3407.6c-21.1,21.1-55.3,21.1-76.4,0L123.8,1803.9c-21.1-21.1-21.1-55.3,0-76.4L1727.5,123.8c21.1-21.1,55.3-21.1,76.4,0l1603.7,1603.7c21.1,21.1,21.1,55.3,0,76.4l-1603.7,1603.7Z"/>
  <g>
    <path class="st0" d="M967.8,1475.2h72.2v49.3h-72.2v169.2h-51.9v-360h183.7v50.5h-131.8v90.9Z"/>
    <path class="st0" d="M1150,1333.7h51.9v312h131.8v48h-183.7v-360Z"/>
    <path class="st0" d="M1508.5,1595.2h-77.2l-24.1,98.5h-51.9l89.9-360h50.7l89.9,360h-51.9l-25.3-98.5ZM1443.9,1544.7h51.9l-26.6-103.6-25.3,103.6Z"/>
    <path class="st0" d="M1740.6,1700c-32.8,0-111.6-6.1-111.6-185.7s75-186.9,107.8-186.9c52,0,91.3,37.8,93.9,90.9h-52c-1.3-24-17.7-40.5-43.1-40.5s-57.1,5.4-57.1,136.5,43.5,135.1,60.8,135.1c26.6,0,39.3-17.5,39.3-55.6v-24h-40.6v-50.6h92.6v74.5c0,90.1-59.3,106.1-90,106.1Z"/>
    <path class="st0" d="M2007.1,1700c-32.8,0-111.6-6.1-111.6-185.7s75-186.9,107.8-186.9c52,0,91.3,37.8,93.9,90.9h-52c-1.3-24-17.7-40.5-43.1-40.5s-57.1,5.4-57.1,136.5,43.5,135.1,60.8,135.1c26.6,0,39.3-17.5,39.3-55.6v-24h-40.6v-50.6h92.6v74.5c0,90.1-59.3,106.1-90,106.1Z"/>
    <path class="st0" d="M2169.1,1333.7h169.7v50.5h-117.8v90.9h74.7v49.3h-74.7v118.8h131.8v50.5h-183.7v-360Z"/>
    <path class="st0" d="M2514.9,1524.5h-49.2v169.2h-51.7v-360h107.1c56.5,0,94.5,37.9,94.5,96s-17.7,74.5-51.7,87.2l51.7,176.8h-52.9l-47.9-169.2ZM2465.7,1384.3v90.9h52.9c30.3,0,46.7-16.4,46.7-45.5s-18.9-45.4-46.6-45.4h-53Z"/>
  </g>
  <g>
    <path class="st0" d="M1284.3,2279.2h-77.2l-24.1,98.5h-51.9l89.9-360h50.7l89.9,360h-51.9l-25.3-98.5ZM1219.8,2228.7h51.9l-26.6-103.6-25.3,103.6Z"/>
    <path class="st0" d="M1562,2214.8h-98.4v162.9h-51.7v-360h51.7v146.5h98.3v-146.5h51.7v360h-51.7v-162.9Z"/>
    <path class="st0" d="M1692.9,2017.7h169.7v50.5h-117.8v90.9h74.7v49.3h-74.7v118.8h131.8v50.5h-183.7v-360Z"/>
    <path class="st0" d="M2062.2,2279.2h-77.2l-24.1,98.5h-51.9l89.9-360h50.7l89.9,360h-51.9l-25.3-98.5ZM1997.6,2228.7h51.9l-26.6-103.6-25.3,103.6Z"/>
    <path class="st0" d="M2189.9,2377.7v-360h102.7c22,0,99,1.1,99,179.4s-71.1,180.6-94.7,180.6h-107ZM2281.9,2068.3h-40.4v258.9h35.9c42.1,0,63.7-18.4,63.7-127.6s-31.5-131.4-59.2-131.4Z"/>
  </g>
</svg>