<?xml version="1.0" encoding="UTF-8"?>
<svg id="For_Sheets" xmlns="http://www.w3.org/2000/svg" version="1.1" viewBox="0 0 3531.4 3531.4">
  <!-- Generator: Adobe Illustrator 29.1.0, SVG Export Plug-In . SVG Version: 2.1.0 Build 142)  -->
  <defs>
    <style>
      .st0 {
        fill: #231f20;
      }

      .st1 {
        fill: #f7921e;
      }
    </style>
  </defs>
  <g>
    <path class="st1" d="M1765.7,3531.6c-43.3,0-84-16.9-114.6-47.5L47.4,1880.4c-63.2-63.2-63.2-166.1,0-229.3L1651.1,47.4C1681.7,16.7,1722.4-.1,1765.7-.1s84,16.9,114.6,47.5l1603.7,1603.7c63.2,63.2,63.2,166.1,0,229.3l-1603.7,1603.7c-30.6,30.6-71.3,47.5-114.6,47.5Z"/>
    <path class="st0" d="M1765.7,0c41.5,0,82.9,15.8,114.6,47.4l1603.7,1603.7c63.3,63.3,63.3,165.8,0,229.1l-1603.7,1603.7c-31.6,31.6-73.1,47.4-114.6,47.4s-82.9-15.8-114.6-47.4L47.4,1880.3c-63.3-63.3-63.3-165.8,0-229.1L1651.2,47.4C1682.8,15.8,1724.3,0,1765.7,0M1765.7-.3c-43.3,0-84.1,16.9-114.7,47.5L47.3,1651c-30.6,30.6-47.5,71.4-47.5,114.7s16.9,84.1,47.5,114.7l1603.7,1603.7c30.6,30.6,71.4,47.5,114.7,47.5s84.1-16.9,114.7-47.5l1603.7-1603.7c30.6-30.6,47.5-71.4,47.5-114.7s-16.9-84.1-47.5-114.7L1880.4,47.3c-30.6-30.6-71.4-47.5-114.7-47.5h0Z"/>
  </g>
  <path class="st0" d="M991.7,2187.2c1.9,0,1.9-3,0-3s-1.9,3,0,3h0Z"/>
  <path class="st0" d="M1848.4,3452.2c-45.6,45.6-119.8,45.6-165.5,0L79.3,1848.4c-45.6-45.6-45.6-119.8,0-165.5L1683,79.3c45.6-45.6,119.8-45.6,165.5,0l1603.7,1603.7c45.6,45.6,45.6,119.8,0,165.5l-1603.7,1603.7Z"/>
  <path class="st1" d="M1803.9,3407.6c-21.1,21.1-55.3,21.1-76.4,0L123.8,1803.9c-21.1-21.1-21.1-55.3,0-76.4L1727.5,123.8c21.1-21.1,55.3-21.1,76.4,0l1603.7,1603.7c21.1,21.1,21.1,55.3,0,76.4l-1603.7,1603.7Z"/>
  <g>
    <path class="st0" d="M1352,1945.7l-57.1-231.2-55.8,231.2h-50.7l-53.2-360h58.3l27.9,189.5,45.6-189.5h55.8l46.8,189.5,27.9-189.5h58.3l-53.2,360h-50.6Z"/>
    <path class="st0" d="M1758.5,1765.7c0,12.9,2.7,186.3-127.9,186.3s-127.9-173.4-127.9-186.3-2.7-186.3,127.9-186.3,127.9,173.3,127.9,186.3ZM1631.2,1894c38.8,0,70.3-36.8,70.3-128.2s-31.5-128.2-70.3-128.2-70.3,36.7-70.3,128.2,31.5,128.2,70.3,128.2Z"/>
    <path class="st0" d="M1894.5,1789v156.7h-56.8v-360h130.2c82.5,0,107.3,66,107.3,101.1s-4.9,66-55.9,90.1l63.4,168.7h-61.9l-58.1-156.7h-68.3ZM1966,1731c45.2,0,52.3-32.6,52.3-44.2s-11.7-44.2-49.5-44.2h-74.2v88.4h71.5Z"/>
    <path class="st0" d="M2239,1775.2l-38,46.8v123.7h-57v-360h57v142.7l114.1-142.7h73.5l-111.5,140.2,119.1,219.8h-65.9l-91.3-170.5Z"/>
  </g>
  <g>
    <path class="st0" d="M957.1,1249.3l54.3-20.2c15.2,34.1,43,53,77.1,53s55.7-22.7,55.7-53c0-48.1-55.7-55.5-102.3-74.4-21.5-8.8-69.4-30.3-69.4-89.5s47.9-97.2,112.3-97.2,84.5,29,102.2,73.2l-50.5,15.1c-8.3-16.2-25.8-31.5-56-31.5-43.6,0-52.6,23.8-52.6,36.4,0,33.6,29,40.3,76.1,55.1,48,15.1,98.3,37.2,98.3,114.2,0,77.7-63.1,109.7-113.7,109.7s-107.4-36.5-131.3-90.8Z"/>
    <path class="st0" d="M1370.5,1333.7h-57.1v-309.5h-82.4v-50.5h223.3v50.5h-83.7v309.5Z"/>
    <path class="st0" d="M1565,1177v156.7h-56.8v-360h130.2c82.5,0,107.3,66,107.3,101.1s-4.9,66-55.9,90.1l63.4,168.7h-61.9l-58.1-156.7h-68.3ZM1636.5,1119c45.2,0,52.3-32.6,52.3-44.2s-11.7-44.2-49.5-44.2h-74.2v88.4h71.5Z"/>
    <path class="st0" d="M1814.5,973.7h211.9v56.8h-155.1v88.4h104.7v58.1h-104.7v98.5h166.5v58.1h-223.3v-360Z"/>
    <path class="st0" d="M2099,973.7h211.9v56.8h-155.1v88.4h104.7v58.1h-104.7v98.5h166.5v58.1h-223.3v-360Z"/>
    <path class="st0" d="M2490.6,1333.7h-57.1v-309.5h-82.4v-50.5h223.3v50.5h-83.7v309.5Z"/>
  </g>
  <g>
    <path class="st0" d="M1902,2355.6l-67,202.1-67-202.1v202.1h-51.8v-360h51.8l67,202.1,67-202.1h51.8v360h-51.8v-202.1Z"/>
    <path class="st0" d="M2033,2197.7h50.4v360h-50.4v-360Z"/>
    <path class="st0" d="M2162.6,2197.7h51.9v312h131.8v48h-183.7v-360Z"/>
    <path class="st0" d="M2396.7,2197.7h169.7v50.5h-117.8v90.9h74.7v49.3h-74.7v118.8h131.8v50.5h-183.7v-360Z"/>
  </g>
  <g>
    <path class="st0" d="M974.1,2172.2h-23v-39.2c20.5-1.3,33.3-10.1,41-25.2h34.6v360h-52.6v-295.6Z"/>
    <path class="st0" d="M1491,2597.2v50.5h-201.7c2.9-113.4,52.8-169.6,94.2-202.7,31.8-25.4,58-31.9,58-62.5s-22.7-50.8-50.7-50.8-50.7,22.8-50.7,50.8h-50.8c1.3-56.9,44.5-101.1,101.5-101.1s100.2,45.5,100.2,101.1c0,105.8-113.1,69.6-145.9,214.6h145.9Z"/>
    <polygon class="st0" points="1303.3 2107.7 991.5 2647.7 1049.7 2647.7 1361.5 2107.7 1303.3 2107.7"/>
  </g>
</svg>