<?xml version="1.0" encoding="UTF-8"?>
<svg id="For_Sheets" xmlns="http://www.w3.org/2000/svg" version="1.1" viewBox="0 0 2942.9 2942.9">
  <!-- Generator: Adobe Illustrator 29.1.0, SVG Export Plug-In . SVG Version: 2.1.0 Build 142)  -->
  <defs>
    <style>
      .st0 {
        fill: #231f20;
      }

      .st1 {
        fill: #f7921e;
      }
    </style>
  </defs>
  <g>
    <path class="st1" d="M1471.4,2943c-36.1,0-70-14.1-95.5-39.6L39.5,1567C13.9,1541.5-.1,1507.5-.1,1471.4s14.1-70,39.6-95.5L1375.9,39.5C1401.4,13.9,1435.3-.1,1471.4-.1s70,14.1,95.5,39.6l1336.4,1336.4c52.7,52.7,52.7,138.4,0,191.1l-1336.4,1336.4c-25.5,25.5-59.5,39.6-95.5,39.6Z"/>
    <path class="st0" d="M1471.4,0c34.6,0,69.1,13.2,95.5,39.5l1336.4,1336.4c52.7,52.7,52.7,138.2,0,190.9l-1336.4,1336.4c-26.4,26.4-60.9,39.5-95.5,39.5s-69.1-13.2-95.5-39.5L39.5,1566.9c-52.7-52.7-52.7-138.2,0-190.9L1376,39.5C1402.3,13.2,1436.9,0,1471.4,0M1471.4-.3V0v-.2c-36.1,0-70.1,14.1-95.6,39.6L39.4,1375.8c-25.5,25.5-39.6,59.5-39.6,95.6s14.1,70.1,39.6,95.6l1336.4,1336.4c25.5,25.5,59.5,39.6,95.6,39.6s70.1-14.1,95.6-39.6l1336.4-1336.4c25.5-25.5,39.6-59.5,39.6-95.6,0-36.1-14.1-70.1-39.6-95.6L1567.1,39.4c-25.5-25.5-59.5-39.6-95.6-39.6h0Z"/>
  </g>
  <path class="st0" d="M1541.4,2877.9c-38.6,38.6-101.4,38.6-140,0L65,1541.4c-38.6-38.6-38.6-101.4,0-140L1401.4,65c38.6-38.6,101.4-38.6,140,0l1336.4,1336.4c38.6,38.6,38.6,101.4,0,140l-1336.4,1336.4Z"/>
  <path class="st1" d="M1503.3,2839.7c-17.5,17.5-46.1,17.5-63.6,0L103.2,1503.3c-17.5-17.5-17.5-46.1,0-63.6L1439.6,103.2c17.5-17.5,46.1-17.5,63.6,0l1336.4,1336.4c17.5,17.5,17.5,46.1,0,63.6l-1336.4,1336.4Z"/>
  <g>
    <path class="st0" d="M778.9,1869.2h-26v-36.4h3c12,0,25-7.1,33-18.2h36v288h-46v-233.4Z"/>
    <path class="st0" d="M1092.9,1958.6c0,10.3,2.2,149-102.3,149s-102.3-138.7-102.3-149-2.2-149,102.3-149,102.3,138.7,102.3,149ZM991.1,2061.2c31,0,56.2-29.4,56.2-102.6s-25.2-102.6-56.2-102.6-56.2,29.4-56.2,102.6,25.2,102.6,56.2,102.6Z"/>
    <path class="st0" d="M1355.1,1958.6c0,10.3,2.2,149-102.3,149s-102.3-138.7-102.3-149-2.2-149,102.3-149,102.3,138.7,102.3,149ZM1253.3,2061.2c31,0,56.2-29.4,56.2-102.6s-25.2-102.6-56.2-102.6-56.2,29.4-56.2,102.6,25.2,102.6,56.2,102.6Z"/>
    <path class="st0" d="M1617.4,1958.6c0,10.3,2.2,149-102.3,149s-102.3-138.7-102.3-149-2.2-149,102.3-149,102.3,138.7,102.3,149ZM1515.6,2061.2c31,0,56.2-29.4,56.2-102.6s-25.2-102.6-56.2-102.6-56.2,29.4-56.2,102.6,25.2,102.6,56.2,102.6Z"/>
  </g>
  <g>
    <path class="st0" d="M1860.8,1930.9h83.8v46.5h-83.8v125.3h-45.4v-288h178.6v45.5h-133.2v70.7Z"/>
    <path class="st0" d="M2122.9,2102.7h-45.7v-247.6h-66v-40.4h178.6v40.4h-67v247.6Z"/>
  </g>
  <g>
    <path class="st0" d="M1140.5,1615.4l-45.6-184.9-44.6,184.9h-40.6l-42.6-288h46.6l22.3,151.6,36.5-151.6h44.6l37.5,151.6,22.3-151.6h46.6l-42.6,288h-40.5Z"/>
    <path class="st0" d="M1465.6,1471.4c0,10.3,2.2,149-102.3,149s-102.3-138.7-102.3-149-2.2-149,102.3-149,102.3,138.7,102.3,149ZM1363.8,1574c31,0,56.2-29.4,56.2-102.6s-25.2-102.6-56.2-102.6-56.2,29.4-56.2,102.6,25.2,102.6,56.2,102.6Z"/>
    <path class="st0" d="M1574.4,1490.1v125.4h-45.4v-288h104.2c66,0,85.8,52.8,85.8,80.9s-4,52.8-44.7,72.1l50.8,135h-49.5l-46.5-125.4h-54.6ZM1631.6,1443.6c36.1,0,41.8-26.1,41.8-35.4s-9.4-35.4-39.6-35.4h-59.4v70.7h57.2Z"/>
    <path class="st0" d="M1850,1479l-30.4,37.4v99h-45.6v-288h45.6v114.2l91.3-114.2h58.8l-89.2,112.2,95.3,175.8h-52.7l-73-136.4Z"/>
  </g>
  <g>
    <path class="st0" d="M805.9,1026.4v-184.9h45.4v184.9c0,37.4,21.2,61.6,52.6,61.6s52.6-24.2,52.6-61.6v-184.9h45.5v184.9c0,91.1-69.9,108.1-98,108.1s-98-15.1-98-108.1Z"/>
    <path class="st0" d="M1156.8,1129.4h-45.7v-247.6h-66v-40.4h178.6v40.4h-67v247.6Z"/>
    <path class="st0" d="M1267,841.4h46.1v288h-46.1v-288Z"/>
    <path class="st0" d="M1382.2,841.4h45.4v245.6h133.2v42.4h-178.6v-288Z"/>
    <path class="st0" d="M1604,841.4h46.1v288h-46.1v-288Z"/>
    <path class="st0" d="M1804.9,1129.4h-45.7v-247.6h-66v-40.4h178.6v40.4h-67v247.6Z"/>
    <path class="st0" d="M2036.5,1129.4h-45.7v-125.3l-101.6-162.7h54.9l69,111.2,70.1-111.2h53.8l-100.5,162.7v125.3Z"/>
  </g>
</svg>