<?xml version="1.0" encoding="UTF-8"?>
<svg id="For_Sheets" xmlns="http://www.w3.org/2000/svg" version="1.1" viewBox="0 0 3531.4 3531.4">
  <!-- Generator: Adobe Illustrator 29.1.0, SVG Export Plug-In . SVG Version: 2.1.0 Build 142)  -->
  <defs>
    <style>
      .st0 {
        fill: #231f20;
      }

      .st1 {
        fill: #f7921e;
      }
    </style>
  </defs>
  <g>
    <path class="st1" d="M1765.7,3531.6c-43.3,0-84-16.9-114.6-47.5L47.4,1880.4c-63.2-63.2-63.2-166.1,0-229.3L1651.1,47.4C1681.7,16.7,1722.4-.1,1765.7-.1s84,16.9,114.6,47.5l1603.7,1603.7c63.2,63.2,63.2,166.1,0,229.3l-1603.7,1603.7c-30.6,30.6-71.3,47.5-114.6,47.5Z"/>
    <path class="st0" d="M1765.7,0c41.5,0,82.9,15.8,114.6,47.4l1603.7,1603.7c63.3,63.3,63.3,165.8,0,229.1l-1603.7,1603.7c-31.6,31.6-73.1,47.4-114.6,47.4s-82.9-15.8-114.6-47.4L47.4,1880.3c-63.3-63.3-63.3-165.8,0-229.1L1651.2,47.4C1682.8,15.8,1724.3,0,1765.7,0M1765.7-.3c-43.3,0-84.1,16.9-114.7,47.5L47.3,1651c-30.6,30.6-47.5,71.4-47.5,114.7s16.9,84.1,47.5,114.7l1603.7,1603.7c30.6,30.6,71.4,47.5,114.7,47.5s84.1-16.9,114.7-47.5l1603.7-1603.7c30.6-30.6,47.5-71.4,47.5-114.7s-16.9-84.1-47.5-114.7L1880.4,47.3c-30.6-30.6-71.4-47.5-114.7-47.5h0Z"/>
  </g>
  <path class="st0" d="M1848.4,3452.2c-45.6,45.6-119.8,45.6-165.5,0L79.3,1848.4c-45.6-45.6-45.6-119.8,0-165.5L1683,79.3c45.6-45.6,119.8-45.6,165.5,0l1603.7,1603.7c45.6,45.6,45.6,119.8,0,165.5l-1603.7,1603.7Z"/>
  <path class="st1" d="M1803.9,3407.6c-21.1,21.1-55.3,21.1-76.4,0L123.8,1803.9c-21.1-21.1-21.1-55.3,0-76.4L1727.5,123.8c21.1-21.1,55.3-21.1,76.4,0l1603.7,1603.7c21.1,21.1,21.1,55.3,0,76.4l-1603.7,1603.7Z"/>
  <g>
    <path class="st0" d="M1200.8,2492.6h-113l-35.6,101.1h-61l124.5-360h57.2l124.5,360h-61l-35.6-101.1ZM1108.1,2434.6h72.4l-35.6-101-36.8,101Z"/>
    <path class="st0" d="M1539.6,2437.1h-131.4v156.6h-56.8v-360h56.8v145.3h131.4v-145.3h56.9v360h-56.8v-156.6Z"/>
    <path class="st0" d="M1682.9,2233.7h211.9v56.8h-155.2v88.4h104.7v58.1h-104.7v98.5h166.5v58.1h-223.3v-360Z"/>
    <path class="st0" d="M2144.6,2492.6h-113l-35.6,101.1h-61l124.5-360h57.2l124.5,360h-61l-35.6-101.1ZM2051.9,2434.6h72.4l-35.6-101-36.8,101Z"/>
    <path class="st0" d="M2295.2,2593.7v-360h129.9c90.9,0,115.2,119.7,115.2,171.9,0,135-69.4,188.1-115,188.1h-130.1ZM2416.4,2290.6h-64.4v245h60.4c52.4,0,69.6-63.5,69.6-131.2s-9.2-113.8-65.6-113.8Z"/>
  </g>
  <g>
    <path class="st0" d="M1219.1,1141v156.7h-56.8v-360h130.2c82.5,0,107.3,66,107.3,101.1s-4.9,66-55.9,90.1l63.4,168.7h-61.9l-58.1-156.7h-68.3ZM1290.6,1083c45.2,0,52.3-32.6,52.3-44.2s-11.7-44.2-49.5-44.2h-74.2v88.4h71.5Z"/>
    <path class="st0" d="M1717.1,1117.7c0,12.9,2.7,186.3-127.9,186.3s-127.9-173.4-127.9-186.3-2.7-186.3,127.9-186.3,127.9,173.3,127.9,186.3ZM1589.9,1246c38.8,0,70.3-36.8,70.3-128.2s-31.5-128.2-70.3-128.2-70.3,36.7-70.3,128.2,31.5,128.2,70.3,128.2Z"/>
    <path class="st0" d="M1973.6,1196.6h-113l-35.6,101.1h-61l124.5-360h57.2l124.5,360h-61l-35.6-101.1ZM1880.9,1138.6h72.4l-35.6-101-36.8,101Z"/>
    <path class="st0" d="M2124.1,1297.7v-360h129.9c90.9,0,115.2,119.7,115.2,171.9,0,135-69.4,188.1-115,188.1h-130.1ZM2245.4,994.6h-64.4v245h60.4c52.4,0,69.6-63.4,69.6-131.2s-9.2-113.8-65.6-113.8Z"/>
  </g>
  <g>
    <path class="st0" d="M751.9,1737.3l-83.5,208.4-83.6-208.4v208.4h-57v-360h57l83.6,202.1,83.5-202.1h57v360h-57v-208.4Z"/>
    <path class="st0" d="M1050.9,1844.6h-113l-35.6,101.1h-61l124.5-360h57.2l124.5,360h-61l-35.6-101.1ZM958.2,1786.6h72.4l-35.6-101-36.8,101Z"/>
    <path class="st0" d="M1175.5,1765.1c0-50.6,10.2-185.6,132.6-185.6s87.7,21.2,112.5,73.3l-53.1,22.7c-18.4-26.5-27.6-37.9-59.4-37.9-75.3,0-74.5,105-74.5,127.6s-1.4,128.9,77,128.9,43.3-16.6,55.6-41.7l54.3,20.2c-20.2,50.1-54.3,79.5-108.7,79.5-129.6,0-136.4-143.1-136.4-186.9Z"/>
    <path class="st0" d="M1656.4,1789.1h-131.4v156.6h-56.8v-360h56.8v145.3h131.4v-145.3h56.9v360h-56.8v-156.6Z"/>
    <path class="st0" d="M1765.1,1585.7h57.6v360h-57.6v-360Z"/>
    <path class="st0" d="M1931.3,1702v243.8h-56.8v-360h56.8l131.4,229.9v-229.9h56.9v360h-50.5l-137.7-243.8Z"/>
    <path class="st0" d="M2171.4,1585.7h211.9v56.8h-155.2v88.4h104.7v58.1h-104.7v98.5h166.5v58.1h-223.3v-360Z"/>
    <path class="st0" d="M2488.2,1789v156.7h-56.8v-360h130.2c82.5,0,107.3,66,107.3,101.1s-4.9,66-55.9,90.1l63.4,168.7h-61.9l-58.1-156.7h-68.3ZM2559.7,1731c45.2,0,52.3-32.6,52.3-44.2s-11.7-44.2-49.5-44.2h-74.2v88.4h71.5Z"/>
    <path class="st0" d="M2877.9,1945.7h-57.1v-156.6l-126.9-203.4h68.6l86.3,139,87.6-139h67.3l-125.7,203.4v156.6Z"/>
  </g>
</svg>