<?xml version="1.0" encoding="UTF-8"?>
<svg id="For_Sheets" xmlns="http://www.w3.org/2000/svg" version="1.1" viewBox="0 0 3531.4 3531.4">
  <!-- Generator: Adobe Illustrator 29.1.0, SVG Export Plug-In . SVG Version: 2.1.0 Build 142)  -->
  <defs>
    <style>
      .st0 {
        fill: #231f20;
      }

      .st1 {
        fill: #f7921e;
      }
    </style>
  </defs>
  <g>
    <path class="st1" d="M1765.7,3531.6c-43.3,0-84-16.9-114.6-47.5L47.4,1880.4c-63.2-63.2-63.2-166.1,0-229.3L1651.1,47.4C1681.7,16.7,1722.4-.1,1765.7-.1s84,16.9,114.6,47.5l1603.7,1603.7c63.2,63.2,63.2,166.1,0,229.3l-1603.7,1603.7c-30.6,30.6-71.3,47.5-114.6,47.5Z"/>
    <path class="st0" d="M1765.7,0c41.5,0,82.9,15.8,114.6,47.4l1603.7,1603.7c63.3,63.3,63.3,165.8,0,229.1l-1603.7,1603.7c-31.6,31.6-73.1,47.4-114.6,47.4s-82.9-15.8-114.6-47.4L47.4,1880.3c-63.3-63.3-63.3-165.8,0-229.1L1651.2,47.4C1682.8,15.8,1724.3,0,1765.7,0M1765.7-.3c-43.3,0-84.1,16.9-114.7,47.5L47.3,1651c-30.6,30.6-47.5,71.4-47.5,114.7s16.9,84.1,47.5,114.7l1603.7,1603.7c30.6,30.6,71.4,47.5,114.7,47.5s84.1-16.9,114.7-47.5l1603.7-1603.7c30.6-30.6,47.5-71.4,47.5-114.7s-16.9-84.1-47.5-114.7L1880.4,47.3c-30.6-30.6-71.4-47.5-114.7-47.5h0Z"/>
  </g>
  <path class="st0" d="M1848.4,3452.2c-45.6,45.6-119.8,45.6-165.5,0L79.3,1848.4c-45.6-45.6-45.6-119.8,0-165.5L1683,79.3c45.6-45.6,119.8-45.6,165.5,0l1603.7,1603.7c45.6,45.6,45.6,119.8,0,165.5l-1603.7,1603.7Z"/>
  <path class="st1" d="M1803.9,3407.6c-21.1,21.1-55.3,21.1-76.4,0L123.8,1803.9c-21.1-21.1-21.1-55.3,0-76.4L1727.5,123.8c21.1-21.1,55.3-21.1,76.4,0l1603.7,1603.7c21.1,21.1,21.1,55.3,0,76.4l-1603.7,1603.7Z"/>
  <g>
    <path class="st0" d="M839,1541.6c27.9,0,50.7-25.3,50.7-54.4,0-76.7-134.4-76.5-134.4-174.4s40.6-93.4,92.6-93.4,90.1,39.1,91.3,93.5h-49.5c-1.3-25.2-19-41.7-41.8-41.7s-43.1,17.6-43.1,41.6,13.5,30.1,30.3,40.7c48.7,29.4,104.1,64.8,104.1,133.7s-44.4,104.8-100.2,104.8-101.4-53.6-101.4-112.5h50.8c0,30.6,15.2,62,50.7,62Z"/>
    <path class="st0" d="M1150.5,1422.8h-98.4v162.9h-51.7v-360h51.7v146.5h98.3v-146.5h51.7v360h-51.7v-162.9Z"/>
    <path class="st0" d="M1274.1,1405c0-188.5,87.4-185.5,106.8-185.5s105.7-2.9,105.7,185.6-86.3,186.9-105.7,186.9-106.8,3-106.8-187ZM1380.4,1270c-10.3,0-56.7-2.1-56.7,135.3s46.4,136.3,56.7,136.3,56.6,2.1,56.6-136.3-46.3-135.3-56.6-135.3Z"/>
    <path class="st0" d="M1558.6,1481.1v-255.4h51.7v258.9c0,33.9,19.8,56.9,50.4,56.9s47.9-22.7,47.9-56.9v-258.9h51.7v256.1c0,81.9-63.3,110.2-99.6,110.2s-102.1-21.6-102.1-110.9Z"/>
    <path class="st0" d="M1839.5,1225.7h51.9v312h131.8v48h-183.7v-360Z"/>
    <path class="st0" d="M2073.6,1585.7v-360h102.7c22,0,99,1.1,99,179.4s-71.1,180.6-94.7,180.6h-107ZM2165.6,1276.3h-40.4v258.9h35.9c42.1,0,63.7-18.4,63.7-127.6s-31.5-131.4-59.2-131.4Z"/>
    <path class="st0" d="M2347.3,1225.7h169.7v50.5h-117.8v90.9h74.7v49.3h-74.7v118.8h131.8v50.5h-183.7v-360Z"/>
    <path class="st0" d="M2693,1416.5h-49.2v169.2h-51.7v-360h107.1c56.5,0,94.5,37.9,94.5,96s-17.7,74.5-51.7,87.2l51.7,176.8h-52.9l-47.9-169.2ZM2643.9,1276.3v90.9h52.9c30.3,0,46.7-16.4,46.7-45.5s-18.9-45.4-46.6-45.4h-53Z"/>
  </g>
  <g>
    <path class="st0" d="M1177.1,1843.7c-5-35.4-19-51.8-43.1-51.8-41.8,0-57.1,32.9-57.1,126.3s17.8,145.3,62.2,145.3,38-25.3,38-51.8h52c-1.3,59.4-39.3,102.3-90,102.3-77.4,0-111.6-61.9-111.6-194.5s36.8-178,107.8-178,92.1,60.2,93.9,102.2h-52Z"/>
    <path class="st0" d="M1301.2,1747.7h51.9v312h131.8v48h-183.7v-360Z"/>
    <path class="st0" d="M1528.1,1927c0-188.5,87.4-185.5,106.8-185.5s105.7-2.9,105.7,185.6-86.3,186.9-105.7,186.9-106.8,3-106.8-187ZM1634.3,1792c-10.3,0-56.7-2.1-56.7,135.3s46.4,136.3,56.7,136.3,56.6,2.1,56.6-136.3-46.3-135.3-56.6-135.3Z"/>
    <path class="st0" d="M1896,2063.6c27.9,0,50.7-25.3,50.7-54.4,0-76.7-134.4-76.5-134.4-174.4s40.6-93.4,92.6-93.4,90.1,39.1,91.3,93.5h-49.5c-1.3-25.2-19-41.7-41.8-41.7s-43.1,17.6-43.1,41.6,13.5,30.1,30.3,40.7c48.7,29.4,104.1,64.8,104.1,133.7s-44.4,104.8-100.2,104.8-101.4-53.6-101.4-112.5h50.8c0,30.6,15.2,62,50.7,62Z"/>
    <path class="st0" d="M2057.5,1747.7h169.7v50.5h-117.8v90.9h74.7v49.3h-74.7v118.8h131.8v50.5h-183.7v-360Z"/>
    <path class="st0" d="M2302.3,2107.7v-360h102.7c22,0,99,1.1,99,179.4s-71.1,180.6-94.7,180.6h-107ZM2394.4,1798.3h-40.4v258.9h35.9c42.1,0,63.7-18.4,63.7-127.6s-31.5-131.4-59.2-131.4Z"/>
  </g>
  <g>
    <path class="st0" d="M1319.2,894.5h-49.2v169.2h-51.7v-360h107.1c56.5,0,94.5,37.9,94.5,96s-17.7,74.5-51.7,87.2l51.7,176.8h-52.9l-47.9-169.2ZM1270,754.3v90.9h52.9c30.3,0,46.7-16.4,46.7-45.5s-18.9-45.4-46.6-45.4h-53Z"/>
    <path class="st0" d="M1481.2,703.7h50.4v360h-50.4v-360Z"/>
    <path class="st0" d="M1715.3,1070c-32.8,0-111.6-6.1-111.6-185.7s75-186.9,107.8-186.9c52,0,91.3,37.8,93.9,90.9h-52c-1.3-24-17.7-40.5-43.1-40.5s-57.1,5.4-57.1,136.5,43.5,135.1,60.8,135.1c26.6,0,39.3-17.5,39.3-55.6v-24h-40.6v-50.6h92.6v74.5c0,90.1-59.3,106.1-90,106.1Z"/>
    <path class="st0" d="M2027.3,900.8h-98.4v162.9h-51.7v-360h51.7v146.5h98.3v-146.5h51.7v360h-51.7v-162.9Z"/>
    <path class="st0" d="M2247.2,1063.7h-51.9v-312h-65.9v-48h183.7v48h-65.9v312Z"/>
  </g>
  <g>
    <path class="st0" d="M1284.3,2531.2h-77.2l-24.1,98.5h-51.9l89.9-360h50.7l89.9,360h-51.9l-25.3-98.5ZM1219.8,2480.7h51.9l-26.6-103.6-25.3,103.6Z"/>
    <path class="st0" d="M1562,2466.8h-98.4v162.9h-51.7v-360h51.7v146.5h98.3v-146.5h51.7v360h-51.7v-162.9Z"/>
    <path class="st0" d="M1692.9,2269.7h169.7v50.5h-117.8v90.9h74.7v49.3h-74.7v118.8h131.8v50.5h-183.7v-360Z"/>
    <path class="st0" d="M2062.2,2531.2h-77.2l-24.1,98.5h-51.9l89.9-360h50.7l89.9,360h-51.9l-25.3-98.5ZM1997.6,2480.7h51.9l-26.6-103.6-25.3,103.6Z"/>
    <path class="st0" d="M2189.9,2629.7v-360h102.7c22,0,99,1.1,99,179.4s-71.1,180.6-94.7,180.6h-107ZM2281.9,2320.3h-40.4v258.9h35.9c42.1,0,63.7-18.4,63.7-127.6s-31.5-131.4-59.2-131.4Z"/>
  </g>
</svg>