<?xml version="1.0" encoding="UTF-8"?>
<svg id="For_Sheets" xmlns="http://www.w3.org/2000/svg" version="1.1" viewBox="0 0 2592 1296">
  <!-- Generator: Adobe Illustrator 29.1.0, SVG Export Plug-In . SVG Version: 2.1.0 Build 142)  -->
  <defs>
    <style>
      .st0 {
        fill: #231f20;
      }

      .st1 {
        fill: #f7921e;
      }
    </style>
  </defs>
  <g>
    <rect class="st1" x="-.1" y="-.1" width="2592.2" height="1296.2" rx="108.1" ry="108.1"/>
    <path class="st0" d="M2484,0c59.6,0,108,48.4,108,108v1080c0,59.6-48.4,108-108,108H108c-59.6,0-108-48.4-108-108V108C0,48.4,48.4,0,108,0h2376M2484-.2H108C79.1-.2,51.9,11,31.5,31.5,11,51.9-.2,79.1-.2,108v1080c0,28.9,11.3,56.1,31.7,76.5,20.4,20.4,47.6,31.7,76.5,31.7h2376c28.9,0,56.1-11.3,76.5-31.7,20.4-20.4,31.7-47.6,31.7-76.5V108c0-28.9-11.3-56.1-31.7-76.5-20.4-20.4-47.6-31.7-76.5-31.7h0Z"/>
  </g>
  <rect class="st0" x="27" y="27" width="2538" height="1242" rx="81" ry="81"/>
  <rect class="st1" x="72" y="72" width="2448" height="1152" rx="36" ry="36"/>
  <g>
    <g>
      <path class="st0" d="M1005,270h135.8v40.4h-94.2v72.8h59.8v39.4h-59.8v95h105.4v40.4h-146.9v-288Z"/>
      <path class="st0" d="M1242.3,365v193h-41.3v-288h41.3l78.7,172.8v-172.8h41.4v288h-31.2l-88.8-193Z"/>
      <path class="st0" d="M1425.6,558v-288h82.2c17.6,0,79.2.9,79.2,143.5s-56.9,144.5-75.7,144.5h-85.6ZM1499.3,310.4h-32.3v207.1h28.7c33.7,0,50.9-14.7,50.9-102.1s-25.2-105.1-47.4-105.1Z"/>
    </g>
    <g>
      <path class="st0" d="M462.7,890.6h-39.3v135.4h-41.3v-288h85.7c45.2,0,75.6,30.3,75.6,76.8s-14.1,59.6-41.4,69.7l41.3,141.5h-42.3l-38.3-135.4ZM423.3,778.4v72.8h42.3c24.3,0,37.3-13.1,37.3-36.4s-15.1-36.4-37.3-36.4h-42.4Z"/>
      <path class="st0" d="M586.6,881.4c0-150.8,69.9-148.4,85.5-148.4s84.5-2.3,84.5,148.5-69,149.5-84.5,149.5-85.5,2.4-85.5-149.6ZM671.5,773.4c-8.2,0-45.3-1.7-45.3,108.2s37.1,109,45.3,109,45.3,1.7,45.3-109-37.1-108.2-45.3-108.2Z"/>
      <path class="st0" d="M913.7,947.2h-61.8l-19.3,78.8h-41.5l71.9-288h40.6l71.9,288h-41.5l-20.3-78.8ZM862,906.8h41.5l-21.3-82.9-20.3,82.9Z"/>
      <path class="st0" d="M1015.8,1026v-288h82.2c17.6,0,79.2.9,79.2,143.5s-56.9,144.5-75.7,144.5h-85.6ZM1089.4,778.4h-32.3v207.1h28.7c33.7,0,50.9-14.7,50.9-102.1s-25.2-105.1-47.4-105.1Z"/>
    </g>
    <g>
      <path class="st0" d="M1494,1026l-27.4-150.6-27.4,150.6h-36.5l-45.6-288h40.6l24.3,153.6,28.4-153.6h32.5l27.4,153.6,25.3-153.6h40.6l-46.7,288h-35.5Z"/>
      <path class="st0" d="M1610.8,881.4c0-150.8,69.9-148.4,85.5-148.4s84.5-2.3,84.5,148.5-69,149.5-84.5,149.5-85.5,2.4-85.5-149.6ZM1695.7,773.4c-8.2,0-45.3-1.7-45.3,108.2s37.1,109,45.3,109,45.3,1.7,45.3-109-37.1-108.2-45.3-108.2Z"/>
      <path class="st0" d="M1919,890.6h-39.3v135.4h-41.3v-288h85.7c45.2,0,75.6,30.3,75.6,76.8s-14.1,59.6-41.4,69.7l41.3,141.5h-42.3l-38.3-135.4ZM1879.7,778.4v72.8h42.3c24.3,0,37.3-13.1,37.3-36.4s-15.1-36.4-37.3-36.4h-42.4Z"/>
      <path class="st0" d="M2116.2,885.5l-26.2,48.5v92h-41.3v-288h41.3v115.2l65.6-115.2h47.4l-59.5,101.1,66.6,186.9h-43.3l-50.4-140.5Z"/>
    </g>
  </g>
</svg>