<?xml version="1.0" encoding="UTF-8"?>
<svg id="For_Sheets" xmlns="http://www.w3.org/2000/svg" version="1.1" viewBox="0 0 3456 1296">
  <!-- Generator: Adobe Illustrator 29.1.0, SVG Export Plug-In . SVG Version: 2.1.0 Build 142)  -->
  <defs>
    <style>
      .st0 {
        fill: #231f20;
      }

      .st1 {
        fill: #f7921e;
      }
    </style>
  </defs>
  <rect class="st0" width="3456" height="1296" rx="108" ry="108" transform="translate(3456 1296) rotate(-180)"/>
  <g>
    <rect class="st1" x="216" y="351" width="2300.9" height="594"/>
    <path class="st1" d="M2354,1116.7c-1.9,6.5-2.8,13.1-2.8,19.5,0,38.5,31.2,69.8,69.8,69.8,13.6,0,27.3-3.9,39.4-12.2l797.6-545.8L2460.4,102.2c-12.1-8.3-25.8-12.2-39.4-12.2-38.5,0-69.8,31.2-69.8,69.8,0,6.5.9,13,2.8,19.5l136.7,468.7-136.7,468.7Z"/>
  </g>
  <g>
    <path class="st0" d="M359.5,864v-432h155.8c109,0,138.2,143.6,138.2,206.3,0,162.1-83.3,225.7-138,225.7h-156.1ZM505,500.2h-77.3v294h72.5c62.9,0,83.5-76.1,83.5-157.5s-11-136.6-78.7-136.6Z"/>
    <path class="st0" d="M729.6,432h254.3v68.2h-186.2v106.1h125.7v69.7h-125.7v118.3h199.8v69.7h-267.9v-432Z"/>
    <path class="st0" d="M1192.7,864h-68.5v-371.4h-98.9v-60.6h267.9v60.6h-100.5v371.4Z"/>
    <path class="st0" d="M1645,648c0,15.5,3.3,223.6-153.5,223.6s-153.5-208.1-153.5-223.6-3.3-223.5,153.5-223.5,153.5,208,153.5,223.5ZM1492.3,801.9c46.5,0,84.3-44.1,84.3-153.9s-37.8-153.9-84.3-153.9-84.3,44.1-84.3,153.9,37.8,153.9,84.3,153.9Z"/>
    <path class="st0" d="M1721.1,709.4v-277.4h68.1v277.4c0,56.1,31.9,92.4,78.8,92.4s78.8-36.3,78.8-92.4v-277.4h68.3v277.4c0,136.6-104.8,162.2-147,162.2s-147-22.6-147-162.2Z"/>
    <path class="st0" d="M2166.3,676v188h-68.1v-432h156.3c99,0,128.7,79.2,128.7,121.3s-5.9,79.2-67.1,108.2l76.1,202.5h-74.3l-69.7-188h-81.9ZM2252.1,606.3c54.2,0,62.7-39.1,62.7-53s-14.1-53.1-59.5-53.1h-89.1v106.1h85.8Z"/>
  </g>
</svg>