<?xml version="1.0" encoding="UTF-8"?>
<svg id="For_Sheets" xmlns="http://www.w3.org/2000/svg" version="1.1" viewBox="0 0 1743.5 1743.5">
  <!-- Generator: Adobe Illustrator 29.1.0, SVG Export Plug-In . SVG Version: 2.1.0 Build 142)  -->
  <defs>
    <style>
      .st0 {
        fill: #010101;
      }

      .st1 {
        fill: #231f20;
      }

      .st2 {
        fill: #ffd046;
      }
    </style>
  </defs>
  <rect class="st1" x="223.8" y="223.8" width="1296" height="1296" rx="108" ry="108" transform="translate(-361.1 871.8) rotate(-45)"/>
  <g>
    <path class="st2" d="M597.9,706.3c-59.6,0-108.1-48.5-108.1-108.1,0-59.6,48.5-108.1,108.1-108.1,28.8,0,55.9,11.3,76.4,31.7,20.5,20.5,31.7,47.6,31.7,76.4,0,28.8-11.3,55.9-31.7,76.4s-47.6,31.7-76.4,31.7Z"/>
    <path class="st0" d="M597.9,490.1c59.5,0,108,48.5,108,108,0,59.5-48.5,108-108,108-59.5,0-108-48.5-108-108,0-59.5,48.5-108,108-108M597.9,489.9c-59.7,0-108.2,48.6-108.3,108.3,0,59.7,48.6,108.2,108.3,108.3,28.8,0,56-11.3,76.5-31.8,20.5-20.5,31.8-47.6,31.8-76.5,0-28.8-11.3-56-31.8-76.5-20.5-20.5-47.6-31.8-76.5-31.8h0Z"/>
  </g>
  <g>
    <path class="st2" d="M324.5,979.9c-59.6,0-108.1-48.5-108.1-108.1,0-59.6,48.5-108.1,108.1-108.1h0c28.8,0,55.9,11.3,76.4,31.7,20.5,20.5,31.7,47.6,31.7,76.4,0,59.6-48.5,108.1-108.1,108.1Z"/>
    <path class="st0" d="M324.6,763.7c59.5,0,108,48.5,108,108,0,59.5-48.5,108-108,108-59.5,0-108-48.5-108-108,0-59.5,48.5-108,108-108M324.6,763.5v.2-.2c-59.7,0-108.3,48.6-108.3,108.3,0,59.7,48.6,108.2,108.2,108.2,59.7,0,108.3-48.6,108.3-108.3,0-28.8-11.3-56-31.8-76.5-20.5-20.5-47.6-31.8-76.5-31.8h0Z"/>
  </g>
  <g>
    <path class="st2" d="M871.8,979.9c-59.6,0-108.1-48.5-108.1-108.1,0-59.6,48.5-108.1,108.1-108.1,28.8,0,55.9,11.3,76.4,31.7,20.5,20.5,31.7,47.6,31.7,76.4,0,59.6-48.5,108.1-108.1,108.1Z"/>
    <path class="st0" d="M871.8,763.7c59.5,0,108,48.5,108,108,0,59.5-48.5,108-108,108-59.5,0-108-48.5-108-108,0-59.5,48.5-108,108-108M871.8,763.5v.2-.2c-28.8,0-56,11.3-76.5,31.8s-31.8,47.6-31.8,76.5c0,59.7,48.6,108.2,108.3,108.3,59.7,0,108.2-48.6,108.3-108.3,0-59.7-48.6-108.3-108.2-108.3h0Z"/>
  </g>
  <g>
    <path class="st2" d="M1419,979.9c-59.6,0-108.1-48.5-108.1-108.1,0-28.8,11.3-55.9,31.7-76.4,20.5-20.5,47.6-31.7,76.4-31.7,59.6,0,108.1,48.5,108.1,108.1,0,59.6-48.5,108.1-108.1,108.1Z"/>
    <path class="st0" d="M1418.9,763.7h0c59.5,0,108,48.5,108,108,0,59.5-48.5,108-108,108-59.5,0-108-48.5-108-108,0-59.5,48.5-108,108-108M1419,763.5h0c-28.8,0-56,11.3-76.5,31.8-20.5,20.5-31.8,47.6-31.8,76.5,0,59.7,48.6,108.2,108.3,108.3,59.7,0,108.2-48.6,108.2-108.2,0-59.7-48.6-108.3-108.3-108.3h0Z"/>
  </g>
  <g>
    <path class="st2" d="M1145.6,706.3c-59.6,0-108.1-48.5-108.1-108.1,0-59.6,48.5-108.1,108.1-108.1,59.6,0,108.1,48.5,108.1,108.1,0,59.6-48.5,108.1-108.1,108.1Z"/>
    <path class="st0" d="M1145.6,490.1c59.5,0,108,48.5,108,108,0,59.5-48.5,108-108,108-59.5,0-108-48.5-108-108,0-59.5,48.5-108,108-108M1145.6,489.9c-59.7,0-108.2,48.6-108.2,108.2,0,59.7,48.6,108.3,108.3,108.3,59.7,0,108.2-48.6,108.2-108.2,0-59.7-48.6-108.3-108.3-108.3h0Z"/>
  </g>
  <g>
    <path class="st2" d="M871.8,432.5h0c-59.6.1-108.1-48.4-108.1-108,0-59.6,48.5-108.1,108.1-108.1,59.6,0,108.1,48.5,108.1,108.1,0,28.8-11.3,55.9-31.7,76.4-20.5,20.5-47.6,31.7-76.4,31.7h0Z"/>
    <path class="st0" d="M871.7,216.5c59.5,0,108,48.5,108,108,0,59.5-48.5,108-108,108h0c-59.5,0-108-48.5-108-108,0-59.5,48.5-108,108-108M871.7,216.3h0c-59.7,0-108.2,48.6-108.2,108.2,0,59.7,48.6,108.3,108.3,108.3s56-11.3,76.5-31.8c20.5-20.5,31.8-47.6,31.8-76.5,0-59.7-48.6-108.2-108.3-108.3h0Z"/>
  </g>
  <g>
    <path class="st2" d="M597.9,1253.5c-59.6,0-108.1-48.5-108.1-108.1,0-59.6,48.5-108.1,108.1-108.1,28.8,0,55.9,11.3,76.4,31.7,20.5,20.5,31.7,47.6,31.7,76.4,0,28.8-11.3,55.9-31.7,76.4-20.5,20.5-47.6,31.7-76.4,31.7Z"/>
    <path class="st0" d="M597.9,1037.4c59.5,0,108,48.5,108,108,0,59.5-48.5,108-108,108-59.5,0-108-48.5-108-108,0-59.5,48.5-108,108-108M597.9,1037.1c-59.7,0-108.2,48.6-108.3,108.3,0,59.7,48.6,108.2,108.3,108.3,28.8,0,56-11.3,76.5-31.8,20.5-20.5,31.8-47.6,31.8-76.5,0-28.8-11.3-56-31.8-76.5s-47.6-31.8-76.5-31.8h0Z"/>
  </g>
  <g>
    <path class="st2" d="M1145.6,1253.5c-59.6,0-108.1-48.5-108.1-108.1,0-59.6,48.5-108.1,108.1-108.1,59.6,0,108.1,48.5,108.1,108.1,0,59.6-48.5,108.1-108.1,108.1Z"/>
    <path class="st0" d="M1145.6,1037.4c59.5,0,108,48.5,108,108,0,59.5-48.5,108-108,108-59.5,0-108-48.5-108-108,0-59.5,48.5-108,108-108M1145.6,1037.1c-59.7,0-108.3,48.6-108.3,108.3,0,59.7,48.6,108.2,108.2,108.2,59.7,0,108.3-48.6,108.3-108.3,0-59.7-48.6-108.2-108.2-108.2h0Z"/>
  </g>
  <g>
    <path class="st2" d="M871.7,1527.1c-59.6,0-108.1-48.5-108.1-108.1,0-59.6,48.5-108.1,108.1-108.1h0c28.8,0,55.9,11.3,76.4,31.7,20.5,20.5,31.7,47.6,31.7,76.4,0,59.6-48.5,108.1-108.1,108.1Z"/>
    <path class="st0" d="M871.8,1311c59.5,0,108,48.5,108,108,0,59.5-48.5,108-108,108-59.5,0-108-48.5-108-108,0-59.5,48.5-108,108-108M871.8,1310.7v.2-.2c-59.7,0-108.3,48.6-108.3,108.3,0,59.7,48.6,108.2,108.2,108.2,59.7,0,108.3-48.6,108.3-108.3,0-28.8-11.3-56-31.8-76.5-20.5-20.5-47.6-31.8-76.5-31.8h0Z"/>
  </g>
</svg>