<?xml version="1.0" encoding="UTF-8"?>
<svg id="For_Sheets" xmlns="http://www.w3.org/2000/svg" version="1.1" viewBox="0 0 864 2592">
  <!-- Generator: Adobe Illustrator 29.1.0, SVG Export Plug-In . SVG Version: 2.1.0 Build 142)  -->
  <defs>
    <style>
      .st0 {
        fill: #231f20;
      }

      .st1 {
        fill: #ffd046;
      }
    </style>
  </defs>
  <g>
    <rect class="st1" x="-.1" y="-.1" width="864.2" height="2592.2" rx="108.1" ry="108.1"/>
    <path class="st0" d="M756,0c59.4,0,108,48.6,108,108v2376c0,59.4-48.6,108-108,108H108c-59.4,0-108-48.6-108-108V108C0,48.6,48.6,0,108,0h648M756-.2H108C79.2-.2,52.1,11,31.5,31.5,11,52.1-.2,79.2-.2,108v2376c0,28.8,11.3,55.9,31.8,76.5,20.5,20.5,47.7,31.8,76.5,31.8h648c28.8,0,55.9-11.3,76.5-31.8,20.5-20.5,31.8-47.7,31.8-76.5V108c0-28.8-11.3-55.9-31.8-76.5C811.9,11,784.8-.2,756-.2h0Z"/>
  </g>
  <path class="st0" d="M108,0C48.6,0,0,48.6,0,108v204.2L312.2,0H108Z"/>
  <path class="st0" d="M756,0h-138.3S0,617.7,0,617.7v326S861,82.8,861,82.8C849.6,35.4,806.7,0,756,0Z"/>
  <polygon class="st0" points="864 385.2 0 1249.2 0 1575.3 864 711.3 864 385.2"/>
  <polygon class="st0" points="864 1016.7 0 1880.7 0 2206.8 864 1342.8 864 1016.7"/>
  <path class="st0" d="M864,1648.2L3,2509.2c11.4,47.3,54.3,82.8,105,82.8h138.3l617.7-617.7v-326Z"/>
  <path class="st0" d="M756,2592c59.4,0,108-48.6,108-108v-204.2l-312.2,312.2h204.2Z"/>
</svg>