<?xml version="1.0" encoding="UTF-8"?>
<svg id="For_Sheets" xmlns="http://www.w3.org/2000/svg" version="1.1" viewBox="0 0 6480 1728">
  <!-- Generator: Adobe Illustrator 29.1.0, SVG Export Plug-In . SVG Version: 2.1.0 Build 142)  -->
  <defs>
    <style>
      .st0, .st1 {
        fill: #231f20;
      }

      .st2 {
        fill: #ffd046;
      }

      .st3 {
        fill: #fff;
      }

      .st1 {
        fill-rule: evenodd;
      }
    </style>
  </defs>
  <g>
    <rect class="st3" x="-.1" y="-.1" width="6480.2" height="1728.2" rx="135.1" ry="135.1"/>
    <path class="st0" d="M6345,0c74.6,0,135,60.4,135,135v1458c0,74.6-60.4,135-135,135H135c-74.6,0-135-60.4-135-135V135C0,60.4,60.4,0,135,0h6210M6345-.2H135C98.9-.2,64.9,13.8,39.4,39.4,13.8,64.9-.2,98.9-.2,135v1458c0,36.1,14.1,70.1,39.6,95.6,25.5,25.5,59.5,39.6,95.6,39.6h6210c36.1,0,70.1-14.1,95.6-39.6,25.5-25.5,39.6-59.5,39.6-95.6V135c0-36.1-14.1-70.1-39.6-95.6-25.5-25.5-59.5-39.6-95.6-39.6h0Z"/>
  </g>
  <path class="st2" d="M6345,0H135C60.4,0,0,60.4,0,135v522h6480V135c0-74.6-60.4-135-135-135Z"/>
  <path class="st0" d="M6344.6,36H135.4c-54.9,0-99.4,44.5-99.4,99.4v1457.3c0,54.9,44.5,99.4,99.4,99.4h6209.3c54.9,0,99.4-44.5,99.4-99.4V135.4c0-54.9-44.5-99.4-99.4-99.4ZM135,90h6210c24.8,0,45,20.2,45,45v495H90V135c0-24.8,20.2-45,45-45ZM6345,1638H135c-24.8,0-45-20.2-45-45v-909h6300v909c0,24.8-20.2,45-45,45Z"/>
  <g>
    <path class="st1" d="M393.5,801c29,0,52.7,23.7,52.7,52.7s-23.7,52.7-52.7,52.7-52.7-23.7-52.7-52.7,23.7-52.7,52.7-52.7Z"/>
    <path class="st1" d="M234,1133.2l110.5-73.7c5.1-21.6,26.3-117.5,68.8-139.6,42.1-27.8,197.3,86.5,198.2,87.5v166.8l-33.7-5.9-13.2-133.2c-12.7-2.6-25.4-5.1-38-7.7,27.7,71.6,37.9,140.7,22,186.2l67.3,275.1-45.4,32.2-98-254.6-45.4,48.3-62.9,191.7-60-22,54.1-202,62.9-112.7-24.1-83.2-25.6,33.4-120,39.5-17.6-26.3Z"/>
  </g>
  <g>
    <path class="st1" d="M6023.6,801c29,0,52.7,23.7,52.7,52.7s-23.7,52.7-52.7,52.7-52.7-23.7-52.7-52.7,23.7-52.7,52.7-52.7Z"/>
    <path class="st1" d="M5864,1133.2l110.5-73.7c5.1-21.6,26.3-117.5,68.8-139.6,42.1-27.8,197.3,86.5,198.2,87.5v166.8l-33.7-5.9-13.2-133.2c-12.7-2.6-25.4-5.1-38-7.7,27.7,71.6,37.9,140.7,22,186.2l67.3,275.1-45.4,32.2-98-254.6-45.4,48.3-62.9,191.7-60-22,54.1-202,62.9-112.7-24.1-83.2-25.6,33.4-120,39.5-17.6-26.3Z"/>
  </g>
  <g>
    <g>
      <path class="st0" d="M3565.5,216h45.4v245.6h133.2v42.4h-178.6V216Z"/>
      <path class="st0" d="M3929.1,423.1h-90.4l-28.5,80.9h-48.8l99.6-288h45.8l99.6,288h-48.8l-28.5-80.9ZM3855,376.7h57.9l-28.5-80.8-29.4,80.8Z"/>
      <path class="st0" d="M4197.1,504l-45.6-184.9-44.6,184.9h-40.6l-42.6-288h46.6l22.3,151.6,36.5-151.6h44.6l37.5,151.6,22.3-151.6h46.6l-42.6,288h-40.5Z"/>
    </g>
    <g>
      <path class="st0" d="M2199.9,436.3l43.5-16.2c12.1,27.3,34.3,42.4,61.6,42.4s44.5-18.2,44.5-42.4c0-38.5-44.5-44.5-81.9-59.6-17.2-7.1-55.6-24.3-55.6-71.7s38.4-77.8,89.9-77.8,67.7,23.3,81.9,58.6l-40.4,12.1c-4.5-11.4-21-25.3-42.4-25.3-41.1,0-44.6,21.9-44.6,29.1,0,26.9,23.2,32.3,61,44.1,38.4,12.1,78.6,29.8,78.6,91.5s-50.4,87.8-91,87.8-85.9-29.3-105.1-72.8Z"/>
      <path class="st0" d="M2530.6,504h-45.7v-247.6h-65.9v-40.4h178.6v40.4h-67v247.6Z"/>
      <path class="st0" d="M2782.5,423.1h-90.4l-28.5,80.9h-48.8l99.6-288h45.8l99.6,288h-48.8l-28.5-80.9ZM2708.4,376.7h57.9l-28.5-80.8-29.4,80.8Z"/>
      <path class="st0" d="M2988.7,504h-45.7v-247.6h-65.9v-40.4h178.6v40.4h-67v247.6Z"/>
      <path class="st0" d="M3098.9,216h169.6v45.5h-124.1v70.7h83.8v46.5h-83.8v78.8h133.2v46.5h-178.6V216Z"/>
    </g>
  </g>
  <g>
    <g>
      <path class="st0" d="M1144,1098h-45.7v-125.3l-101.6-162.7h54.9l69,111.2,70.1-111.2h53.8l-100.5,162.7v125.3Z"/>
      <path class="st0" d="M1287.7,810h46.1v288h-46.1v-288Z"/>
      <path class="st0" d="M1402.9,810h169.6v45.5h-124.1v70.7h83.8v46.5h-83.8v78.8h133.2v46.5h-178.6v-288Z"/>
      <path class="st0" d="M1630.5,810h45.4v245.6h133.2v42.4h-178.6v-288Z"/>
      <path class="st0" d="M1852.3,1098v-288h103.9c72.7,0,92.2,95.7,92.2,137.5,0,108-55.5,150.5-92,150.5h-104.1ZM1949.3,855.5h-51.5v196h48.3c41.9,0,55.7-50.8,55.7-105s-7.3-91-52.5-91Z"/>
    </g>
    <g>
      <path class="st0" d="M3144.2,972.7h-53.6v125.3h-45.4v-288h108.9c67.7,0,87.2,55.1,87.2,80.9s-9.8,81.8-97,81.8ZM3090.5,926.2h64.1c36.1,0,40-26.1,40-35.4,0-13.5-10.2-35.4-38.4-35.4h-65.7v70.7Z"/>
      <path class="st0" d="M3284.4,810h169.6v45.5h-124.1v70.7h83.8v46.5h-83.8v78.8h133.2v46.5h-178.6v-288Z"/>
      <path class="st0" d="M3511.9,1098v-288h103.9c72.7,0,92.2,95.7,92.2,137.5,0,108-55.5,150.5-92,150.5h-104.1ZM3608.9,855.5h-51.5v196h48.3c41.9,0,55.7-50.8,55.7-105s-7.3-91-52.4-91Z"/>
      <path class="st0" d="M3771.4,810h169.6v45.5h-124.1v70.7h83.8v46.5h-83.8v78.8h133.2v46.5h-178.6v-288Z"/>
      <path class="st0" d="M3978.8,1030.3l43.4-16.2c12.1,27.3,34.3,42.4,61.6,42.4s44.5-18.2,44.5-42.4c0-38.5-44.5-44.5-81.9-59.6-17.2-7.1-55.6-24.3-55.6-71.7s38.4-77.8,89.9-77.8,67.7,23.3,81.9,58.6l-40.4,12.1c-4.5-11.4-21-25.3-42.4-25.3-41.1,0-44.6,21.9-44.6,29.1,0,26.9,23.2,32.3,61,44.1,38.4,12.1,78.6,29.8,78.6,91.5s-50.4,87.8-91,87.8-85.9-29.3-105.1-72.8Z"/>
      <path class="st0" d="M4309.5,1098h-45.7v-247.6h-65.9v-40.4h178.6v40.4h-67v247.6Z"/>
      <path class="st0" d="M4465.2,972.6v125.4h-45.4v-288h104.2c66,0,85.8,52.8,85.8,80.9s-4,52.8-44.7,72.1l50.8,135h-49.5l-46.5-125.4h-54.6ZM4522.4,926.2c36.1,0,41.8-26.1,41.8-35.4s-9.4-35.4-39.6-35.4h-59.4v70.7h57.2Z"/>
      <path class="st0" d="M4664.7,810h46.1v288h-46.1v-288Z"/>
      <path class="st0" d="M4921.7,1017.1h-90.4l-28.5,80.9h-48.8l99.6-288h45.8l99.6,288h-48.8l-28.5-80.9ZM4847.5,970.7h57.9l-28.5-80.8-29.4,80.8Z"/>
      <path class="st0" d="M5087.6,903v195h-45.4v-288h45.4l105.1,183.9v-183.9h45.5v288h-40.4l-110.2-195Z"/>
      <path class="st0" d="M5287.2,1030.3l43.4-16.2c12.1,27.3,34.3,42.4,61.6,42.4s44.5-18.2,44.5-42.4c0-38.5-44.5-44.5-81.9-59.6-17.2-7.1-55.6-24.3-55.6-71.7s38.4-77.8,89.9-77.8,67.7,23.3,81.9,58.6l-40.4,12.1c-4.5-11.4-21-25.3-42.4-25.3-41.1,0-44.6,21.9-44.6,29.1,0,26.9,23.2,32.3,61,44.1,38.4,12.1,78.6,29.8,78.6,91.5s-50.4,87.8-91,87.8-85.9-29.3-105.1-72.8Z"/>
    </g>
    <g>
      <path class="st0" d="M2448,1098h-45.7v-247.6h-66v-40.4h178.6v40.4h-67v247.6Z"/>
      <path class="st0" d="M2757.1,954c0,10.3,2.2,149-102.3,149s-102.3-138.7-102.3-149-2.2-149,102.3-149,102.3,138.7,102.3,149ZM2655.3,1056.6c31,0,56.2-29.4,56.2-102.6s-25.2-102.6-56.2-102.6-56.2,29.4-56.2,102.6,25.2,102.6,56.2,102.6Z"/>
    </g>
  </g>
  <g>
    <rect class="st0" x="1868.6" y="1260" width="40.3" height="252"/>
    <polygon class="st0" points="2060.6 1341.4 2060.6 1512 2020.8 1512 2020.8 1260 2060.6 1260 2152.6 1420.9 2152.6 1260 2192.4 1260 2192.4 1512 2157 1512 2060.6 1341.4"/>
  </g>
  <g>
    <path class="st0" d="M2480.4,1385.6c0-35.4,7.1-129.9,92.8-129.9s61.4,14.9,78.7,51.3l-37.1,15.9c-12.9-18.5-19.3-26.5-41.5-26.5-52.7,0-52.2,73.5-52.2,89.3s-1,90.2,53.9,90.2,30.3-11.6,38.9-29.2l38,14.1c-14.2,35.1-38,55.7-76.1,55.7-90.7,0-95.5-100.2-95.5-130.9Z"/>
    <path class="st0" d="M2803.5,1361.7c31.6,0,36.6-22.8,36.6-30.9s-8.2-31-34.7-31h-52v61.9h50.1ZM2753.5,1402.3v109.7h-39.8v-252h91.2c57.8,0,75.1,46.2,75.1,70.8s-3.5,46.2-39.1,63.1l44.4,118.1h-43.3l-40.7-109.7h-47.8Z"/>
    <path class="st0" d="M3187.9,1452.7l38-14.1c10.6,23.9,30.1,37.1,53.9,37.1s38.9-15.9,38.9-37.1c0-33.7-38.9-38.9-71.6-52.2-15-6.2-48.6-21.2-48.6-62.8s33.6-68,78.7-68,59.3,20.3,71.6,51.3l-35.4,10.6c-4-10-18.4-22.1-37.1-22.1-35.9,0-39,19.2-39,25.5,0,23.6,20.3,28.2,53.4,38.6,33.6,10.6,68.8,26.1,68.8,80.1s-44.1,76.9-79.6,76.9-75.2-25.6-91.9-63.7Z"/>
    <path class="st0" d="M3421.2,1452.7l38-14.1c10.6,23.9,30,37.1,53.9,37.1s38.9-15.9,38.9-37.1c0-33.7-38.9-38.9-71.6-52.2-15-6.2-48.6-21.2-48.6-62.8s33.6-68,78.7-68,59.2,20.3,71.6,51.3l-35.4,10.6c-4-10-18.4-22.1-37.1-22.1-35.9,0-39,19.2-39,25.5,0,23.6,20.3,28.2,53.4,38.6,33.6,10.6,68.8,26.1,68.8,80.1s-44.1,76.9-79.6,76.9-75.2-25.6-91.9-63.7Z"/>
    <polygon class="st0" points="3806.2 1512 3766.3 1350.2 3727.2 1512 3691.7 1512 3654.5 1260 3695.3 1260 3714.8 1392.6 3746.7 1260 3785.8 1260 3818.6 1392.6 3838.1 1260 3878.9 1260 3841.6 1512 3806.2 1512"/>
    <path class="st0" d="M4022.5,1400.6h50.7l-24.9-70.7-25.8,70.7ZM4087.4,1441.2h-79.1l-24.9,70.7h-42.7l87.2-252h40l87.1,252h-42.7l-24.9-70.7Z"/>
    <polygon class="st0" points="4216.8 1260 4256.5 1260 4256.5 1474.9 4373.1 1474.9 4373.1 1512 4216.8 1512 4216.8 1260"/>
    <polygon class="st0" points="4501.4 1392.6 4474.8 1425.4 4474.8 1512 4434.9 1512 4434.9 1260 4474.8 1260 4474.8 1359.9 4554.6 1260 4606.1 1260 4528 1358.2 4611.4 1512 4565.3 1512 4501.4 1392.6"/>
    <path class="st0" d="M3126.1,1386c0,9,1.9,130.4-89.5,130.4s-89.5-121.4-89.5-130.4-1.9-130.4,89.5-130.4,89.5,121.3,89.5,130.4ZM3037,1475.8c27.2,0,49.2-25.7,49.2-89.8s-22.1-89.8-49.2-89.8-49.2,25.7-49.2,89.8,22,89.8,49.2,89.8Z"/>
  </g>
</svg>