<?xml version="1.0" encoding="UTF-8"?>
<svg id="For_Sheets" xmlns="http://www.w3.org/2000/svg" version="1.1" viewBox="0 0 2592 2592">
  <!-- Generator: Adobe Illustrator 29.1.0, SVG Export Plug-In . SVG Version: 2.1.0 Build 142)  -->
  <defs>
    <style>
      .st0 {
        fill: #231f20;
      }

      .st1 {
        fill: #fff;
      }

      .st2 {
        fill: #bf311a;
      }
    </style>
  </defs>
  <g>
    <polygon class="st1" points="759.2 2592.1 0 1832.9 -.1 759.2 759.1 0 1832.8 -.1 2592.1 759.1 2592.1 1832.8 1832.9 2592.1 759.2 2592.1"/>
    <path class="st0" d="M1832.8,0l759.2,759.2v1073.6l-759.2,759.2H759.2L0,1832.8V759.2L759.2,0h1073.6M1832.9-.2H759C759-.2-.2,759-.2,759h0v1073.8H-.2c0,.1,0,.2,0,.2l759.2,759.2h0c0,0,.1,0,.1,0h1073.8c0,0,759.2-759.3,759.2-759.3h0V759.2h0c0-.1,0-.2,0-.2L1833-.2h0Z"/>
  </g>
  <polygon class="st2" points="785.3 2529 63 1806.7 63 785.3 785.3 63 1806.7 63 2529 785.3 2529 1806.7 1806.7 2529 785.3 2529"/>
  <g>
    <path class="st1" d="M1043.7,1728h-124.6v-748.8h-158.1v-115.2h440.8v115.2h-158.1v748.8Z"/>
    <path class="st1" d="M1264,1294.2c0-452.4,209.8-445.2,256.4-445.2s253.6-6.9,253.6,445.5-207,448.5-253.6,448.5-256.4,7.1-256.4-448.8ZM1519,970.2c-24.6,0-136-5.1-136,324.6s111.3,327,136,327,135.9,5.1,135.9-327-111.2-324.6-135.9-324.6Z"/>
    <path class="st1" d="M2001.7,1349v379h-124v-864h257.1c136.2,0,226.9,97.4,226.9,242.6s-81.8,242.5-226.9,242.5h-133.2ZM2001.7,1230.8h127c72.6,0,112-45.4,112-124.2s-45.8-121.3-111.9-121.3h-127.1v245.5Z"/>
    <path class="st1" d="M595.5,1491.5c-.1-184-322.6-182.8-322.6-417s97.4-225.6,222.2-225.6,216.2,93.9,219.2,224.3h-118.9c-3-60.6-45.7-100-100.4-100s-103.5,42.3-103.5,99.9,23.5,66.7,75.8,99.5c119.2,69.8,246.9,159.5,246.9,319.1s-106.6,251.6-240.5,251.6-243.4-128.7-243.4-270h121.9c0,73.5,36.4,148.7,121.6,148.7h0c67-.1,121.7-60.8,121.7-130.6Z"/>
  </g>
</svg>