<?xml version="1.0" encoding="UTF-8"?>
<svg id="For_Sheets" xmlns="http://www.w3.org/2000/svg" version="1.1" viewBox="0 0 2592 3456">
  <!-- Generator: Adobe Illustrator 29.1.0, SVG Export Plug-In . SVG Version: 2.1.0 Build 142)  -->
  <defs>
    <style>
      .st0 {
        fill: #231f20;
      }

      .st1 {
        fill: #fff;
      }
    </style>
  </defs>
  <g>
    <path class="st1" d="M162,3456.1c-43.1,0-83.8-16.9-114.5-47.6-30.7-30.7-47.6-71.4-47.6-114.5V162C-.1,118.9,16.8,78.2,47.5,47.5,78.2,16.8,118.9-.1,162-.1h2268c43.1,0,83.8,16.9,114.5,47.6,30.7,30.7,47.6,71.4,47.6,114.5v3132c0,43.1-16.9,83.8-47.6,114.5s-71.4,47.6-114.5,47.6H162Z"/>
    <path class="st0" d="M2430,0c89.1,0,162,72.9,162,162v3132c0,89.1-72.9,162-162,162H162c-89.1,0-162-72.9-162-162V162C0,72.9,72.9,0,162,0h2268M2430-.2H162c-21.8,0-43,4.3-63,12.8-19.3,8.2-36.7,19.9-51.6,34.9-14.9,14.9-26.7,32.3-34.9,51.6C4.1,119-.2,140.2-.2,162v3132c0,21.8,4.3,43,12.8,63,8.2,19.3,19.9,36.7,34.9,51.6,14.9,14.9,32.3,26.7,51.6,34.9,20,8.5,41.2,12.8,63,12.8h2268c21.8,0,43-4.3,63-12.8,19.3-8.2,36.7-19.9,51.6-34.9,14.9-14.9,26.7-32.3,34.9-51.6,8.5-20,12.8-41.2,12.8-63V162c0-21.8-4.3-43-12.8-63-8.2-19.3-19.9-36.7-34.9-51.6-14.9-14.9-32.3-26.7-51.6-34.9-20-8.5-41.2-12.8-63-12.8h0Z"/>
  </g>
  <path class="st0" d="M162,3411c-31.1,0-60.4-12.2-82.6-34.4-22.2-22.2-34.4-51.5-34.4-82.6V162c0-31.1,12.2-60.4,34.4-82.6,22.2-22.2,51.5-34.4,82.6-34.4h2268c31.1,0,60.4,12.2,82.6,34.4,22.2,22.2,34.4,51.5,34.4,82.6v3132c0,31.1-12.2,60.4-34.4,82.6-22.2,22.2-51.5,34.4-82.6,34.4H162Z"/>
  <path class="st1" d="M162,3348c-14.5,0-27.6-5.5-38-16-10.4-10.4-16-23.6-16-38V162c0-14.5,5.5-27.6,16-38s23.6-16,38-16h2268c14.5,0,27.6,5.5,38,16,10.4,10.4,16,23.6,16,38v3132c0,14.5-5.5,27.6-16,38-10.4,10.4-23.6,16-38,16H162Z"/>
  <g>
    <path class="st0" d="M569.7,842.5c-30.5,18.4-69.8,29.2-109.6,29.2-74.6,0-130.9-27.6-179.7-84.5l62.4-49.2c32,38.4,67,55.3,115.7,55.3s94.4-25.8,94.4-56.9-43.8-46.9-164.7-80.8c-60.8-17.1-88-63.3-88-109.7,0-72.3,61-121.4,149.2-121.4s117.3,21.4,161.4,67.5l-57.9,52.3c-27.4-29.2-62.4-43-103.5-43s-70,19.2-70,44.1c0,47.9,58.8,37.3,166.3,75.2,75.9,26.8,84.9,91.6,84.9,119,0,44.6-19.8,78.4-60.9,103Z"/>
    <path class="st0" d="M795.9,694.2v169.8h-78.8v-432h211.3c91,0,138.8,69.3,138.8,131.1s-42.8,131.1-135.4,131.1h-135.9ZM795.9,509.3v107.6h130.5c37.9,0,63.6-21.2,63.6-53s-25.3-54.5-63.7-54.5h-130.4Z"/>
    <path class="st0" d="M1140.6,432h316.4v77.3h-237.3v80.3h129.3v78.8h-129.3v118.2h244.9v77.3h-324v-432Z"/>
    <path class="st0" d="M1551,432h316.4v77.3h-237.3v80.3h129.3v78.8h-129.3v118.2h244.9v77.3h-324v-432Z"/>
    <path class="st0" d="M1961.4,864v-432h142.8c137.5,0,207.4,104.3,207.4,215.2s-77,216.8-206.8,216.8h-143.3ZM2100.6,509.3h-60.5v277.3h59.9c69.2,0,134.3-45.7,134.3-139.4s-54.6-137.9-133.7-137.9Z"/>
  </g>
  <g>
    <path class="st0" d="M505.3,1224h77.6v365.3h246.4v66.7h-324v-432Z"/>
    <path class="st0" d="M902.8,1224h77.8v432h-77.8v-432Z"/>
    <path class="st0" d="M1423.1,1392.3l-127.8,263.7-126.3-263.7v263.7h-76.1v-432h76.1l126.3,256.2,127.8-256.2h76.1v432h-76.1v-263.7Z"/>
    <path class="st0" d="M1611.5,1224h77.8v432h-77.8v-432Z"/>
    <path class="st0" d="M1962.5,1656h-75.7v-356.2h-124.1v-75.8h324v75.8h-124.1v356.2Z"/>
  </g>
  <g>
    <path class="st0" d="M410.2,2489.9l32-473.9h674.8l-3.5,176.9h-500.8l-10.7,145.2c81.6-17.5,131.4-24.8,195.4-24.8,231,0,397.8,155.6,397.8,364.3s-177.7,364.3-426.2,364.3-262.8-35.3-390.7-113.1l95.9-152.1c113.5,65.9,219,81.3,302.3,81.3,155.9,0,237.1-75.6,237.1-177s-48.8-183.7-216.2-183.7-126.6,8.2-206,38.8l-181.1-46Z"/>
    <path class="st0" d="M1366.6,2518.2c0-264.9,127.6-519.7,425.4-519.7s421.8,259.8,421.8,516.3-117.6,526.8-421.8,526.8-425.4-258.5-425.4-523.4ZM1791.9,2178.7c-180.8,0-244.6,187.5-244.6,336,0,222.9,92.1,346.5,244.6,346.5s241-154.5,241-343-88.6-339.6-241-339.6Z"/>
  </g>
</svg>