<?xml version="1.0" encoding="UTF-8"?>
<svg id="For_Sheets" xmlns="http://www.w3.org/2000/svg" version="1.1" viewBox="0 0 1728 2592">
  <!-- Generator: Adobe Illustrator 29.1.0, SVG Export Plug-In . SVG Version: 2.1.0 Build 142)  -->
  <defs>
    <style>
      .st0 {
        fill: #231f20;
      }

      .st1 {
        fill: #fff;
      }
    </style>
  </defs>
  <g>
    <rect class="st1" x="-.1" y="-.1" width="1728.2" height="2592.2" rx="108.1" ry="108.1"/>
    <path class="st0" d="M1620,0c59.6,0,108,48.4,108,108v2376c0,59.6-48.4,108-108,108H108c-59.6,0-108-48.4-108-108V108C0,48.4,48.4,0,108,0h1512M1620-.2H108C79.1-.2,51.9,11,31.5,31.5,11,51.9-.2,79.1-.2,108v2376c0,28.9,11.3,56.1,31.7,76.5,20.4,20.4,47.6,31.7,76.5,31.7h1512c28.9,0,56.1-11.3,76.5-31.7,20.4-20.4,31.7-47.6,31.7-76.5V108c0-28.9-11.3-56.1-31.7-76.5-20.4-20.4-47.6-31.7-76.5-31.7h0Z"/>
  </g>
  <rect class="st0" x="27" y="27" width="1674" height="2538" rx="81" ry="81"/>
  <rect class="st1" x="72" y="72" width="1584" height="2448" rx="36" ry="36"/>
  <g>
    <path class="st0" d="M519.6,216h169.6v45.5h-124.1v70.7h83.8v46.5h-83.8v78.8h133.2v46.5h-178.6V216Z"/>
    <path class="st0" d="M792.6,309v195h-45.4V216h45.4l105.1,183.9v-183.9h45.5v288h-40.4l-110.2-195Z"/>
    <path class="st0" d="M1012.4,504V216h103.9c72.7,0,92.2,95.7,92.2,137.5,0,108-55.5,150.5-92,150.5h-104.1ZM1109.3,261.5h-51.6v196h48.3c41.9,0,55.7-50.8,55.7-105s-7.3-91-52.4-91Z"/>
  </g>
  <g>
    <path class="st0" d="M296.2,1840.3l43.4-16.2c12.1,27.3,34.3,42.4,61.6,42.4s44.5-18.2,44.5-42.4c0-38.5-44.5-44.5-81.9-59.6-17.2-7.1-55.6-24.3-55.6-71.7s38.4-77.8,89.9-77.8,67.7,23.3,81.9,58.6l-40.4,12.1c-4.5-11.4-21-25.3-42.4-25.3-41.1,0-44.6,21.9-44.6,29.1,0,26.9,23.2,32.3,61,44.1,38.4,12.1,78.6,29.8,78.6,91.5s-50.4,87.8-91,87.8-85.9-29.3-105.1-72.8Z"/>
    <path class="st0" d="M640.3,1782.7h-53.6v125.3h-45.4v-288h108.9c67.7,0,87.2,55.1,87.2,80.9s-9.8,81.8-97,81.8ZM586.7,1736.2h64.1c36.1,0,40-26.1,40-35.4,0-13.5-10.2-35.4-38.4-35.4h-65.7v70.7Z"/>
    <path class="st0" d="M780.5,1620h169.6v45.5h-124.1v70.7h83.8v46.5h-83.8v78.8h133.2v46.5h-178.6v-288Z"/>
    <path class="st0" d="M1008.1,1620h169.6v45.5h-124.1v70.7h83.8v46.5h-83.8v78.8h133.2v46.5h-178.6v-288Z"/>
    <path class="st0" d="M1235.7,1908v-288h103.9c72.7,0,92.2,95.7,92.2,137.5,0,108-55.5,150.5-92,150.5h-104.1ZM1332.7,1665.5h-51.6v196h48.3c41.9,0,55.7-50.8,55.7-105s-7.3-91-52.4-91Z"/>
  </g>
  <g>
    <path class="st0" d="M414.6,2088h45.4v245.6h133.2v42.4h-178.6v-288Z"/>
    <path class="st0" d="M636.4,2088h46.1v288h-46.1v-288Z"/>
    <path class="st0" d="M930.8,2209.2l-66.8,166.8-66.8-166.8v166.8h-45.6v-288h45.6l66.8,161.7,66.8-161.7h45.6v288h-45.6v-166.8Z"/>
    <path class="st0" d="M1045.5,2088h46.1v288h-46.1v-288Z"/>
    <path class="st0" d="M1246.4,2376h-45.7v-247.6h-66v-40.4h178.6v40.4h-67v247.6Z"/>
  </g>
  <g>
    <path class="st0" d="M533,972l-45.6-184.9-44.6,184.9h-40.6l-42.6-288h46.6l22.3,151.6,36.5-151.6h44.6l37.5,151.6,22.3-151.6h46.6l-42.6,288h-40.5Z"/>
    <path class="st0" d="M967,846.7v125.4h-45.4v-288h104.2c66,0,85.8,52.8,85.8,80.9s-4,52.8-44.7,72.1l50.8,135h-49.5l-46.5-125.4h-54.6ZM1024.2,800.2c36.1,0,41.8-26.1,41.8-35.4s-9.4-35.4-39.6-35.4h-59.4v70.7h57.2Z"/>
    <path class="st0" d="M1242.6,835.6l-30.4,37.4v99h-45.6v-288h45.6v114.2l91.3-114.2h58.8l-89.2,112.2,95.3,175.8h-52.7l-73-136.4Z"/>
    <path class="st0" d="M858.2,828c0,10.3,2.2,149-102.3,149s-102.3-138.7-102.3-149-2.2-149,102.3-149,102.3,138.7,102.3,149ZM756.4,930.6c31,0,56.2-29.4,56.2-102.6s-25.2-102.6-56.2-102.6-56.2,29.4-56.2,102.6,25.2,102.6,56.2,102.6Z"/>
  </g>
  <g>
    <path class="st0" d="M388.5,1401.6l131.4-204.1h-120.2v-45.5h184.9v27.3l-133.4,214.2h133.4v46.5h-196v-38.4Z"/>
    <path class="st0" d="M941.2,1245v195h-45.4v-288h45.4l105.1,183.9v-183.9h45.5v288h-40.4l-110.2-195Z"/>
    <path class="st0" d="M1160.9,1152h169.6v45.5h-124.1v70.7h83.8v46.5h-83.8v78.8h133.2v46.5h-178.6v-288Z"/>
    <path class="st0" d="M832.4,1296c0,10.3,2.2,149-102.3,149s-102.3-138.7-102.3-149-2.2-149,102.3-149,102.3,138.7,102.3,149ZM730.5,1398.6c31,0,56.2-29.4,56.2-102.6s-25.2-102.6-56.2-102.6-56.2,29.4-56.2,102.6,25.2,102.6,56.2,102.6Z"/>
  </g>
</svg>