<?xml version="1.0" encoding="UTF-8"?>
<svg id="For_Sheets" xmlns="http://www.w3.org/2000/svg" version="1.1" viewBox="0 0 2592 3456">
  <!-- Generator: Adobe Illustrator 29.1.0, SVG Export Plug-In . SVG Version: 2.1.0 Build 142)  -->
  <defs>
    <style>
      .st0 {
        fill: #231f20;
      }

      .st1 {
        fill: #fff;
      }
    </style>
  </defs>
  <g>
    <path class="st1" d="M162,3456.1c-89.4,0-162.1-72.7-162.1-162.1V162C-.1,72.6,72.6-.1,162-.1h2268c89.4,0,162.1,72.7,162.1,162.1v3132c0,89.4-72.7,162.1-162.1,162.1H162Z"/>
    <path class="st0" d="M2430,0c89.5,0,162,72.5,162,162v3132c0,89.5-72.5,162-162,162H162C72.5,3456,0,3383.5,0,3294V162C0,72.5,72.5,0,162,0h2268M2430-.2H162C118.7-.2,77.9,16.6,47.3,47.3,16.6,77.9-.3,118.7-.3,162v3132c0,43.3,16.9,84.1,47.5,114.7,30.6,30.6,71.4,47.5,114.7,47.5h2268c43.3,0,84.1-16.9,114.7-47.5,30.6-30.6,47.5-71.4,47.5-114.7V162c0-43.3-16.9-84.1-47.5-114.7-30.6-30.6-71.4-47.5-114.7-47.5h0Z"/>
  </g>
  <path class="st0" d="M2430,45H162c-64.5,0-117,52.5-117,117v3132c0,64.5,52.5,117,117,117h2268c64.5,0,117-52.5,117-117V162c0-64.5-52.5-117-117-117ZM2484,3294c0,29.8-24.2,54-54,54H162c-29.8,0-54-24.2-54-54V162c0-29.8,24.2-54,54-54h2268c29.8,0,54,24.2,54,54v3132Z"/>
  <g>
    <path class="st0" d="M714,1044V468h181.5c76.5,0,131.1,60.6,131.1,149.5s-14.1,76.8-60.5,125.4c44.3,36.4,70.6,84.9,70.6,143.5,0,86.2-68.6,157.6-153.3,157.6h-169.4ZM796.7,548.9v153.6h86.7c38.4,0,62.6-32.3,62.6-84.9s-17.8-68.7-62.5-68.7h-86.8ZM796.7,963.1h82.7c46.4,0,76.7-32.3,76.7-82.9s-33.3-97-76.6-97h-82.7v179.9Z"/>
    <path class="st0" d="M1134.7,876.6v-408.6h82.7v414.3c0,54.2,31.7,91,80.6,91s76.7-36.4,76.7-91v-414.3h82.7v409.8c0,131-101.2,176.3-159.4,176.3s-163.3-34.6-163.3-177.5Z"/>
    <path class="st0" d="M1720.5,677.8c63,39.5,157.5,94.9,157.5,208.6s-71.1,167.7-160.3,167.7-162.4-85.8-162.4-179.9h81.2c0,49,24.3,99.1,81.1,99.1s81.1-40.4,81.1-86.9c0-125.2-215.1-118-215.1-278.9s64.9-149.5,148.1-149.5,144.1,62.6,146.2,149.5h-79.2c-2-40.4-30.5-66.7-67-66.7s-69,28.2-69,66.6,19.9,46.7,57.7,70.3Z"/>
  </g>
  <g>
    <path class="st0" d="M535.4,1440h83.1v499.2h210.8v76.8h-293.9v-576Z"/>
    <path class="st0" d="M1109,1858.4h-123.5l-38.5,157.6h-83.1l143.8-576h81.1l143.8,576h-83.1l-40.5-157.6ZM1005.7,1777.5h83.1l-42.6-165.7-40.5,165.7Z"/>
    <path class="st0" d="M1395.9,1630v386h-82.7v-576h82.7l157.3,345.6v-345.6h82.7v576h-62.5l-177.5-386Z"/>
    <path class="st0" d="M1762.7,1440h271.6v80.9h-188.5v145.5h119.5v78.8h-119.5v190h210.8v80.8h-293.9v-576Z"/>
  </g>
  <g>
    <path class="st0" d="M532.8,2830.4h-123.5l-38.5,157.6h-83.1l143.9-576h81.1l143.8,576h-83.1l-40.5-157.6ZM429.5,2749.5h83.1l-42.5-165.7-40.5,165.7Z"/>
    <path class="st0" d="M977.1,2727.3h-157.4v260.7h-82.7v-576h82.7v234.4h157.3v-234.4h82.7v576h-82.7v-260.7Z"/>
    <path class="st0" d="M1186.5,2412h271.6v80.9h-188.5v145.5h119.5v78.8h-119.5v190h210.8v80.8h-293.9v-576Z"/>
    <path class="st0" d="M1777.4,2830.4h-123.5l-38.5,157.6h-83.1l143.9-576h81.1l143.8,576h-83.1l-40.5-157.6ZM1674.1,2749.5h83.1l-42.5-165.7-40.5,165.7Z"/>
    <path class="st0" d="M1981.7,2988v-576h164.4c35.1,0,158.3,1.7,158.3,287s-113.8,289-151.5,289h-171.2ZM2128.9,2492.9h-64.6v414.3h57.5c67.4,0,101.9-29.4,101.9-204.1s-50.5-210.2-94.7-210.2Z"/>
  </g>
</svg>