<?xml version="1.0" encoding="UTF-8"?>
<svg id="For_Sheets" xmlns="http://www.w3.org/2000/svg" version="1.1" viewBox="0 0 2160 2592">
  <!-- Generator: Adobe Illustrator 29.1.0, SVG Export Plug-In . SVG Version: 2.1.0 Build 142)  -->
  <defs>
    <style>
      .st0 {
        fill: #231f20;
      }

      .st1 {
        fill: #fff;
      }
    </style>
  </defs>
  <g>
    <path class="st1" d="M135,2592.1c-35.9,0-69.8-14.1-95.4-39.7-25.6-25.6-39.7-59.5-39.7-95.4V135C-.1,99.1,14,65.2,39.6,39.6S99.1-.1,135-.1h1890c35.9,0,69.8,14.1,95.4,39.7,25.6,25.6,39.7,59.5,39.7,95.4v2322c0,35.9-14.1,69.8-39.7,95.4-25.6,25.6-59.5,39.7-95.4,39.7H135Z"/>
    <path class="st0" d="M2025,0c74.2,0,135,60.8,135,135v2322c0,74.2-60.8,135-135,135H135c-74.2,0-135-60.8-135-135V135C0,60.8,60.8,0,135,0h1890M2025-.2H135C99-.2,65.1,13.9,39.5,39.5,13.9,65.1-.2,99-.2,135v2322c0,36,14.1,69.9,39.7,95.5,25.6,25.6,59.5,39.7,95.5,39.7h1890c36,0,69.9-14.1,95.5-39.7,25.6-25.6,39.7-59.5,39.7-95.5V135c0-36-14.1-69.9-39.7-95.5-25.6-25.6-59.5-39.7-95.5-39.7h0Z"/>
  </g>
  <path class="st0" d="M135,2556c-54.6,0-99-44.4-99-99V135c0-54.6,44.4-99,99-99h1890c54.6,0,99,44.4,99,99v2322c0,54.6-44.4,99-99,99H135ZM2025,2502c24.8,0,45-20.2,45-45V135c0-24.8-20.2-45-45-45H135c-24.8,0-45,20.2-45,45v2322c0,24.8,20.2,45,45,45h1890Z"/>
  <g>
    <path class="st0" d="M800.3,2322h-270v-211.5c0-114.7,16.9-228.7,50-338.9,32.9-109.3,81.3-213.1,143.8-308.5,129.9-198.1,314.6-350.8,534.3-441.8l158.4-65.6,103.3,249.4-158.4,65.6c-169.4,70.1-311.8,187.9-411.8,340.4-48.3,73.6-85.6,153.8-111,238.2-25.6,85-38.5,172.9-38.6,261.2v211.4Z"/>
    <path class="st0" d="M1502.5,1393.6c.5,4.3,1.6,8.5,3.2,12.3,9.5,23,35.8,33.9,58.8,24.3,8.1-3.3,15.3-9.1,20.5-17l340.6-522.3-610.2-128.4c-9.2-1.9-18.4-.9-26.5,2.5-23,9.5-33.9,35.8-24.4,58.8,1.6,3.8,3.8,7.5,6.5,10.9l197.2,245.6,34.3,313.1Z"/>
  </g>
  <g>
    <rect class="st0" x="530.5" y="683.8" width="270" height="1426.7"/>
    <path class="st0" d="M363.1,772.2c-4.2,1.2-8.4,1.8-12.6,1.8-24.9,0-45-20.2-45-45,0-8.8,2.5-17.6,7.9-25.4L665.5,189l352.1,514.6c5.3,7.8,7.9,16.6,7.9,25.4,0,24.9-20.1,45-45,45-4.2,0-8.4-.6-12.6-1.8l-302.4-88.2-302.4,88.2Z"/>
  </g>
</svg>