<?xml version="1.0" encoding="UTF-8"?>
<svg id="For_Sheets" xmlns="http://www.w3.org/2000/svg" version="1.1" viewBox="0 0 1728 864">
  <!-- Generator: Adobe Illustrator 29.1.0, SVG Export Plug-In . SVG Version: 2.1.0 Build 142)  -->
  <defs>
    <style>
      .st0 {
        fill: #231f20;
      }

      .st1 {
        fill: #fff;
      }
    </style>
  </defs>
  <g>
    <path class="st1" d="M135,864.1c-35.9,0-69.8-14.1-95.4-39.7S-.1,764.9-.1,729V135C-.1,99.1,14,65.2,39.6,39.6S99.1-.1,135-.1h1458c35.9,0,69.8,14.1,95.4,39.7,25.6,25.6,39.7,59.5,39.7,95.4v594c0,35.9-14.1,69.8-39.7,95.4-25.6,25.6-59.5,39.7-95.4,39.7H135Z"/>
    <path class="st0" d="M1593,0c74.2,0,135,60.8,135,135v594c0,74.2-60.8,135-135,135H135C60.8,864,0,803.2,0,729V135C0,60.8,60.8,0,135,0h1458M1593-.2H135C99-.2,65.1,13.9,39.5,39.5,13.9,65.1-.2,99-.2,135v594c0,36,14.1,69.9,39.7,95.5,25.6,25.6,59.5,39.7,95.5,39.7h1458c36,0,69.9-14.1,95.5-39.7,25.6-25.6,39.7-59.5,39.7-95.5V135c0-36-14.1-69.9-39.7-95.5-25.6-25.6-59.5-39.7-95.5-39.7h0Z"/>
  </g>
  <path class="st0" d="M135,828c-26.3,0-51.1-10.3-69.9-29.1-18.8-18.8-29.1-43.6-29.1-69.9V135c0-26.3,10.3-51.1,29.1-69.9,18.8-18.8,43.6-29.1,69.9-29.1h1458c26.3,0,51.1,10.3,69.9,29.1,18.8,18.8,29.1,43.6,29.1,69.9v594c0,26.3-10.3,51.1-29.1,69.9-18.8,18.8-43.6,29.1-69.9,29.1H135Z"/>
  <path class="st1" d="M135,774c-12,0-23-4.6-31.7-13.3-8.7-8.7-13.3-19.7-13.3-31.7V135c0-12,4.6-23,13.3-31.7,8.7-8.7,19.7-13.3,31.7-13.3h1458c12,0,23,4.6,31.7,13.3,8.7,8.7,13.3,19.7,13.3,31.7v594c0,12-4.6,23-13.3,31.7-8.7,8.7-19.7,13.3-31.7,13.3H135Z"/>
  <g>
    <path class="st0" d="M328.9,450.7h-105.2v125.3h-45.4v-288h45.4v116.2h105.1v-116.2h45.5v288h-45.5v-125.3Z"/>
    <path class="st0" d="M771.1,576l-91.3-288h47.7l61.8,192,60.8-192h48.7l-92.3,288h-35.5Z"/>
    <path class="st0" d="M642.4,432c0,10.3,2.2,149-102.3,149s-102.3-138.7-102.3-149-2.2-149,102.3-149,102.3,138.7,102.3,149ZM540.5,534.6c31,0,56.2-29.4,56.2-102.6s-25.2-102.6-56.2-102.6-56.2,29.4-56.2,102.6,25.2,102.6,56.2,102.6Z"/>
  </g>
  <g>
    <path class="st0" d="M1133.4,529.5h141.5v46.5h-196.1c1-33.3,8-60.7,24.3-87.9,50.5-84.5,126.3-76,126.3-120.2s-24.2-38.4-52.6-38.4-47.5,14.1-52.6,40.4l-45.5-10.1c10.1-47.5,47.5-76.8,98-76.8s98,38.4,98,85.9-19.8,56.4-45.4,72.3c-38.8,24.1-74.4,34.8-96,88.3Z"/>
    <path class="st0" d="M1464.2,540h-45v-85.5h-85.5v-45h85.5v-85.5h45v85.5h85.5v45h-85.5v85.5Z"/>
  </g>
</svg>