<?xml version="1.0" encoding="UTF-8"?>
<svg id="For_Sheets" xmlns="http://www.w3.org/2000/svg" version="1.1" viewBox="0 0 2592 2592">
  <!-- Generator: Adobe Illustrator 29.1.0, SVG Export Plug-In . SVG Version: 2.1.0 Build 142)  -->
  <defs>
    <style>
      .st0 {
        fill: #231f20;
      }

      .st1 {
        fill: #fff;
      }
    </style>
  </defs>
  <g>
    <path class="st1" d="M162,2592.1c-43.1,0-83.8-16.9-114.5-47.6S-.1,2473.1-.1,2430V162C-.1,118.9,16.8,78.2,47.5,47.5S118.9-.1,162-.1h2268c43.1,0,83.8,16.9,114.5,47.6s47.6,71.4,47.6,114.5v2268c0,43.1-16.9,83.8-47.6,114.5s-71.4,47.6-114.5,47.6H162Z"/>
    <path class="st0" d="M2430,0c89.1,0,162,72.9,162,162v2268c0,89.1-72.9,162-162,162H162c-89.1,0-162-72.9-162-162V162C0,72.9,72.9,0,162,0h2268M2430-.2H162c-21.8,0-43,4.3-63,12.8-19.3,8.2-36.7,19.9-51.6,34.9-14.9,14.9-26.7,32.3-34.9,51.6C4.1,119-.2,140.2-.2,162v2268c0,21.8,4.3,43,12.8,63,8.2,19.3,19.9,36.7,34.9,51.6s32.3,26.7,51.6,34.9c20,8.5,41.2,12.8,63,12.8h2268c21.8,0,43-4.3,63-12.8,19.3-8.2,36.7-19.9,51.6-34.9,14.9-14.9,26.7-32.3,34.9-51.6,8.5-20,12.8-41.2,12.8-63V162c0-21.8-4.3-43-12.8-63-8.2-19.3-19.9-36.7-34.9-51.6-14.9-14.9-32.3-26.7-51.6-34.9-20-8.5-41.2-12.8-63-12.8h0Z"/>
  </g>
  <path class="st0" d="M162,2547c-64.5,0-117-52.5-117-117V162c0-64.5,52.5-117,117-117h2268c64.5,0,117,52.5,117,117v2268c0,64.5-52.5,117-117,117H162Z"/>
  <path class="st1" d="M162,2484c-29.8,0-54-24.2-54-54V162c0-29.8,24.2-54,54-54h2268c29.8,0,54,24.2,54,54v2268c0,29.8-24.2,54-54,54H162Z"/>
  <g>
    <polygon class="st0" points="419.7 2160 328.4 2160 328.4 1664.9 196.5 1664.9 196.5 1584 553.7 1584 553.7 1664.9 419.7 1664.9 419.7 2160"/>
    <path class="st0" d="M609.9,1953.9v-369.9h90.9v369.9c0,74.8,42.5,123.3,105.1,123.3s105.1-48.5,105.1-123.3v-369.9h91v369.9c0,182.2-139.7,216.2-196,216.2s-196-30.2-196-216.2Z"/>
    <path class="st0" d="M1297.1,1816.4c72.3,0,83.7-52.1,83.7-70.7s-18.8-70.8-79.3-70.8h-118.8v141.5h114.4ZM1182.7,1909.3v250.7h-90.9v-576h208.4c132,0,171.6,105.6,171.6,161.8s-7.9,105.6-89.4,144.2l101.5,270h-99.1l-92.9-250.7h-109.2Z"/>
    <polygon class="st0" points="1638.5 1770 1638.5 2160 1547.7 2160 1547.7 1584 1638.5 1584 1848.7 1951.8 1848.7 1584 1939.7 1584 1939.7 2160 1858.9 2160 1638.5 1770"/>
    <path class="st0" d="M2003.4,2024.6l86.9-32.3c24.3,54.6,68.7,84.9,123.3,84.9s89-36.4,89-84.9c0-77-88.9-88.9-163.7-119.2-34.3-14.2-111.2-48.5-111.2-143.5s76.7-155.5,179.8-155.5,135.4,46.5,163.7,117.2l-80.9,24.3c-9.1-22.8-42-50.5-84.9-50.5-82.1,0-89.1,43.8-89.1,58.2,0,53.9,46.4,64.5,122,88.2,76.9,24.2,157.2,59.5,157.2,183s-100.8,175.7-181.9,175.7-171.8-58.6-210.2-145.5Z"/>
  </g>
  <g>
    <path class="st0" d="M829.5,664.5v487.5h-113.6V432h113.6l262.8,459.8v-459.8h113.8v720h-101.1l-275.5-487.5Z"/>
    <path class="st0" d="M1876.1,792c0,25.8,5.5,372.6-255.8,372.6s-255.8-346.8-255.8-372.6-5.5-372.5,255.8-372.5,255.8,346.7,255.8,372.5ZM1621.5,1048.5c77.6,0,140.6-73.5,140.6-256.5s-63-256.5-140.6-256.5-140.6,73.4-140.6,256.5,63,256.5,140.6,256.5Z"/>
  </g>
</svg>