<?xml version="1.0" encoding="UTF-8"?>
<svg id="For_Sheets" xmlns="http://www.w3.org/2000/svg" version="1.1" viewBox="0 0 1728 1296">
  <!-- Generator: Adobe Illustrator 29.1.0, SVG Export Plug-In . SVG Version: 2.1.0 Build 142)  -->
  <defs>
    <style>
      .st0 {
        fill: #231f20;
      }

      .st1 {
        fill: #fff;
      }
    </style>
  </defs>
  <g>
    <rect class="st1" x="-.1" y="-.1" width="1728.2" height="1296.2" rx="108.1" ry="108.1"/>
    <path class="st0" d="M1620,0c59.6,0,108,48.4,108,108v1080c0,59.6-48.4,108-108,108H108c-59.6,0-108-48.4-108-108V108C0,48.4,48.4,0,108,0h1512M1620-.2H108C79.1-.2,51.9,11,31.5,31.5,11,51.9-.2,79.1-.2,108v1080c0,28.9,11.3,56.1,31.7,76.5,20.4,20.4,47.6,31.7,76.5,31.7h1512c28.9,0,56.1-11.3,76.5-31.7,20.4-20.4,31.7-47.6,31.7-76.5V108c0-28.9-11.3-56.1-31.7-76.5-20.4-20.4-47.6-31.7-76.5-31.7h0Z"/>
  </g>
  <path class="st0" d="M1620,27H108c-44.7,0-81,36.3-81,81v1080c0,44.7,36.3,81,81,81h1512c44.7,0,81-36.3,81-81V108c0-44.7-36.3-81-81-81ZM1656,1188c0,19.9-16.1,36-36,36H108c-19.9,0-36-16.1-36-36v-396h1584v396Z"/>
  <g>
    <path class="st0" d="M146.6,1152v-288h90.8c38.2,0,65.6,30.3,65.6,74.8s-7.1,38.4-30.2,62.7c22.2,18.2,35.3,42.4,35.3,71.7,0,43.1-34.3,78.8-76.6,78.8h-84.7ZM188,904.4v76.8h43.3c19.2,0,31.3-16.2,31.3-42.4s-8.9-34.3-31.2-34.3h-43.4ZM188,1111.6h41.3c23.2,0,38.3-16.2,38.3-41.4s-16.7-48.5-38.3-48.5h-41.4v89.9Z"/>
    <path class="st0" d="M332.5,864h40.3v288h-40.3v-288Z"/>
    <path class="st0" d="M472,1011.5l-26.2,48.5v92h-41.3v-288h41.3v115.2l65.6-115.2h47.4l-59.5,101.1,66.6,186.9h-43.3l-50.4-140.5Z"/>
    <path class="st0" d="M590.3,864h135.8v40.4h-94.2v72.8h59.8v39.4h-59.8v95h105.4v40.4h-146.9v-288Z"/>
  </g>
  <g>
    <path class="st0" d="M881.2,864h41.5v249.6h105.4v38.4h-146.9v-288Z"/>
    <path class="st0" d="M1159.4,1073.2h-61.8l-19.3,78.8h-41.5l71.9-288h40.6l71.9,288h-41.5l-20.3-78.8ZM1107.8,1032.8h41.5l-21.3-82.9-20.3,82.9Z"/>
    <path class="st0" d="M1282.7,959v193h-41.3v-288h41.3l78.7,172.8v-172.8h41.4v288h-31.2l-88.8-193Z"/>
    <path class="st0" d="M1434.4,864h135.8v40.4h-94.2v72.8h59.8v39.4h-59.8v95h105.4v40.4h-146.9v-288Z"/>
  </g>
  <path class="st1" d="M550.8,320.4c34.7,0,67.2,9.3,95.3,25.5,16.1-49.5,41-131.5,51.6-166.5l-22.8-17.4,35.5-36h82.8v24h-72.8l-9.3,9.5,19.8,15.1c-1.3,4.3-3.9,13-7.4,24.5-4.1,13.5-9.4,31-15.2,49.8h271.7l5.4-19.2c-30.2-2.9-73.2-13.2-73.6-25.9-.4-12.4,66.9-12,79.6-12.2,46.3-.6,87.9-11.8,89.2,3.2,1.4,15.4-21.8,31.4-63.7,35l-8.8,31.4,66.9,88.9c29.5-18.8,64.6-29.7,102.2-29.7,105.4,0,190.8,85.4,190.8,190.8s-85.4,190.8-190.8,190.8-159.2-57.3-182.8-135.9l-69.1,14.9c-1.9,3.1-4.5,5.8-7.6,7.7l15.2,57.9h18.5v14.4h-46.4v-14.4h14.7l-14.4-54.7c-12-.4-21.6-10.2-21.6-22.3s0-1.2,0-1.8l-205.3-223.5c-2.3,7-4.4,13.6-6.4,19.6,42.4,35,69.5,88,69.5,147.3,0,105.4-85.4,190.8-190.8,190.8s-190.8-85.4-190.8-190.8,85.4-190.8,190.8-190.8Z"/>
  <path class="st0" d="M1023.4,528.8l127.4-27.4-78.3-104.1c-30.8,28.3-50,68.9-50,114s.3,11.8,1,17.6Z"/>
  <path class="st0" d="M550.8,666c85.5,0,154.8-69.3,154.8-154.8s-18.3-83.5-47.6-111.7c-11.9,24.1-27.6,46.3-40.1,62.3-16.9,21.6-33.9,39.6-47,51.8-1.2,10-9.7,17.7-20,17.7s-20.2-9-20.2-20.2,9-20.1,20-20.2c26.7-25,63.8-69.5,82.8-110.7-23.9-15.1-52.3-23.9-82.6-23.9-85.5,0-154.8,69.3-154.8,154.8s69.3,154.8,154.8,154.8Z"/>
  <path class="st0" d="M879.2,492.6h-18.5v-14.4h46.4v14.4h-14.7l9.4,35.7,69.6-249h-272.5c-3.3,10.6-6.6,21.3-9.8,31.6l199.4,217.1-9.3-35.4Z"/>
  <path class="st0" d="M988.1,536.4c-1.1-8.2-1.7-16.6-1.7-25.2,0-56.9,24.9-107.9,64.3-142.8l-52.9-70.3-70.3,251.4,60.6-13Z"/>
  <path class="st0" d="M1197.4,511.2c0,11.2-9,20.2-20.2,20.2s-6.9-.9-9.8-2.5l-137.6,29.6c20,62.4,78.4,107.5,147.4,107.5s154.8-69.3,154.8-154.8-69.3-154.8-154.8-154.8-57,8.2-80.5,22.5l84.6,112.5c9.2,1.9,16.1,10,16.1,19.8Z"/>
</svg>