<?xml version="1.0" encoding="UTF-8"?>
<svg id="For_Sheets" xmlns="http://www.w3.org/2000/svg" version="1.1" viewBox="0 0 4320 2592">
  <!-- Generator: Adobe Illustrator 29.1.0, SVG Export Plug-In . SVG Version: 2.1.0 Build 142)  -->
  <defs>
    <style>
      .st0 {
        fill: #231f20;
      }

      .st1 {
        fill: #fff;
      }
    </style>
  </defs>
  <g>
    <rect class="st1" x="-.1" y="-.1" width="4320.2" height="2592.2" rx="162.1" ry="162.1"/>
    <path class="st0" d="M4158,0c89.5,0,162,72.5,162,162v2268c0,89.5-72.5,162-162,162H162c-89.5,0-162-72.5-162-162V162C0,72.5,72.5,0,162,0h3996M4158-.2H162C118.7-.2,77.9,16.6,47.3,47.3,16.6,77.9-.2,118.7-.2,162v2268c0,43.3,16.9,84.1,47.5,114.7,30.6,30.6,71.4,47.5,114.7,47.5h3996c43.3,0,84.1-16.9,114.7-47.5,30.6-30.6,47.5-71.4,47.5-114.7V162c0-43.3-16.9-84.1-47.5-114.7-30.6-30.6-71.4-47.5-114.7-47.5h0Z"/>
  </g>
  <rect class="st0" x="45" y="45" width="4230" height="2502" rx="117" ry="117"/>
  <rect class="st1" x="108" y="108" width="4104" height="2376" rx="54" ry="54"/>
  <rect class="st0" x="2794.5" y="1296" width="63" height="1216.4" transform="translate(5651.9 3808.4) rotate(180)"/>
  <g>
    <path class="st0" d="M3316,2096.2v243.8h-56.8v-360h56.8l131.4,229.9v-229.9h56.9v360h-50.5s-137.7-243.8-137.7-243.8Z"/>
    <path class="st0" d="M3590.6,1980h56.8v306.9h166.5v53.1h-223.3v-360Z"/>
    <path class="st0" d="M4019.6,2340h-57.1s0-156.6,0-156.6l-126.9-203.4h68.6s86.3,139,86.3,139l87.6-139h67.3s-125.7,203.4-125.7,203.4v156.6Z"/>
    <path class="st0" d="M3180,2160c0,12.9,2.7,186.3-127.9,186.3-130.6,0-127.9-173.4-127.9-186.3,0-12.9-2.7-186.3,127.9-186.3,130.6,0,127.9,173.3,127.9,186.3ZM3052.7,2288.3c38.8,0,70.3-36.8,70.3-128.2s-31.5-128.2-70.3-128.2c-38.8,0-70.3,36.7-70.3,128.2,0,91.5,31.5,128.2,70.3,128.2Z"/>
  </g>
  <g>
    <path class="st0" d="M566.5,2096.2v243.8h-56.8s0-360,0-360h56.8s131.4,229.9,131.4,229.9v-229.9h56.9s0,360,0,360h-50.5s-137.7-243.8-137.7-243.8Z"/>
    <path class="st0" d="M841.2,1980h56.8v306.9h166.5v53.1h-223.3v-360Z"/>
    <path class="st0" d="M1270.1,2340h-57.1v-156.6l-126.9-203.4h68.6s86.3,139,86.3,139l87.6-139h67.3l-125.7,203.4v156.6Z"/>
    <path class="st0" d="M430.5,2160c0,12.9,2.7,186.3-127.9,186.3-130.6,0-127.9-173.4-127.9-186.3,0-12.9-2.7-186.3,127.9-186.3,130.6,0,127.9,173.3,127.9,186.3ZM303.2,2288.3c38.8,0,70.3-36.8,70.3-128.2s-31.5-128.2-70.3-128.2c-38.8,0-70.3,36.7-70.3,128.2s31.5,128.2,70.3,128.2Z"/>
  </g>
  <rect class="st0" x="1462.5" y="1512" width="63" height="1035"/>
  <path class="st0" d="M1860.7,854.7l114.7,78.1c156.9,106.8,289.5,245.5,389.4,406.9h0s0-632.9,0-632.9l-125.6,36.6c-17.9,5.2-36.6-5.1-41.8-22.9-2.8-9.7-1.2-20.2,4.5-28.5l264.1-385.9,264.1,385.9c10.5,15.4,6.6,36.4-8.8,46.9-8.3,5.7-18.8,7.4-28.5,4.5l-125.5-36.6v1579.2h-202.5v-234c0-381-188.5-737.3-503.4-951.8l-114.7-78.1-40.4,124.4c-5.8,17.7-24.8,27.4-42.5,21.7-9.6-3.1-17.3-10.4-21-19.8l-170.3-435.5,467.7-1.1c18.6,0,33.8,15,33.8,33.7,0,10.1-4.5,19.7-12.3,26.1l-100.9,83.2Z"/>
  <g>
    <path class="st0" d="M3386.3,1854h-202.5v-249.8c0-64.9,10.5-128.9,31.1-190.2,20.1-59.8,49.6-115.9,87.4-166.6,37.8-50.7,83.2-94.8,134.9-131.1,52.9-37.2,111.3-65.4,173.5-83.8l54.7-16.2,57.5,194.2-54.7,16.2c-41.1,12.2-79.7,30.8-114.6,55.3-34.1,24-64.1,53.1-89.1,86.6-25,33.5-44.4,70.5-57.7,110-13.6,40.4-20.5,82.7-20.5,125.6v249.8Z"/>
    <path class="st0" d="M3566.2,914.8c-1.8-2.8-3.1-5.7-4-8.7-5.3-17.9,4.9-36.7,22.8-41.9,6.3-1.9,13.2-1.9,20,.2l445,143.6-295,362.8c-4.5,5.5-10.3,9.2-16.6,11.1-17.9,5.3-36.7-4.9-42-22.8-.9-3-1.4-6.2-1.4-9.4l-1-236.2-127.8-198.7Z"/>
  </g>
  <g>
    <path class="st0" d="M933.7,1854h202.5s0-249.8,0-249.8c0-64.9-10.5-128.9-31.1-190.2-20.1-59.8-49.6-115.9-87.4-166.6-37.8-50.7-83.2-94.8-134.9-131.1-52.9-37.2-111.3-65.4-173.5-83.8l-54.7-16.2-57.5,194.2,54.7,16.2c41.1,12.2,79.7,30.8,114.6,55.3,34.1,24,64.1,53.1,89.1,86.6,25,33.5,44.4,70.5,57.7,110,13.6,40.4,20.5,82.7,20.5,125.6v249.8Z"/>
    <path class="st0" d="M753.8,914.8c1.8-2.8,3.1-5.7,4-8.7,5.3-17.9-4.9-36.7-22.8-41.9-6.3-1.9-13.2-1.9-20,.2l-445,143.6,295,362.8c4.5,5.5,10.3,9.2,16.6,11.1,17.9,5.3,36.7-4.9,42-22.8.9-3,1.4-6.2,1.4-9.4l1-236.2,127.8-198.7Z"/>
  </g>
</svg>