<?xml version="1.0" encoding="UTF-8"?>
<svg id="For_Sheets" xmlns="http://www.w3.org/2000/svg" version="1.1" viewBox="0 0 1728 1296">
  <!-- Generator: Adobe Illustrator 29.1.0, SVG Export Plug-In . SVG Version: 2.1.0 Build 142)  -->
  <defs>
    <style>
      .st0 {
        fill: #231f20;
      }

      .st1 {
        fill: #fff;
      }
    </style>
  </defs>
  <g>
    <rect class="st1" x="-.1" y="-.1" width="1728.2" height="1296.2" rx="108.1" ry="108.1"/>
    <path class="st0" d="M1620,0c59.6,0,108,48.4,108,108v1080c0,59.6-48.4,108-108,108H108c-59.6,0-108-48.4-108-108V108C0,48.4,48.4,0,108,0h1512M1620-.2H108C79.1-.2,51.9,11,31.5,31.5,11,51.9-.2,79.1-.2,108v1080c0,28.9,11.3,56.1,31.7,76.5,20.4,20.4,47.6,31.7,76.5,31.7h1512c28.9,0,56.1-11.3,76.5-31.7,20.4-20.4,31.7-47.6,31.7-76.5V108c0-28.9-11.3-56.1-31.7-76.5-20.4-20.4-47.6-31.7-76.5-31.7h0Z"/>
  </g>
  <rect class="st0" x="27" y="27" width="1674" height="1242" rx="81" ry="81"/>
  <rect class="st1" x="72" y="72" width="1584" height="1152" rx="36" ry="36"/>
  <g>
    <path class="st0" d="M601.4,414.7h-53.6v125.3h-45.4V252h108.9c67.7,0,87.2,55.1,87.2,80.9s-9.8,81.8-97,81.8ZM547.7,368.2h64.1c36.1,0,40-26.1,40-35.4,0-13.5-10.2-35.4-38.4-35.4h-65.7v70.7Z"/>
    <path class="st0" d="M883.3,459.1h-90.4l-28.5,80.9h-48.8l99.6-288h45.8l99.6,288h-48.8l-28.5-80.9ZM809.2,412.7h57.9l-28.5-80.8-29.4,80.8Z"/>
    <path class="st0" d="M1125.1,540h-45.7v-125.3l-101.6-162.7h54.9l69,111.2,70.1-111.2h53.8l-100.5,162.7v125.3Z"/>
  </g>
  <g>
    <path class="st0" d="M533.4,1044h-45.7v-247.6h-65.9v-40.4h178.6v40.4h-67v247.6Z"/>
    <path class="st0" d="M905.8,756h45.4v245.6h133.2v42.4h-178.6v-288Z"/>
    <path class="st0" d="M1127.6,756h45.4v245.6h133.2v42.4h-178.6v-288Z"/>
    <path class="st0" d="M842.4,900c0,10.3,2.2,149-102.3,149s-102.3-138.7-102.3-149-2.2-149,102.3-149,102.3,138.7,102.3,149ZM740.6,1002.6c31,0,56.2-29.4,56.2-102.6s-25.2-102.6-56.2-102.6-56.2,29.4-56.2,102.6,25.2,102.6,56.2,102.6Z"/>
  </g>
</svg>