<?xml version="1.0" encoding="UTF-8"?>
<svg id="For_Sheets" xmlns="http://www.w3.org/2000/svg" version="1.1" viewBox="0 0 2592 2592">
  <!-- Generator: Adobe Illustrator 29.1.0, SVG Export Plug-In . SVG Version: 2.1.0 Build 142)  -->
  <defs>
    <style>
      .st0 {
        fill: #231f20;
      }

      .st1 {
        fill: #fff;
      }

      .st2 {
        fill: #bf311a;
      }
    </style>
  </defs>
  <g>
    <g>
      <path class="st1" d="M162,2592.1c-89.4,0-162.1-72.7-162.1-162.1V162C-.1,72.6,72.6-.1,162-.1h2268c89.4,0,162.1,72.7,162.1,162.1v2268c0,89.4-72.7,162.1-162.1,162.1H162Z"/>
      <path class="st0" d="M2430,0c89.5,0,162,72.5,162,162v2268c0,89.5-72.5,162-162,162H162C72.5,2592,0,2519.5,0,2430V162C0,72.5,72.5,0,162,0h2268M2430-.2H162C118.7-.2,77.9,16.6,47.3,47.3,16.6,77.9-.3,118.7-.3,162v2268c0,43.3,16.9,84.1,47.5,114.7,30.6,30.6,71.4,47.5,114.7,47.5h2268c43.3,0,84.1-16.9,114.7-47.5,30.6-30.6,47.5-71.4,47.5-114.7V162c0-43.3-16.9-84.1-47.5-114.7-30.6-30.6-71.4-47.5-114.7-47.5h0Z"/>
    </g>
    <path class="st0" d="M162,2547c-64.5,0-117-52.5-117-117V162c0-64.5,52.5-117,117-117h2268c64.5,0,117,52.5,117,117v2268c0,64.5-52.5,117-117,117H162Z"/>
    <path class="st1" d="M162,2484c-29.8,0-54-24.2-54-54V162c0-29.8,24.2-54,54-54h2268c29.8,0,54,24.2,54,54v2268c0,29.8-24.2,54-54,54H162Z"/>
  </g>
  <g>
    <rect class="st0" x="1159.3" y="889.1" width="273.4" height="1279.9"/>
    <path class="st0" d="M989.9,995.5c-4.3,1.2-8.5,1.8-12.8,1.8-25.2,0-45.6-20.4-45.6-45.6,0-8.9,2.6-17.9,8-25.7l356.5-521,356.5,521c5.4,7.9,8,16.9,8,25.7,0,25.2-20.4,45.6-45.6,45.6-4.2,0-8.5-.6-12.8-1.8l-306.2-89.3-306.2,89.3Z"/>
  </g>
  <path class="st2" d="M1296,162c-626.3,0-1134,507.7-1134,1134s507.7,1134,1134,1134,1134-507.7,1134-1134S1922.3,162,1296,162ZM378,1296c0-214.6,73.6-412,197-568.3l1289.3,1289.3c-156.3,123.4-353.7,197-568.3,197-507,0-918-411-918-918ZM2017,1864.3L727.7,575c156.3-123.4,353.7-197,568.3-197,507,0,918,411,918,918s-73.6,412-197,568.3Z"/>
</svg>