<?xml version="1.0" encoding="UTF-8"?>
<svg id="For_Sheets" xmlns="http://www.w3.org/2000/svg" version="1.1" viewBox="0 0 2592 2592">
  <!-- Generator: Adobe Illustrator 29.1.0, SVG Export Plug-In . SVG Version: 2.1.0 Build 142)  -->
  <defs>
    <style>
      .st0, .st1 {
        fill: #231f20;
      }

      .st2 {
        fill: #bf311a;
      }

      .st2, .st1 {
        fill-rule: evenodd;
      }

      .st3 {
        fill: #fff;
      }
    </style>
  </defs>
  <g>
    <path class="st3" d="M162,2592.1c-43.1,0-83.8-16.9-114.5-47.6S-.1,2473.1-.1,2430V162C-.1,118.9,16.8,78.2,47.5,47.5S118.9-.1,162-.1h2268c43.1,0,83.8,16.9,114.5,47.6s47.6,71.4,47.6,114.5v2268c0,43.1-16.9,83.8-47.6,114.5s-71.4,47.6-114.5,47.6H162Z"/>
    <path class="st0" d="M2430,0c89.1,0,162,72.9,162,162v2268c0,89.1-72.9,162-162,162H162c-89.1,0-162-72.9-162-162V162C0,72.9,72.9,0,162,0h2268M2430-.2H162c-21.8,0-43,4.3-63,12.8-19.3,8.2-36.7,19.9-51.6,34.9-14.9,14.9-26.7,32.3-34.9,51.6C4.1,119-.2,140.2-.2,162v2268c0,21.8,4.3,43,12.8,63,8.2,19.3,19.9,36.7,34.9,51.6,14.9,14.9,32.3,26.7,51.6,34.9,20,8.5,41.2,12.8,63,12.8h2268c21.8,0,43-4.3,63-12.8,19.3-8.2,36.7-19.9,51.6-34.9s26.7-32.3,34.9-51.6c8.5-20,12.8-41.2,12.8-63V162c0-21.8-4.3-43-12.8-63-8.2-19.3-19.9-36.7-34.9-51.6s-32.3-26.7-51.6-34.9c-20-8.5-41.2-12.8-63-12.8h0Z"/>
  </g>
  <path class="st0" d="M162,2547c-31.1,0-60.4-12.2-82.6-34.4s-34.4-51.5-34.4-82.6V162c0-31.1,12.2-60.4,34.4-82.6s51.5-34.4,82.6-34.4h2268c31.1,0,60.4,12.2,82.6,34.4s34.4,51.5,34.4,82.6v2268c0,31.1-12.2,60.4-34.4,82.6-22.2,22.2-51.5,34.4-82.6,34.4H162Z"/>
  <path class="st3" d="M162,2484c-14.5,0-27.6-5.5-38-16-10.4-10.4-16-23.6-16-38V162c0-14.5,5.5-27.6,16-38s23.6-16,38-16h2268c14.5,0,27.6,5.5,38,16,10.4,10.4,16,23.6,16,38v2268c0,14.5-5.5,27.6-16,38-10.4,10.4-23.6,16-38,16H162Z"/>
  <path class="st1" d="M1821.6,1500.1h1.1s175.8,0,175.8,0v-652.4s-974.5,0-974.5,0v113.6h-156.7c-63.7,0-103.5,0-129.9,88l-44,171.9h-101.6q-49.9,0-49.9,48.2c0,76.9,0,153.8,0,230.7h-53.4s0,53.4,0,53.4h191.2c9.7,72.6,56.1,122.2,129.3,122.2,72.6,0,121.9-50.8,138.2-122.2h76.7s0-53.4,0-53.4h509.5c-1.1,6.9-1.7,21.8-1.7,29.3,0,80.6,65.7,146.3,146.3,146.3,80.6,0,146.3-65.7,146.3-146.3,0-9.1-1.1-20.7-2.9-29.3Z"/>
  <path class="st2" d="M1296,162c-626.3,0-1134,507.7-1134,1134s507.7,1134,1134,1134,1134-507.7,1134-1134S1922.3,162,1296,162ZM2214,1296c0,214.6-73.6,412-197,568.3L727.7,575c156.3-123.4,353.7-197,568.3-197,507,0,918,411,918,918ZM378,1296c0-214.6,73.6-412,197-568.3l1289.3,1289.3c-156.3,123.4-353.7,197-568.3,197-507,0-918-411-918-918Z"/>
</svg>