<?xml version="1.0" encoding="UTF-8"?>
<svg id="For_Sheets" xmlns="http://www.w3.org/2000/svg" version="1.1" viewBox="0 0 864 1296">
  <!-- Generator: Adobe Illustrator 29.1.0, SVG Export Plug-In . SVG Version: 2.1.0 Build 142)  -->
  <defs>
    <style>
      .st0 {
        fill: #231f20;
      }

      .st1 {
        fill: #fff;
      }

      .st2 {
        fill: #bf311a;
      }
    </style>
  </defs>
  <g>
    <rect class="st1" x="-.1" y="-.1" width="864.2" height="1296.2" rx="108.1" ry="108.1"/>
    <path class="st0" d="M756,0c59.4,0,108,48.6,108,108v1080c0,59.4-48.6,108-108,108H108c-59.4,0-108-48.6-108-108V108C0,48.6,48.6,0,108,0h648M756-.2H108C79.2-.2,52.1,11,31.5,31.5,11,52.1-.2,79.2-.2,108v1080c0,28.8,11.3,55.9,31.8,76.5,20.5,20.5,47.7,31.8,76.5,31.8h648c28.8,0,55.9-11.3,76.5-31.8,20.5-20.5,31.8-47.7,31.8-76.5V108c0-28.8-11.3-55.9-31.8-76.5C811.9,11,784.8-.2,756-.2h0Z"/>
  </g>
  <rect class="st2" x="27" y="27" width="810" height="1242" rx="81" ry="81"/>
  <path class="st1" d="M810,108v306H270V54h486c29.8,0,54,24.2,54,54Z"/>
  <path class="st1" d="M756,1242H108c-29.8,0-54-24.2-54-54V441h756v747c0,29.8-24.2,54-54,54Z"/>
  <g>
    <path class="st2" d="M180.3,756v-216h68.1c28.7,0,49.2,22.7,49.2,56.1s-5.3,28.8-22.7,47c16.6,13.6,26.5,31.8,26.5,53.8,0,32.3-25.7,59.1-57.5,59.1h-63.5ZM211.3,570.3v57.6h32.5c14.4,0,23.5-12.1,23.5-31.8s-6.7-25.8-23.4-25.8h-32.5ZM211.3,725.7h31c17.4,0,28.8-12.1,28.8-31.1s-12.5-36.4-28.7-36.4h-31v67.4Z"/>
    <path class="st2" d="M338,540h30.2v216h-30.2v-216Z"/>
    <path class="st2" d="M466.5,650.6l-19.7,36.3v69h-31v-216h31v86.4l49.2-86.4h35.6l-44.7,75.8,49.9,140.2h-32.5l-37.8-105.4Z"/>
    <path class="st2" d="M573.5,540h101.8v30.3h-70.7v54.6h44.8v29.6h-44.8v71.3h79.1v30.3h-110.2v-216Z"/>
  </g>
  <g>
    <path class="st2" d="M146.8,864h31.2v187.2h79.1v28.8h-110.2v-216Z"/>
    <path class="st2" d="M361.9,1020.9h-46.3l-14.4,59.1h-31.2l53.9-216h30.4l53.9,216h-31.2l-15.2-59.1ZM323.1,990.6h31.2l-16-62.2-15.2,62.2Z"/>
    <path class="st2" d="M469.5,935.3v144.7h-31v-216h31l59,129.6v-129.6h31v216h-23.4l-66.6-144.7Z"/>
    <path class="st2" d="M607,864h101.8v30.3h-70.7v54.6h44.8v29.6h-44.8v71.3h79.1v30.3h-110.2v-216Z"/>
  </g>
  <g>
    <path class="st2" d="M310.8,180.7v44h9.9c11.1,0,15.2-5.8,15.2-20.7s-5.1-23.2-15.2-23.2h-9.9ZM320.7,243.3h-9.9v62.7h-18.2v-144h29.2c30.7,0,32.8,34.2,32.8,41.9,0,23.7-13.7,39.4-33.9,39.4Z"/>
    <path class="st2" d="M391,248.9h15.7l-7.6-37.9-8.1,37.9ZM410.7,267.6h-23.7l-8.1,38.4h-18.7l29.3-144h18.7l29.8,144h-19.2l-8.1-38.4Z"/>
    <path class="st2" d="M494.3,201.9c0-16.3-3.6-21.2-16.2-21.2h-8.9v39.4h11.9c10.1,0,13.1-4.5,13.1-18.2ZM497.9,234.3l14.7,71.7h-19.7l-13.7-67.2h-9.8v67.2h-18.2v-144h28.1c22.3,0,33.9,13.6,33.9,40.4s-4.1,25.7-15.2,31.9Z"/>
    <polygon class="st2" points="552.5 237.8 546.2 251.9 546.2 306 528 306 528 162 546.2 162 546.2 208 568.2 162 589.4 162 565.7 211.5 591.4 306 571.7 306 552.5 237.8"/>
    <rect class="st2" x="606.4" y="162" width="18.7" height="144"/>
    <polygon class="st2" points="663.9 220.6 663.9 306 645.7 306 645.7 162 663.9 162 689.5 233.7 689.5 162 707.6 162 707.6 306 692 306 663.9 220.6"/>
    <path class="st2" d="M758.9,160c16.3,0,26.9,10.1,28.4,27.8h-18.8c-.5-6.1-4.1-9.1-9.1-9.1-9,0-15.2,7.7-15.2,55.5s6.2,55.6,15.2,55.6,9.6-8.9,9.6-17.7v-17.2h-8.6v-18.7h26.9v35.9c0,9.4,1.4,36.4-28.4,36.4s-33.6-19.9-33.6-74.3,13.8-74.2,33.5-74.2Z"/>
  </g>
  <g>
    <path class="st1" d="M79,206.6v117.4h-25V126h25l35.3,98.7v-98.7h24.9v198h-21.5l-38.7-117.4Z"/>
    <path class="st1" d="M203.6,327.5c-44.4,0-45.6-55.9-45.6-102.1s1.1-102.1,45.6-102.1,45.6,55.9,45.6,102.1-1.1,102.1-45.6,102.1ZM184.1,225.3c0,34.6.5,76.4,19.5,76.4s19.5-41.8,19.5-76.4-.5-76.4-19.5-76.4-19.5,41.8-19.5,76.4Z"/>
  </g>
</svg>