<?xml version="1.0" encoding="UTF-8"?>
<svg id="For_Sheets" xmlns="http://www.w3.org/2000/svg" version="1.1" viewBox="0 0 864 1296">
  <!-- Generator: Adobe Illustrator 29.1.0, SVG Export Plug-In . SVG Version: 2.1.0 Build 142)  -->
  <defs>
    <style>
      .st0 {
        fill: #231f20;
      }

      .st1 {
        fill: #006f53;
      }

      .st2 {
        fill: #fff;
      }
    </style>
  </defs>
  <g>
    <rect class="st2" x="-.1" y="-.1" width="864.2" height="1296.2" rx="108.1" ry="108.1"/>
    <path class="st0" d="M756,0c59.4,0,108,48.6,108,108v1080c0,59.4-48.6,108-108,108H108c-59.4,0-108-48.6-108-108V108C0,48.6,48.6,0,108,0h648M756-.2H108C79.2-.2,52.1,11,31.5,31.5,11,52.1-.2,79.2-.2,108v1080c0,28.8,11.3,55.9,31.8,76.5,20.5,20.5,47.7,31.8,76.5,31.8h648c28.8,0,55.9-11.3,76.5-31.8,20.5-20.5,31.8-47.7,31.8-76.5V108c0-28.8-11.3-55.9-31.8-76.5C811.9,11,784.8-.2,756-.2h0Z"/>
  </g>
  <rect class="st1" x="-189" y="243" width="1242" height="810" rx="81" ry="81" transform="translate(1080 216) rotate(90)"/>
  <rect class="st2" x="-162" y="270" width="1188" height="756" rx="54" ry="54" transform="translate(1080 216) rotate(90)"/>
  <g>
    <path class="st1" d="M282.2,215.7c0-75.4,35-74.2,42.7-74.2s42.3-1.2,42.3,74.2-34.5,74.8-42.3,74.8-42.7,1.2-42.7-74.8ZM324.7,161.7c-4.1,0-22.7-.8-22.7,54.1s18.6,54.5,22.7,54.5,22.6.8,22.6-54.5-18.5-54.1-22.6-54.1Z"/>
    <path class="st1" d="M416.6,191.5v96.5h-20.7v-144h20.7l39.3,86.4v-86.4h20.7v144h-15.6l-44.4-96.5Z"/>
    <path class="st1" d="M508.3,144h67.9v20.2h-47.1v36.4h29.9v19.7h-29.9v47.5h52.7v20.2h-73.5v-144Z"/>
  </g>
  <g>
    <path class="st1" d="M283.8,510.8h-39.3v65.2h-20.7v-144h20.7v58.6h39.3v-58.6h20.7v144h-20.7v-65.2Z"/>
    <path class="st1" d="M333.3,503.7c0-75.4,35-74.2,42.7-74.2s42.3-1.2,42.3,74.2-34.5,74.8-42.3,74.8-42.7,1.2-42.7-74.8ZM375.8,449.7c-4.1,0-22.7-.8-22.7,54.1s18.6,54.5,22.7,54.5,22.6.8,22.6-54.5-18.5-54.1-22.6-54.1Z"/>
    <path class="st1" d="M447.1,534.2v-102.1h20.7v103.6c0,13.6,7.9,22.8,20.2,22.8s19.2-9.1,19.2-22.8v-103.6h20.7v102.5c0,32.8-25.3,44.1-39.9,44.1s-40.8-8.7-40.8-44.4Z"/>
    <path class="st1" d="M599.8,508.3h-19.7v67.7h-20.7v-144h42.9c22.6,0,37.8,15.2,37.8,38.4s-7.1,29.8-20.7,34.9l20.7,70.7h-21.1l-19.2-67.7ZM580.1,452.2v36.4h21.2c12.1,0,18.7-6.6,18.7-18.2s-7.6-18.2-18.6-18.2h-21.2Z"/>
  </g>
  <g>
    <path class="st1" d="M121.3,800.8v63.2h-20.7v-144h42.9c22.7,0,37.8,16.2,37.8,40.4s-13.6,40.4-37.8,40.4h-22.2ZM121.3,781.1h21.2c12.1,0,18.7-7.6,18.7-20.7s-7.6-20.2-18.6-20.2h-21.2v40.9Z"/>
    <path class="st1" d="M259.9,824.6h-30.9l-9.6,39.4h-20.8l36-144h20.3l35.9,144h-20.8l-10.1-39.4ZM234.1,804.4h20.8l-10.6-41.4-10.1,41.4Z"/>
    <path class="st1" d="M351.3,796.3h-19.7v67.7h-20.7v-144h42.9c22.6,0,37.8,15.2,37.8,38.4s-7.1,29.8-20.7,34.9l20.7,70.7h-21.1l-19.2-67.7ZM331.7,740.2v36.4h21.2c12.1,0,18.7-6.6,18.7-18.2s-7.6-18.2-18.6-18.2h-21.2Z"/>
    <path class="st1" d="M449.9,793.8l-13.1,24.2v46h-20.7v-144h20.7v57.6l32.8-57.6h23.7l-29.8,50.5,33.3,93.5h-21.7l-25.2-70.2Z"/>
    <path class="st1" d="M521.3,720h20.2v144h-20.2v-144Z"/>
    <path class="st1" d="M593.8,767.5v96.5h-20.7v-144h20.7l39.3,86.4v-86.4h20.7v144h-15.6l-44.4-96.5Z"/>
    <path class="st1" d="M727.3,866.5c-13.1,0-44.7-2.4-44.7-74.3s30-74.8,43.1-74.8c20.8,0,36.5,15.1,37.5,36.4h-20.8c-.5-9.6-7.1-16.2-17.2-16.2s-22.8,2.2-22.8,54.6,17.4,54.1,24.3,54.1c10.7,0,15.7-7,15.7-22.2v-9.6h-16.2v-20.2h37v29.8c0,36-23.7,42.4-36,42.4Z"/>
  </g>
  <g>
    <rect class="st1" x="248.6" y="1053" width="366.8" height="54"/>
    <path class="st1" d="M594.4,1019.5c-.2-.8-.4-1.7-.4-2.5,0-5,4-9,9-9,1.8,0,3.5.5,5.1,1.6l102.9,70.4-102.9,70.4c-1.6,1.1-3.3,1.6-5.1,1.6-5,0-9-4-9-9,0-.8.1-1.7.4-2.5l17.6-60.5-17.6-60.5Z"/>
    <path class="st1" d="M269.6,1019.5c.2-.8.4-1.7.4-2.5,0-5-4-9-9-9-1.8,0-3.5.5-5.1,1.6l-102.9,70.4,102.9,70.4c1.6,1.1,3.3,1.6,5.1,1.6,5,0,9-4,9-9,0-.8-.1-1.7-.4-2.5l-17.6-60.5,17.6-60.5Z"/>
  </g>
</svg>