<?xml version="1.0" encoding="UTF-8"?>
<svg id="For_Sheets" xmlns="http://www.w3.org/2000/svg" version="1.1" viewBox="0 0 864 1296">
  <!-- Generator: Adobe Illustrator 29.1.0, SVG Export Plug-In . SVG Version: 2.1.0 Build 142)  -->
  <defs>
    <style>
      .st0 {
        fill: #231f20;
      }

      .st1 {
        fill: #fff;
      }

      .st2 {
        fill: #bf311a;
      }
    </style>
  </defs>
  <g>
    <rect class="st1" x="-.1" y="-.1" width="864.2" height="1296.2" rx="108.1" ry="108.1"/>
    <path class="st0" d="M756,0c59.4,0,108,48.6,108,108v1080c0,59.4-48.6,108-108,108H108c-59.4,0-108-48.6-108-108V108C0,48.6,48.6,0,108,0h648M756-.2H108C79.2-.2,52.1,11,31.5,31.5,11,52.1-.2,79.2-.2,108v1080c0,28.8,11.3,55.9,31.8,76.5,20.5,20.5,47.7,31.8,76.5,31.8h648c28.8,0,55.9-11.3,76.5-31.8,20.5-20.5,31.8-47.7,31.8-76.5V108c0-28.8-11.3-55.9-31.8-76.5C811.9,11,784.8-.2,756-.2h0Z"/>
  </g>
  <rect class="st2" x="-189" y="243" width="1242" height="810" rx="81" ry="81" transform="translate(1080 216) rotate(90)"/>
  <rect class="st1" x="-162" y="270" width="1188" height="756" rx="54" ry="54" transform="translate(1080 216) rotate(90)"/>
  <g>
    <path class="st2" d="M317.1,206.3v144.7h-31v-216h31l59,129.6v-129.6h31v216h-23.4l-66.6-144.7Z"/>
    <path class="st2" d="M450.4,242.5c0-113.1,52.5-111.3,64.1-111.3s63.4-1.7,63.4,111.4-51.8,112.1-63.4,112.1-64.1,1.8-64.1-112.2ZM514.1,161.5c-6.2,0-34-1.3-34,81.2s27.8,81.8,34,81.8,34,1.3,34-81.8-27.8-81.2-34-81.2Z"/>
  </g>
  <g>
    <path class="st2" d="M113.3,442.1v65.9h14.8c16.7,0,22.8-8.6,22.8-31.1s-7.6-34.9-22.8-34.9h-14.8ZM128.1,536h-14.8v94h-27.3v-216h43.8c46.1,0,49.1,51.3,49.1,62.9,0,35.6-20.5,59.1-50.8,59.1Z"/>
    <path class="st2" d="M230.3,544.4h23.5l-11.4-56.9-12.1,56.9ZM259.9,572.4h-35.6l-12.1,57.6h-28l44-216h28l44.7,216h-28.8l-12.1-57.6Z"/>
    <path class="st2" d="M377.8,473.9c0-24.5-5.3-31.8-24.3-31.8h-13.3v59.1h17.8c15.1,0,19.7-6.8,19.7-27.3ZM383.1,522.5l22,107.5h-29.6l-20.6-100.8h-14.7v100.8h-27.3v-216h42.1c33.5,0,50.8,20.5,50.8,60.6s-6.1,38.6-22.7,47.8Z"/>
    <polygon class="st2" points="456.4 527.7 447 548.9 447 630 419.7 630 419.7 414 447 414 447 483 479.9 414 511.8 414 476.2 488.3 514.8 630 485.2 630 456.4 527.7"/>
    <rect class="st2" x="528.6" y="414" width="28.1" height="216"/>
    <polygon class="st2" points="602.9 501.9 602.9 630 575.7 630 575.7 414 602.9 414 641.5 521.6 641.5 414 668.6 414 668.6 630 645.2 630 602.9 501.9"/>
    <path class="st2" d="M735.3,411c24.4,0,40.4,15.2,42.7,41.7h-28.2c-.8-9.1-6.1-13.6-13.7-13.6-13.6,0-22.8,11.6-22.8,83.3s9.3,83.4,22.8,83.4,14.5-13.3,14.5-26.5v-25.8h-12.9v-28.1h40.4v53.8c0,14.1,2,54.6-42.6,54.6s-50.3-29.9-50.3-111.4,20.7-111.4,50.3-111.4Z"/>
  </g>
  <g>
    <path class="st2" d="M103.6,702h20.8v124.8h52.7v19.2h-73.5v-144Z"/>
    <path class="st2" d="M194.3,773.7c0-75.4,35-74.2,42.7-74.2s42.3-1.2,42.3,74.2-34.5,74.8-42.3,74.8-42.7,1.2-42.7-74.8ZM236.8,719.7c-4.1,0-22.7-.8-22.7,54.1s18.6,54.5,22.7,54.5,22.6.8,22.6-54.5-18.5-54.1-22.6-54.1Z"/>
    <path class="st2" d="M357.9,806.6h-30.9l-9.6,39.4h-20.8l36-144h20.3l35.9,144h-20.8l-10.1-39.4ZM332.1,786.4h20.8l-10.6-41.4-10.1,41.4Z"/>
    <path class="st2" d="M409,846v-144h41.1c8.8,0,39.6.4,39.6,71.7s-28.4,72.3-37.9,72.3h-42.8ZM445.8,722.2h-16.1v103.6h14.4c16.8,0,25.5-7.4,25.5-51s-12.6-52.5-23.7-52.5Z"/>
    <path class="st2" d="M518.4,702h20.2v144h-20.2v-144Z"/>
    <path class="st2" d="M590.9,749.5v96.5h-20.7v-144h20.7l39.3,86.4v-86.4h20.7v144h-15.6l-44.4-96.5Z"/>
    <path class="st2" d="M724.4,848.5c-13.1,0-44.7-2.4-44.7-74.3s30-74.8,43.1-74.8c20.8,0,36.5,15.1,37.5,36.4h-20.8c-.5-9.6-7.1-16.2-17.2-16.2s-22.8,2.2-22.8,54.6,17.4,54.1,24.3,54.1c10.7,0,15.7-7,15.7-22.2v-9.6h-16.2v-20.2h37v29.8c0,36-23.7,42.4-36,42.4Z"/>
  </g>
  <g>
    <path class="st2" d="M231,1003.8l54.5-101.7h-48.8v-20.1h75v13.1l-59.1,111.3h59.1v19.6h-80.7v-22.2Z"/>
    <path class="st2" d="M333.3,953.7c0-75.4,35-74.2,42.7-74.2s42.3-1.2,42.3,74.2-34.5,74.8-42.3,74.8-42.7,1.2-42.7-74.8ZM375.8,899.7c-4.1,0-22.7-.8-22.7,54.1s18.6,54.5,22.7,54.5,22.6.8,22.6-54.5-18.5-54.1-22.6-54.1Z"/>
    <path class="st2" d="M467.8,929.5v96.5h-20.7v-144h20.7l39.3,86.4v-86.4h20.7v144h-15.6l-44.4-96.5Z"/>
    <path class="st2" d="M559.5,882h67.9v20.2h-47.1v36.4h29.9v19.7h-29.9v47.5h52.7v20.2h-73.5v-144Z"/>
  </g>
  <g>
    <rect class="st2" x="248.6" y="1107" width="366.8" height="54"/>
    <path class="st2" d="M594.4,1073.5c-.2-.8-.4-1.7-.4-2.5,0-5,4-9,9-9,1.8,0,3.5.5,5.1,1.6l102.9,70.4-102.9,70.4c-1.6,1.1-3.3,1.6-5.1,1.6-5,0-9-4-9-9,0-.8.1-1.7.4-2.5l17.6-60.5-17.6-60.5Z"/>
    <path class="st2" d="M269.6,1073.5c.2-.8.4-1.7.4-2.5,0-5-4-9-9-9-1.8,0-3.5.5-5.1,1.6l-102.9,70.4,102.9,70.4c1.6,1.1,3.3,1.6,5.1,1.6,5,0,9-4,9-9,0-.8-.1-1.7-.4-2.5l-17.6-60.5,17.6-60.5Z"/>
  </g>
</svg>