<?xml version="1.0" encoding="UTF-8"?>
<svg id="For_Sheets" xmlns="http://www.w3.org/2000/svg" version="1.1" viewBox="0 0 864 1296">
  <!-- Generator: Adobe Illustrator 29.1.0, SVG Export Plug-In . SVG Version: 2.1.0 Build 142)  -->
  <defs>
    <style>
      .st0 {
        fill: #231f20;
      }

      .st1 {
        fill: #fff;
      }

      .st2 {
        fill: #bf311a;
      }
    </style>
  </defs>
  <g>
    <rect class="st1" x="-.1" y="-.1" width="864.2" height="1296.2" rx="108.1" ry="108.1"/>
    <path class="st0" d="M756,0c59.4,0,108,48.6,108,108v1080c0,59.4-48.6,108-108,108H108c-59.4,0-108-48.6-108-108V108C0,48.6,48.6,0,108,0h648M756-.2H108C79.2-.2,52.1,11,31.5,31.5,11,52.1-.2,79.2-.2,108v1080c0,28.8,11.3,55.9,31.8,76.5,20.5,20.5,47.7,31.8,76.5,31.8h648c28.8,0,55.9-11.3,76.5-31.8,20.5-20.5,31.8-47.7,31.8-76.5V108c0-28.8-11.3-55.9-31.8-76.5C811.9,11,784.8-.2,756-.2h0Z"/>
  </g>
  <rect class="st2" x="-189" y="243" width="1242" height="810" rx="81" ry="81" transform="translate(1080 216) rotate(90)"/>
  <rect class="st1" x="-162" y="270" width="1188" height="756" rx="54" ry="54" transform="translate(1080 216) rotate(90)"/>
  <g>
    <rect class="st2" x="248.6" y="1089" width="366.8" height="54"/>
    <path class="st2" d="M594.4,1055.5c-.2-.8-.4-1.7-.4-2.5,0-5,4-9,9-9,1.8,0,3.5.5,5.1,1.6l102.9,70.4-102.9,70.4c-1.6,1.1-3.3,1.6-5.1,1.6-5,0-9-4-9-9,0-.8.1-1.7.4-2.5l17.6-60.5-17.6-60.5Z"/>
    <path class="st2" d="M269.6,1055.5c.2-.8.4-1.7.4-2.5,0-5-4-9-9-9-1.8,0-3.5.5-5.1,1.6l-102.9,70.4,102.9,70.4c1.6,1.1,3.3,1.6,5.1,1.6,5,0,9-4,9-9,0-.8-.1-1.7-.4-2.5l-17.6-60.5,17.6-60.5Z"/>
  </g>
  <g>
    <path class="st2" d="M317.1,215.3v144.7h-31v-216h31l59,129.6v-129.6h31v216h-23.4l-66.6-144.7Z"/>
    <path class="st2" d="M450.4,251.5c0-113.1,52.5-111.3,64.1-111.3s63.4-1.7,63.4,111.4-51.8,112.1-63.4,112.1-64.1,1.8-64.1-112.2ZM514.1,170.5c-6.2,0-34-1.3-34,81.2s27.8,81.8,34,81.8,34,1.3,34-81.8-27.8-81.2-34-81.2Z"/>
  </g>
  <g>
    <path class="st2" d="M340.6,752.6h-30.9l-9.6,39.4h-20.8l36-144h20.3l35.9,144h-20.8l-10.1-39.4ZM314.8,732.4h20.8l-10.6-41.4-10.1,41.4Z"/>
    <path class="st2" d="M412.3,695.5v96.5h-20.7v-144h20.7l39.3,86.4v-86.4h20.7v144h-15.6l-44.4-96.5Z"/>
    <path class="st2" d="M548.7,792h-20.8v-65.2l-35.5-78.8h21.8l24.3,52,23.8-52h22.3l-36,78.8v65.2Z"/>
  </g>
  <g>
    <path class="st2" d="M306.2,1008h-20.8v-124.8h-26.4v-19.2h73.5v19.2h-26.4v124.8Z"/>
    <path class="st2" d="M352.8,864h20.2v144h-20.2v-144Z"/>
    <path class="st2" d="M479,927.2l-26.8,80.8-26.8-80.8v80.8h-20.7v-144h20.7l26.8,80.8,26.8-80.8h20.7v144h-20.7v-80.8Z"/>
    <path class="st2" d="M531.4,864h67.9v20.2h-47.1v36.4h29.9v19.7h-29.9v47.5h52.7v20.2h-73.5v-144Z"/>
  </g>
  <g>
    <path class="st2" d="M121.7,484.5c15.8,9.9,39.4,23.7,39.4,52.1s-17.8,41.9-40.1,41.9-40.6-21.5-40.6-45h20.3c0,12.3,6.1,24.8,20.3,24.8s20.3-10.1,20.3-21.7c0-31.3-53.8-29.5-53.8-69.7s16.2-37.4,37-37.4,36,15.7,36.5,37.4h-19.8c-.5-10.1-7.6-16.7-16.7-16.7s-17.2,7.1-17.2,16.7,5,11.7,14.4,17.6Z"/>
    <path class="st2" d="M217.3,576h-20.8v-124.8h-26.4v-19.2h73.5v19.2h-26.4v124.8Z"/>
    <path class="st2" d="M311,536.6h-30.9l-9.6,39.4h-20.8l36-144h20.3l35.9,144h-20.8l-10.1-39.4ZM285.2,516.4h20.8l-10.6-41.4-10.1,41.4Z"/>
    <path class="st2" d="M376.7,479.5v96.5h-20.7v-144h20.7l39.3,86.4v-86.4h20.7v144h-15.6l-44.4-96.5Z"/>
    <path class="st2" d="M458.9,576v-144h41.1c8.8,0,39.6.4,39.6,71.7s-28.4,72.3-37.9,72.3h-42.8ZM495.7,452.2h-16.1v103.6h14.4c16.8,0,25.5-7.4,25.5-51s-12.6-52.5-23.7-52.5Z"/>
    <path class="st2" d="M559.7,432h20.2v144h-20.2v-144Z"/>
    <path class="st2" d="M622.7,479.5v96.5h-20.7v-144h20.7l39.3,86.4v-86.4h20.7v144h-15.6l-44.4-96.5Z"/>
    <path class="st2" d="M747.6,578.5c-13.1,0-44.7-2.4-44.7-74.3s30-74.8,43.1-74.8c20.8,0,36.5,15.1,37.5,36.4h-20.8c-.5-9.6-7.1-16.2-17.2-16.2s-22.8,2.2-22.8,54.6,17.4,54.1,24.3,54.1c10.7,0,15.7-7,15.7-22.2v-9.6h-16.2v-20.2h37v29.8c0,36-23.7,42.4-36,42.4Z"/>
  </g>
</svg>