<?xml version="1.0" encoding="UTF-8"?>
<svg id="For_Sheets" xmlns="http://www.w3.org/2000/svg" version="1.1" viewBox="0 0 864 1296">
  <!-- Generator: Adobe Illustrator 29.1.0, SVG Export Plug-In . SVG Version: 2.1.0 Build 142)  -->
  <defs>
    <style>
      .st0 {
        fill: #231f20;
      }

      .st1 {
        fill: #006f53;
      }

      .st2 {
        fill: #fff;
      }
    </style>
  </defs>
  <g>
    <rect class="st2" x="-.1" y="-.1" width="864.2" height="1296.2" rx="108.1" ry="108.1"/>
    <path class="st0" d="M756,0c59.4,0,108,48.6,108,108v1080c0,59.4-48.6,108-108,108H108c-59.4,0-108-48.6-108-108V108C0,48.6,48.6,0,108,0h648M756-.2H108C79.2-.2,52.1,11,31.5,31.5,11,52.1-.2,79.2-.2,108v1080c0,28.8,11.3,55.9,31.8,76.5,20.5,20.5,47.7,31.8,76.5,31.8h648c28.8,0,55.9-11.3,76.5-31.8,20.5-20.5,31.8-47.7,31.8-76.5V108c0-28.8-11.3-55.9-31.8-76.5C811.9,11,784.8-.2,756-.2h0Z"/>
  </g>
  <path class="st1" d="M837,108v1080c0,44.7-36.3,81-81,81H108c-44.7,0-81-36.3-81-81V108c0-44.7,36.3-81,81-81h648c44.7,0,81,36.3,81,81ZM810,1188V495H54v693c0,29.8,24.2,54,54,54h648c29.8,0,54-24.2,54-54ZM756,54h-477v414h531V108c0-29.8-24.2-54-54-54Z"/>
  <path class="st2" d="M233.4,364.6v40.4H72c2.3-90.8,42.2-135.7,75.4-162.1,25.5-20.3,46.4-25.6,46.4-50s-18.2-40.6-40.6-40.6-40.6,18.2-40.6,40.6h-40.6c1-45.5,35.6-80.9,81.2-80.9s80.2,36.4,80.2,80.9c0,84.6-90.5,55.7-116.7,171.7h116.7Z"/>
  <g>
    <path class="st1" d="M508,168.8h-39.3v65.2h-20.7V90h20.7v58.6h39.3v-58.6h20.7v144h-20.7v-65.2Z"/>
    <path class="st1" d="M600.7,166.3h-19.7v67.7h-20.7V90h42.9c22.6,0,37.8,15.2,37.8,38.4s-7.1,29.8-20.7,34.9l20.7,70.7h-21.1l-19.2-67.7ZM581,110.2v36.4h21.2c12.1,0,18.7-6.6,18.7-18.2s-7.6-18.2-18.6-18.2h-21.2Z"/>
  </g>
  <g>
    <path class="st1" d="M335.2,369.3h-9.9v62.7h-18.2v-144h29.2c30.7,0,32.8,34.2,32.8,41.9,0,23.7-13.7,39.4-33.9,39.4ZM325.3,306.7v44h9.9c11.1,0,15.2-5.8,15.2-20.7s-5.1-23.2-15.2-23.2h-9.9Z"/>
    <path class="st1" d="M423.9,393.6h-23.7l-8.1,38.4h-18.7l29.3-144h18.7l29.8,144h-19.2l-8.1-38.4ZM404.2,374.9h15.7l-7.6-37.9-8.1,37.9Z"/>
    <path class="st1" d="M508.1,360.3l14.7,71.7h-19.7l-13.7-67.2h-9.8v67.2h-18.2v-144h28.1c22.3,0,33.9,13.6,33.9,40.4s-4.1,25.7-15.2,31.9ZM504.5,327.9c0-16.3-3.6-21.2-16.2-21.2h-8.9v39.4h11.9c10.1,0,13.1-4.5,13.1-18.2Z"/>
    <path class="st1" d="M559.3,363.8l-6.3,14.1v54.1h-18.2v-144h18.2v46l22-46h21.2l-23.7,49.5,25.7,94.5h-19.7l-19.2-68.2Z"/>
    <path class="st1" d="M609.7,288h18.7v144h-18.7v-144Z"/>
    <path class="st1" d="M662.4,346.6v85.4h-18.2v-144h18.2l25.7,71.7v-71.7h18.1v144h-15.6l-28.2-85.4Z"/>
    <path class="st1" d="M753.4,286c16.3,0,26.9,10.1,28.4,27.8h-18.8c-.5-6.1-4.1-9.1-9.1-9.1-9,0-15.2,7.7-15.2,55.5s6.2,55.6,15.2,55.6,9.6-8.9,9.6-17.7v-17.2h-8.6v-18.7h26.9v35.9c0,9.4,1.4,36.4-28.4,36.4s-33.5-19.9-33.5-74.3,13.8-74.2,33.5-74.2Z"/>
  </g>
  <g>
    <path class="st1" d="M566,699.6h-23.7l-8.1,38.4h-18.7l29.3-144h18.7l29.8,144h-19.2l-8.1-38.4ZM546.4,680.9h15.7l-7.6-37.9-8.1,37.9Z"/>
    <path class="st1" d="M665.9,652.6l-16.7,54.1-17.6-54.1v85.4h-18.2v-144h18.2l17.6,51,16.7-51h18.2v144h-18.2v-85.4Z"/>
  </g>
  <g>
    <path class="st1" d="M119.4,972h-18.2v-125.3h-17.8v-18.7h54.8v18.7h-18.8v125.3Z"/>
    <path class="st1" d="M187.1,826c28.3,0,33.1,27.3,33.1,74.3s-.2,74.3-33.1,74.3-33.1-41.1-33.1-74.3c0-47,4.8-74.2,33.1-74.2ZM201.2,900.3c0-31.1-3.9-55.6-14.2-55.6s-14.2,24-14.2,55.6.2,55.6,14.2,55.6,14.2-42.7,14.2-55.6Z"/>
  </g>
  <g>
    <path class="st1" d="M656,909.3h-9.9v62.7h-18.2v-144h29.2c30.7,0,32.8,34.2,32.8,41.9,0,23.7-13.7,39.4-33.9,39.4ZM646.1,846.7v44h9.9c11.1,0,15.2-5.8,15.2-20.7s-5.1-23.2-15.2-23.2h-9.9Z"/>
    <path class="st1" d="M762.4,886.6l-16.7,54.1-17.6-54.1v85.4h-18.2v-144h18.2l17.6,51,16.7-51h18.2v144h-18.2v-85.4Z"/>
  </g>
  <g>
    <path class="st1" d="M239.4,632.4c0,12.1-2.6,21.2-8.6,27.8,7.1,9.1,11.1,20.7,11.1,35.9,0,22.2-7.8,44.5-30.6,44.5s-31.4-35.1-31.4-44.5c0-14.7,4-26.8,11.1-35.9-6-7.1-8.6-15.1-8.6-27.8,0-24.7,11.1-40.9,28.3-40.9s28.6,16.1,28.6,40.9ZM223.2,696.1c0-16.1-4.3-24.7-11.9-24.7s-12.7,8.6-12.7,24.7,4.6,25.8,12.7,25.8,11.9-9.7,11.9-25.8ZM220.6,633.4c0-15.3-2.8-23.3-9.3-23.3s-10.1,8.1-10.1,23.3,3,19.2,10.1,19.2,9.3-6,9.3-19.2Z"/>
    <path class="st1" d="M260.6,637.2c0-6.1,4.8-10.6,10.1-10.6s10.1,4.5,10.1,10.6-4.3,10.6-10.1,10.6-10.1-4.5-10.1-10.6ZM260.6,694.8c0-6.1,4.8-10.6,10.1-10.6s10.1,4.5,10.1,10.6-4.3,10.6-10.1,10.6-10.1-4.5-10.1-10.6Z"/>
    <g>
      <path class="st1" d="M315.3,711.2c.5,6.1,5.1,10.6,11.1,10.6,9.6,0,13.5-7.1,13.5-24.3s-3.9-28.8-16-28.8h-6.1v-18.7h4.5c10.1,0,14-5.6,14-22.2s-3.7-17.7-11.5-17.7-9,3.5-9.5,9.6h-18.7c1-17.7,12.1-28.3,28.3-28.3s30.2,12.2,30.2,36.4-2,21.2-7.6,31.3c9.5,8.2,11.1,21.4,11.1,38.4,0,41.4-21.7,42.9-32.7,42.9-19.6,0-29.3-19.3-29.3-29.3h18.7Z"/>
      <path class="st1" d="M410.4,740.5c-32.3,0-33.1-40.6-33.1-74.3s.8-74.2,33.1-74.2,33.1,40.6,33.1,74.2-.8,74.3-33.1,74.3ZM396.2,666.3c0,25.2.4,55.6,14.2,55.6s14.1-30.4,14.1-55.6-.3-55.6-14.1-55.6-14.2,30.4-14.2,55.6Z"/>
    </g>
  </g>
  <g>
    <path class="st1" d="M323,893.7c-4,0-6.6,2-10.1,6.1l-18.7-2,2.5-69.7h53.4v18.7h-35.7l-.5,29.3c4-.5,6.6-1,9.6-1,27.1,0,30.7,28.5,30.7,39.9s-5.4,59.6-40.2,59.6-14.6-2-21.7-6.6l9.6-16.2c5.1,3,8.2,4,13.3,4,15.9,0,20.4-34.2,20.4-44s-4.9-18.2-12.5-18.2Z"/>
    <path class="st1" d="M372.9,871.2c0-6.1,4.8-10.6,10.1-10.6s10.1,4.5,10.1,10.6-4.3,10.6-10.1,10.6-10.1-4.5-10.1-10.6ZM372.9,928.8c0-6.1,4.8-10.6,10.1-10.6s10.1,4.5,10.1,10.6-4.3,10.6-10.1,10.6-10.1-4.5-10.1-10.6Z"/>
    <g>
      <path class="st1" d="M427.6,945.2c.5,6.1,5.1,10.6,11.1,10.6,9.6,0,13.5-7.1,13.5-24.3s-3.9-28.8-16-28.8h-6.1v-18.7h4.5c10.1,0,14-5.6,14-22.2s-3.7-17.7-11.5-17.7-9,3.5-9.5,9.6h-18.7c1-17.7,12.1-28.3,28.3-28.3s30.2,12.2,30.2,36.4-2,21.2-7.6,31.3c9.5,8.2,11.1,21.4,11.1,38.4,0,41.4-21.7,42.9-32.7,42.9-19.6,0-29.3-19.3-29.3-29.3h18.7Z"/>
      <path class="st1" d="M522.8,974.5c-32.3,0-33.1-40.6-33.1-74.3s.8-74.2,33.1-74.2,33.1,40.6,33.1,74.2-.8,74.3-33.1,74.3ZM508.6,900.2c0,25.2.4,55.6,14.2,55.6s14.1-30.4,14.1-55.6-.3-55.6-14.1-55.6-14.2,30.4-14.2,55.6Z"/>
    </g>
  </g>
  <g>
    <rect class="st1" x="248.6" y="1107" width="366.8" height="54"/>
    <path class="st1" d="M594.4,1073.5c-.2-.8-.4-1.7-.4-2.5,0-5,4-9,9-9,1.8,0,3.5.5,5.1,1.6l102.9,70.4-102.9,70.4c-1.6,1.1-3.3,1.6-5.1,1.6-5,0-9-4-9-9,0-.8.1-1.7.4-2.5l17.6-60.5-17.6-60.5Z"/>
    <path class="st1" d="M269.6,1073.5c.2-.8.4-1.7.4-2.5,0-5-4-9-9-9-1.8,0-3.5.5-5.1,1.6l-102.9,70.4,102.9,70.4c1.6,1.1,3.3,1.6,5.1,1.6,5,0,9-4,9-9,0-.8-.1-1.7-.4-2.5l-17.6-60.5,17.6-60.5Z"/>
  </g>
</svg>