<?xml version="1.0" encoding="UTF-8"?>
<svg id="For_Sheets" xmlns="http://www.w3.org/2000/svg" version="1.1" viewBox="0 0 864 1296">
  <!-- Generator: Adobe Illustrator 29.1.0, SVG Export Plug-In . SVG Version: 2.1.0 Build 142)  -->
  <defs>
    <style>
      .st0 {
        fill: #005a9c;
        fill-rule: evenodd;
      }

      .st1 {
        fill: #231f20;
      }

      .st2 {
        fill: #006f53;
      }

      .st3 {
        fill: #fff;
      }
    </style>
  </defs>
  <g>
    <rect class="st3" x="-.1" y="-.1" width="864.2" height="1296.2" rx="108.1" ry="108.1"/>
    <path class="st1" d="M756,0c59.4,0,108,48.6,108,108v1080c0,59.4-48.6,108-108,108H108c-59.4,0-108-48.6-108-108V108C0,48.6,48.6,0,108,0h648M756-.2H108C79.2-.2,52.1,11,31.5,31.5,11,52.1-.2,79.2-.2,108v1080c0,28.8,11.3,55.9,31.8,76.5,20.5,20.5,47.7,31.8,76.5,31.8h648c28.8,0,55.9-11.3,76.5-31.8,20.5-20.5,31.8-47.7,31.8-76.5V108c0-28.8-11.3-55.9-31.8-76.5C811.9,11,784.8-.2,756-.2h0Z"/>
  </g>
  <rect class="st2" x="-189" y="243" width="1242" height="810" rx="81" ry="81" transform="translate(1080 216) rotate(90)"/>
  <rect class="st3" x="-162" y="270" width="1188" height="756" rx="54" ry="54" transform="translate(1080 216) rotate(90)"/>
  <path class="st0" d="M250.6,576h362.9c19,0,34.6,15.5,34.6,34.6v362.9c0,19-15.5,34.6-34.6,34.6H250.6c-19,0-34.6-15.5-34.6-34.6v-362.9c0-19,15.5-34.6,34.6-34.6"/>
  <g>
    <path class="st3" d="M548.2,862.9l-27.1,11.2-35.1-84.7h-86.6l-1.1-15.4h62v-25.7h-63.8l-3.4-49.3c11.9-2.2,20.9-12.7,20.9-25.3s-11.5-25.7-25.7-25.7-25.7,11.5-25.7,25.7,1.4,9.7,3.9,13.7l8.9,127.8h93.4l38.3,92.6,50.8-21.1-9.8-23.8Z"/>
    <path class="st3" d="M465.4,840.4c0,1,0,2,0,3,0,36.9-29.9,66.9-66.9,66.9s-66.9-29.9-66.9-66.9,11.5-43,29-55.1l-2-28.5c-31.2,14.9-52.7,46.7-52.7,83.6s41.4,92.6,92.6,92.6,69.4-22.1,84.1-53.8l-17.3-41.8Z"/>
  </g>
  <g>
    <path class="st2" d="M125.7,246.8h-17.2v59.2h-18.1v-126h37.5c19.8,0,33.1,13.3,33.1,33.6s-6.2,26.1-18.1,30.5l18.1,61.9h-18.5l-16.8-59.2ZM108.5,197.7v31.8h18.5c10.6,0,16.3-5.7,16.3-15.9s-6.6-15.9-16.3-15.9h-18.5Z"/>
    <path class="st2" d="M182.4,180h59.4v17.7h-41.2v31.8h26.1v17.2h-26.1v41.6h46.1v17.7h-64.3v-126Z"/>
    <path class="st2" d="M298,225.9c13.8,8.6,34.4,20.8,34.4,45.6s-15.5,36.7-35.1,36.7-35.5-18.8-35.5-39.3h17.8c0,10.7,5.3,21.7,17.8,21.7s17.8-8.8,17.8-19c0-27.4-47-25.8-47-61s14.2-32.7,32.4-32.7,31.5,13.7,32,32.7h-17.3c-.4-8.8-6.7-14.6-14.6-14.6s-15.1,6.2-15.1,14.6,4.3,10.2,12.6,15.4Z"/>
    <path class="st2" d="M353.8,180h59.4v17.7h-41.2v31.8h26.1v17.2h-26.1v41.6h46.1v17.7h-64.3v-126Z"/>
    <path class="st2" d="M474.9,246.8h-17.2v59.2h-18.1v-126h37.5c19.8,0,33.1,13.3,33.1,33.6s-6.2,26.1-18.1,30.5l18.1,61.9h-18.5l-16.8-59.2ZM457.6,197.7v31.8h18.5c10.6,0,16.3-5.7,16.3-15.9s-6.6-15.9-16.3-15.9h-18.5Z"/>
    <path class="st2" d="M553.5,306l-32-126h18.2l20.9,81.8,20.9-81.8h18.2l-32.4,126h-13.8Z"/>
    <path class="st2" d="M617.3,180h59.4v17.7h-41.2v31.8h26.1v17.2h-26.1v41.6h46.1v17.7h-64.3v-126Z"/>
    <path class="st2" d="M703,306v-126h36c7.7,0,34.6.4,34.6,62.8s-24.9,63.2-33.1,63.2h-37.5ZM735.2,197.7h-14.1v90.6h12.6c14.7,0,22.3-6.4,22.3-44.7s-11-46-20.7-46Z"/>
  </g>
  <g>
    <path class="st2" d="M160.2,448.7v55.3h-18.1v-126h37.5c19.9,0,33.1,14.2,33.1,35.4s-11.9,35.4-33.1,35.4h-19.4ZM160.2,431.5h18.5c10.6,0,16.3-6.6,16.3-18.1s-6.7-17.7-16.3-17.7h-18.5v35.8Z"/>
    <path class="st2" d="M281.4,469.5h-27l-8.4,34.5h-18.2l31.5-126h17.8l31.5,126h-18.2l-8.9-34.5ZM258.8,451.8h18.2l-9.3-36.3-8.9,36.3Z"/>
    <path class="st2" d="M361.4,444.8h-17.2v59.2h-18.1v-126h37.5c19.8,0,33.1,13.3,33.1,33.6s-6.2,26.1-18.1,30.5l18.1,61.9h-18.5l-16.8-59.2ZM344.2,395.7v31.8h18.5c10.6,0,16.3-5.7,16.3-15.9s-6.6-15.9-16.3-15.9h-18.5Z"/>
    <path class="st2" d="M447.7,442.5l-11.5,21.2v40.3h-18.1v-126h18.1v50.4l28.7-50.4h20.8l-26.1,44.2,29.1,81.8h-19l-22.1-61.5Z"/>
    <path class="st2" d="M510.2,378h17.6v126h-17.6v-126Z"/>
    <path class="st2" d="M573.6,419.6v84.4h-18.1v-126h18.1l34.4,75.6v-75.6h18.1v126h-13.7l-38.8-84.4Z"/>
    <path class="st2" d="M690.4,506.2c-11.5,0-39.1-2.1-39.1-65s26.3-65.4,37.7-65.4c18.2,0,32,13.2,32.9,31.8h-18.2c-.4-8.4-6.2-14.2-15.1-14.2s-20,1.9-20,47.8,15.2,47.3,21.3,47.3c9.3,0,13.8-6.1,13.8-19.5v-8.4h-14.2v-17.7h32.4v26.1c0,31.5-20.8,37.1-31.5,37.1Z"/>
  </g>
  <g>
    <rect class="st2" x="250" y="1089" width="361" height="54"/>
    <path class="st2" d="M288,1188c5,0,9-4,9-9s-.2-2.1-.5-3.1l-22-59.9,22-59.9c.3-1,.5-2,.5-3.1,0-5-4-9-9-9s-3.6.6-5,1.5l-103,70.5,103,70.5c1.4,1,3.2,1.5,5,1.5Z"/>
    <path class="st2" d="M576,1188c-5,0-9-4-9-9s.2-2.1.5-3.1l22-59.9-22-59.9c-.3-1-.5-2-.5-3.1,0-5,4-9,9-9s3.6.6,5,1.5l103,70.5-103,70.5c-1.4,1-3.2,1.5-5,1.5Z"/>
  </g>
</svg>