<?xml version="1.0" encoding="UTF-8"?>
<svg id="For_Sheets" xmlns="http://www.w3.org/2000/svg" version="1.1" viewBox="0 0 864 1296">
  <!-- Generator: Adobe Illustrator 29.1.0, SVG Export Plug-In . SVG Version: 2.1.0 Build 142)  -->
  <defs>
    <style>
      .st0 {
        fill: #231f20;
      }

      .st1 {
        fill: #fff;
      }

      .st2 {
        fill: #bf311a;
      }
    </style>
  </defs>
  <g>
    <rect class="st1" x="-.1" y="-.1" width="864.2" height="1296.2" rx="108.1" ry="108.1"/>
    <path class="st0" d="M756,0c59.4,0,108,48.6,108,108v1080c0,59.4-48.6,108-108,108H108c-59.4,0-108-48.6-108-108V108C0,48.6,48.6,0,108,0h648M756-.2H108C79.2-.2,52.1,11,31.5,31.5,11,52.1-.2,79.2-.2,108v1080c0,28.8,11.3,55.9,31.8,76.5,20.5,20.5,47.7,31.8,76.5,31.8h648c28.8,0,55.9-11.3,76.5-31.8,20.5-20.5,31.8-47.7,31.8-76.5V108c0-28.8-11.3-55.9-31.8-76.5C811.9,11,784.8-.2,756-.2h0Z"/>
  </g>
  <rect class="st2" x="-189" y="243" width="1242" height="810" rx="81" ry="81" transform="translate(1080 216) rotate(90)"/>
  <rect class="st1" x="-162" y="270" width="1188" height="756" rx="54" ry="54" transform="translate(1080 216) rotate(90)"/>
  <path class="st0" d="M566,492.2c-23.5,12.5-40.2,16.6-76.2,16.6h-106.3v148.2h-77.5v-396h188c33.2,0,49.8,4.2,72,16.6,37.4,22.2,60.9,62.3,60.9,106.6s-23.5,87.2-60.9,108ZM499.6,339.9h-116v90h116c30.5,0,49.8-18,49.8-45.7s-20.8-44.3-49.8-44.3Z"/>
  <path class="st2" d="M432,135c-178.9,0-324,145.1-324,324s145.1,324,324,324,324-145.1,324-324-145.1-324-324-324ZM684,459c0,56.6-18.7,108.8-50.2,150.9l-352.7-352.7c42.1-31.5,94.3-50.2,150.9-50.2,139.2,0,252,112.8,252,252ZM180,459c0-56.6,18.7-108.8,50.2-150.9l352.7,352.7c-42.1,31.5-94.3,50.2-150.9,50.2-139.2,0-252-112.8-252-252Z"/>
  <g>
    <path class="st2" d="M562.7,951.6h-23.7l-8.1,38.4h-18.7l29.3-144h18.7l29.8,144h-19.2l-8.1-38.4ZM543,932.9h15.7l-7.6-37.9-8.1,37.9Z"/>
    <path class="st2" d="M658.6,904.6l-16.7,54.1-17.6-54.1v85.4h-18.2v-144h18.2l17.6,51,16.7-51h18.2v144h-18.2v-85.4Z"/>
  </g>
  <g>
    <path class="st2" d="M128.3,1188h-18.2v-125.3h-17.8v-18.7h54.8v18.7h-18.8v125.3Z"/>
    <path class="st2" d="M192.9,1042c28.3,0,33.1,27.3,33.1,74.3s-.2,74.3-33.1,74.3-33.1-41.1-33.1-74.3c0-47,4.8-74.2,33.1-74.2ZM206.9,1116.3c0-31.1-3.9-55.6-14.2-55.6s-14.2,24-14.2,55.6.2,55.6,14.2,55.6,14.2-42.7,14.2-55.6Z"/>
  </g>
  <g>
    <path class="st2" d="M651.1,1125.3h-9.9v62.7h-18.2v-144h29.2c30.7,0,32.8,34.2,32.8,41.9,0,23.7-13.7,39.4-33.9,39.4ZM641.2,1062.7v44h9.9c11.1,0,15.2-5.8,15.2-20.7s-5.1-23.2-15.2-23.2h-9.9Z"/>
    <path class="st2" d="M753.5,1102.6l-16.7,54.1-17.6-54.1v85.4h-18.2v-144h18.2l17.6,51,16.7-51h18.2v144h-18.2v-85.4Z"/>
  </g>
  <g>
    <path class="st2" d="M328.8,1109.7c-4,0-6.6,2-10.1,6.1l-18.7-2,2.5-69.7h53.4v18.7h-35.7l-.5,29.3c4-.5,6.6-1,9.6-1,27.1,0,30.7,28.5,30.7,39.9s-5.4,59.6-40.2,59.6-14.6-2-21.7-6.6l9.6-16.2c5.1,3,8.2,4,13.3,4,15.9,0,20.4-34.2,20.4-44s-4.9-18.2-12.5-18.2Z"/>
    <path class="st2" d="M375,1087.2c0-6.1,4.8-10.6,10.1-10.6s10.1,4.5,10.1,10.6-4.3,10.6-10.1,10.6-10.1-4.5-10.1-10.6ZM375,1144.8c0-6.1,4.8-10.6,10.1-10.6s10.1,4.5,10.1,10.6-4.3,10.6-10.1,10.6-10.1-4.5-10.1-10.6Z"/>
    <path class="st2" d="M426.5,1161.2c.5,6.1,5.1,10.6,11.1,10.6,9.6,0,13.5-7.1,13.5-24.3s-3.9-28.8-16-28.8h-6.1v-18.7h4.5c10.1,0,14-5.6,14-22.2s-3.7-17.7-11.5-17.7-9,3.5-9.5,9.6h-18.7c1-17.7,12.1-28.3,28.3-28.3s30.2,12.2,30.2,36.4-2,21.2-7.6,31.3c9.5,8.2,11.1,21.4,11.1,38.4,0,41.4-21.7,42.9-32.7,42.9-19.6,0-29.3-19.3-29.3-29.3h18.7Z"/>
    <path class="st2" d="M517.9,1190.5c-32.3,0-33.1-40.6-33.1-74.3s.8-74.2,33.1-74.2,33.1,40.6,33.1,74.2-.8,74.3-33.1,74.3ZM503.7,1116.3c0,25.2.4,55.6,14.2,55.6s14.1-30.4,14.1-55.6-.3-55.6-14.1-55.6-14.2,30.4-14.2,55.6Z"/>
  </g>
  <g>
    <path class="st2" d="M246.7,884.4c0,12.1-2.6,21.2-8.6,27.8,7.1,9.1,11.1,20.7,11.1,35.9,0,22.2-7.8,44.5-30.6,44.5s-31.4-35.1-31.4-44.5c0-14.7,4-26.8,11.1-35.9-6-7.1-8.6-15.1-8.6-27.8,0-24.7,11.1-40.9,28.3-40.9s28.6,16.1,28.6,40.9ZM230.5,948.1c0-16.1-4.3-24.8-11.9-24.8s-12.7,8.6-12.7,24.8,4.6,25.8,12.7,25.8,11.9-9.7,11.9-25.8ZM227.9,885.4c0-15.3-2.8-23.3-9.3-23.3s-10.1,8.1-10.1,23.3,3,19.2,10.1,19.2,9.3-6,9.3-19.2Z"/>
    <path class="st2" d="M264.2,889.2c0-6.1,4.8-10.6,10.1-10.6s10.1,4.5,10.1,10.6-4.3,10.6-10.1,10.6-10.1-4.5-10.1-10.6ZM264.2,946.8c0-6.1,4.8-10.6,10.1-10.6s10.1,4.5,10.1,10.6-4.3,10.6-10.1,10.6-10.1-4.5-10.1-10.6Z"/>
    <path class="st2" d="M315.7,963.2c.5,6.1,5.1,10.6,11.1,10.6,9.6,0,13.5-7.1,13.5-24.3s-3.9-28.8-16-28.8h-6.1v-18.7h4.5c10.1,0,14-5.6,14-22.2s-3.7-17.7-11.5-17.7-9,3.5-9.5,9.6h-18.7c1-17.7,12.1-28.3,28.3-28.3s30.2,12.2,30.2,36.4-2,21.2-7.6,31.3c9.5,8.2,11.1,21.4,11.1,38.4,0,41.4-21.7,42.9-32.7,42.9-19.6,0-29.3-19.3-29.3-29.3h18.7Z"/>
    <path class="st2" d="M407.1,992.5c-32.3,0-33.1-40.6-33.1-74.3s.8-74.2,33.1-74.2,33.1,40.6,33.1,74.2-.8,74.3-33.1,74.3ZM392.9,918.3c0,25.2.4,55.6,14.2,55.6s14.1-30.4,14.1-55.6-.3-55.6-14.1-55.6-14.2,30.4-14.2,55.6Z"/>
  </g>
</svg>