<?xml version="1.0" encoding="UTF-8"?>
<svg id="For_Sheets" xmlns="http://www.w3.org/2000/svg" version="1.1" viewBox="0 0 864 1728">
  <!-- Generator: Adobe Illustrator 29.1.0, SVG Export Plug-In . SVG Version: 2.1.0 Build 142)  -->
  <defs>
    <style>
      .st0 {
        fill: #231f20;
      }

      .st1 {
        fill: #fff;
      }

      .st2 {
        fill: #bf311a;
      }
    </style>
  </defs>
  <g>
    <rect class="st1" x="-.1" y="-.1" width="864.2" height="1728.2" rx="108.1" ry="108.1"/>
    <path class="st0" d="M756,0c59.4,0,108,48.6,108,108v1512c0,59.4-48.6,108-108,108H108c-59.4,0-108-48.6-108-108V108C0,48.6,48.6,0,108,0h648M756-.2H108C79.2-.2,52.1,11,31.5,31.5,11,52.1-.2,79.2-.2,108v1512c0,28.8,11.3,55.9,31.8,76.5,20.5,20.5,47.7,31.8,76.5,31.8h648c28.8,0,55.9-11.3,76.5-31.8s31.8-47.7,31.8-76.5V108c0-28.8-11.3-55.9-31.8-76.5S784.8-.2,756-.2h0Z"/>
  </g>
  <rect class="st2" x="-405" y="459" width="1674" height="810" rx="81" ry="81" transform="translate(1296 432) rotate(90)"/>
  <rect class="st1" x="-360" y="504" width="1584" height="720" rx="36" ry="36" transform="translate(1296 432) rotate(90)"/>
  <path class="st0" d="M387,1177.1v154.9h-81v-414h209c64.1,0,126.5,53.8,126.5,128.8s-52.8,130.3-132.1,130.3h-122.4ZM387,1000.5v94.1h121.3c31.8,0,52.1-18.8,52.1-47.8s-21.7-46.3-52.1-46.3h-121.3Z"/>
  <path class="st2" d="M432,796.5c-178.9,0-324,145.1-324,324s145.1,324,324,324,324-145.1,324-324-145.1-324-324-324ZM684,1120.5c0,56.6-18.7,108.8-50.2,150.9l-352.7-352.7c42.1-31.5,94.3-50.2,150.9-50.2,139.2,0,252,112.8,252,252ZM180,1120.5c0-56.6,18.7-108.8,50.2-150.9l352.7,352.7c-42.1,31.5-94.3,50.2-150.9,50.2-139.2,0-252-112.8-252-252Z"/>
  <path class="st0" d="M180.8,429.9l20-172.4,208.4-16.7v189.1h-228.5ZM291.6,536.8c0,13.7-11.1,24.7-24.7,24.7s-18.7-6-22.6-14.7c-3.9,8.6-12.5,14.7-22.6,14.7s-24.7-11.1-24.7-24.7,11.1-24.7,24.7-24.7,18.7,6,22.6,14.7c3.9-8.6,12.5-14.7,22.6-14.7s24.7,11.1,24.7,24.7ZM269.1,144c-57.9,0-85.6,41.9-88.7,66.4l-34.4,269.6,12.1,109.5-8,11.4v62.8h46.8v56.2h98.2v-55.6h273.9s0,55.6,0,55.6h98.2v-56.2s46.8,0,46.8,0v-62.8s-8-11.4-8-11.4l12.1-109.5-34.4-269.6c-3.1-24.5-30.8-66.4-88.7-66.4h-325.9ZM454.8,429.9v-189.1s208.4,16.7,208.4,16.7l20,172.4h-228.5ZM597.2,512c10.1,0,18.7,6,22.6,14.7,3.9-8.6,12.5-14.7,22.6-14.7,13.7,0,24.7,11.1,24.7,24.7,0,13.7-11.1,24.7-24.7,24.7-10.1,0-18.7-6-22.6-14.7-3.9,8.6-12.5,14.7-22.6,14.7s-24.7-11.1-24.7-24.7c0-13.7,11.1-24.7,24.7-24.7ZM574.3,160.7v64.1h-284.6v-64.1h284.6ZM664.8,612.3H199.2v-16.7h465.6v16.7Z"/>
  <g>
    <rect class="st2" x="153" y="1521" width="462.4" height="54"/>
    <path class="st2" d="M594.4,1487.5c-.2-.8-.4-1.7-.4-2.5,0-5,4-9,9-9,1.8,0,3.5.5,5.1,1.6l102.9,70.4-102.9,70.4c-1.6,1.1-3.3,1.6-5.1,1.6-5,0-9-4-9-9,0-.8.1-1.7.4-2.5l17.6-60.5-17.6-60.5Z"/>
  </g>
</svg>