<?xml version="1.0" encoding="UTF-8"?>
<svg id="For_Sheets" xmlns="http://www.w3.org/2000/svg" version="1.1" viewBox="0 0 864 1296">
  <!-- Generator: Adobe Illustrator 29.1.0, SVG Export Plug-In . SVG Version: 2.1.0 Build 142)  -->
  <defs>
    <style>
      .st0 {
        fill: #231f20;
      }

      .st1 {
        fill: #fff;
      }

      .st2 {
        fill: #bf311a;
      }
    </style>
  </defs>
  <g>
    <rect class="st1" x="-.1" y="-.1" width="864.2" height="1296.2" rx="108.1" ry="108.1"/>
    <path class="st0" d="M756,0c59.4,0,108,48.6,108,108v1080c0,59.4-48.6,108-108,108H108c-59.4,0-108-48.6-108-108V108C0,48.6,48.6,0,108,0h648M756-.2H108C79.2-.2,52.1,11,31.5,31.5,11,52.1-.2,79.2-.2,108v1080c0,28.8,11.3,55.9,31.8,76.5,20.5,20.5,47.7,31.8,76.5,31.8h648c28.8,0,55.9-11.3,76.5-31.8,20.5-20.5,31.8-47.7,31.8-76.5V108c0-28.8-11.3-55.9-31.8-76.5C811.9,11,784.8-.2,756-.2h0Z"/>
  </g>
  <rect class="st2" x="-189" y="243" width="1242" height="810" rx="81" ry="81" transform="translate(1080 216) rotate(90)"/>
  <rect class="st1" x="-162" y="270" width="1188" height="756" rx="54" ry="54" transform="translate(1080 216) rotate(90)"/>
  <g>
    <path class="st2" d="M317.1,206.3v144.7h-31v-216h31l59,129.6v-129.6h31v216h-23.4l-66.6-144.7Z"/>
    <path class="st2" d="M450.4,242.5c0-113.1,52.5-111.3,64.1-111.3s63.4-1.7,63.4,111.4-51.8,112.1-63.4,112.1-64.1,1.8-64.1-112.2ZM514.1,161.5c-6.2,0-34-1.3-34,81.2s27.8,81.8,34,81.8,34,1.3,34-81.8-27.8-81.2-34-81.2Z"/>
  </g>
  <g>
    <path class="st2" d="M113.3,442.1v65.9h14.8c16.7,0,22.8-8.6,22.8-31.1s-7.6-34.9-22.8-34.9h-14.8ZM128.1,536h-14.8v94h-27.3v-216h43.8c46.1,0,49.1,51.3,49.1,62.9,0,35.6-20.5,59.1-50.8,59.1Z"/>
    <path class="st2" d="M230.3,544.4h23.5l-11.4-56.9-12.1,56.9ZM259.9,572.4h-35.6l-12.1,57.6h-28l44-216h28l44.7,216h-28.8l-12.1-57.6Z"/>
    <path class="st2" d="M377.8,473.9c0-24.5-5.3-31.8-24.3-31.8h-13.3v59.1h17.8c15.1,0,19.7-6.8,19.7-27.3ZM383.1,522.5l22,107.5h-29.6l-20.6-100.8h-14.7v100.8h-27.3v-216h42.1c33.5,0,50.8,20.5,50.8,60.6s-6.1,38.6-22.7,47.8Z"/>
    <polygon class="st2" points="456.4 527.7 447 548.9 447 630 419.7 630 419.7 414 447 414 447 483 479.9 414 511.8 414 476.2 488.3 514.8 630 485.2 630 456.4 527.7"/>
    <rect class="st2" x="528.6" y="414" width="28.1" height="216"/>
    <polygon class="st2" points="602.9 501.9 602.9 630 575.7 630 575.7 414 602.9 414 641.5 521.6 641.5 414 668.6 414 668.6 630 645.2 630 602.9 501.9"/>
    <path class="st2" d="M735.3,411c24.4,0,40.4,15.2,42.7,41.7h-28.2c-.8-9.1-6.1-13.6-13.7-13.6-13.6,0-22.8,11.6-22.8,83.3s9.3,83.4,22.8,83.4,14.5-13.3,14.5-26.5v-25.8h-12.9v-28.1h40.4v53.8c0,14.1,2,54.6-42.6,54.6s-50.3-29.9-50.3-111.4,20.7-111.4,50.3-111.4Z"/>
  </g>
  <g>
    <path class="st2" d="M290.1,684h34v10.1h-23.6v18.2h14.9v9.9h-14.9v23.8h26.4v10.1h-36.8v-72Z"/>
    <path class="st2" d="M354.4,731.5l-10.2,24.5h-10.9l15.8-37.4-14.8-34.6h10.9l9.2,21.7,9.2-21.7h10.9l-14.5,34.6,15.8,37.4h-11.2l-10.2-24.5Z"/>
    <path class="st2" d="M414.4,703.2c-1-7.1-3.8-10.4-8.6-10.4-8.4,0-11.4,6.6-11.4,25.3s3.6,29.1,12.4,29.1,7.6-5.1,7.6-10.4h10.4c-.3,11.9-7.9,20.5-18,20.5-15.5,0-22.3-12.4-22.3-38.9s7.4-35.6,21.6-35.6,18.4,12,18.8,20.4h-10.4Z"/>
    <path class="st2" d="M439.2,684h34v10.1h-23.6v18.2h14.9v9.9h-14.9v23.8h26.4v10.1h-36.8v-72Z"/>
    <path class="st2" d="M498.5,724.4v31.6h-10.3v-72h21.4c11.4,0,18.9,8.1,18.9,20.2s-6.8,20.2-18.9,20.2h-11.1ZM498.5,714.6h10.6c6.1,0,9.3-3.8,9.3-10.4s-3.8-10.1-9.3-10.1h-10.6v20.5Z"/>
    <path class="st2" d="M560.7,756h-10.4v-62.4h-13.2v-9.6h36.8v9.6h-13.2v62.4Z"/>
  </g>
  <g>
    <path class="st2" d="M161.7,836.2c7.9,4.9,19.7,11.9,19.7,26.1s-8.9,21-20,21-20.3-10.7-20.3-22.5h10.2c0,6.1,3,12.4,10.1,12.4s10.1-5,10.1-10.9c0-15.7-26.9-14.8-26.9-34.9s8.1-18.7,18.5-18.7,18,7.8,18.3,18.7h-9.9c-.3-5-3.8-8.3-8.4-8.3s-8.6,3.5-8.6,8.3,2.5,5.8,7.2,8.8Z"/>
    <path class="st2" d="M193.6,861.1v-51.1h10.3v51.8c0,6.8,4,11.4,10.1,11.4s9.6-4.5,9.6-11.4v-51.8h10.3v51.2c0,16.4-12.7,22-19.9,22s-20.4-4.3-20.4-22.2Z"/>
    <path class="st2" d="M260.1,833.8v48.2h-10.3v-72h10.3l19.7,43.2v-43.2h10.3v72h-7.8l-22.2-48.2Z"/>
    <path class="st2" d="M306,882v-72h20.6c4.4,0,19.8.2,19.8,35.9s-14.2,36.1-18.9,36.1h-21.4ZM324.4,820.1h-8.1v51.8h7.2c8.4,0,12.7-3.7,12.7-25.5s-6.3-26.3-11.8-26.3Z"/>
    <path class="st2" d="M385.6,862.3h-15.4l-4.8,19.7h-10.4l18-72h10.1l18,72h-10.4l-5.1-19.7ZM372.7,852.2h10.4l-5.3-20.7-5.1,20.7Z"/>
    <path class="st2" d="M433.5,882h-10.4v-32.6l-17.7-39.4h10.9l12.2,26,11.9-26h11.1l-18,39.4v32.6Z"/>
    <path class="st2" d="M478.6,836.2c7.9,4.9,19.7,11.9,19.7,26.1s-8.9,21-20,21-20.3-10.7-20.3-22.5h10.2c0,6.1,3,12.4,10.1,12.4s10.1-5,10.1-10.9c0-15.7-26.9-14.8-26.9-34.9s8.1-18.7,18.5-18.7,18,7.8,18.3,18.7h-9.9c-.3-5-3.8-8.3-8.4-8.3s-8.6,3.5-8.6,8.3,2.5,5.8,7.2,8.8Z"/>
  </g>
  <g>
    <path class="st2" d="M600.9,862.3h-15.4l-4.8,19.7h-10.4l18-72h10.1l18,72h-10.4l-5.1-19.7ZM588,852.2h10.4l-5.3-20.7-5.1,20.7Z"/>
    <path class="st2" d="M636.8,833.8v48.2h-10.3v-72h10.3l19.7,43.2v-43.2h10.3v72h-7.8l-22.2-48.2Z"/>
    <path class="st2" d="M682.6,882v-72h20.6c4.4,0,19.8.2,19.8,35.9s-14.2,36.1-18.9,36.1h-21.4ZM701,820.1h-8.1v51.8h7.2c8.4,0,12.7-3.7,12.7-25.5s-6.3-26.3-11.8-26.3Z"/>
  </g>
  <g>
    <path class="st2" d="M273.7,975.4h-19.7v32.6h-10.3v-72h10.3v29.3h19.7v-29.3h10.3v72h-10.3v-32.6Z"/>
    <path class="st2" d="M298.4,971.8c0-37.7,17.5-37.1,21.4-37.1s21.1-.6,21.1,37.1-17.3,37.4-21.1,37.4-21.4.6-21.4-37.4ZM319.6,944.8c-2.1,0-11.3-.4-11.3,27.1s9.3,27.3,11.3,27.3,11.3.4,11.3-27.3-9.3-27.1-11.3-27.1Z"/>
    <path class="st2" d="M355.3,936h10.4v62.4h26.4v9.6h-36.7v-72Z"/>
    <path class="st2" d="M402.1,936h10.1v72h-10.1v-72Z"/>
    <path class="st2" d="M428,1008v-72h20.6c4.4,0,19.8.2,19.8,35.9s-14.2,36.1-18.9,36.1h-21.4ZM446.4,946.1h-8.1v51.8h7.2c8.4,0,12.7-3.7,12.7-25.5s-6.3-26.3-11.8-26.3Z"/>
    <path class="st2" d="M507.7,988.3h-15.4l-4.8,19.7h-10.4l18-72h10.1l18,72h-10.4l-5.1-19.7ZM494.7,978.2h10.4l-5.3-20.7-5.1,20.7Z"/>
    <path class="st2" d="M555.5,1008h-10.4v-32.6l-17.7-39.4h10.9l12.2,26,11.9-26h11.1l-18,39.4v32.6Z"/>
    <path class="st2" d="M600.7,962.2c7.9,4.9,19.7,11.9,19.7,26.1s-8.9,21-20,21-20.3-10.7-20.3-22.5h10.2c0,6.1,3,12.4,10.1,12.4s10.1-5,10.1-10.9c0-15.7-26.9-14.8-26.9-34.9s8.1-18.7,18.5-18.7,18,7.8,18.3,18.7h-9.9c-.3-5-3.8-8.3-8.4-8.3s-8.6,3.5-8.6,8.3,2.5,5.8,7.2,8.8Z"/>
  </g>
  <g>
    <rect class="st2" x="248.6" y="1089" width="366.8" height="54"/>
    <path class="st2" d="M594.4,1055.5c-.2-.8-.4-1.7-.4-2.5,0-5,4-9,9-9,1.8,0,3.5.5,5.1,1.6l102.9,70.4-102.9,70.4c-1.6,1.1-3.3,1.6-5.1,1.6-5,0-9-4-9-9,0-.8.1-1.7.4-2.5l17.6-60.5-17.6-60.5Z"/>
    <path class="st2" d="M269.6,1055.5c.2-.8.4-1.7.4-2.5,0-5-4-9-9-9-1.8,0-3.5.5-5.1,1.6l-102.9,70.4,102.9,70.4c1.6,1.1,3.3,1.6,5.1,1.6,5,0,9-4,9-9,0-.8-.1-1.7-.4-2.5l-17.6-60.5,17.6-60.5Z"/>
  </g>
</svg>