<?xml version="1.0" encoding="UTF-8"?>
<svg id="For_Sheets" xmlns="http://www.w3.org/2000/svg" version="1.1" viewBox="0 0 864 1296">
  <!-- Generator: Adobe Illustrator 29.1.0, SVG Export Plug-In . SVG Version: 2.1.0 Build 142)  -->
  <defs>
    <style>
      .st0 {
        fill: #231f20;
      }

      .st1 {
        fill: #fff;
      }

      .st2 {
        fill: #bf311a;
      }
    </style>
  </defs>
  <g>
    <rect class="st1" x="-.1" y="-.1" width="864.2" height="1296.2" rx="108.1" ry="108.1"/>
    <path class="st0" d="M756,0c59.4,0,108,48.6,108,108v1080c0,59.4-48.6,108-108,108H108c-59.4,0-108-48.6-108-108V108C0,48.6,48.6,0,108,0h648M756-.2H108C79.2-.2,52.1,11,31.5,31.5,11,52.1-.2,79.2-.2,108v1080c0,28.8,11.3,55.9,31.8,76.5,20.5,20.5,47.7,31.8,76.5,31.8h648c28.8,0,55.9-11.3,76.5-31.8,20.5-20.5,31.8-47.7,31.8-76.5V108c0-28.8-11.3-55.9-31.8-76.5C811.9,11,784.8-.2,756-.2h0Z"/>
  </g>
  <rect class="st2" x="-189" y="243" width="1242" height="810" rx="81" ry="81" transform="translate(1080 216) rotate(90)"/>
  <rect class="st1" x="-162" y="270" width="1188" height="756" rx="54" ry="54" transform="translate(1080 216) rotate(90)"/>
  <g>
    <path class="st2" d="M317.1,206.3v144.7h-31v-216h31l59,129.6v-129.6h31v216h-23.4l-66.6-144.7Z"/>
    <path class="st2" d="M450.4,242.5c0-113.1,52.5-111.3,64.1-111.3s63.4-1.7,63.4,111.4-51.8,112.1-63.4,112.1-64.1,1.8-64.1-112.2ZM514.1,161.5c-6.2,0-34-1.3-34,81.2s27.8,81.8,34,81.8,34,1.3,34-81.8-27.8-81.2-34-81.2Z"/>
  </g>
  <g>
    <path class="st2" d="M113.3,442.1v65.9h14.8c16.7,0,22.8-8.6,22.8-31.1s-7.6-34.9-22.8-34.9h-14.8ZM128.1,536h-14.8v94h-27.3v-216h43.8c46.1,0,49.1,51.3,49.1,62.9,0,35.6-20.5,59.1-50.8,59.1Z"/>
    <path class="st2" d="M230.3,544.4h23.5l-11.4-56.9-12.1,56.9ZM259.9,572.4h-35.6l-12.1,57.6h-28l44-216h28l44.7,216h-28.8l-12.1-57.6Z"/>
    <path class="st2" d="M377.8,473.9c0-24.5-5.3-31.8-24.3-31.8h-13.3v59.1h17.8c15.1,0,19.7-6.8,19.7-27.3ZM383.1,522.5l22,107.5h-29.6l-20.6-100.8h-14.7v100.8h-27.3v-216h42.1c33.5,0,50.8,20.5,50.8,60.6s-6.1,38.6-22.7,47.8Z"/>
    <polygon class="st2" points="456.4 527.7 447 548.9 447 630 419.7 630 419.7 414 447 414 447 483 479.9 414 511.8 414 476.2 488.3 514.8 630 485.2 630 456.4 527.7"/>
    <rect class="st2" x="528.6" y="414" width="28.1" height="216"/>
    <polygon class="st2" points="602.9 501.9 602.9 630 575.7 630 575.7 414 602.9 414 641.5 521.6 641.5 414 668.6 414 668.6 630 645.2 630 602.9 501.9"/>
    <path class="st2" d="M735.3,411c24.4,0,40.4,15.2,42.7,41.7h-28.2c-.8-9.1-6.1-13.6-13.7-13.6-13.6,0-22.8,11.6-22.8,83.3s9.3,83.4,22.8,83.4,14.5-13.3,14.5-26.5v-25.8h-12.9v-28.1h40.4v53.8c0,14.1,2,54.6-42.6,54.6s-50.3-29.9-50.3-111.4,20.7-111.4,50.3-111.4Z"/>
  </g>
  <g>
    <path class="st2" d="M651.1,945.3h-9.9v62.7h-18.2v-144h29.2c30.7,0,32.8,34.2,32.8,41.9,0,23.7-13.7,39.4-33.9,39.4ZM641.2,882.7v44h9.9c11.1,0,15.2-5.8,15.2-20.7s-5.1-23.2-15.2-23.2h-9.9Z"/>
    <path class="st2" d="M753.5,922.6l-16.7,54.1-17.6-54.1v85.4h-18.2v-144h18.2l17.6,51,16.7-51h18.2v144h-18.2v-85.4Z"/>
  </g>
  <g>
    <g>
      <path class="st2" d="M562.7,780.6h-23.7l-8.1,38.4h-18.7l29.3-144h18.7l29.8,144h-19.2l-8.1-38.4ZM543,761.9h15.7l-7.6-37.9-8.1,37.9Z"/>
      <path class="st2" d="M658.6,733.6l-16.7,54.1-17.6-54.1v85.4h-18.2v-144h18.2l17.6,51,16.7-51h18.2v144h-18.2v-85.4Z"/>
    </g>
    <g>
      <path class="st2" d="M246.7,713.4c0,12.1-2.6,21.2-8.6,27.8,7.1,9.1,11.1,20.7,11.1,35.9,0,22.2-7.8,44.5-30.6,44.5s-31.4-35.1-31.4-44.5c0-14.7,4-26.8,11.1-35.9-6-7.1-8.6-15.1-8.6-27.8,0-24.7,11.1-40.9,28.3-40.9s28.6,16.1,28.6,40.9ZM230.5,777.1c0-16.1-4.3-24.7-11.9-24.7s-12.7,8.6-12.7,24.7,4.6,25.8,12.7,25.8,11.9-9.7,11.9-25.8ZM227.9,714.4c0-15.3-2.8-23.3-9.3-23.3s-10.1,8.1-10.1,23.3,3,19.2,10.1,19.2,9.3-6,9.3-19.2Z"/>
      <path class="st2" d="M264.2,718.2c0-6.1,4.8-10.6,10.1-10.6s10.1,4.5,10.1,10.6-4.3,10.6-10.1,10.6-10.1-4.5-10.1-10.6ZM264.2,775.8c0-6.1,4.8-10.6,10.1-10.6s10.1,4.5,10.1,10.6-4.3,10.6-10.1,10.6-10.1-4.5-10.1-10.6Z"/>
      <path class="st2" d="M315.7,792.2c.5,6.1,5.1,10.6,11.1,10.6,9.6,0,13.5-7.1,13.5-24.3s-3.9-28.8-16-28.8h-6.1v-18.7h4.5c10.1,0,14-5.6,14-22.2s-3.7-17.7-11.5-17.7-9,3.5-9.5,9.6h-18.7c1-17.7,12.1-28.3,28.3-28.3s30.2,12.2,30.2,36.4-2,21.2-7.6,31.3c9.5,8.2,11.1,21.4,11.1,38.4,0,41.4-21.7,42.9-32.7,42.9-19.6,0-29.3-19.3-29.3-29.3h18.7Z"/>
      <path class="st2" d="M407.1,821.5c-32.3,0-33.1-40.6-33.1-74.3s.8-74.2,33.1-74.2,33.1,40.6,33.1,74.2-.8,74.3-33.1,74.3ZM392.9,747.3c0,25.2.4,55.6,14.2,55.6s14.1-30.4,14.1-55.6-.3-55.6-14.1-55.6-14.2,30.4-14.2,55.6Z"/>
    </g>
  </g>
  <g>
    <path class="st2" d="M328.8,929.7c-4,0-6.6,2-10.1,6.1l-18.7-2,2.5-69.7h53.4v18.7h-35.7l-.5,29.3c4-.5,6.6-1,9.6-1,27.1,0,30.7,28.5,30.7,39.9s-5.4,59.6-40.2,59.6-14.6-2-21.7-6.6l9.6-16.2c5.1,3,8.2,4,13.3,4,15.9,0,20.4-34.2,20.4-44s-4.9-18.2-12.5-18.2Z"/>
    <path class="st2" d="M375,907.2c0-6.1,4.8-10.6,10.1-10.6s10.1,4.5,10.1,10.6-4.3,10.6-10.1,10.6-10.1-4.5-10.1-10.6ZM375,964.8c0-6.1,4.8-10.6,10.1-10.6s10.1,4.5,10.1,10.6-4.3,10.6-10.1,10.6-10.1-4.5-10.1-10.6Z"/>
    <path class="st2" d="M426.5,981.2c.5,6.1,5.1,10.6,11.1,10.6,9.6,0,13.5-7.1,13.5-24.3s-3.9-28.8-16-28.8h-6.1v-18.7h4.5c10.1,0,14-5.6,14-22.2s-3.7-17.7-11.5-17.7-9,3.5-9.5,9.6h-18.7c1-17.7,12.1-28.3,28.3-28.3s30.2,12.2,30.2,36.4-2,21.2-7.6,31.3c9.5,8.2,11.1,21.4,11.1,38.4,0,41.4-21.7,42.9-32.7,42.9-19.6,0-29.3-19.3-29.3-29.3h18.7Z"/>
    <path class="st2" d="M517.9,1010.5c-32.3,0-33.1-40.6-33.1-74.3s.8-74.2,33.1-74.2,33.1,40.6,33.1,74.2-.8,74.3-33.1,74.3ZM503.7,936.3c0,25.2.4,55.6,14.2,55.6s14.1-30.4,14.1-55.6-.3-55.6-14.1-55.6-14.2,30.4-14.2,55.6Z"/>
  </g>
  <g>
    <path class="st2" d="M128.3,1008h-18.2v-125.3h-17.8v-18.7h54.8v18.7h-18.8v125.3Z"/>
    <path class="st2" d="M192.9,1010.5c-32.3,0-33.1-40.6-33.1-74.3s.8-74.2,33.1-74.2,33.1,40.6,33.1,74.2-.8,74.3-33.1,74.3ZM178.7,936.3c0,25.2.4,55.6,14.2,55.6s14.1-30.4,14.1-55.6-.3-55.6-14.1-55.6-14.2,30.4-14.2,55.6Z"/>
  </g>
  <g>
    <rect class="st2" x="153" y="1089" width="462.4" height="54"/>
    <path class="st2" d="M594.4,1055.5c-.2-.8-.4-1.7-.4-2.5,0-5,4-9,9-9,1.8,0,3.5.5,5.1,1.6l102.9,70.4-102.9,70.4c-1.6,1.1-3.3,1.6-5.1,1.6-5,0-9-4-9-9,0-.8.1-1.7.4-2.5l17.6-60.5-17.6-60.5Z"/>
  </g>
</svg>