<?xml version="1.0" encoding="UTF-8"?>
<svg id="For_Sheets" xmlns="http://www.w3.org/2000/svg" version="1.1" viewBox="0 0 864 432">
  <!-- Generator: Adobe Illustrator 29.1.0, SVG Export Plug-In . SVG Version: 2.1.0 Build 142)  -->
  <defs>
    <style>
      .Grid_x0020_FILL_x0020_3 {
        fill: #231f20;
      }

      .st0 {
        fill: #fff;
      }
    </style>
  </defs>
  <path class="Grid_x0020_FILL_x0020_3" d="M756,0c59.4,0,108,48.6,108,108v216c0,59.4-48.6,108-108,108H108c-59.4,0-108-48.6-108-108V108C0,48.6,48.6,0,108,0h648M756-.2H108C79.2-.2,52.1,11,31.5,31.5,11,52.1-.2,79.2-.2,108v216c0,28.8,11.3,55.9,31.8,76.5,20.5,20.5,47.7,31.8,76.5,31.8h648c28.8,0,55.9-11.3,76.5-31.8,20.5-20.5,31.8-47.7,31.8-76.5V108c0-28.8-11.3-55.9-31.8-76.5S784.8-.2,756-.2h0Z"/>
  <rect class="Grid_x0020_FILL_x0020_3" x="243" y="-189" width="378" height="810" rx="81" ry="81" transform="translate(648 -216) rotate(90)"/>
  <rect class="st0" x="270" y="-162" width="324" height="756" rx="54" ry="54" transform="translate(648 -216) rotate(90)"/>
  <g>
    <path class="Grid_x0020_FILL_x0020_3" d="M205.5,221.6c-29.1,0-52.8,23.7-52.8,52.8s23.7,52.8,52.8,52.8,52.8-23.7,52.8-52.8-23.7-52.8-52.8-52.8Z"/>
    <path class="Grid_x0020_FILL_x0020_3" d="M665.5,245.4c-29.1,0-52.8,23.7-52.8,52.8s23.7,52.8,52.8,52.8,52.8-23.7,52.8-52.8-23.7-52.8-52.8-52.8Z"/>
    <path class="Grid_x0020_FILL_x0020_3" d="M820,203.6l-95.9.4-180.5-96.1h-72.4s-.4,13.9-.4,13.9l-145.8,96v-8.3l-26.4,9.1-21.6-65.4-74.1,16.7-70.3-50.3-93.2,14.2v11.5l89.1-11.9,32.9,46-122,21.6v94.4l95.9-14.8c-1.6-41.1,26.8-76.6,70.1-76.6s52.8,16,64.3,40.8l56.2-15.6,154.1-102.9h49.7l49,77.7h-65.8v100.8l82.5-.2c-2.8-41.1,27.5-76.7,70-76.7s70.4,35.5,70.1,77h84.7c0-.1-.3-101.1-.3-101.1ZM597,203.9l-48.3-72.8,132.3,72.8h-84Z"/>
  </g>
</svg>