<?xml version="1.0" encoding="UTF-8"?>
<svg id="For_Sheets" xmlns="http://www.w3.org/2000/svg" version="1.1" viewBox="0 0 864 1296">
  <!-- Generator: Adobe Illustrator 29.1.0, SVG Export Plug-In . SVG Version: 2.1.0 Build 142)  -->
  <defs>
    <style>
      .st0 {
        fill: #231f20;
      }

      .st1 {
        fill: #006f53;
      }

      .st2 {
        fill: #fff;
      }
    </style>
  </defs>
  <g>
    <rect class="st2" x="-.1" y="-.1" width="864.2" height="1296.2" rx="108.1" ry="108.1"/>
    <path class="st0" d="M756,0c59.4,0,108,48.6,108,108v1080c0,59.4-48.6,108-108,108H108c-59.4,0-108-48.6-108-108V108C0,48.6,48.6,0,108,0h648M756-.2H108C79.2-.2,52.1,11,31.5,31.5,11,52.1-.2,79.2-.2,108v1080c0,28.8,11.3,55.9,31.8,76.5,20.5,20.5,47.7,31.8,76.5,31.8h648c28.8,0,55.9-11.3,76.5-31.8,20.5-20.5,31.8-47.7,31.8-76.5V108c0-28.8-11.3-55.9-31.8-76.5C811.9,11,784.8-.2,756-.2h0Z"/>
  </g>
  <path class="st1" d="M27,1188V108c0-44.7,36.3-81,81-81h648c44.7,0,81,36.3,81,81v1080c0,44.7-36.3,81-81,81H108c-44.7,0-81-36.3-81-81ZM279,54v405h531V108.2c0-30-24.3-54.2-54.2-54.2h-476.8ZM54,486v702c0,29.8,24.2,54,54,54h648c29.8,0,54-24.2,54-54V486H54Z"/>
  <path class="st2" d="M120.4,253.1h106.1v34.9H79.5c.8-25,6-45.5,18.2-65.9,37.9-63.3,94.7-57,94.7-90.2s-18.1-28.8-39.4-28.8-35.6,10.6-39.4,30.3l-34.1-7.6c7.6-35.6,35.6-57.6,73.5-57.6s73.5,28.8,73.5,64.4-14.8,42.3-34.1,54.2c-29.1,18.1-55.8,26.1-72,66.3Z"/>
  <g>
    <path class="st2" d="M129.2,401.1h-29.5v48.9h-15.5v-108h15.5v44h29.5v-44h15.5v108h-15.5v-48.9Z"/>
    <path class="st2" d="M191.6,399.2h-14.8v50.8h-15.5v-108h32.1c16.9,0,28.4,11.4,28.4,28.8s-5.3,22.4-15.5,26.1l15.5,53.1h-15.9l-14.4-50.8ZM176.8,357.2v27.3h15.9c9.1,0,14-4.9,14-13.6s-5.7-13.6-14-13.6h-15.9Z"/>
  </g>
  <g>
    <path class="st1" d="M248.4,649.9c-25.2,0-30.4-23.4-30.4-33.7s3.4-20.1,10.3-26.9c-5.7-6.1-8.7-13.6-8.7-22.4,0-16.7,11.8-28.8,28.9-28.8s28.5,12.1,28.5,28.8-3,16.7-8.7,22.4c6.9,6.4,10.3,16.3,10.3,26.9s-4.8,33.7-30.1,33.7ZM233.1,616.2c0,11,6.1,18.6,15.2,18.6s15.2-7.6,15.2-18.6-6.1-19.3-15.2-19.3-15.2,7.6-15.2,19.3ZM234.6,566.9c0,8.7,5.7,14.4,13.7,14.4s13.3-5.8,13.3-14.4-5.6-13.6-13.3-13.6-13.7,5.6-13.7,13.6Z"/>
    <path class="st1" d="M292.5,572.4c0-4.9,3.8-8.7,8.8-8.7s8.5,3.8,8.5,8.7-3.9,8.3-8.5,8.3-8.8-3.8-8.8-8.3ZM292.5,615.6c0-4.8,4-8.7,8.8-8.7s8.5,4.2,8.5,8.7-3.8,8.7-8.5,8.7-8.8-3.8-8.8-8.7Z"/>
    <path class="st1" d="M354.2,553.3c-6.9,0-11.1,4.2-11.8,11.4l-15.2-1.9c1.5-14.4,12.6-24.6,27-24.6s27.4,11.8,27.4,27.7-2.7,16.3-9.9,24.6c8.4,7.6,12.6,17.4,12.6,28.4,0,17.8-12.6,31.1-30.1,31.1s-29.7-12.5-30.4-30.3h15.2c.8,8.7,6.8,15.2,15.2,15.2s15.2-7,15.2-15.9-6.5-20.8-14.1-20.8h-7.6v-14.8h7.4c5.5,0,11.7-7.8,11.7-16.3s-5-13.6-12.6-13.6Z"/>
    <path class="st1" d="M405.4,593.8c0-56.6,26.2-55.7,32.1-55.7s31.7-.9,31.7,55.7-25.9,56.1-31.7,56.1-32.1.9-32.1-56.1ZM437.2,553.3c-3.1,0-17-.6-17,40.6s13.9,40.9,17,40.9,17,.6,17-40.9-13.9-40.6-17-40.6Z"/>
    <path class="st1" d="M531.9,618.4h-23.2l-7.2,29.6h-15.6l27-108h15.2l27,108h-15.6l-7.6-29.6ZM512.5,603.3h15.6l-8-31.1-7.6,31.1Z"/>
    <path class="st1" d="M630.5,587.4l-20.1,60.6-20.1-60.6v60.6h-15.6v-108h15.6l20.1,60.6,20.1-60.6h15.6v108h-15.6v-60.6Z"/>
  </g>
  <g>
    <path class="st1" d="M239.2,828h-15.6v-93.6h-19.8v-14.4h55.1v14.4h-19.8v93.6Z"/>
    <path class="st1" d="M275.9,773.8c0-56.6,26.2-55.6,32.1-55.6s31.7-.9,31.7,55.7-25.9,56.1-31.7,56.1-32.1.9-32.1-56.1ZM307.7,733.3c-3.1,0-17-.6-17,40.6s13.9,40.9,17,40.9,17,.6,17-40.9-13.9-40.6-17-40.6Z"/>
  </g>
  <g>
    <path class="st1" d="M424.9,828c0-25.9,7.7-63.5,27.4-92.8h-40.7v-15.2h60.5v15.2c-22.7,25.8-32,66.3-32,92.8h-15.2Z"/>
    <path class="st1" d="M515.7,780.6v47.4h-15.5v-108h32.1c17,0,28.4,12.2,28.4,30.3s-10.2,30.3-28.4,30.3h-16.6ZM515.7,765.8h15.9c9.1,0,14-5.7,14-15.5s-5.7-15.2-14-15.2h-15.9v30.7Z"/>
    <path class="st1" d="M644.6,767.4l-20.1,60.6-20.1-60.6v60.6h-15.6v-108h15.6l20.1,60.6,20.1-60.6h15.6v108h-15.6v-60.6Z"/>
  </g>
  <g>
    <path class="st1" d="M236.2,947.4l-20.1,60.6-20.1-60.6v60.6h-15.6v-108h15.6l20.1,60.6,20.1-60.6h15.6v108h-15.6v-60.6Z"/>
    <path class="st1" d="M279.8,953.8c0-56.6,26.2-55.6,32-55.6s31.7-.9,31.7,55.7-25.9,56.1-31.7,56.1-32,.9-32-56.1ZM311.7,913.3c-3.1,0-17-.6-17,40.6s13.9,40.9,17,40.9,17,.6,17-40.9-13.9-40.6-17-40.6Z"/>
    <path class="st1" d="M387.2,935.6v72.4h-15.5v-108h15.5l29.5,64.8v-64.8h15.5v108h-11.7l-33.3-72.4Z"/>
    <path class="st1" d="M451.8,949.3h37.8v14.4h-37.8v-14.4Z"/>
    <path class="st1" d="M524.9,942.4h21.7v14.8h-21.7v50.8h-15.6v-108h55.1v15.2h-39.5v27.3Z"/>
    <path class="st1" d="M614.3,957.2h-14.8v50.8h-15.5v-108h32.1c16.9,0,28.4,11.4,28.4,28.8s-5.3,22.4-15.5,26.1l15.5,53.1h-15.9l-14.4-50.8ZM599.6,915.2v27.3h15.9c9.1,0,14-4.9,14-13.6s-5.7-13.6-14-13.6h-15.9Z"/>
    <path class="st1" d="M668.5,900h15.1v108h-15.1v-108Z"/>
  </g>
  <g>
    <path class="st1" d="M350.4,148.6l-16.7,54.1-17.6-54.1v85.4h-18.2V90h18.2l17.6,51,16.7-51h18.2v144h-18.2v-85.4Z"/>
    <path class="st1" d="M387.6,90h52.7v18.7h-34.6v36.9h23.1v19.2h-23.1v50.5h36.7v18.7h-54.8V90Z"/>
    <path class="st1" d="M485.2,234h-18.2v-125.3h-17.8v-18.7h54.7v18.7h-18.8v125.3Z"/>
    <path class="st1" d="M516.1,90h52.7v18.7h-34.6v36.9h23.1v19.2h-23.1v50.5h36.7v18.7h-54.7V90Z"/>
    <path class="st1" d="M631.5,162.3l14.7,71.7h-19.7l-13.7-67.2h-9.8v67.2h-18.2V90h28.1c22.3,0,33.9,13.6,33.9,40.4s-4.1,25.7-15.2,31.9ZM627.9,129.9c0-16.3-3.6-21.2-16.2-21.2h-8.9v39.4h11.9c10.1,0,13.1-4.5,13.1-18.2Z"/>
    <path class="st1" d="M660.5,90h52.7v18.7h-34.6v36.9h23.1v19.2h-23.1v50.5h36.7v18.7h-54.7V90Z"/>
    <path class="st1" d="M729,234V90h29.7c12.1,0,32.2.6,32.2,71.7s-20.2,72.3-32.2,72.3h-29.7ZM747.2,108.7v106.6h11.6c14,0,13.4-21.6,13.4-53.5,0-47.7-4.4-53.1-13.4-53.1h-11.6Z"/>
  </g>
  <g>
    <path class="st1" d="M328.5,360.3h-9.9v62.7h-18.2v-144h29.2c30.7,0,32.8,34.2,32.8,41.9,0,23.7-13.7,39.4-33.9,39.4ZM318.7,297.7v44h9.9c11.1,0,15.2-5.8,15.2-20.7s-5.1-23.2-15.2-23.2h-9.9Z"/>
    <path class="st1" d="M418.1,384.6h-23.7l-8.1,38.4h-18.7l29.3-144h18.7l29.8,144h-19.2l-8.1-38.4ZM398.4,365.9h15.7l-7.6-37.9-8.1,37.9Z"/>
    <path class="st1" d="M504.3,351.3l14.7,71.7h-19.7l-13.7-67.2h-9.8v67.2h-18.2v-144h28.1c22.3,0,33.9,13.6,33.9,40.4s-4.1,25.7-15.2,31.9ZM500.7,318.9c0-16.3-3.6-21.2-16.2-21.2h-8.9v39.4h11.9c10.1,0,13.1-4.5,13.1-18.2Z"/>
    <path class="st1" d="M557.8,354.8l-6.3,14.1v54.1h-18.2v-144h18.2v46l22-46h21.2l-23.7,49.5,25.7,94.5h-19.7l-19.2-68.2Z"/>
    <path class="st1" d="M610.5,279h18.7v144h-18.7v-144Z"/>
    <path class="st1" d="M666.4,337.6v85.4h-18.2v-144h18.2l25.7,71.7v-71.7h18.1v144h-15.6l-28.2-85.4Z"/>
    <path class="st1" d="M760.1,277c16.3,0,26.9,10.1,28.4,27.8h-18.8c-.5-6.1-4.1-9.1-9.1-9.1-9,0-15.2,7.7-15.2,55.5s6.2,55.6,15.2,55.6,9.6-8.9,9.6-17.7v-17.2h-8.6v-18.7h26.9v35.9c0,9.4,1.3,36.4-28.4,36.4s-33.6-19.9-33.6-74.3,13.8-74.2,33.5-74.2Z"/>
  </g>
  <g>
    <rect class="st1" x="153" y="1089" width="462.4" height="54"/>
    <path class="st1" d="M594.4,1055.5c-.2-.8-.4-1.7-.4-2.5,0-5,4-9,9-9,1.8,0,3.5.5,5.1,1.6l102.9,70.4-102.9,70.4c-1.6,1.1-3.3,1.6-5.1,1.6-5,0-9-4-9-9,0-.8.1-1.7.4-2.5l17.6-60.5-17.6-60.5Z"/>
  </g>
</svg>