<?xml version="1.0" encoding="UTF-8"?>
<svg id="For_Sheets" xmlns="http://www.w3.org/2000/svg" version="1.1" viewBox="0 0 2592 2592">
  <!-- Generator: Adobe Illustrator 29.1.0, SVG Export Plug-In . SVG Version: 2.1.0 Build 142)  -->
  <defs>
    <style>
      .st0 {
        fill: #231f20;
      }

      .st1 {
        fill: #fff;
      }

      .st2 {
        fill: #bf311a;
      }
    </style>
  </defs>
  <g>
    <path class="st1" d="M162,2592.1c-43.1,0-83.8-16.9-114.5-47.6S-.1,2473.1-.1,2430V162C-.1,118.9,16.8,78.2,47.5,47.5S118.9-.1,162-.1h2268c43.1,0,83.8,16.9,114.5,47.6s47.6,71.4,47.6,114.5v2268c0,43.1-16.9,83.8-47.6,114.5s-71.4,47.6-114.5,47.6H162Z"/>
    <path class="st0" d="M2430,0c89.1,0,162,72.9,162,162v2268c0,89.1-72.9,162-162,162H162c-89.1,0-162-72.9-162-162V162C0,72.9,72.9,0,162,0h2268M2430-.2H162c-21.8,0-43,4.3-63,12.8-19.3,8.2-36.7,19.9-51.6,34.9-14.9,14.9-26.7,32.3-34.9,51.6C4.1,119-.2,140.2-.2,162v2268c0,21.8,4.3,43,12.8,63,8.2,19.3,19.9,36.7,34.9,51.6,14.9,14.9,32.3,26.7,51.6,34.9,20,8.5,41.2,12.8,63,12.8h2268c21.8,0,43-4.3,63-12.8,19.3-8.2,36.7-19.9,51.6-34.9,14.9-14.9,26.7-32.3,34.9-51.6,8.5-20,12.8-41.2,12.8-63V162c0-21.8-4.3-43-12.8-63-8.2-19.3-19.9-36.7-34.9-51.6s-32.3-26.7-51.6-34.9c-20-8.5-41.2-12.8-63-12.8h0Z"/>
  </g>
  <path class="st2" d="M162,2547c-64.5,0-117-52.5-117-117V162c0-64.5,52.5-117,117-117h2268c64.5,0,117,52.5,117,117v2268c0,64.5-52.5,117-117,117H162ZM2430,2484c29.8,0,54-24.2,54-54V162c0-29.8-24.2-54-54-54H162c-29.8,0-54,24.2-54,54v2268c0,29.8,24.2,54,54,54h2268Z"/>
  <path class="st0" d="M1144.7,1459.1v484.9h-253.7V648h654.3c200.6,0,396.1,168.5,396.1,403.2s-165.2,407.9-413.6,407.9h-383.1ZM1144.7,906.2v294.5h379.9c99.6,0,163.1-59,163.1-149.5s-67.9-145-163.1-145h-379.9Z"/>
  <path class="st2" d="M1296,162c-626.3,0-1134,507.7-1134,1134s507.7,1134,1134,1134,1134-507.7,1134-1134S1922.3,162,1296,162ZM2214,1296c0,214.6-73.6,412-197,568.3L727.7,575c156.3-123.4,353.7-197,568.3-197,507,0,918,411,918,918ZM378,1296c0-214.6,73.6-412,197-568.3l1289.3,1289.3c-156.3,123.4-353.7,197-568.3,197-507,0-918-411-918-918Z"/>
</svg>