<?xml version="1.0" encoding="UTF-8"?>
<svg id="For_Sheets" xmlns="http://www.w3.org/2000/svg" version="1.1" viewBox="0 0 2592 3456">
  <!-- Generator: Adobe Illustrator 29.1.0, SVG Export Plug-In . SVG Version: 2.1.0 Build 142)  -->
  <defs>
    <style>
      .st0 {
        fill: #231f20;
      }

      .st1 {
        fill: #fff;
      }

      .st2 {
        fill: #bf311a;
      }
    </style>
  </defs>
  <g>
    <path class="st1" d="M162,3456.1c-43.1,0-83.8-16.9-114.5-47.6-30.7-30.7-47.6-71.4-47.6-114.5V162C-.1,118.9,16.8,78.2,47.5,47.5,78.2,16.8,118.9-.1,162-.1h2268c43.1,0,83.8,16.9,114.5,47.6,30.7,30.7,47.6,71.4,47.6,114.5v3132c0,43.1-16.9,83.8-47.6,114.5s-71.4,47.6-114.5,47.6H162Z"/>
    <path class="st0" d="M2430,0c89.1,0,162,72.9,162,162v3132c0,89.1-72.9,162-162,162H162c-89.1,0-162-72.9-162-162V162C0,72.9,72.9,0,162,0h2268M2430-.2H162c-21.8,0-43,4.3-63,12.8-19.3,8.2-36.7,19.9-51.6,34.9-14.9,14.9-26.7,32.3-34.9,51.6C4.1,119-.2,140.2-.2,162v3132c0,21.8,4.3,43,12.8,63,8.2,19.3,19.9,36.7,34.9,51.6,14.9,14.9,32.3,26.7,51.6,34.9,20,8.5,41.2,12.8,63,12.8h2268c21.8,0,43-4.3,63-12.8,19.3-8.2,36.7-19.9,51.6-34.9,14.9-14.9,26.7-32.3,34.9-51.6,8.5-20,12.8-41.2,12.8-63V162c0-21.8-4.3-43-12.8-63-8.2-19.3-19.9-36.7-34.9-51.6-14.9-14.9-32.3-26.7-51.6-34.9-20-8.5-41.2-12.8-63-12.8h0Z"/>
  </g>
  <path class="st2" d="M162,3411c-31.1,0-60.4-12.2-82.6-34.4-22.2-22.2-34.4-51.5-34.4-82.6V162c0-31.1,12.2-60.4,34.4-82.6,22.2-22.2,51.5-34.4,82.6-34.4h2268c31.1,0,60.4,12.2,82.6,34.4,22.2,22.2,34.4,51.5,34.4,82.6v3132c0,31.1-12.2,60.4-34.4,82.6-22.2,22.2-51.5,34.4-82.6,34.4H162Z"/>
  <path class="st1" d="M162,3348c-14.5,0-27.6-5.5-38-16-10.4-10.4-16-23.6-16-38V162c0-14.5,5.5-27.6,16-38s23.6-16,38-16h2268c14.5,0,27.6,5.5,38,16,10.4,10.4,16,23.6,16,38v3132c0,14.5-5.5,27.6-16,38-10.4,10.4-23.6,16-38,16H162Z"/>
  <g>
    <path class="st2" d="M969.5,594.7v341.3h-79.5v-504h79.5l184,321.9v-321.9h79.6v504h-70.7l-192.8-341.3Z"/>
    <path class="st2" d="M1702.1,684c0,18.1,3.8,260.8-179,260.8s-179-242.7-179-260.8-3.8-260.8,179-260.8,179,242.7,179,260.8ZM1523.9,863.5c54.3,0,98.4-51.5,98.4-179.5s-44.1-179.5-98.4-179.5-98.4,51.4-98.4,179.5,44.1,179.5,98.4,179.5Z"/>
  </g>
  <g>
    <path class="st2" d="M362.9,1509.9h74.1c42.3,0,65.3-26.5,65.3-72.4s-26.7-70.7-65.3-70.7h-74.1v143.2ZM362.9,1578.9v221.1h-72.3v-504h150c79.4,0,132.4,56.8,132.4,141.5s-47.7,141.4-132.4,141.4h-77.7Z"/>
    <path class="st2" d="M721.3,1591.3h72.7l-37.2-145-35.5,145ZM811.7,1662.1h-108.1l-33.7,137.9h-72.7l125.9-504h71l125.8,504h-72.7l-35.5-137.9Z"/>
    <path class="st2" d="M1020.4,1366.8v127.3h74.1c42.5,0,65.3-23,65.3-63.7s-26.5-63.6-65.3-63.6h-74.1ZM1089.3,1563.1h-68.9v236.9h-72.3v-504h150c79.1,0,132.4,53,132.4,134.4s-24.8,104.3-72.4,122l72.3,247.6h-74l-67.1-236.9Z"/>
    <polygon class="st2" points="1383 1554.2 1337.1 1639 1337.1 1800 1264.8 1800 1264.8 1296 1337.1 1296 1337.1 1497.6 1451.8 1296 1534.8 1296 1430.6 1472.8 1547.1 1800 1471.3 1800 1383 1554.2"/>
    <rect class="st2" x="1581.4" y="1296" width="70.6" height="504"/>
    <polygon class="st2" points="1768.6 1462.3 1768.6 1800 1696.3 1800 1696.3 1296 1768.6 1296 1906.3 1598.4 1906.3 1296 1978.7 1296 1978.7 1800 1924 1800 1768.6 1462.3"/>
    <path class="st2" d="M2175.3,1808.8c-45.9,0-156.3-8.5-156.3-259.9s105-261.6,150.9-261.6c72.8,0,127.9,53,131.4,127.3h-72.8c-1.8-33.6-24.8-56.6-60.4-56.6s-79.9,7.6-79.9,191.1,60.9,189.2,85.2,189.2c37.3,0,55.1-24.6,55.1-77.8v-33.6h-56.8v-70.8h129.7v104.3c0,126.1-83,148.6-126.1,148.6Z"/>
  </g>
  <g>
    <path class="st2" d="M556.1,2840.9c31.5,19.8,78.7,47.4,78.7,104.3s-35.5,83.8-80.2,83.8-81.2-42.9-81.2-89.9h40.6c0,24.5,12.2,49.5,40.6,49.5s40.6-20.2,40.6-43.5c0-62.6-107.5-59-107.5-139.5s32.5-74.7,74-74.7,72.1,31.3,73.1,74.8h-39.6c-1-20.2-15.2-33.3-33.5-33.3s-34.5,14.1-34.5,33.3,9.9,23.3,28.8,35.2Z"/>
    <path class="st2" d="M803.8,2893.6h-78.7v130.4h-41.3v-288h41.3v117.2h78.7v-117.2h41.4v288h-41.3v-130.4Z"/>
    <path class="st2" d="M902.7,2879.4c0-150.8,69.9-148.4,85.5-148.4s84.5-2.3,84.5,148.5-69,149.5-84.5,149.5-85.5,2.4-85.5-149.6ZM987.7,2771.4c-8.2,0-45.3-1.7-45.3,108.2s37.1,109,45.3,109,45.3,1.7,45.3-109-37.1-108.2-45.3-108.2Z"/>
    <path class="st2" d="M1130.3,2940.3v-204.3h41.3v207.1c0,27.1,15.8,45.5,40.3,45.5s38.3-18.2,38.3-45.5v-207.1h41.4v204.9c0,65.5-50.6,88.1-79.7,88.1s-81.6-17.3-81.6-88.7Z"/>
    <path class="st2" d="M1355,2736h41.5v249.6h105.4v38.4h-146.9v-288Z"/>
    <path class="st2" d="M1542.3,3024v-288h82.2c17.6,0,79.2.9,79.2,143.5s-56.9,144.5-75.7,144.5h-85.6ZM1615.9,2776.4h-32.3v207.1h28.7c33.7,0,50.9-14.7,50.9-102.1s-25.2-105.1-47.4-105.1Z"/>
    <path class="st2" d="M1761.3,2736h135.8v40.4h-94.2v72.8h59.8v39.4h-59.8v95h105.4v40.4h-146.9v-288Z"/>
    <path class="st2" d="M2037.9,2888.6h-39.3v135.4h-41.3v-288h85.7c45.2,0,75.6,30.3,75.6,76.8s-14.1,59.6-41.4,69.7l41.3,141.5h-42.3l-38.3-135.4ZM1998.5,2776.4v72.8h42.3c24.3,0,37.3-13.1,37.3-36.4s-15.1-36.4-37.3-36.4h-42.4Z"/>
  </g>
  <g>
    <path class="st2" d="M444,2160h135.8v40.4h-94.2v72.8h59.8v39.4h-59.8v95h105.4v40.4h-146.9v-288Z"/>
    <path class="st2" d="M701.3,2350l-40.7,98h-43.8l63.1-149.5-59-138.5h43.8l36.6,86.9,36.6-86.9h43.8l-58,138.5,63.1,149.5h-44.8l-40.7-98Z"/>
    <path class="st2" d="M941.1,2236.8c-4-28.3-15.2-41.4-34.5-41.4-33.5,0-45.7,26.3-45.7,101s14.2,116.2,49.7,116.2,30.4-20.2,30.4-41.4h41.6c-1,47.5-31.4,81.9-72,81.9-61.9,0-89.3-49.5-89.3-155.6s29.4-142.4,86.3-142.4,73.7,48.1,75.1,81.8h-41.6Z"/>
    <path class="st2" d="M1040.3,2160h135.8v40.4h-94.2v72.8h59.8v39.4h-59.8v95h105.4v40.4h-146.9v-288Z"/>
    <path class="st2" d="M1277.6,2321.7v126.3h-41.3v-288h85.7c45.4,0,75.6,32.5,75.6,80.9s-27.3,80.8-75.6,80.8h-44.4ZM1277.6,2282.3h42.3c24.2,0,37.3-15.1,37.3-41.4s-15.3-40.4-37.3-40.4h-42.4v81.8Z"/>
    <path class="st2" d="M1526.4,2448h-41.5v-249.6h-52.7v-38.4h146.9v38.4h-52.7v249.6Z"/>
  </g>
  <g>
    <path class="st2" d="M1759.1,2303.4c0-150.8,69.9-148.4,85.5-148.4s84.5-2.3,84.5,148.5-69,149.5-84.5,149.5-85.5,2.4-85.5-149.6ZM1844.1,2195.4c-8.2,0-45.3-1.7-45.3,108.2s37.1,109,45.3,109,45.3,1.7,45.3-109-37.1-108.2-45.3-108.2Z"/>
    <path class="st2" d="M2028,2255v193h-41.3v-288h41.3l78.7,172.8v-172.8h41.4v288h-31.2l-88.8-193Z"/>
  </g>
</svg>