<?xml version="1.0" encoding="UTF-8"?>
<svg id="For_Sheets" xmlns="http://www.w3.org/2000/svg" version="1.1" viewBox="0 0 2592 2592">
  <!-- Generator: Adobe Illustrator 29.1.0, SVG Export Plug-In . SVG Version: 2.1.0 Build 142)  -->
  <defs>
    <style>
      .st0 {
        fill: #231f20;
      }

      .st1 {
        fill: #fff;
      }

      .st2 {
        fill: #bf311a;
      }
    </style>
  </defs>
  <g>
    <path class="st1" d="M162,2592.1c-43.1,0-83.8-16.9-114.5-47.6S-.1,2473.1-.1,2430V162C-.1,118.9,16.8,78.2,47.5,47.5S118.9-.1,162-.1h2268c43.1,0,83.8,16.9,114.5,47.6s47.6,71.4,47.6,114.5v2268c0,43.1-16.9,83.8-47.6,114.5s-71.4,47.6-114.5,47.6H162Z"/>
    <path class="st0" d="M2430,0c89.1,0,162,72.9,162,162v2268c0,89.1-72.9,162-162,162H162c-89.1,0-162-72.9-162-162V162C0,72.9,72.9,0,162,0h2268M2430-.2H162c-21.8,0-43,4.3-63,12.8-19.3,8.2-36.7,19.9-51.6,34.9-14.9,14.9-26.7,32.3-34.9,51.6C4.1,119-.2,140.2-.2,162v2268c0,21.8,4.3,43,12.8,63,8.2,19.3,19.9,36.7,34.9,51.6s32.3,26.7,51.6,34.9c20,8.5,41.2,12.8,63,12.8h2268c21.8,0,43-4.3,63-12.8,19.3-8.2,36.7-19.9,51.6-34.9,14.9-14.9,26.7-32.3,34.9-51.6,8.5-20,12.8-41.2,12.8-63V162c0-21.8-4.3-43-12.8-63-8.2-19.3-19.9-36.7-34.9-51.6-14.9-14.9-32.3-26.7-51.6-34.9-20-8.5-41.2-12.8-63-12.8h0Z"/>
  </g>
  <g>
    <path class="st2" d="M162,2547c-64.5,0-117-52.5-117-117V162c0-64.5,52.5-117,117-117h2268c64.5,0,117,52.5,117,117v2268c0,64.5-52.5,117-117,117H162Z"/>
    <path class="st1" d="M162,2484c-29.8,0-54-24.2-54-54V162c0-29.8,24.2-54,54-54h2268c29.8,0,54,24.2,54,54v2268c0,29.8-24.2,54-54,54H162Z"/>
  </g>
  <g>
    <path class="st2" d="M922.8,726v390h-90.9v-576h90.9l210.2,367.8v-367.8h91v576h-80.9l-220.4-390Z"/>
    <path class="st2" d="M1760.1,828c0,20.7,4.4,298.1-204.6,298.1s-204.6-277.4-204.6-298.1-4.4-298,204.6-298,204.6,277.3,204.6,298ZM1556.4,1033.2c62.1,0,112.5-58.8,112.5-205.2s-50.4-205.2-112.5-205.2-112.5,58.8-112.5,205.2,50.4,205.2,112.5,205.2Z"/>
  </g>
  <g>
    <path class="st2" d="M337.2,1830.9v221.1h-72.3v-504h150c79.4,0,132.4,56.8,132.4,141.5s-47.7,141.4-132.4,141.4h-77.7ZM337.2,1761.9h74.1c42.3,0,65.3-26.5,65.3-72.4s-26.7-70.7-65.3-70.7h-74.1v143.2Z"/>
    <path class="st2" d="M792.1,1914.1h-108.1l-33.7,137.9h-72.7l125.9-504h71l125.8,504h-72.7l-35.5-137.9ZM701.6,1843.3h72.7l-37.2-145-35.5,145Z"/>
    <path class="st2" d="M1076.7,1815.1h-68.9v236.9h-72.3v-504h150c79.1,0,132.4,53,132.4,134.4s-24.8,104.3-72.4,122l72.3,247.6h-74l-67.1-236.9ZM1007.8,1618.8v127.3h74.1c42.5,0,65.3-23,65.3-63.7s-26.5-63.6-65.3-63.6h-74.1Z"/>
    <path class="st2" d="M1379,1806.2l-45.9,84.8v161h-72.3v-504h72.3v201.6l114.7-201.6h83l-104.2,176.8,116.5,327.2h-75.8l-88.3-245.8Z"/>
    <path class="st2" d="M1585.9,1548h70.6v504h-70.6v-504Z"/>
    <path class="st2" d="M1784.3,1714.3v337.7h-72.3v-504h72.3l137.7,302.4v-302.4h72.4v504h-54.7l-155.4-337.7Z"/>
    <path class="st2" d="M2201,2060.8c-45.9,0-156.3-8.5-156.3-259.9s105-261.6,150.9-261.6c72.8,0,127.9,53,131.4,127.3h-72.8c-1.8-33.6-24.8-56.6-60.4-56.6s-79.9,7.6-79.9,191.1,60.9,189.2,85.2,189.2c37.3,0,55.1-24.6,55.1-77.8v-33.6h-56.8v-70.8h129.7v104.3c0,126.1-83,148.6-126.1,148.6Z"/>
  </g>
</svg>