<?xml version="1.0" encoding="UTF-8"?>
<svg id="For_Sheets" xmlns="http://www.w3.org/2000/svg" version="1.1" viewBox="0 0 2160 2160">
  <!-- Generator: Adobe Illustrator 29.1.0, SVG Export Plug-In . SVG Version: 2.1.0 Build 142)  -->
  <defs>
    <style>
      .st0 {
        fill: #231f20;
      }

      .st1 {
        fill: #fff;
      }

      .st2 {
        fill: #bf311a;
      }
    </style>
  </defs>
  <g>
    <rect class="st1" x="-.1" y="-.1" width="2160.2" height="2160.2" rx="135.1" ry="135.1"/>
    <path class="st0" d="M2025,0c74.6,0,135,60.4,135,135v1890c0,74.6-60.4,135-135,135H135c-74.6,0-135-60.4-135-135V135C0,60.4,60.4,0,135,0h1890M2025-.2H135C98.9-.2,64.9,13.8,39.4,39.4,13.8,64.9-.2,98.9-.2,135v1890c0,36.1,14.1,70.1,39.6,95.6,25.5,25.5,59.5,39.6,95.6,39.6h1890c36.1,0,70.1-14.1,95.6-39.6,25.5-25.5,39.6-59.5,39.6-95.6V135c0-36.1-14.1-70.1-39.6-95.6-25.5-25.5-59.5-39.6-95.6-39.6h0Z"/>
  </g>
  <path class="st2" d="M135,2124c-54.6,0-99-44.4-99-99V135c0-54.6,44.4-99,99-99h1890c54.6,0,99,44.4,99,99v1890c0,54.6-44.4,99-99,99H135ZM2025,2070c24.8,0,45-20.2,45-45V135c0-24.8-20.2-45-45-45H135c-24.8,0-45,20.2-45,45v1890c0,24.8,20.2,45,45,45h1890Z"/>
  <path class="st0" d="M952.5,1215.9v404.1h-211.4V540h545.3c167.1,0,330.1,140.4,330.1,336s-137.7,339.9-344.7,339.9h-319.3ZM952.5,755.2v245.4h316.6c83,0,135.9-49.1,135.9-124.6s-56.6-120.8-135.9-120.8h-316.6Z"/>
  <path class="st2" d="M1080,135c-521.9,0-945,423.1-945,945s423.1,945,945,945,945-423.1,945-945S1601.9,135,1080,135ZM315,1080c0-178.8,61.4-343.3,164.2-473.6l1074.4,1074.4c-130.3,102.8-294.7,164.2-473.6,164.2-422.5,0-765-342.5-765-765ZM1680.8,1553.6L606.4,479.2c130.3-102.8,294.7-164.2,473.6-164.2,422.5,0,765,342.5,765,765s-61.4,343.3-164.2,473.6Z"/>
</svg>