<?xml version="1.0" encoding="UTF-8"?>
<svg id="For_Sheets" xmlns="http://www.w3.org/2000/svg" version="1.1" viewBox="0 0 2160 2160">
  <!-- Generator: Adobe Illustrator 29.1.0, SVG Export Plug-In . SVG Version: 2.1.0 Build 142)  -->
  <defs>
    <style>
      .st0, .st1 {
        fill: #231f20;
      }

      .st2 {
        fill: #fff;
      }

      .st1 {
        fill-rule: evenodd;
      }

      .st3 {
        fill: #bf311a;
      }
    </style>
  </defs>
  <g>
    <rect class="st2" x="-.1" y="-.1" width="2160.2" height="2160.2" rx="135.1" ry="135.1"/>
    <path class="st0" d="M2025,0c74.6,0,135,60.4,135,135v1890c0,74.6-60.4,135-135,135H135c-74.6,0-135-60.4-135-135V135C0,60.4,60.4,0,135,0h1890M2025-.2H135C98.9-.2,64.9,13.8,39.4,39.4,13.8,64.9-.2,98.9-.2,135v1890c0,36.1,14.1,70.1,39.6,95.6,25.5,25.5,59.5,39.6,95.6,39.6h1890c36.1,0,70.1-14.1,95.6-39.6,25.5-25.5,39.6-59.5,39.6-95.6V135c0-36.1-14.1-70.1-39.6-95.6-25.5-25.5-59.5-39.6-95.6-39.6h0Z"/>
  </g>
  <path class="st0" d="M2025,36H135c-54.6,0-99,44.4-99,99v1890c0,54.6,44.4,99,99,99h1890c54.6,0,99-44.4,99-99V135c0-54.6-44.4-99-99-99ZM2070,2025c0,24.8-20.2,45-45,45H135c-24.8,0-45-20.2-45-45V135c0-24.8,20.2-45,45-45h1890c24.8,0,45,20.2,45,45v1890Z"/>
  <g>
    <path class="st1" d="M1100.8,547.5c34.3,0,62.2-28,62.2-62.2s-28-62.2-62.2-62.2-62.2,28-62.2,62.2,28,62.2,62.2,62.2Z"/>
    <path class="st1" d="M1697.7,1531c-23.1-62.7-37.1-131-37.9-207.7-3.6-9.4-7.2-18.8-10.8-28.1-23.7-26.7-45.7-57.8-63.8-98.4,3.2-5,6.5-10.1,9.7-15.1,31.8,53.3,67.5,70.1,104.9,70.3-28-52.5-40.6-112-37.9-178.5,13.1-127-57.6-192.7-212-196.8-77.8,5.2-157.6,17.7-222.8-23.8,3.9-120-2.5-234.5-68.1-318-20.5,12.5-41.6,21.2-63.8,21.6-9,45.8-18,91.6-27,137.4-1.2,8.4-4,14.1-8.7,17.3-45.4,35-90.9,69.9-136.3,104.9,13.7,9.7,27.4,19.5,41.1,29.2,28.1-17.3,56.2-34.6,84.4-51.9-1.8,10.5-3.6,20.9-5.4,31.4-2.9,11-7.3,17.9-13,20.6-19.5,11.9-38.9,23.8-58.4,35.7-12.3-4.3-24.5-8.7-36.8-13,4.7-5,9.4-10.1,14.1-15.1-10.8-7.9-21.6-15.9-32.4-23.8-10.8,9.7-21.6,19.5-32.4,29.2-108.3-28.8-214.9-52.8-318-66-8.1-11.9-18.5-23.8-33.5-35.7-2.9,2.9-5.8,5.8-8.7,8.6-5.8-3.6-11.5-7.2-17.3-10.8-.7,5.1-1.4,10.1-2.2,15.1,5,14.4,10.1,28.8,15.1,43.3-33.3,77.2-66.9,154.6-84.4,219.6-3.6,8.3.3,15.1,5.4,21.6,14,16.2,31.1,26.4,48.7,35.7,4-.7,7.9-1.4,11.9-2.2,7.9,11.9,18.9,19.3,30.3,26,9.9,4.3,18.9,4.3,27,0,50.5-30.3,100.9-60.6,151.4-90.9,11.9,11.9,23.8,23.8,35.7,35.7,8.5,8.7,15.3,17.3,20.6,26,7.9,26.7,15.9,53.4,23.8,80,3.8,10.1,4.8,20.2,5.4,30.3-6.9,46.1-13.7,92.3-20.5,138.4-2,6.1-3.3,12.5-6,18.2-24.4,51.9-44.9,101.4-67.4,148.2-15.3,31.7-46.9,55.3-67.2,83.4-1.6,6.6,1.7,8.1,6.5,9.7h75.7c3.2-2.5,6.5-5,9.7-7.6,0-20,12.5-34.1,33.5-44.3,4.6-1.6,6.3-7.5,7.6-14.1,13.1-60.5,36.6-120.1,88.7-177.4,4.9-5.9,8.1-13.5,9.7-22.7,3.5-15.8-9.1-18.2,58.4-87.6,44.7,89.8,94.9,176.8,175.2,255.3,3.8,8.9,10.9,14.4,19.5,18.4,3.3,2.8,5.8,6.4,7.6,10.8,2.5,18,5.1,36,7.6,54.1.5,5.5,2.7,6.9,6.5,4.3,19.5-16.2,38.9-32.5,58.4-48.7,1.3-4,.9-7.9-1.1-11.9-7.6-7.6-15.1-15.1-22.7-22.7-3.2-3.6-6.5-7.2-9.7-10.8-2.9-5.8-5.8-11.5-8.7-17.3-2.9-3.6-5.8-7.2-8.7-10.8-32.3-25.5-54.2-58.3-70.3-95.2-6.7-13-11.7-26-15.1-38.9-3.4-30.6-7.9-61.3-16.2-91.9,114.5-.5,211.1-10.7,268.2-42.2,12.7,86.1,6.8,174-32.4,265-7.7,22.7-18.8,44.9-37.9,66-17.3,16.2-37.9,31.6-47.6,49.7-3.7,5.3,1.2,8.4,4.3,11.9,29.2.4,58.4.7,87.6,1.1-2.6-9.7,2-17.9,7.6-26,7.2-4.3,14.4-8.7,21.6-13,1.9-.4,3-3.3,3.2-8.6,9.4-55.7,35.9-100.1,64.9-142.8,4.7-5.4,9.4-10.8,14.1-16.2,7.6-13.6,10.3-28.1,9.7-43.3.4-9.7.7-19.5,1.1-29.2,8.1-36.2,18.9-64.4,33.5-81.1,44.3,41.1,88.7,82.2,133,123.3,15.9,12.6,20.9,36,28.1,57.3,5.4,30.3,10.8,60.6,16.2,90.8-.2,8.9,3.9,14.9,8.7,20.6,8.4,14.4,17.1,28.8,20.6,43.3,3.6,3.2,7.2,6.5,10.8,9.7,17.7,15.7,35.3,28.6,53,41.1,3.6-21.3,7.2-42.5,10.8-63.8-9.4-5.4-18.7-10.8-28.1-16.2ZM546.9,1032.4c26.5-8,49.8-23.7,70-46.9,23.8.3,45.1,7.6,63.9,21.8-28.1,20.6-56.8,40.1-86.1,58.2-20.8,10.4-41.5,20.2-61,9-4.7-2.5-7.6-6.3-8.5-11.4,7.3-10.2,14.5-20.5,21.8-30.7ZM556.3,1101c-7.1,2.7-14.4,4.4-22.7-.5-12.7-3.9-17.4-12.5-17.5-22.7,7.4,1.9,11.5,6.2,18.9,8,13.9,6.4,27.8,4.6,41.6-2.8,40.2-21.3,76.7-46.3,113.1-71.5,3.9,1.9,7.9,3.8,11.8,5.7-48.4,27.9-96.8,55.8-145.3,83.8Z"/>
  </g>
  <path class="st3" d="M1080,135c-521.9,0-945,423.1-945,945s423.1,945,945,945,945-423.1,945-945S1601.9,135,1080,135ZM1080,1845c-422.5,0-765-342.5-765-765s61.4-343.3,164.2-473.6l1074.4,1074.4c-130.3,102.8-294.7,164.2-473.6,164.2ZM1680.8,1553.6L606.4,479.2c130.3-102.8,294.7-164.2,473.6-164.2,422.5,0,765,342.5,765,765s-61.4,343.3-164.2,473.6Z"/>
</svg>