<?xml version="1.0" encoding="UTF-8"?>
<svg id="For_Sheets" xmlns="http://www.w3.org/2000/svg" version="1.1" viewBox="0 0 2160 2160">
  <!-- Generator: Adobe Illustrator 29.1.0, SVG Export Plug-In . SVG Version: 2.1.0 Build 142)  -->
  <defs>
    <style>
      .st0 {
        fill: #231f20;
      }

      .st1 {
        fill: #fff;
      }

      .st2 {
        fill: #ec008c;
        font-family: Myriad-Roman, Myriad;
        font-size: 42px;
        stroke: #231f20;
        stroke-width: .2px;
      }
    </style>
  </defs>
  <g>
    <rect class="st1" x="-.1" y="-.1" width="2160.2" height="2160.2" rx="135.1" ry="135.1"/>
    <path class="st0" d="M2025,0c74.6,0,135,60.4,135,135v1890c0,74.6-60.4,135-135,135H135c-74.6,0-135-60.4-135-135V135C0,60.4,60.4,0,135,0h1890M2025-.2H135C98.9-.2,64.9,13.8,39.4,39.4,13.8,64.9-.2,98.9-.2,135v1890c0,36.1,14.1,70.1,39.6,95.6,25.5,25.5,59.5,39.6,95.6,39.6h1890c36.1,0,70.1-14.1,95.6-39.6,25.5-25.5,39.6-59.5,39.6-95.6V135c0-36.1-14.1-70.1-39.6-95.6-25.5-25.5-59.5-39.6-95.6-39.6h0Z"/>
  </g>
  <text class="st2" transform="translate(1198.1 146.2)"><tspan x="0" y="0">NOTES: was R9-20a.</tspan><tspan x="0" y="50.4">Redesignated from R4-11, Revise legend (KJS chart)</tspan></text>
  <rect class="st0" x="36" y="36" width="2088" height="2088" rx="99" ry="99"/>
  <rect class="st1" x="90" y="90" width="1980" height="1980" rx="45" ry="45"/>
  <g>
    <path class="st0" d="M486.7,1099.3h-79.1l-24.9,70.7h-42.7l87.2-252h40l87.1,252h-42.7l-24.9-70.7ZM421.8,1058.6h50.7l-24.9-70.7-25.8,70.7Z"/>
    <path class="st0" d="M592.1,918h39.8v214.9h116.5v37.1h-156.3v-252Z"/>
    <path class="st0" d="M786.2,918h39.8v214.9h116.5v37.1h-156.3v-252Z"/>
    <path class="st0" d="M1154.3,1044c0,9,1.9,130.4-89.5,130.4s-89.5-121.4-89.5-130.4-1.9-130.4,89.5-130.4,89.5,121.3,89.5,130.4ZM1065.3,1133.8c27.2,0,49.2-25.7,49.2-89.8s-22-89.8-49.2-89.8-49.2,25.7-49.2,89.8,22,89.8,49.2,89.8Z"/>
    <path class="st0" d="M1338.8,1170l-39.9-161.8-39,161.8h-35.5l-37.2-252h40.8l19.5,132.6,31.9-132.6h39.1l32.8,132.6,19.5-132.6h40.8l-37.3,252h-35.4Z"/>
    <path class="st0" d="M1449.3,918h148.4v39.8h-108.6v61.9h73.3v40.7h-73.3v69h116.5v40.7h-156.3v-252Z"/>
    <path class="st0" d="M1648.5,1170v-252h90.9c63.6,0,80.6,83.8,80.6,120.3,0,94.5-48.6,131.7-80.5,131.7h-91.1ZM1733.3,957.8h-45.1v171.5h42.3c36.7,0,48.7-44.4,48.7-91.9s-6.4-79.7-45.9-79.7Z"/>
  </g>
  <g>
    <g>
      <path class="st0" d="M1482.2,1440c0,9,1.9,130.4-89.5,130.4s-89.5-121.4-89.5-130.4-1.9-130.4,89.5-130.4,89.5,121.3,89.5,130.4ZM1393.1,1529.8c27.2,0,49.2-25.7,49.2-89.8s-22.1-89.8-49.2-89.8-49.2,25.7-49.2,89.8,22.1,89.8,49.2,89.8Z"/>
      <path class="st0" d="M1577.4,1415.7h73.3v40.7h-73.3v109.7h-39.8v-252h156.3v39.8h-116.6v61.9Z"/>
    </g>
    <g>
      <path class="st0" d="M466.1,1475.8v-161.8h39.8v161.8c0,32.7,18.6,53.9,46,53.9s46-21.2,46-53.9v-161.8h39.8v161.8c0,79.7-61.1,94.6-85.8,94.6s-85.8-13.2-85.8-94.6Z"/>
      <path class="st0" d="M680.4,1506.9l38-14.1c10.6,23.8,30.1,37.1,54,37.1s39-15.9,39-37.1c0-33.7-39-38.8-71.6-52.1-15-6.2-48.6-21.2-48.6-62.7s33.5-68,78.6-68,59.2,20.3,71.5,51.2l-35.3,10.6c-5.8-11.4-18-22.1-39.2-22.1-30.5,0-36.8,16.6-36.8,25.5,0,23.5,20.3,28.2,53.3,38.6,33.6,10.6,68.8,26,68.8,79.9,0,54.4-44.2,76.8-79.6,76.8s-75.2-25.6-91.9-63.6Z"/>
      <path class="st0" d="M894.8,1314h148.4v39.8h-108.6v61.9h73.3v40.7h-73.3v69h116.5v40.7h-156.3v-252Z"/>
    </g>
  </g>
  <g>
    <path class="st0" d="M251.5,1811.7h73.3v40.7h-73.3v109.7h-39.8v-252h156.3v39.8h-116.5v61.9Z"/>
    <path class="st0" d="M398.3,1871.8v-161.8h39.8v161.8c0,32.7,18.6,53.9,46,53.9s46-21.2,46-53.9v-161.8h39.8v161.8c0,79.7-61.1,94.6-85.8,94.6s-85.8-13.2-85.8-94.6Z"/>
    <path class="st0" d="M618.2,1710h39.8v214.9h116.5v37.1h-156.3v-252Z"/>
    <path class="st0" d="M804.8,1710h39.8v214.9h116.5v37.1h-156.3v-252Z"/>
  </g>
  <g>
    <path class="st0" d="M1159.1,1710h39.8v214.9h116.5v37.1h-156.3v-252Z"/>
    <path class="st0" d="M1474.2,1891.2h-79.1l-24.9,70.7h-42.7l87.2-252h40l87.1,252h-42.7l-24.9-70.7ZM1409.3,1850.6h50.7l-24.9-70.7-25.8,70.7Z"/>
    <path class="st0" d="M1611.8,1791.4v170.6h-39.8v-252h39.8l92,160.9v-160.9h39.8v252h-35.4l-96.4-170.6Z"/>
    <path class="st0" d="M1792,1710h148.4v39.8h-108.6v61.9h73.3v40.7h-73.3v69h116.5v40.7h-156.3v-252Z"/>
  </g>
  <path class="st0" d="M1432.4,380.7c-42.3,0-81.7,12.2-115,33.4l-75.2-100,9.9-35.3c47.2-4.1,73.3-22,71.7-39.3-1.6-16.8-48.4-4.2-100.4-3.6-14.3.2-90-.2-89.6,13.7.5,14.2,48.9,25.8,82.8,29.1l-6,21.6h-305.6c6.5-21.3,12.5-40.9,17.1-56.1,3.9-13,6.9-22.8,8.3-27.6l-22.2-17,10.5-10.6h81.9s0-27,0-27h-93.1s-40,40.5-40,40.5l25.6,19.6c-11.9,39.3-39.9,131.6-58,187.3-31.5-18.2-68.1-28.6-107.2-28.6-118.5,0-214.7,96.1-214.7,214.6,0,118.5,96.1,214.7,214.7,214.7,118.5,0,214.7-96.1,214.7-214.7,0-66.7-30.4-126.3-78.2-165.7,2.2-6.7,4.6-14.1,7.2-22l231,251.4c0,.7,0,1.3,0,2,0,13.6,10.8,24.7,24.3,25.1l16.2,61.5h-16.5s0,16.2,0,16.2h52.1s0-16.2,0-16.2h-20.8s-17.1-65.2-17.1-65.2c3.5-2.1,6.4-5.1,8.5-8.6l77.8-16.7c26.5,88.4,108.5,152.9,205.6,152.9,118.5,0,214.7-96.1,214.7-214.7,0-118.5-96.1-214.6-214.7-214.6ZM901.8,595.3c0,96.2-78,174.2-174.2,174.2-96.2,0-174.2-78-174.2-174.2,0-96.2,78-174.1,174.2-174.1,34.2,0,66.1,9.9,93,26.9-21.4,46.4-63.1,96.4-93.2,124.5-12.5,0-22.6,10.2-22.6,22.7s10.2,22.7,22.7,22.7,21.2-8.7,22.6-19.9c14.7-13.8,33.9-34,52.9-58.3,14.1-18.1,31.7-43,45.1-70.1,33,31.7,53.6,76.3,53.6,125.7ZM1122.6,614.6l-10.6-40.2h16.5s0-16.2,0-16.2h-52.1s0,16.2,0,16.2h20.8s10.5,39.9,10.5,39.9l-224.4-244.2c3.6-11.6,7.4-23.6,11.1-35.5h306.6s-78.3,280.1-78.3,280.1ZM1219.6,623.7l-68.1,14.7,79.1-282.8,59.5,79.1c-44.4,39.3-72.4,96.7-72.4,160.7,0,9.6.6,19.1,1.9,28.3ZM1258.2,595.3c0-50.7,21.7-96.4,56.3-128.2l88.1,117.1-143.3,30.9c-.7-6.5-1.1-13.1-1.1-19.8ZM1432.4,769.5c-77.6,0-143.4-50.8-165.9-120.9l154.8-33.3c3.3,1.8,7,2.9,11,2.9,12.6,0,22.7-10.2,22.7-22.7,0-11-7.8-20.1-18.1-22.2l-95.2-126.5c26.4-16.1,57.4-25.4,90.5-25.4,96.2,0,174.1,78,174.1,174.1s-78,174.2-174.1,174.2Z"/>
</svg>