<?xml version="1.0" encoding="UTF-8"?>
<svg id="For_Sheets" xmlns="http://www.w3.org/2000/svg" version="1.1" viewBox="0 0 648 864">
  <!-- Generator: Adobe Illustrator 29.1.0, SVG Export Plug-In . SVG Version: 2.1.0 Build 142)  -->
  <defs>
    <style>
      .st0 {
        fill: #231f20;
      }

      .st1 {
        fill: #006f53;
      }

      .st2 {
        fill: #fff;
      }
    </style>
  </defs>
  <g>
    <rect class="st2" x="-.1" y="-.1" width="648.2" height="864.2" rx="108.1" ry="108.1"/>
    <path class="st0" d="M540,0c59.6,0,108,48.4,108,108v648c0,59.6-48.4,108-108,108H108c-59.6,0-108-48.4-108-108V108C0,48.4,48.4,0,108,0h432M540-.2H108C79.1-.2,51.9,11,31.5,31.5,11,51.9-.2,79.1-.2,108v648c0,28.9,11.3,56.1,31.7,76.5,20.4,20.4,47.6,31.7,76.5,31.7h432c28.9,0,56.1-11.3,76.5-31.7,20.4-20.4,31.7-47.6,31.7-76.5V108c0-28.9-11.3-56.1-31.7-76.5C596.1,11,568.9-.2,540-.2h0Z"/>
  </g>
  <rect class="st0" x="27" y="27" width="594" height="810" rx="81" ry="81"/>
  <rect class="st2" x="54" y="54" width="540" height="756" rx="54" ry="54"/>
  <g>
    <polygon class="st0" points="122.9 342 122.9 194.2 156.2 194.2 156.2 146.6 166.5 144.3 166.5 131.8 155 127.3 155 120.5 122.9 120.5 122.9 99 108 99 108 342 122.9 342"/>
    <path class="st0" d="M540,130.5s-66.7,5.6-125.4-36.6c-3.6-.6-7.5-2.5-10.6-2.7-31.3,6.8-56.9-10.1-74-19.1-15.4-2.3-11.7,32.3,6.7,37-18.3,2-145.2,14.4-145.2,14.4,0,0-11.9,1.6-11.5,10.9.2,5.8,1.5,12.9,9.8,12.9h100.2s.2,9.3,8.3,16.6c9.6,5.1,23.5,10.9,24,25.1,7.7,7.2,29.6,15.6,33.5,30.8,6.9,11.1,30.2,12.5,38.8,14.2,6.5-1.2,12.5-2.1,20.8-2.9,50.2-21,124.6-24.2,124.6-24.2v-76.4Z"/>
  </g>
  <circle class="st1" cx="324" cy="657" r="72"/>
  <path class="st0" d="M155.2,760.5h0s0,0,0,0h0Z"/>
  <g>
    <path class="st0" d="M159.8,318.3v23.7h-7.7v-54h16.1c8.5,0,14.2,6.1,14.2,15.2s-5.1,15.2-14.2,15.2h-8.3ZM159.8,310.9h7.9c4.5,0,7-2.8,7-7.8s-2.9-7.6-7-7.6h-7.9v15.3Z"/>
    <path class="st0" d="M191,326.3v-38.3h7.7v38.8c0,5.1,3,8.5,7.6,8.5s7.2-3.4,7.2-8.5v-38.8h7.8v38.4c0,12.3-9.5,16.5-14.9,16.5s-15.3-3.2-15.3-16.6Z"/>
    <path class="st0" d="M244.1,307.7c5.9,3.7,14.8,8.9,14.8,19.6s-6.7,15.7-15,15.7-15.2-8-15.2-16.9h7.6c0,4.6,2.3,9.3,7.6,9.3s7.6-3.8,7.6-8.1c0-11.7-20.2-11.1-20.2-26.1s6.1-14,13.9-14,13.5,5.9,13.7,14h-7.4c-.2-3.8-2.9-6.3-6.3-6.3s-6.5,2.6-6.5,6.2,1.9,4.4,5.4,6.6Z"/>
    <path class="st0" d="M288.7,317.6h-14.8v24.4h-7.7v-54h7.7v22h14.7v-22h7.8v54h-7.7v-24.4Z"/>
  </g>
  <g>
    <path class="st0" d="M332.4,342v-54h17c7.2,0,12.3,5.7,12.3,14s-1.3,7.2-5.7,11.8c4.2,3.4,6.6,8,6.6,13.5,0,8.1-6.4,14.8-14.4,14.8h-15.9ZM340.2,295.6v14.4h8.1c3.6,0,5.9-3,5.9-8s-1.7-6.4-5.9-6.4h-8.1ZM340.2,334.4h7.7c4.4,0,7.2-3,7.2-7.8s-3.1-9.1-7.2-9.1h-7.8v16.9Z"/>
    <path class="st0" d="M370,326.3v-38.3h7.7v38.8c0,5.1,3,8.5,7.6,8.5s7.2-3.4,7.2-8.5v-38.8h7.8v38.4c0,12.3-9.5,16.5-14.9,16.5s-15.3-3.2-15.3-16.6Z"/>
    <path class="st0" d="M424,342h-7.8v-46.8h-9.9v-7.2h27.6v7.2h-9.9v46.8Z"/>
    <path class="st0" d="M454.2,342h-7.8v-46.8h-9.9v-7.2h27.6v7.2h-9.9v46.8Z"/>
    <path class="st0" d="M469.2,314.9c0-28.3,13.1-27.8,16-27.8s15.9-.4,15.9,27.8-12.9,28-15.9,28-16,.4-16-28.1ZM485.2,294.6c-1.5,0-8.5-.3-8.5,20.3s7,20.4,8.5,20.4,8.5.3,8.5-20.4-7-20.3-8.5-20.3Z"/>
    <path class="st0" d="M517.5,305.8v36.2h-7.7v-54h7.7l14.7,32.4v-32.4h7.8v54h-5.9l-16.6-36.2Z"/>
  </g>
  <g>
    <path class="st0" d="M250.3,407.1h20.9v11.6h-20.9v31.3h-11.4v-72h44.7v11.4h-33.3v17.7Z"/>
    <path class="st0" d="M344.2,414c0,2.6.5,37.3-25.6,37.3s-25.6-34.7-25.6-37.3-.5-37.3,25.6-37.3,25.6,34.7,25.6,37.3ZM318.7,439.6c7.8,0,14.1-7.4,14.1-25.6s-6.3-25.6-14.1-25.6-14.1,7.3-14.1,25.6,6.3,25.6,14.1,25.6Z"/>
    <path class="st0" d="M371.4,418.7v31.3h-11.4v-72h26.1c16.5,0,21.5,13.2,21.5,20.2s-1,13.2-11.2,18l12.7,33.7h-12.4l-11.6-31.3h-13.7ZM385.7,407.1c9,0,10.5-6.5,10.5-8.8s-2.3-8.8-9.9-8.8h-14.9v17.7h14.3Z"/>
  </g>
  <g>
    <path class="st0" d="M205.6,484.7c11.5,0,18,4.4,22.9,15.9l-10.9,4.3c-3-6.3-6.1-8.6-11.6-8.6-15.8,0-14.9,24.1-14.9,25.8,0,2.7-.6,25.5,13.4,25.5s12.6-4.5,12.6-11.1v-3h-13.1v-11.4h24.5v14.4c0,13.1-9.6,22.7-22.7,22.7s-26.3,2.2-26.3-37.3.3-37.3,26.1-37.3Z"/>
    <path class="st0" d="M255.7,526.7v31.3h-11.4v-72h26c16.5,0,21.5,13.2,21.5,20.2s-1,13.2-11.2,18l12.7,33.7h-12.4l-11.6-31.3h-13.7ZM270,515.1c9,0,10.5-6.5,10.5-8.8s-2.3-8.8-9.9-8.8h-14.9v17.7h14.3Z"/>
    <path class="st0" d="M305.6,486h42.4v11.4h-31v17.7h20.9v11.6h-20.9v19.7h33.3v11.6h-44.7v-72Z"/>
    <path class="st0" d="M362.6,486h42.4v11.4h-31v17.7h20.9v11.6h-20.9v19.7h33.3v11.6h-44.7v-72Z"/>
    <path class="st0" d="M430.8,509.2v48.8h-11.4v-72h11.4l26.3,46v-46h11.4v72h-10.1l-27.5-48.8Z"/>
  </g>
  <g>
    <rect class="st0" x="155.8" y="747" width="384.2" height="27"/>
    <path class="st0" d="M166.3,730.3c.1-.4.2-.8.2-1.3,0-2.5-2-4.5-4.5-4.5-.9,0-1.8.3-2.5.8l-51.5,35.2,51.5,35.2c.8.5,1.7.8,2.5.8,2.5,0,4.5-2,4.5-4.5,0-.4,0-.8-.2-1.3l-8.8-30.2,8.8-30.2Z"/>
  </g>
</svg>