<?xml version="1.0" encoding="UTF-8"?>
<svg id="For_Sheets" xmlns="http://www.w3.org/2000/svg" version="1.1" viewBox="0 0 3456 1728">
  <!-- Generator: Adobe Illustrator 29.1.0, SVG Export Plug-In . SVG Version: 2.1.0 Build 142)  -->
  <defs>
    <style>
      .st0 {
        fill: #231f20;
      }

      .st1 {
        fill: #fff;
      }
    </style>
  </defs>
  <g>
    <path class="st1" d="M216,1728.1c-57.7,0-112-22.5-152.8-63.3C22.4,1624-.1,1569.7-.1,1512V216C-.1,158.3,22.4,104,63.2,63.2,104,22.4,158.3-.1,216-.1h3024c57.7,0,112,22.5,152.8,63.3,40.8,40.8,63.3,95.1,63.3,152.8v1296c0,57.7-22.5,112-63.3,152.8-40.8,40.8-95.1,63.3-152.8,63.3H216Z"/>
    <path class="st0" d="M3240,0c119.3,0,216,96.7,216,216v1296c0,119.3-96.7,216-216,216H216c-119.3,0-216-96.7-216-216V216C0,96.7,96.7,0,216,0h3024M3240-.2H216c-29.2,0-57.5,5.7-84.2,17-25.8,10.9-48.9,26.5-68.7,46.3s-35.5,43-46.3,68.7C5.5,158.5-.2,186.8-.2,216v1296c0,29.2,5.7,57.5,17,84.2,10.9,25.8,26.5,48.9,46.3,68.7,19.9,19.9,43,35.5,68.7,46.3,26.7,11.3,55,17,84.2,17h3024c29.2,0,57.5-5.7,84.2-17,25.8-10.9,48.9-26.5,68.7-46.3,19.9-19.9,35.5-43,46.3-68.7,11.3-26.7,17-55,17-84.2V216c0-29.2-5.7-57.5-17-84.2-10.9-25.8-26.5-48.9-46.3-68.7-19.9-19.9-43-35.5-68.7-46.3-26.7-11.3-55-17-84.2-17h0Z"/>
  </g>
  <path class="st0" d="M3240,54H216c-89.3,0-162,72.7-162,162v1296c0,89.3,72.7,162,162,162h3024c89.3,0,162-72.7,162-162V216c0-89.3-72.7-162-162-162ZM3312,1512c0,39.7-32.3,72-72,72H216c-39.7,0-72-32.3-72-72V216c0-39.7,32.3-72,72-72h3024c39.7,0,72,32.3,72,72v1296Z"/>
  <g>
    <path class="st0" d="M2268,873h-1080c-19.9,0-36,16.1-36,36v540c0,19.9,16.1,36,36,36h1080c19.9,0,36-16.1,36-36v-540c0-19.9-16.1-36-36-36ZM1728,1404c-124.3,0-225-100.7-225-225s100.7-225,225-225,225,100.7,225,225-100.7,225-225,225Z"/>
    <rect class="st0" x="1521" y="621" width="414" height="216" rx="36" ry="36"/>
    <rect class="st0" x="1290.2" y="517" width="54" height="324" transform="translate(320.4 1775.6) rotate(-75)"/>
    <rect class="st0" x="1400.1" y="289.4" width="54" height="324" transform="translate(98.8 1141.3) rotate(-45)"/>
    <rect class="st0" x="1976.8" y="652" width="324" height="54" transform="translate(-102.9 576.7) rotate(-15)"/>
    <rect class="st0" x="1866.9" y="424.4" width="324" height="54" transform="translate(275.1 1566.9) rotate(-45)"/>
    <rect class="st0" x="1701" y="243" width="54" height="324"/>
  </g>
</svg>