<?xml version="1.0" encoding="UTF-8"?>
<svg id="For_Sheets" xmlns="http://www.w3.org/2000/svg" version="1.1" viewBox="0 0 2592 2592">
  <!-- Generator: Adobe Illustrator 29.1.0, SVG Export Plug-In . SVG Version: 2.1.0 Build 142)  -->
  <defs>
    <style>
      .st0 {
        fill: #231f20;
      }

      .st1 {
        fill: #fff;
      }
    </style>
  </defs>
  <g>
    <g>
      <path class="st1" d="M162,2592.1c-89.4,0-162.1-72.7-162.1-162.1V162C-.1,72.6,72.6-.1,162-.1h2268c89.4,0,162.1,72.7,162.1,162.1v2268c0,89.4-72.7,162.1-162.1,162.1H162Z"/>
      <path class="st0" d="M2430,0c89.5,0,162,72.5,162,162v2268c0,89.5-72.5,162-162,162H162C72.5,2592,0,2519.5,0,2430V162C0,72.5,72.5,0,162,0h2268M2430-.2H162C118.7-.2,77.9,16.6,47.3,47.3S-.3,118.7-.3,162v2268c0,43.3,16.9,84.1,47.5,114.7,30.6,30.6,71.4,47.5,114.7,47.5h2268c43.3,0,84.1-16.9,114.7-47.5,30.6-30.6,47.5-71.4,47.5-114.7V162c0-43.3-16.9-84.1-47.5-114.7-30.6-30.6-71.4-47.5-114.7-47.5h0Z"/>
    </g>
    <path class="st0" d="M162,2547c-64.5,0-117-52.5-117-117V162c0-64.5,52.5-117,117-117h2268c64.5,0,117,52.5,117,117v2268c0,64.5-52.5,117-117,117H162Z"/>
    <path class="st1" d="M162,2484c-29.8,0-54-24.2-54-54V162c0-29.8,24.2-54,54-54h2268c29.8,0,54,24.2,54,54v2268c0,29.8-24.2,54-54,54H162Z"/>
  </g>
  <g>
    <path class="st0" d="M965.8,494.9v297.1h-76.1v-432h76l199.5,285v-285h74.6v432h-67l-207-297.1Z"/>
    <path class="st0" d="M1339.2,575.2c0-137.9,69.9-222.7,183.8-222.7s179.3,88.8,179.3,221.3-69.3,225.8-179.3,225.8-183.8-115.9-183.8-224.3ZM1418.2,575.2c0,92.4,39.5,147,104.8,147s101.8-80.4,101.8-147-37.6-145.5-101.8-145.5-104.8,54.6-104.8,145.5Z"/>
  </g>
  <g>
    <path class="st0" d="M767.4,1512h-68.5v-371.4h-98.9v-60.6h267.9v60.6h-100.5v371.4Z"/>
    <path class="st0" d="M932.7,1357.4v-277.4h68.1v277.4c0,56.1,31.9,92.4,78.8,92.4s78.8-36.3,78.8-92.4v-277.4h68.3v277.4c0,136.6-104.8,162.2-147,162.2s-147-22.6-147-162.2Z"/>
    <path class="st0" d="M1398.6,1324v188h-68.1v-432h156.3c99,0,128.7,79.2,128.7,121.3s-5.9,79.2-67.1,108.2l76.1,202.5h-74.3l-69.7-188h-81.9ZM1484.4,1254.3c54.2,0,62.7-39.1,62.7-53s-14.1-53.1-59.5-53.1h-89.1v106.1h85.8Z"/>
    <path class="st0" d="M1766.1,1219.5v292.5h-68.1v-432h68.1l157.7,275.9v-275.9h68.3v432h-60.6l-165.3-292.5Z"/>
  </g>
  <g>
    <path class="st0" d="M596.4,2016c0,15.5,3.3,223.6-153.5,223.6s-153.5-208.1-153.5-223.6-3.3-223.5,153.5-223.5,153.5,208,153.5,223.5ZM443.7,2169.9c46.5,0,84.3-44.1,84.3-153.9s-37.8-153.9-84.3-153.9-84.3,44.1-84.3,153.9,37.8,153.9,84.3,153.9Z"/>
    <path class="st0" d="M759.6,1939.5v292.5h-68.1v-432h68.1l157.7,275.9v-275.9h68.3v432h-60.6l-165.3-292.5Z"/>
  </g>
  <g>
    <path class="st0" d="M1364.1,2044v188h-68.1v-432h156.3c99,0,128.7,79.2,128.7,121.3s-5.9,79.2-67.1,108.2l76.1,202.5h-74.3l-69.7-188h-81.9ZM1450,1974.3c54.2,0,62.7-39.1,62.7-53s-14.1-53.1-59.5-53.1h-89.1v106.1h85.8Z"/>
    <path class="st0" d="M1663.5,1800h254.3v68.2h-186.2v106.1h125.7v69.7h-125.7v118.3h199.8v69.7h-267.9v-432Z"/>
    <path class="st0" d="M2004.9,2232v-432h155.8c109,0,138.2,143.6,138.2,206.3,0,162.1-83.3,225.7-138,225.7h-156.1ZM2150.4,1868.2h-77.3v294h72.5c62.9,0,83.5-76.1,83.5-157.5s-11-136.6-78.7-136.6Z"/>
  </g>
</svg>