<?xml version="1.0" encoding="UTF-8"?>
<svg id="For_Sheets" xmlns="http://www.w3.org/2000/svg" version="1.1" viewBox="0 0 864 1296">
  <!-- Generator: Adobe Illustrator 29.1.0, SVG Export Plug-In . SVG Version: 2.1.0 Build 142)  -->
  <defs>
    <style>
      .st0 {
        fill: #231f20;
      }

      .st1 {
        fill: #006f53;
      }

      .st2 {
        fill: #fff;
      }
    </style>
  </defs>
  <g>
    <rect class="st2" x="-.1" y="-.1" width="864.2" height="1296.2" rx="108.1" ry="108.1"/>
    <path class="st0" d="M756,0c59.6,0,108,48.4,108,108v1080c0,59.6-48.4,108-108,108H108c-59.6,0-108-48.4-108-108V108C0,48.4,48.4,0,108,0h648M756-.2H108C79.1-.2,51.9,11,31.5,31.5,11,51.9-.2,79.1-.2,108v1080c0,28.9,11.3,56.1,31.7,76.5,20.4,20.4,47.6,31.7,76.5,31.7h648c28.9,0,56.1-11.3,76.5-31.7,20.4-20.4,31.7-47.6,31.7-76.5V108c0-28.9-11.3-56.1-31.7-76.5C812.1,11,784.9-.2,756-.2h0Z"/>
  </g>
  <rect class="st0" x="27" y="27" width="810" height="1242" rx="81" ry="81"/>
  <rect class="st2" x="54" y="54" width="756" height="1188" rx="54" ry="54"/>
  <path class="st1" d="M540,1080c0,59.6-48.4,108-108,108s-108-48.4-108-108,48.4-108,108-108,108,48.4,108,108Z"/>
  <g>
    <path class="st0" d="M140.1,197.7c0-20.2,4.1-74.2,53-74.2s35.1,8.5,45,29.3l-21.2,9.1c-7.4-10.6-11-15.2-23.7-15.2-30.1,0-29.8,42-29.8,51s-.6,51.6,30.8,51.6,17.3-6.6,22.2-16.7l21.7,8.1c-8.1,20-21.7,31.8-43.5,31.8-51.8,0-54.6-57.2-54.6-74.8Z"/>
    <path class="st0" d="M292.6,207.3v62.7h-22.7V126h52.1c33,0,42.9,26.4,42.9,40.4s-2,26.4-22.4,36.1l25.4,67.5h-24.8l-23.2-62.7h-27.3ZM321.2,184.1c18.1,0,20.9-13,20.9-17.7s-4.7-17.7-19.8-17.7h-29.7v35.4h28.6Z"/>
    <path class="st0" d="M491.8,198c0,5.2,1.1,74.5-51.2,74.5s-51.2-69.4-51.2-74.5-1.1-74.5,51.2-74.5,51.2,69.3,51.2,74.5ZM440.9,249.3c15.5,0,28.1-14.7,28.1-51.3s-12.6-51.3-28.1-51.3-28.1,14.7-28.1,51.3,12.6,51.3,28.1,51.3Z"/>
    <path class="st0" d="M513.4,236.1l21.7-8.1c6.1,13.6,17.2,21.2,30.8,21.2s22.2-9.1,22.2-21.2c0-19.3-22.2-22.2-40.9-29.8-8.6-3.5-27.8-12.1-27.8-35.9s19.2-38.9,45-38.9,33.9,11.6,40.9,29.3l-20.2,6.1c-2.3-5.7-10.5-12.6-21.2-12.6-20.5,0-22.3,11-22.3,14.6,0,13.5,11.6,16.1,30.5,22,19.2,6,39.3,14.9,39.3,45.8s-25.2,43.9-45.5,43.9-42.9-14.7-52.5-36.4Z"/>
    <path class="st0" d="M625.8,236.1l21.7-8.1c6.1,13.6,17.2,21.2,30.8,21.2s22.2-9.1,22.2-21.2c0-19.3-22.2-22.2-40.9-29.8-8.6-3.5-27.8-12.1-27.8-35.9s19.2-38.9,45-38.9,33.9,11.6,40.9,29.3l-20.2,6.1c-2.3-5.7-10.5-12.6-21.2-12.6-20.5,0-22.3,11-22.3,14.6,0,13.5,11.6,16.1,30.5,22,19.2,6,39.3,14.9,39.3,45.8s-25.2,43.9-45.5,43.9-42.9-14.7-52.5-36.4Z"/>
  </g>
  <g>
    <path class="st0" d="M290.1,414c0,5.2,1.1,74.5-51.2,74.5s-51.2-69.4-51.2-74.5-1.1-74.5,51.2-74.5,51.2,69.3,51.2,74.5ZM239.2,465.3c15.5,0,28.1-14.7,28.1-51.3s-12.6-51.3-28.1-51.3-28.1,14.7-28.1,51.3,12.6,51.3,28.1,51.3Z"/>
    <path class="st0" d="M344.5,388.5v97.5h-22.7v-144h22.7l52.6,92v-92h22.8v144h-20.2l-55.1-97.5Z"/>
    <path class="st0" d="M454.4,342h22.7v122.8h66.6v21.2h-89.3v-144Z"/>
    <path class="st0" d="M626,486h-22.9v-62.7l-50.8-81.3h27.4l34.5,55.6,35-55.6h26.9l-50.3,81.3v62.7Z"/>
  </g>
  <g>
    <path class="st0" d="M418.3,630c0,5.2,1.1,74.5-51.2,74.5s-51.2-69.4-51.2-74.5-1.1-74.5,51.2-74.5,51.2,69.3,51.2,74.5ZM367.4,681.3c15.5,0,28.1-14.7,28.1-51.3s-12.6-51.3-28.1-51.3-28.1,14.7-28.1,51.3,12.6,51.3,28.1,51.3Z"/>
    <path class="st0" d="M472.7,604.5v97.5h-22.7v-144h22.7l52.6,92v-92h22.8v144h-20.2l-55.1-97.5Z"/>
  </g>
  <g>
    <path class="st0" d="M195.3,771.5c23.1,0,36.1,8.7,45.8,31.8l-21.7,8.6c-6.1-12.6-12.1-17.2-23.2-17.2-31.6,0-29.8,48.2-29.8,51.5,0,5.4-1.2,51,26.8,51s25.3-9.1,25.3-22.2v-6h-26.3v-22.8h49v28.8c0,26.3-19.2,45.5-45.5,45.5s-52.5,4.3-52.5-74.5.6-74.5,52.2-74.5Z"/>
    <path class="st0" d="M295.5,855.3v62.7h-22.7v-144h52.1c33,0,42.9,26.4,42.9,40.4s-2,26.4-22.4,36.1l25.4,67.5h-24.8l-23.2-62.7h-27.3ZM324.1,832.1c18.1,0,20.9-13,20.9-17.7s-4.7-17.7-19.8-17.7h-29.7v35.4h28.6Z"/>
    <path class="st0" d="M395.3,774h84.8v22.7h-62.1v35.4h41.9v23.2h-41.9v39.4h66.6v23.2h-89.3v-144Z"/>
    <path class="st0" d="M509.1,774h84.8v22.7h-62.1v35.4h41.9v23.2h-41.9v39.4h66.6v23.2h-89.3v-144Z"/>
    <path class="st0" d="M645.6,820.5v97.5h-22.7v-144h22.7l52.6,92v-92h22.8v144h-20.2l-55.1-97.5Z"/>
  </g>
</svg>