<?xml version="1.0" encoding="UTF-8"?>
<svg id="For_Sheets" xmlns="http://www.w3.org/2000/svg" version="1.1" viewBox="0 0 1728 2592">
  <!-- Generator: Adobe Illustrator 29.1.0, SVG Export Plug-In . SVG Version: 2.1.0 Build 142)  -->
  <defs>
    <style>
      .st0 {
        fill: #231f20;
      }

      .st1 {
        fill: #fff;
      }
    </style>
  </defs>
  <g>
    <rect class="st1" x="-.1" y="-.1" width="1728.2" height="2592.2" rx="108.1" ry="108.1"/>
    <path class="st0" d="M1620,0c59.6,0,108,48.4,108,108v2376c0,59.6-48.4,108-108,108H108c-59.6,0-108-48.4-108-108V108C0,48.4,48.4,0,108,0h1512M1620-.2H108C79.1-.2,51.9,11,31.5,31.5,11,51.9-.2,79.1-.2,108v2376c0,28.9,11.3,56.1,31.7,76.5,20.4,20.4,47.6,31.7,76.5,31.7h1512c28.9,0,56.1-11.3,76.5-31.7,20.4-20.4,31.7-47.6,31.7-76.5V108c0-28.9-11.3-56.1-31.7-76.5-20.4-20.4-47.6-31.7-76.5-31.7h0Z"/>
  </g>
  <rect class="st0" x="27" y="27" width="1674" height="2538" rx="81" ry="81"/>
  <rect class="st1" x="72" y="72" width="1584" height="2448" rx="36" ry="36"/>
  <g>
    <path class="st0" d="M302,563.4l54.3-20.2c15.2,34.1,42.9,53.1,77,53.1s55.6-22.7,55.6-53.1c0-48.1-55.6-55.6-102.3-74.5-21.5-8.9-69.5-30.3-69.5-89.7s48-97.2,112.4-97.2,84.6,29.1,102.3,73.3l-50.5,15.2c-5.7-14.2-26.2-31.6-53.1-31.6-51.3,0-55.7,27.4-55.7,36.4,0,33.7,29,40.3,76.2,55.1,48.1,15.1,98.2,37.2,98.2,114.4s-63,109.8-113.7,109.8-107.4-36.6-131.3-90.9Z"/>
    <path class="st0" d="M715.4,648h-57.1v-309.5h-82.4v-50.5h223.3v50.5h-83.7v309.5Z"/>
    <path class="st0" d="M1101.7,468c0,12.9,2.7,186.3-127.9,186.3s-127.9-173.4-127.9-186.3-2.7-186.3,127.9-186.3,127.9,173.3,127.9,186.3ZM974.5,596.2c38.8,0,70.3-36.8,70.3-128.2s-31.5-128.2-70.3-128.2-70.3,36.7-70.3,128.2,31.5,128.2,70.3,128.2Z"/>
    <path class="st0" d="M1304.8,491.4h-67v156.6h-56.8v-360h136.1c84.7,0,109,68.8,109,101.1s-12.3,102.3-121.2,102.3ZM1237.7,433.3h80.1c45.2,0,50-32.6,50-44.2,0-16.9-12.7-44.2-48.1-44.2h-82.1v88.4Z"/>
  </g>
  <g>
    <path class="st0" d="M502.9,1427.3v156.7h-56.8v-360h130.2c82.5,0,107.3,66,107.3,101.1s-4.9,66-55.9,90.1l63.4,168.7h-61.9l-58.1-156.7h-68.3ZM574.4,1369.3c45.2,0,52.3-32.6,52.3-44.2s-11.7-44.2-49.5-44.2h-74.2v88.4h71.5Z"/>
    <path class="st0" d="M752.4,1224h211.9v56.8h-155.2v88.4h104.7v58.1h-104.7v98.5h166.5v58.1h-223.3v-360Z"/>
    <path class="st0" d="M1036.9,1584v-360h129.9c90.9,0,115.2,119.7,115.2,171.9,0,135-69.4,188.1-115,188.1h-130.1ZM1158.1,1280.8h-64.4v245h60.4c52.4,0,69.6-63.4,69.6-131.2s-9.2-113.8-65.6-113.8Z"/>
  </g>
  <g>
    <path class="st0" d="M351.3,950h-78.9v94h-34.1v-216h34.1v87.2h78.8v-87.2h34.1v216h-34.1v-94Z"/>
    <path class="st0" d="M437.2,828h127.2v34.1h-93.1v53.1h62.8v34.9h-62.8v59.1h99.9v34.9h-134v-216Z"/>
    <path class="st0" d="M642,950v94h-34.1v-216h78.1c49.5,0,64.4,39.6,64.4,60.7s-3,39.6-33.5,54.1l38.1,101.2h-37.2l-34.9-94h-41ZM684.9,915.2c27.1,0,31.4-19.5,31.4-26.5s-7-26.5-29.7-26.5h-44.5v53.1h42.9Z"/>
    <path class="st0" d="M791.7,828h127.2v34.1h-93.1v53.1h62.8v34.9h-62.8v59.1h99.9v34.9h-134v-216Z"/>
  </g>
  <g>
    <path class="st0" d="M1295.1,936c0,7.7,1.6,111.8-76.7,111.8s-76.7-104-76.7-111.8-1.6-111.8,76.7-111.8,76.7,104,76.7,111.8ZM1218.7,1012.9c23.3,0,42.2-22.1,42.2-76.9s-18.9-76.9-42.2-76.9-42.2,22-42.2,76.9,18.9,76.9,42.2,76.9Z"/>
    <path class="st0" d="M1376.7,897.7v146.3h-34.1v-216h34.1l78.8,137.9v-137.9h34.1v216h-30.3l-82.6-146.3Z"/>
  </g>
  <g>
    <rect class="st0" x="626.4" y="1895.5" width="719" height="182.2" transform="translate(-861.3 759.1) rotate(-30)"/>
    <path class="st0" d="M828.2,2313.4c2.1,2,3.9,4.3,5.3,6.8,8.4,14.5,3.4,33.1-11.1,41.5-5.1,3-11.2,4.5-17.5,4l-419.7-32.2,182-379.5c2.8-5.7,7.1-10.2,12.2-13.2,14.5-8.4,33.1-3.4,41.5,11.1,1.4,2.4,2.5,5.1,3.2,8l50.5,206.5,153.6,147Z"/>
  </g>
</svg>