<?xml version="1.0" encoding="UTF-8"?>
<svg id="For_Sheets" xmlns="http://www.w3.org/2000/svg" version="1.1" viewBox="0 0 648 864">
  <!-- Generator: Adobe Illustrator 29.1.0, SVG Export Plug-In . SVG Version: 2.1.0 Build 142)  -->
  <defs>
    <style>
      .st0 {
        fill: #231f20;
      }

      .st1 {
        fill: #fff;
      }
    </style>
  </defs>
  <g>
    <rect class="st1" x="-.1" y="-.1" width="648.3" height="864.3" rx="108.1" ry="108.1"/>
    <path class="st0" d="M540,0c59.6,0,108,48.4,108,108v648c0,59.6-48.4,108-108,108H108C48.4,864,0,815.6,0,756V108C0,48.4,48.4,0,108,0h432M540-.3H108C79.1-.3,51.9,11,31.5,31.5S-.3,79.1-.3,108v648c0,28.9,11.3,56.1,31.7,76.5,20.4,20.4,47.6,31.7,76.5,31.7h432c28.9,0,56.1-11.3,76.5-31.7,20.4-20.4,31.7-47.6,31.7-76.5V108c0-28.9-11.3-56.1-31.7-76.5S568.9-.3,540-.3h0Z"/>
  </g>
  <rect class="st0" x="27" y="27" width="594" height="810" rx="81" ry="81"/>
  <rect class="st1" x="54" y="54" width="540" height="756" rx="54" ry="54"/>
  <rect class="st0" x="216" y="441" width="216" height="216"/>
  <g>
    <path class="st1" d="M331.9,459c-7.3,0-13.2,5.9-13.2,13.2s5.9,13.2,13.2,13.2c7.3,0,13.2-5.9,13.2-13.2s-5.9-13.2-13.2-13.2Z"/>
    <path class="st1" d="M371.7,542l-27.6-18.4c-1.3-5.4-6.6-29.4-17.2-34.9-10.5-7-49.3,21.6-49.6,21.9v41.7s8.4-1.5,8.4-1.5l3.3-33.3c3.2-.6,6.3-1.3,9.5-1.9-6.9,17.9-9.5,35.2-5.5,46.5l-16.8,68.8,11.3,8,24.5-63.7,11.3,12.1,15.7,47.9,15-5.5-13.5-50.5-15.7-28.2,6-20.8,6.4,8.4,30,9.9,4.4-6.6Z"/>
  </g>
  <g>
    <path class="st0" d="M178.1,134.9c0-10.1,2-37.1,26.5-37.1s17.6,4.2,22.5,14.7l-10.6,4.5c-3.7-5.3-5.5-7.6-11.9-7.6-15.1,0-14.9,21-14.9,25.5s-.3,25.8,15.4,25.8,8.7-3.3,11.1-8.3l10.9,4c-4.1,10-10.9,15.9-21.7,15.9-25.9,0-27.3-28.6-27.3-37.4Z"/>
    <path class="st0" d="M254.3,139.7v31.3h-11.4v-72h26c16.5,0,21.5,13.2,21.5,20.2s-1,13.2-11.2,18l12.7,33.7h-12.4l-11.6-31.3h-13.7ZM268.6,128.1c9,0,10.5-6.5,10.5-8.8s-2.3-8.8-9.9-8.8h-14.9v17.7h14.3Z"/>
    <path class="st0" d="M353.9,135c0,2.6.5,37.3-25.6,37.3s-25.6-34.7-25.6-37.3-.5-37.3,25.6-37.3,25.6,34.7,25.6,37.3ZM328.5,160.6c7.8,0,14.1-7.4,14.1-25.6s-6.3-25.6-14.1-25.6-14.1,7.3-14.1,25.6,6.3,25.6,14.1,25.6Z"/>
    <path class="st0" d="M364.7,154.1l10.9-4c3,6.8,8.6,10.6,15.4,10.6s11.1-4.5,11.1-10.6c0-9.6-11.1-11.1-20.5-14.9-4.3-1.8-13.9-6.1-13.9-17.9s9.6-19.4,22.5-19.4,16.9,5.8,20.5,14.7l-10.1,3c-1.1-2.8-5.2-6.3-10.6-6.3-10.3,0-11.1,5.5-11.1,7.3,0,6.7,5.8,8.1,15.2,11,9.6,3,19.6,7.4,19.6,22.9s-12.6,22-22.7,22-21.5-7.3-26.3-18.2Z"/>
    <path class="st0" d="M420.9,154.1l10.9-4c3,6.8,8.6,10.6,15.4,10.6s11.1-4.5,11.1-10.6c0-9.6-11.1-11.1-20.5-14.9-4.3-1.8-13.9-6.1-13.9-17.9s9.6-19.4,22.5-19.4,16.9,5.8,20.5,14.7l-10.1,3c-1.1-2.8-5.2-6.3-10.6-6.3-10.3,0-11.1,5.5-11.1,7.3,0,6.7,5.8,8.1,15.2,11,9.6,3,19.6,7.4,19.6,22.9s-12.6,22-22.7,22-21.5-7.3-26.3-18.2Z"/>
  </g>
  <g>
    <path class="st0" d="M253,252c0,2.6.5,37.3-25.6,37.3s-25.6-34.7-25.6-37.3-.5-37.3,25.6-37.3,25.6,34.7,25.6,37.3ZM227.6,277.6c7.8,0,14.1-7.4,14.1-25.6s-6.3-25.6-14.1-25.6-14.1,7.3-14.1,25.6,6.3,25.6,14.1,25.6Z"/>
    <path class="st0" d="M280.2,239.2v48.8h-11.4v-72h11.4l26.3,46v-46h11.4v72h-10.1l-27.5-48.8Z"/>
    <path class="st0" d="M335.2,216h11.4v61.4h33.3v10.6h-44.7v-72Z"/>
    <path class="st0" d="M421,288h-11.4v-31.3l-25.4-40.7h13.7l17.3,27.8,17.5-27.8h13.5l-25.1,40.7v31.3Z"/>
  </g>
  <g>
    <path class="st0" d="M317.1,369c0,2.6.5,37.3-25.6,37.3s-25.6-34.7-25.6-37.3-.5-37.3,25.6-37.3,25.6,34.7,25.6,37.3ZM291.7,394.7c7.8,0,14.1-7.4,14.1-25.6s-6.3-25.6-14.1-25.6-14.1,7.3-14.1,25.6,6.3,25.6,14.1,25.6Z"/>
    <path class="st0" d="M344.3,356.2v48.8h-11.4v-72h11.4l26.3,46v-46h11.4v72h-10.1l-27.5-48.8Z"/>
  </g>
  <g>
    <path class="st0" d="M159,748.1l10.9-4c3,6.8,8.6,10.6,15.4,10.6s11.1-4.5,11.1-10.6c0-9.6-11.1-11.1-20.5-14.9-4.3-1.8-13.9-6.1-13.9-17.9s9.6-19.4,22.5-19.4,16.9,5.8,20.5,14.7l-10.1,3c-1.1-2.8-5.2-6.3-10.6-6.3-10.3,0-11.1,5.5-11.1,7.3,0,6.7,5.8,8.1,15.2,11,9.6,3,19.6,7.4,19.6,22.9s-12.6,22-22.7,22-21.5-7.3-26.3-18.2Z"/>
    <path class="st0" d="M220.3,693h11.5v72h-11.5v-72Z"/>
    <path class="st0" d="M273.7,691.7c11.5,0,18,4.4,22.9,15.9l-10.9,4.3c-3-6.3-6.1-8.6-11.6-8.6-15.8,0-14.9,24.1-14.9,25.8,0,2.7-.6,25.5,13.4,25.5s12.6-4.5,12.6-11.1v-3h-13.1v-11.4h24.5v14.4c0,13.1-9.6,22.7-22.7,22.7s-26.3,2.2-26.3-37.3.3-37.3,26.1-37.3Z"/>
    <path class="st0" d="M323.8,716.2v48.8h-11.4v-72h11.4l26.3,46v-46h11.4v72h-10.1l-27.5-48.8Z"/>
    <path class="st0" d="M414.2,744.8h-22.6l-7.1,20.2h-12.2l24.9-72h11.4l24.9,72h-12.2l-7.1-20.2ZM395.7,733.2h14.5l-7.1-20.2-7.4,20.2Z"/>
    <path class="st0" d="M444.3,693h11.4v61.4h33.3v10.6h-44.7v-72Z"/>
  </g>
</svg>