<?xml version="1.0" encoding="UTF-8"?>
<svg id="For_Sheets" xmlns="http://www.w3.org/2000/svg" version="1.1" viewBox="0 0 3531.4 3531.4">
  <!-- Generator: Adobe Illustrator 29.1.0, SVG Export Plug-In . SVG Version: 2.1.0 Build 142)  -->
  <defs>
    <style>
      .st0 {
        fill: #bed73d;
      }

      .st1 {
        fill: #231f20;
      }

      .st2 {
        fill: #bf311a;
      }
    </style>
  </defs>
  <g>
    <g>
      <path class="st0" d="M1765.7,3531.6c-43.3,0-84-16.9-114.6-47.5L47.4,1880.4c-63.2-63.2-63.2-166.1,0-229.3L1651.1,47.4C1681.7,16.7,1722.4-.1,1765.7-.1s84,16.9,114.6,47.5l1603.7,1603.7c63.2,63.2,63.2,166.1,0,229.3l-1603.7,1603.7c-30.6,30.6-71.3,47.5-114.6,47.5Z"/>
      <path class="st1" d="M1765.7,0c41.5,0,82.9,15.8,114.6,47.4l1603.7,1603.7c63.3,63.3,63.3,165.8,0,229.1l-1603.7,1603.7c-31.6,31.6-73.1,47.4-114.6,47.4s-82.9-15.8-114.6-47.4L47.4,1880.3c-63.3-63.3-63.3-165.8,0-229.1L1651.2,47.4C1682.8,15.8,1724.3,0,1765.7,0M1765.7-.3c-43.3,0-84.1,16.9-114.7,47.5L47.3,1651c-30.6,30.6-47.5,71.4-47.5,114.7s16.9,84.1,47.5,114.7l1603.7,1603.7c30.6,30.6,71.4,47.5,114.7,47.5s84.1-16.9,114.7-47.5l1603.7-1603.7c30.6-30.6,47.5-71.4,47.5-114.7s-16.9-84.1-47.5-114.7L1880.4,47.3c-30.6-30.6-71.4-47.5-114.7-47.5h0Z"/>
    </g>
    <path class="st1" d="M79.3,1848.4c-45.6-45.6-45.6-119.8,0-165.5L1683,79.3c45.6-45.6,119.8-45.6,165.5,0l1603.7,1603.7c45.6,45.6,45.6,119.8,0,165.5l-1603.7,1603.7c-45.6,45.6-119.8,45.6-165.5,0L79.3,1848.4Z"/>
    <path class="st0" d="M123.8,1803.9c-21.1-21.1-21.1-55.3,0-76.4L1727.5,123.8c21.1-21.1,55.3-21.1,76.4,0l1603.7,1603.7c21.1,21.1,21.1,55.3,0,76.4l-1603.7,1603.7c-21.1,21.1-55.3,21.1-76.4,0L123.8,1803.9Z"/>
  </g>
  <path class="st1" d="M2432.2,844.4L1765.7,216l-666.5,628.4c-5.2,4.9-8.5,11.9-8.5,19.6,0,14.9,12.1,27,27,27s2.2,0,3.3-.2l428.7-53.7v350.9h432v-350.9l428.7,53.7c1.1.1,2.2.2,3.3.2,14.9,0,27-12.1,27-27s-3.3-14.7-8.5-19.6Z"/>
  <path class="st1" d="M1873.7,2517.2v139.5h180.9v-139.5h98.1v-882.5c0-124-241.7-224.5-531-224.5s-531,100.5-531,224.5v882.5h98.1v139.5h180.9v-139.5h504Z"/>
  <polygon class="st2" points="753.6 2224.7 658.7 2129.8 658.7 1995.6 753.6 1900.7 887.8 1900.7 982.7 1995.6 982.7 2129.8 887.8 2224.7 753.6 2224.7"/>
  <rect class="st0" x="1428.2" y="2071.7" width="387" height="198" rx="18" ry="18"/>
  <g>
    <rect class="st0" x="1135.7" y="1702.7" width="256.5" height="256.5" rx="18" ry="18"/>
    <rect class="st0" x="1428.2" y="1702.7" width="387" height="256.5" rx="18" ry="18"/>
    <rect class="st0" x="1851.2" y="1702.7" width="256.5" height="256.5" rx="18" ry="18"/>
  </g>
  <path class="st2" d="M1252.7,1617.2c0,24.9-20.1,45-45,45s-45-20.1-45-45,20.2-45,45-45,45,20.1,45,45Z"/>
  <g>
    <path class="st2" d="M1234.7,2062.7c0,24.9-20.1,45-45,45s-45-20.1-45-45,20.2-45,45-45,45,20.1,45,45Z"/>
    <path class="st2" d="M1342.7,2062.7c0,24.9-20.1,45-45,45s-45-20.1-45-45,20.2-45,45-45,45,20.1,45,45Z"/>
  </g>
  <rect class="st0" x="1149.2" y="2152.7" width="189" height="18"/>
  <g>
    <path class="st2" d="M2008.7,2062.7c0,24.9,20.1,45,45,45s45-20.1,45-45-20.2-45-45-45-45,20.1-45,45Z"/>
    <path class="st2" d="M1900.7,2062.7c0,24.9,20.1,45,45,45s45-20.1,45-45-20.2-45-45-45-45,20.1-45,45Z"/>
  </g>
  <rect class="st0" x="1905.2" y="2152.7" width="189" height="18"/>
  <path class="st0" d="M2098.7,2409.2c0,5-4,9-9,9h-936c-5,0-9-4-9-9h0c0-5,4-9,9-9h936c5,0,9,4,9,9h0Z"/>
  <path class="st0" d="M2098.7,2463.2c0,5-4,9-9,9h-936c-5,0-9-4-9-9h0c0-5,4-9,9-9h936c5,0,9,4,9,9h0Z"/>
  <rect class="st1" x="991.7" y="2031.2" width="90" height="63"/>
  <path class="st2" d="M1945.6,1306.7s-11.8,29.4-41.9,103.4c-23.4,66.5-52.2,37.6-58.1,34.3-5.9-3.3-107.9-67.6-107.9-67.6l48.1,108.9c29.1,49.8-22.1,76.5-22.1,76.5l-168.9,66.1,166.3,1.3c75.4,1.3,59,74.7,59,74.7l-22.2,104.4,82.7-89.7c36.2-33.7,70-4.1,70-4.1l74.4,109.3-17.3-123.2c-12.9-58,51.7-56.9,51.7-56.9l138.5-5.3-132.6-51.9c-65-25.9-18.2-70-18.2-70l104-98.6-118.3,44.1c-54.6,23.3-63.7-19.5-63.7-19.5l-23.4-136.2Z"/>
  <path class="st1" d="M2397.1,2020.3c0,22.1-17.9,40-40,40s-40-17.9-40-40,17.9-40,40-40,40,17.9,40,40ZM2532,1900.7c-23.3,0-42.2,18.9-42.2,42.2s18.9,42.2,42.2,42.2,42.2-18.9,42.2-42.2-18.9-42.2-42.2-42.2ZM2378.7,2060.6c-6.4,3.4-13.8,5.4-21.5,5.4s-7.3-.4-10.7-1.3l-23.9,25.5-24.4,77.8-46.4,44,13.4,12.6,55-36.2,7.1-29,8.7,26.7-35.4,109.3,12.6,4-37,139.2,19.7,7.1,52.7-139.2,21.2,1.6,58.2,135.2,20.4-6.3-41.7-131.3c4.2-.9,8.4-2.1,12.6-3.1,3.7-.8,7.4-2,11-3.2l-21.2-65.3,52.7-12.6-11-53.5h-12.6l8.6-13.4-1.5-3.1,45.6-12.6,11.8-20.4,17.3,72.4-33.8,106.9-9.5,162.8,37,3.2,13.4-135.3,22.8-50.3,17.3,69.2,64.5,120.3,33.8-16.5-60.5-125,6.3-107.7,64.5-18.9-17.3-62.9-16.5,2.3,5.5-33.8-52.7-99.9-28.3-12.6-5-11.8c-8.1,6.2-18.2,9.9-29.2,9.9s-3.3,0-4.9-.2l-1.8,10-22,20.4-27.5,92.8-40.1,16.5-22.8-50.3-34.2-19.4ZM2406.6,2173.7l-8.7,1.5,7.9-35.4,7.1,14.9-6.3,18.9ZM2590.6,2076.9l28.3,43.3-7.1,26.7-9.5,2.4-11.8-72.4Z"/>
</svg>