<?xml version="1.0" encoding="UTF-8"?>
<svg id="For_Sheets" xmlns="http://www.w3.org/2000/svg" version="1.1" viewBox="0 0 2592 864">
  <!-- Generator: Adobe Illustrator 29.1.0, SVG Export Plug-In . SVG Version: 2.1.0 Build 142)  -->
  <defs>
    <style>
      .st0 {
        fill: #bed73d;
      }

      .st1 {
        fill: #231f20;
      }
    </style>
  </defs>
  <g>
    <path class="st0" d="M162,864.1c-43.1,0-83.8-16.9-114.5-47.6S-.1,745.1-.1,702V162C-.1,118.9,16.8,78.2,47.5,47.5S118.9-.1,162-.1h2268c43.1,0,83.8,16.9,114.5,47.6s47.6,71.4,47.6,114.5v540c0,43.1-16.9,83.8-47.6,114.5s-71.4,47.6-114.5,47.6H162Z"/>
    <path class="st1" d="M2430,0c89.1,0,162,72.9,162,162v540c0,89.1-72.9,162-162,162H162C72.9,864,0,791.1,0,702V162C0,72.9,72.9,0,162,0h2268M2430-.2H162c-21.8,0-43,4.3-63,12.8-19.3,8.2-36.7,19.9-51.6,34.9-14.9,14.9-26.7,32.3-34.9,51.6C4.1,119-.2,140.2-.2,162v540c0,21.8,4.3,43,12.8,63,8.2,19.3,19.9,36.7,34.9,51.6s32.3,26.7,51.6,34.9c20,8.5,41.2,12.8,63,12.8h2268c21.8,0,43-4.3,63-12.8,19.3-8.2,36.7-19.9,51.6-34.9,14.9-14.9,26.7-32.3,34.9-51.6,8.5-20,12.8-41.2,12.8-63V162c0-21.8-4.3-43-12.8-63-8.2-19.3-19.9-36.7-34.9-51.6-14.9-14.9-32.3-26.7-51.6-34.9-20-8.5-41.2-12.8-63-12.8h0Z"/>
  </g>
  <path class="st1" d="M162,819c-31.1,0-60.4-12.2-82.6-34.4s-34.4-51.5-34.4-82.6V162c0-31.1,12.2-60.4,34.4-82.6s51.5-34.4,82.6-34.4h2268c31.1,0,60.4,12.2,82.6,34.4s34.4,51.5,34.4,82.6v540c0,31.1-12.2,60.4-34.4,82.6s-51.5,34.4-82.6,34.4H162Z"/>
  <path class="st0" d="M162,756c-14.5,0-27.6-5.5-38-16s-16-23.6-16-38V162c0-14.5,5.5-27.6,16-38s23.6-16,38-16h2268c14.5,0,27.6,5.5,38,16,10.4,10.4,16,23.6,16,38v540c0,14.5-5.5,27.6-16,38-10.4,10.4-23.6,16-38,16H162Z"/>
  <g>
    <path class="st1" d="M195.8,546.4l65.2-24.2c18.2,40.9,51.5,63.7,92.4,63.7s66.7-27.3,66.7-63.7c0-57.8-66.7-66.7-122.8-89.4-25.8-10.6-83.4-36.4-83.4-107.6s57.6-116.6,134.9-116.6,101.6,34.9,122.8,87.9l-60.6,18.2c-6.8-17.1-31.5-37.9-63.7-37.9-61.6,0-66.8,32.9-66.8,43.7,0,40.4,34.8,48.4,91.5,66.1,57.7,18.1,117.9,44.7,117.9,137.3s-75.6,131.8-136.5,131.8-128.8-44-157.6-109.1Z"/>
    <path class="st1" d="M554.7,431.2c0-60.7,12.2-222.7,159.1-222.7s105.3,25.5,134.9,87.9l-63.7,27.3c-22.1-31.8-33.1-45.5-71.2-45.5-90.4,0-89.4,126-89.4,153.1s-1.7,154.7,92.4,154.7,51.9-19.9,66.7-50.1l65.2,24.2c-24.3,60.1-65.1,95.4-130.4,95.4-155.5,0-163.7-171.7-163.7-224.3Z"/>
    <path class="st1" d="M1169.7,460h-157.7v188h-68.1V216h68.1v174.3h157.7v-174.3h68.3v432h-68.2v-188Z"/>
    <path class="st1" d="M1639.9,432c0,15.5,3.3,223.6-153.5,223.6s-153.5-208.1-153.5-223.6-3.3-223.5,153.5-223.5,153.5,208,153.5,223.5ZM1487.2,585.9c46.5,0,84.3-44.1,84.3-153.9s-37.8-153.9-84.3-153.9-84.3,44.1-84.3,153.9,37.8,153.9,84.3,153.9Z"/>
    <path class="st1" d="M2033.2,432c0,15.5,3.3,223.6-153.5,223.6s-153.5-208.1-153.5-223.6-3.3-223.5,153.5-223.5,153.5,208,153.5,223.5ZM1880.5,585.9c46.5,0,84.3-44.1,84.3-153.9s-37.8-153.9-84.3-153.9-84.3,44.1-84.3,153.9,37.8,153.9,84.3,153.9Z"/>
    <path class="st1" d="M2128.3,216h68.1v368.3h199.8v63.7h-267.9V216Z"/>
  </g>
</svg>