<?xml version="1.0" encoding="UTF-8"?>
<svg id="For_Sheets" xmlns="http://www.w3.org/2000/svg" version="1.1" viewBox="0 0 3531.4 3531.4">
  <!-- Generator: Adobe Illustrator 29.1.0, SVG Export Plug-In . SVG Version: 2.1.0 Build 142)  -->
  <defs>
    <style>
      .st0 {
        fill: #231f20;
      }

      .st1 {
        fill: #ffd046;
      }
    </style>
  </defs>
  <g>
    <path class="st1" d="M1765.7,3531.6c-43.3,0-84-16.9-114.6-47.5L47.4,1880.4c-63.2-63.2-63.2-166.1,0-229.3L1651.1,47.4C1681.7,16.7,1722.4-.1,1765.7-.1s84,16.9,114.6,47.5l1603.7,1603.7c63.2,63.2,63.2,166.1,0,229.3l-1603.7,1603.7c-30.6,30.6-71.3,47.5-114.6,47.5Z"/>
    <path class="st0" d="M1765.7,0c41.5,0,82.9,15.8,114.6,47.4l1603.7,1603.7c63.3,63.3,63.3,165.8,0,229.1l-1603.7,1603.7c-31.6,31.6-73.1,47.4-114.6,47.4s-82.9-15.8-114.6-47.4L47.4,1880.3c-63.3-63.3-63.3-165.8,0-229.1L1651.2,47.4C1682.8,15.8,1724.3,0,1765.7,0M1765.7-.3c-43.3,0-84.1,16.9-114.7,47.5L47.3,1651c-30.6,30.6-47.5,71.4-47.5,114.7s16.9,84.1,47.5,114.7l1603.7,1603.7c30.6,30.6,71.4,47.5,114.7,47.5s84.1-16.9,114.7-47.5l1603.7-1603.7c30.6-30.6,47.5-71.4,47.5-114.7s-16.9-84.1-47.5-114.7L1880.4,47.3c-30.6-30.6-71.4-47.5-114.7-47.5h0Z"/>
  </g>
  <path class="st0" d="M1848.4,3452.2c-45.6,45.6-119.8,45.6-165.5,0L79.3,1848.4c-45.6-45.6-45.6-119.8,0-165.5L1683,79.3c45.6-45.6,119.8-45.6,165.5,0l1603.7,1603.7c45.6,45.6,45.6,119.8,0,165.5l-1603.7,1603.7Z"/>
  <path class="st1" d="M1803.9,3407.6c-21.1,21.1-55.3,21.1-76.4,0L123.8,1803.9c-21.1-21.1-21.1-55.3,0-76.4L1727.5,123.8c21.1-21.1,55.3-21.1,76.4,0l1603.7,1603.7c21.1,21.1,21.1,55.3,0,76.4l-1603.7,1603.7Z"/>
  <g>
    <path class="st0" d="M1497.8,1153.7v-432h136.1c57.3,0,98.3,45.5,98.3,112.2s-10.6,57.6-45.4,94c33.3,27.3,52.9,63.7,52.9,107.6,0,64.6-51.5,118.2-115,118.2h-127.1ZM1559.8,782.4v115.2h65c28.8,0,46.9-24.2,46.9-63.7s-13.3-51.5-46.9-51.5h-65.1ZM1559.8,1093.1h62c34.8,0,57.5-24.2,57.5-62.2s-25-72.7-57.5-72.7h-62v134.9Z"/>
    <path class="st0" d="M1813.2,721.7h203.7v60.6h-141.4v109.1h89.6v59.1h-89.6v142.5h158.1v60.6h-220.4v-432Z"/>
  </g>
  <g>
    <path class="st0" d="M617.7,1648.2v189.5h-62v-432h128.6c68.1,0,113.4,48.7,113.4,121.3s-40.9,121.2-113.4,121.2h-66.6ZM617.7,1589.1h63.5c36.3,0,56-22.7,56-62.1s-22.9-60.6-55.9-60.6h-63.6v122.7Z"/>
    <path class="st0" d="M1005.1,1634.6h-59v203.1h-62v-432h128.6c67.8,0,113.4,45.5,113.4,115.2s-21.2,89.4-62,104.6l62,212.2h-63.4l-57.5-203.1ZM946.1,1466.4v109.1h63.5c36.4,0,56-19.7,56-54.6s-22.7-54.5-55.9-54.5h-63.6Z"/>
    <path class="st0" d="M1199.6,1405.7h203.7v60.6h-141.4v109.1h89.6v59.1h-89.6v142.5h158.1v60.6h-220.4v-432Z"/>
    <path class="st0" d="M1555.4,1648.2v189.5h-62v-432h128.6c68.1,0,113.4,48.7,113.4,121.3s-40.9,121.2-113.4,121.2h-66.6ZM1555.4,1589.1h63.5c36.3,0,56-22.7,56-62.1s-22.9-60.6-55.9-60.6h-63.6v122.7Z"/>
    <path class="st0" d="M1971.2,1719.5h-92.7l-28.9,118.2h-62.3l107.9-432h60.9l107.8,432h-62.3l-30.4-118.2ZM1893.7,1658.9h62.3l-31.9-124.3-30.4,124.3Z"/>
    <path class="st0" d="M2245.4,1634.6h-59v203.1h-62v-432h128.6c67.8,0,113.4,45.5,113.4,115.2s-21.2,89.4-62,104.6l62,212.2h-63.4l-57.5-203.1ZM2186.4,1466.4v109.1h63.5c36.4,0,56-19.7,56-54.6s-22.7-54.5-55.9-54.5h-63.6Z"/>
    <path class="st0" d="M2439.9,1405.7h203.7v60.6h-141.4v109.1h89.6v59.1h-89.6v142.5h158.1v60.6h-220.4v-432Z"/>
    <path class="st0" d="M2733.7,1837.7v-432h123.3c26.4,0,118.7,1.3,118.7,215.2s-85.3,216.8-113.6,216.8h-128.4ZM2844.2,1466.4h-48.4v310.7h43.1c50.5,0,76.4-22.1,76.4-153.1s-37.9-157.6-71.1-157.6Z"/>
  </g>
  <g>
    <path class="st0" d="M949.2,2521.7h-62.3v-374.4h-79.1v-57.6h220.4v57.6h-79.1v374.4Z"/>
    <path class="st0" d="M1080.1,2304.8c0-226.2,104.9-222.6,128.2-222.6s126.8-3.5,126.8,222.7-103.5,224.3-126.8,224.3-128.2,3.6-128.2-224.4ZM1207.6,2142.8c-12.3,0-68-2.5-68,162.3s55.7,163.5,68,163.5,67.9,2.5,67.9-163.5-55.6-162.3-67.9-162.3Z"/>
  </g>
  <g>
    <path class="st0" d="M1711,2247.1c47.2,29.6,118.1,71.2,118.1,156.4s-53.3,125.8-120.3,125.8-121.8-64.4-121.8-134.9h60.9c0,36.8,18.3,74.3,60.9,74.3s60.9-30.3,60.9-65.2c0-93.9-161.3-88.5-161.3-209.2s48.7-112.1,111.1-112.1,108.1,47,109.6,112.2h-59.4c-1.5-30.3-22.8-50-50.2-50s-51.7,21.2-51.7,49.9,14.9,35,43.3,52.8Z"/>
    <path class="st0" d="M2009.3,2521.7h-62.3v-374.4h-79.1v-57.6h220.4v57.6h-79.1v374.4Z"/>
    <path class="st0" d="M2140.2,2304.8c0-226.2,104.9-222.6,128.2-222.6s126.8-3.5,126.8,222.7-103.5,224.3-126.8,224.3-128.2,3.6-128.2-224.4ZM2267.7,2142.8c-12.3,0-68-2.5-68,162.3s55.7,163.5,68,163.5,67.9,2.5,67.9-163.5-55.6-162.3-67.9-162.3Z"/>
    <path class="st0" d="M2543.6,2332.2v189.5h-62v-432h128.6c68.1,0,113.4,48.7,113.4,121.3s-40.9,121.2-113.4,121.2h-66.6ZM2543.6,2273.1h63.5c36.3,0,56-22.7,56-62.1s-22.9-60.6-55.9-60.6h-63.6v122.7Z"/>
  </g>
</svg>