<?xml version="1.0" encoding="UTF-8"?>
<svg id="For_Sheets" xmlns="http://www.w3.org/2000/svg" version="1.1" viewBox="0 0 3531.4 3531.4">
  <!-- Generator: Adobe Illustrator 29.1.0, SVG Export Plug-In . SVG Version: 2.1.0 Build 142)  -->
  <defs>
    <style>
      .st0 {
        fill: #231f20;
      }

      .st1 {
        fill: #f7921e;
      }

      .st2 {
        fill: #fff;
      }

      .st3 {
        fill: #bf311a;
      }
    </style>
  </defs>
  <g>
    <path class="st1" d="M1765.7,3531.6c-43.3,0-84-16.9-114.6-47.5L47.4,1880.4c-63.2-63.2-63.2-166.1,0-229.3L1651.1,47.4C1681.7,16.7,1722.4-.1,1765.7-.1s84,16.9,114.6,47.5l1603.7,1603.7c63.2,63.2,63.2,166.1,0,229.3l-1603.7,1603.7c-30.6,30.6-71.3,47.5-114.6,47.5Z"/>
    <path class="st0" d="M1765.7,0c41.5,0,82.9,15.8,114.6,47.4l1603.7,1603.7c63.3,63.3,63.3,165.8,0,229.1l-1603.7,1603.7c-31.6,31.6-73.1,47.4-114.6,47.4s-82.9-15.8-114.6-47.4L47.4,1880.3c-63.3-63.3-63.3-165.8,0-229.1L1651.2,47.4C1682.8,15.8,1724.3,0,1765.7,0M1765.7-.3c-43.3,0-84.1,16.9-114.7,47.5L47.3,1651c-30.6,30.6-47.5,71.4-47.5,114.7s16.9,84.1,47.5,114.7l1603.7,1603.7c30.6,30.6,71.4,47.5,114.7,47.5s84.1-16.9,114.7-47.5l1603.7-1603.7c30.6-30.6,47.5-71.4,47.5-114.7s-16.9-84.1-47.5-114.7L1880.4,47.3c-30.6-30.6-71.4-47.5-114.7-47.5h0Z"/>
  </g>
  <path class="st0" d="M1848.4,3452.2c-45.6,45.6-119.8,45.6-165.5,0L79.3,1848.4c-45.6-45.6-45.6-119.8,0-165.5L1683,79.3c45.6-45.6,119.8-45.6,165.5,0l1603.7,1603.7c45.6,45.6,45.6,119.8,0,165.5l-1603.7,1603.7ZM3407.6,1803.9c21.1-21.1,21.1-55.3,0-76.4L1803.9,123.8c-21.1-21.1-55.3-21.1-76.4,0L123.8,1727.5c-21.1,21.1-21.1,55.3,0,76.4l1603.7,1603.7c21.1,21.1,55.3,21.1,76.4,0l1603.7-1603.7Z"/>
  <path class="st0" d="M1765.7,253.7l-639.4,601.4c-19.1,17.9-3.9,49.7,22,46.3l401.4-53.6v378h432v-378l401.4,53.6c25.9,3.5,41.1-28.4,22-46.3L1765.7,253.7Z"/>
  <path class="st2" d="M1851.5,3151.3l854.5-1480.1c38.1-66-9.5-148.5-85.7-148.5H911.2c-76.2,0-123.8,82.5-85.7,148.5l854.5,1480.1c38.1,66,133.4,66,171.5,0Z"/>
  <path class="st3" d="M911.2,1567.7h1709.1c41.6,0,67.6,45,46.8,81l-854.5,1480.1c-20.8,36-72.7,36-93.5,0l-854.5-1480.1c-20.8-36,5.2-81,46.8-81Z"/>
  <path class="st2" d="M1371.1,1833.2h789.3c41.6,0,67.5,45,46.8,81l-394.7,683.6c-20.8,36-72.7,36-93.5,0l-394.7-683.6c-20.8-36,5.2-81,46.8-81Z"/>
</svg>