<?xml version="1.0" encoding="UTF-8"?>
<svg id="For_Sheets" xmlns="http://www.w3.org/2000/svg" version="1.1" viewBox="0 0 3531.4 3531.4">
  <!-- Generator: Adobe Illustrator 29.1.0, SVG Export Plug-In . SVG Version: 2.1.0 Build 142)  -->
  <defs>
    <style>
      .st0 {
        fill: #231f20;
      }

      .st1 {
        fill: #ffd046;
      }
    </style>
  </defs>
  <g>
    <path class="st1" d="M1765.7,3531.6c-43.3,0-84-16.9-114.6-47.5L47.4,1880.4c-63.2-63.2-63.2-166.1,0-229.3L1651.1,47.4C1681.7,16.7,1722.4-.1,1765.7-.1s84,16.9,114.6,47.5l1603.7,1603.7c63.2,63.2,63.2,166.1,0,229.3l-1603.7,1603.7c-30.6,30.6-71.3,47.5-114.6,47.5Z"/>
    <path class="st0" d="M1765.7,0c41.5,0,82.9,15.8,114.6,47.4l1603.7,1603.7c63.3,63.3,63.3,165.8,0,229.1l-1603.7,1603.7c-31.6,31.6-73.1,47.4-114.6,47.4s-82.9-15.8-114.6-47.4L47.4,1880.3c-63.3-63.3-63.3-165.8,0-229.1L1651.2,47.4C1682.8,15.8,1724.3,0,1765.7,0M1765.7-.2c-43.3,0-84.1,16.9-114.7,47.5L47.3,1651C16.6,1681.6-.2,1722.4-.2,1765.7s16.9,84.1,47.5,114.7l1603.7,1603.7c30.6,30.6,71.4,47.5,114.7,47.5s84.1-16.9,114.7-47.5l1603.7-1603.7c30.6-30.6,47.5-71.4,47.5-114.7s-16.9-84.1-47.5-114.7L1880.4,47.3C1849.8,16.6,1809.1-.2,1765.7-.2h0Z"/>
  </g>
  <path class="st0" d="M1848.4,3452.2c-45.6,45.6-119.8,45.6-165.5,0L79.3,1848.4c-45.6-45.6-45.6-119.8,0-165.5L1683,79.3c45.6-45.6,119.8-45.6,165.5,0l1603.7,1603.7c45.6,45.6,45.6,119.8,0,165.5l-1603.7,1603.7Z"/>
  <path class="st1" d="M1803.9,3407.6c-21.1,21.1-55.3,21.1-76.4,0L123.8,1803.9c-21.1-21.1-21.1-55.3,0-76.4L1727.5,123.8c21.1-21.1,55.3-21.1,76.4,0l1603.7,1603.7c21.1,21.1,21.1,55.3,0,76.4l-1603.7,1603.7Z"/>
  <g>
    <path class="st0" d="M1017.8,1495.7v-432h155.8c109,0,138.2,143.6,138.2,206.3,0,162.1-83.3,225.7-138,225.7h-156.1ZM1163.3,1131.9h-77.3v294h72.5c62.9,0,83.5-76.1,83.5-157.5s-11-136.6-78.7-136.6Z"/>
    <path class="st0" d="M1475.1,1307.7v188h-68.1v-432h156.3c99,0,128.7,79.2,128.7,121.3s-5.9,79.2-67.1,108.2l76.1,202.5h-74.3l-69.7-188h-81.9ZM1560.9,1238c54.2,0,62.7-39.1,62.7-53s-14.1-53.1-59.5-53.1h-89.1v106.1h85.8Z"/>
    <path class="st0" d="M1987.1,1374.4h-135.6l-42.7,121.3h-73.2l149.4-432h68.6l149.4,432h-73.2l-42.7-121.3ZM1875.9,1304.7h86.9l-42.7-121.2-44.2,121.2Z"/>
    <path class="st0" d="M2389,1495.7l-68.5-277.4-66.9,277.4h-60.9l-63.8-432h69.9l33.5,227.4,54.7-227.4h67l56.2,227.4,33.5-227.4h69.9l-63.9,432h-60.7Z"/>
  </g>
  <g>
    <path class="st0" d="M793,2251.7v-432h163.7c68.2,0,119.7,47,119.7,109.1s-19.7,74.3-60.6,97c45.5,21.2,71.2,58,71.2,104.5s-17.3,121.3-130.4,121.3h-163.7ZM961.3,1887.9h-100.1v106.1h86.8c38.8,0,60.3-33.8,60.3-62.2s-15.9-44-47-44ZM861.2,2063.7v118.3h103.1c35.1,0,53.1-16.7,53.1-50.1s-23.1-68.2-58.4-68.2h-97.7Z"/>
    <path class="st0" d="M1228.7,2063.7v188h-68.1v-432h156.3c99,0,128.7,79.2,128.7,121.3s-5.9,79.2-67.1,108.2l76.1,202.5h-74.3l-69.7-188h-81.9ZM1314.5,1994c54.2,0,62.7-39.1,62.7-53s-14.1-53.1-59.5-53.1h-89.1v106.1h85.8Z"/>
    <path class="st0" d="M1528.1,1819.7h69.1v432h-69.1v-432Z"/>
    <path class="st0" d="M1700.9,2251.7v-432h155.8c109,0,138.2,143.6,138.2,206.3,0,162.1-83.3,225.7-138,225.7h-156.1ZM1846.3,1887.9h-77.3v294h72.5c62.9,0,83.5-76.1,83.5-157.5s-11-136.6-78.7-136.6Z"/>
    <path class="st0" d="M2238,1812.2c69.2,0,108.2,26.2,137.5,95.5l-65.2,25.7c-18.2-37.9-36.3-51.5-69.7-51.5-94.9,0-89.5,144.5-89.5,154.6,0,16.3-3.7,153.1,80.4,153.1s75.8-27.3,75.8-66.7v-18.1h-78.8v-68.3h147v86.4c0,78.8-57.6,136.4-136.5,136.4s-157.6,12.9-157.6-223.6,1.8-223.5,156.6-223.5Z"/>
    <path class="st0" d="M2470.5,1819.7h254.3v68.2h-186.2v106.1h125.7v69.7h-125.7v118.3h199.8v69.7h-267.9v-432Z"/>
  </g>
</svg>