<?xml version="1.0" encoding="UTF-8"?>
<svg id="For_Sheets" xmlns="http://www.w3.org/2000/svg" version="1.1" viewBox="0 0 3531.4 3531.4">
  <!-- Generator: Adobe Illustrator 29.1.0, SVG Export Plug-In . SVG Version: 2.1.0 Build 142)  -->
  <defs>
    <style>
      .Grid_x0020_FILL_x0020_2 {
        fill: #231f20;
      }

      .st0 {
        fill: #ffd046;
      }
    </style>
  </defs>
  <g>
    <path class="st0" d="M1765.7,3531.6c-43.3,0-84-16.9-114.6-47.5L47.4,1880.4c-63.2-63.2-63.2-166.1,0-229.3L1651.1,47.4C1681.7,16.7,1722.4-.1,1765.7-.1s84,16.9,114.6,47.5l1603.7,1603.7c63.2,63.2,63.2,166.1,0,229.3l-1603.7,1603.7c-30.6,30.6-71.3,47.5-114.6,47.5Z"/>
    <path class="Grid_x0020_FILL_x0020_2" d="M1765.7,0c41.5,0,82.9,15.8,114.6,47.4l1603.7,1603.7c63.3,63.3,63.3,165.8,0,229.1l-1603.7,1603.7c-31.6,31.6-73.1,47.4-114.6,47.4s-82.9-15.8-114.6-47.4L47.4,1880.3c-63.3-63.3-63.3-165.8,0-229.1L1651.2,47.4C1682.8,15.8,1724.3,0,1765.7,0M1765.7-.3c-43.3,0-84.1,16.9-114.7,47.5L47.3,1651c-30.6,30.6-47.5,71.4-47.5,114.7s16.9,84.1,47.5,114.7l1603.7,1603.7c30.6,30.6,71.4,47.5,114.7,47.5s84.1-16.9,114.7-47.5l1603.7-1603.7c30.6-30.6,47.5-71.4,47.5-114.7s-16.9-84.1-47.5-114.7L1880.4,47.3c-30.6-30.6-71.4-47.5-114.7-47.5h0Z"/>
  </g>
  <path class="Grid_x0020_FILL_x0020_2" d="M1848.4,3452.2c-45.6,45.6-119.8,45.6-165.5,0L79.3,1848.4c-45.6-45.6-45.6-119.8,0-165.5L1683,79.3c45.6-45.6,119.8-45.6,165.5,0l1603.7,1603.7c45.6,45.6,45.6,119.8,0,165.5l-1603.7,1603.7Z"/>
  <path class="st0" d="M1803.9,3407.6c-21.1,21.1-55.3,21.1-76.4,0L123.8,1803.9c-21.1-21.1-21.1-55.3,0-76.4L1727.5,123.8c21.1-21.1,55.3-21.1,76.4,0l1603.7,1603.7c21.1,21.1,21.1,55.3,0,76.4l-1603.7,1603.7Z"/>
  <path class="Grid_x0020_FILL_x0020_2" d="M1782.5,1936.4c20.1-30.2,23.7-70.2,5.9-104.6-11.8-22.9-31.2-39.4-53.5-48.2l524-271.6c-5.6,23.3-3.3,48.6,8.6,71.5,17.8,34.4,52.6,54.5,88.8,55.5l-573.9,297.4ZM1185.7,2245.7c20.1-30.2,23.7-70.2,5.9-104.6-.9-1.8-1.9-3.5-2.9-5.3l288.9-149.7-28.3-54.5,147.9-76.7c-5.6,23.3-3.3,48.6,8.6,71.5,17.8,34.4,52.6,54.5,88.9,55.5l-508.9,263.8ZM902.1,2284.4l104.2-54c.8,1.8,1.7,3.6,2.6,5.4,17.8,34.4,52.6,54.5,88.9,55.5l-236.2,122.4,1859.9-1.5-3.2-960.5-273.8,141.7c20.1-30.2,23.7-70.2,5.9-104.6-11.8-22.9-31.2-39.4-53.5-48.2l121.5-63-255.9-493.8-1038.8,538.4,231.6,446.9-30.3,15.7-138.9-268.1-225.8,117-.5,207.7-233.5,121-16.2,44.4,92,177.5Z"/>
</svg>