<?xml version="1.0" encoding="UTF-8"?>
<svg id="For_Sheets" xmlns="http://www.w3.org/2000/svg" version="1.1" viewBox="0 0 1728 1296">
  <!-- Generator: Adobe Illustrator 29.1.0, SVG Export Plug-In . SVG Version: 2.1.0 Build 142)  -->
  <defs>
    <style>
      .st0 {
        fill: #231f20;
      }

      .st1 {
        fill: #ffd046;
      }
    </style>
  </defs>
  <g>
    <rect class="st1" x="-.1" y="-.1" width="1728.2" height="1296.2" rx="108.1" ry="108.1"/>
    <path class="st0" d="M1620,0c59.4,0,108,48.6,108,108v1080c0,59.4-48.6,108-108,108H108c-59.4,0-108-48.6-108-108V108C0,48.6,48.6,0,108,0h1512M1620-.2H108C79.2-.2,52.1,11,31.5,31.5,11,52.1-.2,79.2-.2,108v1080c0,28.8,11.3,55.9,31.8,76.5,20.5,20.5,47.7,31.8,76.5,31.8h1512c28.8,0,55.9-11.3,76.5-31.8,20.5-20.5,31.8-47.7,31.8-76.5V108c0-28.8-11.3-55.9-31.8-76.5-20.5-20.5-47.7-31.8-76.5-31.8h0Z"/>
  </g>
  <rect class="st0" x="243" y="-189" width="1242" height="1674" rx="81" ry="81" transform="translate(1512 -216) rotate(90)"/>
  <rect class="st1" x="288" y="-144" width="1152" height="1584" rx="36" ry="36" transform="translate(1512 -216) rotate(90)"/>
  <g>
    <path class="st0" d="M564.4,1013c-26.2,0-89.3-4.9-89.3-148.5s60-149.5,86.3-149.5c41.6,0,73.1,30.3,75.1,72.7h-41.6c-1-19.2-14.2-32.4-34.5-32.4s-45.6,4.4-45.6,109.2,34.8,108.1,48.7,108.1c21.3,0,31.5-14,31.5-44.5v-19.2h-32.5v-40.5h74.1v59.6c0,72.1-47.4,84.9-72,84.9Z"/>
    <path class="st0" d="M694,720h135.8v40.4h-94.2v72.8h59.8v39.4h-59.8v95h105.4v40.4h-146.9v-288Z"/>
    <path class="st0" d="M989.5,929.2h-61.8l-19.3,78.8h-41.5l71.9-288h40.6l71.9,288h-41.5l-20.3-78.8ZM937.8,888.8h41.5l-21.3-82.9-20.3,82.9Z"/>
    <path class="st0" d="M1172.3,872.6h-39.3v135.4h-41.3v-288h85.7c45.2,0,75.6,30.3,75.6,76.8s-14.1,59.6-41.4,69.7l41.3,141.5h-42.3l-38.3-135.4ZM1132.9,760.4v72.8h42.3c24.3,0,37.3-13.1,37.3-36.4s-15.1-36.4-37.3-36.4h-42.4Z"/>
  </g>
  <g>
    <g>
      <path class="st0" d="M178.7,492.3v-204.3h41.3v207.1c0,27.1,15.8,45.5,40.3,45.5s38.3-18.2,38.3-45.5v-207.1h41.4v204.9c0,65.5-50.6,88.1-79.7,88.1s-81.6-17.3-81.6-88.7Z"/>
      <path class="st0" d="M471.6,392.9c31.5,19.8,78.7,47.4,78.7,104.3s-35.5,83.8-80.2,83.8-81.2-42.9-81.2-89.9h40.6c0,24.5,12.2,49.5,40.6,49.5s40.6-20.2,40.6-43.5c0-62.6-107.5-59-107.5-139.5s32.5-74.7,74-74.7,72.1,31.3,73.1,74.8h-39.6c-1-20.2-15.2-33.3-33.5-33.3s-34.5,14.1-34.5,33.3,9.9,23.3,28.8,35.2Z"/>
      <path class="st0" d="M599.3,288h135.8v40.4h-94.2v72.8h59.8v39.4h-59.8v95h105.4v40.4h-146.9v-288Z"/>
    </g>
    <g>
      <path class="st0" d="M944.2,288h41.5v249.6h105.4v38.4h-146.9v-288Z"/>
      <path class="st0" d="M1125.8,431.4c0-150.8,69.9-148.4,85.5-148.4s84.5-2.3,84.5,148.5-69,149.5-84.5,149.5-85.5,2.4-85.5-149.6ZM1210.8,323.4c-8.2,0-45.3-1.7-45.3,108.2s37.1,109,45.3,109,45.3,1.7,45.3-109-37.1-108.2-45.3-108.2Z"/>
      <path class="st0" d="M1467.2,576l-27.4-150.6-27.4,150.6h-36.5l-45.6-288h40.6l24.3,153.6,28.4-153.6h32.5l27.4,153.6,25.3-153.6h40.6l-46.7,288h-35.5Z"/>
    </g>
  </g>
</svg>