<?xml version="1.0" encoding="UTF-8"?>
<svg id="For_Sheets" xmlns="http://www.w3.org/2000/svg" version="1.1" viewBox="0 0 3531.4 3531.4">
  <!-- Generator: Adobe Illustrator 29.1.0, SVG Export Plug-In . SVG Version: 2.1.0 Build 142)  -->
  <defs>
    <style>
      .st0 {
        fill: #231f20;
      }

      .st1 {
        fill: #ffd046;
      }
    </style>
  </defs>
  <g>
    <g>
      <path class="st1" d="M1765.7,3531.6c-43.3,0-84-16.9-114.6-47.5L47.4,1880.4c-63.2-63.2-63.2-166.1,0-229.3L1651.1,47.4C1681.7,16.7,1722.4-.1,1765.7-.1s84,16.9,114.6,47.5l1603.7,1603.7c63.2,63.2,63.2,166.1,0,229.3l-1603.7,1603.7c-30.6,30.6-71.3,47.5-114.6,47.5Z"/>
      <path class="st0" d="M1765.7,0C1807.2,0,1848.6,15.8,1880.3,47.4l1603.7,1603.7c63.3,63.3,63.3,165.8,0,229.1l-1603.7,1603.7c-31.6,31.6-73.1,47.4-114.6,47.4s-82.9-15.8-114.6-47.4L47.4,1880.3c-63.3-63.3-63.3-165.8,0-229.1L1651.2,47.4C1682.8,15.8,1724.3,0,1765.7,0M1765.7-.2c-43.3,0-84.1,16.9-114.7,47.5L47.3,1651C16.6,1681.6-.2,1722.4-.3,1765.7c0,43.3,16.9,84.1,47.5,114.7l1603.7,1603.7c30.6,30.6,71.4,47.5,114.7,47.5s84.1-16.9,114.7-47.5l1603.7-1603.7c30.6-30.6,47.5-71.4,47.5-114.7s-16.9-84.1-47.5-114.7L1880.4,47.3C1849.8,16.6,1809.1-.2,1765.7-.2h0Z"/>
    </g>
    <path class="st0" d="M79.3,1848.4c-45.6-45.6-45.6-119.8,0-165.5L1683,79.3c45.6-45.6,119.8-45.6,165.5,0l1603.7,1603.7c45.6,45.6,45.6,119.8,0,165.5l-1603.7,1603.7c-45.6,45.6-119.8,45.6-165.5,0L79.3,1848.4Z"/>
    <path class="st1" d="M123.8,1803.9c-21.1-21.1-21.1-55.3,0-76.4L1727.5,123.8c21.1-21.1,55.3-21.1,76.4,0l1603.7,1603.7c21.1,21.1,21.1,55.3,0,76.4l-1603.7,1603.7c-21.1,21.1-55.3,21.1-76.4,0L123.8,1803.9Z"/>
  </g>
  <g>
    <path class="st0" d="M1076.1,1315.7v-360h113.4c47.8,0,81.9,37.9,81.9,93.5s-8.8,48-37.8,78.3c27.7,22.7,44.1,53.1,44.1,89.7,0,53.9-42.9,98.5-95.8,98.5h-105.9ZM1127.7,1006.3v96h54.2c24,0,39.1-20.2,39.1-53.1s-11.1-42.9-39.1-42.9h-54.2ZM1127.7,1265.2h51.7c29,0,47.9-20.2,47.9-51.8s-20.8-60.6-47.9-60.6h-51.7v112.4Z"/>
    <path class="st0" d="M1439.8,1146.5h-49.2v169.2h-51.7v-360h107.1c56.5,0,94.5,37.9,94.5,96s-17.7,74.5-51.7,87.2l51.7,176.8h-52.9l-47.9-169.2ZM1390.6,1006.3v90.9h52.9c30.3,0,46.7-16.4,46.7-45.5s-18.9-45.4-46.6-45.4h-53Z"/>
    <path class="st0" d="M1601.9,955.7h50.4v360h-50.4v-360Z"/>
    <path class="st0" d="M1731.5,1315.7v-360h102.7c22,0,99,1.1,99,179.4s-71.1,180.6-94.7,180.6h-107ZM1823.5,1006.3h-40.4v258.9h35.9c42.1,0,63.7-18.4,63.7-127.6s-31.5-131.4-59.2-131.4Z"/>
    <path class="st0" d="M2109.6,1322c-32.8,0-111.6-6.1-111.6-185.7s75-186.9,107.8-186.9c52,0,91.4,37.8,93.9,90.9h-52c-1.3-24-17.7-40.5-43.1-40.5s-57.1,5.4-57.1,136.5,43.5,135.1,60.8,135.1c26.6,0,39.3-17.5,39.3-55.6v-24h-40.6v-50.6h92.6v74.5c0,90.1-59.3,106.1-90,106.1Z"/>
    <path class="st0" d="M2271.7,955.7h169.7v50.5h-117.8v90.9h74.7v49.3h-74.7v118.8h131.8v50.5h-183.7v-360Z"/>
  </g>
  <g>
    <path class="st0" d="M1369.6,2406.5h-49.2v169.2h-51.7v-360h107.1c56.5,0,94.5,37.9,94.5,96s-17.7,74.5-51.7,87.2l51.7,176.8h-52.9l-47.9-169.2ZM1320.4,2266.3v90.9h52.9c30.3,0,46.7-16.4,46.7-45.5s-18.9-45.4-46.6-45.4h-53Z"/>
    <path class="st0" d="M1524.4,2395c0-188.5,87.4-185.5,106.8-185.5s105.7-2.9,105.7,185.6-86.3,186.9-105.7,186.9-106.8,3-106.8-187ZM1630.7,2260c-10.3,0-56.7-2.1-56.7,135.3s46.4,136.3,56.7,136.3,56.6,2.1,56.6-136.3-46.4-135.3-56.6-135.3Z"/>
    <path class="st0" d="M1933.4,2477.2h-77.2l-24.1,98.5h-51.9l89.9-360h50.7l89.9,360h-51.9l-25.3-98.5ZM1868.8,2426.7h51.9l-26.6-103.6-25.3,103.6Z"/>
    <path class="st0" d="M2061,2575.7v-360h102.7c22,0,99,1.1,99,179.4s-71.1,180.6-94.7,180.6h-107ZM2153.1,2266.3h-40.4v258.9h35.9c42.1,0,63.7-18.4,63.7-127.6s-31.5-131.4-59.2-131.4Z"/>
  </g>
  <g>
    <g>
      <path class="st0" d="M476.5,1585.7h50.4v360h-50.4v-360Z"/>
      <path class="st0" d="M748.6,1681.7c-5-35.4-19-51.8-43.1-51.8-41.8,0-57.1,32.8-57.1,126.3s17.8,145.3,62.2,145.3,38-25.3,38-51.8h52c-1.3,59.4-39.3,102.3-90,102.3-77.4,0-111.6-61.9-111.6-194.5s36.8-178,107.8-178,92.1,60.2,93.9,102.2h-52Z"/>
      <path class="st0" d="M872.6,1585.7h169.7v50.5h-117.8v90.9h74.7v49.3h-74.7v118.8h131.8v50.5h-183.7v-360Z"/>
      <path class="st0" d="M1202.8,1716.8c39.4,24.7,98.4,59.3,98.4,130.4s-44.4,104.8-100.2,104.8-101.5-53.6-101.5-112.4h50.8c0,30.6,15.2,61.9,50.7,61.9s50.7-25.2,50.7-54.3c0-78.3-134.4-73.8-134.4-174.3s40.6-93.4,92.6-93.4,90.1,39.1,91.3,93.5h-49.5c-1.3-25.2-19-41.7-41.8-41.7s-43.1,17.6-43.1,41.6,12.4,29.2,36,44Z"/>
    </g>
    <g>
      <path class="st0" d="M1589.2,1945.7v-360h113.4c47.8,0,81.9,37.9,81.9,93.5s-8.8,48-37.8,78.3c27.7,22.7,44.1,53.1,44.1,89.7,0,53.9-42.9,98.5-95.8,98.5h-105.9ZM1640.8,1636.3v96h54.2c24,0,39.1-20.2,39.1-53.1s-11.1-42.9-39.1-42.9h-54.2ZM1640.8,1895.2h51.7c29,0,47.9-20.2,47.9-51.8s-20.8-60.6-47.9-60.6h-51.7v112.4Z"/>
      <path class="st0" d="M1852.1,1585.7h169.7v50.5h-117.8v90.9h74.7v49.3h-74.7v118.8h131.8v50.5h-183.7v-360Z"/>
      <path class="st0" d="M2148.9,1727.2h72.2v49.3h-72.2v169.2h-51.9v-360h183.7v50.5h-131.8v90.9Z"/>
      <path class="st0" d="M2323.8,1765c0-188.5,87.4-185.5,106.8-185.5s105.7-2.9,105.7,185.6-86.3,186.9-105.7,186.9-106.8,3-106.8-187ZM2430.1,1630c-10.3,0-56.7-2.1-56.7,135.3s46.4,136.3,56.7,136.3,56.6,2.1,56.6-136.3-46.3-135.3-56.6-135.3Z"/>
      <path class="st0" d="M2709.2,1776.5h-49.2v169.2h-51.7v-360h107.1c56.5,0,94.5,37.9,94.5,96s-17.7,74.5-51.7,87.2l51.7,176.8h-52.9l-47.9-169.2ZM2660,1636.3v90.9h52.9c30.3,0,46.7-16.4,46.7-45.5s-18.9-45.4-46.6-45.4h-53Z"/>
      <path class="st0" d="M2871.2,1585.7h169.7v50.5h-117.8v90.9h74.7v49.3h-74.7v118.8h131.8v50.5h-183.7v-360Z"/>
    </g>
  </g>
</svg>