<?xml version="1.0" encoding="UTF-8"?>
<svg id="For_Sheets" xmlns="http://www.w3.org/2000/svg" version="1.1" viewBox="0 0 2592 2160">
  <!-- Generator: Adobe Illustrator 29.1.0, SVG Export Plug-In . SVG Version: 2.1.0 Build 142)  -->
  <defs>
    <style>
      .st0, .st1 {
        fill: #231f20;
      }

      .st2 {
        fill: #ffd046;
      }

      .st1 {
        fill-rule: evenodd;
      }
    </style>
  </defs>
  <g>
    <rect class="st2" x="-.1" y="-.1" width="2592.2" height="2160.2" rx="135.1" ry="135.1"/>
    <path class="st0" d="M2457,0c74.6,0,135,60.4,135,135v1890c0,74.6-60.4,135-135,135H135c-74.6,0-135-60.4-135-135V135C0,60.4,60.4,0,135,0h2322M2457-.2H135C98.9-.2,64.9,13.8,39.4,39.4,13.8,64.9-.2,98.9-.2,135v1890c0,36.1,14.1,70.1,39.6,95.6,25.5,25.5,59.5,39.6,95.6,39.6h2322c36.1,0,70.1-14.1,95.6-39.6,25.5-25.5,39.6-59.5,39.6-95.6V135c0-36.1-14.1-70.1-39.6-95.6S2493.1-.2,2457-.2h0Z"/>
  </g>
  <path class="st0" d="M2457,36H135c-54.6,0-99,44.4-99,99v1890c0,54.6,44.4,99,99,99h2322c54.6,0,99-44.4,99-99V135c0-54.6-44.4-99-99-99ZM2502,2025c0,24.8-20.2,45-45,45H135c-24.8,0-45-20.2-45-45V135c0-24.8,20.2-45,45-45h2322c24.8,0,45,20.2,45,45v1890Z"/>
  <g>
    <path class="st1" d="M1520.4,570.9c-26.8-.9-47.5-19.2-62-54.8-9.6-27.9-17.7-56.8-50-69.6-24.4-4.9-38-16.1-27.8-40.8,23.3-50.4,60.7-80.8,118.5-81.7,78.1,7.1,120.4,48.9,126.9,125.3-.6,65.3-35.8,105.8-105.6,121.6Z"/>
    <path class="st1" d="M324,1490c0,186.9,152,339.3,338.5,339.3s338.5-152.4,338.5-339.3-52.6-207.9-133.9-270c17.4-24.3,5.8-5.3,59.2-83.5,76.8,61.3,117.2,136.9,122.7,232.9,1.9,33.2,31.4,62.5,33.9,47.1,15.3-92.1-13.6-187.5-125.3-287.8.9-41,15.7-54.1,44.4-39.3,71.4,163.1,142.7,326.2,214.1,489.3,6.1,14.8,19.1,22.7,39.2,23.6,120.1.9,240.2,1.7,360.2,2.6,10.1-1.5,20.2-3.1,30.4-4.6,35.8,135.1,159.5,235.5,305.9,235.6,174.1.2,316.2-142.4,316.2-316.9s-142-316.9-316.2-316.9-103.8,13.6-150.1,37.3l-24.2-34.3c5-2.9,10.1-5.7,15.4-8.4,134-66.3,261-69.8,381.1-10.5,13-7,26.1-14,39.2-20.9-57.4-41-128.8-68-214.1-81.1-1.7-16.6-3.5-33.1-5.2-49.7-4.5-16.6-14.1-22.7-28.7-18.3-35.7,8.7-71.3,17.4-107,26.2-6-191.3-42.5-368.8-188-497.2-14.7-10.1-26-10.1-33.9,0-27.8,19.2-55.7,38.4-83.5,57.6-24.9,19.2-32,38.4-36.5,57.6-18.3,41-36.5,82-54.8,123-93.1-14-186.2-20.9-279.3-20.9-46.2,2.6-67.9,23.5-86.1,47.1-62.7,90.7-125.3,181.4-188,272.1-98.3-67.2-222.8-92.5-357.6-34-25.4,11-4,42.9,28.7,31.4,106.2-37.4,205.4-36.6,308,28.8-54.6,81.8-38,57.2-57.9,87.2-49.3-28.1-106.2-44.2-166.8-44.2-186.4,0-338.5,152.4-338.5,339.3ZM1737.4,1586.2c37.2-5.7,75.2-11.5,113.2-17.3,19.2,37.3,58,63,102.7,63,63.5,0,115.4-51.9,115.4-115.6s-51.8-115.6-115.4-115.6-25.7,2.2-37.4,6.3l-62.2-90.5c29.7-14.1,64.8-22.9,98.3-22.9,123.9,0,225,101.3,225,225.6s-101.1,225.7-225,225.6c-99.8-.1-186.6-70-214.4-158.4ZM1805.6,1347.6l61.4,92c-16.4,18.5-27,42.4-28.8,68.6-37.1,5.7-74.2,11.3-111.3,16.9-2.8-65.7,28.5-135.3,78.7-177.5ZM1731.1,1237.6l21.7,34.5c-79,64.2-123.1,165.3-116.5,266.9-7,1.1-13.9,2.1-20.9,3.2-2.3-129.6,31.6-234.2,115.6-304.5ZM1423.5,1413.6l5.4-50.4,33.2,53.6-38.5-3.2ZM1099.4,1155.2c61.3,1.1,122.7,2.1,184,3.2,7.1-1.8,14.3.7,21.4,7.5,8.2,12.9,16.4,25.7,24.6,38.6,3.2,7.5.7,12.2-7.5,13.9-29.6-.7-59.2-1.4-88.8-2.1-37.8.4-54.2,15-49.2,44,4.3,44.3,8.6,88.6,12.8,132.9-1.4,10.4-7.1,10.7-17.1,1.1-31.4-72.2-62.7-144.4-94.1-216.6-1.4-9-9-19.6,13.9-22.5ZM1045.4,958c27.9-40.2,55.9-80.5,83.8-120.7,9.7-8.2,19.1-13.4,26.2,2.6,19.5,22.2,38.1,28.6,55,0,8.7-20.9,30.2-21.6,57.6-13.1,70.7,20.1,141.4,40.2,212.1,60.4,7,.4,14-.2,20.9-7.9,20.9-14,41.9-28,62.8-42,35.8,55.1,71.6,110.2,107.3,165.3-2.6-9.8-243.5,41-243.5,47.2-21.1,5.1-36.7,2.9-49.7-2.6-44.5-24.5-89-49-133.5-73.5-69.2-40.8-135.1-41.8-199-15.7ZM410.2,1489.4c0-140.3,114.1-254.7,254-254.7s83.6,10.8,119.2,29.9l-91.7,139.8c-8.7-2.8-17.9-4.4-27.5-4.4-49.1,0-89.1,40.1-89.1,89.4s40,89.4,89.1,89.4,89.1-40.1,89.1-89.4-9.2-45.2-24.3-61.2l89.9-140.5c60.3,46.6,99.2,119.7,99.2,201.6,0,140.3-114.1,254.7-254,254.7s-254-114.4-254-254.7Z"/>
    <path class="st1" d="M941.2,999.3c-8.1,4.8-15.4,5.2-22,1-13.5-23-19-46.8-19-71.2-2.3-23.8,1.4-46.9,14-69.2,6-9.6,15-10.9,27-4,28.1,16,39.8,40.2,44,68.2-2.4,38.2-16.2,64.1-44,75.2Z"/>
  </g>
</svg>