<?xml version="1.0" encoding="UTF-8"?>
<svg id="For_Sheets" xmlns="http://www.w3.org/2000/svg" version="1.1" viewBox="0 0 3531.4 3531.4">
  <!-- Generator: Adobe Illustrator 29.1.0, SVG Export Plug-In . SVG Version: 2.1.0 Build 142)  -->
  <defs>
    <style>
      .st0 {
        fill: #231f20;
      }

      .st1 {
        fill: #ffd046;
      }
    </style>
  </defs>
  <g>
    <path class="st1" d="M1765.7,3531.6c-43.3,0-84-16.9-114.6-47.5L47.4,1880.4c-63.2-63.2-63.2-166.1,0-229.3L1651.1,47.4C1681.7,16.7,1722.4-.1,1765.7-.1s84,16.9,114.6,47.5l1603.7,1603.7c63.2,63.2,63.2,166.1,0,229.3l-1603.7,1603.7c-30.6,30.6-71.3,47.5-114.6,47.5Z"/>
    <path class="st0" d="M1765.7,0c41.5,0,82.9,15.8,114.6,47.4l1603.7,1603.7c63.3,63.3,63.3,165.8,0,229.1l-1603.7,1603.7c-31.6,31.6-73.1,47.4-114.6,47.4s-82.9-15.8-114.6-47.4L47.4,1880.3c-63.3-63.3-63.3-165.8,0-229.1L1651.2,47.4C1682.8,15.8,1724.3,0,1765.7,0M1765.7-.3c-43.3,0-84.1,16.9-114.7,47.5L47.3,1651c-30.6,30.6-47.5,71.4-47.5,114.7,0,43.3,16.9,84.1,47.5,114.7l1603.7,1603.7c30.6,30.6,71.4,47.5,114.7,47.5s84.1-16.9,114.7-47.5l1603.7-1603.7c30.6-30.6,47.5-71.4,47.5-114.7,0-43.3-16.9-84.1-47.5-114.7L1880.4,47.3c-30.6-30.6-71.4-47.5-114.7-47.5h0Z"/>
  </g>
  <path class="st0" d="M79.3,1848.4c-45.6-45.6-45.6-119.8,0-165.5L1683,79.3c45.6-45.6,119.8-45.6,165.5,0l1603.7,1603.7c45.6,45.6,45.6,119.8,0,165.5l-1603.7,1603.7c-45.6,45.6-119.8,45.6-165.5,0L79.3,1848.4Z"/>
  <path class="st1" d="M123.8,1803.9c-21.1-21.1-21.1-55.3,0-76.4L1727.5,123.8c21.1-21.1,55.3-21.1,76.4,0l1603.7,1603.7c21.1,21.1,21.1,55.3,0,76.4l-1603.7,1603.7c-21.1,21.1-55.3,21.1-76.4,0L123.8,1803.9Z"/>
  <g>
    <path class="st0" d="M981.6,2244.3l182.8,75.7,236.8-571.6h584.5s7.3-104.1,7.3-104.1h-418.2v-173.6h430.3s23.3-332.8,23.3-332.8c-80.4-15.2-141.2-85.7-141.2-170.5,0-95.9,77.7-173.6,173.6-173.6,95.9,0,173.6,77.7,173.6,173.6,0,33.9-9.7,65.5-26.5,92.2l-60.3,862.5h-630.4s-258.8,624.9-258.8,624.9l-343.1-142.1,66.4-160.4Z"/>
    <path class="st0" d="M1540.5,2092.3c-.3,6.8-.5,13.7-.5,20.6,0,249.2,202,451.3,451.3,451.3s451.3-202,451.3-451.3c0-154.2-77.4-290.4-195.4-371.8l13.4-192.2c210.3,100.6,355.6,315.3,355.6,564,0,345.1-279.8,624.9-624.9,624.9-251.7,0-468.7-148.9-567.7-363.4l116.8-282.1Z"/>
  </g>
</svg>