<?xml version="1.0" encoding="UTF-8"?>
<svg id="For_Sheets" xmlns="http://www.w3.org/2000/svg" version="1.1" viewBox="0 0 3531.4 3531.4">
  <!-- Generator: Adobe Illustrator 29.1.0, SVG Export Plug-In . SVG Version: 2.1.0 Build 142)  -->
  <defs>
    <style>
      .st0, .st1 {
        fill: #231f20;
      }

      .st2 {
        fill: #ffd046;
      }

      .st1 {
        fill-rule: evenodd;
      }
    </style>
  </defs>
  <g>
    <path class="st2" d="M1765.7,3531.6c-43.3,0-84-16.9-114.6-47.5L47.4,1880.4c-63.2-63.2-63.2-166.1,0-229.3L1651.1,47.4C1681.7,16.7,1722.4-.1,1765.7-.1s84,16.9,114.6,47.5l1603.7,1603.7c63.2,63.2,63.2,166.1,0,229.3l-1603.7,1603.7c-30.6,30.6-71.3,47.5-114.6,47.5Z"/>
    <path class="st0" d="M1765.7,0c41.5,0,82.9,15.8,114.6,47.4l1603.7,1603.7c63.3,63.3,63.3,165.8,0,229.1l-1603.7,1603.7c-31.6,31.6-73.1,47.4-114.6,47.4s-82.9-15.8-114.6-47.4L47.4,1880.3c-63.3-63.3-63.3-165.8,0-229.1L1651.2,47.4C1682.8,15.8,1724.3,0,1765.7,0M1765.7-.3c-43.3,0-84.1,16.9-114.7,47.5L47.3,1651c-30.6,30.6-47.5,71.4-47.5,114.7s16.9,84.1,47.5,114.7l1603.7,1603.7c30.6,30.6,71.4,47.5,114.7,47.5s84.1-16.9,114.7-47.5l1603.7-1603.7c30.6-30.6,47.5-71.4,47.5-114.7s-16.9-84.1-47.5-114.7L1880.4,47.3c-30.6-30.6-71.4-47.5-114.7-47.5h0Z"/>
  </g>
  <path class="st0" d="M3452.2,1683L1848.4,79.3c-45.6-45.6-119.8-45.6-165.5,0L79.3,1683c-45.6,45.6-45.6,119.8,0,165.5l1603.7,1603.7c45.6,45.6,119.8,45.6,165.5,0l1603.7-1603.7c45.6-45.6,45.6-119.8,0-165.5ZM3407.6,1803.9l-1603.7,1603.7c-21.1,21.1-55.3,21.1-76.4,0L123.8,1803.9c-21.1-21.1-21.1-55.3,0-76.4L1727.5,123.8c21.1-21.1,55.3-21.1,76.4,0l1603.7,1603.7c21.1,21.1,21.1,55.3,0,76.4Z"/>
  <path class="st1" d="M2577.4,2354.7c-36.8-54.3,26.7-63-9-100.1-5.1-7.7-12-13.8-11.1-23.7,2.3-7.8,11.5-13,17.2-18,17.6-15.1-7-32-14.6-45.4.2-16.8,2.9-35.3.2-51.7-2.6-9.2-10.8-15.8-8.6-25.7,2.5-18.4,6.8-36.1,12.7-53.6,7.9-21.1-13.3-29.4-22.1-44.6-16.8-22.3,3.5-38.5,12.5-57-8-37.9-20.7-80.1,10.6-111.7v2.7c17.3-14.9,19.4-30.7,6.6-49.6-13-27.5,32-42.8,16-69.7-13.6-26-4.9-55.2-9.9-82.9-20.8-115.1-150.2-150.6-251-162.4-188.7-7.8-377.8,8-565.9,23.5-33.8,2.9-68.1,3.4-101-6.3-93.4-24.7-170.2-108.4-182.7-204.9-.7-3.7,8-3.7,10.9-4.3,29.2-7.5,49.3-32.6,63.7-57.5-33.7-30.8-81.4-45-126.8-44.3.2,1.2-.3,2-1.3,2.7-38.8-107.6-187.4-131-280.3-81.5h1.2c-35.7,16.9-89.8,64-101.4,98.9-36.9-4.8-73.9,4.5-103.3,27.4-2.6,2,23,40.3,27.2,44.7,22.2,16.9,45.9,32.5,73.4,38.7-9.9,24.8-15.2,52.2-26.8,76.2-10,19.6-35,36.2-32.2,59.9,2.9,11.1,7.2,22.7,17.5,28.2,1.6,2.6.7,3.5-.5,6.8-4.3,16.5,8.2,34.5,23.1,41,8.5,3.7,2,16.3,5.7,23.9.6,7.7,7.7,11.3,13.9,14.4,42,19.7,90,4.5,124.7-23.3,43.1,27.4,69.3,58.8,65.4,113.5h1.3c-1.8,57.3-3.7,114.6-5.3,172,2.3,17,8.8,34,11.9,51,1.6,8.7-.2,17.7,5.4,25.4,2.3,4.2,3.5,6.4,7.7,8.5,27.1,7.2,16.3,41.5,33.2,58.8,6.6,5.3,17.3,6.7,25.6,8.7,2.8.6,6.2,7.3,8.3,9.4,12.2,7.5,17.1,20.7,21.4,33.7,9.8,28.4,48.4,10.2,37.3,51.4-.7,3.5-3.5,11,1.3,12.9,4.9,1.9,9.9,6.2,14.8,7.5,1.7.4,5.8-1.1,6.9.4,11.4,11.5,1.5,27,3.7,41,8.4,3.6,15,12.3,22.7,17.6,10.2,5.5,9.7,9.1,3.5,18.1-24.1,43.1-24,91.5-26.1,139.4-35.2,28.5-71.2,55.3-78.9,105.4,39.7,0,79.6,1.7,119.3,2.6,14.9,2.6,17.3-9.8,21.7-20.5,2.3-18.5,20.1-8,31.5-11.8,10.8-7.9,1.8-27.1,4.9-38.4,30.5-16.4,5.1-62.5,26.8-85.5,1.5-7.9,5-2.7,5.1,2.1-7,30.6-6.1,90.4,10.9,116.8l-1.3,1.3v-1.3c-39.2,18.4-72,51.1-80.1,94.8,38.2-.4,76.3-.8,114.5-1.3,5.7.2,10.7-2.2,16.1-3.9.9-.3,0-5.7.2-6.8,4.9-11,14.2-42.5,28.1-41.4,10.8-3.4,39.1-4,38.9-18.1-1.1-45.8-28.4-87.3-25.5-134.1l1.3,9.3c.2-33.4,32.7-34.1,51.3-54.4,3.3-2.7.8-5.2-.5-9.2-2.6-9-.4-18.4-3.8-27.4-6.1-20.9,14-8.9,23-15.2,12.2-7.8,6.9-25.3,18-34.1,2.6-1.8,9.9-6.1,10.7-1.3,11.1-10,22.1-22.7,13.7-37.8-2.7-8,6-9,6.6-15.7,0-8.3,1.8-15.3,5.2-22.6,2.3-.1,10.6,19.1,13.1,22.3,2,2.7-1,7.8,1,10.7,4.9,9.1,13.5,13.9,23.4,9.9,8.6-3,6.9-13.4,19.1-17.1,13.3-2.2,23.4,11,35.4,14.4,12.5.4,29.4,4.1,35.1-9.8,6-6.1,18.3-12.4,19.8.3,4.5,10.3,15.2,16.1,25.2,20,27.3,7.3,32.7-31,77.4-1.8,28.8,5.7,21.9-21,61.6.5v-1.3c25.9-.2,52.4-40.9,82.8-40.1l-2.7,1.3c3.7,5.8,7.5,11.7,11.3,17.6,2.8,4.4.7,11.6,5.4,14.3,11.5,6.7,25.2,4.9,35.3,14.9-19.6,28.1.4,49.3,18.8,70.8-8.3,4.3-15,15.7-16,24.2,6,9.2,11.6,18.1,18.7,26.6-11.6,5.4-19.4,17.5-18.7,30.7l-2.8-2.7c-4.4,23.6,7.4,44.3,13.4,66.4-15.7,37.9-77.2,23.4-82.8,117.9,15.4,1.1,30.2-3.7,45.4-4l-1.3,1.3c22.3-1.1,44.5-1.3,66.8-1.3v2.7c45.8-26.9,16.4-59.5,43.1-59.6,25.2-.6,38.7,36.9,54.3,7.2-5.8-25.1-16.2-26.6,5.6-49,3.9-4.6,5.6-4.5,2.4-10.1-5.6-17.6-15.3-34.1-6.7-52.8v1.3c9.4-21,7.6-29.5,2.6-50.7-1.4-15.7,11.2-24,23.9-29.4.7-.4,8.8,10.4,9.7,11.5,27.4,34.7-18.4,44.8,10.4,73.7,6.9,6,10.2,13.9,5,22.2-12,15.4,1.9,18.6,12.4,27.9,15.6,9,19.2,12.7,8,28.9v-1.4c-3.6,12.3,3.7,21.7,9.2,31.9,3.1,5.8-4.9,9.2-8.4,11.6-22.1,17.2-37.7,40-47.5,66,42.1,6.3,84.5,2.6,126.8.2,4.5-.3,4.9-1.3,7.7-5.1,6.2-6.5,11.8-13.4,15.5-21.8,1.8-3,7.9-20.7,10.5-19.9,21.6,5.8,40.7,14.3,44-15.7-.2-22.4,27.4-19.1,1.1-47.3"/>
</svg>