<?xml version="1.0" encoding="UTF-8"?>
<svg id="For_Sheets" xmlns="http://www.w3.org/2000/svg" version="1.1" viewBox="0 0 3531.4 3531.4">
  <!-- Generator: Adobe Illustrator 29.1.0, SVG Export Plug-In . SVG Version: 2.1.0 Build 142)  -->
  <defs>
    <style>
      .st0, .st1 {
        fill: #231f20;
      }

      .st2 {
        fill: #ffd046;
      }

      .st1 {
        fill-rule: evenodd;
      }
    </style>
  </defs>
  <g>
    <path class="st2" d="M1765.7,3531.6c-43.3,0-84-16.9-114.6-47.5L47.4,1880.4c-63.2-63.2-63.2-166.1,0-229.3L1651.1,47.4C1681.7,16.7,1722.4-.1,1765.7-.1s84,16.9,114.6,47.5l1603.7,1603.7c63.2,63.2,63.2,166.1,0,229.3l-1603.7,1603.7c-30.6,30.6-71.3,47.5-114.6,47.5Z"/>
    <path class="st0" d="M1765.7,0c41.5,0,82.9,15.8,114.6,47.4l1603.7,1603.7c63.3,63.3,63.3,165.8,0,229.1l-1603.7,1603.7c-31.6,31.6-73.1,47.4-114.6,47.4s-82.9-15.8-114.6-47.4L47.4,1880.3c-63.3-63.3-63.3-165.8,0-229.1L1651.2,47.4C1682.8,15.8,1724.3,0,1765.7,0M1765.7-.3c-43.3,0-84.1,16.9-114.7,47.5L47.3,1651c-30.6,30.6-47.5,71.4-47.5,114.7,0,43.3,16.9,84.1,47.5,114.7l1603.7,1603.7c30.6,30.6,71.4,47.5,114.7,47.5s84.1-16.9,114.7-47.5l1603.7-1603.7c30.6-30.6,47.5-71.4,47.5-114.7s-16.9-84.1-47.5-114.7L1880.4,47.3c-30.6-30.6-71.4-47.5-114.7-47.5h0Z"/>
  </g>
  <path class="st0" d="M3452.2,1683L1848.4,79.3c-45.6-45.6-119.8-45.6-165.5,0L79.3,1683c-45.6,45.6-45.6,119.8,0,165.5l1603.7,1603.7c45.6,45.6,119.8,45.6,165.5,0l1603.7-1603.7c45.6-45.6,45.6-119.8,0-165.5ZM3407.6,1803.9l-1603.7,1603.7c-21.1,21.1-55.3,21.1-76.4,0L123.8,1803.9c-21.1-21.1-21.1-55.3,0-76.4L1727.5,123.8c21.1-21.1,55.3-21.1,76.4,0l1603.7,1603.7c21.1,21.1,21.1,55.3,0,76.4Z"/>
  <path class="st1" d="M1210.2,1337.6c16.6,5.7,14.2-28.4,6.6-34-6-4.4-6.1-.8-6.2,6.5,0,6.8-5.2,22.6-.4,27.5M1241.4,1671.8c-8.5-4.4-13.7-.7-15.2,8-.6,3.2-2.5,6.1.9,8.2,3.3,2.1,3.9-2.5,6.7-2.1,19.1,11.7,20-1.8,7.6-14.1M1717.9,2308.7c3.2-10-4.7-9.3-6.3,0-2.7,14.8,3,34.5,4.3,49.5-1,7.4,19.4,70.9,25,62.3,3.9-37-25.3-75.2-22.9-111.9M1304.2,1438.3c-12.6-12.3-44.9,0-35,18.8,10.6,16.1,33.9-5.6,35-18.8M1152.1,1238.7c-9.8,13.2-3.1,39.7-1.2,55.6,1.4,12.4,4.3,10.5,12.4,16.3,6,4.2,8.9,16.7,16.5,17.3,2,.1,6,4,7.2,3.6,2.4-.8,3.3-10,3.2-12.2-.7-15.1-16.7-31.5-22.2-44.9-5-12.4-10.1-23.6-15.9-35.7M1408.6,1198.8c-30.8-17.7-42.6,77-23.3,85.2,8.1-1.7,2.2-25,3.6-30.3,9.1-32.7,27.2,20.2,35.2,16.1,6.2-3.1-1.2-27.8-3.2-32.8-4.3-10.5-3.7-31.2-12.4-38.3M1554.2,1325.4c137.6-20.8,182.3,16.3,299.4,74,63.1,22.9,129.6,48.7,197.8,41.5,34.9-4.7,71.7-7.5,105.7-16.7,33.5-9.2,62.5-22.1,98.3-19,106.6,3.1,185.7,101.5,225,192,43.3,92.9-12,100.2,17.5,198.6,6.8,33.3,13.2,67,16,100.8,2.6,32.3-4.2,72.7,11,102.2,14.5,28.3,45.8,49.7,50.3,83.2-4.4,70.2,13.6,139.3,29.4,207.5,5.2,33.2,32.7,60.5,33.3,93.8-2,13.4-15.5,21.8-17.7,36.1-2.4,15.9.7,31.1,3.9,46.5,6.2,30.1-28.5,56.3-56.5,52.5-10.2-1.5-34.3,2.4-41.4-5.9-16.9-46.2,31.7-87.1,35.9-131.7,3.1-33.8-14.9-66.8-24.4-98.6-17.3-49.9-23.4-105.1-51.3-150.6-10.1-14-20.3-26.6-26.1-43.2-5.7-16.1-5-34.3-11.7-50.1-23.9-44.3-67.4-73.8-89.3-120.3-60.8-119.3-66.8-38.9-57,40.5,5.1,35.7,11.3,68,32.1,98.1,8.6,12.5,23.4,25.2,23.8,41.2-11.8,49.8-35.6,97.1-41,149.1-4.2,34.2-12.1,68.1-14.5,102.4,0,18.8,1.1,33.8-9.8,50-8.9,13.1-25.3,21-25.6,38.3,4.7,33-12.2,61.8-45.9,69.5-69.7,16-28.2-25.3-64.3-8.5-29.2-13.1,25.8-50.2,33.6-65.6,59.8-59.2,49.3-117.7,55.1-194.4,9-68.1-7.4-135.9-45.3-193-106.6-141-1.6-123.6-123.7-112.5-37.6,2.5-73.1-.7-110.5-4.5-70-7.5-131.3,38.4-201.7,26.9-39.6,2-19.8,47.2-32.1,71.5-13.2,32.1-28.5,57-22.6,93,16.5,68.5,45.2,134.4,61.7,203.1,5.1,17.5,10,35,16.2,52.1,4,11,17.7,25.6,16.8,37-23.8,45.7,1.1,62.2-10.5,93.6-8,9.6-28.5,12.1-40.3,11.8-48.1,0-10.2,57.2-104.8,55.1-10.4.5-26.7,8-31.1-4.9-5.9-17.6-9.4-3.3-21.3-6.7-21.7-6,22.6-65.4,31.4-71.3,12.9-8.7,33.4-11.3,42.5-24.5,18-47.8,4.4-103.2-.4-152.8-10.5-69.5-20.4-140.4-37.2-208.7-8.4-34-18.1-67.6-23.2-102.3,2.3-38,19.6-58.5-13.5-91.6-10.6-9.8-22.5-19.3-30.4-31.8-3.3-5.3-10.5-32-19.8-29.2-9.5,2.9.7,29.7,3.7,34.8,14.6,25.6,48.9,44.7,55,74.4-.7,13.7-13.5,13.9-22.3,8-13.6-9.1-22.9-23.2-35.8-32.8-11.7-8.7-29-5.3-38.8-15.7-23.1-24.7.6-61.7-23.1-85.3-17.5-9.5,10.5,65.8-5.6,73-30.4,16.1-47-44.3-48-65.7-6.8-33-19.2-67.1-50.4-84.6-28.3-22-37.6-61.1-51.1-93.2-5.5-13.2-12.6-21,2.8-27.3,15-6.1,27.2-17.9,32.7-33.7,1.5-4.4,3.5-26.9-3.8-24.6-14.4,41.4-29.5,41.9-63.8,63.3-41.1,36.6,35.4,66.9-51.4,94.5-13,8.1-25.3,21.3-42,16.8-55.1-29.2-59.1,1.6-68.9-27.9-2.6-17.1-21.2-15.8-30.1-27-8.4-13.5,3.3-32.2,4.6-46.4,1.5-16.1-1.2-32.5.5-48.7,1.2-33.9,29.9-57.2,33-90,.4-16.1,7.6-31.3,11.6-46.7,4.5-17.2,1.1-34.9,3.4-52.4.9-7.1,15.4-31.3,12.2-35.9-18-8-40.2,13.4-67.2,6.2-43.3.6-81.1,32.5-123.8,29.5-45.2-9.8-84.7-39.5-121.6-64.9-6.8-12.4,1.4-27,14-31.1,14.7-4.8,25.1,6.8,37,12.8,14.6,5.2,29.4,14.9,44.1,19,5.1.6,4.3,2.5,5-.7-15.3-36.1-50.2-64.5-69.6-99.4-14.5-22.5-14.9-48.2-19.8-73.8-6.5-12.4-8-24.9-9.7-38.6-3-8-7.9-15-9.7-23.5-1.7-8-3.6-29.9,9.1-30.2,4.6,0,10.1,5.4,13.8,7.4,4.3,2.3,8.3.8,12.7,1.9,23.4,6.4,16,29.9,16.6,47.1,2.3,5.3,9.4,8.7,13,13.2,6.9,8.7,20.4,28,16.9,4.9-1.3-32.4-24.4-58.3-30.1-89.1,18.2-44.3,32.8-7.3,41.5,18,2.6,5.6,14.4,22.1,18.5,8.2,13.4-25.8-50.4-115.3.4-109.7,31.2,5.4,22.9,52.6,48.5,65,9.3,4.5,1.5-18.4,1.8-22.6.4-6.8-1.6-27.8,6.8-30.8,12.8-4.6,20,6.9,20,18.1,0,5.3,2.9,28.5,11.7,14.8,5.6-8.7-6.7-23.5-4.1-34.5,3.9-17.3,10.4-8.7,20.3-2.4,9.4,6,15.6-3.1,24.7.2,11.7,4.3,10.7,22.9,16.5,31.7,5.2-6.5-1.6-25.2,9.2-28.5,16.9-4.8,30.4,60.2,27,72.7-3.2,31.5-11.3,60.6-26.5,88.3-5.5,28-13.2,61.7-6.1,89.4,6.7,12.4,3.8,26.7,8,39.8,1.4,4.6,14.2,29.2,21.8,20.8,3-3.2-2.3-9.9-3.1-12.6-4.8-28.4-6-58.1,3.1-85.6.2-6.9-4.9-12.8-1.9-19.9,39-36,71.7,36.6,84.1,66.3,3.6,12.7,8.2,30.3,20.5,37.1,5.2,1.2,6.5-2.9,10.6-5.6,16.7-3.1,30.1-9.7,47.3-11.8,9.3-2.6,26.1,9.7,25.9-5.5,4-16.5,3.8-34.5,15.8-47.3,2.6-5.3,2-11.1,6.4-15.7,8.7-9,8.6-25.3,16.6-35.8,11.8-15.6,49.9-62,67.5-27.1,6.2,12.4-6.4,25.8-2.8,39.2,12.8,25.5,22.4,58.9,12.4,86.8-3.3,6.4-7.3,10.5-6.3,18.1,9.2,36.9,26.9-7.8,23.1-24.1,7.2-24.6-15.4-76.8,6.3-83,25.4-9.9,1.7,49.4,29.2,55.3,25-1.5,23.3-41.5,16.3-57.9.6-24.7-12.7-46.4-17-69.9-4.8-24.4,8-45,9.2-68.7,7.2-19.1,4.6-39.6,17.3-56.3,6.1-24.5,18.9-7.7,27,4.8,7,9.7,10.4-16.2,12-18.2,8.5-10.6,26-6.2,38.1-9.4,13.3-3.6,27.1-7,32.4,10.2,4.3,13.7-11.1,8.8-11.7,18.5-.4,5.8,8.2,15.9,9.8,6.4,1.1-6.9,12.4-24.7,21.1-20.5,29.2,14.1-1.3,64.6-2.9,85.3-1.2,14.8,12.2,14,18.6,3.6,5.3-15.6,12.1-8.5,19.8-16.2,1.9-3.5-.6-9.9,0-13.9,1.3-17.4,20.7-33.4,27-8,11.5,33-2.4,70-7.7,103.5-7.5,61.5-39.1,115.7-87,154.4-21.6,14-47.6,21.4-63.8,43.6M1186.3,1356.7c4-38.4-88.3-.7-103.2-40.9-4.3-8.3-9.5-38.6-22.8-38.9-8.6-.2,1.2,25,3.1,30.5,19.3,33.9,11.6,61.3-31.3,46.4-14.6-3.8-19.6-19.3-28.4-28.5-11.8-5.1-6.2,12.9-3.8,18.1,20.2,43.9-24.6,35.9-47.8,17.6-51.3-12.6-7.6,29.4,16.3,30.4,33.8,15.8,63.7-6.9,95.6-17,29.4-6.6,59.1-12.4,88.7-17.9,8.5-.3,27.4,6.9,33.7.2M1354.6,1370.4c12.7,25.8,64.1,2,87.7,3.8,29.7-7.6,61.4-19.2,83.1-41.5,17.7-29.8,50.3-38.9,76.6-58.3,12.9-11.2,25.9-23.1,37.8-35.3,18.4-24,34.5-52.5,40.3-82.2.1-4.4-1.4-35.1-6.9-35-3.9,0-8.9,34.6-10.2,39.5-4.6,16.1-10.5,31.2-18.6,45.8-17,23.7-34.2,57.5-64.4,65.6-17.6,2,19.8-71.2,11.8-73.2-6.2-1.6-20.4,27.1-22.8,31.8-13.4,29.5-20.9,64.4-48.4,84.7-11.6,9.1-28.5,8.1-29.4-9.1,1.8-16.6.5-32.9-6.3-48.4-15.5-48.1.8,66-29.4,87.1-17.2,19.4-24.5,6.7-27-13.1-.8-6.1-10.4-40.1-14.8-22.9-5.1,20.1,8.3,34-11.5,49-13.8,15.6-40.9-1.4-47.6,11.6"/>
</svg>