<?xml version="1.0" encoding="UTF-8"?>
<svg id="For_Sheets" xmlns="http://www.w3.org/2000/svg" version="1.1" viewBox="0 0 3531.4 3531.4">
  <!-- Generator: Adobe Illustrator 29.1.0, SVG Export Plug-In . SVG Version: 2.1.0 Build 142)  -->
  <defs>
    <style>
      .st0 {
        fill: #231f20;
      }

      .st1 {
        fill: #ffd046;
      }
    </style>
  </defs>
  <g>
    <path class="st1" d="M1765.7,3531.6c-43.3,0-84-16.9-114.6-47.5L47.4,1880.4c-63.2-63.2-63.2-166.1,0-229.3L1651.1,47.4C1681.7,16.7,1722.4-.1,1765.7-.1s84,16.9,114.6,47.5l1603.7,1603.7c63.2,63.2,63.2,166.1,0,229.3l-1603.7,1603.7c-30.6,30.6-71.3,47.5-114.6,47.5Z"/>
    <path class="st0" d="M1765.7,0c41.5,0,82.9,15.8,114.6,47.4l1603.7,1603.7c63.3,63.3,63.3,165.8,0,229.1l-1603.7,1603.7c-31.6,31.6-73.1,47.4-114.6,47.4s-82.9-15.8-114.6-47.4L47.4,1880.3c-63.3-63.3-63.3-165.8,0-229.1L1651.2,47.4C1682.8,15.8,1724.3,0,1765.7,0M1765.7-.3c-43.3,0-84.1,16.9-114.7,47.5L47.3,1651c-30.6,30.6-47.5,71.4-47.5,114.7,0,43.3,16.9,84.1,47.5,114.7l1603.7,1603.7c30.6,30.6,71.4,47.5,114.7,47.5s84.1-16.9,114.7-47.5l1603.7-1603.7c30.6-30.6,47.5-71.4,47.5-114.7,0-43.3-16.9-84.1-47.5-114.7L1880.4,47.3c-30.6-30.6-71.4-47.5-114.7-47.5h0Z"/>
  </g>
  <path class="st0" d="M79.3,1848.4c-45.6-45.6-45.6-119.8,0-165.5L1683,79.3c45.6-45.6,119.8-45.6,165.5,0l1603.7,1603.7c45.6,45.6,45.6,119.8,0,165.5l-1603.7,1603.7c-45.6,45.6-119.8,45.6-165.5,0L79.3,1848.4Z"/>
  <path class="st1" d="M123.8,1803.9c-21.1-21.1-21.1-55.3,0-76.4L1727.5,123.8c21.1-21.1,55.3-21.1,76.4,0l1603.7,1603.7c21.1,21.1,21.1,55.3,0,76.4l-1603.7,1603.7c-21.1,21.1-55.3,21.1-76.4,0L123.8,1803.9Z"/>
  <path class="st0" d="M2519.4,1423.5c-90.5,0-174.8,26.2-245.9,71.4l-160.9-213.9,21.1-75.5c100.9-8.7,156.7-47,153.3-84.1-3.3-36-103.4-9-214.7-7.6-30.5.4-192.5-.3-191.6,29.4,1,30.5,104.5,55.3,177.1,62.2l-12.9,46.3h-653.7c13.9-45.5,26.7-87.4,36.5-119.9,8.4-27.8,14.7-48.7,17.8-59.1l-47.5-36.4,22.5-22.7h175.1v-57.8h-199.2l-85.5,86.5,54.8,41.9c-25.4,84.1-85.3,281.5-124.1,400.6-67.5-39-145.7-61.2-229.2-61.2-253.6,0-459.1,205.6-459.1,459.1s205.6,459.1,459.1,459.1,459.1-205.6,459.1-459.1-65.1-270.2-167.2-354.4c4.7-14.3,9.9-30.2,15.3-47.1l494,537.7c-.1,1.4-.2,2.8-.2,4.3,0,29.1,23.1,52.8,52,53.7l34.6,131.5h-35.3v34.6h111.5v-34.6h-44.4l-36.7-139.4c7.5-4.6,13.8-10.9,18.2-18.5l166.3-35.8c56.8,189.1,232.2,327,439.8,327s459.1-205.6,459.1-459.1-205.6-459.1-459.1-459.1ZM1384.6,1882.6c0,205.7-166.8,372.5-372.5,372.5s-372.5-166.8-372.5-372.5,166.8-372.5,372.5-372.5,141.3,21.1,198.9,57.5c-45.8,99.2-135,206.1-199.2,266.4-26.7.2-48.2,21.9-48.2,48.6s21.8,48.6,48.6,48.6,45.3-18.6,48.2-42.6c31.5-29.5,72.5-72.8,113.1-124.7,30.2-38.6,67.8-92.1,96.5-150,70.6,67.8,114.6,163.1,114.6,268.8ZM1856.8,1923.8l-22.6-85.9h35.3v-34.6h-111.5v34.6h44.4l22.4,85.3-479.9-522.3c7.8-24.9,15.8-50.5,23.7-76h655.8l-167.5,599.1ZM2064.2,1943.2l-145.7,31.4,169.2-604.9,127.3,169.3c-94.9,84.1-154.8,206.9-154.8,343.7s1.4,40.8,4,60.6ZM2146.9,1882.6c0-108.5,46.4-206.1,120.4-274.2l188.5,250.5-306.5,66c-1.6-13.9-2.4-28-2.4-42.3ZM2519.4,2255.1c-166,0-306.6-108.6-354.8-258.7l331.1-71.3c7,3.9,15,6.1,23.6,6.1,26.9,0,48.6-21.8,48.6-48.6s-16.6-43-38.7-47.6l-203.6-270.7c56.4-34.4,122.7-54.2,193.7-54.2,205.7,0,372.5,166.8,372.5,372.5s-166.8,372.5-372.5,372.5Z"/>
</svg>