<?xml version="1.0" encoding="UTF-8"?>
<svg id="For_Sheets" xmlns="http://www.w3.org/2000/svg" version="1.1" viewBox="0 0 3531.4 3531.4">
  <!-- Generator: Adobe Illustrator 29.1.0, SVG Export Plug-In . SVG Version: 2.1.0 Build 142)  -->
  <defs>
    <style>
      .st0, .st1 {
        fill: #231f20;
      }

      .st2 {
        fill: #ffd046;
      }

      .st1 {
        fill-rule: evenodd;
      }
    </style>
  </defs>
  <g>
    <path class="st2" d="M1765.7,3531.6c-43.3,0-84-16.9-114.6-47.5L47.4,1880.4c-63.2-63.2-63.2-166.1,0-229.3L1651.1,47.4C1681.7,16.7,1722.4-.1,1765.7-.1s84,16.9,114.6,47.5l1603.7,1603.7c30.6,30.6,47.5,71.3,47.5,114.6s-16.9,84-47.5,114.6l-1603.7,1603.7c-30.6,30.6-71.3,47.5-114.6,47.5Z"/>
    <path class="st0" d="M1765.7,0c41.5,0,82.9,15.8,114.6,47.4l1603.7,1603.7c63.3,63.3,63.3,165.8,0,229.1l-1603.7,1603.7c-31.6,31.6-73.1,47.4-114.6,47.4s-82.9-15.8-114.6-47.4L47.4,1880.3c-63.3-63.3-63.3-165.8,0-229.1L1651.2,47.4C1682.8,15.8,1724.3,0,1765.7,0M1765.7-.3c-43.3,0-84.1,16.9-114.7,47.5L47.3,1651c-30.6,30.6-47.5,71.4-47.5,114.7s16.9,84.1,47.5,114.7l1603.7,1603.7c30.6,30.6,71.4,47.5,114.7,47.5s84.1-16.9,114.7-47.5l1603.7-1603.7c30.6-30.6,47.5-71.4,47.5-114.7s-16.9-84.1-47.5-114.7L1880.4,47.3c-30.6-30.6-71.4-47.5-114.7-47.5h0Z"/>
  </g>
  <path class="st0" d="M3452.2,1683L1848.4,79.3c-45.6-45.6-119.8-45.6-165.5,0L79.3,1683c-45.6,45.6-45.6,119.8,0,165.5l1603.7,1603.7c45.6,45.6,119.8,45.6,165.5,0l1603.7-1603.7c45.6-45.6,45.6-119.8,0-165.5ZM3407.6,1803.9l-1603.7,1603.7c-21.1,21.1-55.3,21.1-76.4,0L123.8,1803.9c-21.1-21.1-21.1-55.3,0-76.4L1727.5,123.8c21.1-21.1,55.3-21.1,76.4,0l1603.7,1603.7c21.1,21.1,21.1,55.3,0,76.4Z"/>
  <path class="st1" d="M2673.9,1916.6c-10.4-39.4-9.7-78.6-5.8-118.9,2-34.3,3.8-68.6,10.8-102.3,9.2-36.5,15.1-74.9,11.5-112.5-15.3-155.1-133.8-239-279.4-262.1h2.7c-126-23.3-251.2,15.2-371.1,50.7h4.1c-48.8,2-79.2,5.8-116.3-30.1,3.4,13.8,8.5,26.5,16.4,38.3-18.2-2.9-31.7-16.3-38.3-32.9-9.8,16.9-26.5,29.1-46.6,23.3,12.1-6,17.9-21.4,9.6-32.9,1.1,11.6-11.2,29.8-23.6,26.6-4.6-9.5-6.2-18,1.7-26.6-13.4,6.9-22,20.4-33.6,28.9-5.8.9-11.5,1.8-17.1,2.7,0-2.6-1.2-6.4,1.3-7.4,9.9-2.9,12.1-14.5,17-22.5,5.1-10.1,15.6-18.7,22.8-27.6-35.4,4.3-57.2,30.7-95.9,15.1l1.3-1.4v1.4c1.8-11.1,10.5-20.7,12.4-31.5-12.1,15.5-30.8,18.9-47.9,26,2.3-8.7,6.4-17.1,4.1-26-2.4,12.4-14.4,19.4-26,20.5,2.6-9.2,4.6-17.7,9.6-26-11.7,6.5-20.5,16-27.4,27.4-3.2-19.4,17.2-34.6,17.9-53.4-13.3,15.1-28.8,41.1-50.7,41.1,13.7-12.5,27.7-28.7,28.7-47.9-16.4,16.2-30.5,35.3-51.9,45.2,13.1-8,5.8-17.1,13.7-22-5,1.6-3.8-11.7-4.1-15-5.4,15.4-17.5,25.8-28.8,37-1.5-10.6,5.4-17,11-24.7l-17.9,9.6c5.2-12.7,9.7-24.8,12.4-38.3-13.4,9.4-16.4,32.1-35.6,31.5,5.6-5.6,9.4-10.9,13.7-17.8v2.7c2.4-6.6,4.4-12.3,5.4-19.2-12,4.2-18.8,14.8-27.3,23.3.5-10.6,3.9-22,2.7-32.9-8.8,15-18,29.8-31.5,41.1,6.3-14.1,12.3-35.7-1.4-47.9-2.6,3.8-2.1,9.9-2.5,14.3-3.8,12.2-13.6,27-26.3,30.9,1-11.7,4.4-34.7-5.4-42.5-2,15.3-15.3,46.5-16.4,11-6.5,6.5-6.9,15.6-6.9,24.7-7.3-6.4-10.7-20.1-15-28.8-2.4,9.2-4.9,18.2-6.8,27.4v-1.4c-1.3,1.8-4.8,12.1-6.1,12.5-5.7,3.1-7.9-2.1-9.7-6.6-1.3-12.2-6.1-22.8-15.8-30.5l5.5,28.8c-15.1-1.4-14.4-35.3-23.2-47.9-3.4,18.8-2.2,37.3,0,56.1-8.2-8.2-12.1-18.8-13.7-30.1-2.6,3.9-1.7,23.3-7.6,23.3-20,0-13-59.6-15.8-75.3-1.6,10.3-6.2,18.8-8.2,28.8l-4.1-1.3h1.3c-4.7-6.1-5.6-13-5.4-20.6-7.8,11.4-.1,31.2-8.2,40.5,0,1.2.4,1.8-.7,2.4-20.4-1-22-38.7-13-52.4-10.9-2.1-13.5,18.2-19.2,23.3-4.8-6.3-6.1-8.6-4.1-16.5-12.5,5.5-13.5,22.7-20.6,32.9-12.3,4.4,5.9-27.5,8.2-31.5-21.3,10.9-36.6,31.6-57.4,43.8-2.8-2.9,1.2-5.5,2.7-8.2,5.3-10.5,6-22.9,12.3-32.9-11.4,9.8-43.8,49.6-20.5,8.3-.8,3.4-21.6,20.5-17.1,9.5,4.8-9.1,4.8-20.5,14.3-26-14.5,4.7-22.3,18.5-32.9,28.8-.9-19.8,7.4-37.2,17.8-53.4-16.6,10.1-29.3,23.8-39,40.4-11.9,9.7,1.4-19.1,3.4-22.6-8.1,4-13.8,11-20.1,17.4-1.8,1.8-4.7,8.1-7.9,7-10-3.8,5.5-28.1,7.6-35.6,3-9.1,6-18,13.7-24.4-26.2,8.5-35.6,64.5-48,54.8,10-15,4.3-34.9,16.5-49.3-26.7,18.7-23.7,30.4-33.2,57.7-13.2,13.1-19.6-10.6-27.1-18.7-21.9-31.7-51.7-56.3-76.9-85.4-12.6-10.9-26.2-23.7-42.1-29.4-17.8-3.7-34.6,13.1-31.6,31-2,39.5,19.8,73.4,51.7,94.9,17.9,15.8,22.6,20.5,18,44.4-17.2-38.2-62-43.7-94-64.2-20.3-6.3-29.4-31.4-50.4-34.4-44,3.6-14.6,73.2-2.1,96.4,12.1,25.2,34.8,43.8,58.1,58.5,19,10.7,29.2,32.9,40.3,49.2-9.2,3.1-18.1-1.7-24.6-8.2,7.1,15.8,11.3,33.1,24.6,45.2l-2.7-2.7c1.7,6.2-13.1,3.4-16.4,2.7,11.7,9.9,25.5,20.7,29.8,35.8-7.7,6.6-17.8,8.7-27,12.2,4.2,9.7,16.4,17.9,8.2,28.7v-1.4c-7.4,8.8-12.2,19.6-5.4,30.1,6-8.8,9.8-19.5,20.5-23.3,7.2,19,11.8,38.6,8.2,58.9,6.3-2.7,9.2-7.9,12.3-13.7.2-.9-1.7-3.5-1.3-5.5,4.6,43.7-.5,88.7,0,132.9l1.3-1.4c.6,39.3-.6,79.8,22.7,113.3,7.8,22.4,44.3,20.3,59.5,7.2,13.3,24.4,57.5,19.2,69.8-4.1,4.6-9,0-17.1,0-26.4,0-18.7,5.7-36.8,19.3-50.5,22.5-20.2,38.9-45.6,59.7-67.2,15.2-11.4,25.2-26.2,37.2-40.5,12.5-13.1,9,32.8,14,39.4,2.5-13.3,11-23.2,15-35.6,1.5,7.6,3.7,16.6,7.1,23.7,6,7.3,10.1,15.9,7.9,25.6,8.3-9.3,12-19,12.4-31.5,12.1,19.7,10.5,44.2-2.8,63,16-2.7,27.6-17.1,33.6-31.5,6.6-14.2,19.6,25.5,7.5,37,13.3,1.1,17.8-12.6,17.8-23.2,3.7,8.9,3.6,18.9,2.7,28.7,8.3-8.2,12.3-16.9,12.3-28.7,14.6,15.8,8.9,38.2-9.6,47.9,18.9-.4,30.9-16.4,38.4-31.5,6.4,15.6,7.7,34.2,12.3,50.7,26-72.8,33.6,46.4,43.8,65.7,27.7,33.5,98.2,65.4,94.6,114.7,5.4,82.7-92.3,117.3-105,193.5-6.2,35.4-7.6,71.6-26.2,103.7-14.9,32.2-35.7,65-27.2,101.7,6,62.8-66.6,48.9-58,138.4,32.1-7.4,84.4,15.6,97.2-28.6-1.9-18,17.5-26.3,23.1-41.2-1.6-11.6-7.7-22.8-10.8-34.2l1.4,2.7c5.7-8.6,12-12.9,20.4-19,5.8-17,2.4-36.8,4.5-54.3,8.5-47.1,36.9-85.9,58.5-127.7,9-18,22.5-33,35-48.6,19.9-29,21.9-5.1,21.3,16.1,2.4,46.1,6.6,92.5,3.3,138.7-7.5,36.6-20,72.5-40.9,103.5-5.4,18.6-14,36.6-30.1,48.1-13.7,11.7-20.7,30.3-25,47.5,21.8,16.6,86.9,9.2,113.3-2.9v1.4c6.6-18.4-.2-35.3-3.4-53.7,6.9-37,37.7-62.9,64-87.9,5.4-5,17.5-7.2,17.5-15.6,0-10.4-1.1-17.4-5.8-26.7-6.7-17.1-5.8-36.3-8-54.4-1.6-92.5-5-192.9,36.5-277.6,33.6-7.9,68.5-6.2,101.1,4.1,126.6,28.7,264.5,12.6,380.6-45.3,24.3-12.5,48.1-25.9,70.7-41.2,19.2-13.3,37.3-24.7,57.4-4.3v-1.4c16,21.5,33.6,42.2,50,63.2,9.6,18.8,17.7,38.7,31.7,54.8,27.9,29.1,50.6,63.3,67.6,99.8,8.2,47.3-4.5,72.5-37,105.5l4.1-2.7-4.1,4.1v-1.4c-23.9,17.9-45.6,38.6-69.8,56.1l1.4-1.4c-26.4,18.8-40.2,47.2-47.8,78.1l1.4-1.4-8.2,28.8h2.7c-12.3,11.5-31.5,16.1-35.9,34.8-.7,2.2-19.5,55.9-16.1,57,28.6,11.9,56.5,7.8,83.3-6,5.1-2.1,17.4-4.7,18.7-9,1.8-9.2,6.7-18.5,7.4-27.7-2-11.4-13.3-28-5.6-38.2,7.1-1.3,20.5,3.1,24.9-2.5,12.7-20.8,23.9-42.6,37-63.1,9.6-17.5,23.4-31.9,36.7-46.6,11.7-17.1,21.2-36.3,32.5-53.7,3.6-7.4,8.6-11.3,17-11.9,13.2,1.1,11.1,62.8,10.4,74.5-5.4,28.8-11.3,57-24.3,83.2-3.5,23.4-12.5,45.2-17.7,68-1,5.2,1.8,7.4-3.2,9.7-21.4,7-32.7,25.9-47.9,41.1-4.8,3.5-6.5,15.4-4.1,19.4,27.2,10.6,57.1,10.3,85,2.7,34-4.2,15.7-47.3,31.3-67.4,15.8-29.6,47.8-43.4,71.4-64.4,9-16.5,4.8-23.9-4.2-38.6-20.3-32.2-13.7-70.7-17.6-106.5-5.8-44,6.1-88.5,11.6-132.2,1.1-12.2-15-19.4-21.2-28.9-38.9-45.1-29.6-89.2-9.2-137.4,24.5-88.9,44.9-178.9,72.4-267.1-5.6,73.4-10.4,146.9-12.5,220.3-4.4,42.3-15.3,86.1,5.7,126,4.6,12.2,1.9,26,12.3,35.7l-1.3-13.7,9.6,27.4,8.2-17.8,12.3,28.8,8.2-9.6c6.2,14.7,9.9,37.5,30.2,37l-34.3-119.1"/>
</svg>