<?xml version="1.0" encoding="UTF-8"?>
<svg id="For_Sheets" xmlns="http://www.w3.org/2000/svg" version="1.1" viewBox="0 0 3531.4 3531.4">
  <!-- Generator: Adobe Illustrator 29.1.0, SVG Export Plug-In . SVG Version: 2.1.0 Build 142)  -->
  <defs>
    <style>
      .st0 {
        fill: #231f20;
      }

      .st1 {
        fill: #ffd046;
      }
    </style>
  </defs>
  <g>
    <path class="st1" d="M1765.7,3531.6c-43.3,0-84-16.9-114.6-47.5L47.4,1880.4c-63.2-63.2-63.2-166.1,0-229.3L1651.1,47.4C1681.7,16.7,1722.4-.1,1765.7-.1s84,16.9,114.6,47.5l1603.7,1603.7c63.2,63.2,63.2,166.1,0,229.3l-1603.7,1603.7c-30.6,30.6-71.3,47.5-114.6,47.5Z"/>
    <path class="st0" d="M1765.7,0c41.5,0,82.9,15.8,114.6,47.4l1603.7,1603.7c63.3,63.3,63.3,165.8,0,229.1l-1603.7,1603.7c-31.6,31.6-73.1,47.4-114.6,47.4s-82.9-15.8-114.6-47.4L47.4,1880.3c-63.3-63.3-63.3-165.8,0-229.1L1651.2,47.4C1682.8,15.8,1724.3,0,1765.7,0M1765.7-.3c-43.3,0-84.1,16.9-114.7,47.5L47.3,1651c-30.6,30.6-47.5,71.4-47.5,114.7,0,43.3,16.9,84.1,47.5,114.7l1603.7,1603.7c30.6,30.6,71.4,47.5,114.7,47.5s84.1-16.9,114.7-47.5l1603.7-1603.7c30.6-30.6,47.5-71.4,47.5-114.7,0-43.3-16.9-84.1-47.5-114.7L1880.4,47.3c-30.6-30.6-71.4-47.5-114.7-47.5h0Z"/>
  </g>
  <path class="st0" d="M79.3,1848.4c-45.6-45.6-45.6-119.8,0-165.5L1683,79.3c45.6-45.6,119.8-45.6,165.5,0l1603.7,1603.7c45.6,45.6,45.6,119.8,0,165.5l-1603.7,1603.7c-45.6,45.6-119.8,45.6-165.5,0L79.3,1848.4Z"/>
  <path class="st1" d="M123.8,1803.9c-21.1-21.1-21.1-55.3,0-76.4L1727.5,123.8c21.1-21.1,55.3-21.1,76.4,0l1603.7,1603.7c21.1,21.1,21.1,55.3,0,76.4l-1603.7,1603.7c-21.1,21.1-55.3,21.1-76.4,0L123.8,1803.9Z"/>
  <path class="st0" d="M1849,1326.6c-54.6,0-99.2-44.6-99.2-99.2s44.6-99.2,99.2-99.2,99.2,44.6,99.2,99.2-44.6,99.2-99.2,99.2ZM1280.3,1703.4l94.5-665,824.1-.2,58.7,812.5h-246.1c.2-60.8.3-121.5.5-182.3,1.9-34.9-28.9-30.2-28-32h-60v-196.5c0-95.7-147.8-87.8-156.7.9l-37.3,150c-50.3.7-144.9,1.9-195.1,2.6-31.3-.2-29.9,64.8,2,65.5h193.2v113.6h-160.4l-125.2,178.6,43.8,41.3,115.4-141.8v242.1l-125.4,1.7-155.3-310.4,119-63.2c12,22.7,18.6,28.9,30.6,51.6,19.1,33.5,65.5,2.3,48.1-29.1-32-57.9-52.1-97.3-83.1-155.8-12.8-24-60.9,2.5-48.5,26.8l27.8,56-121.9,59.7-14.6-26.7ZM2586.1,1391.1l-17,145.4h-71.4l19.8-159.3c13.6,10.4,36.2,19.3,52.2,19.3s12.9-2.1,16.5-5.5ZM2012.9,2214.4c0-133.9,110.9-243.9,244.8-243.9s244.8,110,244.8,243.9l251.6-.2v-67.3h-69.6v-301.7h-32.5c0,0,0-283.9,0-283.9,0-13.6-11.1-24.8-24.8-24.8h-8l13.2-123.6c8.3,4.8,20,7.7,32.9,7.7,25,0,45.4-11.1,45.4-24.8s-20.4-24.8-45.4-24.8-45.4,11.1-45.4,24.8,0,1.6.2,2.4l-14.7,138.2h-24.8s22.2-190,22.2-190c.5.2,1,.3,1.6.4l47.2,11.6c6.2,1.5,11.6-5.2,11.6-11.6v-17.8c0-6.4-5.2-11.6-11.6-11.6h-47.2c-6.4,0-11.6,5.2-11.6,11.6v4.3l-2.1,18c-6.2-10.6-22.2-18.1-41-18.1s-43.7,12.4-43.7,27.6.3,2.8.9,4.2l-21.3,171.3h-17.9c-13.6,0-24.8,11.1-24.8,24.8v284.6l-104.8.3-76.9-808h88.7c74.8,0,70.1-64.4,1.8-64.4-368.9,0-737.7,0-1106.6,0-77.4-3.6-77,69.8,1.8,64.4h63.9l-107.8,667.2h-167.4l-239.4,441.4h-56.5l2.7,67.3c7.4.2,116.6-.4,116.6-2.8,0-134.8,97.5-240.9,232.4-240.9,133.9,0,244.8,110,244.8,243.9h676.6ZM2257.7,2409.1c-109.3,0-198.4-89.1-198.4-198.4,0-109.3,89.1-198.4,198.4-198.4s198.4,89.1,198.4,198.4-89.1,198.4-198.4,198.4ZM1098.4,2413.7c-109.3,0-198.4-89.1-198.4-198.4s89.1-198.4,198.4-198.4,198.4,89.1,198.4,198.4c0,109.3-89.1,198.4-198.4,198.4Z"/>
</svg>