<?xml version="1.0" encoding="UTF-8"?>
<svg id="For_Sheets" xmlns="http://www.w3.org/2000/svg" version="1.1" viewBox="0 0 3531.4 3531.4">
  <!-- Generator: Adobe Illustrator 29.1.0, SVG Export Plug-In . SVG Version: 2.1.0 Build 142)  -->
  <defs>
    <style>
      .st0 {
        fill: #231f20;
      }

      .st1 {
        fill: #ffd046;
      }
    </style>
  </defs>
  <g>
    <g>
      <path class="st1" d="M1765.7,3531.6c-43.3,0-84-16.9-114.6-47.5L47.4,1880.4c-63.2-63.2-63.2-166.1,0-229.3L1651.1,47.4C1681.7,16.7,1722.4-.1,1765.7-.1s84,16.9,114.6,47.5l1603.7,1603.7c63.2,63.2,63.2,166.1,0,229.3l-1603.7,1603.7c-30.6,30.6-71.3,47.5-114.6,47.5Z"/>
      <path class="st0" d="M1765.7,0C1807.2,0,1848.6,15.8,1880.3,47.4l1603.7,1603.7c63.3,63.3,63.3,165.8,0,229.1l-1603.7,1603.7c-31.6,31.6-73.1,47.4-114.6,47.4s-82.9-15.8-114.6-47.4L47.4,1880.3c-63.3-63.3-63.3-165.8,0-229.1L1651.2,47.4C1682.8,15.8,1724.3,0,1765.7,0M1765.7-.2c-43.3,0-84.1,16.9-114.7,47.5L47.3,1651C16.6,1681.6-.2,1722.4-.3,1765.7c0,43.3,16.9,84.1,47.5,114.7l1603.7,1603.7c30.6,30.6,71.4,47.5,114.7,47.5s84.1-16.9,114.7-47.5l1603.7-1603.7c30.6-30.6,47.5-71.4,47.5-114.7s-16.9-84.1-47.5-114.7L1880.4,47.3C1849.8,16.6,1809.1-.2,1765.7-.2h0Z"/>
    </g>
    <path class="st0" d="M79.3,1848.4c-45.6-45.6-45.6-119.8,0-165.5L1683,79.3c45.6-45.6,119.8-45.6,165.5,0l1603.7,1603.7c45.6,45.6,45.6,119.8,0,165.5l-1603.7,1603.7c-45.6,45.6-119.8,45.6-165.5,0L79.3,1848.4Z"/>
    <path class="st1" d="M123.8,1803.9c-21.1-21.1-21.1-55.3,0-76.4L1727.5,123.8c21.1-21.1,55.3-21.1,76.4,0l1603.7,1603.7c21.1,21.1,21.1,55.3,0,76.4l-1603.7,1603.7c-21.1,21.1-55.3,21.1-76.4,0L123.8,1803.9Z"/>
  </g>
  <g>
    <path class="st0" d="M1323.7,1441.7h-62.3v-374.4h-79.1v-57.6h220.4v57.6h-79.1v374.4Z"/>
    <path class="st0" d="M1584.2,1238.6h-59v203.1h-62v-432h128.6c67.8,0,113.4,45.5,113.4,115.2s-21.2,89.4-62,104.6l62,212.2h-63.4l-57.5-203.1ZM1525.2,1070.4v109.1h63.5c36.4,0,56-19.7,56-54.6s-22.7-54.5-55.9-54.5h-63.6Z"/>
    <path class="st0" d="M1928,1323.5h-92.7l-28.9,118.2h-62.3l107.9-432h60.9l107.8,432h-62.3l-30.4-118.2ZM1850.5,1262.9h62.3l-31.9-124.3-30.4,124.3Z"/>
    <path class="st0" d="M2081.2,1009.7h60.5v432h-60.5v-432Z"/>
    <path class="st0" d="M2236.7,1009.7h62.3v374.4h158.1v57.6h-220.4v-432Z"/>
  </g>
  <g>
    <path class="st0" d="M800.1,1880.9c-6-42.4-22.8-62.2-51.7-62.2-50.2,0-68.5,39.4-68.5,151.5s21.3,174.3,74.6,174.3,45.6-30.3,45.6-62.2h62.4c-1.5,71.2-47.1,122.8-108,122.8-92.8,0-134-74.2-134-233.4s44.1-213.6,129.4-213.6,110.5,72.2,112.6,122.7h-62.4Z"/>
    <path class="st0" d="M1070,1994.6h-59v203.1h-62v-432h128.6c67.8,0,113.4,45.5,113.4,115.2s-21.2,89.4-62,104.6l62,212.2h-63.4l-57.5-203.1ZM1011,1826.4v109.1h63.5c36.4,0,56-19.7,56-54.6s-22.7-54.5-55.9-54.5h-63.6Z"/>
    <path class="st0" d="M1255.8,1980.8c0-226.2,104.9-222.6,128.2-222.6s126.8-3.5,126.8,222.7-103.5,224.3-126.8,224.3-128.2,3.6-128.2-224.4ZM1383.3,1818.8c-12.3,0-68-2.5-68,162.3s55.7,163.5,68,163.5,67.9,2.5,67.9-163.5-55.6-162.3-67.9-162.3Z"/>
    <path class="st0" d="M1697.4,2144.7c33.5,0,60.9-30.3,60.9-65.2,0-92-161.3-91.8-161.3-209.2s48.7-112.1,111.1-112.1,108.1,46.9,109.6,112.2h-59.5c-1.5-30.3-22.8-50-50.2-50s-51.7,21.2-51.7,49.9,16.3,36.2,36.4,48.8c58.4,35.3,125,77.8,125,160.5s-53.3,125.8-120.3,125.8-121.7-64.4-121.7-135h61c0,36.8,18.2,74.4,60.8,74.4Z"/>
    <path class="st0" d="M1991.2,2144.7c33.5,0,60.9-30.3,60.9-65.2,0-92-161.3-91.8-161.3-209.2s48.7-112.1,111.1-112.1,108.1,46.9,109.6,112.2h-59.5c-1.5-30.3-22.8-50-50.2-50s-51.7,21.2-51.7,49.9,16.3,36.2,36.4,48.8c58.4,35.3,125,77.8,125,160.5s-53.3,125.8-120.3,125.8-121.7-64.4-121.7-135h61c0,36.8,18.2,74.4,60.8,74.4Z"/>
    <path class="st0" d="M2184.9,1765.7h60.5v432h-60.5v-432Z"/>
    <path class="st0" d="M2402.4,1908.2v289.5h-62v-432h62l118,259.2v-259.2h62v432h-46.9l-133.2-289.5Z"/>
    <path class="st0" d="M2802.8,2205.3c-39.3,0-134-7.3-134-222.8s90-224.3,129.4-224.3c62.4,0,109.6,45.4,112.6,109.1h-62.4c-1.5-28.8-21.3-48.5-51.7-48.5s-68.5,6.5-68.5,163.8,52.2,162.2,73,162.2c32,0,47.2-21.1,47.2-66.7v-28.8h-48.7v-60.7h111.1v89.4c0,108.1-71.2,127.3-108,127.3Z"/>
  </g>
</svg>