<?xml version="1.0" encoding="UTF-8"?>
<svg id="For_Sheets" xmlns="http://www.w3.org/2000/svg" version="1.1" viewBox="0 0 3531.4 3531.4">
  <!-- Generator: Adobe Illustrator 29.1.0, SVG Export Plug-In . SVG Version: 2.1.0 Build 142)  -->
  <defs>
    <style>
      .Grid_x0020_FILL_x0020_2 {
        fill: #231f20;
      }

      .st0 {
        fill: #ffd046;
      }
    </style>
  </defs>
  <g>
    <path class="st0" d="M1765.7,3531.6c-43.3,0-84-16.9-114.6-47.5L47.4,1880.4c-63.2-63.2-63.2-166.1,0-229.3L1651.1,47.4C1681.7,16.7,1722.4-.1,1765.7-.1s84,16.9,114.6,47.5l1603.7,1603.7c63.2,63.2,63.2,166.1,0,229.3l-1603.7,1603.7c-30.6,30.6-71.3,47.5-114.6,47.5Z"/>
    <path class="Grid_x0020_FILL_x0020_2" d="M1765.7,0c41.5,0,82.9,15.8,114.6,47.4l1603.7,1603.7c63.3,63.3,63.3,165.8,0,229.1l-1603.7,1603.7c-31.6,31.6-73.1,47.4-114.6,47.4s-82.9-15.8-114.6-47.4L47.4,1880.3c-63.3-63.3-63.3-165.8,0-229.1L1651.2,47.4C1682.8,15.8,1724.3,0,1765.7,0M1765.7-.3c-43.3,0-84.1,16.9-114.7,47.5L47.3,1651c-30.6,30.6-47.5,71.4-47.5,114.7,0,43.3,16.9,84.1,47.5,114.7l1603.7,1603.7c30.6,30.6,71.4,47.5,114.7,47.5s84.1-16.9,114.7-47.5l1603.7-1603.7c30.6-30.6,47.5-71.4,47.5-114.7,0-43.3-16.9-84.1-47.5-114.7L1880.4,47.3c-30.6-30.6-71.4-47.5-114.7-47.5h0Z"/>
  </g>
  <path class="Grid_x0020_FILL_x0020_2" d="M79.3,1848.4c-45.6-45.6-45.6-119.8,0-165.5L1683,79.3c45.6-45.6,119.8-45.6,165.5,0l1603.7,1603.7c45.6,45.6,45.6,119.8,0,165.5l-1603.7,1603.7c-45.6,45.6-119.8,45.6-165.5,0L79.3,1848.4Z"/>
  <path class="st0" d="M123.8,1803.9c-21.1-21.1-21.1-55.3,0-76.4L1727.5,123.8c21.1-21.1,55.3-21.1,76.4,0l1603.7,1603.7c21.1,21.1,21.1,55.3,0,76.4l-1603.7,1603.7c-21.1,21.1-55.3,21.1-76.4,0L123.8,1803.9Z"/>
  <path class="Grid_x0020_FILL_x0020_2" d="M1742,1422.4h20v122.1c0,0-24.5,0-24.5,0v36.7h132v27l-170.4.2v-189h-145v39.8l-50.4,2.2c-21.8.9-45.4-.3-63,14.7-17.5,15-21.5,38.1-24.2,59.8l-12.6,98.8-7.3-84c-1.4-15.6-7.4-33.9-20.7-43.4-5.4-3.8-11.1-6.7-17.1-9.2,4.8-1.6,9.1-3.5,13-6.7,5.4-4.3,9.3-9.2,11.9-15.6,2.1-5,3-10.2,3.5-15.6l28.3,21,3.1-7.3-26.3-22.1c-2.2-5.9-4.8-11.3-8.1-16.8-6.5-11-15.6-20.9-25.7-28.8-7.6-5.9-16.5-10.5-25.9-12.6-5.6-1.2-11.1-1.7-16.9-1.6v1l-4.1,28.3h-42v5.3c3.2.5,6.5.9,9.8,1.4,2.7.3,5.4.5,8,.8,6,.9,11.9,2,17.9,3-3.3,7.3-6,14.7-7.2,22.6-1.6,10.5,1.4,22,8.7,29.9,5.9,6.2,13,10.7,20.5,14.7-5,2.7-9.9,5.5-14.3,9.2-5.1,4.4-9.6,9.4-13.4,14.9-3.4,4.9-5.9,10.2-8,15.7-2.2,7.2-4.3,14.4-6,21.8-3.4,14.7-5.8,29.6-8.8,44.4l-6.2,33.5h-75.6l-18.9-87.1,6.3-147h-27.3l-17.9,134.4-403.1,51.5c-6.7.9-13.5,1.6-20.1,2.5-6.7.9-13.6,2.9-18.8,7.1-6.9,5.5-12.8,14-13.6,22.9l-20,229c-.8,8.6-4.8,17.4-11.5,23.1-6.6,5.5-14.7,6.5-23.2,6.3l-58.8-1v66.2h199.5c-5.8,27-10.5,53.1-3.6,80.2,9.4,37.1,33.2,69.5,65.1,90.3,21.9,14.4,49.7,18.5,75.1,21.7,29.1-2.3,54.2-5.4,79.3-20.7,33.4-20.1,57.5-53.6,67.7-91,7.1-26.2,2.1-54.6-3.2-80.5h1112c-7.5,27.1-13.7,53.3-7.9,81.3,7.9,38.1,31,71.8,63.1,93.7,22.1,15,50.4,19.2,76.1,22.4,29.7-2.7,55.5-6,80.8-22.2,33-21.2,56.2-55.8,64.7-94,6-26.8-1-55.3-7.9-81.1h534.5v-66.2h-55.6l-64.2-272.1h-155.2v-27h155.2v-36.7l-37.7,1.1-1-124.2h39.8v-33.6h-1102.5v34.6ZM2665.8,1581.2v27h-770.5v-27h770.5ZM2775.3,1422.4v121.8h-84v-121.8h84ZM2660.8,1422.4v121.8h-84v-121.8h84ZM2547.5,1422.4v121.8h-84v-121.8h84ZM2435.1,1422.4v121.8h-84v-121.8h84ZM2321.7,1422.4v121.8h-84v-121.8h84ZM2208.3,1422.4v121.8h-84.1v-121.8h84.1ZM2093.9,1422.4v121.8h-84v-121.8h84ZM1979.4,1422.4l.3,122.1h-84.3v-122.1h84.1ZM1869.1,1422.4l.3,122.1h-84.4v-122.1h84.1Z"/>
</svg>