<?xml version="1.0" encoding="UTF-8"?>
<svg id="For_Sheets" xmlns="http://www.w3.org/2000/svg" version="1.1" viewBox="0 0 3531.4 3531.4">
  <!-- Generator: Adobe Illustrator 29.1.0, SVG Export Plug-In . SVG Version: 2.1.0 Build 142)  -->
  <defs>
    <style>
      .st0 {
        fill: #231f20;
      }

      .st1 {
        fill: #ffd046;
      }
    </style>
  </defs>
  <g>
    <path class="st1" d="M1765.7,3531.6c-43.3,0-84-16.9-114.6-47.5L47.4,1880.4c-63.2-63.2-63.2-166.1,0-229.3L1651.1,47.4C1681.7,16.7,1722.4-.1,1765.7-.1s84,16.9,114.6,47.5l1603.7,1603.7c63.2,63.2,63.2,166.1,0,229.3l-1603.7,1603.7c-30.6,30.6-71.3,47.5-114.6,47.5Z"/>
    <path class="st0" d="M1765.7,0c41.5,0,82.9,15.8,114.6,47.4l1603.7,1603.7c63.3,63.3,63.3,165.8,0,229.1l-1603.7,1603.7c-31.6,31.6-73.1,47.4-114.6,47.4s-82.9-15.8-114.6-47.4L47.4,1880.3c-63.3-63.3-63.3-165.8,0-229.1L1651.2,47.4C1682.8,15.8,1724.3,0,1765.7,0M1765.7-.3c-43.3,0-84.1,16.9-114.7,47.5L47.3,1651c-30.6,30.6-47.5,71.4-47.5,114.7s16.9,84.1,47.5,114.7l1603.7,1603.7c30.6,30.6,71.4,47.5,114.7,47.5s84.1-16.9,114.7-47.5l1603.7-1603.7c30.6-30.6,47.5-71.4,47.5-114.7s-16.9-84.1-47.5-114.7L1880.4,47.3c-30.6-30.6-71.4-47.5-114.7-47.5h0Z"/>
  </g>
  <path class="st0" d="M3452.2,1683L1848.4,79.3c-45.6-45.6-119.8-45.6-165.5,0L79.3,1683c-45.6,45.6-45.6,119.8,0,165.5l1603.7,1603.7c45.6,45.6,119.8,45.6,165.5,0l1603.7-1603.7c45.6-45.6,45.6-119.8,0-165.5ZM3407.6,1803.9l-1603.7,1603.7c-21.1,21.1-55.3,21.1-76.4,0L123.8,1803.9c-21.1-21.1-21.1-55.3,0-76.4L1727.5,123.8c21.1-21.1,55.3-21.1,76.4,0l1603.7,1603.7c21.1,21.1,21.1,55.3,0,76.4Z"/>
  <path class="st0" d="M2675.6,2097c-2-17.1.4-44.4,3.6-64.8,3.7-23.8,3.6-46.4,3.6-70.5s3.6-37.8,3.6-56.7v-154.5c0-2.3.1-4.7,0-7-1.6-30.3-6.8-77.5-18.3-111.9-14.2-42.7-27.3-88.7-48.7-128.8-25.8-48.3-53-79-89-119-12-13.3-60-54.2-99.7-78.4-19.6-12-68.6-33.6-125.8-41.4-45-6.2-91.2-12.9-136.7-12.9s-45.7-3.6-68.6-3.6c-19.8,0-39.9,3.1-59.7,4.6-51.9,3.8-103.6,11.3-155.7,12.4-13.8.3-56.6,9-59.3,7.8-20.6-9.3-43.1-9.3-65.5-12.2-49.7-6.5-99.1-14.5-148.6-22.3-27.2-4.3-61.2-11-83.6-11.8-9.4-.4-25.8,2.9-37.2,5.5-7.9,1.8-46.4,9.6-60.6,23.9-6.7,6.8-13.8,13.8-13.8,13.8,0,0-70.7-12.9-129.6-7.2-57.8,5.6-103.9,29.8-108.9,31.5-.9.3-2.2,1.2-3.2.5-8.1-5.3-20.3-3.3-26.6-3.6-10.2-.6-21.6,1.4-30.5,4-3.5-36.1-25.6-55.6-57.5-55.6s-63.7,28.5-63.7,63.7,3.4,23.5,9.3,33.1c-.3,2.9-1.3,5.6-2.8,8.2-3.1,5.3-4.2,8.3-8,11.4-5.2,4.3-10.3,8.5-15.1,12.8-12.6,7.4-23.4,21.2-30.1,38.7-1.7,4.3-3.1,8.8-4.2,13.7-.6,2.7-1.1,5.4-1.6,8.2-2.2,14.3-1.4,28.1,1.7,40.2-.2,8.2-1.7,16-6.1,23.4-5.1,8.5-14.2,14.7-17.7,24.5-2.8,7.8-6.8,17.2-15.5,21.9-13.4,7.2-32.3,7.7-33.2,7.7-1.6-.3-3.2-.4-4.9-.4-16.4,0-29.6,13.3-29.6,29.6s7.7,23.1,18.5,27.5c3.4,2.5,7.1,4.9,11,7.5,6.4,4.3,6.4,11.8,6.6,18.9,0,0,0,0,0,.1-.3,2.8,0,5.6,1,8.3.2.8.5,1.5.8,2.2,0,.1.2.2.2.4,0,0,0,0,0,0,4,7.9,13.3,14.1,24.8,15.5,3.8.4,7.4.3,10.8-.3-2.4,8.3,0,18.9,6.8,27.7.4.6.9,1.1,1.4,1.6,6.8,13.7,20.9,23.1,37.2,23.1s6.9-.4,10.2-1.3c1.9-.2,3.9-.4,6.1-.8,8.4-1.4,17.4-2.4,25.6.3,20.9,7,41.8,14,63.6,17.7,25.2,4.2,49.5,7,74.9,8.8,12.1.9,17.5,1.5,15.4,16-1.5,10.7-4.2,20.9-2.1,31.6,4.2,21,11.1,40.2,5.8,61.3-4.9,19.1-24.1,34.9-38.5,49.3-15.1,15.1-33.8,30.5-43.5,49.9-11.3,22.7-15.2,41.6-15.2,66.8,0,45.6,22.4,81.7,58.4,108.2,75.1,55.3,125.2,46.2,125.2,46.2v-100.8s-.2,0,0,0c6.2-2.1,26.3-8.7,32.8-10.9,42-14.7,83.9-36.6,117.9-54.3,8.9-4.6,16.1-9.1,23.8-13,.6-.3,10.2-8.6,16.1-18.2,3.5-5.7,4.9-11.2,6.9-17.6.5-7.7.5-24.8.5-33.5v-32.4c11.5,13.5,21.8,12.3,35.2,17.7,8,3.2,15.2,7.4,15.2,7.4,0,0-2.3,11.4-4.4,21.8-5.2,26.1-6.6,52.7-10.1,79-3,23-6,46.1-11.5,68.6-5.2,21.3-1.5,41.3-2.9,62.5-.9,13.6-2.4,36.5-3.5,55-.3,5.1-3.9,8.9-7.2,11.8-15.7,13.7-45.8,6.6-64.8,10.8-22.1,4.9-36.8,14.1-48.1,34.4-5.1,9.1-13.1,19.7-13.1,19.7v14.4h252.5c61,0,80-50.9,89.5-68.4,10.5-19.2,17-41.5,25.4-61.7,16-38.4,31.5-86.1,44.7-131.1,7-23.8,15.9-59.9,21.6-91.4.5-2.6,5.1-41,5.5-43.5l39.6,25.2c9.3,3.8,39.9,27.2,39.6,28.8-.3,1.5,1.4,14.1-3.3,21.3-1.9,8.3-4.2,16.7-5,23.4-1.3,10.8-4.3,23.6-2.5,34.5.7,4.1,3.4,24.2,4.7,26.3,6.7,11.1,11.8,17.4,20.5,27.7,6.2,7.3,12.7,13.9,18.9,21.2,16,19.3,29.1,34.9,50,52.5,9.9,8.3,43.3,36.2,46.4,45.1,2,5.8-42,16.8-57.6,25.2-17.6,9.5-41,19.1-52.2,37.8-3.3,5.5-26.7,48.6-10.9,48.6h326.5s13.7-4.8,19.2-20c11.2-30.5,6.7-43.5,8.9-68.9,1.3-14.8-10.8-51.5-10.8-51.5,0,0,2.7-1.3,3.7-1.9,43.1-21.6,74-50.6,107.9-84.5,35.2,53,79.5,100.4,122.4,147.6-15.5,10.3-36.5,18.4-49.6,31.6-6.3,6.3-13.2,12.9-16.1,21.6-.3.9-8.9,26-6.2,26h182.5s12.5-6,21.2-12.6c21-16,40.6-28.6,61.7-42.1,17.7-11.4,37-21.1,52-36,14-13.9,16-38,17.2-57,1.5-24.3-16.2-46.3-18-61Z"/>
</svg>