<?xml version="1.0" encoding="UTF-8"?>
<svg id="For_Sheets" xmlns="http://www.w3.org/2000/svg" version="1.1" viewBox="0 0 3531.4 3531.4">
  <!-- Generator: Adobe Illustrator 29.1.0, SVG Export Plug-In . SVG Version: 2.1.0 Build 142)  -->
  <defs>
    <style>
      .Grid_x0020_FILL_x0020_2 {
        fill: #231f20;
      }

      .st0 {
        fill: #ffd046;
      }
    </style>
  </defs>
  <g>
    <path class="st0" d="M1765.2,3531.1c-43.3,0-84-16.9-114.6-47.5L46.9,1879.9c-63.2-63.2-63.2-166.1,0-229.3L1650.6,46.9c30.6-30.6,71.3-47.5,114.6-47.5s84,16.9,114.6,47.5l1603.7,1603.7c63.2,63.2,63.2,166.1,0,229.3l-1603.7,1603.7c-30.6,30.6-71.3,47.5-114.6,47.5Z"/>
    <path class="Grid_x0020_FILL_x0020_2" d="M1765.2-.5c41.5,0,82.9,15.8,114.6,47.4l1603.7,1603.7c63.3,63.3,63.3,165.8,0,229.1l-1603.7,1603.7c-31.6,31.6-73.1,47.4-114.6,47.4s-82.9-15.8-114.6-47.4L46.9,1879.8c-63.3-63.3-63.3-165.8,0-229.1L1650.7,46.9c31.6-31.6,73.1-47.4,114.6-47.4M1765.2-.8c-43.3,0-84.1,16.9-114.7,47.5L46.8,1650.5c-30.6,30.6-47.5,71.4-47.5,114.7,0,43.3,16.9,84.1,47.5,114.7l1603.7,1603.7c30.6,30.6,71.4,47.5,114.7,47.5s84.1-16.9,114.7-47.5l1603.7-1603.7c30.6-30.6,47.5-71.4,47.5-114.7s-16.9-84.1-47.5-114.7L1879.9,46.8c-30.6-30.6-71.4-47.5-114.7-47.5h0Z"/>
  </g>
  <path class="Grid_x0020_FILL_x0020_2" d="M78.8,1847.9c-45.6-45.6-45.6-119.8,0-165.5L1682.5,78.8c45.6-45.6,119.8-45.6,165.5,0l1603.7,1603.7c45.6,45.6,45.6,119.8,0,165.5l-1603.7,1603.7c-45.6,45.6-119.8,45.6-165.5,0L78.8,1847.9Z"/>
  <path class="st0" d="M123.3,1803.4c-21.1-21.1-21.1-55.3,0-76.4L1727,123.3c21.1-21.1,55.3-21.1,76.4,0l1603.7,1603.7c21.1,21.1,21.1,55.3,0,76.4l-1603.7,1603.7c-21.1,21.1-55.3,21.1-76.4,0L123.3,1803.4Z"/>
  <path class="Grid_x0020_FILL_x0020_2" d="M769.1,1611.9c-4.3-10.5-9.3-20.8-13.9-31.1-2.4-10.4-14.7-25.2.7-41.7,12.8-17.7,38.2-34.8,55.7-47.4,24.3-17.6,45.3-39.6,65.6-61.6,14.8-16.1,26.2-35,39.3-52.4,17.5-28,53-45.5,79.2-63.9-26.7-.9-49.4-1.8-80.5,2.3-21.4,1.5-38.5-3-55.5-17.6-11.2-13.5-16.9-27.7-19.3-42.7,1-11.5,5.5-14.1,12.4-7.9,10.9,5.7,21.3,11.4,32.2,17,39.2,13.2,105.6-10,144.2-18.4,25.4-7.5,42.7-1.1,57.7,10.7,10.3,7.8,15.1,19.6,21,31.3,4.7,13.1,13.2,16.3,22.3,14.4,23.5-4,43.7-15.7,65.6-23.6,15.8-11.6,25.4-1.1,26.2,7.9v32.8c-8.1,16.2-20.2,20.7-32.8,23.6-5.3,2.6-22.8,12.9-2.6,21,178,59.4,205.2-11.3,299,9.2,55.5,10.5,111,21,166.5,31.5,106.6,7.3,204.8,10.1,308.1,2.6,99.2-5.7,198.4-11.4,297.6-17,83.9-8.2,123.4-26.3,194.1-6.6,17,1.3,34.1,2.6,51.1,3.9,21.9-2.2,31.7-3.8,48.5,14.4,102.3,74.5,92.5,204.8,87.9,308.1-.4,43.7-13,87.4-1.3,131.1,14,14,11.3,22.8,42,42,43.5,26,52,78,34.1,108.8-17.1,29.5,4.2,106.7,5,103.1-7.6,5.8-14.5,9-29.1,4.5-25.5-11.8-36.7-37.1-36.2-65.6.4-22.8-2.8-36.4-13.1-56.4-10.9-18.4-21.9-36.7-32.8-55.1-19.2-19.6-16.5-45.9-14.4-69.5,7.4-84,1.2-250.9-40.6-339.6-7.7-16.3-14.4-11.4-10.2,4.4,5.2,22.3,12.9,47,18.1,69.2,34.7,93.7,9.3,179.6,5.2,264.6-5.2,37-12.8,65.3,10.5,94.4,32.4,31.9,45.6,51.9,26.2,95.7-35.8,89.9-16.9,155.3-5.2,253.1,2.2,10.1,4.4,20.1,6.6,30.2,7.8,15.8-.3,34.8-17,36.7-3.2,5.8-1.7,13.1-2.6,19.7v47.2c.9,5.5.2,11-9.2,11.8-44.6,15.1-87.6,15.2-133.7,14.4-11.7.6-24.1-2.8-18.4-19.7,15.8-15.4,34-23.2,49.8-36.7,29.3-24.9,26.8-53,32.8-85.2,9.4-51,6.4-104.1-10.5-157.3-16.6-29.7-24.5-63.4-49.8-89.2-11.4,20.1-22.7,40.2-34.1,60.3-32.8,56.4-34.2,122.7-48.5,184.9-3.3,20.3-7.4,26.5-17,31.5-6.1,1.7-11.5,4.7-17.6,6.4-15.5,11.8-14.5,43.2-15.2,60.5-49.5,12-92,13.4-135.1,15.7-17.2-.6-19.2-10.7-11.8-18.4,20.5-24.3,27.2-24.7,36.7-30.3,14.9-8.7,52.1-57.5,59.8-80.7,5.1-15.3,9.5-29.7,15.9-44.3,8.7-19.9,16.2-32.8,25.9-52.1,6.2-12.4,9.1-28.6,11-43.9,1.4-11.8-.9-23.7-1.1-34.6-1.2-19.4-12.3-22.1-31.4-14.7-11,4.3-11.2,4.1-15,14.9-2.8,8-5.8,17.1-8.2,23.1-4.6,9.4-23.6,8.3-30.6-2-9.5-17.1-9.5-27.9-42.1-22.6-12.8-2.5-14,13.1-21,19.7-6.7,6.2-20.5,15.7-35-4-2.6-9.6-1.1-8.9-3.7-18.6-4.8-2.6-7.6-9-12.4-11.6-31.5-19.5-49.4-33.3-68.2-49.8-9.9-5.9-6.1-14.8-32.8-10.5-134.2,12.6-192.9-46.4-293.7-22.9-18,0-44.9,2.3-61.6,50.5-15.1,66.5-14.1,144.5-13.7,215.2.4,18.3,8.3,35.3,15.7,52.5,4.2,13.5,3.4,35.3-5.2,38-4.8,1.5-9.6,2.6-14.4,3.9-8.2,3.1-9.3,8.6-10.5,14.4-2.8,13.9-3.9,20.3-6.1,34.3,0,8.1-8.7,11.2-13.5,11.6-42.4,4.8-84.8,9.6-127.2,14.4-11.2.3-19.8-11-11.8-19.7,26.7-23.6,53.3-35.4,72.1-70.8,11.7-35.8,29.7-77.4,12.3-167.6-4.8-15.7-16-52.9-20.8-68.6-13.5,17.9-29.1,60.6-36.7,82.6-15.7,45.3-9.8,20.2-20,98.1.9,17.9-4.5,35.8-3.6,53.8-2.6,1.7-.5,6.1-7.9,5.2-3.1-.4-5.7.8-8.8.4-10.4,4.9-12.6,8.9-14.9,20.6-1.3,6.6-2.6,13.1-3.9,19.7-2.6,3.9,1.6,12.6-7.9,11.8-40.2,1.7-80.4,3.5-120.6,5.2-2-13.9-1.2-28.7,11.8-36.7,41-25.4,66.2-30.9,71.9-63.9,11.5-67.4,32.2-82,4.5-174-4.6-15.2-8.7-20.6-9.2-36.7-.6-17.8.2-35.7,1-53.5.7-14.1-2.9-16.3-14.3-15-7.9.9-15.8,1.6-23.8,2.5-37.2,2.2-52-16.6-64.3-36.7-9.6-31.9-14.2-65.8-28.8-95.7-31.9-65.1-83.9-122.4-125.9-183.6-24.9-43.8-73.2-87.2-130.6-87.7-63.1-.4-123.9,12.7-198.2-9.1-21.3-6.3-30.2-11.8-36.3-26.8Z"/>
</svg>