<?xml version="1.0" encoding="UTF-8"?>
<svg id="For_Sheets" xmlns="http://www.w3.org/2000/svg" version="1.1" viewBox="0 0 3531.4 3531.4">
  <!-- Generator: Adobe Illustrator 29.1.0, SVG Export Plug-In . SVG Version: 2.1.0 Build 142)  -->
  <defs>
    <style>
      .st0, .st1 {
        fill: #ffd046;
      }

      .st0, .st2 {
        fill-rule: evenodd;
      }

      .st3, .st2 {
        fill: #231f20;
      }
    </style>
  </defs>
  <g>
    <g>
      <path class="st1" d="M1765.2,3531.1c-43.3,0-84-16.9-114.6-47.5L46.9,1879.9c-63.2-63.2-63.2-166.1,0-229.3L1650.6,46.9c30.6-30.6,71.3-47.5,114.6-47.5s84,16.9,114.6,47.5l1603.7,1603.7c63.2,63.2,63.2,166.1,0,229.3l-1603.7,1603.7c-30.6,30.6-71.3,47.5-114.6,47.5Z"/>
      <path class="st3" d="M1765.2-.5c41.5,0,82.9,15.8,114.6,47.4l1603.7,1603.7c63.3,63.3,63.3,165.8,0,229.1l-1603.7,1603.7c-31.6,31.6-73.1,47.4-114.6,47.4s-82.9-15.8-114.6-47.4L46.9,1879.8c-63.3-63.3-63.3-165.8,0-229.1L1650.7,46.9C1682.3,15.3,1723.8-.5,1765.2-.5M1765.2-.7c-43.3,0-84.1,16.9-114.7,47.5L46.8,1650.5c-30.6,30.6-47.5,71.4-47.5,114.7,0,43.3,16.9,84.1,47.5,114.7l1603.7,1603.7c30.6,30.6,71.4,47.5,114.7,47.5s84.1-16.9,114.7-47.5l1603.7-1603.7c30.6-30.6,47.5-71.4,47.5-114.7s-16.9-84.1-47.5-114.7L1879.9,46.8c-30.6-30.6-71.4-47.5-114.7-47.5h0Z"/>
    </g>
    <path class="st3" d="M78.8,1847.9c-45.6-45.6-45.6-119.8,0-165.5L1682.5,78.8c45.6-45.6,119.8-45.6,165.5,0l1603.7,1603.7c45.6,45.6,45.6,119.8,0,165.5l-1603.7,1603.7c-45.6,45.6-119.8,45.6-165.5,0L78.8,1847.9Z"/>
    <path class="st1" d="M123.3,1803.4c-21.1-21.1-21.1-55.3,0-76.4L1727,123.3c21.1-21.1,55.3-21.1,76.4,0l1603.7,1603.7c21.1,21.1,21.1,55.3,0,76.4l-1603.7,1603.7c-21.1,21.1-55.3,21.1-76.4,0L123.3,1803.4Z"/>
  </g>
  <g>
    <path class="st2" d="M1457,1372.5l287.7-158.5,27.2-235.9,198.3-158.4c23.4,44,46.1,87.9,65.8,134,22.1,51.6,41.6,104.4,57.4,158.1,29.5,100.2,50.5,203.6,58.9,307.7,6,72.2,4.6,143.5.5,215.7h389l124.3-169.9h124.5l-66.2,197.1c18.2,16.3,35.5,32.6,51.1,51.3,18,21.8,33.7,45.6,47.1,70.4,27.5,50.6,42.8,105.8,46.9,163.1,2.8,39.9-1.6,78.1-8.8,117.1h-1582.7l-3.9,42.6,120.4,42.4h295.7v61.9h-773.9c-63.4,0-124.6-26.8-171.8-68-37.1-32.5-63-74.1-84.9-117.6l46.6-27.1,62.3,85.1c32.2,44,87.4,66.3,139.9,73.4,24.7,3.4,47-2.3,70.2-11.6l163.1-65.7,11.8-38.8c-35.4-18.5-70-38-103.5-59.9-49.2-32.2-95.2-67.5-138.8-106.9-35.6-32.3-68.4-67.2-100-103.7l35.1-193.2,439.4-204.8,163.2-235.9h27.4l-19.5,235.9"/>
    <path class="st2" d="M1775.9,2118.5h937.1c-9.2,11.7-19,23-30.1,33-15,13.6-32.9,24.8-49.2,36.9-20.5,15.2-34.1,26.8-60.7,26.8h-618.4c-17.5,0-35-3.1-51.6-8.3-20.6-6.5-40.1-17.6-59.1-27.7-27.2-14.7-49.3-36.5-68.1-60.6"/>
    <path class="st2" d="M1872.4,827.9c-41.1,36.7-91.3,51.2-143.3,31.1-152.7-59.2,52.3-33.8,9.5-118.4-11.6-22.8-96.9-12.5-90.6-38.4,13.8-56.9,67.1-102.5,125.3-106.7,66.1-4.8,121,35.9,136.6,100.1,10.9,44.9-1.9,100.4-37.5,132.2"/>
  </g>
  <polygon class="st0" points="1616.5 1673.7 1507.5 1495.8 1764.3 1395.4 1810.8 1503.7 1616.5 1673.7"/>
</svg>