<?xml version="1.0" encoding="UTF-8"?>
<svg id="For_Sheets" xmlns="http://www.w3.org/2000/svg" version="1.1" viewBox="0 0 6048 1728">
  <!-- Generator: Adobe Illustrator 29.1.0, SVG Export Plug-In . SVG Version: 2.1.0 Build 142)  -->
  <defs>
    <style>
      .st0 {
        fill: #231f20;
      }

      .st1 {
        fill: #ffd046;
      }
    </style>
  </defs>
  <g>
    <path class="st1" d="M216,1728.1c-57.5,0-111.7-22.5-152.6-63.5C22.4,1623.7-.1,1569.5-.1,1512V216C-.1,158.5,22.4,104.3,63.4,63.4,104.3,22.4,158.5-.1,216-.1h5616c57.5,0,111.7,22.5,152.6,63.5,40.9,40.9,63.5,95.1,63.5,152.6v1296c0,57.5-22.5,111.7-63.5,152.6-40.9,40.9-95.1,63.5-152.6,63.5H216Z"/>
    <path class="st0" d="M5832,0c118.8,0,216,97.2,216,216v1296c0,118.8-97.2,216-216,216H216c-118.8,0-216-97.2-216-216V216C0,97.2,97.2,0,216,0h5616M5832-.2H216c-29.1,0-57.3,5.7-84,17.1-25.7,10.9-48.9,26.6-68.8,46.5-19.9,19.9-35.5,43-46.5,68.8C5.5,158.7-.2,186.9-.2,216v1296c0,29.1,5.7,57.3,17.1,84,10.9,25.7,26.6,48.9,46.5,68.8,19.9,19.9,43,35.5,68.8,46.5,26.7,11.3,54.9,17.1,84,17.1h5616c29.1,0,57.3-5.7,84-17.1,25.7-10.9,48.9-26.6,68.8-46.5,19.9-19.9,35.5-43,46.5-68.8,11.3-26.7,17.1-54.9,17.1-84V216c0-29.1-5.7-57.3-17.1-84-10.9-25.7-26.6-48.9-46.5-68.8-19.9-19.9-43-35.5-68.8-46.5-26.7-11.3-54.9-17.1-84-17.1h0Z"/>
  </g>
  <path class="st0" d="M5832,1674H216c-89.1,0-162-72.9-162-162V216c0-89.1,72.9-162,162-162h5616c89.1,0,162,72.9,162,162v1296c0,89.1-72.9,162-162,162ZM5904,1512V216c0-39.6-32.4-72-72-72H216c-39.6,0-72,32.4-72,72v1296c0,39.6,32.4,72,72,72h5616c39.6,0,72-32.4,72-72Z"/>
  <g>
    <path class="st0" d="M2192.7,823.1v117.2h180.5v105.1h-180.5v250.6h-105.5v-576h432v103.1h-326.5Z"/>
    <path class="st0" d="M2831.8,821.1v474.9h-100.9v-474.9h-165.5v-101.1h432v101.1h-165.5Z"/>
  </g>
  <g>
    <path class="st0" d="M689,1296l3-645.7h-108.5l-3-124.3c66.3-15.2,102.5-39.4,135.6-94h123.6v864h-150.7Z"/>
    <path class="st0" d="M1671.9,1120.2v175.8h-151.6v-175.8h-533.6v-139.5l533.6-548.7h151.6v548.7h127.3v139.5h-127.3ZM1520.3,635.1l-336.6,345.6h336.6v-345.6Z"/>
  </g>
  <path class="st0" d="M4330.5,1120.2v175.8h-151.6v-175.8h-533.6v-139.5l533.6-548.7h151.6v548.7h127.3v139.5h-127.3ZM4178.9,635.1l-336.6,345.6h336.6v-345.6Z"/>
  <g>
    <path class="st0" d="M4747.2,1296v-576h103.7v576h-103.7Z"/>
    <path class="st0" d="M5378.1,1296l-276.1-396.1v396.1h-101.5v-576h101.5l265.9,380v-380h99.5v576h-89.3Z"/>
  </g>
</svg>