<?xml version="1.0" encoding="UTF-8"?>
<svg id="For_Sheets" xmlns="http://www.w3.org/2000/svg" version="1.1" viewBox="0 0 2942.9 2942.9">
  <!-- Generator: Adobe Illustrator 29.1.0, SVG Export Plug-In . SVG Version: 2.1.0 Build 142)  -->
  <defs>
    <style>
      .st0 {
        fill: #231f20;
      }

      .st1 {
        fill: #ffd046;
      }
    </style>
  </defs>
  <g>
    <path class="st1" d="M1471.4,2943c-36.1,0-70-14.1-95.5-39.6L39.5,1567C13.9,1541.5-.1,1507.5-.1,1471.4s14.1-70,39.6-95.5L1375.9,39.5C1401.4,13.9,1435.3-.1,1471.4-.1s70,14.1,95.5,39.6l1336.4,1336.4c25.5,25.5,39.6,59.5,39.6,95.5s-14.1,70-39.6,95.5l-1336.4,1336.4c-25.5,25.5-59.5,39.6-95.5,39.6Z"/>
    <path class="st0" d="M1471.4,0c34.5,0,69.1,13.2,95.5,39.5l1336.4,1336.4c52.7,52.7,52.7,138.2,0,190.9l-1336.4,1336.4c-26.4,26.4-60.9,39.5-95.5,39.5s-69.1-13.2-95.5-39.5L39.5,1566.9c-52.7-52.7-52.7-138.2,0-190.9L1376,39.5C1402.3,13.2,1436.9,0,1471.4,0M1471.4-.3c-36.1,0-70.1,14.1-95.6,39.6L39.4,1375.8c-25.5,25.5-39.6,59.5-39.6,95.6s14.1,70.1,39.6,95.6l1336.4,1336.4c25.5,25.5,59.5,39.6,95.6,39.6s70.1-14.1,95.6-39.6l1336.4-1336.4c25.5-25.5,39.6-59.5,39.6-95.6s-14.1-70.1-39.6-95.6L1567.1,39.4c-25.5-25.5-59.5-39.6-95.6-39.6h0Z"/>
  </g>
  <path class="st0" d="M65,1541.4c-38.6-38.6-38.6-101.4,0-140L1401.4,65c38.6-38.6,101.4-38.6,140,0l1336.4,1336.4c38.6,38.6,38.6,101.4,0,140l-1336.4,1336.4c-38.6,38.6-101.4,38.6-140,0L65,1541.4Z"/>
  <path class="st1" d="M103.2,1503.3c-17.5-17.5-17.5-46.1,0-63.6L1439.6,103.2c17.5-17.5,46.1-17.5,63.6,0l1336.4,1336.4c17.5,17.5,17.5,46.1,0,63.6l-1336.4,1336.4c-17.5,17.5-46.1,17.5-63.6,0L103.2,1503.3Z"/>
  <g>
    <rect class="st0" x="819.7" y="1093.2" width="541.9" height="278.4" transform="translate(-552.6 1322.5) rotate(-51.6)"/>
    <path class="st0" d="M1234.2,1553.5c4.2,1.7,8,3.9,11.3,6.6,20.1,15.9,23.5,45.1,7.6,65.2-5.6,7.1-13.3,12.6-22.6,15.5l-614.1,190.6,44.7-641.5c.7-9.7,4.3-18.5,9.9-25.6,15.9-20.1,45.1-23.5,65.2-7.6,3.4,2.7,6.4,5.8,9,9.5l188,264.9,301,122.3Z"/>
  </g>
  <g>
    <rect class="st0" x="1713" y="961.4" width="278.4" height="541.9" transform="translate(-365 1415.9) rotate(-38.4)"/>
    <path class="st0" d="M1708.6,1553.5c-4.2,1.7-8,3.9-11.3,6.6-20.1,15.9-23.5,45.1-7.6,65.2,5.6,7.1,13.3,12.6,22.6,15.5l614.1,190.6-44.7-641.5c-.7-9.7-4.3-18.5-9.9-25.6-15.9-20.1-45.1-23.5-65.2-7.6-3.4,2.7-6.4,5.8-9,9.5l-188,264.9-301,122.3Z"/>
  </g>
</svg>