<?xml version="1.0" encoding="UTF-8"?>
<svg id="For_Sheets" xmlns="http://www.w3.org/2000/svg" version="1.1" viewBox="0 0 3531.4 3531.4">
  <!-- Generator: Adobe Illustrator 29.1.0, SVG Export Plug-In . SVG Version: 2.1.0 Build 142)  -->
  <defs>
    <style>
      .st0 {
        fill: #231f20;
      }

      .st1 {
        fill: #ffd046;
      }
    </style>
  </defs>
  <g>
    <path class="st1" d="M1765.7,3531.6c-43.3,0-84-16.9-114.6-47.5L47.4,1880.4c-63.2-63.2-63.2-166.1,0-229.3L1651.1,47.4C1681.7,16.7,1722.4-.1,1765.7-.1s84,16.9,114.6,47.5l1603.7,1603.7c63.2,63.2,63.2,166.1,0,229.3l-1603.7,1603.7c-30.6,30.6-71.3,47.5-114.6,47.5Z"/>
    <path class="st0" d="M1765.7,0c41.5,0,82.9,15.8,114.6,47.4l1603.7,1603.7c63.3,63.3,63.3,165.8,0,229.1l-1603.7,1603.7c-31.6,31.6-73.1,47.4-114.6,47.4s-82.9-15.8-114.6-47.4L47.4,1880.3c-63.3-63.3-63.3-165.8,0-229.1L1651.2,47.4C1682.8,15.8,1724.3,0,1765.7,0M1765.7-.3c-43.3,0-84.1,16.9-114.7,47.5L47.3,1651c-30.6,30.6-47.5,71.4-47.5,114.7,0,43.3,16.9,84.1,47.5,114.7l1603.7,1603.7c30.6,30.6,71.4,47.5,114.7,47.5s84.1-16.9,114.7-47.5l1603.7-1603.7c30.6-30.6,47.5-71.4,47.5-114.7s-16.9-84.1-47.5-114.7L1880.4,47.3c-30.6-30.6-71.4-47.5-114.7-47.5h0Z"/>
  </g>
  <path class="st0" d="M79.3,1848.4c-45.6-45.6-45.6-119.8,0-165.5L1683,79.3c45.6-45.6,119.8-45.6,165.5,0l1603.7,1603.7c45.6,45.6,45.6,119.8,0,165.5l-1603.7,1603.7c-45.6,45.6-119.8,45.6-165.5,0L79.3,1848.4Z"/>
  <path class="st1" d="M123.8,1803.9c-21.1-21.1-21.1-55.3,0-76.4L1727.5,123.8c21.1-21.1,55.3-21.1,76.4,0l1603.7,1603.7c21.1,21.1,21.1,55.3,0,76.4l-1603.7,1603.7c-21.1,21.1-55.3,21.1-76.4,0L123.8,1803.9Z"/>
  <g>
    <path class="st0" d="M938.6,1621.7v-504h181.8c127.2,0,161.3,167.5,161.3,240.7,0,189.1-97.2,263.3-161,263.3h-182.1ZM1108.3,1197.3h-90.2v343h84.6c73.3,0,97.4-88.8,97.4-183.7s-12.9-159.3-91.8-159.3Z"/>
    <path class="st0" d="M1392.6,1117.7h296.7v79.6h-217.2v123.8h146.6v81.3h-146.6v138h233.1v81.3h-312.6v-504Z"/>
    <path class="st0" d="M2039,1480.2h-158.3l-49.8,141.5h-85.4l174.3-504h80.1l174.3,504h-85.4l-49.8-141.5ZM1909.2,1398.9h101.4l-49.8-141.4-51.5,141.4Z"/>
    <path class="st0" d="M2249.8,1621.7v-504h181.8c127.2,0,161.3,167.5,161.3,240.7,0,189.1-97.2,263.3-161,263.3h-182.1ZM2419.5,1197.3h-90.2v343h84.6c73.3,0,97.4-88.8,97.4-183.7s-12.9-159.3-91.8-159.3Z"/>
  </g>
  <g>
    <path class="st0" d="M1163,1981.7h296.7v79.6h-217.2v123.8h146.6v81.3h-146.6v138h233.1v81.3h-312.6v-504Z"/>
    <path class="st0" d="M1640.8,2144.4v341.3h-79.5v-504h79.5l184,321.9v-321.9h79.6v504h-70.7l-192.8-341.3Z"/>
    <path class="st0" d="M2025.3,2485.7v-504h181.8c127.2,0,161.3,167.5,161.3,240.7,0,189.1-97.2,263.3-161,263.3h-182.1ZM2195,2061.3h-90.2v343h84.6c73.3,0,97.4-88.8,97.4-183.7s-12.9-159.3-91.8-159.3Z"/>
  </g>
</svg>