<?xml version="1.0" encoding="UTF-8"?>
<svg id="For_Sheets" xmlns="http://www.w3.org/2000/svg" version="1.1" viewBox="0 0 3531.4 3531.4">
  <!-- Generator: Adobe Illustrator 29.1.0, SVG Export Plug-In . SVG Version: 2.1.0 Build 142)  -->
  <defs>
    <style>
      .Grid_x0020_FILL_x0020_2 {
        fill: #231f20;
      }

      .st0 {
        fill: #ffd046;
      }
    </style>
  </defs>
  <g>
    <path class="st0" d="M1765.7,3531.6c-43.3,0-84-16.9-114.6-47.5L47.4,1880.4c-63.2-63.2-63.2-166.1,0-229.3L1651.1,47.4C1681.7,16.7,1722.4-.1,1765.7-.1s84,16.9,114.6,47.5l1603.7,1603.7c63.2,63.2,63.2,166.1,0,229.3l-1603.7,1603.7c-30.6,30.6-71.3,47.5-114.6,47.5Z"/>
    <path class="Grid_x0020_FILL_x0020_2" d="M1765.7,0c41.5,0,82.9,15.8,114.6,47.4l1603.7,1603.7c63.3,63.3,63.3,165.8,0,229.1l-1603.7,1603.7c-31.6,31.6-73.1,47.4-114.6,47.4s-82.9-15.8-114.6-47.4L47.4,1880.3c-63.3-63.3-63.3-165.8,0-229.1L1651.2,47.4C1682.8,15.8,1724.3,0,1765.7,0M1765.7-.3c-43.3,0-84.1,16.9-114.7,47.5L47.3,1651c-30.6,30.6-47.5,71.4-47.5,114.7,0,43.3,16.9,84.1,47.5,114.7l1603.7,1603.7c30.6,30.6,71.4,47.5,114.7,47.5s84.1-16.9,114.7-47.5l1603.7-1603.7c30.6-30.6,47.5-71.4,47.5-114.7,0-43.3-16.9-84.1-47.5-114.7L1880.4,47.3c-30.6-30.6-71.4-47.5-114.7-47.5h0Z"/>
  </g>
  <path class="Grid_x0020_FILL_x0020_2" d="M79.3,1848.4c-45.6-45.6-45.6-119.8,0-165.5L1683,79.3c45.6-45.6,119.8-45.6,165.5,0l1603.7,1603.7c45.6,45.6,45.6,119.8,0,165.5l-1603.7,1603.7c-45.6,45.6-119.8,45.6-165.5,0L79.3,1848.4Z"/>
  <path class="st0" d="M123.8,1803.9c-21.1-21.1-21.1-55.3,0-76.4L1727.5,123.8c21.1-21.1,55.3-21.1,76.4,0l1603.7,1603.7c21.1,21.1,21.1,55.3,0,76.4l-1603.7,1603.7c-21.1,21.1-55.3,21.1-76.4,0L123.8,1803.9Z"/>
  <g>
    <g>
      <path class="Grid_x0020_FILL_x0020_2" d="M1196.5,1297c49.4,0,89.6-40.3,89.6-89.7s-40.3-89.7-89.6-89.7-89.7,40.3-89.7,89.7,40.3,89.7,89.7,89.7Z"/>
      <path class="Grid_x0020_FILL_x0020_2" d="M2525.4,1580.6c49.4,0,89.7-40.3,89.7-89.7s-40.3-89.6-89.7-89.6-89.7,40.3-89.7,89.6,40.3,89.7,89.7,89.7Z"/>
      <path class="Grid_x0020_FILL_x0020_2" d="M2720.7,1917.9c7.2-9.4,13.6-17.1,20.8-26.5,23.8-30,26.2-58.6,7.3-85.8l-139.9-229c-36.6,6.6-73.1,13.2-109.7,19.9-52.2,35.2-104.4,70.4-156.5,105.7-16.1,11.4-22.9,27.1-20.4,47.1l6,26.8-22.8,49.1-1055-228.1v-54.1l16.7-21.8c10.7-17.1,11.1-34.2,1.3-51.3-32.5-53.9-65-107.8-97.5-161.7-30.4-21.4-60.8-42.8-91.1-64.2l-223.3,148.9c-28.7,16.7-38.5,43.6-29.5,80.9,2.6,11.6,5.1,21.3,7.7,32.8-36.4-9.4-72.7-16-109.1-25.5l-24.4,104,308.4,67.7,90.8,172.7,104-24.4-23.5-110.9,1148.7,248.8-67.9,90.7,84,65.9,155-118.5,308.2,68.4,21.6-104.6c-36.9-6.8-72.7-16.1-109.7-22.8ZM1212.2,1589.9l-60.1-13.4-87.8-106.7,71.9-75.7,86,105.2-9.9,90.6ZM2403.1,1847.8l-60.2-13.1,29.1-86.4,122.3-59.3,33.3,98.9-124.6,59.9Z"/>
      <polygon class="Grid_x0020_FILL_x0020_2" points="1659.9 1918.9 1659.9 2269.7 1874.8 2269.7 1874.8 1918.9 1765.9 1823.4 1659.9 1918.9"/>
    </g>
    <g>
      <path class="Grid_x0020_FILL_x0020_2" d="M1196.5,1297c49.4,0,89.6-40.3,89.6-89.7s-40.3-89.7-89.6-89.7-89.7,40.3-89.7,89.7,40.3,89.7,89.7,89.7Z"/>
      <path class="Grid_x0020_FILL_x0020_2" d="M2525.4,1580.6c49.4,0,89.7-40.3,89.7-89.7s-40.3-89.6-89.7-89.6-89.7,40.3-89.7,89.6,40.3,89.7,89.7,89.7Z"/>
      <path class="Grid_x0020_FILL_x0020_2" d="M2720.7,1917.9c7.2-9.4,13.6-17.1,20.8-26.5,23.8-30,26.2-58.6,7.3-85.8l-139.9-229c-36.6,6.6-73.1,13.2-109.7,19.9-52.2,35.2-104.4,70.4-156.5,105.7-16.1,11.4-22.9,27.1-20.4,47.1l6,26.8-22.8,49.1-1055-228.1v-54.1l16.7-21.8c10.7-17.1,11.1-34.2,1.3-51.3-32.5-53.9-65-107.8-97.5-161.7-30.4-21.4-60.8-42.8-91.1-64.2l-223.3,148.9c-28.7,16.7-38.5,43.6-29.5,80.9,2.6,11.6,5.1,21.3,7.7,32.8-36.4-9.4-72.7-16-109.1-25.5l-24.4,104,308.4,67.7,90.8,172.7,104-24.4-23.5-110.9,1148.7,248.8-67.9,90.7,84,65.9,155-118.5,308.2,68.4,21.6-104.6c-36.9-6.8-72.7-16.1-109.7-22.8ZM1212.2,1589.9l-60.1-13.4-87.8-106.7,71.9-75.7,86,105.2-9.9,90.6ZM2403.1,1847.8l-60.2-13.1,29.1-86.4,122.3-59.3,33.3,98.9-124.6,59.9Z"/>
      <polygon class="Grid_x0020_FILL_x0020_2" points="1659.9 1918.9 1659.9 2269.7 1874.8 2269.7 1874.8 1918.9 1765.9 1823.4 1659.9 1918.9"/>
    </g>
  </g>
</svg>