<?xml version="1.0" encoding="UTF-8"?>
<svg id="For_Sheets" xmlns="http://www.w3.org/2000/svg" version="1.1" viewBox="0 0 6480 3456">
  <!-- Generator: Adobe Illustrator 29.1.0, SVG Export Plug-In . SVG Version: 2.1.0 Build 142)  -->
  <defs>
    <style>
      .st0 {
        fill: #231f20;
      }

      .st1 {
        fill: #ffd046;
      }
    </style>
  </defs>
  <g>
    <path class="st1" d="M216,3456.1c-57.7,0-112-22.5-152.8-63.3C22.4,3352-.1,3297.7-.1,3240V216C-.1,158.3,22.4,104,63.2,63.2S158.3-.1,216-.1h6048c57.7,0,112,22.5,152.8,63.3,40.8,40.8,63.3,95.1,63.3,152.8v3024c0,57.7-22.5,112-63.3,152.8-40.8,40.8-95.1,63.3-152.8,63.3H216Z"/>
    <path class="st0" d="M6264,0c119.3,0,216,96.7,216,216v3024c0,119.3-96.7,216-216,216H216c-119.3,0-216-96.7-216-216V216C0,96.7,96.7,0,216,0h6048M6264-.2H216c-29.2,0-57.5,5.7-84.2,17-25.8,10.9-48.9,26.5-68.7,46.3-19.9,19.9-35.5,43-46.3,68.7C5.5,158.5-.2,186.8-.2,216v3024c0,29.2,5.7,57.5,17,84.2,10.9,25.8,26.5,48.9,46.3,68.7,19.9,19.9,43,35.5,68.7,46.3,26.7,11.3,55,17,84.2,17h6048c29.2,0,57.5-5.7,84.2-17,25.8-10.9,48.9-26.5,68.7-46.3,19.9-19.9,35.5-43,46.3-68.7,11.3-26.7,17-55,17-84.2V216c0-29.2-5.7-57.5-17-84.2-10.9-25.8-26.5-48.9-46.3-68.7-19.9-19.9-43-35.5-68.7-46.3-26.7-11.3-55-17-84.2-17h0Z"/>
  </g>
  <path class="st0" d="M6264,54H216c-89.3,0-162,72.7-162,162v3024c0,89.3,72.7,162,162,162h6048c89.3,0,162-72.7,162-162V216c0-89.3-72.7-162-162-162ZM6336,3240c0,39.7-32.3,72-72,72H216c-39.7,0-72-32.3-72-72V216c0-39.7,32.3-72,72-72h6048c39.7,0,72,32.3,72,72v3024Z"/>
  <g>
    <g>
      <path class="st0" d="M855.6,1222.1h-203.5l-64.1,181.9h-109.8l224.1-648h102.9l224,648h-109.8l-64.1-181.9ZM688.7,1117.5h130.3l-64.1-181.8-66.3,181.8Z"/>
      <path class="st0" d="M1126.6,756h102.2v552.5h299.7v95.5h-401.9v-648Z"/>
      <path class="st0" d="M1625.8,756h102.2v552.5h299.7v95.5h-401.9v-648Z"/>
    </g>
    <g>
      <path class="st0" d="M2926.8,1404h-102.8v-557h-148.4v-91h401.9v91h-150.7v557Z"/>
      <path class="st0" d="M3277,1122v282h-102.2v-648h234.4c148.5,0,193.1,118.8,193.1,182s-8.9,118.8-100.6,162.2l114.2,303.7h-111.5l-104.6-282h-122.9ZM3405.7,1017.5c81.3,0,94.1-58.6,94.1-79.5s-21.1-79.6-89.2-79.6h-133.6v159.2h128.7Z"/>
      <path class="st0" d="M4045.1,1222.1h-203.5l-64.1,181.9h-109.8l224.1-648h102.9l224,648h-109.7l-64.1-181.9ZM3878.2,1117.5h130.3l-64.1-181.8-66.3,181.8Z"/>
      <path class="st0" d="M4418.3,1017.5h188.5v104.6h-188.5v282h-102.2v-648h401.9v102.3h-299.7v159.2Z"/>
      <path class="st0" d="M4917.5,1017.5h188.5v104.6h-188.5v282h-102.2v-648h401.9v102.3h-299.7v159.2Z"/>
      <path class="st0" d="M5314.4,756h103.7v648h-103.7v-648Z"/>
      <path class="st0" d="M5560.6,1078.9c0-91.1,18.3-334.1,238.7-334.1s157.9,38.2,202.4,131.9l-95.5,40.9c-33.1-47.6-49.7-68.2-106.8-68.2-135.6,0-134.1,189-134.1,229.6s-2.5,232,138.7,232,77.9-29.9,100-75.1l97.8,36.4c-36.4,90.2-97.7,143.1-195.6,143.1-233.2,0-245.5-257.6-245.5-336.5Z"/>
    </g>
  </g>
  <g>
    <g>
      <path class="st0" d="M1455.1,2330l-150.2,375.2-150.4-375.2v375.2h-102.5v-648h102.5l150.4,363.8,150.2-363.8h102.5v648h-102.5v-375.2Z"/>
      <path class="st0" d="M1713.2,2473.3v-416.1h102.2v416.1c0,84.2,47.8,138.7,118.3,138.7s118.3-54.5,118.3-138.7v-416.1h102.4v416.1c0,204.9-157.2,243.2-220.6,243.2s-220.6-33.9-220.6-243.2Z"/>
      <path class="st0" d="M2264.4,2553.1l97.7-36.3c27.3,61.3,77.4,95.3,138.7,95.3s100.2-40.8,100.2-95.3c0-86.6-100.2-99.9-184.2-134-38.6-15.9-124.9-54.5-124.9-161.2s86.3-174.9,202.1-174.9,152.1,52.2,183.9,131.7l-90.9,27.2c-15-29.2-46.4-56.8-100.8-56.8-78.4,0-94.7,42.8-94.7,65.4,0,60.5,52.2,72.5,137,99.1,86.3,27.1,176.9,66.9,176.9,205.6,0,139.8-113.6,197.5-204.7,197.5s-193.3-65.8-236.4-163.5Z"/>
      <path class="st0" d="M3008.6,2705.2h-102.8v-557h-148.4v-91h401.9v91h-150.7v557Z"/>
    </g>
    <g>
      <path class="st0" d="M3807.3,2057.2h381.5v102.3h-279.3v159.2h188.5v104.6h-188.5v177.4h299.7v104.6h-401.9v-648Z"/>
      <path class="st0" d="M4494.6,2489.1l-104.6,216h-116l161.4-334.2-150.1-313.8h116l93.2,193.3,93.2-193.3h116l-152.4,313.8,163.7,334.2h-116l-104.6-216Z"/>
      <path class="st0" d="M4825.3,2057.2h103.7v648h-103.7v-648Z"/>
      <path class="st0" d="M5277.4,2705.2h-102.8v-557h-148.4v-91h401.9v91h-150.7v557Z"/>
    </g>
  </g>
</svg>