<?xml version="1.0" encoding="UTF-8"?>
<svg id="For_Sheets" xmlns="http://www.w3.org/2000/svg" version="1.1" viewBox="0 0 3531.4 3531.4">
  <!-- Generator: Adobe Illustrator 29.1.0, SVG Export Plug-In . SVG Version: 2.1.0 Build 142)  -->
  <defs>
    <style>
      .st0 {
        fill: #231f20;
      }

      .st1 {
        fill: #f7921e;
      }
    </style>
  </defs>
  <g>
    <path class="st1" d="M1765.7,3531.6c-43.3,0-84-16.9-114.6-47.5L47.4,1880.4c-63.2-63.2-63.2-166.1,0-229.3L1651.1,47.4C1681.7,16.7,1722.4-.1,1765.7-.1s84,16.9,114.6,47.5l1603.7,1603.7c63.2,63.2,63.2,166.1,0,229.3l-1603.7,1603.7c-30.6,30.6-71.3,47.5-114.6,47.5Z"/>
    <path class="st0" d="M1765.7,0c41.5,0,82.9,15.8,114.6,47.4l1603.7,1603.7c63.3,63.3,63.3,165.8,0,229.1l-1603.7,1603.7c-31.6,31.6-73.1,47.4-114.6,47.4s-82.9-15.8-114.6-47.4L47.4,1880.3c-63.3-63.3-63.3-165.8,0-229.1L1651.2,47.4C1682.8,15.8,1724.3,0,1765.7,0M1765.7-.3c-43.3,0-84.1,16.9-114.7,47.5L47.3,1651c-30.6,30.6-47.5,71.4-47.5,114.7,0,43.3,16.9,84.1,47.5,114.7l1603.7,1603.7c30.6,30.6,71.4,47.5,114.7,47.5s84.1-16.9,114.7-47.5l1603.7-1603.7c30.6-30.6,47.5-71.4,47.5-114.7,0-43.3-16.9-84.1-47.5-114.7L1880.4,47.3c-30.6-30.6-71.4-47.5-114.7-47.5h0Z"/>
  </g>
  <path class="st0" d="M79.3,1848.4c-45.6-45.6-45.6-119.8,0-165.5L1683,79.3c45.6-45.6,119.8-45.6,165.5,0l1603.7,1603.7c45.6,45.6,45.6,119.8,0,165.5l-1603.7,1603.7c-45.6,45.6-119.8,45.6-165.5,0L79.3,1848.4Z"/>
  <path class="st1" d="M123.8,1803.9c-21.1-21.1-21.1-55.3,0-76.4L1727.5,123.8c21.1-21.1,55.3-21.1,76.4,0l1603.7,1603.7c21.1,21.1,21.1,55.3,0,76.4l-1603.7,1603.7c-21.1,21.1-55.3,21.1-76.4,0L123.8,1803.9Z"/>
  <g>
    <path class="st0" d="M992.1,1195.3l54.3-20.2c15.2,34.1,43,53,77.1,53s55.7-22.7,55.7-53c0-48.1-55.7-55.5-102.3-74.4-21.5-8.8-69.4-30.3-69.4-89.5s47.9-97.2,112.3-97.2,84.5,29,102.2,73.2l-50.5,15.1c-8.3-16.2-25.8-31.5-56-31.5-43.6,0-52.6,23.8-52.6,36.4,0,33.6,29,40.3,76.1,55.1,48,15.1,98.3,37.2,98.3,114.2,0,77.7-63.1,109.7-113.7,109.7s-107.4-36.5-131.4-90.8Z"/>
    <path class="st0" d="M1396.9,1279.7h-57.1v-309.5h-82.4v-50.5h223.3v50.5h-83.7v309.5Z"/>
    <path class="st0" d="M1575.3,1123v156.7h-56.8v-360h130.2c82.5,0,107.3,66,107.3,101.1s-4.9,66-55.9,90.1l63.4,168.7h-61.9l-58.1-156.7h-68.3ZM1646.8,1065c45.2,0,52.3-32.6,52.3-44.2s-11.7-44.2-49.5-44.2h-74.2v88.4h71.5Z"/>
    <path class="st0" d="M1806.4,919.7h211.9v56.8h-155.2v88.4h104.7v58.1h-104.7v98.5h166.5v58.1h-223.3v-360Z"/>
    <path class="st0" d="M2072.5,919.7h211.9v56.8h-155.2v88.4h104.7v58.1h-104.7v98.5h166.5v58.1h-223.3v-360Z"/>
    <path class="st0" d="M2455.5,1279.7h-57.1v-309.5h-82.4v-50.5h223.3v50.5h-83.7v309.5Z"/>
  </g>
  <g>
    <path class="st0" d="M895.7,1711.1c0-50.6,10.2-185.6,132.6-185.6s87.7,21.2,112.4,73.3l-53.1,22.7c-18.4-26.5-27.6-37.9-59.4-37.9-75.3,0-74.5,105-74.5,127.6s-1.4,128.9,77,128.9,43.3-16.6,55.6-41.7l54.3,20.2c-20.2,50.1-54.3,79.5-108.7,79.5-129.5,0-136.4-143.1-136.4-186.9Z"/>
    <path class="st0" d="M1220,1531.7h56.8v306.9h166.5v53.1h-223.3v-360Z"/>
    <path class="st0" d="M1745.9,1711.7c0,12.9,2.7,186.3-127.9,186.3s-127.9-173.4-127.9-186.3-2.7-186.3,127.9-186.3,127.9,173.3,127.9,186.3ZM1618.6,1840c38.8,0,70.3-36.8,70.3-128.2s-31.5-128.2-70.3-128.2-70.3,36.7-70.3,128.2,31.5,128.2,70.3,128.2Z"/>
    <path class="st0" d="M1799.9,1807.3l54.3-20.2c15.2,34.1,43,53,77.1,53s55.7-22.7,55.7-53c0-48.1-55.7-55.5-102.3-74.4-21.5-8.8-69.4-30.3-69.4-89.5s47.9-97.2,112.3-97.2,84.5,29,102.2,73.2l-50.5,15.1c-8.3-16.2-25.8-31.5-56-31.5-43.6,0-52.6,23.8-52.6,36.4,0,33.6,29,40.3,76.1,55.1,48,15.1,98.3,37.2,98.3,114.2,0,77.7-63.1,109.7-113.7,109.7s-107.4-36.5-131.3-90.8Z"/>
    <path class="st0" d="M2106.1,1531.7h211.9v56.8h-155.2v88.4h104.7v58.1h-104.7v98.5h166.5v58.1h-223.3v-360Z"/>
    <path class="st0" d="M2390.6,1891.7v-360h129.9c90.8,0,115.2,119.7,115.2,171.9,0,135-69.4,188.1-115,188.1h-130.1ZM2511.9,1588.6h-64.4v245h60.4c52.4,0,69.6-63.4,69.6-131.2s-9.2-113.8-65.6-113.8Z"/>
  </g>
  <g>
    <g>
      <path class="st0" d="M897.8,2211.9h-32.5v-45.5h3.7c15,0,31.3-8.8,41.3-22.7h45v360h-57.5v-291.8Z"/>
      <path class="st0" d="M1290.3,2323.7c0,12.9,2.7,186.3-127.9,186.3s-127.9-173.4-127.9-186.3-2.7-186.3,127.9-186.3,127.9,173.3,127.9,186.3ZM1163,2452c38.8,0,70.3-36.8,70.3-128.2s-31.5-128.2-70.3-128.2-70.3,36.7-70.3,128.2,31.5,128.2,70.3,128.2Z"/>
      <path class="st0" d="M1618.1,2323.7c0,12.9,2.7,186.3-127.9,186.3s-127.9-173.4-127.9-186.3-2.7-186.3,127.9-186.3,127.9,173.3,127.9,186.3ZM1490.8,2452c38.8,0,70.3-36.8,70.3-128.2s-31.5-128.2-70.3-128.2-70.3,36.7-70.3,128.2,31.5,128.2,70.3,128.2Z"/>
      <path class="st0" d="M1945.9,2323.7c0,12.9,2.7,186.3-127.9,186.3s-127.9-173.4-127.9-186.3-2.7-186.3,127.9-186.3,127.9,173.3,127.9,186.3ZM1818.6,2452c38.8,0,70.3-36.8,70.3-128.2s-31.5-128.2-70.3-128.2-70.3,36.7-70.3,128.2,31.5,128.2,70.3,128.2Z"/>
    </g>
    <g>
      <path class="st0" d="M2254.7,2289h104.7v58.1h-104.7v156.6h-56.8v-360h223.3v56.8h-166.5v88.4Z"/>
      <path class="st0" d="M2582.4,2503.7h-57.1v-309.5h-82.4v-50.5h223.3v50.5h-83.7v309.5Z"/>
    </g>
  </g>
</svg>