<?xml version="1.0" encoding="UTF-8"?>
<svg id="For_Sheets" xmlns="http://www.w3.org/2000/svg" version="1.1" viewBox="0 0 3531.4 3531.4">
  <!-- Generator: Adobe Illustrator 29.1.0, SVG Export Plug-In . SVG Version: 2.1.0 Build 142)  -->
  <defs>
    <style>
      .st0 {
        fill: #231f20;
      }

      .st1 {
        fill: #f7921e;
      }
    </style>
  </defs>
  <g>
    <g>
      <path class="st1" d="M1765.7,3531.6c-43.3,0-84-16.9-114.6-47.5L47.4,1880.4c-63.2-63.2-63.2-166.1,0-229.3L1651.1,47.4C1681.7,16.7,1722.4-.1,1765.7-.1s84,16.9,114.6,47.5l1603.7,1603.7c63.2,63.2,63.2,166.1,0,229.3l-1603.7,1603.7c-30.6,30.6-71.3,47.5-114.6,47.5Z"/>
      <path class="st0" d="M1765.7,0c41.5,0,82.9,15.8,114.6,47.4l1603.7,1603.7c63.3,63.3,63.3,165.8,0,229.1l-1603.7,1603.7c-31.6,31.6-73.1,47.4-114.6,47.4s-82.9-15.8-114.6-47.4L47.4,1880.3c-63.3-63.3-63.3-165.8,0-229.1L1651.2,47.4C1682.8,15.8,1724.3,0,1765.7,0M1765.7-.3c-43.3,0-84.1,16.9-114.7,47.5L47.3,1651c-30.6,30.6-47.5,71.4-47.5,114.7,0,43.3,16.9,84.1,47.5,114.7l1603.7,1603.7c30.6,30.6,71.4,47.5,114.7,47.5s84.1-16.9,114.7-47.5l1603.7-1603.7c30.6-30.6,47.5-71.4,47.5-114.7,0-43.3-16.9-84.1-47.5-114.7L1880.4,47.3c-30.6-30.6-71.4-47.5-114.7-47.5h0Z"/>
    </g>
    <path class="st0" d="M79.3,1848.4c-45.6-45.6-45.6-119.8,0-165.5L1683,79.3c45.6-45.6,119.8-45.6,165.5,0l1603.7,1603.7c45.6,45.6,45.6,119.8,0,165.5l-1603.7,1603.7c-45.6,45.6-119.8,45.6-165.5,0L79.3,1848.4Z"/>
    <path class="st1" d="M123.8,1803.9c-21.1-21.1-21.1-55.3,0-76.4L1727.5,123.8c21.1-21.1,55.3-21.1,76.4,0l1603.7,1603.7c21.1,21.1,21.1,55.3,0,76.4l-1603.7,1603.7c-21.1,21.1-55.3,21.1-76.4,0L123.8,1803.9Z"/>
  </g>
  <g>
    <path class="st0" d="M1002.1,1425.6l-100.2,250.1-100.3-250.1v250.1h-68.4v-432h68.4l100.3,242.5,100.2-242.5h68.4v432h-68.4v-250.1Z"/>
    <path class="st0" d="M1472.5,1459.7c0,15.5,3.3,223.6-153.5,223.6s-153.5-208.1-153.5-223.6-3.3-223.5,153.5-223.5,153.5,208,153.5,223.5ZM1319.8,1613.6c46.5,0,84.3-44.1,84.3-153.9s-37.8-153.9-84.3-153.9-84.3,44.1-84.3,153.9,37.8,153.9,84.3,153.9Z"/>
    <path class="st0" d="M1788.7,1675.7l-68.5-277.4-66.9,277.4h-60.9l-63.8-432h69.9l33.5,227.4,54.7-227.4h67l56.2,227.4,33.5-227.4h69.9l-63.9,432h-60.7Z"/>
    <path class="st0" d="M1978.1,1243.7h69.1v432h-69.1v-432Z"/>
    <path class="st0" d="M2219.1,1383.2v292.5h-68.1v-432h68.1l157.7,275.9v-275.9h68.3v432h-60.6l-165.3-292.5Z"/>
    <path class="st0" d="M2696.7,1236.2c69.2,0,108.2,26.2,137.5,95.5l-65.2,25.7c-18.2-37.9-36.3-51.5-69.7-51.5-94.9,0-89.5,144.5-89.5,154.6,0,16.3-3.7,153.1,80.3,153.1s75.8-27.3,75.8-66.7v-18.1h-78.8v-68.3h147v86.4c0,78.8-57.6,136.4-136.5,136.4s-157.6,12.9-157.6-223.6,1.8-223.5,156.6-223.5Z"/>
  </g>
  <g>
    <path class="st0" d="M1105.8,2310.4h-135.6l-42.7,121.3h-73.2l149.4-432h68.6l149.4,432h-73.2l-42.7-121.3ZM994.6,2240.7h86.9l-42.7-121.2-44.2,121.2Z"/>
    <path class="st0" d="M1512.4,2243.7h-157.7v188h-68.1v-432h68.1v174.3h157.7v-174.3h68.3v432h-68.2v-188Z"/>
    <path class="st0" d="M1684.3,1999.7h254.3v68.2h-186.2v106.1h125.7v69.7h-125.7v118.3h199.8v69.7h-267.9v-432Z"/>
    <path class="st0" d="M2238.4,2310.4h-135.6l-42.7,121.3h-73.2l149.4-432h68.6l149.4,432h-73.2l-42.7-121.3ZM2127.1,2240.7h86.9l-42.7-121.2-44.2,121.2Z"/>
    <path class="st0" d="M2419.1,2431.7v-432h155.8c109,0,138.2,143.6,138.2,206.3,0,162.1-83.3,225.7-138,225.7h-156.1ZM2564.5,2067.9h-77.3v294h72.5c62.9,0,83.5-76.1,83.5-157.5s-11-136.6-78.7-136.6Z"/>
  </g>
</svg>