<?xml version="1.0" encoding="UTF-8"?>
<svg id="For_Sheets" xmlns="http://www.w3.org/2000/svg" version="1.1" viewBox="0 0 3531.4 3531.4">
  <!-- Generator: Adobe Illustrator 29.1.0, SVG Export Plug-In . SVG Version: 2.1.0 Build 142)  -->
  <defs>
    <style>
      .st0 {
        fill: #231f20;
      }

      .st1 {
        fill: #f7921e;
      }
    </style>
  </defs>
  <g>
    <g>
      <path class="st1" d="M1765.7,3531.6c-43.3,0-84-16.9-114.6-47.5L47.4,1880.4c-63.2-63.2-63.2-166.1,0-229.3L1651.1,47.4C1681.7,16.7,1722.4-.1,1765.7-.1s84,16.9,114.6,47.5l1603.7,1603.7c63.2,63.2,63.2,166.1,0,229.3l-1603.7,1603.7c-30.6,30.6-71.3,47.5-114.6,47.5Z"/>
      <path class="st0" d="M1765.7,0c41.5,0,82.9,15.8,114.6,47.4l1603.7,1603.7c63.3,63.3,63.3,165.8,0,229.1l-1603.7,1603.7c-31.6,31.6-73.1,47.4-114.6,47.4s-82.9-15.8-114.6-47.4L47.4,1880.3c-63.3-63.3-63.3-165.8,0-229.1L1651.2,47.4C1682.8,15.8,1724.3,0,1765.7,0M1765.7-.3c-43.3,0-84.1,16.9-114.7,47.5L47.3,1651c-30.6,30.6-47.5,71.4-47.5,114.7,0,43.3,16.9,84.1,47.5,114.7l1603.7,1603.7c30.6,30.6,71.4,47.5,114.7,47.5s84.1-16.9,114.7-47.5l1603.7-1603.7c30.6-30.6,47.5-71.4,47.5-114.7,0-43.3-16.9-84.1-47.5-114.7L1880.4,47.3c-30.6-30.6-71.4-47.5-114.7-47.5h0Z"/>
    </g>
    <path class="st0" d="M79.3,1848.4c-45.6-45.6-45.6-119.8,0-165.5L1683,79.3c45.6-45.6,119.8-45.6,165.5,0l1603.7,1603.7c45.6,45.6,45.6,119.8,0,165.5l-1603.7,1603.7c-45.6,45.6-119.8,45.6-165.5,0L79.3,1848.4Z"/>
    <path class="st1" d="M123.8,1803.9c-21.1-21.1-21.1-55.3,0-76.4L1727.5,123.8c21.1-21.1,55.3-21.1,76.4,0l1603.7,1603.7c21.1,21.1,21.1,55.3,0,76.4l-1603.7,1603.7c-21.1,21.1-55.3,21.1-76.4,0L123.8,1803.9Z"/>
  </g>
  <g>
    <path class="st0" d="M1352,1945.7l-57.1-231.2-55.8,231.2h-50.7l-53.2-360h58.3l27.9,189.5,45.6-189.5h55.8l46.8,189.5,27.9-189.5h58.3l-53.2,360h-50.6Z"/>
    <path class="st0" d="M1758.5,1765.7c0,12.9,2.7,186.3-127.9,186.3s-127.9-173.4-127.9-186.3-2.7-186.3,127.9-186.3,127.9,173.3,127.9,186.3ZM1631.2,1893.9c38.8,0,70.3-36.8,70.3-128.2s-31.5-128.2-70.3-128.2-70.3,36.7-70.3,128.2,31.5,128.2,70.3,128.2Z"/>
    <path class="st0" d="M1894.5,1789v156.7h-56.8v-360h130.2c82.5,0,107.3,66,107.3,101.1s-4.9,66-55.9,90.1l63.4,168.7h-61.9l-58.1-156.7h-68.3ZM1966,1731c45.2,0,52.3-32.6,52.3-44.2s-11.7-44.2-49.5-44.2h-74.2v88.4h71.5Z"/>
    <path class="st0" d="M2239,1775.2l-38,46.8v123.7h-57v-360h57v142.7l114.1-142.7h73.5l-111.5,140.2,119.1,219.8h-65.9l-91.3-170.5Z"/>
  </g>
  <g>
    <path class="st0" d="M933.8,1222.9v-231.2h56.8v231.2c0,46.8,26.5,77,65.7,77s65.7-30.3,65.7-77v-231.2h56.9v231.2c0,113.8-87.3,135.1-122.5,135.1s-122.5-18.9-122.5-135.1Z"/>
    <path class="st0" d="M1372.4,1351.7h-57.1v-309.5h-82.4v-50.5h223.3v50.5h-83.7v309.5Z"/>
    <path class="st0" d="M1510.1,991.7h57.6v360h-57.6v-360Z"/>
    <path class="st0" d="M1654.1,991.7h56.8v306.9h166.5v53.1h-223.3v-360Z"/>
    <path class="st0" d="M1931.4,991.7h57.6v360h-57.6v-360Z"/>
    <path class="st0" d="M2182.6,1351.7h-57.1v-309.5h-82.4v-50.5h223.3v50.5h-83.7v309.5Z"/>
    <path class="st0" d="M2472,1351.7h-57.1v-156.6l-126.9-203.4h68.6l86.3,139,87.6-139h67.3l-125.7,203.4v156.6Z"/>
  </g>
  <g>
    <path class="st0" d="M1192.8,2539.7v-295.6h-23.1v-39.2c20.5-1.3,33.3-10.1,41-25.3h34.6v360h-52.5Z"/>
    <g>
      <path class="st0" d="M1683.3,2337.6l-67,202.1-67-202.1v202.1h-51.8v-360h51.8l67,202.1,67-202.1h51.8v360h-51.8v-202.1Z"/>
      <path class="st0" d="M1814.3,2179.7h50.4v360h-50.4v-360Z"/>
      <path class="st0" d="M1943.9,2179.7h51.9v312h131.8v48h-183.7v-360Z"/>
      <path class="st0" d="M2178,2179.7h169.7v50.5h-117.8v90.9h74.7v49.3h-74.7v118.8h131.8v50.5h-183.7v-360Z"/>
    </g>
  </g>
</svg>