<?xml version="1.0" encoding="UTF-8"?>
<svg id="For_Sheets" xmlns="http://www.w3.org/2000/svg" version="1.1" viewBox="0 0 3531.4 3531.4">
  <!-- Generator: Adobe Illustrator 29.1.0, SVG Export Plug-In . SVG Version: 2.1.0 Build 142)  -->
  <defs>
    <style>
      .st0 {
        fill: #231f20;
      }

      .st1 {
        fill: #f7921e;
      }
    </style>
  </defs>
  <g>
    <g>
      <path class="st1" d="M1765.7,3531.6c-43.3,0-84-16.9-114.6-47.5L47.4,1880.4c-63.2-63.2-63.2-166.1,0-229.3L1651.1,47.4C1681.7,16.7,1722.4-.1,1765.7-.1s84,16.9,114.6,47.5l1603.7,1603.7c63.2,63.2,63.2,166.1,0,229.3l-1603.7,1603.7c-30.6,30.6-71.3,47.5-114.6,47.5Z"/>
      <path class="st0" d="M1765.7,0C1807.2,0,1848.6,15.8,1880.3,47.4l1603.7,1603.7c63.3,63.3,63.3,165.8,0,229.1l-1603.7,1603.7c-31.6,31.6-73.1,47.4-114.6,47.4s-82.9-15.8-114.6-47.4L47.4,1880.3c-63.3-63.3-63.3-165.8,0-229.1L1651.2,47.4C1682.8,15.8,1724.3,0,1765.7,0M1765.7-.2c-43.3,0-84.1,16.9-114.7,47.5L47.3,1651C16.6,1681.6-.2,1722.4-.3,1765.7c0,43.3,16.9,84.1,47.5,114.7l1603.7,1603.7c30.6,30.6,71.4,47.5,114.7,47.5s84.1-16.9,114.7-47.5l1603.7-1603.7c30.6-30.6,47.5-71.4,47.5-114.7s-16.9-84.1-47.5-114.7L1880.4,47.3C1849.8,16.6,1809.1-.2,1765.7-.2h0Z"/>
    </g>
    <path class="st0" d="M79.3,1848.4c-45.6-45.6-45.6-119.8,0-165.5L1683,79.3c45.6-45.6,119.8-45.6,165.5,0l1603.7,1603.7c45.6,45.6,45.6,119.8,0,165.5l-1603.7,1603.7c-45.6,45.6-119.8,45.6-165.5,0L79.3,1848.4Z"/>
    <path class="st1" d="M123.8,1803.9c-21.1-21.1-21.1-55.3,0-76.4L1727.5,123.8c21.1-21.1,55.3-21.1,76.4,0l1603.7,1603.7c21.1,21.1,21.1,55.3,0,76.4l-1603.7,1603.7c-21.1,21.1-55.3,21.1-76.4,0L123.8,1803.9Z"/>
  </g>
  <g>
    <path class="st0" d="M1263.3,1998.3l136.2-254.2h-122v-50.4h187.5v32.8l-147.7,278.1h147.7v49.1h-201.7v-55.4Z"/>
    <path class="st0" d="M1519,1873c0-188.5,87.4-185.5,106.8-185.5s105.7-2.9,105.7,185.6-86.3,186.9-105.7,186.9-106.8,3-106.8-187ZM1625.2,1738c-10.3,0-56.7-2.1-56.7,135.3s46.4,136.3,56.7,136.3,56.6,2.1,56.6-136.3-46.4-135.3-56.6-135.3Z"/>
    <path class="st0" d="M1855.2,1812.5v241.2h-51.7v-360h51.7l98.3,216v-216h51.7v360h-39.1l-111-241.2Z"/>
    <path class="st0" d="M2084.4,1693.7h169.7v50.5h-117.8v90.9h74.7v49.3h-74.7v118.8h131.8v50.5h-183.7v-360Z"/>
  </g>
  <g>
    <path class="st0" d="M1320.2,2531.2h-77.2l-24.1,98.5h-51.9l89.9-360h50.7l89.9,360h-51.9l-25.3-98.5ZM1255.6,2480.7h51.9l-26.6-103.6-25.3,103.6Z"/>
    <path class="st0" d="M1597.9,2466.8h-98.4v162.9h-51.7v-360h51.7v146.5h98.3v-146.5h51.7v360h-51.7v-162.9Z"/>
    <path class="st0" d="M1728.7,2269.7h169.7v50.5h-117.8v90.9h74.7v49.3h-74.7v118.8h131.8v50.5h-183.7v-360Z"/>
    <path class="st0" d="M2098,2531.2h-77.2l-24.1,98.5h-51.9l89.9-360h50.7l89.9,360h-51.9l-25.3-98.5ZM2033.5,2480.7h51.9l-26.6-103.6-25.3,103.6Z"/>
    <path class="st0" d="M2225.7,2629.7v-360h102.7c22,0,98.9,1.1,98.9,179.4s-71.1,180.6-94.7,180.6h-107ZM2317.7,2320.3h-40.4v258.9h35.9c42.1,0,63.7-18.4,63.7-127.6s-31.5-131.4-59.2-131.4Z"/>
  </g>
  <g>
    <path class="st0" d="M886.1,1477.7v-360h113.4c47.8,0,81.9,37.9,81.9,93.5s-8.8,48-37.8,78.3c27.7,22.7,44.1,53.1,44.1,89.7,0,53.9-42.9,98.5-95.8,98.5h-105.9ZM937.8,1168.3v96h54.2c24,0,39.1-20.2,39.1-53.1s-11.1-42.9-39.1-42.9h-54.2ZM937.8,1427.2h51.7c29,0,47.9-20.2,47.9-51.8s-20.8-60.6-47.9-60.6h-51.7v112.4Z"/>
    <path class="st0" d="M1149,1117.7h51.9v312h131.8v48h-183.7v-360Z"/>
    <path class="st0" d="M1507.5,1379.2h-77.2l-24.1,98.5h-51.9l89.9-360h50.7l89.9,360h-51.9l-25.3-98.5ZM1442.9,1328.7h51.9l-26.6-103.6-25.3,103.6Z"/>
    <path class="st0" d="M1718.6,1433.6c27.9,0,50.7-25.3,50.7-54.4,0-76.7-134.4-76.5-134.4-174.4s40.6-93.4,92.6-93.4,90.1,39.1,91.3,93.5h-49.5c-1.3-25.2-19-41.7-41.8-41.7s-43.1,17.6-43.1,41.6,13.5,30.1,30.3,40.7c48.7,29.4,104.1,64.8,104.1,133.7s-44.4,104.8-100.2,104.8-101.4-53.6-101.4-112.5h50.8c0,30.6,15.2,62,50.7,62Z"/>
    <path class="st0" d="M1969.1,1477.7h-51.9v-312h-65.9v-48h183.7v48h-65.9v312Z"/>
    <path class="st0" d="M2085.4,1117.7h50.4v360h-50.4v-360Z"/>
    <path class="st0" d="M2266.6,1236.5v241.2h-51.7v-360h51.7l98.3,216v-216h51.7v360h-39.1l-111-241.2Z"/>
    <path class="st0" d="M2600.3,1484c-32.8,0-111.6-6.1-111.6-185.7s75-186.9,107.8-186.9c52,0,91.3,37.8,93.9,90.9h-52c-1.3-24-17.7-40.5-43.1-40.5s-57.1,5.4-57.1,136.5,43.5,135.1,60.8,135.1c26.6,0,39.3-17.5,39.3-55.6v-24h-40.6v-50.6h92.6v74.5c0,90.1-59.3,106.1-90,106.1Z"/>
  </g>
</svg>