<?xml version="1.0" encoding="UTF-8"?>
<!-- Generator: Adobe Illustrator 18.1.1, SVG Export Plug-In . SVG Version: 6.00 Build 0)  -->
<svg width="32px" height="32px" enable-background="new 0 0 32 32" version="1.1" viewBox="0 0 32 32" xml:space="preserve" xmlns="http://www.w3.org/2000/svg" xmlns:cc="http://creativecommons.org/ns#" xmlns:dc="http://purl.org/dc/elements/1.1/" xmlns:rdf="http://www.w3.org/1999/02/22-rdf-syntax-ns#"><metadata><rdf:RDF><cc:Work rdf:about=""><dc:format>image/svg+xml</dc:format><dc:type rdf:resource="http://purl.org/dc/dcmitype/StillImage"/><dc:title/></cc:Work></rdf:RDF></metadata><path id="White_2_" d="M30.7,0H1.3C0.6,0,0,0.6,0,1.3v29.3C0,31.4,0.6,32,1.3,32H17V20h-4v-5h4v-4  c0-4.1,2.6-6.2,6.3-6.2C25.1,4.8,26.6,5,27,5v4.3l-2.6,0c-2,0-2.5,1-2.5,2.4V15h5l-1,5h-4l0.1,12h8.6c0.7,0,1.3-0.6,1.3-1.3V1.3  C32,0.6,31.4,0,30.7,0z" fill="#444"/></svg>
