<?xml version="1.0" encoding="UTF-8"?>
<!-- Generator: Adobe Illustrator 18.1.1, SVG Export Plug-In . SVG Version: 6.00 Build 0)  -->
<svg width="32px" height="32px" enable-background="new 0 0 32 32" version="1.1" viewBox="0 0 32 32" xml:space="preserve" xmlns="http://www.w3.org/2000/svg" xmlns:cc="http://creativecommons.org/ns#" xmlns:dc="http://purl.org/dc/elements/1.1/" xmlns:rdf="http://www.w3.org/1999/02/22-rdf-syntax-ns#"><metadata><rdf:RDF><cc:Work rdf:about=""><dc:format>image/svg+xml</dc:format><dc:type rdf:resource="http://purl.org/dc/dcmitype/StillImage"/><dc:title/></cc:Work></rdf:RDF></metadata><path d="m28.2 0h-24.4c-2.1 0-3.8 1.7-3.8 3.8v24.4c0 2.1 1.7 3.8 3.8 3.8h24.4c2.1 0 3.8-1.7 3.8-3.8v-24.4c0-2.1-1.7-3.8-3.8-3.8zm-4.2 4h3c0.6 0 1 0.4 1 1v3c0 0.6-0.4 1-1 1h-3c-0.6 0-1-0.4-1-1v-3c0-0.6 0.4-1 1-1zm-8 5.9c3.4 0 6.2 2.7 6.2 6.1s-2.8 6.1-6.2 6.1-6.2-2.7-6.2-6.1c0.1-3.4 2.8-6.1 6.2-6.1zm12 19.1h-24c-0.6 0-1-0.4-1-1v-15h4c-0.5 0.8-0.7 2.1-0.7 3 0 5.4 4.4 9.7 9.7 9.7 5.4 0 9.7-4.4 9.7-9.7 0-0.9-0.1-2.3-0.8-3h4v15c0.1 0.6-0.3 1-0.9 1z" fill="#444"/></svg>
