<?xml version="1.0" encoding="UTF-8"?>
<!-- Generator: Adobe Illustrator 18.1.1, SVG Export Plug-In . SVG Version: 6.00 Build 0)  -->
<svg width="32px" height="32px" enable-background="new 0 0 32 32" version="1.1" viewBox="0 0 32 32" xml:space="preserve" xmlns="http://www.w3.org/2000/svg" xmlns:cc="http://creativecommons.org/ns#" xmlns:dc="http://purl.org/dc/elements/1.1/" xmlns:rdf="http://www.w3.org/1999/02/22-rdf-syntax-ns#"><metadata><rdf:RDF><cc:Work rdf:about=""><dc:format>image/svg+xml</dc:format><dc:type rdf:resource="http://purl.org/dc/dcmitype/StillImage"/><dc:title/></cc:Work></rdf:RDF></metadata><g fill="#444"><path d="m0.6 16.4c0-0.1-0.1-0.1-0.1-0.1-0.1 0-0.1 0.1-0.1 0.1l-0.3 3 0.3 2.9c0 0.1 0.1 0.1 0.1 0.1 0.1 0 0.1-0.1 0.1-0.1l0.4-2.9-0.4-3z"/><path d="m5.7 13.7c-0.1 0-0.2 0.1-0.3 0.2l-0.3 5.5 0.3 3.5c0 0.1 0.1 0.2 0.3 0.2 0.1 0 0.2-0.1 0.3-0.2l0.3-3.5-0.3-5.5c0-0.1-0.1-0.2-0.3-0.2z"/><path d="m3.1 15.6c-0.1 0-0.2 0.1-0.2 0.2l-0.3 3.6 0.3 3.5c0 0.1 0.1 0.2 0.2 0.2s0.2-0.1 0.2-0.2l0.3-3.5-0.3-3.6c0-0.2-0.1-0.2-0.2-0.2z"/><path d="m8.4 23.2c0.2 0 0.3-0.1 0.3-0.3l0.3-3.5-0.3-7.3c0-0.2-0.1-0.3-0.3-0.3s-0.3 0.1-0.3 0.3l-0.2 7.3 0.2 3.5c0 0.1 0.2 0.3 0.3 0.3z"/><path d="m14 23.2c0.2 0 0.4-0.2 0.4-0.4l0.2-3.4-0.2-8.4c0-0.2-0.2-0.4-0.4-0.4s-0.4 0.2-0.4 0.4l-0.2 8.4 0.2 3.4c-0.1 0.2 0.1 0.4 0.4 0.4z"/><path d="m11.2 23.2c0.2 0 0.4-0.2 0.4-0.4l0.2-3.4-0.3-7.4c0-0.2-0.2-0.4-0.4-0.4s-0.4 0.2-0.4 0.4l-0.2 7.3 0.2 3.4c0.1 0.3 0.3 0.5 0.5 0.5z"/><path d="m27.9 15c-0.6 0-1.1 0.1-1.6 0.3-0.3-3.7-3.4-6.6-7.2-6.6-0.9 0-1.8 0.2-2.6 0.5-0.3 0.1-0.4 0.2-0.4 0.5v12.9c0 0.2 0.2 0.5 0.4 0.5h11.3c2.3 0 4.1-1.8 4.1-4.1s-1.7-4-4-4z"/></g></svg>
