<?xml version="1.0" encoding="UTF-8"?>
<!-- Generator: Adobe Illustrator 18.1.1, SVG Export Plug-In . SVG Version: 6.00 Build 0)  -->
<svg width="32px" height="32px" enable-background="new 0 0 32 32" version="1.1" viewBox="0 0 32 32" xml:space="preserve" xmlns="http://www.w3.org/2000/svg" xmlns:cc="http://creativecommons.org/ns#" xmlns:dc="http://purl.org/dc/elements/1.1/" xmlns:rdf="http://www.w3.org/1999/02/22-rdf-syntax-ns#"><metadata><rdf:RDF><cc:Work rdf:about=""><dc:format>image/svg+xml</dc:format><dc:type rdf:resource="http://purl.org/dc/dcmitype/StillImage"/><dc:title/></cc:Work></rdf:RDF></metadata><path d="m16 0c-8.8 0-16 7.2-16 16s7.2 16 16 16 16-7.2 16-16-7.1-16-16-16zm7.4 23.1c-0.3 0.5-0.9 0.6-1.4 0.3-3.8-2.3-8.5-2.8-14.1-1.5-0.6 0.2-1-0.2-1.2-0.7-0.2-0.6 0.2-1 0.7-1.2 6.1-1.4 11.4-0.8 15.5 1.8 0.6 0.2 0.7 0.8 0.5 1.3zm1.9-4.4c-0.4 0.6-1.1 0.8-1.7 0.4-4.3-2.6-10.9-3.4-15.9-1.8-0.6 0.2-1.4-0.2-1.5-0.8-0.2-0.7 0.1-1.4 0.8-1.5 5.8-1.8 13-0.9 18 2.2 0.4 0.2 0.7 1 0.3 1.5zm0.1-4.5c-5.1-3-13.7-3.4-18.6-1.8-0.8 0.2-1.6-0.2-1.8-1s0.2-1.6 1-1.8c5.7-1.7 15-1.4 21 2.2 0.7 0.4 1 1.4 0.6 2.1-0.5 0.5-1.4 0.7-2.2 0.3z" fill="#444"/></svg>
