<?xml version="1.0" encoding="UTF-8"?>
<!-- Generator: Adobe Illustrator 18.1.1, SVG Export Plug-In . SVG Version: 6.00 Build 0)  -->
<svg width="32px" height="32px" enable-background="new 0 0 32 32" version="1.1" viewBox="0 0 32 32" xml:space="preserve" xmlns="http://www.w3.org/2000/svg" xmlns:cc="http://creativecommons.org/ns#" xmlns:dc="http://purl.org/dc/elements/1.1/" xmlns:rdf="http://www.w3.org/1999/02/22-rdf-syntax-ns#"><metadata><rdf:RDF><cc:Work rdf:about=""><dc:format>image/svg+xml</dc:format><dc:type rdf:resource="http://purl.org/dc/dcmitype/StillImage"/><dc:title/></cc:Work></rdf:RDF></metadata><g fill="#444"><path d="M0,16c0,6.3,3.7,11.8,9,14.4L1.4,9.5C0.5,11.5,0,13.7,0,16z"/><path d="m26.8 15.2c0-2-0.7-3.3-1.3-4.4-0.8-1.3-1.6-2.4-1.6-3.8 0-1.5 1.1-2.8 2.7-2.8h0.2c-2.8-2.6-6.6-4.2-10.8-4.2-5.6 0-10.5 2.9-13.4 7.2h1c1.7 0 4.3-0.2 4.3-0.2 0.9 0 1 1.2 0.1 1.3 0 0-0.9 0.1-1.8 0.2l5.8 17.3 3.5-10.5-2.5-6.8c-0.9-0.1-1.7-0.2-1.7-0.2-0.8 0-0.7-1.3 0.2-1.3 0 0 2.6 0.2 4.2 0.2 1.7 0 4.3-0.2 4.3-0.2 0.9-0.1 1 1.2 0.1 1.3 0 0-0.9 0.1-1.8 0.2l5.7 17.2 1.6-5.3c0.7-2.2 1.2-3.8 1.2-5.2z"/><path d="m16.3 17.4l-4.8 13.9c1.4 0.4 2.9 0.7 4.5 0.7 1.9 0 3.7-0.3 5.3-0.9 0-0.1-0.1-0.1-0.1-0.2l-4.9-13.5z"/><path d="m30 8.3c0.1 0.5 0.1 1.1 0.1 1.6 0 1.6-0.3 3.4-1.2 5.7l-4.9 14.2c4.8-2.8 8-7.9 8-13.8 0-2.8-0.7-5.4-2-7.7z"/></g></svg>
