<?xml version="1.0" encoding="UTF-8"?>
<!-- Generator: Adobe Illustrator 18.1.1, SVG Export Plug-In . SVG Version: 6.00 Build 0)  -->
<svg width="32px" height="32px" enable-background="new 0 0 32 32" version="1.1" viewBox="0 0 32 32" xml:space="preserve" xmlns="http://www.w3.org/2000/svg" xmlns:cc="http://creativecommons.org/ns#" xmlns:dc="http://purl.org/dc/elements/1.1/" xmlns:rdf="http://www.w3.org/1999/02/22-rdf-syntax-ns#"><metadata><rdf:RDF><cc:Work rdf:about=""><dc:format>image/svg+xml</dc:format><dc:type rdf:resource="http://purl.org/dc/dcmitype/StillImage"/><dc:title/></cc:Work></rdf:RDF></metadata><path d="m31.7 9.6s-0.3-2.2-1.3-3.2c-1.2-1.3-2.6-1.3-3.2-1.4-4.5-0.3-11.2-0.3-11.2-0.3s-6.7 0-11.2 0.3c-0.6 0.1-2 0.1-3.2 1.4-1 1-1.3 3.2-1.3 3.2s-0.3 2.6-0.3 5.2v2.4c0 2.6 0.3 5.2 0.3 5.2s0.3 2.2 1.3 3.2c1.2 1.3 2.8 1.2 3.5 1.4 2.6 0.2 10.9 0.3 10.9 0.3s6.7 0 11.2-0.3c0.6-0.1 2-0.1 3.2-1.4 1-1 1.3-3.2 1.3-3.2s0.3-2.6 0.3-5.2v-2.4c0-2.6-0.3-5.2-0.3-5.2zm-19 10.6v-9l8.6 4.5-8.6 4.5z" fill="#444"/></svg>
